*
*
G04 PADS 9.3.1 Build Number: 456998 generated Gerber (RS-274-X) file*
G04 PC Version=2.1*
*
%IN "bogiectl.pcb"*%
*
%MOIN*%
*
%FSLAX35Y35*%
*
*
*
*
G04 PC Standard Apertures*
*
*
G04 Thermal Relief Aperture macro.*
%AMTER*
1,1,$1,0,0*
1,0,$1-$2,0,0*
21,0,$3,$4,0,0,45*
21,0,$3,$4,0,0,135*
%
*
*
G04 Annular Aperture macro.*
%AMANN*
1,1,$1,0,0*
1,0,$2,0,0*
%
*
*
G04 Odd Aperture macro.*
%AMODD*
1,1,$1,0,0*
1,0,$1-0.005,0,0*
%
*
*
G04 PC Custom Aperture Macros*
*
*
*
*
*
*
G04 PC Aperture Table*
*
%ADD010C,0.001*%
%ADD011C,0.048*%
%ADD013C,0.004*%
%ADD014C,0.006*%
%ADD019C,0.01*%
%ADD020C,0.065*%
%ADD021C,0.06*%
%ADD022C,0.05906*%
%ADD024C,0.05118*%
%ADD027C,0.095*%
%ADD028C,0.14*%
%ADD030C,0.15*%
%ADD031C,0.016*%
%ADD032C,0.02*%
%ADD034C,0.03*%
%ADD035C,0.015*%
%ADD036R,0.03543X0.02165*%
*
*
*
*
G04 PC Circuitry*
G04 Layer Name bogiectl.pcb - circuitry*
%LPD*%
*
*
G04 PC Custom Flashes*
G04 Layer Name bogiectl.pcb - flashes*
%LPD*%
*
*
G04 PC Circuitry*
G04 Layer Name bogiectl.pcb - circuitry*
%LPD*%
*
G54D10*
G54D11*
G01X283000Y187000D03*
X302200D03*
G54D13*
X297800Y195300D02*
Y192700D01*
X294400*
Y195300*
X297800*
X294400Y192800D02*
X297800D01*
X294400Y193200D02*
X297800D01*
X294400Y193600D02*
X297800D01*
X294400Y194000D02*
X297800D01*
X294400Y194400D02*
X297800D01*
X294400Y194800D02*
X297800D01*
X294400Y195200D02*
X297800D01*
X294400Y192700D02*
Y195300D01*
X294800Y192700D02*
Y195300D01*
X295200Y192700D02*
Y195300D01*
X295600Y192700D02*
Y195300D01*
X296000Y192700D02*
Y195300D01*
X296400Y192700D02*
Y195300D01*
X296800Y192700D02*
Y195300D01*
X297200Y192700D02*
Y195300D01*
X297600Y192700D02*
Y195300D01*
X291600D02*
Y192700D01*
X288200*
Y195300*
X291600*
X288200Y192800D02*
X291600D01*
X288200Y193200D02*
X291600D01*
X288200Y193600D02*
X291600D01*
X288200Y194000D02*
X291600D01*
X288200Y194400D02*
X291600D01*
X288200Y194800D02*
X291600D01*
X288200Y195200D02*
X291600D01*
X288400Y192700D02*
Y195300D01*
X288800Y192700D02*
Y195300D01*
X289200Y192700D02*
Y195300D01*
X289600Y192700D02*
Y195300D01*
X290000Y192700D02*
Y195300D01*
X290400Y192700D02*
Y195300D01*
X290800Y192700D02*
Y195300D01*
X291200Y192700D02*
Y195300D01*
X291600Y192700D02*
Y195300D01*
X273200Y309700D02*
Y312300D01*
X276600*
Y309700*
X273200*
Y310000D02*
X276600D01*
X273200Y310400D02*
X276600D01*
X273200Y310800D02*
X276600D01*
X273200Y311200D02*
X276600D01*
X273200Y311600D02*
X276600D01*
X273200Y312000D02*
X276600D01*
X273200Y309700D02*
Y312300D01*
X273600Y309700D02*
Y312300D01*
X274000Y309700D02*
Y312300D01*
X274400Y309700D02*
Y312300D01*
X274800Y309700D02*
Y312300D01*
X275200Y309700D02*
Y312300D01*
X275600Y309700D02*
Y312300D01*
X276000Y309700D02*
Y312300D01*
X276400Y309700D02*
Y312300D01*
X279400Y309700D02*
Y312300D01*
X282800*
Y309700*
X279400*
Y310000D02*
X282800D01*
X279400Y310400D02*
X282800D01*
X279400Y310800D02*
X282800D01*
X279400Y311200D02*
X282800D01*
X279400Y311600D02*
X282800D01*
X279400Y312000D02*
X282800D01*
X279600Y309700D02*
Y312300D01*
X280000Y309700D02*
Y312300D01*
X280400Y309700D02*
Y312300D01*
X280800Y309700D02*
Y312300D01*
X281200Y309700D02*
Y312300D01*
X281600Y309700D02*
Y312300D01*
X282000Y309700D02*
Y312300D01*
X282400Y309700D02*
Y312300D01*
X282800Y309700D02*
Y312300D01*
X275800Y306300D02*
Y303700D01*
X272400*
Y306300*
X275800*
X272400Y304000D02*
X275800D01*
X272400Y304400D02*
X275800D01*
X272400Y304800D02*
X275800D01*
X272400Y305200D02*
X275800D01*
X272400Y305600D02*
X275800D01*
X272400Y306000D02*
X275800D01*
X272400Y303700D02*
Y306300D01*
X272800Y303700D02*
Y306300D01*
X273200Y303700D02*
Y306300D01*
X273600Y303700D02*
Y306300D01*
X274000Y303700D02*
Y306300D01*
X274400Y303700D02*
Y306300D01*
X274800Y303700D02*
Y306300D01*
X275200Y303700D02*
Y306300D01*
X275600Y303700D02*
Y306300D01*
X269600D02*
Y303700D01*
X266200*
Y306300*
X269600*
X266200Y304000D02*
X269600D01*
X266200Y304400D02*
X269600D01*
X266200Y304800D02*
X269600D01*
X266200Y305200D02*
X269600D01*
X266200Y305600D02*
X269600D01*
X266200Y306000D02*
X269600D01*
X266400Y303700D02*
Y306300D01*
X266800Y303700D02*
Y306300D01*
X267200Y303700D02*
Y306300D01*
X267600Y303700D02*
Y306300D01*
X268000Y303700D02*
Y306300D01*
X268400Y303700D02*
Y306300D01*
X268800Y303700D02*
Y306300D01*
X269200Y303700D02*
Y306300D01*
X269600Y303700D02*
Y306300D01*
X280200Y303700D02*
Y306300D01*
X283600*
Y303700*
X280200*
Y304000D02*
X283600D01*
X280200Y304400D02*
X283600D01*
X280200Y304800D02*
X283600D01*
X280200Y305200D02*
X283600D01*
X280200Y305600D02*
X283600D01*
X280200Y306000D02*
X283600D01*
X280400Y303700D02*
Y306300D01*
X280800Y303700D02*
Y306300D01*
X281200Y303700D02*
Y306300D01*
X281600Y303700D02*
Y306300D01*
X282000Y303700D02*
Y306300D01*
X282400Y303700D02*
Y306300D01*
X282800Y303700D02*
Y306300D01*
X283200Y303700D02*
Y306300D01*
X283600Y303700D02*
Y306300D01*
X286400Y303700D02*
Y306300D01*
X289800*
Y303700*
X286400*
Y304000D02*
X289800D01*
X286400Y304400D02*
X289800D01*
X286400Y304800D02*
X289800D01*
X286400Y305200D02*
X289800D01*
X286400Y305600D02*
X289800D01*
X286400Y306000D02*
X289800D01*
X286400Y303700D02*
Y306300D01*
X286800Y303700D02*
Y306300D01*
X287200Y303700D02*
Y306300D01*
X287600Y303700D02*
Y306300D01*
X288000Y303700D02*
Y306300D01*
X288400Y303700D02*
Y306300D01*
X288800Y303700D02*
Y306300D01*
X289200Y303700D02*
Y306300D01*
X289600Y303700D02*
Y306300D01*
X245700Y130800D02*
X248300D01*
Y127400*
X245700*
Y130800*
Y127600D02*
X248300D01*
X245700Y128000D02*
X248300D01*
X245700Y128400D02*
X248300D01*
X245700Y128800D02*
X248300D01*
X245700Y129200D02*
X248300D01*
X245700Y129600D02*
X248300D01*
X245700Y130000D02*
X248300D01*
X245700Y130400D02*
X248300D01*
X245700Y130800D02*
X248300D01*
X246000Y127400D02*
Y130800D01*
X246400Y127400D02*
Y130800D01*
X246800Y127400D02*
Y130800D01*
X247200Y127400D02*
Y130800D01*
X247600Y127400D02*
Y130800D01*
X248000Y127400D02*
Y130800D01*
X245700Y124600D02*
X248300D01*
Y121200*
X245700*
Y124600*
Y121200D02*
X248300D01*
X245700Y121600D02*
X248300D01*
X245700Y122000D02*
X248300D01*
X245700Y122400D02*
X248300D01*
X245700Y122800D02*
X248300D01*
X245700Y123200D02*
X248300D01*
X245700Y123600D02*
X248300D01*
X245700Y124000D02*
X248300D01*
X245700Y124400D02*
X248300D01*
X246000Y121200D02*
Y124600D01*
X246400Y121200D02*
Y124600D01*
X246800Y121200D02*
Y124600D01*
X247200Y121200D02*
Y124600D01*
X247600Y121200D02*
Y124600D01*
X248000Y121200D02*
Y124600D01*
X279200Y282700D02*
Y285300D01*
X282600*
Y282700*
X279200*
Y282800D02*
X282600D01*
X279200Y283200D02*
X282600D01*
X279200Y283600D02*
X282600D01*
X279200Y284000D02*
X282600D01*
X279200Y284400D02*
X282600D01*
X279200Y284800D02*
X282600D01*
X279200Y285200D02*
X282600D01*
X279200Y282700D02*
Y285300D01*
X279600Y282700D02*
Y285300D01*
X280000Y282700D02*
Y285300D01*
X280400Y282700D02*
Y285300D01*
X280800Y282700D02*
Y285300D01*
X281200Y282700D02*
Y285300D01*
X281600Y282700D02*
Y285300D01*
X282000Y282700D02*
Y285300D01*
X282400Y282700D02*
Y285300D01*
X285400Y282700D02*
Y285300D01*
X288800*
Y282700*
X285400*
Y282800D02*
X288800D01*
X285400Y283200D02*
X288800D01*
X285400Y283600D02*
X288800D01*
X285400Y284000D02*
X288800D01*
X285400Y284400D02*
X288800D01*
X285400Y284800D02*
X288800D01*
X285400Y285200D02*
X288800D01*
X285600Y282700D02*
Y285300D01*
X286000Y282700D02*
Y285300D01*
X286400Y282700D02*
Y285300D01*
X286800Y282700D02*
Y285300D01*
X287200Y282700D02*
Y285300D01*
X287600Y282700D02*
Y285300D01*
X288000Y282700D02*
Y285300D01*
X288400Y282700D02*
Y285300D01*
X288800Y282700D02*
Y285300D01*
X267200Y286700D02*
Y289300D01*
X270600*
Y286700*
X267200*
Y286800D02*
X270600D01*
X267200Y287200D02*
X270600D01*
X267200Y287600D02*
X270600D01*
X267200Y288000D02*
X270600D01*
X267200Y288400D02*
X270600D01*
X267200Y288800D02*
X270600D01*
X267200Y289200D02*
X270600D01*
X267200Y286700D02*
Y289300D01*
X267600Y286700D02*
Y289300D01*
X268000Y286700D02*
Y289300D01*
X268400Y286700D02*
Y289300D01*
X268800Y286700D02*
Y289300D01*
X269200Y286700D02*
Y289300D01*
X269600Y286700D02*
Y289300D01*
X270000Y286700D02*
Y289300D01*
X270400Y286700D02*
Y289300D01*
X273400Y286700D02*
Y289300D01*
X276800*
Y286700*
X273400*
Y286800D02*
X276800D01*
X273400Y287200D02*
X276800D01*
X273400Y287600D02*
X276800D01*
X273400Y288000D02*
X276800D01*
X273400Y288400D02*
X276800D01*
X273400Y288800D02*
X276800D01*
X273400Y289200D02*
X276800D01*
X273600Y286700D02*
Y289300D01*
X274000Y286700D02*
Y289300D01*
X274400Y286700D02*
Y289300D01*
X274800Y286700D02*
Y289300D01*
X275200Y286700D02*
Y289300D01*
X275600Y286700D02*
Y289300D01*
X276000Y286700D02*
Y289300D01*
X276400Y286700D02*
Y289300D01*
X276800Y286700D02*
Y289300D01*
X376300Y170200D02*
X373700D01*
Y173600*
X376300*
Y170200*
X373700Y170400D02*
X376300D01*
X373700Y170800D02*
X376300D01*
X373700Y171200D02*
X376300D01*
X373700Y171600D02*
X376300D01*
X373700Y172000D02*
X376300D01*
X373700Y172400D02*
X376300D01*
X373700Y172800D02*
X376300D01*
X373700Y173200D02*
X376300D01*
X373700Y173600D02*
X376300D01*
X374000Y170200D02*
Y173600D01*
X374400Y170200D02*
Y173600D01*
X374800Y170200D02*
Y173600D01*
X375200Y170200D02*
Y173600D01*
X375600Y170200D02*
Y173600D01*
X376000Y170200D02*
Y173600D01*
X376300Y176400D02*
X373700D01*
Y179800*
X376300*
Y176400*
X373700D02*
X376300D01*
X373700Y176800D02*
X376300D01*
X373700Y177200D02*
X376300D01*
X373700Y177600D02*
X376300D01*
X373700Y178000D02*
X376300D01*
X373700Y178400D02*
X376300D01*
X373700Y178800D02*
X376300D01*
X373700Y179200D02*
X376300D01*
X373700Y179600D02*
X376300D01*
X374000Y176400D02*
Y179800D01*
X374400Y176400D02*
Y179800D01*
X374800Y176400D02*
Y179800D01*
X375200Y176400D02*
Y179800D01*
X375600Y176400D02*
Y179800D01*
X376000Y176400D02*
Y179800D01*
X373700Y122800D02*
X376300D01*
Y119400*
X373700*
Y122800*
Y119600D02*
X376300D01*
X373700Y120000D02*
X376300D01*
X373700Y120400D02*
X376300D01*
X373700Y120800D02*
X376300D01*
X373700Y121200D02*
X376300D01*
X373700Y121600D02*
X376300D01*
X373700Y122000D02*
X376300D01*
X373700Y122400D02*
X376300D01*
X373700Y122800D02*
X376300D01*
X374000Y119400D02*
Y122800D01*
X374400Y119400D02*
Y122800D01*
X374800Y119400D02*
Y122800D01*
X375200Y119400D02*
Y122800D01*
X375600Y119400D02*
Y122800D01*
X376000Y119400D02*
Y122800D01*
X373700Y116600D02*
X376300D01*
Y113200*
X373700*
Y116600*
Y113200D02*
X376300D01*
X373700Y113600D02*
X376300D01*
X373700Y114000D02*
X376300D01*
X373700Y114400D02*
X376300D01*
X373700Y114800D02*
X376300D01*
X373700Y115200D02*
X376300D01*
X373700Y115600D02*
X376300D01*
X373700Y116000D02*
X376300D01*
X373700Y116400D02*
X376300D01*
X374000Y113200D02*
Y116600D01*
X374400Y113200D02*
Y116600D01*
X374800Y113200D02*
Y116600D01*
X375200Y113200D02*
Y116600D01*
X375600Y113200D02*
Y116600D01*
X376000Y113200D02*
Y116600D01*
X185800Y263300D02*
Y260700D01*
X182400*
Y263300*
X185800*
X182400Y260800D02*
X185800D01*
X182400Y261200D02*
X185800D01*
X182400Y261600D02*
X185800D01*
X182400Y262000D02*
X185800D01*
X182400Y262400D02*
X185800D01*
X182400Y262800D02*
X185800D01*
X182400Y263200D02*
X185800D01*
X182400Y260700D02*
Y263300D01*
X182800Y260700D02*
Y263300D01*
X183200Y260700D02*
Y263300D01*
X183600Y260700D02*
Y263300D01*
X184000Y260700D02*
Y263300D01*
X184400Y260700D02*
Y263300D01*
X184800Y260700D02*
Y263300D01*
X185200Y260700D02*
Y263300D01*
X185600Y260700D02*
Y263300D01*
X179600D02*
Y260700D01*
X176200*
Y263300*
X179600*
X176200Y260800D02*
X179600D01*
X176200Y261200D02*
X179600D01*
X176200Y261600D02*
X179600D01*
X176200Y262000D02*
X179600D01*
X176200Y262400D02*
X179600D01*
X176200Y262800D02*
X179600D01*
X176200Y263200D02*
X179600D01*
X176400Y260700D02*
Y263300D01*
X176800Y260700D02*
Y263300D01*
X177200Y260700D02*
Y263300D01*
X177600Y260700D02*
Y263300D01*
X178000Y260700D02*
Y263300D01*
X178400Y260700D02*
Y263300D01*
X178800Y260700D02*
Y263300D01*
X179200Y260700D02*
Y263300D01*
X179600Y260700D02*
Y263300D01*
X180200Y268700D02*
Y271300D01*
X183600*
Y268700*
X180200*
Y268800D02*
X183600D01*
X180200Y269200D02*
X183600D01*
X180200Y269600D02*
X183600D01*
X180200Y270000D02*
X183600D01*
X180200Y270400D02*
X183600D01*
X180200Y270800D02*
X183600D01*
X180200Y271200D02*
X183600D01*
X180400Y268700D02*
Y271300D01*
X180800Y268700D02*
Y271300D01*
X181200Y268700D02*
Y271300D01*
X181600Y268700D02*
Y271300D01*
X182000Y268700D02*
Y271300D01*
X182400Y268700D02*
Y271300D01*
X182800Y268700D02*
Y271300D01*
X183200Y268700D02*
Y271300D01*
X183600Y268700D02*
Y271300D01*
X186400Y268700D02*
Y271300D01*
X189800*
Y268700*
X186400*
Y268800D02*
X189800D01*
X186400Y269200D02*
X189800D01*
X186400Y269600D02*
X189800D01*
X186400Y270000D02*
X189800D01*
X186400Y270400D02*
X189800D01*
X186400Y270800D02*
X189800D01*
X186400Y271200D02*
X189800D01*
X186400Y268700D02*
Y271300D01*
X186800Y268700D02*
Y271300D01*
X187200Y268700D02*
Y271300D01*
X187600Y268700D02*
Y271300D01*
X188000Y268700D02*
Y271300D01*
X188400Y268700D02*
Y271300D01*
X188800Y268700D02*
Y271300D01*
X189200Y268700D02*
Y271300D01*
X189600Y268700D02*
Y271300D01*
X200200Y240700D02*
Y243300D01*
X203600*
Y240700*
X200200*
Y240800D02*
X203600D01*
X200200Y241200D02*
X203600D01*
X200200Y241600D02*
X203600D01*
X200200Y242000D02*
X203600D01*
X200200Y242400D02*
X203600D01*
X200200Y242800D02*
X203600D01*
X200200Y243200D02*
X203600D01*
X200400Y240700D02*
Y243300D01*
X200800Y240700D02*
Y243300D01*
X201200Y240700D02*
Y243300D01*
X201600Y240700D02*
Y243300D01*
X202000Y240700D02*
Y243300D01*
X202400Y240700D02*
Y243300D01*
X202800Y240700D02*
Y243300D01*
X203200Y240700D02*
Y243300D01*
X203600Y240700D02*
Y243300D01*
X206400Y240700D02*
Y243300D01*
X209800*
Y240700*
X206400*
Y240800D02*
X209800D01*
X206400Y241200D02*
X209800D01*
X206400Y241600D02*
X209800D01*
X206400Y242000D02*
X209800D01*
X206400Y242400D02*
X209800D01*
X206400Y242800D02*
X209800D01*
X206400Y243200D02*
X209800D01*
X206400Y240700D02*
Y243300D01*
X206800Y240700D02*
Y243300D01*
X207200Y240700D02*
Y243300D01*
X207600Y240700D02*
Y243300D01*
X208000Y240700D02*
Y243300D01*
X208400Y240700D02*
Y243300D01*
X208800Y240700D02*
Y243300D01*
X209200Y240700D02*
Y243300D01*
X209600Y240700D02*
Y243300D01*
X204800Y236300D02*
Y233700D01*
X201400*
Y236300*
X204800*
X201400Y234000D02*
X204800D01*
X201400Y234400D02*
X204800D01*
X201400Y234800D02*
X204800D01*
X201400Y235200D02*
X204800D01*
X201400Y235600D02*
X204800D01*
X201400Y236000D02*
X204800D01*
X201600Y233700D02*
Y236300D01*
X202000Y233700D02*
Y236300D01*
X202400Y233700D02*
Y236300D01*
X202800Y233700D02*
Y236300D01*
X203200Y233700D02*
Y236300D01*
X203600Y233700D02*
Y236300D01*
X204000Y233700D02*
Y236300D01*
X204400Y233700D02*
Y236300D01*
X204800Y233700D02*
Y236300D01*
X198600D02*
Y233700D01*
X195200*
Y236300*
X198600*
X195200Y234000D02*
X198600D01*
X195200Y234400D02*
X198600D01*
X195200Y234800D02*
X198600D01*
X195200Y235200D02*
X198600D01*
X195200Y235600D02*
X198600D01*
X195200Y236000D02*
X198600D01*
X195200Y233700D02*
Y236300D01*
X195600Y233700D02*
Y236300D01*
X196000Y233700D02*
Y236300D01*
X196400Y233700D02*
Y236300D01*
X196800Y233700D02*
Y236300D01*
X197200Y233700D02*
Y236300D01*
X197600Y233700D02*
Y236300D01*
X198000Y233700D02*
Y236300D01*
X198400Y233700D02*
Y236300D01*
G54D14*
X198200Y263800D02*
X193800D01*
Y269200*
X198200*
Y263800*
X193800D02*
X198200D01*
X193800Y264400D02*
X198200D01*
X193800Y265000D02*
X198200D01*
X193800Y265600D02*
X198200D01*
X193800Y266200D02*
X198200D01*
X193800Y266800D02*
X198200D01*
X193800Y267400D02*
X198200D01*
X193800Y268000D02*
X198200D01*
X193800Y268600D02*
X198200D01*
X193800Y269200D02*
X198200D01*
X194200Y263800D02*
Y269200D01*
X194800Y263800D02*
Y269200D01*
X195400Y263800D02*
Y269200D01*
X196000Y263800D02*
Y269200D01*
X196600Y263800D02*
Y269200D01*
X197200Y263800D02*
Y269200D01*
X197800Y263800D02*
Y269200D01*
X198200Y272800D02*
X193800D01*
Y278200*
X198200*
Y272800*
X193800D02*
X198200D01*
X193800Y273400D02*
X198200D01*
X193800Y274000D02*
X198200D01*
X193800Y274600D02*
X198200D01*
X193800Y275200D02*
X198200D01*
X193800Y275800D02*
X198200D01*
X193800Y276400D02*
X198200D01*
X193800Y277000D02*
X198200D01*
X193800Y277600D02*
X198200D01*
X193800Y278200D02*
X198200D01*
X194200Y272800D02*
Y278200D01*
X194800Y272800D02*
Y278200D01*
X195400Y272800D02*
Y278200D01*
X196000Y272800D02*
Y278200D01*
X196600Y272800D02*
Y278200D01*
X197200Y272800D02*
Y278200D01*
X197800Y272800D02*
Y278200D01*
G54D19*
X216250Y115250D02*
Y120750D01*
X221750*
Y115250*
X216250*
Y116000D02*
X221750D01*
X216250Y117000D02*
X221750D01*
X216250Y118000D02*
X221750D01*
X216250Y119000D02*
X221750D01*
X216250Y120000D02*
X221750D01*
X217000Y115250D02*
Y120750D01*
X218000Y115250D02*
Y120750D01*
X219000Y115250D02*
Y120750D01*
X220000Y115250D02*
Y120750D01*
X221000Y115250D02*
Y120750D01*
X379250Y139043D02*
Y138043D01*
X376750*
Y139043*
X379250*
X376750Y139000D02*
X379250D01*
X377000Y138043D02*
Y139043D01*
X378000Y138043D02*
Y139043D01*
X379000Y138043D02*
Y139043D01*
X379250Y131957D02*
Y130957D01*
X376750*
Y131957*
X379250*
X376750Y131000D02*
X379250D01*
X377000Y130957D02*
Y131957D01*
X378000Y130957D02*
Y131957D01*
X379000Y130957D02*
Y131957D01*
X371376Y135500D02*
Y134500D01*
X368876*
Y135500*
X371376*
X368876Y135000D02*
X371376D01*
X369000Y134500D02*
Y135500D01*
X370000Y134500D02*
Y135500D01*
X371000Y134500D02*
Y135500D01*
X379250Y195043D02*
Y194043D01*
X376750*
Y195043*
X379250*
X376750Y195000D02*
X379250D01*
X377000Y194043D02*
Y195043D01*
X378000Y194043D02*
Y195043D01*
X379000Y194043D02*
Y195043D01*
X379250Y187957D02*
Y186957D01*
X376750*
Y187957*
X379250*
X376750Y187000D02*
X379250D01*
X377000Y186957D02*
Y187957D01*
X378000Y186957D02*
Y187957D01*
X379000Y186957D02*
Y187957D01*
X371376Y191500D02*
Y190500D01*
X368876*
Y191500*
X371376*
X368876Y191000D02*
X371376D01*
X369000Y190500D02*
Y191500D01*
X370000Y190500D02*
Y191500D01*
X371000Y190500D02*
Y191500D01*
X144815Y281601D02*
Y286399D01*
X144916Y286500*
X149714*
X149815Y286399*
Y281601*
X149714Y281500*
X144916*
X144815Y281601*
Y282000D02*
X149815D01*
X144815Y283000D02*
X149815D01*
X144815Y284000D02*
X149815D01*
X144815Y285000D02*
X149815D01*
X144815Y286000D02*
X149815D01*
X145000Y281500D02*
Y286500D01*
X146000Y281500D02*
Y286500D01*
X147000Y281500D02*
Y286500D01*
X148000Y281500D02*
Y286500D01*
X149000Y281500D02*
Y286500D01*
X380250Y239043D02*
Y238043D01*
X377750*
Y239043*
X380250*
X377750Y239000D02*
X380250D01*
X378000Y238043D02*
Y239043D01*
X379000Y238043D02*
Y239043D01*
X380000Y238043D02*
Y239043D01*
X380250Y231957D02*
Y230957D01*
X377750*
Y231957*
X380250*
X377750Y231000D02*
X380250D01*
X378000Y230957D02*
Y231957D01*
X379000Y230957D02*
Y231957D01*
X380000Y230957D02*
Y231957D01*
X372376Y235500D02*
Y234500D01*
X369876*
Y235500*
X372376*
X369876Y235000D02*
X372376D01*
X370000Y234500D02*
Y235500D01*
X371000Y234500D02*
Y235500D01*
X372000Y234500D02*
Y235500D01*
X270500Y150500D02*
Y155500D01*
X275500*
Y150500*
X270500*
Y151000D02*
X275500D01*
X270500Y152000D02*
X275500D01*
X270500Y153000D02*
X275500D01*
X270500Y154000D02*
X275500D01*
X270500Y155000D02*
X275500D01*
X271000Y150500D02*
Y155500D01*
X272000Y150500D02*
Y155500D01*
X273000Y150500D02*
Y155500D01*
X274000Y150500D02*
Y155500D01*
X275000Y150500D02*
Y155500D01*
X373878Y284500D02*
Y285500D01*
X375378*
Y284500*
X373878*
Y285000D02*
X375378D01*
X374000Y284500D02*
Y285500D01*
X375000Y284500D02*
Y285500D01*
X368622Y284500D02*
Y285500D01*
X370122*
Y284500*
X368622*
Y285000D02*
X370122D01*
X369000Y284500D02*
Y285500D01*
X370000Y284500D02*
Y285500D01*
X373878Y291500D02*
Y292500D01*
X375378*
Y291500*
X373878*
Y292000D02*
X375378D01*
X374000Y291500D02*
Y292500D01*
X375000Y291500D02*
Y292500D01*
X368622Y291500D02*
Y292500D01*
X370122*
Y291500*
X368622*
Y292000D02*
X370122D01*
X369000Y291500D02*
Y292500D01*
X370000Y291500D02*
Y292500D01*
X373878Y299500D02*
Y300500D01*
X375378*
Y299500*
X373878*
Y300000D02*
X375378D01*
X374000Y299500D02*
Y300500D01*
X375000Y299500D02*
Y300500D01*
X368622Y299500D02*
Y300500D01*
X370122*
Y299500*
X368622*
Y300000D02*
X370122D01*
X369000Y299500D02*
Y300500D01*
X370000Y299500D02*
Y300500D01*
X135100Y110900D02*
X143152Y118952D01*
Y133040*
X149212Y139100*
X212712*
X239600Y165988*
Y196700*
X239800Y196900*
Y215788*
X254697Y230685*
X259615*
X135200Y116300D02*
X141452Y122552D01*
Y133744*
X148508Y140800*
X212008*
X237900Y166692*
Y216292*
X254158Y232550*
X268850*
X270600Y234300*
X239079Y118000D02*
X243979Y122900D01*
X247000*
X268000Y113283D02*
X258383Y122900D01*
X247000*
X135200Y124300D02*
X139752Y128852D01*
Y134448*
X147804Y142500*
X211304*
X236200Y167396*
Y216996*
X255404Y236200*
X264300*
X241600Y123300D02*
X247000Y128700D01*
Y129100*
X241600Y123300D02*
X223543D01*
X219000Y127843*
X387000Y121000D02*
X380324D01*
X380224Y121100*
X375000*
X135200Y132300D02*
X147100Y144200D01*
X210600*
X234500Y168100*
Y217700*
X257200Y240400*
X267900*
X387000Y128874D02*
X384417Y131457D01*
X378000*
X316962Y147538D02*
X318823Y149400D01*
X320696*
X329600Y158304*
X316962Y147538D02*
X316800Y147700D01*
X320200Y144400D02*
X322144Y146344D01*
Y148444*
X331300Y157600*
X325300Y146800D02*
X325504D01*
Y149400*
X333000Y156896*
Y172700*
X328900Y143900D02*
Y147646D01*
X330354Y149100*
Y151846*
X334700Y156192*
Y170000*
X337200Y172500*
Y175200*
X378000Y138543D02*
X380921D01*
X387000Y144622*
X303000Y153000D02*
X319488D01*
X326200Y159712*
Y165630*
X309163Y148800D02*
X311463Y151100D01*
X319992*
X327900Y159008*
Y159900*
X309163Y148800D02*
X297200D01*
X293000Y153000*
X329600Y158304D02*
Y167039D01*
X325100Y171539*
Y175823*
X331300Y157600D02*
Y167743D01*
X328900Y170143*
Y173500*
X139000Y165000D02*
X145143D01*
X169543Y189400*
X177200*
X327900Y159900D02*
Y166335D01*
X323362Y170873*
X326200Y165630D02*
X321662Y170169D01*
Y183762*
X326900Y177700D02*
X326938Y177662D01*
X325100Y175823*
X323362Y170873D02*
Y179162D01*
X327600Y183400*
X344900Y172100D02*
X362000D01*
X387000Y171000D02*
X380724D01*
X379824Y171900*
X375000*
X283000Y187000D02*
Y187100D01*
X289900Y194000*
X302200Y187000D02*
Y187900D01*
X296100Y194000*
X321662Y183762D02*
X327100Y189200D01*
X387000Y186748D02*
X386291Y187457D01*
X378000*
Y194543D02*
X378079Y194622D01*
X387000*
X326359Y202200D02*
X348000Y223841D01*
Y225500*
X354000Y231500*
X326359Y202200D02*
X318804D01*
X311904Y209100*
X295100*
X291654Y212546*
X291354*
X287200Y216700*
X321600Y205300D02*
X311400Y215500D01*
X304200*
X354100Y224700D02*
X329900Y200500D01*
X318100*
X314400Y204200*
X310300*
X322900Y210400D02*
X313900Y219400D01*
X307300*
X196900Y235000D02*
Y256200D01*
X198200Y257500*
X201921*
Y257740*
X203100Y235000D02*
X202500D01*
Y242000*
X201900*
X203100Y235000D02*
X212600D01*
X225200Y247600*
Y256000*
X231300Y262100*
X263500Y229500D02*
X260800D01*
X259615Y230685*
X274200Y228500D02*
Y238413D01*
X269163Y243450*
X259350*
X257800Y245000*
X248700*
X388000Y231000D02*
X387543Y231457D01*
X379000*
Y238543D02*
X379331Y238874D01*
X388000*
X279588Y258412D02*
X287600Y266423D01*
Y270100*
X279600Y258400D02*
X279588Y258412D01*
X177900Y262000D02*
Y266400D01*
X181500Y270000*
X181900*
X217000Y274000D02*
X233500D01*
X363600Y278400D02*
Y289400D01*
X387000Y277000D02*
Y284874D01*
X265375Y284625D02*
X268750Y288000D01*
X268900*
X265500Y284500D02*
X265375Y284625D01*
X275100Y284200D02*
Y288000D01*
X280900Y284000D02*
Y288300D01*
X387000Y284874D02*
X386874Y285000D01*
X374628*
X350700Y289000D02*
X348300Y291400D01*
X342300*
X374628Y292000D02*
X375376Y292748D01*
X387000*
X274100Y305000D02*
Y310200D01*
X274900Y311000*
X281900Y305000D02*
Y310200D01*
X281100Y311000*
X293100Y303100D02*
X291200Y305000D01*
X288100*
X374628Y300000D02*
X375250Y300622D01*
X387000*
X274900Y311000D02*
Y319352D01*
X274252Y320000*
X281100Y311000D02*
Y318974D01*
X282126Y320000*
X121950Y251300D02*
G75*
G03X121950I-5950J0D01*
G01Y273000D02*
G03X121950I-5950J0D01*
G01X123900Y301700D02*
G03X123900I-7900J0D01*
G01X222950Y252300D02*
G03X222950I-5950J0D01*
G01X233500Y302700D02*
G03X233500I-8200J0D01*
G01X171200Y284000D02*
G03X171200I-4200J0D01*
G01X183700Y315000D02*
G03X183700I-8700J0D01*
G01X333700D02*
G03X333700I-8700J0D01*
G01X272200Y131000D02*
G03X272200I-4200J0D01*
G01X277200Y142961D02*
G03X277200I-4200J0D01*
G01X264450Y183000D02*
G03X264450I-4450J0D01*
G01Y193000D02*
G03X264450I-4450J0D01*
G01X239450Y252300D02*
G03X239450I-5950J0D01*
G01X134539Y202000D02*
G03X134539I-3759J0D01*
G01X120759D02*
G03X120759I-3759J0D01*
G01X183700Y115000D02*
G03X183700I-8700J0D01*
G01X287200Y142961D02*
G03X287200I-4200J0D01*
G01Y153000D02*
G03X287200I-4200J0D01*
G01X297791Y113283D02*
G03X297791I-4200J0D01*
G01Y131000D02*
G03X297791I-4200J0D01*
G01X297200Y142961D02*
G03X297200I-4200J0D01*
G01X333700Y115000D02*
G03X333700I-8700J0D01*
G01X172500Y228500D02*
Y258500D01*
X153100*
Y268000*
X153098*
Y266079*
X150898Y263879D02*
G03X153098Y266079I-0J2200D01*
G01X150898Y263879D02*
X146992D01*
X144792Y266079D02*
G03X146992Y263879I2200J-0D01*
G01X144792Y266079D02*
Y273921D01*
X146992Y276121D02*
G03X144792Y273921I0J-2200D01*
G01X146992Y276121D02*
X150898D01*
X153098Y273921D02*
G03X150898Y276121I-2200J0D01*
G01X153098Y273921D02*
Y272000D01*
X153100*
Y327500*
X102500*
Y228500*
X172500*
X235500Y291500D02*
Y328000D01*
X157200*
Y271100*
X163800Y264500*
X175479*
X176200Y264700D02*
G03X175479Y264500I0J-1400D01*
G01X176200Y264700D02*
Y266400D01*
X176698Y267602D02*
G03X176200Y266400I1202J-1202D01*
G01X176698Y267602D02*
X178800Y269704D01*
Y271300*
X180200Y272700D02*
G03X178800Y271300I0J-1400D01*
G01X180200Y272700D02*
X183600D01*
X185000Y271308D02*
G03X183600Y272700I-1400J-8D01*
G01X186400D02*
G03X185000Y271308I0J-1400D01*
G01X186400Y272700D02*
X189800D01*
X191200Y271300D02*
G03X189800Y272700I-1400J0D01*
G01X191200Y271300D02*
Y268700D01*
X189800Y267300D02*
G03X191200Y268700I0J1400D01*
G01X189800Y267300D02*
X186400D01*
X185000Y268692D02*
G03X186400Y267300I1400J8D01*
G01X183600D02*
G03X185000Y268692I0J1400D01*
G01X183600Y267300D02*
X181204D01*
X179600Y265696*
Y264700*
X181000Y263308D02*
G03X179600Y264700I-1400J-8D01*
G01X182400D02*
G03X181000Y263308I0J-1400D01*
G01X182400Y264700D02*
X185800D01*
X187200Y263300D02*
G03X185800Y264700I-1400J0D01*
G01X187200Y263300D02*
Y260700D01*
X186100Y259333D02*
G03X187200Y260700I-300J1367D01*
G01X186100Y259333D02*
Y255228D01*
X189069Y252260*
X189303*
X189107Y252917D02*
G03X189303Y252260I1200J0D01*
G01X189107Y252917D02*
Y255083D01*
X189402Y255870D02*
G03X189107Y255083I905J-787D01*
G01Y256657D02*
G03X189402Y255870I1200J0D01*
G01X189107Y256657D02*
Y258823D01*
X190079Y260001D02*
G03X189107Y258823I228J-1178D01*
G01X190079Y260001D02*
Y262079D01*
X190665Y263493D02*
G03X190079Y262079I1414J-1414D01*
G01X190665Y263493D02*
X192300Y265128D01*
Y269200*
X193800Y270700D02*
G03X192300Y269200I0J-1500D01*
G01X193800Y270700D02*
X198200D01*
X199700Y269200D02*
G03X198200Y270700I-1500J0D01*
G01X199700Y269200D02*
Y265128D01*
X200328Y264500*
X200697*
X204402Y259791D02*
G03X200697Y264500I-1402J2709D01*
G01X204893Y258823D02*
G03X204402Y259791I-1200J-0D01*
G01X204893Y258823D02*
Y256657D01*
X204598Y255870D02*
G03X204893Y256657I-905J787D01*
G01Y255083D02*
G03X204598Y255870I-1200J-0D01*
G01X204893Y255083D02*
Y252917D01*
X204598Y252130D02*
G03X204893Y252917I-905J787D01*
G01Y251343D02*
G03X204598Y252130I-1200J-0D01*
G01X204893Y251343D02*
Y249177D01*
X203693Y247977D02*
G03X204893Y249177I-0J1200D01*
G01X203693Y247977D02*
X200150D01*
X198950Y249177D02*
G03X200150Y247977I1200J0D01*
G01X198950Y249177D02*
Y251343D01*
X199244Y252130D02*
G03X198950Y251343I906J-787D01*
G01Y252917D02*
G03X199244Y252130I1200J0D01*
G01X198950Y252917D02*
Y255083D01*
X199188Y255800D02*
G03X198950Y255083I962J-717D01*
G01X199188Y255800D02*
X198904D01*
X198600Y255496*
Y237700*
X200000Y236308D02*
G03X198600Y237700I-1400J-8D01*
G01X200800Y237565D02*
G03X200000Y236308I600J-1265D01*
G01X200800Y237565D02*
Y239300D01*
X200200*
X198800Y240700D02*
G03X200200Y239300I1400J0D01*
G01X198800Y240700D02*
Y243300D01*
X200200Y244700D02*
G03X198800Y243300I0J-1400D01*
G01X200200Y244700D02*
X203600D01*
X205000Y243308D02*
G03X203600Y244700I-1400J-8D01*
G01X206400D02*
G03X205000Y243308I0J-1400D01*
G01X206400Y244700D02*
X209800D01*
X211200Y243300D02*
G03X209800Y244700I-1400J0D01*
G01X211200Y243300D02*
Y240700D01*
X209800Y239300D02*
G03X211200Y240700I0J1400D01*
G01X209800Y239300D02*
X206400D01*
X205000Y240692D02*
G03X206400Y239300I1400J8D01*
G01X204200Y239435D02*
G03X205000Y240692I-600J1265D01*
G01X204200Y239435D02*
Y237700D01*
X204800*
X206142Y236700D02*
G03X204800Y237700I-1342J-400D01*
G01X206142Y236700D02*
X211896D01*
X223500Y248304*
Y256000*
Y256008D02*
G03Y256000I1700J-8D01*
G01Y256008D02*
Y291500D01*
X235500*
X397900Y102000D02*
Y328000D01*
X238400*
Y288500*
X226900*
Y260104*
X228307Y261511*
X230711Y259107D02*
G03X228307Y261511I589J2993D01*
G01X230711Y259107D02*
X226900Y255296D01*
Y247600*
Y247592D02*
G03Y247600I-1700J8D01*
G01Y247592D02*
Y223600D01*
X102000*
Y102000*
X397900*
X151515Y286606D02*
Y281394D01*
X151164Y280545D02*
G03X151515Y281394I-849J849D01*
G01X151164Y280545D02*
X150770Y280151D01*
X149921Y279800D02*
G03X150770Y280151I0J1200D01*
G01X149921Y279800D02*
X144709D01*
X143860Y280151D02*
G03X144709Y279800I849J849D01*
G01X143860Y280151D02*
X143466Y280545D01*
X143115Y281394D02*
G03X143466Y280545I1200J-0D01*
G01X143115Y281394D02*
Y286606D01*
X143466Y287455D02*
G03X143115Y286606I849J-849D01*
G01X143466Y287455D02*
X143860Y287849D01*
X144709Y288200D02*
G03X143860Y287849I-0J-1200D01*
G01X144709Y288200D02*
X149921D01*
X150770Y287849D02*
G03X149921Y288200I-849J-849D01*
G01X150770Y287849D02*
X151164Y287455D01*
X151515Y286606D02*
G03X151164Y287455I-1200J0D01*
G01X121950Y251300D02*
G03X121950I-5950J0D01*
G01Y273000D02*
G03X121950I-5950J0D01*
G01X123900Y301700D02*
G03X123900I-7900J0D01*
G01X222950Y252300D02*
G03X222950I-5950J0D01*
G01X233500Y302700D02*
G03X233500I-8200J0D01*
G01X199700Y278200D02*
Y272800D01*
X198200Y271300D02*
G03X199700Y272800I0J1500D01*
G01X198200Y271300D02*
X193800D01*
X192300Y272800D02*
G03X193800Y271300I1500J0D01*
G01X192300Y272800D02*
Y278200D01*
X193800Y279700D02*
G03X192300Y278200I0J-1500D01*
G01X193800Y279700D02*
X198200D01*
X199700Y278200D02*
G03X198200Y279700I-1500J0D01*
G01X171200Y284000D02*
G03X171200I-4200J0D01*
G01X183700Y315000D02*
G03X183700I-8700J0D01*
G01X388321Y140685D02*
G03X383119Y143145I-1321J3937D01*
G01X388321Y132811D02*
G03Y140685I-1321J3937D01*
G01Y124937D02*
G03Y132811I-1321J3937D01*
G01X383211Y119300D02*
G03X388321Y124937I3789J1700D01*
G01X383211Y119300D02*
X380324D01*
X379749Y119400D02*
G03X380324Y119300I575J1600D01*
G01X379749Y119400D02*
X377700D01*
X376308Y118000D02*
G03X377700Y119400I-8J1400D01*
G01Y116600D02*
G03X376308Y118000I-1400J0D01*
G01X377700Y116600D02*
Y113200D01*
X376300Y111800D02*
G03X377700Y113200I0J1400D01*
G01X376300Y111800D02*
X373700D01*
X372300Y113200D02*
G03X373700Y111800I1400J0D01*
G01X372300Y113200D02*
Y116600D01*
X373692Y118000D02*
G03X372300Y116600I8J-1400D01*
G01Y119400D02*
G03X373692Y118000I1400J0D01*
G01X372300Y119400D02*
Y122800D01*
X373700Y124200D02*
G03X372300Y122800I0J-1400D01*
G01X373700Y124200D02*
X376300D01*
X377700Y122800D02*
G03X376300Y124200I-1400J0D01*
G01X377700Y122800D02*
X380224D01*
X380798Y122700D02*
G03X380224Y122800I-574J-1600D01*
G01X380798Y122700D02*
X383211D01*
X385679Y124937D02*
G03X383211Y122700I1321J-3937D01*
G01X382942Y129757D02*
G03X385679Y124937I4058J-883D01*
G01X382942Y129757D02*
X380454D01*
X379250Y129257D02*
G03X380454Y129757I0J1700D01*
G01X379250Y129257D02*
X376750D01*
X375050Y130957D02*
G03X376750Y129257I1700J-0D01*
G01X375050Y130957D02*
Y131957D01*
X376750Y133657D02*
G03X375050Y131957I0J-1700D01*
G01X376750Y133657D02*
X379250D01*
X380454Y133157D02*
G03X379250Y133657I-1204J-1200D01*
G01X380454Y133157D02*
X384417D01*
X385517Y132753D02*
G03X384417Y133157I-1100J-1296D01*
G01X385679Y132811D02*
G03X385517Y132753I1321J-3937D01*
G01X383196Y138414D02*
G03X385679Y132811I3804J-1666D01*
G01X383196Y138414D02*
X382123Y137341D01*
X380921Y136843D02*
G03X382123Y137341I0J1700D01*
G01X380921Y136843D02*
X380454D01*
X379250Y136343D02*
G03X380454Y136843I0J1700D01*
G01X379250Y136343D02*
X376750D01*
X375050Y138043D02*
G03X376750Y136343I1700J0D01*
G01X375050Y138043D02*
Y139043D01*
X376750Y140743D02*
G03X375050Y139043I0J-1700D01*
G01X376750Y140743D02*
X379250D01*
X380330Y140356D02*
G03X379250Y140743I-1080J-1313D01*
G01X380330Y140356D02*
X383119Y143145D01*
X373076Y135500D02*
Y134500D01*
X371376Y132800D02*
G03X373076Y134500I-0J1700D01*
G01X371376Y132800D02*
X368876D01*
X367176Y134500D02*
G03X368876Y132800I1700J0D01*
G01X367176Y134500D02*
Y135500D01*
X368876Y137200D02*
G03X367176Y135500I-0J-1700D01*
G01X368876Y137200D02*
X371376D01*
X373076Y135500D02*
G03X371376Y137200I-1700J0D01*
G01X388321Y190685D02*
G03X383211Y196322I-1321J3937D01*
G01X388321Y182811D02*
G03Y190685I-1321J3937D01*
G01Y174937D02*
G03Y182811I-1321J3937D01*
G01X383211Y169300D02*
G03X388321Y174937I3789J1700D01*
G01X383211Y169300D02*
X380724D01*
X379522Y169798D02*
G03X380724Y169300I1202J1202D01*
G01X379522Y169798D02*
X379119Y170200D01*
X377700*
X376300Y168800D02*
G03X377700Y170200I0J1400D01*
G01X376300Y168800D02*
X373700D01*
X372300Y170200D02*
G03X373700Y168800I1400J0D01*
G01X372300Y170200D02*
Y173600D01*
X373692Y175000D02*
G03X372300Y173600I8J-1400D01*
G01Y176400D02*
G03X373692Y175000I1400J0D01*
G01X372300Y176400D02*
Y179800D01*
X373700Y181200D02*
G03X372300Y179800I0J-1400D01*
G01X373700Y181200D02*
X376300D01*
X377700Y179800D02*
G03X376300Y181200I-1400J0D01*
G01X377700Y179800D02*
Y176400D01*
X376308Y175000D02*
G03X377700Y176400I-8J1400D01*
G01Y173600D02*
G03X376308Y175000I-1400J0D01*
G01X377700Y173600D02*
X379824D01*
X381026Y173102D02*
G03X379824Y173600I-1202J-1202D01*
G01X381026Y173102D02*
X381428Y172700D01*
X383211*
X385679Y174937D02*
G03X383211Y172700I1321J-3937D01*
G01X385679Y182811D02*
G03Y174937I1321J-3937D01*
G01X382967Y185757D02*
G03X385679Y182811I4033J991D01*
G01X382967Y185757D02*
X380454D01*
X379250Y185257D02*
G03X380454Y185757I0J1700D01*
G01X379250Y185257D02*
X376750D01*
X375050Y186957D02*
G03X376750Y185257I1700J-0D01*
G01X375050Y186957D02*
Y187957D01*
X376750Y189657D02*
G03X375050Y187957I0J-1700D01*
G01X376750Y189657D02*
X379250D01*
X380454Y189157D02*
G03X379250Y189657I-1204J-1200D01*
G01X380454Y189157D02*
X383617D01*
X385679Y190685D02*
G03X383617Y189157I1321J-3937D01*
G01X383211Y192922D02*
G03X385679Y190685I3789J1700D01*
G01X383211Y192922D02*
X380528D01*
X379250Y192343D02*
G03X380528Y192922I0J1700D01*
G01X379250Y192343D02*
X376750D01*
X375050Y194043D02*
G03X376750Y192343I1700J0D01*
G01X375050Y194043D02*
Y195043D01*
X376750Y196743D02*
G03X375050Y195043I0J-1700D01*
G01X376750Y196743D02*
X379250D01*
X380370Y196322D02*
G03X379250Y196743I-1120J-1279D01*
G01X380370Y196322D02*
X383211D01*
X389321Y242811D02*
G03X386679I-1321J3937D01*
G01X389321Y234937D02*
G03Y242811I-1321J3937D01*
G01X384038Y229757D02*
G03X389321Y234937I3962J1243D01*
G01X384038Y229757D02*
X381454D01*
X380250Y229257D02*
G03X381454Y229757I0J1700D01*
G01X380250Y229257D02*
X377750D01*
X376050Y230957D02*
G03X377750Y229257I1700J-0D01*
G01X376050Y230957D02*
Y231957D01*
X377750Y233657D02*
G03X376050Y231957I0J-1700D01*
G01X377750Y233657D02*
X380250D01*
X381454Y233157D02*
G03X380250Y233657I-1204J-1200D01*
G01X381454Y233157D02*
X384451D01*
X386679Y234937D02*
G03X384451Y233157I1321J-3937D01*
G01X384211Y237174D02*
G03X386679Y234937I3789J1700D01*
G01X384211Y237174D02*
X381711D01*
X380250Y236343D02*
G03X381711Y237174I0J1700D01*
G01X380250Y236343D02*
X377750D01*
X376050Y238043D02*
G03X377750Y236343I1700J0D01*
G01X376050Y238043D02*
Y239043D01*
X377750Y240743D02*
G03X376050Y239043I0J-1700D01*
G01X377750Y240743D02*
X380250D01*
X380990Y240574D02*
G03X380250Y240743I-740J-1531D01*
G01X380990Y240574D02*
X384211D01*
X386679Y242811D02*
G03X384211Y240574I1321J-3937D01*
G01X388321Y304559D02*
G03X385679I-1321J3937D01*
G01X388321Y296685D02*
G03Y304559I-1321J3937D01*
G01Y288811D02*
G03Y296685I-1321J3937D01*
G01X388700Y281085D02*
G03X388321Y288811I-1700J3789D01*
G01X388700Y281085D02*
Y280789D01*
X385300D02*
G03X388700I1700J-3789D01*
G01X385300D02*
Y281085D01*
X383157Y283300D02*
G03X385300Y281085I3843J1574D01*
G01X383157Y283300D02*
X376582D01*
X375378Y282800D02*
G03X376582Y283300I-0J1700D01*
G01X375378Y282800D02*
X373878D01*
X372178Y284500D02*
G03X373878Y282800I1700J0D01*
G01X372178Y284500D02*
Y285500D01*
X373878Y287200D02*
G03X372178Y285500I-0J-1700D01*
G01X373878Y287200D02*
X375378D01*
X376582Y286700D02*
G03X375378Y287200I-1204J-1200D01*
G01X376582Y286700D02*
X383270D01*
X385679Y288811D02*
G03X383270Y286700I1321J-3937D01*
G01X383211Y291048D02*
G03X385679Y288811I3789J1700D01*
G01X383211Y291048D02*
X377017D01*
X375378Y289800D02*
G03X377017Y291048I-0J1700D01*
G01X375378Y289800D02*
X373878D01*
X372178Y291500D02*
G03X373878Y289800I1700J0D01*
G01X372178Y291500D02*
Y292500D01*
X373878Y294200D02*
G03X372178Y292500I-0J-1700D01*
G01X373878Y294200D02*
X374492D01*
X375376Y294448D02*
G03X374492Y294200I-0J-1700D01*
G01X375376Y294448D02*
X383211D01*
X385679Y296685D02*
G03X383211Y294448I1321J-3937D01*
G01Y298922D02*
G03X385679Y296685I3789J1700D01*
G01X383211Y298922D02*
X376977D01*
X375378Y297800D02*
G03X376977Y298922I-0J1700D01*
G01X375378Y297800D02*
X373878D01*
X372178Y299500D02*
G03X373878Y297800I1700J0D01*
G01X372178Y299500D02*
Y300500D01*
X373878Y302200D02*
G03X372178Y300500I-0J-1700D01*
G01X373878Y302200D02*
X374617D01*
X375250Y302322D02*
G03X374617Y302200I0J-1700D01*
G01X375250Y302322D02*
X383211D01*
X385679Y304559D02*
G03X383211Y302322I1321J-3937D01*
G01X371822Y285500D02*
Y284500D01*
X370122Y282800D02*
G03X371822Y284500I0J1700D01*
G01X370122Y282800D02*
X368622D01*
X366922Y284500D02*
G03X368622Y282800I1700J0D01*
G01X366922Y284500D02*
Y285500D01*
X368622Y287200D02*
G03X366922Y285500I0J-1700D01*
G01X368622Y287200D02*
X370122D01*
X371822Y285500D02*
G03X370122Y287200I-1700J0D01*
G01X371822Y292500D02*
Y291500D01*
X370122Y289800D02*
G03X371822Y291500I0J1700D01*
G01X370122Y289800D02*
X368622D01*
X366922Y291500D02*
G03X368622Y289800I1700J0D01*
G01X366922Y291500D02*
Y292500D01*
X368622Y294200D02*
G03X366922Y292500I0J-1700D01*
G01X368622Y294200D02*
X370122D01*
X371822Y292500D02*
G03X370122Y294200I-1700J0D01*
G01X371822Y300500D02*
Y299500D01*
X370122Y297800D02*
G03X371822Y299500I0J1700D01*
G01X370122Y297800D02*
X368622D01*
X366922Y299500D02*
G03X368622Y297800I1700J0D01*
G01X366922Y299500D02*
Y300500D01*
X368622Y302200D02*
G03X366922Y300500I0J-1700D01*
G01X368622Y302200D02*
X370122D01*
X371822Y300500D02*
G03X370122Y302200I-1700J0D01*
G01X365300Y286868D02*
G03X361900I-1700J2532D01*
G01X365300D02*
Y280932D01*
X361900D02*
G03X365300I1700J-2532D01*
G01X361900D02*
Y286868D01*
X347707Y289589D02*
G03X350111Y291993I2993J-589D01*
G01X347707Y289589D02*
X347596Y289700D01*
X344832*
Y293100D02*
G03Y289700I-2532J-1700D01*
G01Y293100D02*
X348300D01*
X349502Y292602D02*
G03X348300Y293100I-1202J-1202D01*
G01X349502Y292602D02*
X350111Y291993D01*
X333700Y315000D02*
G03X333700I-8700J0D01*
G01X264082Y114797D02*
G03X266486Y117201I3918J-1514D01*
G01X264082Y114797D02*
X257679Y121200D01*
X249700*
X248300Y119800D02*
G03X249700Y121200I0J1400D01*
G01X248300Y119800D02*
X245700D01*
X244342Y120859D02*
G03X245700Y119800I1358J341D01*
G01X244342Y120859D02*
X243189Y119706D01*
X236463Y121600D02*
G03X243189Y119706I2616J-3600D01*
G01X236463Y121600D02*
X231458D01*
X226227D02*
G03X231458I2616J-3600D01*
G01X226227D02*
X223543D01*
X223202Y121634D02*
G03X223543Y121600I341J1666D01*
G01X223450Y120750D02*
G03X223202Y121634I-1700J0D01*
G01X223450Y120750D02*
Y115250D01*
X221750Y113550D02*
G03X223450Y115250I0J1700D01*
G01X221750Y113550D02*
X216250D01*
X214550Y115250D02*
G03X216250Y113550I1700J0D01*
G01X214550Y115250D02*
Y120750D01*
X216250Y122450D02*
G03X214550Y120750I0J-1700D01*
G01X216250Y122450D02*
X221750D01*
X222008Y122430D02*
G03X221750Y122450I-258J-1680D01*
G01X222008Y122430D02*
X220706Y123732D01*
X223110Y126137D02*
G03X220706Y123732I-4110J1706D01*
G01X223110Y126137D02*
X224247Y125000D01*
X225419*
X232266D02*
G03X225419I-3423J2843D01*
G01X232266D02*
X235655D01*
X243524Y127628D02*
G03X235655Y125000I-4445J215D01*
G01X243524Y127628D02*
X244300Y128404D01*
Y130800*
X245700Y132200D02*
G03X244300Y130800I0J-1400D01*
G01X245700Y132200D02*
X248300D01*
X249700Y130800D02*
G03X248300Y132200I-1400J0D01*
G01X249700Y130800D02*
Y127400D01*
X248308Y126000D02*
G03X249700Y127400I-8J1400D01*
G01Y124600D02*
G03X248308Y126000I-1400J0D01*
G01X249700Y124600D02*
X258383D01*
X259586Y124102D02*
G03X258383Y124600I-1203J-1202D01*
G01X259586Y124102D02*
X266486Y117201D01*
X272200Y131000D02*
G03X272200I-4200J0D01*
G01X277200Y142961D02*
G03X277200I-4200J0D01*
G01X264450Y183000D02*
G03X264450I-4450J0D01*
G01Y193000D02*
G03X264450I-4450J0D01*
G01X272500Y231032D02*
G03X275900I1700J-2532D01*
G01X272500D02*
Y231914D01*
X270010Y231308D02*
G03X272500Y231914I590J2992D01*
G01X268850Y230850D02*
G03X270010Y231308I0J1700D01*
G01X268850Y230850D02*
X266235D01*
X260968Y227800D02*
G03X266235Y230850I2532J1700D01*
G01X260968Y227800D02*
X260800D01*
X259598Y228298D02*
G03X260800Y227800I1202J1202D01*
G01X259598Y228298D02*
X258911Y228985D01*
X255401*
X241500Y215083*
Y196900*
X241300Y196100D02*
G03X241500Y196900I-1500J800D01*
G01X241300Y196100D02*
Y194595D01*
X246948Y192881D02*
G03X241300Y194595I-3048J119D01*
G01X246948Y192881D02*
X250714Y189114D01*
X251300Y187700D02*
G03X250714Y189114I-2000J0D01*
G01X251300Y187700D02*
Y177528D01*
X271628Y157200*
X275500*
X277200Y155500D02*
G03X275500Y157200I-1700J0D01*
G01X277200Y155500D02*
Y150500D01*
X275500Y148800D02*
G03X277200Y150500I0J1700D01*
G01X275500Y148800D02*
X270500D01*
X268800Y150500D02*
G03X270500Y148800I1700J0D01*
G01X268800Y150500D02*
Y154372D01*
X247886Y175286*
X247300Y176700D02*
G03X247886Y175286I2000J0D01*
G01X247300Y176700D02*
Y186872D01*
X244206Y189965*
X241300Y191405D02*
G03X244206Y189965I2600J1595D01*
G01X241300Y191405D02*
Y165988D01*
X240802Y164785D02*
G03X241300Y165988I-1202J1203D01*
G01X240802Y164785D02*
X213915Y137898D01*
X212712Y137400D02*
G03X213915Y137898I0J1700D01*
G01X212712Y137400D02*
X149917D01*
X144852Y132335*
Y118952*
X144354Y117750D02*
G03X144852Y118952I-1202J1202D01*
G01X144354Y117750D02*
X138093Y111489D01*
X133732Y113626D02*
G03X138093Y111489I1368J-2726D01*
G01X135789Y119293D02*
G03X133732Y113626I-589J-2993D01*
G01X135789Y119293D02*
X139752Y123256D01*
Y126448*
X138193Y124889*
X135789Y127293D02*
G03X138193Y124889I-589J-2993D01*
G01X135789Y127293D02*
X138052Y129556D01*
Y131219*
X135789Y135293D02*
G03X138052Y131219I-589J-2993D01*
G01X135789Y135293D02*
X145898Y145402D01*
X147100Y145900D02*
G03X145898Y145402I0J-1700D01*
G01X147100Y145900D02*
X209896D01*
X232800Y168804*
Y217700*
X233298Y218902D02*
G03X232800Y217700I1202J-1202D01*
G01X233298Y218902D02*
X255998Y241602D01*
X257200Y242100D02*
G03X255998Y241602I0J-1700D01*
G01X257200Y242100D02*
X258317D01*
X258148Y242248D02*
G03X258317Y242100I1202J1202D01*
G01X258148Y242248D02*
X257096Y243300D01*
X251232*
Y246700D02*
G03Y243300I-2532J-1700D01*
G01Y246700D02*
X257800D01*
X259002Y246202D02*
G03X257800Y246700I-1202J-1202D01*
G01X259002Y246202D02*
X260054Y245150D01*
X269163*
X270365Y244652D02*
G03X269163Y245150I-1202J-1202D01*
G01X270365Y244652D02*
X275402Y239615D01*
X275900Y238413D02*
G03X275402Y239615I-1700J0D01*
G01X275900Y238413D02*
Y231032D01*
X289300Y267568D02*
G03X285900I-1700J2532D01*
G01X289300D02*
Y266423D01*
X288802Y265221D02*
G03X289300Y266423I-1202J1202D01*
G01X288802Y265221D02*
X282589Y259008D01*
X280169Y261396D02*
G03X282589Y259008I-569J-2996D01*
G01X280169Y261396D02*
X285900Y267127D01*
Y267568*
X290200Y285300D02*
Y282700D01*
X288800Y281300D02*
G03X290200Y282700I0J1400D01*
G01X288800Y281300D02*
X285400D01*
X284000Y282692D02*
G03X285400Y281300I1400J8D01*
G01X282600D02*
G03X284000Y282692I0J1400D01*
G01X282600Y281300D02*
X279200D01*
X277800Y282700D02*
G03X279200Y281300I1400J0D01*
G01X277800Y282700D02*
Y282781D01*
X272436Y285685D02*
G03X277800Y282781I2664J-1485D01*
G01X272000Y286692D02*
G03X272436Y285685I1400J8D01*
G01X270600Y285300D02*
G03X272000Y286692I0J1400D01*
G01X270600Y285300D02*
X268454D01*
X268446Y285291*
X265800Y287535D02*
G03X268446Y285291I-300J-3035D01*
G01X265800Y287535D02*
Y289300D01*
X267200Y290700D02*
G03X265800Y289300I0J-1400D01*
G01X267200Y290700D02*
X270600D01*
X272000Y289308D02*
G03X270600Y290700I-1400J-8D01*
G01X273400D02*
G03X272000Y289308I0J-1400D01*
G01X273400Y290700D02*
X276800D01*
X278159Y289637D02*
G03X276800Y290700I-1359J-337D01*
G01X283349Y286483D02*
G03X278159Y289637I-2449J1817D01*
G01X284000Y285308D02*
G03X283349Y286483I-1400J-8D01*
G01X285400Y286700D02*
G03X284000Y285308I0J-1400D01*
G01X285400Y286700D02*
X288800D01*
X290200Y285300D02*
G03X288800Y286700I-1400J0D01*
G01X290145Y302343D02*
G03X292511Y306093I2955J757D01*
G01X289800Y302300D02*
G03X290145Y302343I0J1400D01*
G01X289800Y302300D02*
X286400D01*
X285000Y303692D02*
G03X286400Y302300I1400J8D01*
G01X283600D02*
G03X285000Y303692I0J1400D01*
G01X283600Y302300D02*
X280200D01*
X278800Y303700D02*
G03X280200Y302300I1400J0D01*
G01X278800Y303700D02*
Y306300D01*
X280200Y307700D02*
G03X278800Y306300I0J-1400D01*
G01X280200Y307700D02*
Y308300D01*
X279400*
X278000Y309692D02*
G03X279400Y308300I1400J8D01*
G01X276600D02*
G03X278000Y309692I0J1400D01*
G01X276600Y308300D02*
X275800D01*
Y307700*
X277200Y306300D02*
G03X275800Y307700I-1400J0D01*
G01X277200Y306300D02*
Y303700D01*
X275800Y302300D02*
G03X277200Y303700I0J1400D01*
G01X275800Y302300D02*
X272400D01*
X271000Y303692D02*
G03X272400Y302300I1400J8D01*
G01X269600D02*
G03X271000Y303692I0J1400D01*
G01X269600Y302300D02*
X266200D01*
X264800Y303700D02*
G03X266200Y302300I1400J0D01*
G01X264800Y303700D02*
Y306300D01*
X266200Y307700D02*
G03X264800Y306300I0J-1400D01*
G01X266200Y307700D02*
X269600D01*
X271000Y306308D02*
G03X269600Y307700I-1400J-8D01*
G01X272400D02*
G03X271000Y306308I0J-1400D01*
G01X272400Y307700D02*
Y308551D01*
X271800Y309700D02*
G03X272400Y308551I1400J0D01*
G01X271800Y309700D02*
Y312300D01*
X273200Y313700D02*
G03X271800Y312300I0J-1400D01*
G01X273200Y313700D02*
Y315983D01*
X278189Y321321D02*
G03X273200Y315983I-3937J-1321D01*
G01X286063Y321321D02*
G03X278189I-3937J-1321D01*
G01X286063Y318679D02*
G03Y321321I3937J1321D01*
G01X282800Y315902D02*
G03X286063Y318679I-674J4098D01*
G01X282800Y315902D02*
Y313700D01*
X284200Y312300D02*
G03X282800Y313700I-1400J0D01*
G01X284200Y312300D02*
Y309700D01*
X283600Y308551D02*
G03X284200Y309700I-800J1149D01*
G01X283600Y308551D02*
Y307700D01*
X285000Y306308D02*
G03X283600Y307700I-1400J-8D01*
G01X286400D02*
G03X285000Y306308I0J-1400D01*
G01X286400Y307700D02*
X289800D01*
X291142Y306700D02*
G03X289800Y307700I-1342J-400D01*
G01X291142Y306700D02*
X291200D01*
X292402Y306202D02*
G03X291200Y306700I-1202J-1202D01*
G01X292402Y306202D02*
X292511Y306093D01*
X239450Y252300D02*
G03X239450I-5950J0D01*
G01X174668Y187700D02*
G03Y191100I2532J1700D01*
G01Y187700D02*
X170247D01*
X146345Y163798*
X145143Y163300D02*
G03X146345Y163798I0J1700D01*
G01X145143Y163300D02*
X141532D01*
Y166700D02*
G03Y163300I-2532J-1700D01*
G01Y166700D02*
X144439D01*
X168341Y190602*
X169543Y191100D02*
G03X168341Y190602I0J-1700D01*
G01X169543Y191100D02*
X174668D01*
X134539Y202000D02*
G03X134539I-3759J0D01*
G01X120759D02*
G03X120759I-3759J0D01*
G01X183700Y115000D02*
G03X183700I-8700J0D01*
G01X287200Y142961D02*
G03X287200I-4200J0D01*
G01Y153000D02*
G03X287200I-4200J0D01*
G01X297791Y113283D02*
G03X297791I-4200J0D01*
G01Y131000D02*
G03X297791I-4200J0D01*
G01X297200Y142961D02*
G03X297200I-4200J0D01*
G01X299016Y188680D02*
G03X301915Y190589I3184J-1680D01*
G01X299016Y188680D02*
X296396Y191300D01*
X294400*
X293000Y192692D02*
G03X294400Y191300I1400J8D01*
G01X291600D02*
G03X293000Y192692I0J1400D01*
G01X291600Y191300D02*
X289604D01*
X286422Y188118*
X283964Y190468D02*
G03X286422Y188118I-964J-3468D01*
G01X283964Y190468D02*
X286800Y193304D01*
Y195300*
X288200Y196700D02*
G03X286800Y195300I0J-1400D01*
G01X288200Y196700D02*
X291600D01*
X293000Y195308D02*
G03X291600Y196700I-1400J-8D01*
G01X294400D02*
G03X293000Y195308I0J-1400D01*
G01X294400Y196700D02*
X297800D01*
X299200Y195300D02*
G03X297800Y196700I-1400J0D01*
G01X299200Y195300D02*
Y193304D01*
X301915Y190589*
X333700Y115000D02*
G03X333700I-8700J0D01*
G01X338900Y172668D02*
G03X334167Y175518I-1700J2532D01*
G01X338900Y172668D02*
Y172500D01*
X338402Y171298D02*
G03X338900Y172500I-1202J1202D01*
G01X338402Y171298D02*
X336400Y169296D01*
Y156192*
X335902Y154990D02*
G03X336400Y156192I-1202J1202D01*
G01X335902Y154990D02*
X332054Y151142D01*
Y149100*
X331556Y147898D02*
G03X332054Y149100I-1202J1202D01*
G01X331556Y147898D02*
X330600Y146942D01*
Y146432*
X325852Y143800D02*
G03X330600Y146432I3048J100D01*
G01X323247Y144545D02*
G03X325852Y143800I2053J2255D01*
G01X317162Y144672D02*
G03X323247Y144545I3038J-272D01*
G01X314268Y149400D02*
G03X317162Y144672I2532J-1700D01*
G01X314268Y149400D02*
X312167D01*
X310365Y147598*
X309163Y147100D02*
G03X310365Y147598I0J1700D01*
G01X309163Y147100D02*
X303713D01*
X302287D02*
G03X303713I713J-4139D01*
G01X302287D02*
X297200D01*
X295998Y147598D02*
G03X297200Y147100I1202J1202D01*
G01X295998Y147598D02*
X294514Y149082D01*
X296918Y151486D02*
G03X294514Y149082I-3918J1514D01*
G01X296918Y151486D02*
X297904Y150500D01*
X299625*
X306841Y154700D02*
G03X299625Y150500I-3841J-1700D01*
G01X306841Y154700D02*
X318783D01*
X324500Y160417*
Y164926*
X320459Y168967*
X319962Y170169D02*
G03X320459Y168967I1700J-0D01*
G01X319962Y170169D02*
Y183762D01*
X320459Y184964D02*
G03X319962Y183762I1203J-1202D01*
G01X320459Y184964D02*
X324107Y188611D01*
X328258Y186378D02*
G03X324107Y188611I-1158J2822D01*
G01X328271Y180425D02*
G03X328258Y186378I-671J2975D01*
G01X329681Y176448D02*
G03X328271Y180425I-2781J1252D01*
G01X331376Y175281D02*
G03X329681Y176448I-2476J-1781D01*
G01X334167Y175518D02*
G03X331376Y175281I-1167J-2818D01*
G01X353511Y221707D02*
G03X351107Y224111I589J2993D01*
G01X353511Y221707D02*
X331102Y199298D01*
X329900Y198800D02*
G03X331102Y199298I0J1700D01*
G01X329900Y198800D02*
X318100D01*
X316898Y199298D02*
G03X318100Y198800I1202J1202D01*
G01X316898Y199298D02*
X313696Y202500D01*
X312832*
X311680Y206920D02*
G03X312832Y202500I-1380J-2720D01*
G01X311680Y206920D02*
X311200Y207400D01*
X295100*
X293898Y207898D02*
G03X295100Y207400I1202J1202D01*
G01X293898Y207898D02*
X290883Y210913D01*
X290151Y211344D02*
G03X290883Y210913I1203J1202D01*
G01X290151Y211344D02*
X287789Y213707D01*
X290193Y216111D02*
G03X287789Y213707I-2993J589D01*
G01X290193Y216111D02*
X292124Y214180D01*
X292856Y213749D02*
G03X292124Y214180I-1202J-1203D01*
G01X292856Y213749D02*
X295804Y210800D01*
X311904*
X313106Y210302D02*
G03X311904Y210800I-1202J-1202D01*
G01X313106Y210302D02*
X318588Y204820D01*
X318607Y205889D02*
G03X318588Y204820I2993J-589D01*
G01X318607Y205889D02*
X310696Y213800D01*
X306732*
X304372Y218545D02*
G03X306732Y213800I-172J-3045D01*
G01X309832Y221100D02*
G03X304372Y218545I-2532J-1700D01*
G01X309832Y221100D02*
X313900D01*
X315102Y220602D02*
G03X313900Y221100I-1202J-1202D01*
G01X315102Y220602D02*
X322311Y213393D01*
X323744Y207469D02*
G03X322311Y213393I-844J2931D01*
G01X324310Y203900D02*
G03X323744Y207469I-2710J1400D01*
G01X324310Y203900D02*
X325655D01*
X346300Y224545*
Y225500*
X346798Y226702D02*
G03X346300Y225500I1202J-1202D01*
G01X346798Y226702D02*
X351007Y230911D01*
X353411Y228507D02*
G03X351007Y230911I589J2993D01*
G01X353411Y228507D02*
X349700Y224796D01*
Y223841*
X349202Y222639D02*
G03X349700Y223841I-1202J1202D01*
G01X349202Y222639D02*
X328763Y202200D01*
X329196*
X351107Y224111*
X359468Y170400D02*
G03Y173800I2532J1700D01*
G01Y170400D02*
X347432D01*
Y173800D02*
G03Y170400I-2532J-1700D01*
G01Y173800D02*
X359468D01*
X364555Y181267D02*
G03X367340Y184139I3045J-167D01*
G01X364555Y181267D02*
X360160Y185661D01*
X362945Y188533D02*
G03X360160Y185661I-3045J167D01*
G01X362945Y188533D02*
X367340Y184139D01*
X373076Y191500D02*
Y190500D01*
X371376Y188800D02*
G03X373076Y190500I-0J1700D01*
G01X371376Y188800D02*
X368876D01*
X367176Y190500D02*
G03X368876Y188800I1700J0D01*
G01X367176Y190500D02*
Y191500D01*
X368876Y193200D02*
G03X367176Y191500I-0J-1700D01*
G01X368876Y193200D02*
X371376D01*
X373076Y191500D02*
G03X371376Y193200I-1700J0D01*
G01X374076Y235500D02*
Y234500D01*
X372376Y232800D02*
G03X374076Y234500I-0J1700D01*
G01X372376Y232800D02*
X369876D01*
X368176Y234500D02*
G03X369876Y232800I1700J0D01*
G01X368176Y234500D02*
Y235500D01*
X369876Y237200D02*
G03X368176Y235500I-0J-1700D01*
G01X369876Y237200D02*
X372376D01*
X374076Y235500D02*
G03X372376Y237200I-1700J0D01*
G01X374058Y259314D02*
G03X376886Y262142I3042J-214D01*
G01X374057Y259314D02*
X364372Y269000D01*
X330303*
Y273000D02*
G03Y269000I-2303J-2000D01*
G01Y273000D02*
X365200D01*
X366614Y272414D02*
G03X365200Y273000I-1414J-1414D01*
G01X366614Y272414D02*
X376886Y262143D01*
X102500Y258199D02*
X172500D01*
X102500Y257299D02*
X172500D01*
X119067Y256399D02*
X172500D01*
X120216Y255499D02*
X172500D01*
X120952Y254599D02*
X172500D01*
X121445Y253699D02*
X172500D01*
X121758Y252799D02*
X172500D01*
X121920Y251899D02*
X172500D01*
X121942Y250999D02*
X172500D01*
X121827Y250099D02*
X172500D01*
X121567Y249199D02*
X172500D01*
X121138Y248299D02*
X172500D01*
X120492Y247399D02*
X172500D01*
X119514Y246499D02*
X172500D01*
X117702Y245599D02*
X172500D01*
X102500Y244699D02*
X172500D01*
X102500Y243799D02*
X172500D01*
X102500Y242899D02*
X172500D01*
X102500Y241999D02*
X172500D01*
X102500Y241099D02*
X172500D01*
X102500Y240199D02*
X172500D01*
X102500Y239299D02*
X172500D01*
X102500Y238399D02*
X172500D01*
X102500Y237499D02*
X172500D01*
X102500Y236599D02*
X172500D01*
X102500Y235699D02*
X172500D01*
X102500Y234799D02*
X172500D01*
X102500Y233899D02*
X172500D01*
X102500Y232999D02*
X172500D01*
X102500Y232099D02*
X172500D01*
X102500Y231199D02*
X172500D01*
X102500Y230299D02*
X172500D01*
X102500Y229399D02*
X172500D01*
X102500Y327499D02*
X153100D01*
X102500Y326599D02*
X153100D01*
X102500Y325699D02*
X153100D01*
X102500Y324799D02*
X153100D01*
X102500Y323899D02*
X153100D01*
X102500Y322999D02*
X153100D01*
X102500Y322099D02*
X153100D01*
X102500Y321199D02*
X153100D01*
X102500Y320299D02*
X153100D01*
X102500Y319399D02*
X153100D01*
X102500Y318499D02*
X153100D01*
X102500Y317599D02*
X153100D01*
X102500Y316699D02*
X153100D01*
X102500Y315799D02*
X153100D01*
X102500Y314899D02*
X153100D01*
X102500Y313999D02*
X153100D01*
X102500Y313099D02*
X153100D01*
X102500Y312199D02*
X153100D01*
X102500Y311299D02*
X153100D01*
X102500Y310399D02*
X153100D01*
X117261Y309499D02*
X153100D01*
X119849Y308599D02*
X153100D01*
X121141Y307699D02*
X153100D01*
X122034Y306799D02*
X153100D01*
X122692Y305899D02*
X153100D01*
X123178Y304999D02*
X153100D01*
X123527Y304099D02*
X153100D01*
X123757Y303199D02*
X153100D01*
X123877Y302299D02*
X153100D01*
X123894Y301399D02*
X153100D01*
X123808Y300499D02*
X153100D01*
X123615Y299599D02*
X153100D01*
X123308Y298699D02*
X153100D01*
X122870Y297799D02*
X153100D01*
X122274Y296899D02*
X153100D01*
X121469Y295999D02*
X153100D01*
X120340Y295099D02*
X153100D01*
X118478Y294199D02*
X153100D01*
X102500Y293299D02*
X153100D01*
X102500Y292399D02*
X153100D01*
X102500Y291499D02*
X153100D01*
X102500Y290599D02*
X153100D01*
X102500Y289699D02*
X153100D01*
X102500Y288799D02*
X153100D01*
X150717Y287899D02*
X153100D01*
X151449Y286999D02*
X153100D01*
X151515Y286099D02*
X153100D01*
X151515Y285199D02*
X153100D01*
X151515Y284299D02*
X153100D01*
X151515Y283399D02*
X153100D01*
X151515Y282499D02*
X153100D01*
X151515Y281599D02*
X153100D01*
X151293Y280699D02*
X153100D01*
X102500Y279799D02*
X153100D01*
X116780Y278899D02*
X153100D01*
X119227Y277999D02*
X153100D01*
X120313Y277099D02*
X153100D01*
X121017Y276199D02*
X153100D01*
X152613Y275299D02*
X153100D01*
X153045Y274399D02*
X153100D01*
X153098Y273499D02*
X153100D01*
X153098Y272599D02*
X153100D01*
X153098Y267199D02*
X153100D01*
X153098Y266299D02*
X153100D01*
X152990Y265399D02*
X153100D01*
X152428Y264499D02*
X153100D01*
X102500Y263599D02*
X153100D01*
X102500Y262699D02*
X153100D01*
X102500Y261799D02*
X153100D01*
X102500Y260899D02*
X153100D01*
X102500Y259999D02*
X153100D01*
X102500Y259099D02*
X153100D01*
X102500Y264499D02*
X145461D01*
X121488Y275299D02*
X145277D01*
X102500Y265399D02*
X144900D01*
X121783Y274399D02*
X144845D01*
X121929Y273499D02*
X144792D01*
X121936Y272599D02*
X144792D01*
X121806Y271699D02*
X144792D01*
X121528Y270799D02*
X144792D01*
X121078Y269899D02*
X144792D01*
X120404Y268999D02*
X144792D01*
X119373Y268099D02*
X144792D01*
X117322Y267199D02*
X144792D01*
X102500Y266299D02*
X144792D01*
X102500Y287899D02*
X143913D01*
X102500Y280699D02*
X143337D01*
X102500Y286999D02*
X143181D01*
X102500Y286099D02*
X143115D01*
X102500Y285199D02*
X143115D01*
X102500Y284299D02*
X143115D01*
X102500Y283399D02*
X143115D01*
X102500Y282499D02*
X143115D01*
X102500Y281599D02*
X143115D01*
X102500Y278899D02*
X115220D01*
X102500Y309499D02*
X114739D01*
X102500Y267199D02*
X114678D01*
X102500Y245599D02*
X114298D01*
X102500Y294199D02*
X113522D01*
X102500Y256399D02*
X112933D01*
X102500Y277999D02*
X112773D01*
X102500Y268099D02*
X112627D01*
X102500Y246499D02*
X112486D01*
X102500Y308599D02*
X112151D01*
X102500Y255499D02*
X111784D01*
X102500Y277099D02*
X111687D01*
X102500Y295099D02*
X111660D01*
X102500Y268999D02*
X111596D01*
X102500Y247399D02*
X111508D01*
X102500Y254599D02*
X111048D01*
X102500Y276199D02*
X110983D01*
X102500Y269899D02*
X110922D01*
X102500Y248299D02*
X110862D01*
X102500Y307699D02*
X110859D01*
X102500Y253699D02*
X110555D01*
X102500Y295999D02*
X110531D01*
X102500Y275299D02*
X110512D01*
X102500Y270799D02*
X110472D01*
X102500Y249199D02*
X110433D01*
X102500Y252799D02*
X110242D01*
X102500Y274399D02*
X110217D01*
X102500Y271699D02*
X110194D01*
X102500Y250099D02*
X110173D01*
X102500Y251899D02*
X110080D01*
X102500Y273499D02*
X110071D01*
X102500Y272599D02*
X110064D01*
X102500Y250999D02*
X110058D01*
X102500Y306799D02*
X109966D01*
X102500Y296899D02*
X109726D01*
X102500Y305899D02*
X109308D01*
X102500Y297799D02*
X109130D01*
X102500Y304999D02*
X108822D01*
X102500Y298699D02*
X108692D01*
X102500Y304099D02*
X108473D01*
X102500Y299599D02*
X108385D01*
X102500Y303199D02*
X108243D01*
X102500Y300499D02*
X108192D01*
X102500Y302299D02*
X108123D01*
X102500Y301399D02*
X108106D01*
X157200Y327299D02*
X235500D01*
X157200Y326399D02*
X235500D01*
X157200Y325499D02*
X235500D01*
X157200Y324599D02*
X235500D01*
X175152Y323699D02*
X235500D01*
X178856Y322799D02*
X235500D01*
X180301Y321899D02*
X235500D01*
X181301Y320999D02*
X235500D01*
X182049Y320099D02*
X235500D01*
X182620Y319199D02*
X235500D01*
X183050Y318299D02*
X235500D01*
X183363Y317399D02*
X235500D01*
X183570Y316499D02*
X235500D01*
X183679Y315599D02*
X235500D01*
X183695Y314699D02*
X235500D01*
X183617Y313799D02*
X235500D01*
X183442Y312899D02*
X235500D01*
X183166Y311999D02*
X235500D01*
X182776Y311099D02*
X235500D01*
X228618Y310199D02*
X235500D01*
X230168Y309299D02*
X235500D01*
X231196Y308399D02*
X235500D01*
X231949Y307499D02*
X235500D01*
X232514Y306599D02*
X235500D01*
X232932Y305699D02*
X235500D01*
X233227Y304799D02*
X235500D01*
X233412Y303899D02*
X235500D01*
X233495Y302999D02*
X235500D01*
X233478Y302099D02*
X235500D01*
X233361Y301199D02*
X235500D01*
X233141Y300299D02*
X235500D01*
X232806Y299399D02*
X235500D01*
X232342Y298499D02*
X235500D01*
X231720Y297599D02*
X235500D01*
X230888Y296699D02*
X235500D01*
X229729Y295799D02*
X235500D01*
X227826Y294899D02*
X235500D01*
X157200Y293999D02*
X235500D01*
X157200Y293099D02*
X235500D01*
X157200Y292199D02*
X235500D01*
X157200Y291299D02*
X223500D01*
X157200Y290399D02*
X223500D01*
X157200Y289499D02*
X223500D01*
X157200Y288599D02*
X223500D01*
X168990Y287699D02*
X223500D01*
X170132Y286799D02*
X223500D01*
X170746Y285899D02*
X223500D01*
X171080Y284999D02*
X223500D01*
X171199Y284099D02*
X223500D01*
X171123Y283199D02*
X223500D01*
X170840Y282299D02*
X223500D01*
X170297Y281399D02*
X223500D01*
X169320Y280499D02*
X223500D01*
X198742Y279599D02*
X223500D01*
X199615Y278699D02*
X223500D01*
X199700Y277799D02*
X223500D01*
X199700Y276899D02*
X223500D01*
X199700Y275999D02*
X223500D01*
X199700Y275099D02*
X223500D01*
X199700Y274199D02*
X223500D01*
X199700Y273299D02*
X223500D01*
X199645Y272399D02*
X223500D01*
X198946Y271499D02*
X223500D01*
X198742Y270599D02*
X223500D01*
X199615Y269699D02*
X223500D01*
X199700Y268799D02*
X223500D01*
X199700Y267899D02*
X223500D01*
X199700Y266999D02*
X223500D01*
X199700Y266099D02*
X223500D01*
X204421Y265199D02*
X223500D01*
X205463Y264299D02*
X223500D01*
X205915Y263399D02*
X223500D01*
X206050Y262499D02*
X223500D01*
X205914Y261599D02*
X223500D01*
X205461Y260699D02*
X223500D01*
X204416Y259799D02*
X223500D01*
X204891Y258899D02*
X223500D01*
X218711Y257999D02*
X223500D01*
X220518Y257099D02*
X223500D01*
X221495Y256199D02*
X223500D01*
X222139Y255299D02*
X223500D01*
X222568Y254399D02*
X223500D01*
X222828Y253499D02*
X223500D01*
X222943Y252599D02*
X223500D01*
X222920Y251699D02*
X223500D01*
X222758Y250799D02*
X223500D01*
X222444Y249899D02*
X223500D01*
X221950Y248999D02*
X223500D01*
X221213Y248099D02*
X223294D01*
X157200Y294899D02*
X222774D01*
X220063Y247199D02*
X222394D01*
X182255Y310199D02*
X221982D01*
X198600Y246299D02*
X221494D01*
X157200Y295799D02*
X220871D01*
X198600Y245399D02*
X220594D01*
X181572Y309299D02*
X220432D01*
X157200Y296699D02*
X219712D01*
X210523Y244499D02*
X219694D01*
X180667Y308399D02*
X219404D01*
X157200Y297599D02*
X218880D01*
X211168Y243599D02*
X218794D01*
X179407Y307499D02*
X218651D01*
X157200Y298499D02*
X218258D01*
X177260Y306599D02*
X218086D01*
X211200Y242699D02*
X217894D01*
X157200Y299399D02*
X217794D01*
X157200Y305699D02*
X217668D01*
X157200Y300299D02*
X217459D01*
X157200Y304799D02*
X217373D01*
X157200Y301199D02*
X217239D01*
X157200Y303899D02*
X217188D01*
X157200Y302099D02*
X217122D01*
X157200Y302999D02*
X217105D01*
X211200Y241799D02*
X216994D01*
X211200Y240899D02*
X216094D01*
X204893Y257999D02*
X215289D01*
X211012Y239999D02*
X215194D01*
X204200Y239099D02*
X214294D01*
X198600Y247199D02*
X213937D01*
X204893Y257099D02*
X213482D01*
X204200Y238199D02*
X213394D01*
X204219Y248099D02*
X212787D01*
X204802Y256199D02*
X212505D01*
X205781Y237299D02*
X212494D01*
X204880Y248999D02*
X212050D01*
X204873Y255299D02*
X211861D01*
X204893Y249899D02*
X211556D01*
X204893Y254399D02*
X211432D01*
X204893Y250799D02*
X211242D01*
X204893Y253499D02*
X211172D01*
X204839Y251699D02*
X211080D01*
X204850Y252599D02*
X211057D01*
X204323Y244499D02*
X205677D01*
X204812Y239999D02*
X205188D01*
X204968Y243599D02*
X205032D01*
X199700Y265199D02*
X201579D01*
X198600Y239099D02*
X200800D01*
X198600Y238199D02*
X200800D01*
X199581Y237299D02*
X200419D01*
X199997Y236399D02*
X200003D01*
X198600Y248099D02*
X199623D01*
X198600Y244499D02*
X199477D01*
X198600Y251699D02*
X199004D01*
X198600Y252599D02*
X198993D01*
X198600Y239999D02*
X198988D01*
X198600Y255299D02*
X198969D01*
X198600Y248999D02*
X198963D01*
X198600Y254399D02*
X198950D01*
X198600Y253499D02*
X198950D01*
X198600Y250799D02*
X198950D01*
X198600Y249899D02*
X198950D01*
X198600Y243599D02*
X198832D01*
X198600Y242699D02*
X198800D01*
X198600Y241799D02*
X198800D01*
X198600Y240899D02*
X198800D01*
X157200Y279599D02*
X193258D01*
X191200Y270599D02*
X193258D01*
X191186Y271499D02*
X193054D01*
X157200Y278699D02*
X192385D01*
X191200Y269699D02*
X192385D01*
X190668Y272399D02*
X192355D01*
X157200Y277799D02*
X192300D01*
X157200Y276899D02*
X192300D01*
X157200Y275999D02*
X192300D01*
X157200Y275099D02*
X192300D01*
X157200Y274199D02*
X192300D01*
X157200Y273299D02*
X192300D01*
X191200Y268799D02*
X192300D01*
X190948Y267899D02*
X192300D01*
X180903Y266999D02*
X192300D01*
X180003Y266099D02*
X192300D01*
X179600Y265199D02*
X192300D01*
X186781Y264299D02*
X191470D01*
X187197Y263399D02*
X190576D01*
X187200Y262499D02*
X190123D01*
X187200Y261599D02*
X190079D01*
X187200Y260699D02*
X190079D01*
X186871Y259799D02*
X189609D01*
X186100Y256199D02*
X189198D01*
X188730Y252599D02*
X189150D01*
X186100Y255299D02*
X189127D01*
X186100Y258899D02*
X189109D01*
X186100Y257999D02*
X189107D01*
X186100Y257099D02*
X189107D01*
X186930Y254399D02*
X189107D01*
X187830Y253499D02*
X189107D01*
X184468Y272399D02*
X185532D01*
X184748Y267899D02*
X185252D01*
X184986Y271499D02*
X185014D01*
X180581Y264299D02*
X181419D01*
X180997Y263399D02*
X181003D01*
X157200Y272399D02*
X179332D01*
X157200Y271499D02*
X178814D01*
X157701Y270599D02*
X178800D01*
X158601Y269699D02*
X178794D01*
X159501Y268799D02*
X177894D01*
X160401Y267899D02*
X176994D01*
X161301Y266999D02*
X176309D01*
X162201Y266099D02*
X176200D01*
X163101Y265199D02*
X176200D01*
X157200Y323699D02*
X174848D01*
X157200Y306599D02*
X172740D01*
X157200Y322799D02*
X171144D01*
X157200Y307499D02*
X170593D01*
X157200Y321899D02*
X169699D01*
X157200Y308399D02*
X169333D01*
X157200Y320999D02*
X168699D01*
X157200Y309299D02*
X168428D01*
X157200Y320099D02*
X167951D01*
X157200Y310199D02*
X167745D01*
X157200Y319199D02*
X167380D01*
X157200Y311099D02*
X167224D01*
X157200Y318299D02*
X166950D01*
X157200Y311999D02*
X166834D01*
X157200Y317399D02*
X166637D01*
X157200Y312899D02*
X166558D01*
X157200Y316499D02*
X166430D01*
X157200Y313799D02*
X166383D01*
X157200Y315599D02*
X166321D01*
X157200Y314699D02*
X166305D01*
X157200Y287699D02*
X165010D01*
X157200Y280499D02*
X164680D01*
X157200Y286799D02*
X163868D01*
X157200Y281399D02*
X163703D01*
X157200Y285899D02*
X163254D01*
X157200Y282299D02*
X163160D01*
X157200Y284999D02*
X162920D01*
X157200Y283199D02*
X162877D01*
X157200Y284099D02*
X162801D01*
X238400Y327599D02*
X397900D01*
X238400Y326699D02*
X397900D01*
X238400Y325799D02*
X397900D01*
X238400Y324899D02*
X397900D01*
X291121Y323999D02*
X397900D01*
X328178Y323099D02*
X397900D01*
X329886Y322199D02*
X397900D01*
X331001Y321299D02*
X397900D01*
X331822Y320399D02*
X397900D01*
X332447Y319499D02*
X397900D01*
X332921Y318599D02*
X397900D01*
X333271Y317699D02*
X397900D01*
X333512Y316799D02*
X397900D01*
X333653Y315899D02*
X397900D01*
X333700Y314999D02*
X397900D01*
X333653Y314099D02*
X397900D01*
X333512Y313199D02*
X397900D01*
X388669Y312299D02*
X397900D01*
X389970Y311399D02*
X397900D01*
X390638Y310499D02*
X397900D01*
X391004Y309599D02*
X397900D01*
X391148Y308699D02*
X397900D01*
X391094Y307799D02*
X397900D01*
X390833Y306899D02*
X397900D01*
X390318Y305999D02*
X397900D01*
X389388Y305099D02*
X397900D01*
X389110Y304199D02*
X397900D01*
X390175Y303299D02*
X397900D01*
X390754Y302399D02*
X397900D01*
X391059Y301499D02*
X397900D01*
X391153Y300599D02*
X397900D01*
X391049Y299699D02*
X397900D01*
X390731Y298799D02*
X397900D01*
X390135Y297899D02*
X397900D01*
X389029Y296999D02*
X397900D01*
X389453Y296099D02*
X397900D01*
X390353Y295199D02*
X397900D01*
X390852Y294299D02*
X397900D01*
X391101Y293399D02*
X397900D01*
X391145Y292499D02*
X397900D01*
X390991Y291599D02*
X397900D01*
X390612Y290699D02*
X397900D01*
X389924Y289799D02*
X397900D01*
X388558Y288899D02*
X397900D01*
X389735Y287999D02*
X397900D01*
X390507Y287099D02*
X397900D01*
X390936Y286199D02*
X397900D01*
X391131Y285299D02*
X397900D01*
X391125Y284399D02*
X397900D01*
X390918Y283499D02*
X397900D01*
X390474Y282599D02*
X397900D01*
X389676Y281699D02*
X397900D01*
X388700Y280799D02*
X397900D01*
X389974Y279899D02*
X397900D01*
X390640Y278999D02*
X397900D01*
X391005Y278099D02*
X397900D01*
X391148Y277199D02*
X397900D01*
X391093Y276299D02*
X397900D01*
X390832Y275399D02*
X397900D01*
X390315Y274499D02*
X397900D01*
X389383Y273599D02*
X397900D01*
X366256Y272699D02*
X397900D01*
X367230Y271799D02*
X397900D01*
X368130Y270899D02*
X397900D01*
X369030Y269999D02*
X397900D01*
X369930Y269099D02*
X397900D01*
X370830Y268199D02*
X397900D01*
X371730Y267299D02*
X397900D01*
X372630Y266399D02*
X397900D01*
X373530Y265499D02*
X397900D01*
X374430Y264599D02*
X397900D01*
X375330Y263699D02*
X397900D01*
X376230Y262799D02*
X397900D01*
X378312Y261899D02*
X397900D01*
X379487Y260999D02*
X397900D01*
X379982Y260099D02*
X397900D01*
X380148Y259199D02*
X397900D01*
X380043Y258299D02*
X397900D01*
X379631Y257399D02*
X397900D01*
X378692Y256499D02*
X397900D01*
X280806Y255599D02*
X397900D01*
X238945Y254699D02*
X397900D01*
X239258Y253799D02*
X397900D01*
X239420Y252899D02*
X397900D01*
X239442Y251999D02*
X397900D01*
X239327Y251099D02*
X397900D01*
X390311Y250199D02*
X397900D01*
X391277Y249299D02*
X397900D01*
X391811Y248399D02*
X397900D01*
X392084Y247499D02*
X397900D01*
X392150Y246599D02*
X397900D01*
X392018Y245699D02*
X397900D01*
X391667Y244799D02*
X397900D01*
X391021Y243899D02*
X397900D01*
X389785Y242999D02*
X397900D01*
X390617Y242099D02*
X397900D01*
X391441Y241199D02*
X397900D01*
X391901Y240299D02*
X397900D01*
X392119Y239399D02*
X397900D01*
X392136Y238499D02*
X397900D01*
X391952Y237599D02*
X397900D01*
X391537Y236699D02*
X397900D01*
X390791Y235799D02*
X397900D01*
X389430Y234899D02*
X397900D01*
X390873Y233999D02*
X397900D01*
X391583Y233099D02*
X397900D01*
X391976Y232199D02*
X397900D01*
X392142Y231299D02*
X397900D01*
X392109Y230399D02*
X397900D01*
X391872Y229499D02*
X397900D01*
X391388Y228599D02*
X397900D01*
X390519Y227699D02*
X397900D01*
X356313Y226799D02*
X397900D01*
X356905Y225899D02*
X397900D01*
X357135Y224999D02*
X397900D01*
X357090Y224099D02*
X397900D01*
X356755Y223199D02*
X397900D01*
X355981Y222299D02*
X397900D01*
X353203Y221399D02*
X397900D01*
X352303Y220499D02*
X397900D01*
X351403Y219599D02*
X397900D01*
X350503Y218699D02*
X397900D01*
X349603Y217799D02*
X397900D01*
X348703Y216899D02*
X397900D01*
X347803Y215999D02*
X397900D01*
X346903Y215099D02*
X397900D01*
X346003Y214199D02*
X397900D01*
X345103Y213299D02*
X397900D01*
X344203Y212399D02*
X397900D01*
X343303Y211499D02*
X397900D01*
X342403Y210599D02*
X397900D01*
X341503Y209699D02*
X397900D01*
X340603Y208799D02*
X397900D01*
X339703Y207899D02*
X397900D01*
X338803Y206999D02*
X397900D01*
X337903Y206099D02*
X397900D01*
X337003Y205199D02*
X397900D01*
X336103Y204299D02*
X397900D01*
X335203Y203399D02*
X397900D01*
X334303Y202499D02*
X397900D01*
X333403Y201599D02*
X397900D01*
X332503Y200699D02*
X397900D01*
X331603Y199799D02*
X397900D01*
X330471Y198899D02*
X397900D01*
X389417Y197999D02*
X397900D01*
X390333Y197099D02*
X397900D01*
X390842Y196199D02*
X397900D01*
X391097Y195299D02*
X397900D01*
X391147Y194399D02*
X397900D01*
X390998Y193499D02*
X397900D01*
X390627Y192599D02*
X397900D01*
X389949Y191699D02*
X397900D01*
X388621Y190799D02*
X397900D01*
X389705Y189899D02*
X397900D01*
X390490Y188999D02*
X397900D01*
X390927Y188099D02*
X397900D01*
X391128Y187199D02*
X397900D01*
X391128Y186299D02*
X397900D01*
X390927Y185399D02*
X397900D01*
X390491Y184499D02*
X397900D01*
X389707Y183599D02*
X397900D01*
X388618Y182699D02*
X397900D01*
X389948Y181799D02*
X397900D01*
X390626Y180899D02*
X397900D01*
X390998Y179999D02*
X397900D01*
X391147Y179099D02*
X397900D01*
X391097Y178199D02*
X397900D01*
X390842Y177299D02*
X397900D01*
X390334Y176399D02*
X397900D01*
X389419Y175499D02*
X397900D01*
X389072Y174599D02*
X397900D01*
X390156Y173699D02*
X397900D01*
X390743Y172799D02*
X397900D01*
X391054Y171899D02*
X397900D01*
X391153Y170999D02*
X397900D01*
X391054Y170099D02*
X397900D01*
X390742Y169199D02*
X397900D01*
X390154Y168299D02*
X397900D01*
X389068Y167399D02*
X397900D01*
X336400Y166499D02*
X397900D01*
X336400Y165599D02*
X397900D01*
X336400Y164699D02*
X397900D01*
X336400Y163799D02*
X397900D01*
X336400Y162899D02*
X397900D01*
X336400Y161999D02*
X397900D01*
X336400Y161099D02*
X397900D01*
X336400Y160199D02*
X397900D01*
X336400Y159299D02*
X397900D01*
X336400Y158399D02*
X397900D01*
X336400Y157499D02*
X397900D01*
X336400Y156599D02*
X397900D01*
X336327Y155699D02*
X397900D01*
X335711Y154799D02*
X397900D01*
X334811Y153899D02*
X397900D01*
X333911Y152999D02*
X397900D01*
X333011Y152099D02*
X397900D01*
X332111Y151199D02*
X397900D01*
X332054Y150299D02*
X397900D01*
X332054Y149399D02*
X397900D01*
X388489Y148499D02*
X397900D01*
X389896Y147599D02*
X397900D01*
X390596Y146699D02*
X397900D01*
X390983Y145799D02*
X397900D01*
X391144Y144899D02*
X397900D01*
X391106Y143999D02*
X397900D01*
X390863Y143099D02*
X397900D01*
X390372Y142199D02*
X397900D01*
X389490Y141299D02*
X397900D01*
X388979Y140399D02*
X397900D01*
X390111Y139499D02*
X397900D01*
X390718Y138599D02*
X397900D01*
X391043Y137699D02*
X397900D01*
X391152Y136799D02*
X397900D01*
X391065Y135899D02*
X397900D01*
X390766Y134999D02*
X397900D01*
X390198Y134099D02*
X397900D01*
X389156Y133199D02*
X397900D01*
X389349Y132299D02*
X397900D01*
X390297Y131399D02*
X397900D01*
X390822Y130499D02*
X397900D01*
X391089Y129599D02*
X397900D01*
X391149Y128699D02*
X397900D01*
X391011Y127799D02*
X397900D01*
X390653Y126899D02*
X397900D01*
X389996Y125999D02*
X397900D01*
X388730Y125099D02*
X397900D01*
X389648Y124199D02*
X397900D01*
X390459Y123299D02*
X397900D01*
X390910Y122399D02*
X397900D01*
X391123Y121499D02*
X397900D01*
X391133Y120599D02*
X397900D01*
X390944Y119699D02*
X397900D01*
X390521Y118799D02*
X397900D01*
X389762Y117899D02*
X397900D01*
X388111Y116999D02*
X397900D01*
X377700Y116099D02*
X397900D01*
X377700Y115199D02*
X397900D01*
X377700Y114299D02*
X397900D01*
X377700Y113399D02*
X397900D01*
X377512Y112499D02*
X397900D01*
X333008Y111599D02*
X397900D01*
X332562Y110699D02*
X397900D01*
X331974Y109799D02*
X397900D01*
X331202Y108899D02*
X397900D01*
X330164Y107999D02*
X397900D01*
X328641Y107099D02*
X397900D01*
X102000Y106199D02*
X397900D01*
X102000Y105299D02*
X397900D01*
X102000Y104399D02*
X397900D01*
X102000Y103499D02*
X397900D01*
X102000Y102599D02*
X397900D01*
X374076Y234899D02*
X386570D01*
X272019Y242999D02*
X386215D01*
X377642Y116999D02*
X385889D01*
X239067Y250199D02*
X385689D01*
X331944Y148499D02*
X385511D01*
X354657Y227699D02*
X385481D01*
X366609Y288899D02*
X385442D01*
X272919Y242099D02*
X385383D01*
X370197Y182699D02*
X385382D01*
X373076Y190799D02*
X385379D01*
X333270Y312299D02*
X385331D01*
X365484Y280799D02*
X385300D01*
X249608Y125099D02*
X385270D01*
X374050Y235799D02*
X385209D01*
X374000Y233999D02*
X385127D01*
X271119Y243899D02*
X384979D01*
X238400Y296999D02*
X384971D01*
X336400Y167399D02*
X384932D01*
X377281Y174599D02*
X384928D01*
X295945Y304199D02*
X384890D01*
X380411Y133199D02*
X384844D01*
X238638Y249299D02*
X384723D01*
X329597Y273599D02*
X384617D01*
X354941Y228599D02*
X384612D01*
X295404Y305099D02*
X384612D01*
X241500Y197999D02*
X384583D01*
X377371Y175499D02*
X384581D01*
X273819Y241199D02*
X384559D01*
X238400Y296099D02*
X384547D01*
X381290Y236699D02*
X384463D01*
X376361Y124199D02*
X384352D01*
X270198Y244799D02*
X384333D01*
X365300Y281699D02*
X384324D01*
X372966Y189899D02*
X384295D01*
X369349Y183599D02*
X384293D01*
X366309Y287999D02*
X384265D01*
X376823Y117899D02*
X384238D01*
X237992Y248399D02*
X384189D01*
X381124Y229499D02*
X384128D01*
X331257Y147599D02*
X384104D01*
X366624Y289799D02*
X384076D01*
X370569Y181799D02*
X384052D01*
X373064Y191699D02*
X384051D01*
X332920Y311399D02*
X384030D01*
X366256Y279899D02*
X384026D01*
X248361Y125999D02*
X384004D01*
X259506Y245699D02*
X383982D01*
X250449Y247499D02*
X383916D01*
X375949Y297899D02*
X383865D01*
X258378Y246599D02*
X383850D01*
X336400Y168299D02*
X383846D01*
X377697Y173699D02*
X383844D01*
X296144Y303299D02*
X383825D01*
X373028Y134099D02*
X383802D01*
X226900Y274499D02*
X383685D01*
X294049Y305999D02*
X383682D01*
X261733Y197099D02*
X383667D01*
X377700Y176399D02*
X383666D01*
X238400Y295199D02*
X383647D01*
X377608Y123299D02*
X383541D01*
X365300Y282599D02*
X383526D01*
X366980Y184499D02*
X383509D01*
X375956Y287099D02*
X383493D01*
X377564Y118799D02*
X383479D01*
X330600Y146699D02*
X383404D01*
X376877Y290699D02*
X383388D01*
X377168Y180899D02*
X383374D01*
X380146Y192599D02*
X383373D01*
X332445Y310499D02*
X383362D01*
X366591Y278999D02*
X383360D01*
X294496Y126899D02*
X383347D01*
X376927Y298799D02*
X383269D01*
X377278Y169199D02*
X383258D01*
X381329Y172799D02*
X383257D01*
X296068Y302399D02*
X383246D01*
X373076Y134999D02*
X383234D01*
X364143Y275399D02*
X383168D01*
X328172Y306899D02*
X383167D01*
X377700Y177299D02*
X383158D01*
X379930Y185399D02*
X383073D01*
X331843Y143099D02*
X383072D01*
X331287Y145799D02*
X383017D01*
X377686Y179999D02*
X383002D01*
X331820Y309599D02*
X382996D01*
X366635Y278099D02*
X382995D01*
X296309Y127799D02*
X382989D01*
X382481Y137699D02*
X382957D01*
X373029Y135899D02*
X382935D01*
X380273Y129599D02*
X382911D01*
X365811Y276299D02*
X382907D01*
X329882Y307799D02*
X382906D01*
X377700Y178199D02*
X382903D01*
X331948Y143999D02*
X382894D01*
X331782Y144899D02*
X382856D01*
X377700Y179099D02*
X382853D01*
X330999Y308699D02*
X382852D01*
X366403Y277199D02*
X382852D01*
X297104Y128699D02*
X382851D01*
X380408Y136799D02*
X382848D01*
X331431Y142199D02*
X382172D01*
X330492Y141299D02*
X381272D01*
X380276Y140399D02*
X380372D01*
X377696Y170099D02*
X379221D01*
X356302Y229499D02*
X376876D01*
X373581Y236699D02*
X376710D01*
X274719Y240299D02*
X376604D01*
X373338Y233099D02*
X376491D01*
X356844Y230399D02*
X376144D01*
X275900Y237599D02*
X376109D01*
X275585Y239399D02*
X376088D01*
X366080Y185399D02*
X376070D01*
X356969Y232199D02*
X376067D01*
X275898Y238499D02*
X376050D01*
X357043Y231299D02*
X376050D01*
X372673Y192599D02*
X375854D01*
X297550Y129599D02*
X375727D01*
X306328Y140399D02*
X375724D01*
X372473Y136799D02*
X375592D01*
X372470Y133199D02*
X375589D01*
X281985Y256499D02*
X375508D01*
X298874Y196199D02*
X375503D01*
X372174Y188999D02*
X375407D01*
X365180Y186299D02*
X375182D01*
X299200Y193499D02*
X375140D01*
X297761Y130499D02*
X375113D01*
X305378Y139499D02*
X375112D01*
X213675Y137699D02*
X375085D01*
X297585Y132299D02*
X375085D01*
X299200Y195299D02*
X375069D01*
X363380Y188099D02*
X375056D01*
X299200Y194399D02*
X375050D01*
X364280Y187199D02*
X375050D01*
X214615Y138599D02*
X375050D01*
X297772Y131399D02*
X375050D01*
X343249Y294299D02*
X374679D01*
X282481Y257399D02*
X374569D01*
X282648Y258299D02*
X374157D01*
X282780Y259199D02*
X374052D01*
X259480Y124199D02*
X373639D01*
X370693Y297899D02*
X373307D01*
X370700Y287099D02*
X373300D01*
X283680Y260099D02*
X373273D01*
X333203Y117899D02*
X373177D01*
X370643Y180899D02*
X372832D01*
X362941Y169199D02*
X372722D01*
X363749Y174599D02*
X372719D01*
X340235Y175499D02*
X372629D01*
X371496Y283499D02*
X372504D01*
X371498Y301499D02*
X372502D01*
X333333Y112499D02*
X372488D01*
X332827Y118799D02*
X372436D01*
X371565Y293399D02*
X372435D01*
X327612Y123299D02*
X372392D01*
X371621Y290699D02*
X372379D01*
X284580Y260999D02*
X372373D01*
X333467Y116999D02*
X372358D01*
X371671Y298799D02*
X372329D01*
X371672Y286199D02*
X372328D01*
X370444Y179999D02*
X372314D01*
X364302Y170099D02*
X372304D01*
X364597Y173699D02*
X372303D01*
X369902Y179099D02*
X372300D01*
X368541Y178199D02*
X372300D01*
X339413Y177299D02*
X372300D01*
X340005Y176399D02*
X372300D01*
X364969Y172799D02*
X372300D01*
X365043Y171899D02*
X372300D01*
X364844Y170999D02*
X372300D01*
X329577Y122399D02*
X372300D01*
X330784Y121499D02*
X372300D01*
X331659Y120599D02*
X372300D01*
X332322Y119699D02*
X372300D01*
X333630Y116099D02*
X372300D01*
X333698Y115199D02*
X372300D01*
X333672Y114299D02*
X372300D01*
X333551Y113399D02*
X372300D01*
X371819Y284399D02*
X372181D01*
X371819Y300599D02*
X372181D01*
X371822Y299699D02*
X372178D01*
X371822Y292499D02*
X372178D01*
X371822Y291599D02*
X372178D01*
X371822Y285299D02*
X372178D01*
X285480Y261899D02*
X371473D01*
X286380Y262799D02*
X370573D01*
X287280Y263699D02*
X369673D01*
X356597Y233099D02*
X368913D01*
X288180Y264599D02*
X368773D01*
X275900Y236699D02*
X368670D01*
X355749Y233999D02*
X368252D01*
X275900Y235799D02*
X368202D01*
X275900Y234899D02*
X368176D01*
X362935Y188999D02*
X368078D01*
X238400Y297899D02*
X368051D01*
X365602Y287099D02*
X368044D01*
X289027Y265499D02*
X367873D01*
X297169Y133199D02*
X367782D01*
X149315Y136799D02*
X367779D01*
X299906Y192599D02*
X367579D01*
X362705Y189899D02*
X367286D01*
X365300Y283499D02*
X367248D01*
X295696Y301499D02*
X367246D01*
X296426Y134099D02*
X367224D01*
X148415Y135899D02*
X367223D01*
X360457Y191699D02*
X367188D01*
X344604Y293399D02*
X367179D01*
X362113Y190799D02*
X367176D01*
X294875Y134999D02*
X367176D01*
X366360Y290699D02*
X367123D01*
X238400Y298799D02*
X367073D01*
X365300Y286199D02*
X367072D01*
X289300Y266399D02*
X366973D01*
X365300Y284399D02*
X366925D01*
X294845Y300599D02*
X366925D01*
X238400Y299699D02*
X366922D01*
X349606Y292499D02*
X366922D01*
X365714Y291599D02*
X366922D01*
X365300Y285299D02*
X366922D01*
X337757Y178199D02*
X366659D01*
X289300Y267299D02*
X366073D01*
X329610Y179099D02*
X365298D01*
X329206Y268199D02*
X365173D01*
X328905Y179999D02*
X364756D01*
X329345Y180899D02*
X364557D01*
X330196Y181799D02*
X364023D01*
X330568Y182699D02*
X363123D01*
X226900Y275399D02*
X363057D01*
X330644Y183599D02*
X362223D01*
X351906Y286199D02*
X361900D01*
X290200Y285299D02*
X361900D01*
X290200Y284399D02*
X361900D01*
X290200Y283499D02*
X361900D01*
X290196Y282599D02*
X361900D01*
X289778Y281699D02*
X361900D01*
X226900Y280799D02*
X361716D01*
X353085Y287099D02*
X361598D01*
X352297Y291599D02*
X361486D01*
X226900Y276299D02*
X361389D01*
X330445Y184499D02*
X361323D01*
X345841Y169199D02*
X361059D01*
X226900Y279899D02*
X360944D01*
X353581Y287999D02*
X360891D01*
X353233Y290699D02*
X360840D01*
X226900Y277199D02*
X360797D01*
X226900Y278999D02*
X360609D01*
X353748Y288899D02*
X360591D01*
X353644Y289799D02*
X360576D01*
X226900Y278099D02*
X360565D01*
X329904Y185399D02*
X360423D01*
X346649Y174599D02*
X360251D01*
X347202Y170099D02*
X359698D01*
X328849Y191699D02*
X359343D01*
X328549Y186299D02*
X358019D01*
X329697Y190799D02*
X357687D01*
X329402Y187199D02*
X357245D01*
X330069Y189899D02*
X357095D01*
X329944Y188099D02*
X356910D01*
X330143Y188999D02*
X356865D01*
X352603Y227699D02*
X353543D01*
X275900Y233999D02*
X352251D01*
X351703Y226799D02*
X351887D01*
X275900Y233099D02*
X351403D01*
X350803Y225899D02*
X351295D01*
X349700Y224099D02*
X351094D01*
X349903Y224999D02*
X351065D01*
X275900Y232199D02*
X351031D01*
X275900Y231299D02*
X350957D01*
X276587Y230399D02*
X350494D01*
X349574Y223199D02*
X350194D01*
X277082Y229499D02*
X349594D01*
X289874Y286199D02*
X349494D01*
X348862Y222299D02*
X349294D01*
X277248Y228599D02*
X348694D01*
X347962Y221399D02*
X348394D01*
X283703Y287099D02*
X348315D01*
X283935Y287999D02*
X347819D01*
X277143Y227699D02*
X347794D01*
X344045Y288899D02*
X347652D01*
X347062Y220499D02*
X347494D01*
X276731Y226799D02*
X346894D01*
X346162Y219599D02*
X346594D01*
X275792Y225899D02*
X346347D01*
X251415Y224999D02*
X346300D01*
X250515Y224099D02*
X345853D01*
X345262Y218699D02*
X345694D01*
X249615Y223199D02*
X344953D01*
X344362Y217799D02*
X344794D01*
X308249Y222299D02*
X344053D01*
X336400Y169199D02*
X343959D01*
X343462Y216899D02*
X343894D01*
X309604Y221399D02*
X343153D01*
X340190Y174599D02*
X343151D01*
X342562Y215999D02*
X342994D01*
X337203Y170099D02*
X342598D01*
X339855Y173699D02*
X342303D01*
X315206Y220499D02*
X342253D01*
X341662Y215099D02*
X342094D01*
X338103Y170999D02*
X342056D01*
X339081Y172799D02*
X341931D01*
X338790Y171899D02*
X341857D01*
X316106Y219599D02*
X341353D01*
X238400Y294299D02*
X341351D01*
X340762Y214199D02*
X341194D01*
X283891Y288899D02*
X340555D01*
X317006Y218699D02*
X340453D01*
X339862Y213299D02*
X340294D01*
X238400Y293399D02*
X339996D01*
X283556Y289799D02*
X339704D01*
X317906Y217799D02*
X339553D01*
X238400Y292499D02*
X339455D01*
X338962Y212399D02*
X339394D01*
X282784Y290699D02*
X339332D01*
X238400Y291599D02*
X339256D01*
X318806Y216899D02*
X338653D01*
X338062Y211499D02*
X338494D01*
X319706Y215999D02*
X337753D01*
X337162Y210599D02*
X337594D01*
X320606Y215099D02*
X336853D01*
X336262Y209699D02*
X336694D01*
X329909Y178199D02*
X336643D01*
X321506Y214199D02*
X335953D01*
X335362Y208799D02*
X335794D01*
X323849Y213299D02*
X335053D01*
X329924Y177299D02*
X334987D01*
X334462Y207899D02*
X334894D01*
X329849Y176399D02*
X334395D01*
X325204Y212399D02*
X334153D01*
X333562Y206999D02*
X333994D01*
X325745Y211499D02*
X333253D01*
X332662Y206099D02*
X333094D01*
X325944Y210599D02*
X332353D01*
X331762Y205199D02*
X332194D01*
X331204Y175499D02*
X331788D01*
X325868Y209699D02*
X331453D01*
X330862Y204299D02*
X331294D01*
X325496Y208799D02*
X330553D01*
X329962Y203399D02*
X330394D01*
X324645Y207899D02*
X329653D01*
X329062Y202499D02*
X329494D01*
X324133Y206999D02*
X328753D01*
X324544Y206099D02*
X327853D01*
X306857Y141299D02*
X327308D01*
X324648Y205199D02*
X326953D01*
X289985Y268199D02*
X326794D01*
X226900Y273599D02*
X326403D01*
X322311Y142199D02*
X326369D01*
X324481Y204299D02*
X326053D01*
X322958Y143099D02*
X325957D01*
X290481Y269099D02*
X325615D01*
X289197Y272699D02*
X325467D01*
X300806Y191699D02*
X325351D01*
X290648Y269999D02*
X325119D01*
X290133Y271799D02*
X325056D01*
X290544Y270899D02*
X324952D01*
X301706Y190799D02*
X324503D01*
X264130Y164699D02*
X324500D01*
X265030Y163799D02*
X324500D01*
X265930Y162899D02*
X324500D01*
X266830Y161999D02*
X324500D01*
X267730Y161099D02*
X324500D01*
X268630Y160199D02*
X324282D01*
X304335Y189899D02*
X324131D01*
X323224Y143999D02*
X324094D01*
X305194Y188999D02*
X324057D01*
X263230Y165599D02*
X323827D01*
X305628Y188099D02*
X323594D01*
X269530Y159299D02*
X323382D01*
X262330Y166499D02*
X322927D01*
X305795Y187199D02*
X322694D01*
X270430Y158399D02*
X322482D01*
X260389Y123299D02*
X322388D01*
X261430Y167399D02*
X322027D01*
X291066Y306899D02*
X321828D01*
X292765Y323099D02*
X321822D01*
X305731Y186299D02*
X321794D01*
X271330Y157499D02*
X321582D01*
X178641Y107099D02*
X321359D01*
X260530Y168299D02*
X321127D01*
X305424Y185399D02*
X320894D01*
X305166Y156599D02*
X320682D01*
X261289Y122399D02*
X320423D01*
X259630Y169199D02*
X320265D01*
X304789Y184499D02*
X320130D01*
X283600Y307799D02*
X320118D01*
X293523Y322199D02*
X320114D01*
X258730Y170099D02*
X319963D01*
X303380Y183599D02*
X319962D01*
X264440Y182699D02*
X319962D01*
X264285Y181799D02*
X319962D01*
X263923Y180899D02*
X319962D01*
X263286Y179999D02*
X319962D01*
X262141Y179099D02*
X319962D01*
X251300Y178199D02*
X319962D01*
X251530Y177299D02*
X319962D01*
X252430Y176399D02*
X319962D01*
X253330Y175499D02*
X319962D01*
X254230Y174599D02*
X319962D01*
X255130Y173699D02*
X319962D01*
X256030Y172799D02*
X319962D01*
X256930Y171899D02*
X319962D01*
X257830Y170999D02*
X319962D01*
X180164Y107999D02*
X319836D01*
X306218Y155699D02*
X319782D01*
X262189Y121499D02*
X319216D01*
X283778Y308699D02*
X319001D01*
X293944Y321299D02*
X318999D01*
X306795Y154799D02*
X318882D01*
X181202Y108899D02*
X318798D01*
X318210Y205199D02*
X318552D01*
X317310Y206099D02*
X318397D01*
X263089Y120599D02*
X318341D01*
X284196Y309599D02*
X318180D01*
X294134Y320399D02*
X318178D01*
X307130Y142199D02*
X318089D01*
X295935Y109799D02*
X318026D01*
X263989Y119699D02*
X317678D01*
X284200Y310499D02*
X317555D01*
X294122Y319499D02*
X317553D01*
X241500Y198899D02*
X317529D01*
X316410Y206999D02*
X317497D01*
X307198Y143099D02*
X317442D01*
X296901Y110699D02*
X317438D01*
X307070Y143999D02*
X317176D01*
X264889Y118799D02*
X317173D01*
X284200Y311399D02*
X317080D01*
X293909Y318599D02*
X317079D01*
X297438Y111599D02*
X316992D01*
X265789Y117899D02*
X316797D01*
X284200Y312299D02*
X316730D01*
X293457Y317699D02*
X316729D01*
X297717Y112499D02*
X316667D01*
X315510Y207899D02*
X316597D01*
X295549Y116999D02*
X316533D01*
X283874Y313199D02*
X316488D01*
X292645Y316799D02*
X316488D01*
X297789Y113399D02*
X316449D01*
X241500Y199799D02*
X316397D01*
X296707Y116099D02*
X316370D01*
X282800Y314099D02*
X316347D01*
X290652Y315899D02*
X316347D01*
X297666Y114299D02*
X316328D01*
X297328Y115199D02*
X316302D01*
X282800Y314999D02*
X316300D01*
X314610Y208799D02*
X315697D01*
X306726Y144899D02*
X315594D01*
X241500Y200699D02*
X315497D01*
X313710Y209699D02*
X314797D01*
X311892Y201599D02*
X314597D01*
X306096Y145799D02*
X314415D01*
X312166Y149399D02*
X314267D01*
X304916Y146699D02*
X313919D01*
X312707Y210599D02*
X313897D01*
X311266Y148499D02*
X313856D01*
X310366Y147599D02*
X313752D01*
X312831Y202499D02*
X313697D01*
X295106Y211499D02*
X312997D01*
X294206Y212399D02*
X312097D01*
X311512Y206999D02*
X311601D01*
X306311Y213299D02*
X311197D01*
X241500Y206999D02*
X309088D01*
X241500Y201599D02*
X308708D01*
X241500Y206099D02*
X307913D01*
X241500Y202499D02*
X307769D01*
X241500Y205199D02*
X307418D01*
X241500Y203399D02*
X307357D01*
X241500Y204299D02*
X307252D01*
X248715Y222299D02*
X306351D01*
X247815Y221399D02*
X304996D01*
X246915Y220499D02*
X304455D01*
X289504Y218699D02*
X304332D01*
X288149Y219599D02*
X304256D01*
X290045Y217799D02*
X302195D01*
X293306Y213299D02*
X302089D01*
X290244Y216899D02*
X301490D01*
X292106Y214199D02*
X301442D01*
X290306Y215999D02*
X301191D01*
X291206Y215099D02*
X301176D01*
X294916Y146699D02*
X301084D01*
X284180Y183599D02*
X301020D01*
X295166Y156599D02*
X300834D01*
X295378Y139499D02*
X300622D01*
X296096Y145799D02*
X299904D01*
X296218Y155699D02*
X299782D01*
X296328Y140399D02*
X299672D01*
X285589Y184499D02*
X299611D01*
X296726Y144899D02*
X299274D01*
X297206Y151199D02*
X299206D01*
X296795Y154799D02*
X299205D01*
X296857Y141299D02*
X299143D01*
X286224Y185399D02*
X298976D01*
X297070Y143999D02*
X298930D01*
X297102Y152099D02*
X298898D01*
X297103Y153899D02*
X298897D01*
X297130Y142199D02*
X298870D01*
X297198Y143099D02*
X298802D01*
X297200Y152999D02*
X298800D01*
X286428Y188099D02*
X298772D01*
X287303Y188999D02*
X298697D01*
X286531Y186299D02*
X298669D01*
X286595Y187199D02*
X298605D01*
X288203Y189899D02*
X297797D01*
X289103Y190799D02*
X296897D01*
X223615Y147599D02*
X295997D01*
X224515Y148499D02*
X295097D01*
X241500Y207899D02*
X293897D01*
X292578Y191699D02*
X293422D01*
X292674Y196199D02*
X293326D01*
X292996Y192599D02*
X293004D01*
X241500Y208799D02*
X292997D01*
X268905Y126899D02*
X292685D01*
X269285Y134999D02*
X292306D01*
X241500Y209699D02*
X292097D01*
X269959Y116999D02*
X291632D01*
X238400Y300599D02*
X291355D01*
X270344Y109799D02*
X291246D01*
X241500Y210599D02*
X291197D01*
X284916Y146699D02*
X291084D01*
X270719Y127799D02*
X290872D01*
X285161Y149399D02*
X290839D01*
X285166Y156599D02*
X290834D01*
X270835Y134099D02*
X290755D01*
X285378Y139499D02*
X290622D01*
X238400Y301499D02*
X290504D01*
X271117Y116099D02*
X290474D01*
X271310Y110699D02*
X290280D01*
X271513Y128699D02*
X290077D01*
X271579Y133199D02*
X290012D01*
X241500Y211499D02*
X289997D01*
X286096Y145799D02*
X289904D01*
X271738Y115199D02*
X289853D01*
X286216Y150299D02*
X289784D01*
X286218Y155699D02*
X289782D01*
X271847Y111599D02*
X289743D01*
X286328Y140399D02*
X289672D01*
X271959Y129599D02*
X289631D01*
X271994Y132299D02*
X289596D01*
X272075Y114299D02*
X289515D01*
X272126Y112499D02*
X289464D01*
X272170Y130499D02*
X289421D01*
X272181Y131399D02*
X289409D01*
X272198Y113399D02*
X289392D01*
X282800Y315899D02*
X289348D01*
X286726Y144899D02*
X289274D01*
X286794Y151199D02*
X289206D01*
X286795Y154799D02*
X289205D01*
X286857Y141299D02*
X289143D01*
X241500Y212399D02*
X289097D01*
X287070Y143999D02*
X288930D01*
X287102Y152099D02*
X288898D01*
X287103Y153899D02*
X288897D01*
X283247Y323999D02*
X288879D01*
X287130Y142199D02*
X288870D01*
X287198Y143099D02*
X288802D01*
X287200Y152999D02*
X288800D01*
X241500Y213299D02*
X288197D01*
X284771Y316799D02*
X287355D01*
X284891Y323099D02*
X287235D01*
X263094Y196199D02*
X287126D01*
X263810Y195299D02*
X286800D01*
X264224Y194399D02*
X286800D01*
X264422Y193499D02*
X286800D01*
X285583Y317699D02*
X286543D01*
X285649Y322199D02*
X286477D01*
X246015Y219599D02*
X286251D01*
X264432Y192599D02*
X286094D01*
X286035Y318599D02*
X286091D01*
X226900Y272699D02*
X286003D01*
X226900Y267299D02*
X285900D01*
X284116Y302399D02*
X285884D01*
X241500Y214199D02*
X285455D01*
X226900Y268199D02*
X285215D01*
X264255Y191699D02*
X285194D01*
X226900Y266399D02*
X285171D01*
X284866Y306899D02*
X285134D01*
X226900Y271799D02*
X285067D01*
X284941Y303299D02*
X285059D01*
X245115Y218699D02*
X284896D01*
X226900Y269099D02*
X284719D01*
X226900Y270899D02*
X284656D01*
X241515Y215099D02*
X284604D01*
X226900Y269999D02*
X284552D01*
X283578Y281699D02*
X284422D01*
X244215Y217799D02*
X284355D01*
X283674Y286199D02*
X284326D01*
X263867Y190799D02*
X284294D01*
X226900Y265499D02*
X284271D01*
X242415Y215999D02*
X284232D01*
X243315Y216899D02*
X284156D01*
X283996Y282599D02*
X284004D01*
X233049Y264599D02*
X283371D01*
X233897Y263699D02*
X282471D01*
X264410Y183599D02*
X281820D01*
X234269Y262799D02*
X281571D01*
X274916Y146699D02*
X281084D01*
X275373Y323999D02*
X281005D01*
X263191Y189899D02*
X280865D01*
X276795Y149399D02*
X280839D01*
X276797Y156599D02*
X280834D01*
X234343Y261899D02*
X280671D01*
X275378Y139499D02*
X280622D01*
X264190Y184499D02*
X280411D01*
X275800Y307799D02*
X280200D01*
X261947Y188999D02*
X280006D01*
X276096Y145799D02*
X279904D01*
X277188Y150299D02*
X279784D01*
X277188Y155699D02*
X279782D01*
X263748Y185399D02*
X279776D01*
X276316Y302399D02*
X279684D01*
X276328Y140399D02*
X279672D01*
X251260Y188099D02*
X279572D01*
X262987Y186299D02*
X279469D01*
X261474Y187199D02*
X279405D01*
X277017Y323099D02*
X279361D01*
X276726Y144899D02*
X279274D01*
X277200Y151199D02*
X279206D01*
X277200Y154799D02*
X279205D01*
X276857Y141299D02*
X279143D01*
X276861Y290699D02*
X279016D01*
X277066Y306899D02*
X278934D01*
X277070Y143999D02*
X278930D01*
X277200Y152099D02*
X278898D01*
X277200Y153899D02*
X278897D01*
X277130Y142199D02*
X278870D01*
X277141Y303299D02*
X278859D01*
X277198Y143099D02*
X278802D01*
X277200Y305999D02*
X278800D01*
X277200Y305099D02*
X278800D01*
X277200Y304199D02*
X278800D01*
X277200Y152999D02*
X278800D01*
X277775Y322199D02*
X278603D01*
X277578Y308699D02*
X278422D01*
X238452Y255599D02*
X278394D01*
X278108Y289799D02*
X278244D01*
X276845Y281699D02*
X278222D01*
X277996Y309599D02*
X278004D01*
X234144Y260999D02*
X278003D01*
X277696Y282599D02*
X277804D01*
X237716Y256499D02*
X277215D01*
X233602Y260099D02*
X277067D01*
X236567Y257399D02*
X276719D01*
X232241Y259199D02*
X276656D01*
X229903Y258299D02*
X276552D01*
X266706Y281699D02*
X273355D01*
X270661Y290699D02*
X273339D01*
X238400Y315899D02*
X273200D01*
X238400Y314999D02*
X273200D01*
X238400Y314099D02*
X273200D01*
X238400Y323999D02*
X273131D01*
X252315Y225899D02*
X272608D01*
X267885Y282599D02*
X272504D01*
X271143Y231299D02*
X272500D01*
X238400Y307799D02*
X272400D01*
X268453Y285299D02*
X272255D01*
X238400Y308699D02*
X272222D01*
X268381Y283499D02*
X272132D01*
X238400Y313199D02*
X272126D01*
X271907Y286199D02*
X272093D01*
X271908Y289799D02*
X272092D01*
X268548Y284399D02*
X272056D01*
X270116Y302399D02*
X271884D01*
X266415Y230399D02*
X271813D01*
X238400Y309599D02*
X271804D01*
X238400Y312299D02*
X271800D01*
X238400Y311399D02*
X271800D01*
X238400Y310499D02*
X271800D01*
X264916Y226799D02*
X271669D01*
X238400Y316799D02*
X271607D01*
X238400Y323099D02*
X271487D01*
X266550Y229499D02*
X271318D01*
X265961Y227699D02*
X271257D01*
X266414Y228599D02*
X271152D01*
X270866Y306899D02*
X271134D01*
X222715Y146699D02*
X271084D01*
X270941Y303299D02*
X271059D01*
X238400Y317699D02*
X270795D01*
X238400Y322199D02*
X270729D01*
X215515Y139499D02*
X270622D01*
X238400Y318599D02*
X270343D01*
X238400Y321299D02*
X270307D01*
X238400Y319499D02*
X270130D01*
X238400Y320399D02*
X270118D01*
X270001Y231299D02*
X270057D01*
X221815Y145799D02*
X269904D01*
X216415Y140399D02*
X269672D01*
X220915Y144899D02*
X269274D01*
X225415Y149399D02*
X269205D01*
X217315Y141299D02*
X269143D01*
X220015Y143999D02*
X268930D01*
X218215Y142199D02*
X268870D01*
X226315Y150299D02*
X268812D01*
X219115Y143099D02*
X268802D01*
X229915Y153899D02*
X268800D01*
X229015Y152999D02*
X268800D01*
X228115Y152099D02*
X268800D01*
X227215Y151199D02*
X268800D01*
X230815Y154799D02*
X268373D01*
X231715Y155699D02*
X267473D01*
X238400Y290699D02*
X267139D01*
X249607Y126899D02*
X267095D01*
X147515Y134999D02*
X266715D01*
X232615Y156599D02*
X266573D01*
X238400Y289799D02*
X265892D01*
X238400Y288899D02*
X265800D01*
X226900Y287999D02*
X265800D01*
X238400Y302399D02*
X265684D01*
X233515Y157499D02*
X265673D01*
X181974Y109799D02*
X265656D01*
X249700Y127799D02*
X265281D01*
X146615Y134099D02*
X265165D01*
X238400Y306899D02*
X264934D01*
X238400Y303299D02*
X264859D01*
X238400Y305999D02*
X264800D01*
X238400Y305099D02*
X264800D01*
X238400Y304199D02*
X264800D01*
X234415Y158399D02*
X264773D01*
X182562Y110699D02*
X264690D01*
X249700Y128699D02*
X264487D01*
X145715Y133199D02*
X264421D01*
X226900Y281699D02*
X264294D01*
X183008Y111599D02*
X264153D01*
X249700Y129599D02*
X264041D01*
X144852Y132299D02*
X264006D01*
X241549Y114299D02*
X263925D01*
X226900Y287099D02*
X263903D01*
X183333Y112499D02*
X263874D01*
X235315Y159299D02*
X263873D01*
X249700Y130499D02*
X263830D01*
X249566Y131399D02*
X263819D01*
X183551Y113399D02*
X263802D01*
X242536Y115199D02*
X263681D01*
X226900Y282599D02*
X263115D01*
X236215Y160199D02*
X262973D01*
X226900Y286199D02*
X262967D01*
X243102Y116099D02*
X262781D01*
X226900Y283499D02*
X262619D01*
X226900Y285299D02*
X262556D01*
X226900Y284399D02*
X262452D01*
X253215Y226799D02*
X262084D01*
X237115Y161099D02*
X262073D01*
X243415Y116999D02*
X261881D01*
X238015Y161999D02*
X261173D01*
X254115Y227699D02*
X261039D01*
X243528Y117899D02*
X260981D01*
X238915Y162899D02*
X260273D01*
X243457Y118799D02*
X260081D01*
X239815Y163799D02*
X259373D01*
X255015Y228599D02*
X259297D01*
X243192Y119699D02*
X259181D01*
X251300Y187199D02*
X258526D01*
X240715Y164699D02*
X258473D01*
X249564Y120599D02*
X258281D01*
X241500Y197099D02*
X258267D01*
X250821Y188999D02*
X258053D01*
X251300Y179099D02*
X257859D01*
X241255Y165599D02*
X257573D01*
X251002Y242999D02*
X257397D01*
X249641Y242099D02*
X257133D01*
X251300Y186299D02*
X257013D01*
X241349Y196199D02*
X256906D01*
X249930Y189899D02*
X256809D01*
X251300Y179999D02*
X256714D01*
X241300Y166499D02*
X256673D01*
X251300Y185399D02*
X256252D01*
X245905Y195299D02*
X256190D01*
X249030Y190799D02*
X256133D01*
X251300Y180899D02*
X256077D01*
X251300Y184499D02*
X255810D01*
X246610Y194399D02*
X255776D01*
X241300Y167399D02*
X255773D01*
X248130Y191699D02*
X255745D01*
X251300Y181799D02*
X255715D01*
X226900Y241199D02*
X255594D01*
X251300Y183599D02*
X255590D01*
X246909Y193499D02*
X255578D01*
X247230Y192599D02*
X255568D01*
X251300Y182699D02*
X255560D01*
X241300Y168299D02*
X254873D01*
X226900Y240299D02*
X254694D01*
X241300Y169199D02*
X253973D01*
X226900Y239399D02*
X253794D01*
X241300Y170099D02*
X253073D01*
X226900Y238499D02*
X252894D01*
X241300Y170999D02*
X252173D01*
X226900Y237599D02*
X251994D01*
X241300Y171899D02*
X251273D01*
X226900Y236699D02*
X251094D01*
X241300Y172799D02*
X250373D01*
X226900Y235799D02*
X250194D01*
X241300Y173699D02*
X249473D01*
X226900Y234899D02*
X249294D01*
X241300Y174599D02*
X248573D01*
X226900Y233999D02*
X248394D01*
X226900Y242099D02*
X247759D01*
X241300Y175499D02*
X247701D01*
X226900Y233099D02*
X247494D01*
X241300Y176399D02*
X247323D01*
X241300Y186299D02*
X247300D01*
X241300Y185399D02*
X247300D01*
X241300Y184499D02*
X247300D01*
X241300Y183599D02*
X247300D01*
X241300Y182699D02*
X247300D01*
X241300Y181799D02*
X247300D01*
X241300Y180899D02*
X247300D01*
X241300Y179999D02*
X247300D01*
X241300Y179099D02*
X247300D01*
X241300Y178199D02*
X247300D01*
X241300Y177299D02*
X247300D01*
X241300Y187199D02*
X246973D01*
X237014Y247499D02*
X246951D01*
X226900Y232199D02*
X246594D01*
X226900Y242999D02*
X246398D01*
X235202Y246599D02*
X246103D01*
X241300Y188099D02*
X246073D01*
X226900Y243899D02*
X245856D01*
X226900Y245699D02*
X245731D01*
X226900Y231299D02*
X245694D01*
X226900Y244799D02*
X245657D01*
X241300Y188999D02*
X245173D01*
X226900Y230399D02*
X244794D01*
X244082Y120599D02*
X244436D01*
X241754Y131399D02*
X244434D01*
X242649Y130499D02*
X244300D01*
X243168Y129599D02*
X244300D01*
X243446Y128699D02*
X244300D01*
X241300Y189899D02*
X244273D01*
X226900Y229499D02*
X243894D01*
X243529Y127799D02*
X243694D01*
X226900Y228599D02*
X242994D01*
X226900Y227699D02*
X242094D01*
X241300Y195299D02*
X241895D01*
X241300Y190799D02*
X241789D01*
X226900Y226799D02*
X241194D01*
X226900Y225899D02*
X240294D01*
X226900Y224999D02*
X239394D01*
X226900Y224099D02*
X238494D01*
X102000Y223199D02*
X237594D01*
X102000Y222299D02*
X236694D01*
X231313Y114299D02*
X236608D01*
X231518Y131399D02*
X236404D01*
X231592Y121499D02*
X236329D01*
X102000Y221399D02*
X235794D01*
X232300Y115199D02*
X235621D01*
X232346Y125099D02*
X235575D01*
X232413Y130499D02*
X235508D01*
X232455Y120599D02*
X235466D01*
X232866Y116099D02*
X235055D01*
X232893Y125999D02*
X235029D01*
X232931Y129599D02*
X234990D01*
X232956Y119699D02*
X234966D01*
X102000Y220499D02*
X234894D01*
X233178Y116999D02*
X234743D01*
X233191Y126899D02*
X234730D01*
X233209Y128699D02*
X234712D01*
X233220Y118799D02*
X234701D01*
X233291Y117899D02*
X234630D01*
X233292Y127799D02*
X234629D01*
X102000Y219599D02*
X233994D01*
X102000Y218699D02*
X233124D01*
X102000Y217799D02*
X232803D01*
X102000Y216899D02*
X232800D01*
X102000Y215999D02*
X232800D01*
X102000Y215099D02*
X232800D01*
X102000Y214199D02*
X232800D01*
X102000Y213299D02*
X232800D01*
X102000Y212399D02*
X232800D01*
X102000Y211499D02*
X232800D01*
X102000Y210599D02*
X232800D01*
X102000Y209699D02*
X232800D01*
X102000Y208799D02*
X232800D01*
X102000Y207899D02*
X232800D01*
X102000Y206999D02*
X232800D01*
X102000Y206099D02*
X232800D01*
X132754Y205199D02*
X232800D01*
X133754Y204299D02*
X232800D01*
X134269Y203399D02*
X232800D01*
X134505Y202499D02*
X232800D01*
X134517Y201599D02*
X232800D01*
X134306Y200699D02*
X232800D01*
X133827Y199799D02*
X232800D01*
X132904Y198899D02*
X232800D01*
X102000Y197999D02*
X232800D01*
X102000Y197099D02*
X232800D01*
X102000Y196199D02*
X232800D01*
X102000Y195299D02*
X232800D01*
X102000Y194399D02*
X232800D01*
X102000Y193499D02*
X232800D01*
X102000Y192599D02*
X232800D01*
X179205Y191699D02*
X232800D01*
X179910Y190799D02*
X232800D01*
X180209Y189899D02*
X232800D01*
X180224Y188999D02*
X232800D01*
X179958Y188099D02*
X232800D01*
X179311Y187199D02*
X232800D01*
X168846Y186299D02*
X232800D01*
X167946Y185399D02*
X232800D01*
X167046Y184499D02*
X232800D01*
X166146Y183599D02*
X232800D01*
X165246Y182699D02*
X232800D01*
X164346Y181799D02*
X232800D01*
X163446Y180899D02*
X232800D01*
X162546Y179999D02*
X232800D01*
X161646Y179099D02*
X232800D01*
X160746Y178199D02*
X232800D01*
X159846Y177299D02*
X232800D01*
X158946Y176399D02*
X232800D01*
X158046Y175499D02*
X232800D01*
X157146Y174599D02*
X232800D01*
X156246Y173699D02*
X232800D01*
X155346Y172799D02*
X232800D01*
X154446Y171899D02*
X232800D01*
X153546Y170999D02*
X232800D01*
X152646Y170099D02*
X232800D01*
X151746Y169199D02*
X232800D01*
X150846Y168299D02*
X232294D01*
X226900Y246599D02*
X231798D01*
X149946Y167399D02*
X231394D01*
X149046Y166499D02*
X230494D01*
X229003Y257399D02*
X230433D01*
X226900Y247499D02*
X229986D01*
X148146Y165599D02*
X229594D01*
X226900Y264599D02*
X229551D01*
X228103Y256499D02*
X229284D01*
X226900Y248399D02*
X229008D01*
X226900Y263699D02*
X228703D01*
X147246Y164699D02*
X228694D01*
X227203Y255599D02*
X228548D01*
X226900Y249299D02*
X228362D01*
X226900Y262799D02*
X228331D01*
X226900Y261899D02*
X228257D01*
X226900Y254699D02*
X228055D01*
X226900Y250199D02*
X227933D01*
X226900Y260999D02*
X227794D01*
X146346Y163799D02*
X227794D01*
X226900Y253799D02*
X227742D01*
X226900Y251099D02*
X227673D01*
X226900Y252899D02*
X227580D01*
X226900Y251999D02*
X227558D01*
X141211Y162899D02*
X226894D01*
X223159Y114299D02*
X226372D01*
X221675Y131399D02*
X226167D01*
X223276Y121499D02*
X226093D01*
X139543Y161999D02*
X225994D01*
X223449Y115199D02*
X225385D01*
X224148Y125099D02*
X225339D01*
X222570Y130499D02*
X225272D01*
X223450Y120599D02*
X225230D01*
X102000Y161099D02*
X225094D01*
X223450Y116099D02*
X224819D01*
X223248Y125999D02*
X224792D01*
X223089Y129599D02*
X224754D01*
X223450Y119699D02*
X224729D01*
X223450Y116999D02*
X224507D01*
X223349Y126899D02*
X224494D01*
X223367Y128699D02*
X224476D01*
X223450Y118799D02*
X224465D01*
X223450Y117899D02*
X224394D01*
X223450Y127799D02*
X224393D01*
X102000Y160199D02*
X224194D01*
X102000Y159299D02*
X223294D01*
X102000Y158399D02*
X222394D01*
X102000Y157499D02*
X221494D01*
X177612Y123299D02*
X221140D01*
X102000Y156599D02*
X220594D01*
X102000Y155699D02*
X219694D01*
X102000Y154799D02*
X218794D01*
X102000Y153899D02*
X217894D01*
X102000Y152999D02*
X216994D01*
X144852Y124199D02*
X216446D01*
X144852Y131399D02*
X216325D01*
X102000Y152099D02*
X216094D01*
X179577Y122399D02*
X215835D01*
X144852Y125099D02*
X215497D01*
X144852Y130499D02*
X215430D01*
X102000Y151199D02*
X215194D01*
X144852Y125999D02*
X214950D01*
X144852Y129599D02*
X214911D01*
X183672Y114299D02*
X214841D01*
X180784Y121499D02*
X214724D01*
X144852Y126899D02*
X214651D01*
X144852Y128699D02*
X214633D01*
X183698Y115199D02*
X214551D01*
X144852Y127799D02*
X214550D01*
X181659Y120599D02*
X214550D01*
X182322Y119699D02*
X214550D01*
X182827Y118799D02*
X214550D01*
X183203Y117899D02*
X214550D01*
X183467Y116999D02*
X214550D01*
X183630Y116099D02*
X214550D01*
X102000Y150299D02*
X214294D01*
X102000Y149399D02*
X213394D01*
X102000Y148499D02*
X212494D01*
X102000Y147599D02*
X211594D01*
X102000Y146699D02*
X210694D01*
X102000Y191699D02*
X175195D01*
X169746Y187199D02*
X175089D01*
X144852Y123299D02*
X172388D01*
X102000Y107099D02*
X171359D01*
X144852Y122399D02*
X170423D01*
X136041Y107999D02*
X169836D01*
X144852Y121499D02*
X169216D01*
X137402Y108899D02*
X168798D01*
X102000Y190799D02*
X168577D01*
X144852Y120599D02*
X168341D01*
X137944Y109799D02*
X168026D01*
X144852Y119699D02*
X167678D01*
X102000Y189899D02*
X167638D01*
X138143Y110699D02*
X167438D01*
X144845Y118799D02*
X167173D01*
X138203Y111599D02*
X166992D01*
X144486Y117899D02*
X166797D01*
X102000Y188999D02*
X166738D01*
X139103Y112499D02*
X166667D01*
X143603Y116999D02*
X166533D01*
X140003Y113399D02*
X166449D01*
X142703Y116099D02*
X166370D01*
X140903Y114299D02*
X166328D01*
X141803Y115199D02*
X166302D01*
X102000Y188099D02*
X165838D01*
X102000Y187199D02*
X164938D01*
X102000Y186299D02*
X164038D01*
X102000Y185399D02*
X163138D01*
X102000Y184499D02*
X162238D01*
X102000Y183599D02*
X161338D01*
X102000Y182699D02*
X160438D01*
X102000Y181799D02*
X159538D01*
X102000Y180899D02*
X158638D01*
X102000Y179999D02*
X157738D01*
X102000Y179099D02*
X156838D01*
X102000Y178199D02*
X155938D01*
X102000Y177299D02*
X155038D01*
X102000Y176399D02*
X154138D01*
X102000Y175499D02*
X153238D01*
X102000Y174599D02*
X152338D01*
X102000Y173699D02*
X151438D01*
X102000Y172799D02*
X150538D01*
X102000Y171899D02*
X149638D01*
X102000Y170999D02*
X148738D01*
X102000Y170099D02*
X147838D01*
X102000Y169199D02*
X146938D01*
X102000Y145799D02*
X146522D01*
X102000Y168299D02*
X146038D01*
X102000Y144899D02*
X145394D01*
X140884Y167399D02*
X145138D01*
X102000Y143999D02*
X144494D01*
X102000Y143099D02*
X143594D01*
X102000Y142199D02*
X142694D01*
X102000Y141299D02*
X141794D01*
X102000Y140399D02*
X140894D01*
X102000Y139499D02*
X139994D01*
X139303Y125999D02*
X139752D01*
X138403Y125099D02*
X139752D01*
X138248Y124199D02*
X139752D01*
X138081Y123299D02*
X139752D01*
X102000Y138599D02*
X139094D01*
X137585Y122399D02*
X138894D01*
X102000Y161999D02*
X138457D01*
X102000Y137699D02*
X138194D01*
X137661Y130499D02*
X138052D01*
X136616Y129599D02*
X138052D01*
X136406Y121499D02*
X137994D01*
X102000Y136799D02*
X137294D01*
X102000Y128699D02*
X137194D01*
X102000Y167399D02*
X137116D01*
X102000Y120599D02*
X137094D01*
X102000Y162899D02*
X136789D01*
X102000Y135899D02*
X136394D01*
X102000Y166499D02*
X136344D01*
X102000Y127799D02*
X136294D01*
X102000Y163799D02*
X136197D01*
X102000Y119699D02*
X136194D01*
X102000Y165599D02*
X136009D01*
X102000Y164699D02*
X135965D01*
X102000Y107999D02*
X134159D01*
X102000Y121499D02*
X133994D01*
X102000Y129599D02*
X133784D01*
X102000Y134999D02*
X133779D01*
X102000Y126899D02*
X133603D01*
X102000Y118799D02*
X133451D01*
X102000Y113399D02*
X133351D01*
X102000Y114299D02*
X132898D01*
X102000Y122399D02*
X132815D01*
X102000Y108899D02*
X132798D01*
X102000Y130499D02*
X132739D01*
X102000Y134099D02*
X132737D01*
X102000Y125999D02*
X132667D01*
X102000Y117899D02*
X132603D01*
X102000Y112499D02*
X132503D01*
X102000Y115199D02*
X132356D01*
X102000Y123299D02*
X132319D01*
X102000Y131399D02*
X132286D01*
X102000Y133199D02*
X132285D01*
X102000Y125099D02*
X132256D01*
X102000Y109799D02*
X132256D01*
X102000Y116999D02*
X132231D01*
X102000Y116099D02*
X132157D01*
X102000Y124199D02*
X132152D01*
X102000Y132299D02*
X132150D01*
X102000Y111599D02*
X132131D01*
X102000Y110699D02*
X132057D01*
X118975Y205199D02*
X128805D01*
X119124Y198899D02*
X128655D01*
X119974Y204299D02*
X127805D01*
X120047Y199799D02*
X127732D01*
X120489Y203399D02*
X127290D01*
X120527Y200699D02*
X127253D01*
X120726Y202499D02*
X127054D01*
X120738Y201599D02*
X127042D01*
X102000Y205199D02*
X115025D01*
X102000Y198899D02*
X114876D01*
X102000Y204299D02*
X114026D01*
X102000Y199799D02*
X113953D01*
X102000Y203399D02*
X113511D01*
X102000Y200699D02*
X113473D01*
X102000Y202499D02*
X113274D01*
X102000Y201599D02*
X113262D01*
X267900Y302300D02*
Y303500D01*
X264800Y305000D02*
X266000D01*
X267900Y307700D02*
Y306500D01*
X369372Y302200D02*
Y301000D01*
X371822Y300000D02*
X370622D01*
X369372Y297800D02*
Y299000D01*
X366922Y300000D02*
X368122D01*
X369372Y294200D02*
Y293000D01*
X371822Y292000D02*
X370622D01*
X369372Y289800D02*
Y291000D01*
X366922Y292000D02*
X368122D01*
X369372Y287200D02*
Y286000D01*
X371822Y285000D02*
X370622D01*
X369372Y282800D02*
Y284000D01*
X366922Y285000D02*
X368122D01*
X371126Y232800D02*
Y234000D01*
X368176Y235000D02*
X369376D01*
X371126Y237200D02*
Y236000D01*
X374076Y235000D02*
X372876D01*
X370126Y188800D02*
Y190000D01*
X367176Y191000D02*
X368376D01*
X370126Y193200D02*
Y192000D01*
X373076Y191000D02*
X371876D01*
X377700Y114900D02*
X376500D01*
X375000Y111800D02*
Y113000D01*
X372300Y114900D02*
X373500D01*
X370126Y132800D02*
Y134000D01*
X367176Y135000D02*
X368376D01*
X370126Y137200D02*
Y136000D01*
X373076Y135000D02*
X371876D01*
X372300Y178100D02*
X373500D01*
X375000Y181200D02*
Y180000D01*
X377700Y178100D02*
X376500D01*
X287100Y286700D02*
Y285500D01*
X290200Y284000D02*
X289000D01*
X287100Y281300D02*
Y282500D01*
X188100Y272700D02*
Y271500D01*
X191200Y270000D02*
X190000D01*
X188100Y267300D02*
Y268500D01*
X192300Y275500D02*
X193500D01*
X196000Y279700D02*
Y278500D01*
X199700Y275500D02*
X198500D01*
X196000Y271300D02*
Y272500D01*
X201921Y247977D02*
Y249177D01*
X198950Y250260D02*
X200150D01*
X204893D02*
X203693D01*
X198950Y254000D02*
X200150D01*
X204893D02*
X203693D01*
X208100Y244700D02*
Y243500D01*
X211200Y242000D02*
X210000D01*
X208100Y239300D02*
Y240500D01*
G54D20*
X219000Y127843D03*
X228843Y118000D03*
Y127843D03*
X239079Y118000D03*
Y127843D03*
X260000Y183000D03*
Y193000D03*
G54D21*
X268000Y131000D03*
Y113283D03*
X293591Y131000D03*
Y113283D03*
X167000Y284000D03*
X273000Y142961D03*
X283000Y153000D03*
Y142961D03*
X293000Y153000D03*
Y142961D03*
X303000Y153000D03*
Y142961D03*
G54D22*
X290000Y320000D03*
X282126D03*
X274252D03*
X387000Y121000D03*
Y128874D03*
Y136748D03*
Y144622D03*
Y171000D03*
Y178874D03*
Y186748D03*
Y194622D03*
X388000Y231000D03*
Y238874D03*
Y246748D03*
X387000Y277000D03*
Y284874D03*
Y292748D03*
Y300622D03*
Y308496D03*
G54D24*
X117000Y202000D03*
X130780D03*
G54D27*
X217000Y274000D03*
X233500D03*
X217000Y252300D03*
X233500D03*
X116000Y273000D03*
Y251300D03*
G54D28*
X225300Y302700D03*
G54D30*
X175000Y315000D03*
Y115000D03*
X325000D03*
Y315000D03*
G54D31*
X273000Y153000D02*
X249300Y176700D01*
Y187700*
X243950Y193050*
X367600Y181100D02*
X367575Y181075D01*
X359925Y188725*
X243900Y193000D02*
X243950Y193050D01*
X359900Y188700D02*
X359925Y188725D01*
X192079Y257740D02*
Y262079D01*
X196000Y266000*
Y266500*
X192079Y254000D02*
Y257740D01*
Y250260D02*
X188240D01*
X184100Y254400*
Y262000*
X177900D02*
X163472D01*
X155472Y270000*
X148945*
X203000Y262500D02*
X199500D01*
X196000Y266000*
Y266500*
X377100Y259100D02*
X365200Y271000D01*
X328000*
G54D32*
X146992Y273921D02*
X150898D01*
Y266079*
X146992*
Y273921*
Y268000D02*
X150898D01*
X146992Y270000D02*
X150898D01*
X146992Y272000D02*
X150898D01*
X148000Y266079D02*
Y273921D01*
X150000Y266079D02*
Y273921D01*
X165102D02*
X169008D01*
Y266079*
X165102*
Y273921*
Y268000D02*
X169008D01*
X165102Y270000D02*
X169008D01*
X165102Y272000D02*
X169008D01*
X166000Y266079D02*
Y273921D01*
X168000Y266079D02*
Y273921D01*
X148945Y268031D02*
Y270000D01*
G54D34*
X145720Y255114D02*
X170280D01*
Y230555*
X145720*
Y255114*
Y232000D02*
X170280D01*
X145720Y235000D02*
X170280D01*
X145720Y238000D02*
X170280D01*
X145720Y241000D02*
X170280D01*
X145720Y244000D02*
X170280D01*
X145720Y247000D02*
X170280D01*
X145720Y250000D02*
X170280D01*
X145720Y253000D02*
X170280D01*
X148000Y230555D02*
Y255114D01*
X151000Y230555D02*
Y255114D01*
X154000Y230555D02*
Y255114D01*
X157000Y230555D02*
Y255114D01*
X160000Y230555D02*
Y255114D01*
X163000Y230555D02*
Y255114D01*
X166000Y230555D02*
Y255114D01*
X169000Y230555D02*
Y255114D01*
X140062Y104100D03*
X150062D03*
X160062D03*
X170062D03*
X103600Y111731D03*
X135100Y110900D03*
X135200Y116300D03*
X103600Y121731D03*
X135200Y124300D03*
X103600Y131731D03*
X135200Y132300D03*
X159600Y134700D03*
X172200Y135300D03*
X103600Y141731D03*
X152200Y148300D03*
X162200D03*
X172200D03*
X316800Y147700D03*
X320200Y144400D03*
X325300Y146800D03*
X328900Y143900D03*
X103600Y151731D03*
X142391Y150245D03*
X364100Y151200D03*
X103600Y161731D03*
X139000Y165000D03*
X142100Y160241D03*
X275000Y166000D03*
X283000Y165000D03*
X292000D03*
X301000D03*
X310000Y166000D03*
X363900Y158900D03*
X103600Y171731D03*
X113149Y174700D03*
X123149D03*
X133149D03*
X142100Y170241D03*
X150100Y176300D03*
X181000Y178000D03*
X215000Y177000D03*
X226000D03*
X246629Y173800D03*
X275000Y177000D03*
X310298Y176684D03*
X326900Y177700D03*
X328900Y173500D03*
X333000Y172700D03*
X337200Y175200D03*
X344900Y172100D03*
X339200Y169000D03*
X362000Y172100D03*
X168000Y180000D03*
X192000Y179000D03*
Y187000D03*
X202000Y181000D03*
X215000Y186000D03*
X226000D03*
X221000Y181000D03*
X286904Y183566D03*
X298800Y183066D03*
X310298Y186684D03*
X327600Y183400D03*
X341419Y179003D03*
X349000Y179000D03*
X367600Y181100D03*
X177200Y189400D03*
X243900Y193000D03*
X252000Y194000D03*
X275000Y198000D03*
Y189000D03*
X284000Y198000D03*
X301000D03*
X310000D03*
X327100Y189200D03*
X325600Y196800D03*
X340700Y190854D03*
X359900Y188700D03*
X174432Y206100D03*
X184000Y206000D03*
X194378Y207143D03*
X310300Y204200D03*
X321600Y205300D03*
X340700Y200854D03*
X149600Y211300D03*
X179000Y210000D03*
X189000Y209000D03*
X267800Y209500D03*
X271600Y215100D03*
X287200Y216700D03*
X281370Y211190D03*
X297800Y214600D03*
X304200Y215500D03*
X322900Y210400D03*
X284500Y225700D03*
X307300Y219400D03*
X340700Y220854D03*
X354100Y224700D03*
X263500Y229500D03*
X264300Y236200D03*
X274200Y228500D03*
X270600Y234300D03*
X317900Y238300D03*
X340700Y230854D03*
X354000Y231500D03*
X248700Y245000D03*
X267900Y240400D03*
X267100Y246500D03*
X340700Y240854D03*
X279600Y258400D03*
X297800Y249300D03*
X323054Y257300D03*
X333054D03*
X340700Y250854D03*
X203000Y262500D03*
X231300Y262100D03*
X267200Y265800D03*
X290758Y266687D03*
X307633Y268100D03*
X367000Y263600D03*
X377100Y259100D03*
X287600Y270100D03*
X322000Y269000D03*
X328000Y271000D03*
X340700Y276600D03*
X363600Y278400D03*
X265500Y284500D03*
X275100Y284200D03*
X280900Y288300D03*
X267900Y292900D03*
X285500D03*
X342300Y291400D03*
X350700Y289000D03*
X363600Y289400D03*
X359400Y295900D03*
X293100Y303100D03*
G54D35*
X133438Y204658D02*
X132589Y203810D01*
X128121Y204658D02*
X128970Y203810D01*
X128121Y199342D02*
X128970Y200190D01*
X133438Y199342D02*
X132589Y200190D01*
X287064Y317064D02*
X287912Y317912D01*
X292936Y317064D02*
X292088Y317912D01*
X292936Y322936D02*
X292088Y322088D01*
X287064Y322936D02*
X287912Y322088D01*
X275970Y145931D02*
X275121Y145082D01*
X270030Y145931D02*
X270879Y145082D01*
X270030Y139991D02*
X270879Y140840D01*
X275970Y139991D02*
X275121Y140840D01*
X384064Y311433D02*
X384912Y310584D01*
X384064Y305560D02*
X384912Y306408D01*
X389936Y305560D02*
X389088Y306408D01*
X389936Y311433D02*
X389088Y310584D01*
X385064Y249684D02*
X385912Y248836D01*
X385064Y243812D02*
X385912Y244660D01*
X390936Y243812D02*
X390088Y244660D01*
X390936Y249684D02*
X390088Y248836D01*
X384064Y181810D02*
X384912Y180962D01*
X384064Y175938D02*
X384912Y176786D01*
X389936Y175938D02*
X389088Y176786D01*
X389936Y181810D02*
X389088Y180962D01*
X384064Y133812D02*
X384912Y134660D01*
X389936Y133812D02*
X389088Y134660D01*
X389936Y139684D02*
X389088Y138836D01*
X270970Y133970D02*
X270121Y133121D01*
X265030Y133970D02*
X265879Y133121D01*
X265030Y128030D02*
X265879Y128879D01*
X270970Y128030D02*
X270121Y128879D01*
X111793Y247093D02*
X112641Y247941D01*
X120207Y247093D02*
X119359Y247941D01*
X120207Y255507D02*
X119359Y254659D01*
X111793Y255507D02*
X112641Y254659D01*
X164030Y286970D02*
X164879Y286121D01*
X164030Y281030D02*
X164879Y281879D01*
X169970Y281030D02*
X169121Y281879D01*
X169970Y286970D02*
X169121Y286121D01*
X235932Y130989D02*
X236781Y130141D01*
X242225Y130989D02*
X241377Y130141D01*
G54D36*
X201921Y257740D03*
Y254000D03*
Y250260D03*
X192079D03*
Y254000D03*
Y257740D03*
G74*
X0Y0D02*
M02*
