*
*
G04 PADS 9.3.1 Build Number: 456998 generated Gerber (RS-274-X) file*
G04 PC Version=2.1*
*
%IN "bogiectl.pcb"*%
*
%MOIN*%
*
%FSLAX35Y35*%
*
*
*
*
G04 PC Standard Apertures*
*
*
G04 Thermal Relief Aperture macro.*
%AMTER*
1,1,$1,0,0*
1,0,$1-$2,0,0*
21,0,$3,$4,0,0,45*
21,0,$3,$4,0,0,135*
%
*
*
G04 Annular Aperture macro.*
%AMANN*
1,1,$1,0,0*
1,0,$2,0,0*
%
*
*
G04 Odd Aperture macro.*
%AMODD*
1,1,$1,0,0*
1,0,$1-0.005,0,0*
%
*
*
G04 PC Custom Aperture Macros*
*
*
*
*
*
*
G04 PC Aperture Table*
*
%ADD010C,0.001*%
%ADD019C,0.01*%
%ADD029C,0.00787*%
%ADD054C,0.01969*%
%ADD055C,0.00984*%
%ADD056C,0.01024*%
%ADD057C,0.00787*%
%ADD058C,0.005*%
%ADD059C,0.00591*%
*
*
*
*
G04 PC Circuitry*
G04 Layer Name bogiectl.pcb - circuitry*
%LPD*%
*
*
G04 PC Custom Flashes*
G04 Layer Name bogiectl.pcb - flashes*
%LPD*%
*
*
G04 PC Circuitry*
G04 Layer Name bogiectl.pcb - circuitry*
%LPD*%
*
G54D10*
G54D19*
G01X290450Y193500D02*
X294750D01*
Y180500*
X290450*
Y193500*
X296600Y193650D02*
Y180350D01*
X288600Y193650D02*
Y180350D01*
X296700Y187000D02*
X299200D01*
X286150Y187100D02*
X288600D01*
X176501Y207394D02*
G75*
G03X176501I-1414J0D01*
G01X268400Y274500D02*
G03X268400I-500J0D01*
G01X272000Y284300D02*
G03X272000I-1500J0D01*
G01X152000Y199000D02*
X158000D01*
X108432Y163725D02*
G03X108432I-500J0D01*
G01Y150725D02*
G03X108432I-500J0D01*
G01X104432Y106725D02*
G03X104432I-500J0D01*
G01X201390Y102764D02*
G03X201390I-500J0D01*
G01X265900Y180500D02*
G03X265900I-500J0D01*
G01X294043Y306614D02*
G03X294043I-500J0D01*
G01X176501Y174394D02*
G03X176501I-1414J0D01*
G01X152000Y165000D02*
X158000D01*
X374305Y118134D02*
G03X374305I-447J0D01*
G01Y168134D02*
G03X374305I-447J0D01*
G01X141016Y202000D02*
G03X141016I-16929J0D01*
G01X134291Y255268D02*
X145709D01*
X138500Y264126D02*
X141000D01*
X136063Y244638D02*
X134094D01*
Y261961*
X136063*
X144134D02*
X145709D01*
Y244638*
X143937*
X134291Y254283D02*
X145709D01*
X244000Y330000D02*
X206000D01*
Y280000*
X244000*
Y330000*
X375114Y227457D02*
G03X375114I-500J0D01*
G01X129485Y283683D02*
X135110D01*
X132298Y281638D02*
Y285729D01*
X104432Y122725D02*
G03X104432I-500J0D01*
G01Y130725D02*
G03X104432I-500J0D01*
G01Y114725D02*
G03X104432I-500J0D01*
G01X374305Y269409D02*
G03X374305I-447J0D01*
G01X126500Y329000D02*
X105500D01*
Y279000*
X126500*
Y329000*
X113500Y319900D02*
X118800D01*
X271728Y160283D02*
G03X271728I-500J0D01*
G01X113045Y148625D02*
Y143000D01*
X111000Y145813D02*
X115091D01*
X120091Y149563D02*
X117818D01*
X117818D02*
X117591Y146750D01*
X117818Y147063*
X117818D02*
X118500Y147375D01*
X119182*
X119864Y147063*
X119864D02*
X120318Y146438D01*
X120318D02*
X120545Y145500D01*
X120318Y144875*
X120091Y143938*
X120091D02*
X119636Y143313D01*
X119636D02*
X118955Y143000D01*
X118273*
X117591Y143313*
X117591D02*
X117364Y143625D01*
X117136Y144250*
X122591Y149563D02*
X124409Y143000D01*
X126227Y149563D02*
X124409Y143000D01*
X109745Y161125D02*
Y155500D01*
X107700Y158313D02*
X111791D01*
X114291Y162063D02*
X116791D01*
X116791D02*
X115427Y159563D01*
X115427D02*
X116109D01*
X116109D02*
X116564Y159250D01*
X116791Y158938*
X116791D02*
X117018Y158000D01*
Y157375*
X116791Y156438*
X116791D02*
X116336Y155813D01*
X116336D02*
X115655Y155500D01*
X114973*
X114291Y155813*
X114291D02*
X114064Y156125D01*
X113836Y156750*
X119291Y156125D02*
X119064Y155813D01*
X119064D02*
X119291Y155500D01*
X119518Y155813*
X119518D02*
X119291Y156125D01*
X122018Y162063D02*
X124518D01*
X124518D02*
X123155Y159563D01*
X123155D02*
X123836D01*
X123836D02*
X124291Y159250D01*
X124518Y158938*
X124518D02*
X124745Y158000D01*
Y157375*
X124518Y156438*
X124518D02*
X124064Y155813D01*
X124064D02*
X123382Y155500D01*
X122700*
X122018Y155813*
X122018D02*
X121791Y156125D01*
X121564Y156750*
X126791Y162063D02*
X128609Y155500D01*
X130427Y162063D02*
X128609Y155500D01*
X136400Y127963D02*
Y121400D01*
Y127963D02*
X139355D01*
X136400Y124838D02*
X138218D01*
X143218Y127963D02*
X141400Y121400D01*
X143218Y127963D02*
X145036Y121400D01*
X142082Y123588D02*
X144355D01*
X147082Y127963D02*
Y123275D01*
X147309Y122338*
X147309D02*
X147764Y121713D01*
X147764D02*
X148445Y121400D01*
X148900*
X149582Y121713*
X149582D02*
X150036Y122338D01*
X150036D02*
X150264Y123275D01*
Y127963*
X152309D02*
Y121400D01*
X155036*
X158673Y127963D02*
Y121400D01*
X157082Y127963D02*
X160264D01*
X136200Y135963D02*
Y129400D01*
Y135963D02*
X138245D01*
X138245D02*
X138927Y135650D01*
X139155Y135338*
X139155D02*
X139382Y134713D01*
X139382D02*
Y134088D01*
X139382D02*
X139155Y133463D01*
X139155D02*
X138927Y133150D01*
X138245Y132838*
X136200D02*
X138245D01*
X138245D02*
X138927Y132525D01*
X139155Y132213*
X139155D02*
X139382Y131588D01*
X139382D02*
Y130650D01*
X139155Y130025*
X138927Y129713*
X138927D02*
X138245Y129400D01*
X136200*
X141427Y135963D02*
Y131275D01*
X141655Y130338*
X141655D02*
X142109Y129713D01*
X142109D02*
X142791Y129400D01*
X143245*
X143927Y129713*
X143927D02*
X144382Y130338D01*
X144382D02*
X144609Y131275D01*
Y135963*
X149836Y135025D02*
X149382Y135650D01*
X148700Y135963*
X148700D02*
X147791D01*
X147791D02*
X147109Y135650D01*
X146655Y135025*
Y134400*
X146882Y133775*
X147109Y133463*
X147109D02*
X147564Y133150D01*
X148927Y132525*
X149382Y132213*
X149382D02*
X149609Y131900D01*
X149836Y131275*
Y130338*
X149836D02*
X149382Y129713D01*
X149382D02*
X148700Y129400D01*
X147791*
X147109Y129713*
X147109D02*
X146655Y130338D01*
X136600Y120363D02*
Y113800D01*
Y120363D02*
X139555D01*
X136600Y117238D02*
X138418D01*
X136600Y113800D02*
X139555D01*
X141600Y120363D02*
Y113800D01*
Y120363D02*
X144782Y113800D01*
Y120363D02*
Y113800D01*
X150236Y118800D02*
X150009Y119425D01*
X149555Y120050*
X149100Y120363*
X149100D02*
X148191D01*
X148191D02*
X147736Y120050D01*
X147282Y119425*
X147055Y118800*
X146827Y117863*
X146827D02*
Y116300D01*
X147055Y115363*
X147055D02*
X147282Y114738D01*
X147282D02*
X147736Y114113D01*
X147736D02*
X148191Y113800D01*
X149100*
X149555Y114113*
X149555D02*
X150009Y114738D01*
X150009D02*
X150236Y115363D01*
X153645Y120363D02*
X152964Y120050D01*
X152509Y119113*
X152509D02*
X152282Y117550D01*
Y116613*
X152282D02*
X152509Y115050D01*
X152964Y114113*
X152964D02*
X153645Y113800D01*
X154100*
X154782Y114113*
X154782D02*
X155236Y115050D01*
X155464Y116613*
X155464D02*
Y117550D01*
X155236Y119113*
X155236D02*
X154782Y120050D01*
X154100Y120363*
X154100D02*
X153645D01*
X136500Y112663D02*
Y106100D01*
Y112663D02*
X139455D01*
X136500Y109538D02*
X138318D01*
X136500Y106100D02*
X139455D01*
X141500Y112663D02*
Y106100D01*
Y112663D02*
X144682Y106100D01*
Y112663D02*
Y106100D01*
X150136Y111100D02*
X149909Y111725D01*
X149455Y112350*
X149000Y112663*
X149000D02*
X148091D01*
X148091D02*
X147636Y112350D01*
X147182Y111725*
X146955Y111100*
X146727Y110163*
X146727D02*
Y108600D01*
X146955Y107663*
X146955D02*
X147182Y107038D01*
X147182D02*
X147636Y106413D01*
X147636D02*
X148091Y106100D01*
X149000*
X149455Y106413*
X149455D02*
X149909Y107038D01*
X149909D02*
X150136Y107663D01*
X152182Y111413D02*
X152636Y111725D01*
X153318Y112663*
X153318D02*
Y106100D01*
X223000Y149063D02*
Y142500D01*
Y149063D02*
X225045D01*
X225045D02*
X225727Y148750D01*
X225955Y148438*
X225955D02*
X226182Y147813D01*
X226182D02*
Y146875D01*
X225955Y146250*
X225727Y145938*
X225727D02*
X225045Y145625D01*
X223000*
X228227Y149063D02*
Y142500D01*
Y149063D02*
X229818D01*
X229818D02*
X230500Y148750D01*
X230955Y148125*
X231182Y147500*
X231409Y146563*
X231409D02*
Y145000D01*
X231182Y144063*
X231182D02*
X230955Y143438D01*
X230955D02*
X230500Y142813D01*
X230500D02*
X229818Y142500D01*
X228227*
X233455Y149063D02*
Y142500D01*
X304263Y128000D02*
X297700D01*
X304263D02*
Y125955D01*
X304263D02*
X303950Y125273D01*
X303638Y125045*
X303638D02*
X303013Y124818D01*
X303013D02*
X302388D01*
X302388D02*
X301763Y125045D01*
X301763D02*
X301450Y125273D01*
X301138Y125955*
X301138D02*
Y128000D01*
Y126409D02*
X297700Y124818D01*
X303325Y119591D02*
X303950Y120045D01*
X304263Y120727*
X304263D02*
Y121636D01*
X304263D02*
X303950Y122318D01*
X303325Y122773*
X302700*
X302075Y122545*
X301763Y122318*
X301763D02*
X301450Y121864D01*
X300825Y120500*
X300513Y120045*
X300513D02*
X300200Y119818D01*
X299575Y119591*
X298638*
X298638D02*
X298013Y120045D01*
X298013D02*
X297700Y120727D01*
Y121636*
X298013Y122318*
X298013D02*
X298638Y122773D01*
X304263Y115955D02*
X297700D01*
X304263Y117545D02*
Y114364D01*
X334418Y131163D02*
X332600Y124600D01*
X334418Y131163D02*
X336236Y124600D01*
X333282Y126788D02*
X335555D01*
X341691Y129600D02*
X341464Y130225D01*
X341009Y130850*
X340555Y131163*
X340555D02*
X339645D01*
X339645D02*
X339191Y130850D01*
X338736Y130225*
X338509Y129600*
X338282Y128663*
X338282D02*
Y127100D01*
X338509Y126163*
X338509D02*
X338736Y125538D01*
X338736D02*
X339191Y124913D01*
X339191D02*
X339645Y124600D01*
X340555*
X341009Y124913*
X341009D02*
X341464Y125538D01*
X341464D02*
X341691Y126163D01*
X345327Y131163D02*
Y124600D01*
X343736Y131163D02*
X346918D01*
X348964Y123350D02*
X353736D01*
X355100Y131163D02*
Y124600D01*
Y131163D02*
X358055D01*
X355100Y128038D02*
X356918D01*
X355100Y124600D02*
X358055D01*
X360100Y131163D02*
Y124600D01*
Y131163D02*
X363282Y124600D01*
Y131163D02*
Y124600D01*
X368736Y129600D02*
X368509Y130225D01*
X368055Y130850*
X367600Y131163*
X367600D02*
X366691D01*
X366691D02*
X366236Y130850D01*
X365782Y130225*
X365555Y129600*
X365327Y128663*
X365327D02*
Y127100D01*
X365555Y126163*
X365555D02*
X365782Y125538D01*
X365782D02*
X366236Y124913D01*
X366236D02*
X366691Y124600D01*
X367600*
X368055Y124913*
X368055D02*
X368509Y125538D01*
X368509D02*
X368736Y126163D01*
X337900Y188863D02*
Y182300D01*
Y188863D02*
X339491D01*
X339491D02*
X340173Y188550D01*
X340627Y187925*
X340855Y187300*
X341082Y186363*
X341082D02*
Y184800D01*
X340855Y183863*
X340855D02*
X340627Y183238D01*
X340627D02*
X340173Y182613D01*
X340173D02*
X339491Y182300D01*
X337900*
X343127Y188863D02*
Y182300D01*
Y188863D02*
X345173D01*
X345173D02*
X345855Y188550D01*
X346082Y188238*
X346082D02*
X346309Y187613D01*
X346309D02*
Y186988D01*
X346309D02*
X346082Y186363D01*
X346082D02*
X345855Y186050D01*
X345173Y185738*
X345173D02*
X343127D01*
X344718D02*
X346309Y182300D01*
X348355Y188863D02*
X350173Y182300D01*
X351991Y188863D02*
X350173Y182300D01*
X354036Y181050D02*
X358809D01*
X360173Y188863D02*
Y182300D01*
Y188863D02*
X363127D01*
X360173Y185738D02*
X361991D01*
X360173Y182300D02*
X363127D01*
X365173Y188863D02*
Y182300D01*
Y188863D02*
X368355Y182300D01*
Y188863D02*
Y182300D01*
X373809Y187300D02*
X373582Y187925D01*
X373127Y188550*
X372673Y188863*
X372673D02*
X371764D01*
X371764D02*
X371309Y188550D01*
X370855Y187925*
X370627Y187300*
X370400Y186363*
X370400D02*
Y184800D01*
X370627Y183863*
X370627D02*
X370855Y183238D01*
X370855D02*
X371309Y182613D01*
X371309D02*
X371764Y182300D01*
X372673*
X373127Y182613*
X373127D02*
X373582Y183238D01*
X373582D02*
X373809Y183863D01*
X346000Y305563D02*
Y299000D01*
Y305563D02*
X347818Y299000D01*
X349636Y305563D02*
X347818Y299000D01*
X349636Y305563D02*
Y299000D01*
X353045Y305563D02*
X352591Y305250D01*
X352136Y304625*
X351909Y304000*
X351682Y303063*
X351682D02*
Y301500D01*
X351909Y300563*
X351909D02*
X352136Y299938D01*
X352136D02*
X352591Y299313D01*
X352591D02*
X353045Y299000D01*
X353955*
X354409Y299313*
X354409D02*
X354864Y299938D01*
X354864D02*
X355091Y300563D01*
X355091D02*
X355318Y301500D01*
Y303063*
X355318D02*
X355091Y304000D01*
X354864Y304625*
X354409Y305250*
X353955Y305563*
X353955D02*
X353045D01*
X358955D02*
Y299000D01*
X357364Y305563D02*
X360545D01*
X363955D02*
X363500Y305250D01*
X363045Y304625*
X362818Y304000*
X362591Y303063*
X362591D02*
Y301500D01*
X362818Y300563*
X362818D02*
X363045Y299938D01*
X363045D02*
X363500Y299313D01*
X363500D02*
X363955Y299000D01*
X364864*
X365318Y299313*
X365318D02*
X365773Y299938D01*
X365773D02*
X366000Y300563D01*
X366000D02*
X366227Y301500D01*
Y303063*
X366227D02*
X366000Y304000D01*
X365773Y304625*
X365318Y305250*
X364864Y305563*
X364864D02*
X363955D01*
X368273D02*
Y299000D01*
Y305563D02*
X370318D01*
X370318D02*
X371000Y305250D01*
X371227Y304938*
X371227D02*
X371455Y304313D01*
X371455D02*
Y303688D01*
X371455D02*
X371227Y303063D01*
X371227D02*
X371000Y302750D01*
X370318Y302438*
X370318D02*
X368273D01*
X369864D02*
X371455Y299000D01*
X351000Y240563D02*
Y234000D01*
X353727*
X355773Y240563D02*
Y234000D01*
X357818Y240563D02*
Y234000D01*
Y240563D02*
X359636Y234000D01*
X361455Y240563D02*
X359636Y234000D01*
X361455Y240563D02*
Y234000D01*
X366682Y239625D02*
X366227Y240250D01*
X365545Y240563*
X365545D02*
X364636D01*
X364636D02*
X363955Y240250D01*
X363500Y239625*
Y239000*
X363727Y238375*
X363955Y238063*
X363955D02*
X364409Y237750D01*
X365773Y237125*
X366227Y236813*
X366227D02*
X366455Y236500D01*
X366682Y235875*
Y234938*
X366682D02*
X366227Y234313D01*
X366227D02*
X365545Y234000D01*
X364636*
X363955Y234313*
X363955D02*
X363500Y234938D01*
X368727Y240563D02*
X369864Y234000D01*
X371000Y240563D02*
X369864Y234000D01*
X371000Y240563D02*
X372136Y234000D01*
X373273Y240563D02*
X372136Y234000D01*
X306563Y306000D02*
X300000D01*
X306563D02*
Y303955D01*
X306563D02*
X306250Y303273D01*
X305938Y303045*
X305938D02*
X305313Y302818D01*
X305313D02*
X304688D01*
X304688D02*
X304063Y303045D01*
X304063D02*
X303750Y303273D01*
X303438Y303955*
Y306000D02*
Y303955D01*
X303438D02*
X303125Y303273D01*
X302813Y303045*
X302813D02*
X302188Y302818D01*
X302188D02*
X301250D01*
X300625Y303045*
X300313Y303273*
X300313D02*
X300000Y303955D01*
Y306000*
X306563Y300773D02*
X301875D01*
X300938Y300545*
X300938D02*
X300313Y300091D01*
X300313D02*
X300000Y299409D01*
Y298955*
X300313Y298273*
X300313D02*
X300938Y297818D01*
X300938D02*
X301875Y297591D01*
X306563*
X305625Y292364D02*
X306250Y292818D01*
X306563Y293500*
X306563D02*
Y294409D01*
X306563D02*
X306250Y295091D01*
X305625Y295545*
X305000*
X304375Y295318*
X304063Y295091*
X304063D02*
X303750Y294636D01*
X303125Y293273*
X302813Y292818*
X302813D02*
X302500Y292591D01*
X301875Y292364*
X300938*
X300938D02*
X300313Y292818D01*
X300313D02*
X300000Y293500D01*
Y294409*
X300313Y295091*
X300313D02*
X300938Y295545D01*
X262563Y177000D02*
X256000D01*
X262563D02*
Y174955D01*
X262563D02*
X262250Y174273D01*
X261938Y174045*
X261938D02*
X261313Y173818D01*
X261313D02*
X260375D01*
X259750Y174045*
X259438Y174273*
X259438D02*
X259125Y174955D01*
Y177000*
X262563Y171773D02*
X256000D01*
X262563D02*
Y169727D01*
X262563D02*
X262250Y169045D01*
X261938Y168818*
X261938D02*
X261313Y168591D01*
X261313D02*
X260688D01*
X260688D02*
X260063Y168818D01*
X260063D02*
X259750Y169045D01*
X259438Y169727*
X259438D02*
Y171773D01*
Y170182D02*
X256000Y168591D01*
X261000Y163136D02*
X261625Y163364D01*
X262250Y163818*
X262563Y164273*
X262563D02*
Y165182D01*
X262563D02*
X262250Y165636D01*
X261625Y166091*
X261000Y166318*
X260063Y166545*
X260063D02*
X258500D01*
X257563Y166318*
X257563D02*
X256938Y166091D01*
X256938D02*
X256313Y165636D01*
X256313D02*
X256000Y165182D01*
Y164273*
X256313Y163818*
X256313D02*
X256938Y163364D01*
X256938D02*
X257563Y163136D01*
X257563D02*
X258500D01*
Y164273D02*
Y163136D01*
X137025Y321318D02*
X137650Y321773D01*
X137963Y322455*
X137963D02*
Y323364D01*
X137963D02*
X137650Y324045D01*
X137025Y324500*
X136400*
X135775Y324273*
X135463Y324045*
X135463D02*
X135150Y323591D01*
X134525Y322227*
X134213Y321773*
X134213D02*
X133900Y321545D01*
X133275Y321318*
X132338*
X132338D02*
X131713Y321773D01*
X131713D02*
X131400Y322455D01*
Y323364*
X131713Y324045*
X131713D02*
X132338Y324500D01*
X137963Y317909D02*
X137650Y318364D01*
X137025Y318818*
X136400Y319045*
X135463Y319273*
X135463D02*
X133900D01*
X132963Y319045*
X132963D02*
X132338Y318818D01*
X132338D02*
X131713Y318364D01*
X131713D02*
X131400Y317909D01*
Y317000*
X131713Y316545*
X131713D02*
X132338Y316091D01*
X132338D02*
X132963Y315864D01*
X132963D02*
X133900Y315636D01*
X135463*
X135463D02*
X136400Y315864D01*
X137025Y316091*
X137650Y316545*
X137963Y317000*
X137963D02*
Y317909D01*
Y313591D02*
X131400D01*
Y310864*
X132025Y308591D02*
X131713Y308818D01*
X131713D02*
X131400Y308591D01*
X131713Y308364*
X131713D02*
X132025Y308591D01*
X254063Y311900D02*
X247500D01*
X254063D02*
Y309855D01*
X254063D02*
X253750Y309173D01*
X253438Y308945*
X253438D02*
X252813Y308718D01*
X252813D02*
X251875D01*
X251250Y308945*
X250938Y309173*
X250938D02*
X250625Y309855D01*
Y311900*
X254063Y306673D02*
X247500Y305536D01*
X254063Y304400D02*
X247500Y305536D01*
X254063Y304400D02*
X247500Y303264D01*
X254063Y302127D02*
X247500Y303264D01*
X254063Y300082D02*
X247500D01*
X254063D02*
Y298036D01*
X254063D02*
X253750Y297355D01*
X253438Y297127*
X253438D02*
X252813Y296900D01*
X252813D02*
X252188D01*
X252188D02*
X251563Y297127D01*
X251563D02*
X251250Y297355D01*
X250938Y298036*
X250938D02*
Y300082D01*
Y298491D02*
X247500Y296900D01*
G54D29*
X278500Y177300D02*
X307000D01*
X307009D02*
G03X306991Y197300I70J10000D01*
G01X307000D02*
X278500D01*
G03Y177300I262J-10000*
G01X171937Y210937D02*
Y184559D01*
X186504*
Y210937*
X171937*
X299039Y174496D02*
Y171465D01*
X285961Y171504D02*
Y174535D01*
X334496Y239961D02*
X331465D01*
X302061Y202504D02*
Y205535D01*
X267504Y224039D02*
X270535D01*
X203496Y188961D02*
X200465D01*
X212000Y190000D02*
X206000D01*
X319504Y250504D02*
Y213496D01*
X282496*
Y250504*
X319504*
X268000Y281858D02*
Y287232D01*
X269250*
Y288768*
X268000*
Y294142*
X288000*
Y281858*
X268000*
X116161Y163804D02*
Y166835D01*
X130961Y163504D02*
Y166535D01*
Y150504D02*
Y153535D01*
X125161Y106804D02*
Y109835D01*
X116161Y150804D02*
Y153835D01*
X112161Y106804D02*
Y109835D01*
X262504Y296039D02*
X265535D01*
X262700Y178900D02*
X263700Y179900D01*
Y196000*
X262700Y197000*
X257150*
X256150Y196000*
Y179900*
X257150Y178900*
X262700*
X250504Y186039D02*
X253535D01*
X264200Y214000D02*
X258200D01*
X249200D02*
X255200D01*
X171937Y177937D02*
Y151559D01*
X186504*
Y177937*
X171937*
X206000Y172000D02*
X212000D01*
X200504Y172039D02*
X203535D01*
X136685Y190976D02*
Y213417D01*
X137079Y191764D02*
Y212236D01*
X137866Y192551D02*
Y211449D01*
X138654Y193732D02*
Y210268D01*
X139441Y195307D02*
Y208693D01*
X139835Y197276D02*
Y206331D01*
X140228Y198850D02*
Y204756D01*
X360496Y247961D02*
X357465D01*
X344157Y162480D02*
Y147520D01*
X363843*
Y162480*
X344157*
X366504Y162039D02*
X369535D01*
X366504Y148039D02*
X369535D01*
X354480Y292843D02*
X339520D01*
Y273157*
X354480*
Y292843*
X365504Y271039D02*
X368535D01*
X324961Y273504D02*
Y276535D01*
X366496Y247961D02*
X363465D01*
X176843Y284000D02*
G03X176843I-19686J0D01*
G01X173693Y273370D02*
Y294236D01*
X174087Y293449D02*
Y274551D01*
X174480Y292661D02*
Y275732D01*
X174874Y291480D02*
Y276520D01*
X175268Y290693D02*
Y277307D01*
X175661Y289512D02*
Y278488D01*
X176055Y288331D02*
Y280063D01*
X173299Y294630D02*
Y273370D01*
X171724Y296598D02*
Y271008D01*
X172118Y296205D02*
Y271795D01*
X172512Y295811D02*
Y272189D01*
X172906Y295417D02*
Y272583D01*
X170937Y270220D02*
Y297780D01*
X171331Y270614D02*
Y296992D01*
X112161Y122804D02*
Y125835D01*
X126161Y122804D02*
Y125835D01*
X112161Y130804D02*
Y133835D01*
X126161Y130804D02*
Y133835D01*
X112161Y114804D02*
Y117835D01*
X126161Y114804D02*
Y117835D01*
X298539Y266296D02*
Y263265D01*
G54D54*
X316945Y217039D02*
G03X316945I-984J0D01*
G01X360890Y158543D02*
G03X360890I-984J0D01*
G01X351528Y277094D02*
G03X351528I-985J0D01*
G54D55*
G01X325114Y213102D02*
G03X325114I-492J0D01*
G01X366303Y167598D02*
G03X366303I-492J0D01*
G01X360091Y271189D02*
G03X360091I-493J0D01*
G01X268866Y157528D02*
X306858D01*
Y139220*
X268866*
Y157528*
G54D56*
X111476Y167662D02*
X109901D01*
Y162938*
X111476*
Y154662D02*
X109901D01*
Y149938*
X111476*
X107476Y110662D02*
X105901D01*
Y105938*
X107476*
Y126662D02*
X105901D01*
Y121938*
X107476*
Y134662D02*
X105901D01*
Y129938*
X107476*
Y118662D02*
X105901D01*
Y113938*
X107476*
G54D57*
X222150Y105283D02*
X198803D01*
Y140047*
X258646*
Y105205*
X235732*
X269181Y110134D02*
X292803D01*
Y133756*
X269181*
Y110134*
X288866Y129819D02*
X273512D01*
X281386Y129425D02*
Y124307D01*
X277055Y119976*
X288866Y112496D02*
X273512D01*
X281386D02*
Y118795D01*
X301220Y330039D02*
X263031D01*
Y320000*
X267756Y316063*
Y308386*
X296496*
Y316063*
X301220Y320000*
Y330039*
X289213D02*
X275827D01*
Y327283*
X289213*
Y330039*
X397039Y112535D02*
Y153087D01*
X375386*
Y112535*
X397039*
Y121000D02*
Y144622D01*
X394283*
Y121000*
X397039*
Y162535D02*
Y203087D01*
X375386*
Y162535*
X397039*
Y171000D02*
Y194622D01*
X394283*
Y171000*
X397039*
X398039Y219780D02*
Y257969D01*
X388000*
X384063Y253244*
X376386*
Y224504*
X384063*
X388000Y219780*
X398039*
Y231787D02*
Y245173D01*
X395283*
Y231787*
X398039*
X397039Y268535D02*
Y316961D01*
X375386*
Y268535*
X397039*
Y277394D02*
Y308890D01*
X394283*
Y277394*
X397039*
G54D58*
X104243Y203631D02*
Y200819D01*
X103220Y202225D02*
X105266D01*
X184667Y195976D02*
X182323D01*
X181855Y195863*
X181542Y195635*
X181386Y195295*
Y195067*
X181542Y194726*
X181855Y194499*
X182323Y194385*
X184667*
X184042Y193363D02*
X184198Y193135D01*
X184667Y192795*
X181386*
X184667Y191090D02*
X184511Y191431D01*
X184042Y191658*
X183261Y191772*
X182792*
X182011Y191658*
X181542Y191431*
X181386Y191090*
Y190863*
X181542Y190522*
X182011Y190295*
X182792Y190181*
X183261*
X184042Y190295*
X184511Y190522*
X184667Y190863*
Y191090*
Y188476D02*
X184511Y188817D01*
X184042Y189045*
X183261Y189158*
X182792*
X182011Y189045*
X181542Y188817*
X181386Y188476*
Y188249*
X181542Y187908*
X182011Y187681*
X182792Y187567*
X183261*
X184042Y187681*
X184511Y187908*
X184667Y188249*
Y188476*
Y162976D02*
X182323D01*
X181855Y162863*
X181542Y162635*
X181386Y162295*
Y162067*
X181542Y161726*
X181855Y161499*
X182323Y161385*
X184667*
X184042Y160363D02*
X184198Y160135D01*
X184667Y159795*
X181386*
X184667Y158090D02*
X184511Y158431D01*
X184042Y158658*
X183261Y158772*
X182792*
X182011Y158658*
X181542Y158431*
X181386Y158090*
Y157863*
X181542Y157522*
X182011Y157295*
X182792Y157181*
X183261*
X184042Y157295*
X184511Y157522*
X184667Y157863*
Y158090*
X184042Y156158D02*
X184198Y155931D01*
X184667Y155590*
X181386*
X311281Y155864D02*
X308781D01*
X308313Y155977*
X308313D02*
X308156Y156091D01*
X308000Y156318*
Y156545*
X308156Y156773*
X308313Y156886*
X308313D02*
X308781Y157000D01*
X309094*
X310500Y154727D02*
X310656D01*
X310969Y154614*
X311125Y154500*
X311281Y154273*
Y153818*
X311125Y153591*
X310969Y153477*
X310656Y153364*
X310344*
X310031Y153477*
X309563Y153705*
X309563D02*
X308000Y154841D01*
Y153250*
X311281Y151545D02*
X311125Y151886D01*
X310656Y152114*
X309875Y152227*
X309406*
X308625Y152114*
X308156Y151886*
X308000Y151545*
Y151318*
X308156Y150977*
X308625Y150750*
X309406Y150636*
X309875*
X310656Y150750*
X311125Y150977*
X311281Y151318*
Y151545*
Y148136D02*
Y149273D01*
X309875Y149386*
X310031Y149273*
X310188Y148932*
X310188D02*
Y148591D01*
X310188D02*
X310031Y148250D01*
X309719Y148023*
X309250Y147909*
X308938Y148023*
X308938D02*
X308469Y148136D01*
X308156Y148364*
X308000Y148705*
Y149045*
X308156Y149386*
X308313Y149500*
X308313D02*
X308625Y149614D01*
G54D59*
X295470Y233569D02*
Y230800D01*
X295605Y230247*
X295873Y229878*
X296276Y229693*
X296544*
X296947Y229878*
X297215Y230247*
X297349Y230800*
Y233569*
X298557Y232830D02*
X298826Y233015D01*
X299228Y233569*
Y229693*
X301242Y233569D02*
X300839Y233384D01*
X300571Y232830*
X300436Y231908*
Y231354*
X300571Y230431*
X300839Y229878*
X301242Y229693*
X301510*
X301913Y229878*
X302181Y230431*
X302315Y231354*
Y231908*
X302181Y232830*
X301913Y233384*
X301510Y233569*
X301242*
X303657Y232646D02*
Y232830D01*
X303792Y233200*
X303926Y233384*
X304194Y233569*
X304731*
X305000Y233384*
X305134Y233200*
X305268Y232830*
Y232461*
X305134Y232092*
X304865Y231539*
X303523Y229693*
X305402*
X347866Y156569D02*
Y153800D01*
X348001Y153247*
X348269Y152878*
X348672Y152693*
X348940*
X349343Y152878*
X349611Y153247*
X349745Y153800*
Y156569*
X351088Y155646D02*
Y155830D01*
X351222Y156200*
X351356Y156384*
X351624Y156569*
X352161*
X352430Y156384*
X352564Y156200*
X352698Y155830*
Y155461*
X352564Y155092*
X352295Y154539*
X350953Y152693*
X352832*
X354846Y156569D02*
X354443Y156384D01*
X354174Y155830*
X354040Y154908*
Y154354*
X354174Y153431*
X354443Y152878*
X354846Y152693*
X355114*
X355517Y152878*
X355785Y153431*
X355919Y154354*
Y154908*
X355785Y155830*
X355517Y156384*
X355114Y156569*
X354846*
X357933D02*
X357530Y156384D01*
X357261Y155830*
X357127Y154908*
Y154354*
X357261Y153431*
X357530Y152878*
X357933Y152693*
X358201*
X358604Y152878*
X358872Y153431*
X359006Y154354*
Y154908*
X358872Y155830*
X358604Y156384*
X358201Y156569*
X357933*
X345431Y277470D02*
X348200D01*
X348753Y277605*
X349122Y277873*
X349307Y278276*
Y278544*
X349122Y278947*
X348753Y279215*
X348200Y279349*
X345431*
X346354Y280691D02*
X346170D01*
X345800Y280826*
X345616Y280960*
X345431Y281228*
Y281765*
X345616Y282034*
X345800Y282168*
X346170Y282302*
X346539*
X346908Y282168*
X347461Y281899*
X349307Y280557*
Y282436*
X345431Y284450D02*
X345616Y284047D01*
X346170Y283778*
X347092Y283644*
X347646*
X348569Y283778*
X349122Y284047*
X349307Y284450*
Y284718*
X349122Y285121*
X348569Y285389*
X347646Y285523*
X347092*
X346170Y285389*
X345616Y285121*
X345431Y284718*
Y284450*
X346170Y286731D02*
X345985Y287000D01*
X345431Y287402*
X349307*
X285337Y233569D02*
X284263Y229693D01*
X285337Y233569D02*
X286411Y229693D01*
X284666Y230985D02*
X286008D01*
X288558Y233569D02*
Y229693D01*
X287619Y233569D02*
X289498D01*
X290706D02*
X292585Y229693D01*
Y233569D02*
X290706Y229693D01*
X293793Y233569D02*
Y229693D01*
Y233569D02*
X294866Y229693D01*
X295940Y233569D02*
X294866Y229693D01*
X295940Y233569D02*
Y229693D01*
X297148Y233569D02*
Y229693D01*
Y233569D02*
X298893D01*
X297148Y231723D02*
X298222D01*
X297148Y229693D02*
X298893D01*
X302114Y232646D02*
X301980Y233015D01*
X301711Y233384*
X301443Y233569*
X300906*
X300638Y233384*
X300369Y233015*
X300235Y232646*
X300101Y232092*
Y231170*
X300235Y230616*
X300369Y230247*
X300638Y229878*
X300906Y229693*
X301443*
X301711Y229878*
X301980Y230247*
X302114Y230616*
Y231170*
X301443D02*
X302114D01*
X304396Y233569D02*
X303322Y229693D01*
X304396Y233569D02*
X305469Y229693D01*
X303725Y230985D02*
X305067D01*
X306677Y232830D02*
X306946Y233015D01*
X307348Y233569*
Y229693*
X310167Y233015D02*
X310033Y233384D01*
X309630Y233569*
X309362*
X308959Y233384*
X308691Y232830*
X308556Y231908*
Y230985*
X308691Y230247*
X308959Y229878*
X309362Y229693*
X309496*
X309899Y229878*
X310167Y230247*
X310301Y230800*
Y230985*
X310167Y231539*
X309899Y231908*
X309496Y232092*
X309362*
X308959Y231908*
X308691Y231539*
X308556Y230985*
X311509Y233569D02*
Y229693D01*
Y233569D02*
X312449D01*
X312851Y233384*
X313120Y233015*
X313254Y232646*
X313388Y232092*
Y231170*
X313254Y230616*
X313120Y230247*
X312851Y229878*
X312449Y229693*
X311509*
X315938Y233569D02*
X314596Y230985D01*
X316609*
X315938Y233569D02*
Y229693D01*
X340753Y155646D02*
X340619Y156015D01*
X340350Y156384*
X340082Y156569*
X339545*
X339276Y156384*
X339008Y156015*
X338874Y155646*
X338740Y155092*
Y154170*
X338874Y153616*
X339008Y153247*
X339276Y152878*
X339545Y152693*
X340082*
X340350Y152878*
X340619Y153247*
X340753Y153616*
X341961Y156569D02*
Y152693D01*
Y156569D02*
X342900D01*
X343303Y156384*
X343571Y156015*
X343706Y155646*
X343840Y155092*
Y154170*
X343706Y153616*
X343571Y153247*
X343303Y152878*
X342900Y152693*
X341961*
X346390Y156569D02*
X345048Y153985D01*
X347061*
X346390Y156569D02*
Y152693D01*
X349074Y156569D02*
X348672Y156384D01*
X348403Y155830*
X348269Y154908*
Y154354*
X348403Y153431*
X348672Y152878*
X349074Y152693*
X349343*
X349745Y152878*
X350014Y153431*
X350148Y154354*
Y154908*
X350014Y155830*
X349745Y156384*
X349343Y156569*
X349074*
X351356Y155830D02*
X351624Y156015D01*
X352027Y156569*
Y152693*
X354040Y156569D02*
X353638Y156384D01*
X353369Y155830*
X353235Y154908*
Y154354*
X353369Y153431*
X353638Y152878*
X354040Y152693*
X354309*
X354711Y152878*
X354980Y153431*
X355114Y154354*
Y154908*
X354980Y155830*
X354711Y156384*
X354309Y156569*
X354040*
X358067Y155277D02*
X357933Y154723D01*
X357664Y154354*
X357261Y154170*
X357127*
X356725Y154354*
X356456Y154723*
X356322Y155277*
Y155461*
X356456Y156015*
X356725Y156384*
X357127Y156569*
X357261*
X357664Y156384*
X357933Y156015*
X358067Y155277*
Y154354*
X357933Y153431*
X357664Y152878*
X357261Y152693*
X356993*
X356590Y152878*
X356456Y153247*
X359275Y156569D02*
Y152693D01*
Y156569D02*
X360483D01*
X360885Y156384*
X361020Y156200*
X361154Y155830*
Y155461*
X361020Y155092*
X360885Y154908*
X360483Y154723*
X359275D02*
X360483D01*
X360885Y154539*
X361020Y154354*
X361154Y153985*
Y153431*
X361020Y153062*
X360885Y152878*
X360483Y152693*
X359275*
X362362Y156569D02*
Y152693D01*
Y156569D02*
X363570D01*
X363972Y156384*
X364106Y156200*
X364241Y155830*
Y155277*
X364106Y154908*
X363972Y154723*
X363570Y154539*
X362362*
X365449Y156569D02*
X366120Y152693D01*
X366791Y156569D02*
X366120Y152693D01*
X366791Y156569D02*
X367462Y152693D01*
X368133Y156569D02*
X367462Y152693D01*
X346354Y269753D02*
X345985Y269619D01*
X345616Y269350*
X345431Y269082*
Y268545*
X345616Y268276*
X345985Y268008*
X346354Y267874*
X346908Y267740*
X347830*
X348384Y267874*
X348753Y268008*
X349122Y268276*
X349307Y268545*
Y269082*
X349122Y269350*
X348753Y269619*
X348384Y269753*
X345431Y270961D02*
X349307D01*
X345431D02*
Y271900D01*
X345616Y272303*
X345985Y272571*
X346354Y272706*
X346908Y272840*
X347830*
X348384Y272706*
X348753Y272571*
X349122Y272303*
X349307Y271900*
Y270961*
X345431Y275390D02*
X348015Y274048D01*
Y276061*
X345431Y275390D02*
X349307D01*
X345431Y278074D02*
X345616Y277672D01*
X346170Y277403*
X347092Y277269*
X347646*
X348569Y277403*
X349122Y277672*
X349307Y278074*
Y278343*
X349122Y278745*
X348569Y279014*
X347646Y279148*
X347092*
X346170Y279014*
X345616Y278745*
X345431Y278343*
Y278074*
X346170Y280356D02*
X345985Y280624D01*
X345431Y281027*
X349307*
X345431Y283040D02*
X345616Y282638D01*
X346170Y282369*
X347092Y282235*
X347646*
X348569Y282369*
X349122Y282638*
X349307Y283040*
Y283309*
X349122Y283711*
X348569Y283980*
X347646Y284114*
X347092*
X346170Y283980*
X345616Y283711*
X345431Y283309*
Y283040*
X346723Y287067D02*
X347277Y286933D01*
X347646Y286664*
X347830Y286261*
Y286127*
X347646Y285725*
X347277Y285456*
X346723Y285322*
X346539*
X345985Y285456*
X345616Y285725*
X345431Y286127*
Y286261*
X345616Y286664*
X345985Y286933*
X346723Y287067*
X347646*
X348569Y286933*
X349122Y286664*
X349307Y286261*
Y285993*
X349122Y285590*
X348753Y285456*
X345431Y288275D02*
X349307D01*
X345431D02*
Y289483D01*
X345616Y289885*
X345800Y290020*
X346170Y290154*
X346539*
X346908Y290020*
X347092Y289885*
X347277Y289483*
Y288275D02*
Y289483D01*
X347461Y289885*
X347646Y290020*
X348015Y290154*
X348569*
X348938Y290020*
X349122Y289885*
X349307Y289483*
Y288275*
X345431Y291362D02*
X349307D01*
X345431D02*
Y292570D01*
X345616Y292972*
X345800Y293106*
X346170Y293241*
X346723*
X347092Y293106*
X347277Y292972*
X347461Y292570*
Y291362*
X345431Y294449D02*
X349307Y295120D01*
X345431Y295791D02*
X349307Y295120D01*
X345431Y295791D02*
X349307Y296462D01*
X345431Y297133D02*
X349307Y296462D01*
G74*
X0Y0D02*
M02*
