*
*
G04 PADS 9.3.1 Build Number: 456998 generated Gerber (RS-274-X) file*
G04 PC Version=2.1*
*
%IN "bogiectl.pcb"*%
*
%MOIN*%
*
%FSLAX35Y35*%
*
*
*
*
G04 PC Standard Apertures*
*
*
G04 Thermal Relief Aperture macro.*
%AMTER*
1,1,$1,0,0*
1,0,$1-$2,0,0*
21,0,$3,$4,0,0,45*
21,0,$3,$4,0,0,135*
%
*
*
G04 Annular Aperture macro.*
%AMANN*
1,1,$1,0,0*
1,0,$2,0,0*
%
*
*
G04 Odd Aperture macro.*
%AMODD*
1,1,$1,0,0*
1,0,$1-0.005,0,0*
%
*
*
G04 PC Custom Aperture Macros*
*
*
*
*
*
*
G04 PC Aperture Table*
*
%ADD010C,0.001*%
%ADD019C,0.01*%
%ADD030C,0.15*%
%ADD031C,0.016*%
%ADD032C,0.02*%
%ADD034C,0.03*%
%ADD037C,0.058*%
%ADD039C,0.014*%
%ADD041C,0.075*%
%ADD042C,0.07*%
%ADD043C,0.06906*%
%ADD045C,0.06118*%
%ADD046C,0.105*%
%ADD048C,0.16*%
%ADD060C,0.04*%
%ADD061R,0.04543X0.03165*%
*
*
*
*
G04 PC Circuitry*
G04 Layer Name bogiectl.pcb - circuitry*
%LPD*%
*
*
G04 PC Custom Flashes*
G04 Layer Name bogiectl.pcb - flashes*
%LPD*%
*
*
G04 PC Circuitry*
G04 Layer Name bogiectl.pcb - circuitry*
%LPD*%
*
G54D10*
G54D19*
G01X144315Y281394D02*
Y286606D01*
X144709Y287000*
X149921*
X150315Y286606*
Y281394*
X149921Y281000*
X144709*
X144315Y281394*
X144709Y281000D02*
X149921D01*
X144315Y282000D02*
X150315D01*
X144315Y283000D02*
X150315D01*
X144315Y284000D02*
X150315D01*
X144315Y285000D02*
X150315D01*
X144315Y286000D02*
X150315D01*
X144709Y287000D02*
X149921D01*
X145000Y281000D02*
Y287000D01*
X146000Y281000D02*
Y287000D01*
X147000Y281000D02*
Y287000D01*
X148000Y281000D02*
Y287000D01*
X149000Y281000D02*
Y287000D01*
X150000Y281079D02*
Y286921D01*
G54D30*
X225300Y302700D03*
G54D31*
X198200Y263800D02*
X193800D01*
Y269200*
X198200*
Y263800*
X193800Y264800D02*
X198200D01*
X193800Y266400D02*
X198200D01*
X193800Y268000D02*
X198200D01*
X194400Y263800D02*
Y269200D01*
X196000Y263800D02*
Y269200D01*
X197600Y263800D02*
Y269200D01*
X198200Y272800D02*
X193800D01*
Y278200*
X198200*
Y272800*
X193800D02*
X198200D01*
X193800Y274400D02*
X198200D01*
X193800Y276000D02*
X198200D01*
X193800Y277600D02*
X198200D01*
X194400Y272800D02*
Y278200D01*
X196000Y272800D02*
Y278200D01*
X197600Y272800D02*
Y278200D01*
G54D32*
X216250Y115250D02*
Y120750D01*
X221750*
Y115250*
X216250*
Y116000D02*
X221750D01*
X216250Y118000D02*
X221750D01*
X216250Y120000D02*
X221750D01*
X218000Y115250D02*
Y120750D01*
X220000Y115250D02*
Y120750D01*
X379250Y139043D02*
Y138043D01*
X376750*
Y139043*
X379250*
X378000Y138043D02*
Y139043D01*
X379250Y131957D02*
Y130957D01*
X376750*
Y131957*
X379250*
X378000Y130957D02*
Y131957D01*
X371376Y135500D02*
Y134500D01*
X368876*
Y135500*
X371376*
X370000Y134500D02*
Y135500D01*
X379250Y195043D02*
Y194043D01*
X376750*
Y195043*
X379250*
X378000Y194043D02*
Y195043D01*
X379250Y187957D02*
Y186957D01*
X376750*
Y187957*
X379250*
X378000Y186957D02*
Y187957D01*
X371376Y191500D02*
Y190500D01*
X368876*
Y191500*
X371376*
X370000Y190500D02*
Y191500D01*
X380250Y239043D02*
Y238043D01*
X377750*
Y239043*
X380250*
X378000Y238043D02*
Y239043D01*
X380000Y238043D02*
Y239043D01*
X380250Y231957D02*
Y230957D01*
X377750*
Y231957*
X380250*
X378000Y230957D02*
Y231957D01*
X380000Y230957D02*
Y231957D01*
X372376Y235500D02*
Y234500D01*
X369876*
Y235500*
X372376*
X370000Y234500D02*
Y235500D01*
X372000Y234500D02*
Y235500D01*
X270500Y150500D02*
Y155500D01*
X275500*
Y150500*
X270500*
Y152000D02*
X275500D01*
X270500Y154000D02*
X275500D01*
X272000Y150500D02*
Y155500D01*
X274000Y150500D02*
Y155500D01*
X373878Y284500D02*
Y285500D01*
X375378*
Y284500*
X373878*
X374000D02*
Y285500D01*
X368622Y284500D02*
Y285500D01*
X370122*
Y284500*
X368622*
X370000D02*
Y285500D01*
X373878Y291500D02*
Y292500D01*
X375378*
Y291500*
X373878*
Y292000D02*
X375378D01*
X374000Y291500D02*
Y292500D01*
X368622Y291500D02*
Y292500D01*
X370122*
Y291500*
X368622*
Y292000D02*
X370122D01*
X370000Y291500D02*
Y292500D01*
X373878Y299500D02*
Y300500D01*
X375378*
Y299500*
X373878*
Y300000D02*
X375378D01*
X374000Y299500D02*
Y300500D01*
X368622Y299500D02*
Y300500D01*
X370122*
Y299500*
X368622*
Y300000D02*
X370122D01*
X370000Y299500D02*
Y300500D01*
X148000Y231000D02*
X168000D01*
Y252500*
X148000*
Y231000*
Y250799D02*
X168000D01*
X148000Y248999D02*
X168000D01*
X148000Y247199D02*
X168000D01*
X148000Y245399D02*
X168000D01*
X148000Y243599D02*
X168000D01*
X148000Y241799D02*
X168000D01*
X148000Y239999D02*
X168000D01*
X148000Y238199D02*
X168000D01*
X148000Y236399D02*
X168000D01*
X148000Y234599D02*
X168000D01*
X148000Y232799D02*
X168000D01*
G54D34*
X147091Y273823D02*
X150799D01*
Y266177*
X147091*
Y273823*
Y268000D02*
X150799D01*
X147091Y271000D02*
X150799D01*
X148000Y266177D02*
Y273823D01*
X165201D02*
X168909D01*
Y266177*
X165201*
Y273823*
Y268000D02*
X168909D01*
X165201Y271000D02*
X168909D01*
X166000Y266177D02*
Y273823D01*
G54D37*
X283000Y187000D03*
X302200D03*
G54D39*
X297800Y195300D02*
Y192700D01*
X294400*
Y195300*
X297800*
X294400Y193800D02*
X297800D01*
X294400Y195200D02*
X297800D01*
X294600Y192700D02*
Y195300D01*
X296000Y192700D02*
Y195300D01*
X297400Y192700D02*
Y195300D01*
X291600D02*
Y192700D01*
X288200*
Y195300*
X291600*
X288200Y193800D02*
X291600D01*
X288200Y195200D02*
X291600D01*
X289000Y192700D02*
Y195300D01*
X290400Y192700D02*
Y195300D01*
X273200Y309700D02*
Y312300D01*
X276600*
Y309700*
X273200*
Y310000D02*
X276600D01*
X273200Y311400D02*
X276600D01*
X273600Y309700D02*
Y312300D01*
X275000Y309700D02*
Y312300D01*
X276400Y309700D02*
Y312300D01*
X279400Y309700D02*
Y312300D01*
X282800*
Y309700*
X279400*
Y310000D02*
X282800D01*
X279400Y311400D02*
X282800D01*
X280600Y309700D02*
Y312300D01*
X282000Y309700D02*
Y312300D01*
X275800Y306300D02*
Y303700D01*
X272400*
Y306300*
X275800*
X272400Y304400D02*
X275800D01*
X272400Y305800D02*
X275800D01*
X273600Y303700D02*
Y306300D01*
X275000Y303700D02*
Y306300D01*
X269600D02*
Y303700D01*
X266200*
Y306300*
X269600*
X266200Y304400D02*
X269600D01*
X266200Y305800D02*
X269600D01*
X266600Y303700D02*
Y306300D01*
X268000Y303700D02*
Y306300D01*
X269400Y303700D02*
Y306300D01*
X280200Y303700D02*
Y306300D01*
X283600*
Y303700*
X280200*
Y304400D02*
X283600D01*
X280200Y305800D02*
X283600D01*
X280600Y303700D02*
Y306300D01*
X282000Y303700D02*
Y306300D01*
X283400Y303700D02*
Y306300D01*
X286400Y303700D02*
Y306300D01*
X289800*
Y303700*
X286400*
Y304400D02*
X289800D01*
X286400Y305800D02*
X289800D01*
X287600Y303700D02*
Y306300D01*
X289000Y303700D02*
Y306300D01*
X245700Y130800D02*
X248300D01*
Y127400*
X245700*
Y130800*
Y128000D02*
X248300D01*
X245700Y129400D02*
X248300D01*
X245700Y130800D02*
X248300D01*
X247000Y127400D02*
Y130800D01*
X245700Y124600D02*
X248300D01*
Y121200*
X245700*
Y124600*
Y122400D02*
X248300D01*
X245700Y123800D02*
X248300D01*
X247000Y121200D02*
Y124600D01*
X279200Y282700D02*
Y285300D01*
X282600*
Y282700*
X279200*
Y283400D02*
X282600D01*
X279200Y284800D02*
X282600D01*
X279200Y282700D02*
Y285300D01*
X280600Y282700D02*
Y285300D01*
X282000Y282700D02*
Y285300D01*
X285400Y282700D02*
Y285300D01*
X288800*
Y282700*
X285400*
Y283400D02*
X288800D01*
X285400Y284800D02*
X288800D01*
X286200Y282700D02*
Y285300D01*
X287600Y282700D02*
Y285300D01*
X267200Y286700D02*
Y289300D01*
X270600*
Y286700*
X267200*
Y287600D02*
X270600D01*
X267200Y289000D02*
X270600D01*
X268000Y286700D02*
Y289300D01*
X269400Y286700D02*
Y289300D01*
X273400Y286700D02*
Y289300D01*
X276800*
Y286700*
X273400*
Y287600D02*
X276800D01*
X273400Y289000D02*
X276800D01*
X273600Y286700D02*
Y289300D01*
X275000Y286700D02*
Y289300D01*
X276400Y286700D02*
Y289300D01*
X376300Y170200D02*
X373700D01*
Y173600*
X376300*
Y170200*
X373700Y171400D02*
X376300D01*
X373700Y172800D02*
X376300D01*
X374400Y170200D02*
Y173600D01*
X375800Y170200D02*
Y173600D01*
X376300Y176400D02*
X373700D01*
Y179800*
X376300*
Y176400*
X373700Y177000D02*
X376300D01*
X373700Y178400D02*
X376300D01*
X373700Y179800D02*
X376300D01*
X374400Y176400D02*
Y179800D01*
X375800Y176400D02*
Y179800D01*
X373700Y122800D02*
X376300D01*
Y119400*
X373700*
Y122800*
Y119600D02*
X376300D01*
X373700Y121000D02*
X376300D01*
X373700Y122400D02*
X376300D01*
X374400Y119400D02*
Y122800D01*
X375800Y119400D02*
Y122800D01*
X373700Y116600D02*
X376300D01*
Y113200*
X373700*
Y116600*
Y114000D02*
X376300D01*
X373700Y115400D02*
X376300D01*
X374400Y113200D02*
Y116600D01*
X375800Y113200D02*
Y116600D01*
X185800Y263300D02*
Y260700D01*
X182400*
Y263300*
X185800*
X182400Y261000D02*
X185800D01*
X182400Y262400D02*
X185800D01*
X182600Y260700D02*
Y263300D01*
X184000Y260700D02*
Y263300D01*
X185400Y260700D02*
Y263300D01*
X179600D02*
Y260700D01*
X176200*
Y263300*
X179600*
X176200Y261000D02*
X179600D01*
X176200Y262400D02*
X179600D01*
X177000Y260700D02*
Y263300D01*
X178400Y260700D02*
Y263300D01*
X180200Y268700D02*
Y271300D01*
X183600*
Y268700*
X180200*
Y269400D02*
X183600D01*
X180200Y270800D02*
X183600D01*
X181200Y268700D02*
Y271300D01*
X182600Y268700D02*
Y271300D01*
X186400Y268700D02*
Y271300D01*
X189800*
Y268700*
X186400*
Y269400D02*
X189800D01*
X186400Y270800D02*
X189800D01*
X186800Y268700D02*
Y271300D01*
X188200Y268700D02*
Y271300D01*
X189600Y268700D02*
Y271300D01*
X200200Y240700D02*
Y243300D01*
X203600*
Y240700*
X200200*
Y241400D02*
X203600D01*
X200200Y242800D02*
X203600D01*
X200800Y240700D02*
Y243300D01*
X202200Y240700D02*
Y243300D01*
X203600Y240700D02*
Y243300D01*
X206400Y240700D02*
Y243300D01*
X209800*
Y240700*
X206400*
Y241400D02*
X209800D01*
X206400Y242800D02*
X209800D01*
X206400Y240700D02*
Y243300D01*
X207800Y240700D02*
Y243300D01*
X209200Y240700D02*
Y243300D01*
X204800Y236300D02*
Y233700D01*
X201400*
Y236300*
X204800*
X201400Y234400D02*
X204800D01*
X201400Y235800D02*
X204800D01*
X202200Y233700D02*
Y236300D01*
X203600Y233700D02*
Y236300D01*
X198600D02*
Y233700D01*
X195200*
Y236300*
X198600*
X195200Y234400D02*
X198600D01*
X195200Y235800D02*
X198600D01*
X195200Y233700D02*
Y236300D01*
X196600Y233700D02*
Y236300D01*
X198000Y233700D02*
Y236300D01*
G54D41*
X219000Y127843D03*
X228843Y118000D03*
Y127843D03*
X239079Y118000D03*
Y127843D03*
X260000Y183000D03*
Y193000D03*
G54D42*
X268000Y131000D03*
Y113283D03*
X293591Y131000D03*
Y113283D03*
X167000Y284000D03*
X273000Y142961D03*
X283000Y153000D03*
Y142961D03*
X293000Y153000D03*
Y142961D03*
X303000Y153000D03*
Y142961D03*
G54D43*
X290000Y320000D03*
X282126D03*
X274252D03*
X387000Y121000D03*
Y128874D03*
Y136748D03*
Y144622D03*
Y171000D03*
Y178874D03*
Y186748D03*
Y194622D03*
X388000Y231000D03*
Y238874D03*
Y246748D03*
X387000Y277000D03*
Y284874D03*
Y292748D03*
Y300622D03*
Y308496D03*
G54D45*
X117000Y202000D03*
X130780D03*
G54D46*
X217000Y274000D03*
X233500D03*
X217000Y252300D03*
X233500D03*
X116000Y273000D03*
Y251300D03*
G54D48*
X175000Y315000D03*
Y115000D03*
X325000D03*
Y315000D03*
G54D60*
X145917Y230752D02*
Y254917D01*
X170083*
Y230752*
X145917*
Y232000D02*
X170083D01*
X145917Y236000D02*
X170083D01*
X145917Y240000D02*
X170083D01*
X145917Y244000D02*
X170083D01*
X145917Y248000D02*
X170083D01*
X145917Y252000D02*
X170083D01*
X148000Y230752D02*
Y254917D01*
X152000Y230752D02*
Y254917D01*
X156000Y230752D02*
Y254917D01*
X160000Y230752D02*
Y254917D01*
X164000Y230752D02*
Y254917D01*
X168000Y230752D02*
Y254917D01*
G54D61*
X201921Y257740D03*
Y254000D03*
Y250260D03*
X192079D03*
Y254000D03*
Y257740D03*
X0Y0D02*
M02*
