*
*
G04 PADS 9.3.1 Build Number: 456998 generated Gerber (RS-274-X) file*
G04 PC Version=2.1*
*
%IN "bogiectl.pcb"*%
*
%MOIN*%
*
%FSLAX35Y35*%
*
*
*
*
G04 PC Standard Apertures*
*
*
G04 Thermal Relief Aperture macro.*
%AMTER*
1,1,$1,0,0*
1,0,$1-$2,0,0*
21,0,$3,$4,0,0,45*
21,0,$3,$4,0,0,135*
%
*
*
G04 Annular Aperture macro.*
%AMANN*
1,1,$1,0,0*
1,0,$2,0,0*
%
*
*
G04 Odd Aperture macro.*
%AMODD*
1,1,$1,0,0*
1,0,$1-0.005,0,0*
%
*
*
G04 PC Custom Aperture Macros*
*
*
*
*
*
*
G04 PC Aperture Table*
*
%ADD010C,0.001*%
%ADD011C,0.048*%
%ADD012C,0.01181*%
%ADD013C,0.004*%
%ADD014C,0.006*%
%ADD015O,0.04921X0.02165*%
%ADD016O,0.02165X0.04921*%
%ADD017O,0.02638X0.07008*%
%ADD018C,0.008*%
%ADD019C,0.01*%
%ADD020C,0.065*%
%ADD021C,0.06*%
%ADD022C,0.05906*%
%ADD023C,0.01575*%
%ADD024C,0.05118*%
%ADD025O,0.01575X0.04921*%
%ADD026O,0.04921X0.01575*%
%ADD027C,0.095*%
%ADD028C,0.14*%
%ADD029C,0.00787*%
%ADD030C,0.15*%
%ADD031C,0.016*%
%ADD032C,0.02*%
%ADD033C,0.05*%
%ADD034C,0.03*%
%ADD035C,0.015*%
*
*
*
*
G04 PC Circuitry*
G04 Layer Name bogiectl.pcb - circuitry*
%LPD*%
*
*
G04 PC Custom Flashes*
G04 Layer Name bogiectl.pcb - flashes*
%LPD*%
*
*
G04 PC Circuitry*
G04 Layer Name bogiectl.pcb - circuitry*
%LPD*%
*
G54D10*
G54D11*
G01X283000Y187000D03*
X302200D03*
G54D12*
X164358Y205720D02*
Y208280D01*
X171642*
Y205720*
X164358*
Y206299D02*
X171642D01*
X164358Y207480D02*
X171642D01*
X164961Y205720D02*
Y208280D01*
X166142Y205720D02*
Y208280D01*
X167323Y205720D02*
Y208280D01*
X168504Y205720D02*
Y208280D01*
X169685Y205720D02*
Y208280D01*
X170866Y205720D02*
Y208280D01*
X164358Y196665D02*
Y199224D01*
X171642*
Y196665*
X164358*
Y196850D02*
X171642D01*
X164358Y198031D02*
X171642D01*
X164358Y199213D02*
X171642D01*
X164961Y196665D02*
Y199224D01*
X166142Y196665D02*
Y199224D01*
X167323Y196665D02*
Y199224D01*
X168504Y196665D02*
Y199224D01*
X169685Y196665D02*
Y199224D01*
X170866Y196665D02*
Y199224D01*
X164358Y187610D02*
Y190169D01*
X171642*
Y187610*
X164358*
Y188583D02*
X171642D01*
X164358Y189764D02*
X171642D01*
X164961Y187610D02*
Y190169D01*
X166142Y187610D02*
Y190169D01*
X167323Y187610D02*
Y190169D01*
X168504Y187610D02*
Y190169D01*
X169685Y187610D02*
Y190169D01*
X170866Y187610D02*
Y190169D01*
X187193Y203752D02*
X194476D01*
Y192138*
X187193*
Y203752*
Y193307D02*
X194476D01*
X187193Y194488D02*
X194476D01*
X187193Y195669D02*
X194476D01*
X187193Y196850D02*
X194476D01*
X187193Y198031D02*
X194476D01*
X187193Y199213D02*
X194476D01*
X187193Y200394D02*
X194476D01*
X187193Y201575D02*
X194476D01*
X187193Y202756D02*
X194476D01*
X187402Y192138D02*
Y203752D01*
X188583Y192138D02*
Y203752D01*
X189764Y192138D02*
Y203752D01*
X190945Y192138D02*
Y203752D01*
X192126Y192138D02*
Y203752D01*
X193307Y192138D02*
Y203752D01*
X164358Y172720D02*
Y175280D01*
X171642*
Y172720*
X164358*
Y173228D02*
X171642D01*
X164358Y174409D02*
X171642D01*
X164961Y172720D02*
Y175280D01*
X166142Y172720D02*
Y175280D01*
X167323Y172720D02*
Y175280D01*
X168504Y172720D02*
Y175280D01*
X169685Y172720D02*
Y175280D01*
X170866Y172720D02*
Y175280D01*
X164358Y163665D02*
Y166224D01*
X171642*
Y163665*
X164358*
Y163780D02*
X171642D01*
X164358Y164961D02*
X171642D01*
X164358Y166142D02*
X171642D01*
X164961Y163665D02*
Y166224D01*
X166142Y163665D02*
Y166224D01*
X167323Y163665D02*
Y166224D01*
X168504Y163665D02*
Y166224D01*
X169685Y163665D02*
Y166224D01*
X170866Y163665D02*
Y166224D01*
X164358Y154610D02*
Y157169D01*
X171642*
Y154610*
X164358*
Y155512D02*
X171642D01*
X164358Y156693D02*
X171642D01*
X164961Y154610D02*
Y157169D01*
X166142Y154610D02*
Y157169D01*
X167323Y154610D02*
Y157169D01*
X168504Y154610D02*
Y157169D01*
X169685Y154610D02*
Y157169D01*
X170866Y154610D02*
Y157169D01*
X187193Y170752D02*
X194476D01*
Y159138*
X187193*
Y170752*
Y160236D02*
X194476D01*
X187193Y161417D02*
X194476D01*
X187193Y162598D02*
X194476D01*
X187193Y163780D02*
X194476D01*
X187193Y164961D02*
X194476D01*
X187193Y166142D02*
X194476D01*
X187193Y167323D02*
X194476D01*
X187193Y168504D02*
X194476D01*
X187193Y169685D02*
X194476D01*
X187402Y159138D02*
Y170752D01*
X188583Y159138D02*
Y170752D01*
X189764Y159138D02*
Y170752D01*
X190945Y159138D02*
Y170752D01*
X192126Y159138D02*
Y170752D01*
X193307Y159138D02*
Y170752D01*
G54D13*
X294200Y171700D02*
Y174300D01*
X297600*
Y171700*
X294200*
Y172000D02*
X297600D01*
X294200Y172400D02*
X297600D01*
X294200Y172800D02*
X297600D01*
X294200Y173200D02*
X297600D01*
X294200Y173600D02*
X297600D01*
X294200Y174000D02*
X297600D01*
X294400Y171700D02*
Y174300D01*
X294800Y171700D02*
Y174300D01*
X295200Y171700D02*
Y174300D01*
X295600Y171700D02*
Y174300D01*
X296000Y171700D02*
Y174300D01*
X296400Y171700D02*
Y174300D01*
X296800Y171700D02*
Y174300D01*
X297200Y171700D02*
Y174300D01*
X297600Y171700D02*
Y174300D01*
X300400Y171700D02*
Y174300D01*
X303800*
Y171700*
X300400*
Y172000D02*
X303800D01*
X300400Y172400D02*
X303800D01*
X300400Y172800D02*
X303800D01*
X300400Y173200D02*
X303800D01*
X300400Y173600D02*
X303800D01*
X300400Y174000D02*
X303800D01*
X300400Y171700D02*
Y174300D01*
X300800Y171700D02*
Y174300D01*
X301200Y171700D02*
Y174300D01*
X301600Y171700D02*
Y174300D01*
X302000Y171700D02*
Y174300D01*
X302400Y171700D02*
Y174300D01*
X302800Y171700D02*
Y174300D01*
X303200Y171700D02*
Y174300D01*
X303600Y171700D02*
Y174300D01*
X290800D02*
Y171700D01*
X287400*
Y174300*
X290800*
X287400Y172000D02*
X290800D01*
X287400Y172400D02*
X290800D01*
X287400Y172800D02*
X290800D01*
X287400Y173200D02*
X290800D01*
X287400Y173600D02*
X290800D01*
X287400Y174000D02*
X290800D01*
X287600Y171700D02*
Y174300D01*
X288000Y171700D02*
Y174300D01*
X288400Y171700D02*
Y174300D01*
X288800Y171700D02*
Y174300D01*
X289200Y171700D02*
Y174300D01*
X289600Y171700D02*
Y174300D01*
X290000Y171700D02*
Y174300D01*
X290400Y171700D02*
Y174300D01*
X290800Y171700D02*
Y174300D01*
X284600D02*
Y171700D01*
X281200*
Y174300*
X284600*
X281200Y172000D02*
X284600D01*
X281200Y172400D02*
X284600D01*
X281200Y172800D02*
X284600D01*
X281200Y173200D02*
X284600D01*
X281200Y173600D02*
X284600D01*
X281200Y174000D02*
X284600D01*
X281200Y171700D02*
Y174300D01*
X281600Y171700D02*
Y174300D01*
X282000Y171700D02*
Y174300D01*
X282400Y171700D02*
Y174300D01*
X282800Y171700D02*
Y174300D01*
X283200Y171700D02*
Y174300D01*
X283600Y171700D02*
Y174300D01*
X284000Y171700D02*
Y174300D01*
X284400Y171700D02*
Y174300D01*
X331700Y244800D02*
X334300D01*
Y241400*
X331700*
Y244800*
Y241600D02*
X334300D01*
X331700Y242000D02*
X334300D01*
X331700Y242400D02*
X334300D01*
X331700Y242800D02*
X334300D01*
X331700Y243200D02*
X334300D01*
X331700Y243600D02*
X334300D01*
X331700Y244000D02*
X334300D01*
X331700Y244400D02*
X334300D01*
X331700Y244800D02*
X334300D01*
X332000Y241400D02*
Y244800D01*
X332400Y241400D02*
Y244800D01*
X332800Y241400D02*
Y244800D01*
X333200Y241400D02*
Y244800D01*
X333600Y241400D02*
Y244800D01*
X334000Y241400D02*
Y244800D01*
X331700Y238600D02*
X334300D01*
Y235200*
X331700*
Y238600*
Y235200D02*
X334300D01*
X331700Y235600D02*
X334300D01*
X331700Y236000D02*
X334300D01*
X331700Y236400D02*
X334300D01*
X331700Y236800D02*
X334300D01*
X331700Y237200D02*
X334300D01*
X331700Y237600D02*
X334300D01*
X331700Y238000D02*
X334300D01*
X331700Y238400D02*
X334300D01*
X332000Y235200D02*
Y238600D01*
X332400Y235200D02*
Y238600D01*
X332800Y235200D02*
Y238600D01*
X333200Y235200D02*
Y238600D01*
X333600Y235200D02*
Y238600D01*
X334000Y235200D02*
Y238600D01*
X306900Y205300D02*
Y202700D01*
X303500*
Y205300*
X306900*
X303500Y202800D02*
X306900D01*
X303500Y203200D02*
X306900D01*
X303500Y203600D02*
X306900D01*
X303500Y204000D02*
X306900D01*
X303500Y204400D02*
X306900D01*
X303500Y204800D02*
X306900D01*
X303500Y205200D02*
X306900D01*
X303600Y202700D02*
Y205300D01*
X304000Y202700D02*
Y205300D01*
X304400Y202700D02*
Y205300D01*
X304800Y202700D02*
Y205300D01*
X305200Y202700D02*
Y205300D01*
X305600Y202700D02*
Y205300D01*
X306000Y202700D02*
Y205300D01*
X306400Y202700D02*
Y205300D01*
X306800Y202700D02*
Y205300D01*
X300700D02*
Y202700D01*
X297300*
Y205300*
X300700*
X297300Y202800D02*
X300700D01*
X297300Y203200D02*
X300700D01*
X297300Y203600D02*
X300700D01*
X297300Y204000D02*
X300700D01*
X297300Y204400D02*
X300700D01*
X297300Y204800D02*
X300700D01*
X297300Y205200D02*
X300700D01*
X297600Y202700D02*
Y205300D01*
X298000Y202700D02*
Y205300D01*
X298400Y202700D02*
Y205300D01*
X298800Y202700D02*
Y205300D01*
X299200Y202700D02*
Y205300D01*
X299600Y202700D02*
Y205300D01*
X300000Y202700D02*
Y205300D01*
X300400Y202700D02*
Y205300D01*
X270300Y219200D02*
X267700D01*
Y222600*
X270300*
Y219200*
X267700D02*
X270300D01*
X267700Y219600D02*
X270300D01*
X267700Y220000D02*
X270300D01*
X267700Y220400D02*
X270300D01*
X267700Y220800D02*
X270300D01*
X267700Y221200D02*
X270300D01*
X267700Y221600D02*
X270300D01*
X267700Y222000D02*
X270300D01*
X267700Y222400D02*
X270300D01*
X268000Y219200D02*
Y222600D01*
X268400Y219200D02*
Y222600D01*
X268800Y219200D02*
Y222600D01*
X269200Y219200D02*
Y222600D01*
X269600Y219200D02*
Y222600D01*
X270000Y219200D02*
Y222600D01*
X270300Y225400D02*
X267700D01*
Y228800*
X270300*
Y225400*
X267700Y225600D02*
X270300D01*
X267700Y226000D02*
X270300D01*
X267700Y226400D02*
X270300D01*
X267700Y226800D02*
X270300D01*
X267700Y227200D02*
X270300D01*
X267700Y227600D02*
X270300D01*
X267700Y228000D02*
X270300D01*
X267700Y228400D02*
X270300D01*
X267700Y228800D02*
X270300D01*
X268000Y225400D02*
Y228800D01*
X268400Y225400D02*
Y228800D01*
X268800Y225400D02*
Y228800D01*
X269200Y225400D02*
Y228800D01*
X269600Y225400D02*
Y228800D01*
X270000Y225400D02*
Y228800D01*
X200700Y193800D02*
X203300D01*
Y190400*
X200700*
Y193800*
Y190400D02*
X203300D01*
X200700Y190800D02*
X203300D01*
X200700Y191200D02*
X203300D01*
X200700Y191600D02*
X203300D01*
X200700Y192000D02*
X203300D01*
X200700Y192400D02*
X203300D01*
X200700Y192800D02*
X203300D01*
X200700Y193200D02*
X203300D01*
X200700Y193600D02*
X203300D01*
X200800Y190400D02*
Y193800D01*
X201200Y190400D02*
Y193800D01*
X201600Y190400D02*
Y193800D01*
X202000Y190400D02*
Y193800D01*
X202400Y190400D02*
Y193800D01*
X202800Y190400D02*
Y193800D01*
X203200Y190400D02*
Y193800D01*
X200700Y187600D02*
X203300D01*
Y184200*
X200700*
Y187600*
Y184400D02*
X203300D01*
X200700Y184800D02*
X203300D01*
X200700Y185200D02*
X203300D01*
X200700Y185600D02*
X203300D01*
X200700Y186000D02*
X203300D01*
X200700Y186400D02*
X203300D01*
X200700Y186800D02*
X203300D01*
X200700Y187200D02*
X203300D01*
X200700Y187600D02*
X203300D01*
X200800Y184200D02*
Y187600D01*
X201200Y184200D02*
Y187600D01*
X201600Y184200D02*
Y187600D01*
X202000Y184200D02*
Y187600D01*
X202400Y184200D02*
Y187600D01*
X202800Y184200D02*
Y187600D01*
X203200Y184200D02*
Y187600D01*
X121000Y166600D02*
Y164000D01*
X117600*
Y166600*
X121000*
X117600Y164000D02*
X121000D01*
X117600Y164400D02*
X121000D01*
X117600Y164800D02*
X121000D01*
X117600Y165200D02*
X121000D01*
X117600Y165600D02*
X121000D01*
X117600Y166000D02*
X121000D01*
X117600Y166400D02*
X121000D01*
X117600Y164000D02*
Y166600D01*
X118000Y164000D02*
Y166600D01*
X118400Y164000D02*
Y166600D01*
X118800Y164000D02*
Y166600D01*
X119200Y164000D02*
Y166600D01*
X119600Y164000D02*
Y166600D01*
X120000Y164000D02*
Y166600D01*
X120400Y164000D02*
Y166600D01*
X120800Y164000D02*
Y166600D01*
X114800D02*
Y164000D01*
X111400*
Y166600*
X114800*
X111400Y164000D02*
X114800D01*
X111400Y164400D02*
X114800D01*
X111400Y164800D02*
X114800D01*
X111400Y165200D02*
X114800D01*
X111400Y165600D02*
X114800D01*
X111400Y166000D02*
X114800D01*
X111400Y166400D02*
X114800D01*
X111600Y164000D02*
Y166600D01*
X112000Y164000D02*
Y166600D01*
X112400Y164000D02*
Y166600D01*
X112800Y164000D02*
Y166600D01*
X113200Y164000D02*
Y166600D01*
X113600Y164000D02*
Y166600D01*
X114000Y164000D02*
Y166600D01*
X114400Y164000D02*
Y166600D01*
X114800Y164000D02*
Y166600D01*
X135800Y166300D02*
Y163700D01*
X132400*
Y166300*
X135800*
X132400Y164000D02*
X135800D01*
X132400Y164400D02*
X135800D01*
X132400Y164800D02*
X135800D01*
X132400Y165200D02*
X135800D01*
X132400Y165600D02*
X135800D01*
X132400Y166000D02*
X135800D01*
X132400Y163700D02*
Y166300D01*
X132800Y163700D02*
Y166300D01*
X133200Y163700D02*
Y166300D01*
X133600Y163700D02*
Y166300D01*
X134000Y163700D02*
Y166300D01*
X134400Y163700D02*
Y166300D01*
X134800Y163700D02*
Y166300D01*
X135200Y163700D02*
Y166300D01*
X135600Y163700D02*
Y166300D01*
X129600D02*
Y163700D01*
X126200*
Y166300*
X129600*
X126200Y164000D02*
X129600D01*
X126200Y164400D02*
X129600D01*
X126200Y164800D02*
X129600D01*
X126200Y165200D02*
X129600D01*
X126200Y165600D02*
X129600D01*
X126200Y166000D02*
X129600D01*
X126400Y163700D02*
Y166300D01*
X126800Y163700D02*
Y166300D01*
X127200Y163700D02*
Y166300D01*
X127600Y163700D02*
Y166300D01*
X128000Y163700D02*
Y166300D01*
X128400Y163700D02*
Y166300D01*
X128800Y163700D02*
Y166300D01*
X129200Y163700D02*
Y166300D01*
X129600Y163700D02*
Y166300D01*
X135800Y153300D02*
Y150700D01*
X132400*
Y153300*
X135800*
X132400Y150800D02*
X135800D01*
X132400Y151200D02*
X135800D01*
X132400Y151600D02*
X135800D01*
X132400Y152000D02*
X135800D01*
X132400Y152400D02*
X135800D01*
X132400Y152800D02*
X135800D01*
X132400Y153200D02*
X135800D01*
X132400Y150700D02*
Y153300D01*
X132800Y150700D02*
Y153300D01*
X133200Y150700D02*
Y153300D01*
X133600Y150700D02*
Y153300D01*
X134000Y150700D02*
Y153300D01*
X134400Y150700D02*
Y153300D01*
X134800Y150700D02*
Y153300D01*
X135200Y150700D02*
Y153300D01*
X135600Y150700D02*
Y153300D01*
X129600D02*
Y150700D01*
X126200*
Y153300*
X129600*
X126200Y150800D02*
X129600D01*
X126200Y151200D02*
X129600D01*
X126200Y151600D02*
X129600D01*
X126200Y152000D02*
X129600D01*
X126200Y152400D02*
X129600D01*
X126200Y152800D02*
X129600D01*
X126200Y153200D02*
X129600D01*
X126400Y150700D02*
Y153300D01*
X126800Y150700D02*
Y153300D01*
X127200Y150700D02*
Y153300D01*
X127600Y150700D02*
Y153300D01*
X128000Y150700D02*
Y153300D01*
X128400Y150700D02*
Y153300D01*
X128800Y150700D02*
Y153300D01*
X129200Y150700D02*
Y153300D01*
X129600Y150700D02*
Y153300D01*
X130000Y109600D02*
Y107000D01*
X126600*
Y109600*
X130000*
X126600Y107200D02*
X130000D01*
X126600Y107600D02*
X130000D01*
X126600Y108000D02*
X130000D01*
X126600Y108400D02*
X130000D01*
X126600Y108800D02*
X130000D01*
X126600Y109200D02*
X130000D01*
X126600Y109600D02*
X130000D01*
X126800Y107000D02*
Y109600D01*
X127200Y107000D02*
Y109600D01*
X127600Y107000D02*
Y109600D01*
X128000Y107000D02*
Y109600D01*
X128400Y107000D02*
Y109600D01*
X128800Y107000D02*
Y109600D01*
X129200Y107000D02*
Y109600D01*
X129600Y107000D02*
Y109600D01*
X130000Y107000D02*
Y109600D01*
X123800D02*
Y107000D01*
X120400*
Y109600*
X123800*
X120400Y107200D02*
X123800D01*
X120400Y107600D02*
X123800D01*
X120400Y108000D02*
X123800D01*
X120400Y108400D02*
X123800D01*
X120400Y108800D02*
X123800D01*
X120400Y109200D02*
X123800D01*
X120400Y109600D02*
X123800D01*
X120400Y107000D02*
Y109600D01*
X120800Y107000D02*
Y109600D01*
X121200Y107000D02*
Y109600D01*
X121600Y107000D02*
Y109600D01*
X122000Y107000D02*
Y109600D01*
X122400Y107000D02*
Y109600D01*
X122800Y107000D02*
Y109600D01*
X123200Y107000D02*
Y109600D01*
X123600Y107000D02*
Y109600D01*
X121000Y153600D02*
Y151000D01*
X117600*
Y153600*
X121000*
X117600Y151200D02*
X121000D01*
X117600Y151600D02*
X121000D01*
X117600Y152000D02*
X121000D01*
X117600Y152400D02*
X121000D01*
X117600Y152800D02*
X121000D01*
X117600Y153200D02*
X121000D01*
X117600Y153600D02*
X121000D01*
X117600Y151000D02*
Y153600D01*
X118000Y151000D02*
Y153600D01*
X118400Y151000D02*
Y153600D01*
X118800Y151000D02*
Y153600D01*
X119200Y151000D02*
Y153600D01*
X119600Y151000D02*
Y153600D01*
X120000Y151000D02*
Y153600D01*
X120400Y151000D02*
Y153600D01*
X120800Y151000D02*
Y153600D01*
X114800D02*
Y151000D01*
X111400*
Y153600*
X114800*
X111400Y151200D02*
X114800D01*
X111400Y151600D02*
X114800D01*
X111400Y152000D02*
X114800D01*
X111400Y152400D02*
X114800D01*
X111400Y152800D02*
X114800D01*
X111400Y153200D02*
X114800D01*
X111400Y153600D02*
X114800D01*
X111600Y151000D02*
Y153600D01*
X112000Y151000D02*
Y153600D01*
X112400Y151000D02*
Y153600D01*
X112800Y151000D02*
Y153600D01*
X113200Y151000D02*
Y153600D01*
X113600Y151000D02*
Y153600D01*
X114000Y151000D02*
Y153600D01*
X114400Y151000D02*
Y153600D01*
X114800Y151000D02*
Y153600D01*
X117000Y109600D02*
Y107000D01*
X113600*
Y109600*
X117000*
X113600Y107200D02*
X117000D01*
X113600Y107600D02*
X117000D01*
X113600Y108000D02*
X117000D01*
X113600Y108400D02*
X117000D01*
X113600Y108800D02*
X117000D01*
X113600Y109200D02*
X117000D01*
X113600Y109600D02*
X117000D01*
X113600Y107000D02*
Y109600D01*
X114000Y107000D02*
Y109600D01*
X114400Y107000D02*
Y109600D01*
X114800Y107000D02*
Y109600D01*
X115200Y107000D02*
Y109600D01*
X115600Y107000D02*
Y109600D01*
X116000Y107000D02*
Y109600D01*
X116400Y107000D02*
Y109600D01*
X116800Y107000D02*
Y109600D01*
X110800D02*
Y107000D01*
X107400*
Y109600*
X110800*
X107400Y107200D02*
X110800D01*
X107400Y107600D02*
X110800D01*
X107400Y108000D02*
X110800D01*
X107400Y108400D02*
X110800D01*
X107400Y108800D02*
X110800D01*
X107400Y109200D02*
X110800D01*
X107400Y109600D02*
X110800D01*
X107600Y107000D02*
Y109600D01*
X108000Y107000D02*
Y109600D01*
X108400Y107000D02*
Y109600D01*
X108800Y107000D02*
Y109600D01*
X109200Y107000D02*
Y109600D01*
X109600Y107000D02*
Y109600D01*
X110000Y107000D02*
Y109600D01*
X110400Y107000D02*
Y109600D01*
X110800Y107000D02*
Y109600D01*
X265300Y291200D02*
X262700D01*
Y294600*
X265300*
Y291200*
X262700D02*
X265300D01*
X262700Y291600D02*
X265300D01*
X262700Y292000D02*
X265300D01*
X262700Y292400D02*
X265300D01*
X262700Y292800D02*
X265300D01*
X262700Y293200D02*
X265300D01*
X262700Y293600D02*
X265300D01*
X262700Y294000D02*
X265300D01*
X262700Y294400D02*
X265300D01*
X262800Y291200D02*
Y294600D01*
X263200Y291200D02*
Y294600D01*
X263600Y291200D02*
Y294600D01*
X264000Y291200D02*
Y294600D01*
X264400Y291200D02*
Y294600D01*
X264800Y291200D02*
Y294600D01*
X265200Y291200D02*
Y294600D01*
X265300Y297400D02*
X262700D01*
Y300800*
X265300*
Y297400*
X262700Y297600D02*
X265300D01*
X262700Y298000D02*
X265300D01*
X262700Y298400D02*
X265300D01*
X262700Y298800D02*
X265300D01*
X262700Y299200D02*
X265300D01*
X262700Y299600D02*
X265300D01*
X262700Y300000D02*
X265300D01*
X262700Y300400D02*
X265300D01*
X262700Y300800D02*
X265300D01*
X262800Y297400D02*
Y300800D01*
X263200Y297400D02*
Y300800D01*
X263600Y297400D02*
Y300800D01*
X264000Y297400D02*
Y300800D01*
X264400Y297400D02*
Y300800D01*
X264800Y297400D02*
Y300800D01*
X265200Y297400D02*
Y300800D01*
X253300Y181200D02*
X250700D01*
Y184600*
X253300*
Y181200*
X250700D02*
X253300D01*
X250700Y181600D02*
X253300D01*
X250700Y182000D02*
X253300D01*
X250700Y182400D02*
X253300D01*
X250700Y182800D02*
X253300D01*
X250700Y183200D02*
X253300D01*
X250700Y183600D02*
X253300D01*
X250700Y184000D02*
X253300D01*
X250700Y184400D02*
X253300D01*
X250800Y181200D02*
Y184600D01*
X251200Y181200D02*
Y184600D01*
X251600Y181200D02*
Y184600D01*
X252000Y181200D02*
Y184600D01*
X252400Y181200D02*
Y184600D01*
X252800Y181200D02*
Y184600D01*
X253200Y181200D02*
Y184600D01*
X253300Y187400D02*
X250700D01*
Y190800*
X253300*
Y187400*
X250700Y187600D02*
X253300D01*
X250700Y188000D02*
X253300D01*
X250700Y188400D02*
X253300D01*
X250700Y188800D02*
X253300D01*
X250700Y189200D02*
X253300D01*
X250700Y189600D02*
X253300D01*
X250700Y190000D02*
X253300D01*
X250700Y190400D02*
X253300D01*
X250700Y190800D02*
X253300D01*
X250800Y187400D02*
Y190800D01*
X251200Y187400D02*
Y190800D01*
X251600Y187400D02*
Y190800D01*
X252000Y187400D02*
Y190800D01*
X252400Y187400D02*
Y190800D01*
X252800Y187400D02*
Y190800D01*
X253200Y187400D02*
Y190800D01*
X203300Y167200D02*
X200700D01*
Y170600*
X203300*
Y167200*
X200700D02*
X203300D01*
X200700Y167600D02*
X203300D01*
X200700Y168000D02*
X203300D01*
X200700Y168400D02*
X203300D01*
X200700Y168800D02*
X203300D01*
X200700Y169200D02*
X203300D01*
X200700Y169600D02*
X203300D01*
X200700Y170000D02*
X203300D01*
X200700Y170400D02*
X203300D01*
X200800Y167200D02*
Y170600D01*
X201200Y167200D02*
Y170600D01*
X201600Y167200D02*
Y170600D01*
X202000Y167200D02*
Y170600D01*
X202400Y167200D02*
Y170600D01*
X202800Y167200D02*
Y170600D01*
X203200Y167200D02*
Y170600D01*
X203300Y173400D02*
X200700D01*
Y176800*
X203300*
Y173400*
X200700Y173600D02*
X203300D01*
X200700Y174000D02*
X203300D01*
X200700Y174400D02*
X203300D01*
X200700Y174800D02*
X203300D01*
X200700Y175200D02*
X203300D01*
X200700Y175600D02*
X203300D01*
X200700Y176000D02*
X203300D01*
X200700Y176400D02*
X203300D01*
X200700Y176800D02*
X203300D01*
X200800Y173400D02*
Y176800D01*
X201200Y173400D02*
Y176800D01*
X201600Y173400D02*
Y176800D01*
X202000Y173400D02*
Y176800D01*
X202400Y173400D02*
Y176800D01*
X202800Y173400D02*
Y176800D01*
X203200Y173400D02*
Y176800D01*
X357700Y252800D02*
X360300D01*
Y249400*
X357700*
Y252800*
Y249600D02*
X360300D01*
X357700Y250000D02*
X360300D01*
X357700Y250400D02*
X360300D01*
X357700Y250800D02*
X360300D01*
X357700Y251200D02*
X360300D01*
X357700Y251600D02*
X360300D01*
X357700Y252000D02*
X360300D01*
X357700Y252400D02*
X360300D01*
X357700Y252800D02*
X360300D01*
X358000Y249400D02*
Y252800D01*
X358400Y249400D02*
Y252800D01*
X358800Y249400D02*
Y252800D01*
X359200Y249400D02*
Y252800D01*
X359600Y249400D02*
Y252800D01*
X360000Y249400D02*
Y252800D01*
X357700Y246600D02*
X360300D01*
Y243200*
X357700*
Y246600*
Y243200D02*
X360300D01*
X357700Y243600D02*
X360300D01*
X357700Y244000D02*
X360300D01*
X357700Y244400D02*
X360300D01*
X357700Y244800D02*
X360300D01*
X357700Y245200D02*
X360300D01*
X357700Y245600D02*
X360300D01*
X357700Y246000D02*
X360300D01*
X357700Y246400D02*
X360300D01*
X358000Y243200D02*
Y246600D01*
X358400Y243200D02*
Y246600D01*
X358800Y243200D02*
Y246600D01*
X359200Y243200D02*
Y246600D01*
X359600Y243200D02*
Y246600D01*
X360000Y243200D02*
Y246600D01*
X369300Y157200D02*
X366700D01*
Y160600*
X369300*
Y157200*
X366700D02*
X369300D01*
X366700Y157600D02*
X369300D01*
X366700Y158000D02*
X369300D01*
X366700Y158400D02*
X369300D01*
X366700Y158800D02*
X369300D01*
X366700Y159200D02*
X369300D01*
X366700Y159600D02*
X369300D01*
X366700Y160000D02*
X369300D01*
X366700Y160400D02*
X369300D01*
X366800Y157200D02*
Y160600D01*
X367200Y157200D02*
Y160600D01*
X367600Y157200D02*
Y160600D01*
X368000Y157200D02*
Y160600D01*
X368400Y157200D02*
Y160600D01*
X368800Y157200D02*
Y160600D01*
X369200Y157200D02*
Y160600D01*
X369300Y163400D02*
X366700D01*
Y166800*
X369300*
Y163400*
X366700Y163600D02*
X369300D01*
X366700Y164000D02*
X369300D01*
X366700Y164400D02*
X369300D01*
X366700Y164800D02*
X369300D01*
X366700Y165200D02*
X369300D01*
X366700Y165600D02*
X369300D01*
X366700Y166000D02*
X369300D01*
X366700Y166400D02*
X369300D01*
X366700Y166800D02*
X369300D01*
X366800Y163400D02*
Y166800D01*
X367200Y163400D02*
Y166800D01*
X367600Y163400D02*
Y166800D01*
X368000Y163400D02*
Y166800D01*
X368400Y163400D02*
Y166800D01*
X368800Y163400D02*
Y166800D01*
X369200Y163400D02*
Y166800D01*
X369300Y143200D02*
X366700D01*
Y146600*
X369300*
Y143200*
X366700D02*
X369300D01*
X366700Y143600D02*
X369300D01*
X366700Y144000D02*
X369300D01*
X366700Y144400D02*
X369300D01*
X366700Y144800D02*
X369300D01*
X366700Y145200D02*
X369300D01*
X366700Y145600D02*
X369300D01*
X366700Y146000D02*
X369300D01*
X366700Y146400D02*
X369300D01*
X366800Y143200D02*
Y146600D01*
X367200Y143200D02*
Y146600D01*
X367600Y143200D02*
Y146600D01*
X368000Y143200D02*
Y146600D01*
X368400Y143200D02*
Y146600D01*
X368800Y143200D02*
Y146600D01*
X369200Y143200D02*
Y146600D01*
X369300Y149400D02*
X366700D01*
Y152800*
X369300*
Y149400*
X366700Y149600D02*
X369300D01*
X366700Y150000D02*
X369300D01*
X366700Y150400D02*
X369300D01*
X366700Y150800D02*
X369300D01*
X366700Y151200D02*
X369300D01*
X366700Y151600D02*
X369300D01*
X366700Y152000D02*
X369300D01*
X366700Y152400D02*
X369300D01*
X366700Y152800D02*
X369300D01*
X366800Y149400D02*
Y152800D01*
X367200Y149400D02*
Y152800D01*
X367600Y149400D02*
Y152800D01*
X368000Y149400D02*
Y152800D01*
X368400Y149400D02*
Y152800D01*
X368800Y149400D02*
Y152800D01*
X369200Y149400D02*
Y152800D01*
X368300Y266200D02*
X365700D01*
Y269600*
X368300*
Y266200*
X365700Y266400D02*
X368300D01*
X365700Y266800D02*
X368300D01*
X365700Y267200D02*
X368300D01*
X365700Y267600D02*
X368300D01*
X365700Y268000D02*
X368300D01*
X365700Y268400D02*
X368300D01*
X365700Y268800D02*
X368300D01*
X365700Y269200D02*
X368300D01*
X365700Y269600D02*
X368300D01*
X366000Y266200D02*
Y269600D01*
X366400Y266200D02*
Y269600D01*
X366800Y266200D02*
Y269600D01*
X367200Y266200D02*
Y269600D01*
X367600Y266200D02*
Y269600D01*
X368000Y266200D02*
Y269600D01*
X368300Y272400D02*
X365700D01*
Y275800*
X368300*
Y272400*
X365700D02*
X368300D01*
X365700Y272800D02*
X368300D01*
X365700Y273200D02*
X368300D01*
X365700Y273600D02*
X368300D01*
X365700Y274000D02*
X368300D01*
X365700Y274400D02*
X368300D01*
X365700Y274800D02*
X368300D01*
X365700Y275200D02*
X368300D01*
X365700Y275600D02*
X368300D01*
X366000Y272400D02*
Y275800D01*
X366400Y272400D02*
Y275800D01*
X366800Y272400D02*
Y275800D01*
X367200Y272400D02*
Y275800D01*
X367600Y272400D02*
Y275800D01*
X368000Y272400D02*
Y275800D01*
X329800Y276300D02*
Y273700D01*
X326400*
Y276300*
X329800*
X326400Y274000D02*
X329800D01*
X326400Y274400D02*
X329800D01*
X326400Y274800D02*
X329800D01*
X326400Y275200D02*
X329800D01*
X326400Y275600D02*
X329800D01*
X326400Y276000D02*
X329800D01*
X326400Y273700D02*
Y276300D01*
X326800Y273700D02*
Y276300D01*
X327200Y273700D02*
Y276300D01*
X327600Y273700D02*
Y276300D01*
X328000Y273700D02*
Y276300D01*
X328400Y273700D02*
Y276300D01*
X328800Y273700D02*
Y276300D01*
X329200Y273700D02*
Y276300D01*
X329600Y273700D02*
Y276300D01*
X323600D02*
Y273700D01*
X320200*
Y276300*
X323600*
X320200Y274000D02*
X323600D01*
X320200Y274400D02*
X323600D01*
X320200Y274800D02*
X323600D01*
X320200Y275200D02*
X323600D01*
X320200Y275600D02*
X323600D01*
X320200Y276000D02*
X323600D01*
X320400Y273700D02*
Y276300D01*
X320800Y273700D02*
Y276300D01*
X321200Y273700D02*
Y276300D01*
X321600Y273700D02*
Y276300D01*
X322000Y273700D02*
Y276300D01*
X322400Y273700D02*
Y276300D01*
X322800Y273700D02*
Y276300D01*
X323200Y273700D02*
Y276300D01*
X323600Y273700D02*
Y276300D01*
X363700Y252800D02*
X366300D01*
Y249400*
X363700*
Y252800*
Y249600D02*
X366300D01*
X363700Y250000D02*
X366300D01*
X363700Y250400D02*
X366300D01*
X363700Y250800D02*
X366300D01*
X363700Y251200D02*
X366300D01*
X363700Y251600D02*
X366300D01*
X363700Y252000D02*
X366300D01*
X363700Y252400D02*
X366300D01*
X363700Y252800D02*
X366300D01*
X364000Y249400D02*
Y252800D01*
X364400Y249400D02*
Y252800D01*
X364800Y249400D02*
Y252800D01*
X365200Y249400D02*
Y252800D01*
X365600Y249400D02*
Y252800D01*
X366000Y249400D02*
Y252800D01*
X363700Y246600D02*
X366300D01*
Y243200*
X363700*
Y246600*
Y243200D02*
X366300D01*
X363700Y243600D02*
X366300D01*
X363700Y244000D02*
X366300D01*
X363700Y244400D02*
X366300D01*
X363700Y244800D02*
X366300D01*
X363700Y245200D02*
X366300D01*
X363700Y245600D02*
X366300D01*
X363700Y246000D02*
X366300D01*
X363700Y246400D02*
X366300D01*
X364000Y243200D02*
Y246600D01*
X364400Y243200D02*
Y246600D01*
X364800Y243200D02*
Y246600D01*
X365200Y243200D02*
Y246600D01*
X365600Y243200D02*
Y246600D01*
X366000Y243200D02*
Y246600D01*
X117000Y125600D02*
Y123000D01*
X113600*
Y125600*
X117000*
X113600Y123200D02*
X117000D01*
X113600Y123600D02*
X117000D01*
X113600Y124000D02*
X117000D01*
X113600Y124400D02*
X117000D01*
X113600Y124800D02*
X117000D01*
X113600Y125200D02*
X117000D01*
X113600Y125600D02*
X117000D01*
X113600Y123000D02*
Y125600D01*
X114000Y123000D02*
Y125600D01*
X114400Y123000D02*
Y125600D01*
X114800Y123000D02*
Y125600D01*
X115200Y123000D02*
Y125600D01*
X115600Y123000D02*
Y125600D01*
X116000Y123000D02*
Y125600D01*
X116400Y123000D02*
Y125600D01*
X116800Y123000D02*
Y125600D01*
X110800D02*
Y123000D01*
X107400*
Y125600*
X110800*
X107400Y123200D02*
X110800D01*
X107400Y123600D02*
X110800D01*
X107400Y124000D02*
X110800D01*
X107400Y124400D02*
X110800D01*
X107400Y124800D02*
X110800D01*
X107400Y125200D02*
X110800D01*
X107400Y125600D02*
X110800D01*
X107600Y123000D02*
Y125600D01*
X108000Y123000D02*
Y125600D01*
X108400Y123000D02*
Y125600D01*
X108800Y123000D02*
Y125600D01*
X109200Y123000D02*
Y125600D01*
X109600Y123000D02*
Y125600D01*
X110000Y123000D02*
Y125600D01*
X110400Y123000D02*
Y125600D01*
X110800Y123000D02*
Y125600D01*
X131000D02*
Y123000D01*
X127600*
Y125600*
X131000*
X127600Y123200D02*
X131000D01*
X127600Y123600D02*
X131000D01*
X127600Y124000D02*
X131000D01*
X127600Y124400D02*
X131000D01*
X127600Y124800D02*
X131000D01*
X127600Y125200D02*
X131000D01*
X127600Y125600D02*
X131000D01*
X127600Y123000D02*
Y125600D01*
X128000Y123000D02*
Y125600D01*
X128400Y123000D02*
Y125600D01*
X128800Y123000D02*
Y125600D01*
X129200Y123000D02*
Y125600D01*
X129600Y123000D02*
Y125600D01*
X130000Y123000D02*
Y125600D01*
X130400Y123000D02*
Y125600D01*
X130800Y123000D02*
Y125600D01*
X124800D02*
Y123000D01*
X121400*
Y125600*
X124800*
X121400Y123200D02*
X124800D01*
X121400Y123600D02*
X124800D01*
X121400Y124000D02*
X124800D01*
X121400Y124400D02*
X124800D01*
X121400Y124800D02*
X124800D01*
X121400Y125200D02*
X124800D01*
X121400Y125600D02*
X124800D01*
X121600Y123000D02*
Y125600D01*
X122000Y123000D02*
Y125600D01*
X122400Y123000D02*
Y125600D01*
X122800Y123000D02*
Y125600D01*
X123200Y123000D02*
Y125600D01*
X123600Y123000D02*
Y125600D01*
X124000Y123000D02*
Y125600D01*
X124400Y123000D02*
Y125600D01*
X124800Y123000D02*
Y125600D01*
X117000Y133600D02*
Y131000D01*
X113600*
Y133600*
X117000*
X113600Y131200D02*
X117000D01*
X113600Y131600D02*
X117000D01*
X113600Y132000D02*
X117000D01*
X113600Y132400D02*
X117000D01*
X113600Y132800D02*
X117000D01*
X113600Y133200D02*
X117000D01*
X113600Y133600D02*
X117000D01*
X113600Y131000D02*
Y133600D01*
X114000Y131000D02*
Y133600D01*
X114400Y131000D02*
Y133600D01*
X114800Y131000D02*
Y133600D01*
X115200Y131000D02*
Y133600D01*
X115600Y131000D02*
Y133600D01*
X116000Y131000D02*
Y133600D01*
X116400Y131000D02*
Y133600D01*
X116800Y131000D02*
Y133600D01*
X110800D02*
Y131000D01*
X107400*
Y133600*
X110800*
X107400Y131200D02*
X110800D01*
X107400Y131600D02*
X110800D01*
X107400Y132000D02*
X110800D01*
X107400Y132400D02*
X110800D01*
X107400Y132800D02*
X110800D01*
X107400Y133200D02*
X110800D01*
X107400Y133600D02*
X110800D01*
X107600Y131000D02*
Y133600D01*
X108000Y131000D02*
Y133600D01*
X108400Y131000D02*
Y133600D01*
X108800Y131000D02*
Y133600D01*
X109200Y131000D02*
Y133600D01*
X109600Y131000D02*
Y133600D01*
X110000Y131000D02*
Y133600D01*
X110400Y131000D02*
Y133600D01*
X110800Y131000D02*
Y133600D01*
X131000D02*
Y131000D01*
X127600*
Y133600*
X131000*
X127600Y131200D02*
X131000D01*
X127600Y131600D02*
X131000D01*
X127600Y132000D02*
X131000D01*
X127600Y132400D02*
X131000D01*
X127600Y132800D02*
X131000D01*
X127600Y133200D02*
X131000D01*
X127600Y133600D02*
X131000D01*
X127600Y131000D02*
Y133600D01*
X128000Y131000D02*
Y133600D01*
X128400Y131000D02*
Y133600D01*
X128800Y131000D02*
Y133600D01*
X129200Y131000D02*
Y133600D01*
X129600Y131000D02*
Y133600D01*
X130000Y131000D02*
Y133600D01*
X130400Y131000D02*
Y133600D01*
X130800Y131000D02*
Y133600D01*
X124800D02*
Y131000D01*
X121400*
Y133600*
X124800*
X121400Y131200D02*
X124800D01*
X121400Y131600D02*
X124800D01*
X121400Y132000D02*
X124800D01*
X121400Y132400D02*
X124800D01*
X121400Y132800D02*
X124800D01*
X121400Y133200D02*
X124800D01*
X121400Y133600D02*
X124800D01*
X121600Y131000D02*
Y133600D01*
X122000Y131000D02*
Y133600D01*
X122400Y131000D02*
Y133600D01*
X122800Y131000D02*
Y133600D01*
X123200Y131000D02*
Y133600D01*
X123600Y131000D02*
Y133600D01*
X124000Y131000D02*
Y133600D01*
X124400Y131000D02*
Y133600D01*
X124800Y131000D02*
Y133600D01*
X117000Y117600D02*
Y115000D01*
X113600*
Y117600*
X117000*
X113600Y115200D02*
X117000D01*
X113600Y115600D02*
X117000D01*
X113600Y116000D02*
X117000D01*
X113600Y116400D02*
X117000D01*
X113600Y116800D02*
X117000D01*
X113600Y117200D02*
X117000D01*
X113600Y117600D02*
X117000D01*
X113600Y115000D02*
Y117600D01*
X114000Y115000D02*
Y117600D01*
X114400Y115000D02*
Y117600D01*
X114800Y115000D02*
Y117600D01*
X115200Y115000D02*
Y117600D01*
X115600Y115000D02*
Y117600D01*
X116000Y115000D02*
Y117600D01*
X116400Y115000D02*
Y117600D01*
X116800Y115000D02*
Y117600D01*
X110800D02*
Y115000D01*
X107400*
Y117600*
X110800*
X107400Y115200D02*
X110800D01*
X107400Y115600D02*
X110800D01*
X107400Y116000D02*
X110800D01*
X107400Y116400D02*
X110800D01*
X107400Y116800D02*
X110800D01*
X107400Y117200D02*
X110800D01*
X107400Y117600D02*
X110800D01*
X107600Y115000D02*
Y117600D01*
X108000Y115000D02*
Y117600D01*
X108400Y115000D02*
Y117600D01*
X108800Y115000D02*
Y117600D01*
X109200Y115000D02*
Y117600D01*
X109600Y115000D02*
Y117600D01*
X110000Y115000D02*
Y117600D01*
X110400Y115000D02*
Y117600D01*
X110800Y115000D02*
Y117600D01*
X131000D02*
Y115000D01*
X127600*
Y117600*
X131000*
X127600Y115200D02*
X131000D01*
X127600Y115600D02*
X131000D01*
X127600Y116000D02*
X131000D01*
X127600Y116400D02*
X131000D01*
X127600Y116800D02*
X131000D01*
X127600Y117200D02*
X131000D01*
X127600Y117600D02*
X131000D01*
X127600Y115000D02*
Y117600D01*
X128000Y115000D02*
Y117600D01*
X128400Y115000D02*
Y117600D01*
X128800Y115000D02*
Y117600D01*
X129200Y115000D02*
Y117600D01*
X129600Y115000D02*
Y117600D01*
X130000Y115000D02*
Y117600D01*
X130400Y115000D02*
Y117600D01*
X130800Y115000D02*
Y117600D01*
X124800D02*
Y115000D01*
X121400*
Y117600*
X124800*
X121400Y115200D02*
X124800D01*
X121400Y115600D02*
X124800D01*
X121400Y116000D02*
X124800D01*
X121400Y116400D02*
X124800D01*
X121400Y116800D02*
X124800D01*
X121400Y117200D02*
X124800D01*
X121400Y117600D02*
X124800D01*
X121600Y115000D02*
Y117600D01*
X122000Y115000D02*
Y117600D01*
X122400Y115000D02*
Y117600D01*
X122800Y115000D02*
Y117600D01*
X123200Y115000D02*
Y117600D01*
X123600Y115000D02*
Y117600D01*
X124000Y115000D02*
Y117600D01*
X124400Y115000D02*
Y117600D01*
X124800Y115000D02*
Y117600D01*
X293700Y263500D02*
Y266100D01*
X297100*
Y263500*
X293700*
Y263600D02*
X297100D01*
X293700Y264000D02*
X297100D01*
X293700Y264400D02*
X297100D01*
X293700Y264800D02*
X297100D01*
X293700Y265200D02*
X297100D01*
X293700Y265600D02*
X297100D01*
X293700Y266000D02*
X297100D01*
X294000Y263500D02*
Y266100D01*
X294400Y263500D02*
Y266100D01*
X294800Y263500D02*
Y266100D01*
X295200Y263500D02*
Y266100D01*
X295600Y263500D02*
Y266100D01*
X296000Y263500D02*
Y266100D01*
X296400Y263500D02*
Y266100D01*
X296800Y263500D02*
Y266100D01*
X299900Y263500D02*
Y266100D01*
X303300*
Y263500*
X299900*
Y263600D02*
X303300D01*
X299900Y264000D02*
X303300D01*
X299900Y264400D02*
X303300D01*
X299900Y264800D02*
X303300D01*
X299900Y265200D02*
X303300D01*
X299900Y265600D02*
X303300D01*
X299900Y266000D02*
X303300D01*
X300000Y263500D02*
Y266100D01*
X300400Y263500D02*
Y266100D01*
X300800Y263500D02*
Y266100D01*
X301200Y263500D02*
Y266100D01*
X301600Y263500D02*
Y266100D01*
X302000Y263500D02*
Y266100D01*
X302400Y263500D02*
Y266100D01*
X302800Y263500D02*
Y266100D01*
X303200Y263500D02*
Y266100D01*
G54D14*
X206800Y197200D02*
X211200D01*
Y191800*
X206800*
Y197200*
Y191800D02*
X211200D01*
X206800Y192400D02*
X211200D01*
X206800Y193000D02*
X211200D01*
X206800Y193600D02*
X211200D01*
X206800Y194200D02*
X211200D01*
X206800Y194800D02*
X211200D01*
X206800Y195400D02*
X211200D01*
X206800Y196000D02*
X211200D01*
X206800Y196600D02*
X211200D01*
X206800Y197200D02*
X211200D01*
X206800Y191800D02*
Y197200D01*
X207400Y191800D02*
Y197200D01*
X208000Y191800D02*
Y197200D01*
X208600Y191800D02*
Y197200D01*
X209200Y191800D02*
Y197200D01*
X209800Y191800D02*
Y197200D01*
X210400Y191800D02*
Y197200D01*
X211000Y191800D02*
Y197200D01*
X206800Y188200D02*
X211200D01*
Y182800*
X206800*
Y188200*
Y182800D02*
X211200D01*
X206800Y183400D02*
X211200D01*
X206800Y184000D02*
X211200D01*
X206800Y184600D02*
X211200D01*
X206800Y185200D02*
X211200D01*
X206800Y185800D02*
X211200D01*
X206800Y186400D02*
X211200D01*
X206800Y187000D02*
X211200D01*
X206800Y187600D02*
X211200D01*
X206800Y188200D02*
X211200D01*
X206800Y182800D02*
Y188200D01*
X207400Y182800D02*
Y188200D01*
X208000Y182800D02*
Y188200D01*
X208600Y182800D02*
Y188200D01*
X209200Y182800D02*
Y188200D01*
X209800Y182800D02*
Y188200D01*
X210400Y182800D02*
Y188200D01*
X211000Y182800D02*
Y188200D01*
X259000Y221200D02*
X263400D01*
Y215800*
X259000*
Y221200*
Y215800D02*
X263400D01*
X259000Y216400D02*
X263400D01*
X259000Y217000D02*
X263400D01*
X259000Y217600D02*
X263400D01*
X259000Y218200D02*
X263400D01*
X259000Y218800D02*
X263400D01*
X259000Y219400D02*
X263400D01*
X259000Y220000D02*
X263400D01*
X259000Y220600D02*
X263400D01*
X259000Y221200D02*
X263400D01*
X259000Y215800D02*
Y221200D01*
X259600Y215800D02*
Y221200D01*
X260200Y215800D02*
Y221200D01*
X260800Y215800D02*
Y221200D01*
X261400Y215800D02*
Y221200D01*
X262000Y215800D02*
Y221200D01*
X262600Y215800D02*
Y221200D01*
X263200Y215800D02*
Y221200D01*
X259000Y212200D02*
X263400D01*
Y206800*
X259000*
Y212200*
Y206800D02*
X263400D01*
X259000Y207400D02*
X263400D01*
X259000Y208000D02*
X263400D01*
X259000Y208600D02*
X263400D01*
X259000Y209200D02*
X263400D01*
X259000Y209800D02*
X263400D01*
X259000Y210400D02*
X263400D01*
X259000Y211000D02*
X263400D01*
X259000Y211600D02*
X263400D01*
X259000Y212200D02*
X263400D01*
X259000Y206800D02*
Y212200D01*
X259600Y206800D02*
Y212200D01*
X260200Y206800D02*
Y212200D01*
X260800Y206800D02*
Y212200D01*
X261400Y206800D02*
Y212200D01*
X262000Y206800D02*
Y212200D01*
X262600Y206800D02*
Y212200D01*
X263200Y206800D02*
Y212200D01*
X254400Y206800D02*
X250000D01*
Y212200*
X254400*
Y206800*
X250000D02*
X254400D01*
X250000Y207400D02*
X254400D01*
X250000Y208000D02*
X254400D01*
X250000Y208600D02*
X254400D01*
X250000Y209200D02*
X254400D01*
X250000Y209800D02*
X254400D01*
X250000Y210400D02*
X254400D01*
X250000Y211000D02*
X254400D01*
X250000Y211600D02*
X254400D01*
X250000Y212200D02*
X254400D01*
X250000Y206800D02*
Y212200D01*
X250600Y206800D02*
Y212200D01*
X251200Y206800D02*
Y212200D01*
X251800Y206800D02*
Y212200D01*
X252400Y206800D02*
Y212200D01*
X253000Y206800D02*
Y212200D01*
X253600Y206800D02*
Y212200D01*
X254200Y206800D02*
Y212200D01*
X254400Y215800D02*
X250000D01*
Y221200*
X254400*
Y215800*
X250000D02*
X254400D01*
X250000Y216400D02*
X254400D01*
X250000Y217000D02*
X254400D01*
X250000Y217600D02*
X254400D01*
X250000Y218200D02*
X254400D01*
X250000Y218800D02*
X254400D01*
X250000Y219400D02*
X254400D01*
X250000Y220000D02*
X254400D01*
X250000Y220600D02*
X254400D01*
X250000Y221200D02*
X254400D01*
X250000Y215800D02*
Y221200D01*
X250600Y215800D02*
Y221200D01*
X251200Y215800D02*
Y221200D01*
X251800Y215800D02*
Y221200D01*
X252400Y215800D02*
Y221200D01*
X253000Y215800D02*
Y221200D01*
X253600Y215800D02*
Y221200D01*
X254200Y215800D02*
Y221200D01*
X211200Y164800D02*
X206800D01*
Y170200*
X211200*
Y164800*
X206800D02*
X211200D01*
X206800Y165400D02*
X211200D01*
X206800Y166000D02*
X211200D01*
X206800Y166600D02*
X211200D01*
X206800Y167200D02*
X211200D01*
X206800Y167800D02*
X211200D01*
X206800Y168400D02*
X211200D01*
X206800Y169000D02*
X211200D01*
X206800Y169600D02*
X211200D01*
X206800Y170200D02*
X211200D01*
X206800Y164800D02*
Y170200D01*
X207400Y164800D02*
Y170200D01*
X208000Y164800D02*
Y170200D01*
X208600Y164800D02*
Y170200D01*
X209200Y164800D02*
Y170200D01*
X209800Y164800D02*
Y170200D01*
X210400Y164800D02*
Y170200D01*
X211000Y164800D02*
Y170200D01*
X211200Y173800D02*
X206800D01*
Y179200*
X211200*
Y173800*
X206800D02*
X211200D01*
X206800Y174400D02*
X211200D01*
X206800Y175000D02*
X211200D01*
X206800Y175600D02*
X211200D01*
X206800Y176200D02*
X211200D01*
X206800Y176800D02*
X211200D01*
X206800Y177400D02*
X211200D01*
X206800Y178000D02*
X211200D01*
X206800Y178600D02*
X211200D01*
X206800Y179200D02*
X211200D01*
X206800Y173800D02*
Y179200D01*
X207400Y173800D02*
Y179200D01*
X208000Y173800D02*
Y179200D01*
X208600Y173800D02*
Y179200D01*
X209200Y173800D02*
Y179200D01*
X209800Y173800D02*
Y179200D01*
X210400Y173800D02*
Y179200D01*
X211000Y173800D02*
Y179200D01*
G54D15*
X323244Y216252D03*
Y219402D03*
Y222551D03*
Y225701D03*
Y228850D03*
Y232000D03*
Y235150D03*
Y238299D03*
Y241449D03*
Y244598D03*
Y247748D03*
X278756D03*
Y244598D03*
Y241449D03*
Y238299D03*
Y235150D03*
Y232000D03*
Y228850D03*
Y225701D03*
Y222551D03*
Y219402D03*
Y216252D03*
G54D16*
X316748Y254244D03*
X313598D03*
X310449D03*
X307299D03*
X304150D03*
X301000D03*
X297850D03*
X294701D03*
X291551D03*
X288402D03*
X285252D03*
Y209756D03*
X288402D03*
X291551D03*
X294701D03*
X297850D03*
X301000D03*
X304150D03*
X307299D03*
X310449D03*
X313598D03*
X316748D03*
G54D17*
X270500Y276976D03*
X275500D03*
X280500D03*
X285500D03*
Y299024D03*
X280500D03*
X275500D03*
X270500D03*
G54D18*
X152400Y189650D02*
Y194850D01*
X157600*
Y189650*
X152400*
Y190400D02*
X157600D01*
X152400Y191200D02*
X157600D01*
X152400Y192000D02*
X157600D01*
X152400Y192800D02*
X157600D01*
X152400Y193600D02*
X157600D01*
X152400Y194400D02*
X157600D01*
X152800Y189650D02*
Y194850D01*
X153600Y189650D02*
Y194850D01*
X154400Y189650D02*
Y194850D01*
X155200Y189650D02*
Y194850D01*
X156000Y189650D02*
Y194850D01*
X156800Y189650D02*
Y194850D01*
X157600Y189650D02*
Y194850D01*
X152400Y203150D02*
Y208350D01*
X157600*
Y203150*
X152400*
Y203200D02*
X157600D01*
X152400Y204000D02*
X157600D01*
X152400Y204800D02*
X157600D01*
X152400Y205600D02*
X157600D01*
X152400Y206400D02*
X157600D01*
X152400Y207200D02*
X157600D01*
X152400Y208000D02*
X157600D01*
X152800Y203150D02*
Y208350D01*
X153600Y203150D02*
Y208350D01*
X154400Y203150D02*
Y208350D01*
X155200Y203150D02*
Y208350D01*
X156000Y203150D02*
Y208350D01*
X156800Y203150D02*
Y208350D01*
X157600Y203150D02*
Y208350D01*
X152400Y155650D02*
Y160850D01*
X157600*
Y155650*
X152400*
Y156000D02*
X157600D01*
X152400Y156800D02*
X157600D01*
X152400Y157600D02*
X157600D01*
X152400Y158400D02*
X157600D01*
X152400Y159200D02*
X157600D01*
X152400Y160000D02*
X157600D01*
X152400Y160800D02*
X157600D01*
X152800Y155650D02*
Y160850D01*
X153600Y155650D02*
Y160850D01*
X154400Y155650D02*
Y160850D01*
X155200Y155650D02*
Y160850D01*
X156000Y155650D02*
Y160850D01*
X156800Y155650D02*
Y160850D01*
X157600Y155650D02*
Y160850D01*
X152400Y169150D02*
Y174350D01*
X157600*
Y169150*
X152400*
Y169600D02*
X157600D01*
X152400Y170400D02*
X157600D01*
X152400Y171200D02*
X157600D01*
X152400Y172000D02*
X157600D01*
X152400Y172800D02*
X157600D01*
X152400Y173600D02*
X157600D01*
X152800Y169150D02*
Y174350D01*
X153600Y169150D02*
Y174350D01*
X154400Y169150D02*
Y174350D01*
X155200Y169150D02*
Y174350D01*
X156000Y169150D02*
Y174350D01*
X156800Y169150D02*
Y174350D01*
X157600Y169150D02*
Y174350D01*
G54D19*
X216250Y115250D02*
Y120750D01*
X221750*
Y115250*
X216250*
Y116000D02*
X221750D01*
X216250Y117000D02*
X221750D01*
X216250Y118000D02*
X221750D01*
X216250Y119000D02*
X221750D01*
X216250Y120000D02*
X221750D01*
X217000Y115250D02*
Y120750D01*
X218000Y115250D02*
Y120750D01*
X219000Y115250D02*
Y120750D01*
X220000Y115250D02*
Y120750D01*
X221000Y115250D02*
Y120750D01*
X142787Y244094D02*
X137213D01*
Y249906*
X142787*
Y244094*
X137213Y245000D02*
X142787D01*
X137213Y246000D02*
X142787D01*
X137213Y247000D02*
X142787D01*
X137213Y248000D02*
X142787D01*
X137213Y249000D02*
X142787D01*
X138000Y244094D02*
Y249906D01*
X139000Y244094D02*
Y249906D01*
X140000Y244094D02*
Y249906D01*
X141000Y244094D02*
Y249906D01*
X142000Y244094D02*
Y249906D01*
X142787Y256732D02*
X137213D01*
Y262543*
X142787*
Y256732*
X137213Y257000D02*
X142787D01*
X137213Y258000D02*
X142787D01*
X137213Y259000D02*
X142787D01*
X137213Y260000D02*
X142787D01*
X137213Y261000D02*
X142787D01*
X137213Y262000D02*
X142787D01*
X138000Y256732D02*
Y262543D01*
X139000Y256732D02*
Y262543D01*
X140000Y256732D02*
Y262543D01*
X141000Y256732D02*
Y262543D01*
X142000Y256732D02*
Y262543D01*
X270500Y150500D02*
Y155500D01*
X275500*
Y150500*
X270500*
Y151000D02*
X275500D01*
X270500Y152000D02*
X275500D01*
X270500Y153000D02*
X275500D01*
X270500Y154000D02*
X275500D01*
X270500Y155000D02*
X275500D01*
X271000Y150500D02*
Y155500D01*
X272000Y150500D02*
Y155500D01*
X273000Y150500D02*
Y155500D01*
X274000Y150500D02*
Y155500D01*
X275000Y150500D02*
Y155500D01*
X115300Y108300D02*
X122100D01*
X128300D02*
X128700D01*
X131300Y110900*
X135100*
X115300Y116300D02*
X123100D01*
X129300D02*
X135200D01*
X219000Y118000D02*
X224100Y123100D01*
X241775*
X264200Y145525*
Y163300*
X239079Y118000D02*
X265900Y144821D01*
Y187100*
X115300Y124300D02*
X123100D01*
X129300D02*
X135200D01*
X219000Y127843D02*
X225872Y134715D01*
X250985*
X262500Y146230*
Y162596*
X115300Y132300D02*
X123100D01*
X129300D02*
X135200D01*
X283000Y142961D02*
X289461Y136500D01*
X319018*
X323842Y141324*
X326324*
X328900Y143900*
X293000Y142961D02*
X297261Y138700D01*
X318813*
X323356Y143242*
Y144856*
X325300Y146800*
X303000Y142961D02*
X318761D01*
X320200Y144400*
X347602Y143780D02*
Y137800D01*
X356528Y128874*
X387000*
X357839Y143780D02*
Y137900D01*
X359839Y135900*
X378278*
X387000Y144622*
X355280Y143780D02*
X355435D01*
Y145608*
X350161Y143780D02*
X350335D01*
Y145626*
X119300Y152300D02*
X123450D01*
X123750Y152000*
X127900*
X134100D02*
X134500D01*
X141500Y145000*
X175500*
X283000Y153000D02*
X288300Y147700D01*
X316800*
X364100Y151200D02*
X368000D01*
Y151100*
X119300Y165300D02*
X123450D01*
X123750Y165000*
X127900*
X134100D02*
X139000D01*
X350161Y166220D02*
Y173683D01*
X371100Y194622*
X387000*
X352846Y166220D02*
X352720D01*
X352846*
Y164421*
X355280Y166220D02*
X355435D01*
Y164392*
X357839Y166220D02*
Y177444D01*
X367143Y186748*
X387000*
X363900Y158900D02*
X368000D01*
Y165100D02*
X368100D01*
Y165600*
X150100Y176300D02*
X150188Y176388D01*
X150188D02*
X154912Y171662D01*
X154912D02*
X155000D01*
X155000D02*
Y171750D01*
X282900Y173000D02*
Y186900D01*
X283000Y187000*
X302100Y173000D02*
Y186900D01*
X302200Y187000*
X322550Y175537D02*
Y199055D01*
X324738Y201243*
Y208562*
X322550Y175537D02*
X335587Y162500D01*
X350925*
X352846Y164421*
Y166220*
X320100Y172200D02*
X333400Y158900D01*
X352800*
X355280Y161380*
Y166220*
X320100Y172200D02*
Y200000D01*
X321600Y201500*
Y205300*
X326900Y177700D02*
X332100Y182900D01*
Y223325*
X328900Y173500D02*
X330809Y175409D01*
Y178509*
X333800Y181500*
Y224792*
X333000Y172700D02*
Y176305D01*
X335500Y178805*
Y225496*
X344900Y172100D02*
X344992Y172392D01*
X347602Y169781*
Y166220*
X339200Y169000D02*
Y169228D01*
X343709*
X345043Y167894*
Y166220*
X362000Y172100D02*
X361731Y172154D01*
X367846*
X368000Y172000*
Y165100*
X361500Y172200D02*
X361731Y172154D01*
X252000Y182900D02*
X252100Y183000D01*
X260000*
X283000Y187000D02*
X291551Y195551D01*
Y209756*
X327600Y183400D02*
X330400Y186200D01*
X243631Y190500D02*
Y181465D01*
X262500Y162596*
X247500Y195900D02*
Y180000D01*
X264200Y163300*
X247500Y195900D02*
X251600Y200000D01*
X266796*
X271900Y205104*
X284161*
X285252Y206195*
Y209756*
X252000Y189100D02*
Y194000D01*
X265900Y187100D02*
X260000Y193000D01*
X264372Y197372*
X266572*
X271600Y202400*
X287100*
X288402Y203702*
Y209756*
X327100Y189200D02*
X328650Y190750D01*
Y214800*
X155000Y205750D02*
Y205787D01*
X155000D02*
X155037D01*
X301000Y208200D02*
X305200Y204000D01*
X310300Y204200D02*
X310374D01*
Y209756*
X310449*
X149600Y211300D02*
X149563Y211263D01*
X149563D02*
X155037Y205787D01*
X261200Y209500D02*
X267800D01*
X294701Y209756D02*
X294700Y209755D01*
Y194500*
X302200Y187000*
X297800Y214600D02*
X297825D01*
Y209756*
X297850*
Y205150*
X299000Y204000*
X307299Y209756D02*
Y215099D01*
X307300Y215100*
Y219400*
X304150Y209756D02*
X304175D01*
Y215500*
X304200*
X316748Y209756D02*
Y169752D01*
X331100Y155400*
X350200*
X355280Y150320*
Y143780*
X313598Y209756D02*
Y168602D01*
X329200Y153000*
X348200*
X350161Y151039*
Y143780*
X322900Y210400D02*
X324738Y208562D01*
X269000Y227100D02*
Y226700D01*
X271600*
X272900Y225400*
X278756*
Y225701*
Y219402D02*
X284498D01*
X287200Y216700*
X278756Y225701D02*
Y225700D01*
X284500*
X284500*
X296584Y221900D02*
X316084Y241400D01*
X319235*
X319328Y241306*
X319471Y241449*
X323244*
X292800Y221900D02*
Y248691D01*
X292800D02*
X294701Y250591D01*
Y254244*
X296151Y221506D02*
X301000Y216657D01*
Y209756*
X323244Y225701D02*
X329724D01*
X332100Y223325*
X323244Y222551D02*
Y222643D01*
X324714*
X323244Y222551D02*
Y222495D01*
X328405*
X330400Y220500*
Y186200*
X323244Y219402D02*
X327898D01*
X328650Y218650*
Y214800*
X323244Y219402D02*
Y219443D01*
X324664*
X354100Y224700D02*
X350950Y227850D01*
Y236450*
X359000Y244500*
Y244900*
X354100Y224700D02*
X360400Y231000D01*
X388000*
X263500Y229500D02*
X266300D01*
X267500Y230700*
X271700*
X273625Y232625*
X274666*
X277284Y235243*
X278756*
Y235150*
X264300Y236200D02*
X268013D01*
X273262Y241449*
X278756*
X274200Y228500D02*
Y228675D01*
X278756*
Y228850*
X270600Y234300D02*
X274599Y238299D01*
X278756*
X317900Y238300D02*
X317900D01*
X323244*
Y238299*
X331601*
X333000Y236900*
X323244Y235150D02*
X328250D01*
X337200Y226200*
Y175200*
X323244Y232000D02*
Y232043D01*
X324665*
X323244Y232000D02*
X328996D01*
X335500Y225496*
X323244Y228850D02*
X329741D01*
X333800Y224792*
X354000Y231500D02*
X361374Y238874D01*
X365200*
X267900Y240400D02*
X272098Y244598D01*
X278756*
X323244Y241449D02*
X331349D01*
X333000Y243100*
X365200Y238874D02*
X388000D01*
X365000Y244900D02*
X365200D01*
Y238874*
X279600Y258400D02*
X273800Y252600D01*
Y249200*
X275252Y247748*
X278756*
X297800Y249300D02*
X297825D01*
Y254244*
X297850*
X294701D02*
Y264101D01*
X295400Y264800*
X307299Y254244D02*
X307069D01*
Y259169*
X313500Y265600*
X340800*
X344900Y269700*
Y283200*
X350700Y289000*
X310449Y254244D02*
Y258649D01*
X314900Y263100*
X342300*
X347900Y268700*
Y278583*
X356351Y287035*
X358220*
Y286839*
X313598Y254244D02*
Y257898D01*
X316300Y260600*
X343700*
X350600Y267500*
Y275900*
X353861Y279161*
X358220*
X231300Y262100D02*
X241400D01*
X244100Y259400*
Y249600*
X248700Y245000*
X367000Y263600D02*
Y267900D01*
X275486Y272893D02*
X288402Y259977D01*
Y254244*
X275486Y272893D02*
Y276962D01*
X275500Y276976*
X270500D02*
Y274600D01*
Y276976*
Y272093*
X283200Y259393*
Y257674*
X285252Y255622*
Y254244*
X285500Y276976D02*
Y272200D01*
X287600Y270100*
X280500Y276976D02*
X280900Y277376D01*
Y288300*
X280500Y276976D02*
Y271490D01*
X291551Y260439*
Y254244*
X321500Y275000D02*
X321900D01*
X322000*
Y269000*
X335780Y276602D02*
X335780D01*
X335780D02*
X340700D01*
X340700D02*
Y276600D01*
X367000Y273700D02*
Y274100D01*
X363475Y278275D02*
X363600Y278400D01*
X367000Y274100D02*
X367125D01*
Y274625*
X275100Y284200D02*
Y277376D01*
X275500Y276976*
X335780Y286839D02*
X343161D01*
X356945Y300622*
X387000*
X358220Y284280D02*
X378531D01*
X387000Y292748*
X358220Y281720D02*
X383846D01*
X387000Y284874*
X264000Y292900D02*
X267900D01*
X285500D02*
Y299024D01*
X335780Y289398D02*
X340698D01*
X342300Y291000*
Y291400*
X358220Y291957D02*
X359400D01*
Y295900*
X358220Y289398D02*
Y289399D01*
X363600D02*
Y289400D01*
X280500Y299024D02*
Y307900D01*
X282126Y309526*
Y320000*
X274252D02*
Y309048D01*
X275500Y307800*
Y299024*
X134539Y202000D02*
G75*
G03X134539I-3759J0D01*
G01X333700Y315000D02*
G03X333700I-8700J0D01*
G01Y115000D02*
G03X333700I-8700J0D01*
G01X297791Y113283D02*
G03X297791I-4200J0D01*
G01X272200D02*
G03X272200I-4200J0D01*
G01Y131000D02*
G03X272200I-4200J0D01*
G01X277200Y142961D02*
G03X277200I-4200J0D01*
G01X171200Y284000D02*
G03X171200I-4200J0D01*
G01X233500Y302700D02*
G03X233500I-8200J0D01*
G01X183700Y315000D02*
G03X183700I-8700J0D01*
G01X123900Y301700D02*
G03X123900I-7900J0D01*
G01X312500Y160500D02*
Y167296D01*
X312396Y167399*
X311898Y168602D02*
G03X312396Y167399I1700J-0D01*
G01X311898Y168602D02*
Y200500D01*
X298500*
Y195500*
X306500*
Y167500*
X298500*
Y170628*
X297600Y170300D02*
G03X298500Y170628I0J1400D01*
G01X297600Y170300D02*
X294200D01*
X292800Y171700D02*
G03X294200Y170300I1400J0D01*
G01X292800Y171700D02*
Y174300D01*
X294200Y175700D02*
G03X292800Y174300I0J-1400D01*
G01X294200Y175700D02*
X297600D01*
X298500Y175372D02*
G03X297600Y175700I-900J-1072D01*
G01X298500Y175372D02*
Y176500D01*
X286500*
Y175372*
X287400Y175700D02*
G03X286500Y175372I0J-1400D01*
G01X287400Y175700D02*
X290800D01*
X292200Y174300D02*
G03X290800Y175700I-1400J0D01*
G01X292200Y174300D02*
Y171700D01*
X290800Y170300D02*
G03X292200Y171700I0J1400D01*
G01X290800Y170300D02*
X287400D01*
X286500Y170628D02*
G03X287400Y170300I900J1072D01*
G01X286500Y170628D02*
Y167500D01*
X278500*
Y194500*
X287500*
Y200500*
X272500*
Y160500*
X312500*
X242500Y212700D02*
Y249025D01*
X242400Y249600D02*
G03X242500Y249025I1700J0D01*
G01X242400Y249600D02*
Y258696D01*
X242396Y258700*
X227600*
Y223300*
X102700*
Y178000*
X145400*
Y151600*
X173800*
Y159700*
X160200*
Y185000*
X173600*
Y192800*
X161500*
X160700Y193000D02*
G03X161500Y192800I800J1500D01*
G01X160700Y193000D02*
X160100D01*
Y193536*
X159800Y194500D02*
G03X160100Y193536I1700J0D01*
G01X159800Y194500D02*
Y202500D01*
X160100Y203464D02*
G03X159800Y202500I1400J-964D01*
G01X160100Y203464D02*
Y203536D01*
X159800Y204500D02*
G03X160100Y203536I1700J0D01*
G01X159800Y204500D02*
Y211500D01*
X160100Y212464D02*
G03X159800Y211500I1400J-964D01*
G01X160100Y212464D02*
Y212700D01*
X160296*
X161500Y213200D02*
G03X160296Y212700I0J-1700D01*
G01X161500Y213200D02*
X196500D01*
X197704Y212700D02*
G03X196500Y213200I-1204J-1200D01*
G01X197704Y212700D02*
X242500D01*
X234500Y172300D02*
Y188800D01*
X212575*
X212700Y188200D02*
G03X212575Y188800I-1500J0D01*
G01X212700Y188200D02*
Y182800D01*
X211200Y181300D02*
G03X212700Y182800I0J1500D01*
G01X211200Y181300D02*
X206800D01*
X205300Y182800D02*
G03X206800Y181300I1500J0D01*
G01X205300Y182800D02*
Y188200D01*
X205425Y188800D02*
G03X205300Y188200I1375J-600D01*
G01X205425Y188800D02*
X204021D01*
X204700Y187600D02*
G03X204021Y188800I-1400J0D01*
G01X204700Y187600D02*
Y184200D01*
X203300Y182800D02*
G03X204700Y184200I0J1400D01*
G01X203300Y182800D02*
X200700D01*
X199300Y184200D02*
G03X200700Y182800I1400J0D01*
G01X199300Y184200D02*
Y187600D01*
X199979Y188800D02*
G03X199300Y187600I721J-1200D01*
G01X199979Y188800D02*
X187500D01*
Y182500*
X162200*
Y170173*
X162500Y170200D02*
G03X162200Y170173I0J-1700D01*
G01X162500Y170200D02*
X173800D01*
Y170500*
X173900Y171075D02*
G03X173800Y170500I1600J-575D01*
G01X173900Y171075D02*
Y172300D01*
X186293*
X187193Y172543D02*
G03X186293Y172300I-0J-1791D01*
G01X187193Y172543D02*
X194476D01*
X195376Y172300D02*
G03X194476Y172543I-900J-1548D01*
G01X195376Y172300D02*
X199834D01*
X199300Y173400D02*
G03X199834Y172300I1400J0D01*
G01X199300Y173400D02*
Y176800D01*
X200700Y178200D02*
G03X199300Y176800I0J-1400D01*
G01X200700Y178200D02*
X203300D01*
X204700Y176800D02*
G03X203300Y178200I-1400J0D01*
G01X204700Y176800D02*
Y173400D01*
X204166Y172300D02*
G03X204700Y173400I-866J1100D01*
G01X204166Y172300D02*
X206792D01*
X205300Y173800D02*
G03X206792Y172300I1500J0D01*
G01X205300Y173800D02*
Y179200D01*
X206800Y180700D02*
G03X205300Y179200I0J-1500D01*
G01X206800Y180700D02*
X211200D01*
X212700Y179200D02*
G03X211200Y180700I-1500J0D01*
G01X212700Y179200D02*
Y173800D01*
X211208Y172300D02*
G03X212700Y173800I-8J1500D01*
G01X211208Y172300D02*
X234500D01*
X196500Y204500D02*
Y211000D01*
X161800*
Y204500*
X185566*
X187193Y205543D02*
G03X185566Y204500I-0J-1791D01*
G01X187193Y205543D02*
X194476D01*
X196103Y204500D02*
G03X194476Y205543I-1627J-748D01*
G01X196103Y204500D02*
X196500D01*
X396400Y265300D02*
Y327500D01*
X245500*
Y260364*
X245800Y259400D02*
G03X245500Y260364I-1700J0D01*
G01X245800Y259400D02*
Y250304D01*
X248111Y247993*
X245707Y245589D02*
G03X248111Y247993I2993J-589D01*
G01X245707Y245589D02*
X245500Y245796D01*
Y210500*
X198500*
Y202500*
X161800*
Y194700*
X173600*
X174400Y194500D02*
G03X173600Y194700I-800J-1500D01*
G01X174400Y194500D02*
X175500D01*
Y184500*
X185500*
Y190500*
X186125*
X187500Y191200D02*
G03X186125Y190500I0J-1700D01*
G01X187500Y191200D02*
X199300D01*
Y193800*
X200700Y195200D02*
G03X199300Y193800I0J-1400D01*
G01X200700Y195200D02*
X203300D01*
X204700Y193800D02*
G03X203300Y195200I-1400J0D01*
G01X204700Y193800D02*
Y191200D01*
X205425*
X205300Y191800D02*
G03X205425Y191200I1500J0D01*
G01X205300Y191800D02*
Y197200D01*
X206800Y198700D02*
G03X205300Y197200I0J-1500D01*
G01X206800Y198700D02*
X211200D01*
X212700Y197200D02*
G03X211200Y198700I-1500J0D01*
G01X212700Y197200D02*
Y191800D01*
X212575Y191200D02*
G03X212700Y191800I-1375J600D01*
G01X212575Y191200D02*
X234500D01*
X235875Y190500D02*
G03X234500Y191200I-1375J-1000D01*
G01X235875Y190500D02*
X245800D01*
Y195900*
X246298Y197102D02*
G03X245800Y195900I1202J-1202D01*
G01X246298Y197102D02*
X250398Y201202D01*
X251600Y201700D02*
G03X250398Y201202I0J-1700D01*
G01X251600Y201700D02*
X264500D01*
Y205780*
X263400Y205300D02*
G03X264500Y205780I0J1500D01*
G01X263400Y205300D02*
X259000D01*
X257500Y206800D02*
G03X259000Y205300I1500J0D01*
G01X257500Y206800D02*
Y212200D01*
X259000Y213700D02*
G03X257500Y212200I0J-1500D01*
G01X259000Y213700D02*
X263400D01*
X264500Y213220D02*
G03X263400Y213700I-1100J-1020D01*
G01X264500Y213220D02*
Y214780D01*
X263400Y214300D02*
G03X264500Y214780I0J1500D01*
G01X263400Y214300D02*
X259000D01*
X257500Y215800D02*
G03X259000Y214300I1500J0D01*
G01X257500Y215800D02*
Y216300D01*
X255900*
Y215800*
X254400Y214300D02*
G03X255900Y215800I0J1500D01*
G01X254400Y214300D02*
X250000D01*
X248500Y215800D02*
G03X250000Y214300I1500J0D01*
G01X248500Y215800D02*
Y221200D01*
X250000Y222700D02*
G03X248500Y221200I0J-1500D01*
G01X250000Y222700D02*
X254400D01*
X255900Y221200D02*
G03X254400Y222700I-1500J0D01*
G01X255900Y221200D02*
Y220700D01*
X257500*
Y221200*
X259000Y222700D02*
G03X257500Y221200I0J-1500D01*
G01X259000Y222700D02*
X263400D01*
X264500Y222220D02*
G03X263400Y222700I-1100J-1020D01*
G01X264500Y222220D02*
Y226619D01*
Y232381D02*
G03Y226619I-1000J-2881D01*
G01Y232381D02*
Y233157D01*
Y239243D02*
G03Y233157I-200J-3043D01*
G01Y239243D02*
Y244905D01*
Y248095D02*
G03Y244905I2600J-1595D01*
G01Y248095D02*
Y264381D01*
Y267219D02*
G03Y264381I2700J-1419D01*
G01Y267219D02*
Y271400D01*
X268948*
X268800Y272093D02*
G03X268948Y271400I1700J-0D01*
G01X268800Y272093D02*
Y272933D01*
X267981Y274791D02*
G03X268800Y272933I2519J0D01*
G01X267981Y274791D02*
Y279161D01*
X273000Y279470D02*
G03X267981Y279161I-2500J-309D01*
G01X273400Y280552D02*
G03X273000Y279470I2100J-1391D01*
G01X273400Y280552D02*
Y281668D01*
X276800D02*
G03X273400I-1700J2532D01*
G01X276800D02*
Y281319D01*
X278000Y279470D02*
G03X276800Y281319I-2500J-309D01*
G01X279200D02*
G03X278000Y279470I1300J-2158D01*
G01X279200Y281319D02*
Y285768D01*
X282600D02*
G03X279200I-1700J2532D01*
G01X282600D02*
Y280552D01*
X283000Y279470D02*
G03X282600Y280552I-2500J-309D01*
G01X288019Y279161D02*
G03X283000Y279470I-2519J0D01*
G01X288019Y279161D02*
Y274791D01*
X287405Y273144D02*
G03X288019Y274791I-1905J1647D01*
G01X290359Y271400D02*
G03X287405Y273144I-2759J-1300D01*
G01X290359Y271400D02*
X320118D01*
X320300Y271532D02*
G03X320118Y271400I1700J-2532D01*
G01X320300Y271532D02*
Y272300D01*
X320200*
X318800Y273700D02*
G03X320200Y272300I1400J0D01*
G01X318800Y273700D02*
Y276300D01*
X320200Y277700D02*
G03X318800Y276300I0J-1400D01*
G01X320200Y277700D02*
X323600D01*
X325000Y276308D02*
G03X323600Y277700I-1400J-8D01*
G01X326400D02*
G03X325000Y276308I0J-1400D01*
G01X326400Y277700D02*
X329800D01*
X331175Y276562D02*
G03X329800Y277700I-1375J-262D01*
G01X331175Y276562D02*
X331400D01*
X332127Y276426D02*
G03X331400Y276562I-727J-1864D01*
G01X332586Y277882D02*
G03X332127Y276426I1520J-1280D01*
G01X332586Y280441D02*
G03Y277882I1520J-1280D01*
G01Y283000D02*
G03Y280441I1520J-1280D01*
G01Y285559D02*
G03Y283000I1520J-1279D01*
G01Y288118D02*
G03Y285559I1520J-1279D01*
G01Y290677D02*
G03Y288118I1520J-1279D01*
G01X334106Y293944D02*
G03X332586Y290677I0J-1987D01*
G01X334106Y293944D02*
X337453D01*
X339401Y292348D02*
G03X337453Y293944I-1948J-391D01*
G01X345350Y291431D02*
G03X339401Y292348I-3050J-31D01*
G01X345350Y291431D02*
X355743Y301824D01*
X356945Y302322D02*
G03X355743Y301824I-0J-1700D01*
G01X356945Y302322D02*
X383211D01*
X385679Y304559D02*
G03X383211Y302322I1321J-3937D01*
G01X388321Y304559D02*
G03X385679I-1321J3937D01*
G01X388321Y296685D02*
G03Y304559I-1321J3937D01*
G01Y288811D02*
G03Y296685I-1321J3937D01*
G01Y280937D02*
G03Y288811I-1321J3937D01*
G01X384187Y280055D02*
G03X388321Y280937I2813J-3055D01*
G01X383846Y280020D02*
G03X384187Y280055I0J1700D01*
G01X383846Y280020D02*
X361686D01*
X361414Y277882D02*
G03X361686Y280020I-1520J1279D01*
G01X361414Y275323D02*
G03Y277882I-1520J1279D01*
G01X359894Y272056D02*
G03X361414Y275323I-0J1987D01*
G01X359894Y272056D02*
X356547D01*
X355027Y275323D02*
G03X356547Y272056I1520J-1280D01*
G01X354755Y277461D02*
G03X355027Y275323I1792J-859D01*
G01X354755Y277461D02*
X354566D01*
X352300Y275196*
Y267500*
X351802Y266298D02*
G03X352300Y267500I-1202J1202D01*
G01X351802Y266298D02*
X344902Y259398D01*
X344000Y258927D02*
G03X344902Y259398I-300J1673D01*
G01X344000Y258927D02*
Y183900D01*
X357974*
X369898Y195824*
X371100Y196322D02*
G03X369898Y195824I0J-1700D01*
G01X371100Y196322D02*
X371600D01*
Y229300*
X361104*
X357093Y225289*
X351107D02*
G03X357093I2993J-589D01*
G01X351107D02*
X349748Y226648D01*
X349250Y227850D02*
G03X349748Y226648I1700J0D01*
G01X349250Y227850D02*
Y236450D01*
X349748Y237652D02*
G03X349250Y236450I1202J-1202D01*
G01X349748Y237652D02*
X356300Y244204D01*
Y246600*
X357692Y248000D02*
G03X356300Y246600I8J-1400D01*
G01Y249400D02*
G03X357692Y248000I1400J0D01*
G01X356300Y249400D02*
Y252800D01*
X357700Y254200D02*
G03X356300Y252800I0J-1400D01*
G01X357700Y254200D02*
X360300D01*
X361700Y252800D02*
G03X360300Y254200I-1400J0D01*
G01X361700Y252800D02*
Y249400D01*
X360308Y248000D02*
G03X361700Y249400I-8J1400D01*
G01Y246600D02*
G03X360308Y248000I-1400J0D01*
G01X361700Y246600D02*
Y243200D01*
X360300Y241800D02*
G03X361700Y243200I0J1400D01*
G01X360300Y241800D02*
X358704D01*
X352650Y235746*
Y234235*
X354589Y234493D02*
G03X352650Y234235I-589J-2993D01*
G01X354589Y234493D02*
X360172Y240076D01*
X361374Y240574D02*
G03X360172Y240076I0J-1700D01*
G01X361374Y240574D02*
X363500D01*
Y241814*
X362300Y243200D02*
G03X363500Y241814I1400J0D01*
G01X362300Y243200D02*
Y246600D01*
X363692Y248000D02*
G03X362300Y246600I8J-1400D01*
G01Y249400D02*
G03X363692Y248000I1400J0D01*
G01X362300Y249400D02*
Y252800D01*
X363700Y254200D02*
G03X362300Y252800I0J-1400D01*
G01X363700Y254200D02*
X366300D01*
X367700Y252800D02*
G03X366300Y254200I-1400J0D01*
G01X367700Y252800D02*
Y249400D01*
X366308Y248000D02*
G03X367700Y249400I-8J1400D01*
G01Y246600D02*
G03X366308Y248000I-1400J0D01*
G01X367700Y246600D02*
Y243200D01*
X366900Y241935D02*
G03X367700Y243200I-600J1265D01*
G01X366900Y241935D02*
Y240574D01*
X371600*
Y265300*
X396400*
X385679Y296685D02*
G03X383119Y291271I1321J-3937D01*
G01X383211Y298922D02*
G03X385679Y296685I3789J1700D01*
G01X383211Y298922D02*
X359812D01*
X361210Y293445D02*
G03X359812Y298922I-1810J2455D01*
G01X361414Y290677D02*
G03X361210Y293445I-1520J1280D01*
G01X361414Y288118D02*
G03Y290677I-1520J1280D01*
G01X361686Y285980D02*
G03X361414Y288118I-1792J859D01*
G01X361686Y285980D02*
X377827D01*
X383119Y291271*
X358988Y298922D02*
G03X357060Y293944I412J-3022D01*
G01X358988Y298922D02*
X357649D01*
X350776Y292049*
X350111Y286007D02*
G03X350776Y292049I589J2993D01*
G01X350111Y286007D02*
X346600Y282496D01*
Y279679*
X346698Y279785D02*
G03X346600Y279679I1202J-1202D01*
G01X346698Y279785D02*
X355007Y288095D01*
X355027Y288118D02*
G03X355007Y288095I1520J-1279D01*
G01X355027Y290677D02*
G03Y288118I1520J-1279D01*
G01X356547Y293944D02*
G03X355027Y290677I0J-1987D01*
G01X356547Y293944D02*
X357060D01*
X397000Y102000D02*
Y262300D01*
X375000*
Y240574*
X384211*
X386679Y242811D02*
G03X384211Y240574I1321J-3937D01*
G01X389321Y242811D02*
G03X386679I-1321J3937D01*
G01X389321Y234937D02*
G03Y242811I-1321J3937D01*
G01X384211Y229300D02*
G03X389321Y234937I3789J1700D01*
G01X384211Y229300D02*
X375000D01*
Y196322*
X383211*
X388321Y190685D02*
G03X383211Y196322I-1321J3937D01*
G01X388321Y182811D02*
G03Y190685I-1321J3937D01*
G01Y174937D02*
G03Y182811I-1321J3937D01*
G01X385679Y174937D02*
G03X388321I1321J-3937D01*
G01X385679Y182811D02*
G03Y174937I1321J-3937D01*
G01X383211Y185048D02*
G03X385679Y182811I3789J1700D01*
G01X383211Y185048D02*
X375000D01*
Y176528*
X375614Y175914*
X376200Y174500D02*
G03X375614Y175914I-2000J0D01*
G01X376200Y174500D02*
Y146100D01*
X375614Y144686D02*
G03X376200Y146100I-1414J1414D01*
G01X375614Y144686D02*
X374414Y143486D01*
X373000Y142900D02*
G03X374414Y143486I0J2000D01*
G01X373000Y142900D02*
X370667D01*
X369300Y141800D02*
G03X370667Y142900I0J1400D01*
G01X369300Y141800D02*
X366700D01*
X365333Y142900D02*
G03X366700Y141800I1367J300D01*
G01X365333Y142900D02*
X364944D01*
Y142106*
X361677Y140586D02*
G03X364944Y142106I1280J1520D01*
G01X359539Y140314D02*
G03X361677Y140586I859J1792D01*
G01X359539Y140314D02*
Y138604D01*
X360543Y137600*
X377574*
X383119Y143145*
X388321Y140685D02*
G03X383119Y143145I-1321J3937D01*
G01X388321Y132811D02*
G03Y140685I-1321J3937D01*
G01Y124937D02*
G03Y132811I-1321J3937D01*
G01X385679Y124937D02*
G03X388321I1321J-3937D01*
G01X383211Y127174D02*
G03X385679Y124937I3789J1700D01*
G01X383211Y127174D02*
X356528D01*
X355326Y127672D02*
G03X356528Y127174I1202J1202D01*
G01X355326Y127672D02*
X346400Y136598D01*
X345902Y137800D02*
G03X346400Y136598I1700J0D01*
G01X345902Y137800D02*
Y140314D01*
X343056Y142106D02*
G03X345902Y140314I1987J0D01*
G01X343056Y142106D02*
Y145453D01*
X346323Y146973D02*
G03X343056Y145453I-1280J-1520D01*
G01X348461Y147245D02*
G03X346323Y146973I-859J-1792D01*
G01X348461Y147245D02*
Y150334D01*
X347496Y151300*
X329200*
X327998Y151798D02*
G03X329200Y151300I1202J1202D01*
G01X327998Y151798D02*
X316000Y163796D01*
Y158200*
X268800*
Y170500*
X267600*
Y144821*
X267102Y143619D02*
G03X267600Y144821I-1202J1202D01*
G01X267102Y143619D02*
X243189Y119706D01*
X236208Y121400D02*
G03X243189Y119706I2871J-3400D01*
G01X236208Y121400D02*
X231714D01*
X225971D02*
G03X231714I2872J-3400D01*
G01X225971D02*
X224804D01*
X223450Y120046*
Y115250*
X221750Y113550D02*
G03X223450Y115250I0J1700D01*
G01X221750Y113550D02*
X216250D01*
X214550Y115250D02*
G03X216250Y113550I1700J0D01*
G01X214550Y115250D02*
Y120750D01*
X216250Y122450D02*
G03X214550Y120750I0J-1700D01*
G01X216250Y122450D02*
X221046D01*
X222898Y124302*
X224100Y124800D02*
G03X222898Y124302I0J-1700D01*
G01X224100Y124800D02*
X225595D01*
X232090D02*
G03X225595I-3247J3043D01*
G01X232090D02*
X235831D01*
X243484Y127214D02*
G03X235831Y124800I-4405J629D01*
G01X243484Y127214D02*
X249285Y133015D01*
X226576*
X223110Y129548*
X220706Y131953D02*
G03X223110Y129548I-1706J-4110D01*
G01X220706Y131953D02*
X224670Y135917D01*
X225872Y136415D02*
G03X224670Y135917I0J-1700D01*
G01X225872Y136415D02*
X250281D01*
X260800Y146934*
Y161892*
X252192Y170500*
X212670*
X212700Y170200D02*
G03X212670Y170500I-1500J0D01*
G01X212700Y170200D02*
Y164800D01*
X211200Y163300D02*
G03X212700Y164800I0J1500D01*
G01X211200Y163300D02*
X206800D01*
X205300Y164800D02*
G03X206800Y163300I1500J0D01*
G01X205300Y164800D02*
Y170200D01*
X205330Y170500D02*
G03X205300Y170200I1470J-300D01*
G01X205330Y170500D02*
X204700D01*
Y167200*
X203300Y165800D02*
G03X204700Y167200I0J1400D01*
G01X203300Y165800D02*
X200700D01*
X199300Y167200D02*
G03X200700Y165800I1400J0D01*
G01X199300Y167200D02*
Y170500D01*
X175600*
Y169800*
X175500Y169225D02*
G03X175600Y169800I-1600J575D01*
G01X175500Y169225D02*
Y168500D01*
X174995*
X173900Y168100D02*
G03X174995Y168500I0J1700D01*
G01X173900Y168100D02*
X162500D01*
Y161500*
X175500*
Y160500*
X175700Y159700D02*
G03X175500Y160500I-1700J0D01*
G01X175700Y159700D02*
Y151600D01*
X175500Y150800D02*
G03X175700Y151600I-1500J800D01*
G01X175500Y150800D02*
Y123686D01*
Y106314D02*
G03Y123686I-500J8686D01*
G01Y106314D02*
Y102000D01*
X397000*
X372200Y146928D02*
Y170500D01*
X364175*
X363446Y169820D02*
G03X364175Y170500I-1446J2280D01*
G01X364944Y167894D02*
G03X363446Y169820I-1987J-0D01*
G01X364944Y167894D02*
Y164547D01*
X361677Y163027D02*
G03X364944Y164547I1280J1520D01*
G01X359118Y163027D02*
G03X361677I1280J1520D01*
G01X356980Y162755D02*
G03X359118Y163027I859J1792D01*
G01X356980Y162755D02*
Y161380D01*
X356482Y160177D02*
G03X356980Y161380I-1202J1203D01*
G01X356482Y160177D02*
X354002Y157698D01*
X352800Y157200D02*
G03X354002Y157698I0J1700D01*
G01X352800Y157200D02*
X333400D01*
X332198Y157698D02*
G03X333400Y157200I1202J1202D01*
G01X332198Y157698D02*
X319396Y170500D01*
X318448*
Y170456*
X331804Y157100*
X350200*
X351402Y156602D02*
G03X350200Y157100I-1202J-1202D01*
G01X351402Y156602D02*
X356482Y151523D01*
X356980Y150320D02*
G03X356482Y151523I-1700J0D01*
G01X356980Y150320D02*
Y147245D01*
X359118Y146973D02*
G03X356980Y147245I-1279J-1520D01*
G01X361677Y146973D02*
G03X359118I-1279J-1520D01*
G01X364319Y146900D02*
G03X361677Y146973I-1362J-1447D01*
G01X364319Y146900D02*
X365333D01*
X366692Y148000D02*
G03X365333Y146900I8J-1400D01*
G01X365594Y148541D02*
G03X366692Y148000I1106J859D01*
G01X365710Y153790D02*
G03X365594Y148541I-1610J-2590D01*
G01X366700Y154200D02*
G03X365710Y153790I0J-1400D01*
G01X366700Y154200D02*
X369300D01*
X370700Y152800D02*
G03X369300Y154200I-1400J0D01*
G01X370700Y152800D02*
Y149400D01*
X369308Y148000D02*
G03X370700Y149400I-8J1400D01*
G01X370667Y146900D02*
G03X369308Y148000I-1367J-300D01*
G01X370667Y146900D02*
X372172D01*
X372200Y146928*
X223100Y226900D02*
Y259872D01*
X222472Y260500*
X205303*
X202500Y265509D02*
G03X205303Y260500I500J-3009D01*
G01X202500Y265509D02*
Y290500D01*
X102800*
X102792D02*
G03X102800I8J1700D01*
G01X102792D02*
X102500D01*
Y226900*
X223100*
X319100Y241104D02*
Y249900D01*
X300790*
X294810D02*
G03X300790I2990J-600D01*
G01X294810D02*
X283100D01*
Y228410*
Y222990D02*
G03Y228410I1400J2710D01*
G01Y222990D02*
Y221102D01*
X284498*
X285701Y220604D02*
G03X284498Y221102I-1203J-1202D01*
G01X285701Y220604D02*
X286611Y219693D01*
X288619Y214000D02*
G03X286611Y219693I-1419J2700D01*
G01X288619Y214000D02*
X294810D01*
X300790D02*
G03X294810I-2990J600D01*
G01X300790D02*
X301544D01*
X304372Y218545D02*
G03X301544Y214000I-172J-3045D01*
G01X309000Y216868D02*
G03X304372Y218545I-1700J2532D01*
G01X309000Y216868D02*
Y215100D01*
X308999Y215048D02*
G03X309000Y215100I-1699J52D01*
G01X308999Y215048D02*
Y214000D01*
X319100*
Y235496*
Y241104D02*
G03Y235496I-1200J-2804D01*
G01X241200Y281300D02*
Y328000D01*
X102800*
Y292200*
X202500*
X202508D02*
G03X202500I-8J-1700D01*
G01X202508D02*
X204600D01*
Y265097*
X205303Y264500D02*
G03X204600Y265097I-2303J-2000D01*
G01X205303Y264500D02*
X223000D01*
Y281300*
X241200*
X348959Y174886D02*
X356274Y182200D01*
X344000*
X342300Y183900D02*
G03X344000Y182200I1700J0D01*
G01X342300Y183900D02*
Y258900D01*
X317004*
X315805Y257701*
X319031Y255622D02*
G03X315805Y257701I-2283J0D01*
G01X319031Y255622D02*
Y252866D01*
X318647Y251600D02*
G03X319031Y252866I-1899J1266D01*
G01X318647Y251600D02*
X319100D01*
X320800Y249900D02*
G03X319100Y251600I-1700J0D01*
G01X320800Y249900D02*
Y249766D01*
X321866Y250031D02*
G03X320800Y249766I0J-2283D01*
G01X321866Y250031D02*
X324622D01*
X326275Y246173D02*
G03X324622Y250031I-1653J1575D01*
G01X326385Y243149D02*
G03X326275Y246173I-1763J1449D01*
G01X326385Y243149D02*
X330300D01*
Y244800*
X331700Y246200D02*
G03X330300Y244800I0J-1400D01*
G01X331700Y246200D02*
X334300D01*
X335700Y244800D02*
G03X334300Y246200I-1400J0D01*
G01X335700Y244800D02*
Y241400D01*
X334308Y240000D02*
G03X335700Y241400I-8J1400D01*
G01Y238600D02*
G03X334308Y240000I-1400J0D01*
G01X335700Y238600D02*
Y235200D01*
X334300Y233800D02*
G03X335700Y235200I0J1400D01*
G01X334300Y233800D02*
X332004D01*
X338402Y227402*
X338900Y226200D02*
G03X338402Y227402I-1700J0D01*
G01X338900Y226200D02*
Y177732D01*
X337750Y172200D02*
G03X338900Y177732I-550J3000D01*
G01X337750Y172200D02*
X341852D01*
X347948D02*
G03X341852I-3048J-100D01*
G01X347948D02*
X348461D01*
Y173683*
X348959Y174886D02*
G03X348461Y173683I1202J-1203D01*
G01X314300Y159900D02*
Y165496D01*
X312396Y167399*
X311898Y168602D02*
G03X312396Y167399I1700J-0D01*
G01X311898Y168602D02*
Y201602D01*
X308139Y202048D02*
G03X311898Y201602I2161J2152D01*
G01X306900Y201300D02*
G03X308139Y202048I0J1400D01*
G01X306900Y201300D02*
X303500D01*
X302100Y202692D02*
G03X303500Y201300I1400J8D01*
G01X300700D02*
G03X302100Y202692I0J1400D01*
G01X300700Y201300D02*
X297300D01*
X296400Y201628D02*
G03X297300Y201300I900J1072D01*
G01X296400Y201628D02*
Y195204D01*
X301158Y190446*
X303800Y183775D02*
G03X301158Y190446I-1600J3225D01*
G01X303800Y183775D02*
Y175700D01*
X305200Y174300D02*
G03X303800Y175700I-1400J0D01*
G01X305200Y174300D02*
Y171700D01*
X303800Y170300D02*
G03X305200Y171700I0J1400D01*
G01X303800Y170300D02*
X300400D01*
X299000Y171692D02*
G03X300400Y170300I1400J8D01*
G01X297600D02*
G03X299000Y171692I0J1400D01*
G01X297600Y170300D02*
X294200D01*
X292800Y171700D02*
G03X294200Y170300I1400J0D01*
G01X292800Y171700D02*
Y174300D01*
X294200Y175700D02*
G03X292800Y174300I0J-1400D01*
G01X294200Y175700D02*
X297600D01*
X299000Y174308D02*
G03X297600Y175700I-1400J-8D01*
G01X300400D02*
G03X299000Y174308I0J-1400D01*
G01X300400Y175700D02*
Y183882D01*
X298754Y188042D02*
G03X300400Y183882I3446J-1042D01*
G01X298754Y188042D02*
X293498Y193298D01*
X293000Y194500D02*
G03X293498Y193298I1700J0D01*
G01X293000Y194500D02*
Y194662D01*
X292753Y194349D02*
G03X293000Y194662I-1202J1202D01*
G01X292753Y194349D02*
X286446Y188042D01*
X284600Y183775D02*
G03X286446Y188042I-1600J3225D01*
G01X284600Y183775D02*
Y175700D01*
X286000Y174308D02*
G03X284600Y175700I-1400J-8D01*
G01X287400D02*
G03X286000Y174308I0J-1400D01*
G01X287400Y175700D02*
X290800D01*
X292200Y174300D02*
G03X290800Y175700I-1400J0D01*
G01X292200Y174300D02*
Y171700D01*
X290800Y170300D02*
G03X292200Y171700I0J1400D01*
G01X290800Y170300D02*
X287400D01*
X286000Y171692D02*
G03X287400Y170300I1400J8D01*
G01X284600D02*
G03X286000Y171692I0J1400D01*
G01X284600Y170300D02*
X281200D01*
X279800Y171700D02*
G03X281200Y170300I1400J0D01*
G01X279800Y171700D02*
Y174300D01*
X281200Y175700D02*
G03X279800Y174300I0J-1400D01*
G01X281200Y175700D02*
Y183882D01*
X284042Y190446D02*
G03X281200Y183882I-1042J-3446D01*
G01X284042Y190446D02*
X289851Y196255D01*
Y202813*
X289604Y202499D02*
G03X289851Y202813I-1202J1203D01*
G01X289604Y202499D02*
X288302Y201198D01*
X287100Y200700D02*
G03X288302Y201198I0J1700D01*
G01X287100Y200700D02*
X272304D01*
X267774Y196170*
X266572Y195672D02*
G03X267774Y196170I0J1700D01*
G01X266572Y195672D02*
X266200D01*
Y190500*
X265887Y189517D02*
G03X266200Y190500I-1387J983D01*
G01X265887Y189517D02*
X267102Y188302D01*
X267600Y187100D02*
G03X267102Y188302I-1700J0D01*
G01X267600Y187100D02*
Y172200D01*
X268800*
X270500Y170500D02*
G03X268800Y172200I-1700J0D01*
G01X270500Y170500D02*
Y159900D01*
X314300*
X342300Y269504D02*
Y269700D01*
X330759*
X325241D02*
G03X330759I2759J1300D01*
G01X325241D02*
X290624D01*
X287333Y267062D02*
G03X290624Y269700I267J3038D01*
G01X287333Y267062D02*
X292753Y261641D01*
X293001Y261327D02*
G03X292753Y261641I-1450J-888D01*
G01X293001Y261327D02*
Y262287D01*
X292300Y263500D02*
G03X293001Y262287I1400J0D01*
G01X292300Y263500D02*
Y266100D01*
X293700Y267500D02*
G03X292300Y266100I0J-1400D01*
G01X293700Y267500D02*
X297100D01*
X298500Y266108D02*
G03X297100Y267500I-1400J-8D01*
G01X299900D02*
G03X298500Y266108I0J-1400D01*
G01X299900Y267500D02*
X303300D01*
X304700Y266100D02*
G03X303300Y267500I-1400J0D01*
G01X304700Y266100D02*
Y263500D01*
X303300Y262100D02*
G03X304700Y263500I0J1400D01*
G01X303300Y262100D02*
X299900D01*
X298500Y263492D02*
G03X299900Y262100I1400J8D01*
G01X297100D02*
G03X298500Y263492I0J1400D01*
G01X297100Y262100D02*
X296401D01*
Y257385*
X299425Y257275D02*
G03X296401Y257385I-1575J-1653D01*
G01X302575Y257275D02*
G03X299425I-1575J-1653D01*
G01X305369Y257552D02*
G03X302575Y257275I-1219J-1930D01*
G01X305369Y257552D02*
Y259169D01*
X305867Y260371D02*
G03X305369Y259169I1202J-1202D01*
G01X305867Y260371D02*
X312298Y266802D01*
X313500Y267300D02*
G03X312298Y266802I0J-1700D01*
G01X313500Y267300D02*
X340096D01*
X342300Y269504*
X204021Y172200D02*
X250492D01*
X242429Y180263*
X241931Y181465D02*
G03X242429Y180263I1700J0D01*
G01X241931Y181465D02*
Y188800D01*
X212575*
X212700Y188200D02*
G03X212575Y188800I-1500J0D01*
G01X212700Y188200D02*
Y182800D01*
X211200Y181300D02*
G03X212700Y182800I0J1500D01*
G01X211200Y181300D02*
X206800D01*
X205300Y182800D02*
G03X206800Y181300I1500J0D01*
G01X205300Y182800D02*
Y188200D01*
X205425Y188800D02*
G03X205300Y188200I1375J-600D01*
G01X205425Y188800D02*
X204021D01*
X204700Y187600D02*
G03X204021Y188800I-1400J0D01*
G01X204700Y187600D02*
Y184200D01*
X203300Y182800D02*
G03X204700Y184200I0J1400D01*
G01X203300Y182800D02*
X200700D01*
X199300Y184200D02*
G03X200700Y182800I1400J0D01*
G01X199300Y184200D02*
Y187600D01*
X199979Y188800D02*
G03X199300Y187600I721J-1200D01*
G01X199979Y188800D02*
X187200D01*
Y184500*
X185500Y182800D02*
G03X187200Y184500I0J1700D01*
G01X185500Y182800D02*
X175500D01*
X174197Y183408D02*
G03X175500Y182800I1303J1092D01*
G01X173600Y183300D02*
G03X174197Y183408I0J1700D01*
G01X173600Y183300D02*
X161900D01*
Y170091*
X162500Y170200D02*
G03X161900Y170091I0J-1700D01*
G01X162500Y170200D02*
X173800D01*
Y170500*
X175500Y172200D02*
G03X173800Y170500I0J-1700D01*
G01X175500Y172200D02*
X186140D01*
X187193Y172543D02*
G03X186140Y172200I-0J-1791D01*
G01X187193Y172543D02*
X194476D01*
X195530Y172200D02*
G03X194476Y172543I-1054J-1448D01*
G01X195530Y172200D02*
X199979D01*
X199300Y173400D02*
G03X199979Y172200I1400J0D01*
G01X199300Y173400D02*
Y176800D01*
X200700Y178200D02*
G03X199300Y176800I0J-1400D01*
G01X200700Y178200D02*
X203300D01*
X204700Y176800D02*
G03X203300Y178200I-1400J0D01*
G01X204700Y176800D02*
Y173400D01*
X204021Y172200D02*
G03X204700Y173400I-721J1200D01*
G01X264200Y172200D02*
Y181529D01*
X255888Y181300D02*
G03X264200Y181529I4112J1700D01*
G01X255888Y181300D02*
X254700D01*
Y181200*
X253300Y179800D02*
G03X254700Y181200I0J1400D01*
G01X253300Y179800D02*
X250700D01*
X249300Y181200D02*
G03X250700Y179800I1400J0D01*
G01X249300Y181200D02*
Y184600D01*
X250692Y186000D02*
G03X249300Y184600I8J-1400D01*
G01Y187400D02*
G03X250692Y186000I1400J0D01*
G01X249300Y187400D02*
Y188800D01*
X249200*
Y180704*
X257704Y172200*
X264200*
X196875Y211000D02*
G03X196800Y210500I1625J-500D01*
G01X196875Y211000D02*
X161800D01*
Y204200*
X185459*
X187193Y205543D02*
G03X185459Y204200I-0J-1791D01*
G01X187193Y205543D02*
X194476D01*
X196210Y204200D02*
G03X194476Y205543I-1734J-448D01*
G01X196210Y204200D02*
X196800D01*
Y210500*
X173800Y146700D02*
Y149900D01*
X145400*
X143700Y151600D02*
G03X145400Y149900I1700J0D01*
G01X143700Y151600D02*
Y176300D01*
X102700*
X102000Y176451D02*
G03X102700Y176300I700J1549D01*
G01X102000Y176451D02*
Y102500D01*
X173800*
Y106383*
Y123617D02*
G03Y106383I1200J-8617D01*
G01Y123617D02*
Y143300D01*
X141500*
X140298Y143798D02*
G03X141500Y143300I1202J1202D01*
G01X140298Y143798D02*
X134796Y149300D01*
X132400*
X131000Y150692D02*
G03X132400Y149300I1400J8D01*
G01X129600D02*
G03X131000Y150692I0J1400D01*
G01X129600Y149300D02*
X126200D01*
X124858Y150300D02*
G03X126200Y149300I1342J400D01*
G01X124858Y150300D02*
X123750D01*
X122786Y150600D02*
G03X123750Y150300I964J1400D01*
G01X122786Y150600D02*
X122342D01*
X121000Y149600D02*
G03X122342Y150600I0J1400D01*
G01X121000Y149600D02*
X117600D01*
X116200Y150992D02*
G03X117600Y149600I1400J8D01*
G01X114800D02*
G03X116200Y150992I0J1400D01*
G01X114800Y149600D02*
X111400D01*
X110000Y151000D02*
G03X111400Y149600I1400J0D01*
G01X110000Y151000D02*
Y153600D01*
X111400Y155000D02*
G03X110000Y153600I0J-1400D01*
G01X111400Y155000D02*
X114800D01*
X116200Y153608D02*
G03X114800Y155000I-1400J-8D01*
G01X117600D02*
G03X116200Y153608I0J-1400D01*
G01X117600Y155000D02*
X121000D01*
X122342Y154000D02*
G03X121000Y155000I-1342J-400D01*
G01X122342Y154000D02*
X123450D01*
X124414Y153700D02*
G03X123450Y154000I-964J-1400D01*
G01X124414Y153700D02*
X124858D01*
X126200Y154700D02*
G03X124858Y153700I0J-1400D01*
G01X126200Y154700D02*
X129600D01*
X131000Y153308D02*
G03X129600Y154700I-1400J-8D01*
G01X132400D02*
G03X131000Y153308I0J-1400D01*
G01X132400Y154700D02*
X135800D01*
X137200Y153300D02*
G03X135800Y154700I-1400J0D01*
G01X137200Y153300D02*
Y151704D01*
X142204Y146700*
X173800*
X283457Y206804D02*
X283531Y206878D01*
X282969Y208378D02*
G03X283531Y206878I2283J-0D01*
G01X282969Y208378D02*
Y211134D01*
X283290Y212300D02*
G03X282969Y211134I1962J-1166D01*
G01X283290Y212300D02*
X283100D01*
X281400Y214000D02*
G03X283100Y212300I1700J0D01*
G01X281400Y214000D02*
Y214353D01*
X280134Y213969D02*
G03X281400Y214353I-0J2283D01*
G01X280134Y213969D02*
X277378D01*
X275725Y217827D02*
G03X277378Y213969I1653J-1575D01*
G01X275406Y220551D02*
G03X275725Y217827I1972J-1149D01*
G01X275406Y220551D02*
X275080D01*
X274014Y219486*
X272600Y218900D02*
G03X274014Y219486I0J2000D01*
G01X272600Y218900D02*
X271667D01*
X270300Y217800D02*
G03X271667Y218900I0J1400D01*
G01X270300Y217800D02*
X267700D01*
X266810*
X266200Y217393D02*
G03X266810Y217800I-900J2007D01*
G01X266200Y217393D02*
Y201808D01*
X270698Y206306*
X271900Y206804D02*
G03X270698Y206306I0J-1700D01*
G01X271900Y206804D02*
X283457D01*
X278836Y261353D02*
G03X276607Y257811I764J-2953D01*
G01X278836Y261353D02*
X270489Y269700D01*
X266200*
Y242932*
X268489Y243393D02*
G03X266200Y242932I-589J-2993D01*
G01X268489Y243393D02*
X270896Y245801D01*
X272098Y246298D02*
G03X270896Y245801I0J-1700D01*
G01X272098Y246298D02*
X274364D01*
X274050Y246546D02*
G03X274364Y246298I1202J1202D01*
G01X274050Y246546D02*
X272598Y247998D01*
X272100Y249200D02*
G03X272598Y247998I1700J0D01*
G01X272100Y249200D02*
Y252600D01*
X272598Y253802D02*
G03X272100Y252600I1202J-1202D01*
G01X272598Y253802D02*
X276607Y257811D01*
X326950Y214800D02*
Y217702D01*
X326385*
X324622Y213969D02*
G03X326385Y217702I0J2283D01*
G01X324622Y213969D02*
X321866D01*
X320800Y214234D02*
G03X321866Y213969I1066J2018D01*
G01X320800Y214234D02*
Y214000D01*
X319100Y212300D02*
G03X320800Y214000I0J1700D01*
G01X319100Y212300D02*
X318710D01*
X319031Y211134D02*
G03X318710Y212300I-2283J-0D01*
G01X319031Y211134D02*
Y208378D01*
X318448Y206855D02*
G03X319031Y208378I-1700J1523D01*
G01X318448Y206855D02*
Y200401D01*
X318898Y201202D02*
G03X318448Y200401I1202J-1202D01*
G01X318898Y201202D02*
X319900Y202204D01*
Y202768*
X320756Y208231D02*
G03X319900Y202768I844J-2931D01*
G01X325893Y209811D02*
G03X320756Y208231I-2993J589D01*
G01X325893Y209811D02*
X325941Y209764D01*
X326438Y208562D02*
G03X325941Y209764I-1700J-0D01*
G01X326438Y208562D02*
Y201243D01*
X325941Y200041D02*
G03X326438Y201243I-1203J1202D01*
G01X325941Y200041D02*
X324250Y198350D01*
Y190286*
X326950Y192246D02*
G03X324250Y190286I150J-3046D01*
G01X326950Y192246D02*
Y214800D01*
X159200Y160850D02*
Y155650D01*
X157600Y154050D02*
G03X159200Y155650I0J1600D01*
G01X157600Y154050D02*
X152400D01*
X150800Y155650D02*
G03X152400Y154050I1600J0D01*
G01X150800Y155650D02*
Y160850D01*
X152400Y162450D02*
G03X150800Y160850I0J-1600D01*
G01X152400Y162450D02*
X157600D01*
X159200Y160850D02*
G03X157600Y162450I-1600J0D01*
G01X159200Y174350D02*
Y169150D01*
X157600Y167550D02*
G03X159200Y169150I0J1600D01*
G01X157600Y167550D02*
X152400D01*
X150800Y169150D02*
G03X152400Y167550I1600J0D01*
G01X150800Y169150D02*
Y173331D01*
X153130Y175950D02*
G03X150800Y173331I-3030J350D01*
G01X153130Y175950D02*
X157600D01*
X159200Y174350D02*
G03X157600Y175950I-1600J0D01*
G01X159200Y194850D02*
Y189650D01*
X157600Y188050D02*
G03X159200Y189650I0J1600D01*
G01X157600Y188050D02*
X152400D01*
X150800Y189650D02*
G03X152400Y188050I1600J0D01*
G01X150800Y189650D02*
Y194850D01*
X152400Y196450D02*
G03X150800Y194850I0J-1600D01*
G01X152400Y196450D02*
X157600D01*
X159200Y194850D02*
G03X157600Y196450I-1600J0D01*
G01X159200Y208350D02*
Y203150D01*
X157600Y201550D02*
G03X159200Y203150I0J1600D01*
G01X157600Y201550D02*
X152400D01*
X150800Y203150D02*
G03X152400Y201550I1600J0D01*
G01X150800Y203150D02*
Y207621D01*
X150125Y208296*
X152580Y210649D02*
G03X150125Y208296I-2980J651D01*
G01X152580Y210649D02*
X153279Y209950D01*
X157600*
X159200Y208350D02*
G03X157600Y209950I-1600J0D01*
G01X134539Y202000D02*
G03X134539I-3759J0D01*
G01X120759Y203772D02*
Y200228D01*
X118772Y198241D02*
G03X120759Y200228I-0J1987D01*
G01X118772Y198241D02*
X115228D01*
X113241Y200228D02*
G03X115228Y198241I1987J0D01*
G01X113241Y200228D02*
Y203772D01*
X115228Y205759D02*
G03X113241Y203772I0J-1987D01*
G01X115228Y205759D02*
X118772D01*
X120759Y203772D02*
G03X118772Y205759I-1987J-0D01*
G01X364545Y265409D02*
G03X369455I2455J-1809D01*
G01X364300Y266200D02*
G03X364545Y265409I1400J0D01*
G01X364300Y266200D02*
Y269600D01*
X365692Y271000D02*
G03X364300Y269600I8J-1400D01*
G01Y272400D02*
G03X365692Y271000I1400J0D01*
G01X364300Y272400D02*
Y275800D01*
X365700Y277200D02*
G03X364300Y275800I0J-1400D01*
G01X365700Y277200D02*
X368300D01*
X369700Y275800D02*
G03X368300Y277200I-1400J0D01*
G01X369700Y275800D02*
Y272400D01*
X368308Y271000D02*
G03X369700Y272400I-8J1400D01*
G01Y269600D02*
G03X368308Y271000I-1400J0D01*
G01X369700Y269600D02*
Y266200D01*
X369455Y265409D02*
G03X369700Y266200I-1155J791D01*
G01X333700Y315000D02*
G03X333700I-8700J0D01*
G01X286063Y318679D02*
G03Y321321I3937J1321D01*
G01X283826Y316211D02*
G03X286063Y318679I-1700J3789D01*
G01X283826Y316211D02*
Y309526D01*
X283328Y308324D02*
G03X283826Y309526I-1202J1202D01*
G01X283328Y308324D02*
X282200Y307196D01*
Y303067*
X283000Y301517D02*
G03X282200Y303067I-2500J-308D01*
G01X288019Y301209D02*
G03X283000Y301517I-2519J-0D01*
G01X288019Y301209D02*
Y296839D01*
X287451Y295245D02*
G03X288019Y296839I-1951J1594D01*
G01X283549Y295245D02*
G03X287451I1951J-2345D01*
G01X283000Y296530D02*
G03X283549Y295245I2500J309D01*
G01X278000Y296530D02*
G03X283000I2500J309D01*
G01X273000D02*
G03X278000I2500J309D01*
G01X270598Y294322D02*
G03X273000Y296530I-98J2517D01*
G01X266350Y290273D02*
G03X270598Y294322I1550J2627D01*
G01X265300Y289800D02*
G03X266350Y290273I0J1400D01*
G01X265300Y289800D02*
X262700D01*
X261300Y291200D02*
G03X262700Y289800I1400J0D01*
G01X261300Y291200D02*
Y294600D01*
X262692Y296000D02*
G03X261300Y294600I8J-1400D01*
G01Y297400D02*
G03X262692Y296000I1400J0D01*
G01X261300Y297400D02*
Y300800D01*
X262700Y302200D02*
G03X261300Y300800I0J-1400D01*
G01X262700Y302200D02*
X265300D01*
X266700Y300800D02*
G03X265300Y302200I-1400J0D01*
G01X266700Y300800D02*
Y297400D01*
X265308Y296000D02*
G03X266700Y297400I-8J1400D01*
G01X266350Y295527D02*
G03X265308Y296000I-1050J-927D01*
G01X268147Y295940D02*
G03X266350Y295527I-247J-3040D01*
G01X267981Y296839D02*
G03X268147Y295940I2519J-0D01*
G01X267981Y296839D02*
Y301209D01*
X273000Y301517D02*
G03X267981Y301209I-2500J-308D01*
G01X273800Y303067D02*
G03X273000Y301517I1700J-1858D01*
G01X273800Y303067D02*
Y307096D01*
X273050Y307846*
X272552Y309048D02*
G03X273050Y307846I1700J0D01*
G01X272552Y309048D02*
Y316211D01*
X278189Y321321D02*
G03X272552Y316211I-3937J-1321D01*
G01X286063Y321321D02*
G03X278189I-3937J-1321D01*
G01X255900Y212200D02*
Y206800D01*
X254400Y205300D02*
G03X255900Y206800I0J1500D01*
G01X254400Y205300D02*
X250000D01*
X248500Y206800D02*
G03X250000Y205300I1500J0D01*
G01X248500Y206800D02*
Y212200D01*
X250000Y213700D02*
G03X248500Y212200I0J-1500D01*
G01X250000Y213700D02*
X254400D01*
X255900Y212200D02*
G03X254400Y213700I-1500J0D01*
G01X333700Y115000D02*
G03X333700I-8700J0D01*
G01X297791Y113283D02*
G03X297791I-4200J0D01*
G01X328311Y140907D02*
G03X328348Y146900I589J2993D01*
G01X328311Y140907D02*
X327526Y140122D01*
X326324Y139624D02*
G03X327526Y140122I0J1700D01*
G01X326324Y139624D02*
X324546D01*
X320220Y135298*
X319018Y134800D02*
G03X320220Y135298I-0J1700D01*
G01X319018Y134800D02*
X295379D01*
X291802D02*
G03X295379I1789J-3800D01*
G01X291802D02*
X289461D01*
X288259Y135298D02*
G03X289461Y134800I1202J1202D01*
G01X288259Y135298D02*
X284514Y139043D01*
X286918Y141447D02*
G03X284514Y139043I-3918J1514D01*
G01X286918Y141447D02*
X290165Y138200D01*
X295357*
X294514Y139043*
X290101Y146000D02*
G03X294514Y139043I2899J-3039D01*
G01X290101Y146000D02*
X288300D01*
X287098Y146498D02*
G03X288300Y146000I1202J1202D01*
G01X287098Y146498D02*
X284514Y149082D01*
X286918Y151486D02*
G03X284514Y149082I-3918J1514D01*
G01X286918Y151486D02*
X289004Y149400D01*
X290837*
X295163D02*
G03X290837I-2163J3600D01*
G01X295163D02*
X300837D01*
X305163D02*
G03X300837I-2163J3600D01*
G01X305163D02*
X314268D01*
X319838Y147428D02*
G03X314268Y149400I-3038J272D01*
G01X322253Y146655D02*
G03X319838Y147428I-2053J-2255D01*
G01X328348Y146900D02*
G03X322253Y146655I-3048J-100D01*
G01X272200Y113283D02*
G03X272200I-4200J0D01*
G01Y131000D02*
G03X272200I-4200J0D01*
G01X277200Y142961D02*
G03X277200I-4200J0D01*
G01Y155500D02*
Y150500D01*
X275500Y148800D02*
G03X277200Y150500I0J1700D01*
G01X275500Y148800D02*
X270500D01*
X268800Y150500D02*
G03X270500Y148800I1700J0D01*
G01X268800Y150500D02*
Y155500D01*
X270500Y157200D02*
G03X268800Y155500I0J-1700D01*
G01X270500Y157200D02*
X275500D01*
X277200Y155500D02*
G03X275500Y157200I-1700J0D01*
G01X370700Y166800D02*
Y163400D01*
X369308Y162000D02*
G03X370700Y163400I-8J1400D01*
G01Y160600D02*
G03X369308Y162000I-1400J0D01*
G01X370700Y160600D02*
Y157200D01*
X369300Y155800D02*
G03X370700Y157200I0J1400D01*
G01X369300Y155800D02*
X366700D01*
X365583Y156356D02*
G03X366700Y155800I1117J844D01*
G01X365583Y161444D02*
G03Y156356I-1683J-2544D01*
G01X366692Y162000D02*
G03X365583Y161444I8J-1400D01*
G01X365300Y163400D02*
G03X366692Y162000I1400J0D01*
G01X365300Y163400D02*
Y166800D01*
X366700Y168200D02*
G03X365300Y166800I0J-1400D01*
G01X366700Y168200D02*
X369300D01*
X370700Y166800D02*
G03X369300Y168200I-1400J0D01*
G01X171200Y284000D02*
G03X171200I-4200J0D01*
G01X144487Y249906D02*
Y244094D01*
X142787Y242394D02*
G03X144487Y244094I0J1700D01*
G01X142787Y242394D02*
X137213D01*
X135710Y243300D02*
G03X137213Y242394I1503J794D01*
G01X135710Y243300D02*
X132700D01*
X130084Y244384D02*
G03X132700Y243300I2616J2616D01*
G01X130084Y244384D02*
X126867Y247600D01*
X120660*
Y255000D02*
G03Y247600I-4660J-3700D01*
G01Y255000D02*
X128400D01*
X131016Y253916D02*
G03X128400Y255000I-2616J-2616D01*
G01X131016Y253916D02*
X134233Y250700D01*
X135710*
X137213Y251606D02*
G03X135710Y250700I-0J-1700D01*
G01X137213Y251606D02*
X142787D01*
X144487Y249906D02*
G03X142787Y251606I-1700J-0D01*
G01X144487Y262543D02*
Y256732D01*
X142787Y255032D02*
G03X144487Y256732I0J1700D01*
G01X142787Y255032D02*
X137213D01*
X135513Y256732D02*
G03X137213Y255032I1700J0D01*
G01X135513Y256732D02*
Y262543D01*
X137213Y264243D02*
G03X135513Y262543I-0J-1700D01*
G01X137213Y264243D02*
X142787D01*
X144487Y262543D02*
G03X142787Y264243I-1700J0D01*
G01X151515Y286606D02*
Y281394D01*
X149921Y279800D02*
G03X151515Y281394I0J1594D01*
G01X149921Y279800D02*
X144709D01*
X143115Y281394D02*
G03X144709Y279800I1594J-0D01*
G01X143115Y281394D02*
Y286606D01*
X144709Y288200D02*
G03X143115Y286606I-0J-1594D01*
G01X144709Y288200D02*
X149921D01*
X151515Y286606D02*
G03X149921Y288200I-1594J0D01*
G01X233500Y302700D02*
G03X233500I-8200J0D01*
G01X183700Y315000D02*
G03X183700I-8700J0D01*
G01X123900Y301700D02*
G03X123900I-7900J0D01*
G01X212700Y179200D02*
Y173800D01*
X211200Y172300D02*
G03X212700Y173800I0J1500D01*
G01X211200Y172300D02*
X206800D01*
X205300Y173800D02*
G03X206800Y172300I1500J0D01*
G01X205300Y173800D02*
Y179200D01*
X206800Y180700D02*
G03X205300Y179200I0J-1500D01*
G01X206800Y180700D02*
X211200D01*
X212700Y179200D02*
G03X211200Y180700I-1500J0D01*
G01X136568Y113574D02*
G03X132668Y118000I-1368J2726D01*
G01X132568Y109200D02*
G03X136568Y113574I2532J1700D01*
G01X132568Y109200D02*
X132004D01*
X131400Y108596*
Y107000*
X130000Y105600D02*
G03X131400Y107000I0J1400D01*
G01X130000Y105600D02*
X126600D01*
X125200Y106992D02*
G03X126600Y105600I1400J8D01*
G01X123800D02*
G03X125200Y106992I0J1400D01*
G01X123800Y105600D02*
X120400D01*
X119058Y106600D02*
G03X120400Y105600I1342J400D01*
G01X119058Y106600D02*
X118342D01*
X117000Y105600D02*
G03X118342Y106600I0J1400D01*
G01X117000Y105600D02*
X113600D01*
X112200Y106992D02*
G03X113600Y105600I1400J8D01*
G01X110800D02*
G03X112200Y106992I0J1400D01*
G01X110800Y105600D02*
X107400D01*
X106000Y107000D02*
G03X107400Y105600I1400J0D01*
G01X106000Y107000D02*
Y109600D01*
X107400Y111000D02*
G03X106000Y109600I0J-1400D01*
G01X107400Y111000D02*
X110800D01*
X112200Y109608D02*
G03X110800Y111000I-1400J-8D01*
G01X113600D02*
G03X112200Y109608I0J-1400D01*
G01X113600Y111000D02*
X117000D01*
X118342Y110000D02*
G03X117000Y111000I-1342J-400D01*
G01X118342Y110000D02*
X119058D01*
X120400Y111000D02*
G03X119058Y110000I0J-1400D01*
G01X120400Y111000D02*
X123800D01*
X125200Y109608D02*
G03X123800Y111000I-1400J-8D01*
G01X126600D02*
G03X125200Y109608I0J-1400D01*
G01X126600Y111000D02*
X128996D01*
X130098Y112102*
X131300Y112600D02*
G03X130098Y112102I0J-1700D01*
G01X131300Y112600D02*
X132568D01*
X133732Y113626D02*
G03X132568Y112600I1368J-2726D01*
G01X132668Y114600D02*
G03X133732Y113626I2532J1700D01*
G01X132668Y114600D02*
X132342D01*
X131000Y113600D02*
G03X132342Y114600I0J1400D01*
G01X131000Y113600D02*
X127600D01*
X126200Y114992D02*
G03X127600Y113600I1400J8D01*
G01X124800D02*
G03X126200Y114992I0J1400D01*
G01X124800Y113600D02*
X121400D01*
X120058Y114600D02*
G03X121400Y113600I1342J400D01*
G01X120058Y114600D02*
X118342D01*
X117000Y113600D02*
G03X118342Y114600I0J1400D01*
G01X117000Y113600D02*
X113600D01*
X112200Y114992D02*
G03X113600Y113600I1400J8D01*
G01X110800D02*
G03X112200Y114992I0J1400D01*
G01X110800Y113600D02*
X107400D01*
X106000Y115000D02*
G03X107400Y113600I1400J0D01*
G01X106000Y115000D02*
Y117600D01*
X107400Y119000D02*
G03X106000Y117600I0J-1400D01*
G01X107400Y119000D02*
X110800D01*
X112200Y117608D02*
G03X110800Y119000I-1400J-8D01*
G01X113600D02*
G03X112200Y117608I0J-1400D01*
G01X113600Y119000D02*
X117000D01*
X118342Y118000D02*
G03X117000Y119000I-1342J-400D01*
G01X118342Y118000D02*
X120058D01*
X121400Y119000D02*
G03X120058Y118000I0J-1400D01*
G01X121400Y119000D02*
X124800D01*
X126200Y117608D02*
G03X124800Y119000I-1400J-8D01*
G01X127600D02*
G03X126200Y117608I0J-1400D01*
G01X127600Y119000D02*
X131000D01*
X132342Y118000D02*
G03X131000Y119000I-1342J-400D01*
G01X132342Y118000D02*
X132668D01*
Y122600D02*
G03Y126000I2532J1700D01*
G01Y122600D02*
X132342D01*
X131000Y121600D02*
G03X132342Y122600I0J1400D01*
G01X131000Y121600D02*
X127600D01*
X126200Y122992D02*
G03X127600Y121600I1400J8D01*
G01X124800D02*
G03X126200Y122992I0J1400D01*
G01X124800Y121600D02*
X121400D01*
X120058Y122600D02*
G03X121400Y121600I1342J400D01*
G01X120058Y122600D02*
X118342D01*
X117000Y121600D02*
G03X118342Y122600I0J1400D01*
G01X117000Y121600D02*
X113600D01*
X112200Y122992D02*
G03X113600Y121600I1400J8D01*
G01X110800D02*
G03X112200Y122992I0J1400D01*
G01X110800Y121600D02*
X107400D01*
X106000Y123000D02*
G03X107400Y121600I1400J0D01*
G01X106000Y123000D02*
Y125600D01*
X107400Y127000D02*
G03X106000Y125600I0J-1400D01*
G01X107400Y127000D02*
X110800D01*
X112200Y125608D02*
G03X110800Y127000I-1400J-8D01*
G01X113600D02*
G03X112200Y125608I0J-1400D01*
G01X113600Y127000D02*
X117000D01*
X118342Y126000D02*
G03X117000Y127000I-1342J-400D01*
G01X118342Y126000D02*
X120058D01*
X121400Y127000D02*
G03X120058Y126000I0J-1400D01*
G01X121400Y127000D02*
X124800D01*
X126200Y125608D02*
G03X124800Y127000I-1400J-8D01*
G01X127600D02*
G03X126200Y125608I0J-1400D01*
G01X127600Y127000D02*
X131000D01*
X132342Y126000D02*
G03X131000Y127000I-1342J-400D01*
G01X132342Y126000D02*
X132668D01*
Y130600D02*
G03Y134000I2532J1700D01*
G01Y130600D02*
X132342D01*
X131000Y129600D02*
G03X132342Y130600I0J1400D01*
G01X131000Y129600D02*
X127600D01*
X126200Y130992D02*
G03X127600Y129600I1400J8D01*
G01X124800D02*
G03X126200Y130992I0J1400D01*
G01X124800Y129600D02*
X121400D01*
X120058Y130600D02*
G03X121400Y129600I1342J400D01*
G01X120058Y130600D02*
X118342D01*
X117000Y129600D02*
G03X118342Y130600I0J1400D01*
G01X117000Y129600D02*
X113600D01*
X112200Y130992D02*
G03X113600Y129600I1400J8D01*
G01X110800D02*
G03X112200Y130992I0J1400D01*
G01X110800Y129600D02*
X107400D01*
X106000Y131000D02*
G03X107400Y129600I1400J0D01*
G01X106000Y131000D02*
Y133600D01*
X107400Y135000D02*
G03X106000Y133600I0J-1400D01*
G01X107400Y135000D02*
X110800D01*
X112200Y133608D02*
G03X110800Y135000I-1400J-8D01*
G01X113600D02*
G03X112200Y133608I0J-1400D01*
G01X113600Y135000D02*
X117000D01*
X118342Y134000D02*
G03X117000Y135000I-1342J-400D01*
G01X118342Y134000D02*
X120058D01*
X121400Y135000D02*
G03X120058Y134000I0J-1400D01*
G01X121400Y135000D02*
X124800D01*
X126200Y133608D02*
G03X124800Y135000I-1400J-8D01*
G01X127600D02*
G03X126200Y133608I0J-1400D01*
G01X127600Y135000D02*
X131000D01*
X132342Y134000D02*
G03X131000Y135000I-1342J-400D01*
G01X132342Y134000D02*
X132668D01*
X136879Y162808D02*
G03Y167192I2121J2192D01*
G01X135800Y162300D02*
G03X136879Y162808I0J1400D01*
G01X135800Y162300D02*
X132400D01*
X131000Y163692D02*
G03X132400Y162300I1400J8D01*
G01X129600D02*
G03X131000Y163692I0J1400D01*
G01X129600Y162300D02*
X126200D01*
X124858Y163300D02*
G03X126200Y162300I1342J400D01*
G01X124858Y163300D02*
X123750D01*
X122786Y163600D02*
G03X123750Y163300I964J1400D01*
G01X122786Y163600D02*
X122342D01*
X121000Y162600D02*
G03X122342Y163600I0J1400D01*
G01X121000Y162600D02*
X117600D01*
X116200Y163992D02*
G03X117600Y162600I1400J8D01*
G01X114800D02*
G03X116200Y163992I0J1400D01*
G01X114800Y162600D02*
X111400D01*
X110000Y164000D02*
G03X111400Y162600I1400J0D01*
G01X110000Y164000D02*
Y166600D01*
X111400Y168000D02*
G03X110000Y166600I0J-1400D01*
G01X111400Y168000D02*
X114800D01*
X116200Y166608D02*
G03X114800Y168000I-1400J-8D01*
G01X117600D02*
G03X116200Y166608I0J-1400D01*
G01X117600Y168000D02*
X121000D01*
X122342Y167000D02*
G03X121000Y168000I-1342J-400D01*
G01X122342Y167000D02*
X123450D01*
X124414Y166700D02*
G03X123450Y167000I-964J-1400D01*
G01X124414Y166700D02*
X124858D01*
X126200Y167700D02*
G03X124858Y166700I0J-1400D01*
G01X126200Y167700D02*
X129600D01*
X131000Y166308D02*
G03X129600Y167700I-1400J-8D01*
G01X132400D02*
G03X131000Y166308I0J-1400D01*
G01X132400Y167700D02*
X135800D01*
X136879Y167192D02*
G03X135800Y167700I-1079J-892D01*
G01X272500Y166799D02*
X312500D01*
X272500Y165899D02*
X312500D01*
X272500Y164999D02*
X312500D01*
X272500Y164099D02*
X312500D01*
X272500Y163199D02*
X312500D01*
X272500Y162299D02*
X312500D01*
X272500Y161399D02*
X312500D01*
X306500Y167699D02*
X312158D01*
X306500Y168599D02*
X311898D01*
X298500Y200099D02*
X311898D01*
X298500Y199199D02*
X311898D01*
X298500Y198299D02*
X311898D01*
X298500Y197399D02*
X311898D01*
X298500Y196499D02*
X311898D01*
X298500Y195599D02*
X311898D01*
X306500Y194699D02*
X311898D01*
X306500Y193799D02*
X311898D01*
X306500Y192899D02*
X311898D01*
X306500Y191999D02*
X311898D01*
X306500Y191099D02*
X311898D01*
X306500Y190199D02*
X311898D01*
X306500Y189299D02*
X311898D01*
X306500Y188399D02*
X311898D01*
X306500Y187499D02*
X311898D01*
X306500Y186599D02*
X311898D01*
X306500Y185699D02*
X311898D01*
X306500Y184799D02*
X311898D01*
X306500Y183899D02*
X311898D01*
X306500Y182999D02*
X311898D01*
X306500Y182099D02*
X311898D01*
X306500Y181199D02*
X311898D01*
X306500Y180299D02*
X311898D01*
X306500Y179399D02*
X311898D01*
X306500Y178499D02*
X311898D01*
X306500Y177599D02*
X311898D01*
X306500Y176699D02*
X311898D01*
X306500Y175799D02*
X311898D01*
X306500Y174899D02*
X311898D01*
X306500Y173999D02*
X311898D01*
X306500Y173099D02*
X311898D01*
X306500Y172199D02*
X311898D01*
X306500Y171299D02*
X311898D01*
X306500Y170399D02*
X311898D01*
X306500Y169499D02*
X311898D01*
X286500Y175799D02*
X298500D01*
X298116Y170399D02*
X298500D01*
X286500Y169499D02*
X298500D01*
X286500Y168599D02*
X298500D01*
X286500Y167699D02*
X298500D01*
X291316Y170399D02*
X293684D01*
X292066Y174899D02*
X292934D01*
X292141Y171299D02*
X292859D01*
X292200Y173999D02*
X292800D01*
X292200Y173099D02*
X292800D01*
X292200Y172199D02*
X292800D01*
X272500Y200099D02*
X287500D01*
X272500Y199199D02*
X287500D01*
X272500Y198299D02*
X287500D01*
X272500Y197399D02*
X287500D01*
X272500Y196499D02*
X287500D01*
X272500Y195599D02*
X287500D01*
X272500Y194699D02*
X287500D01*
X286500Y170399D02*
X286884D01*
X272500Y193799D02*
X278500D01*
X272500Y192899D02*
X278500D01*
X272500Y191999D02*
X278500D01*
X272500Y191099D02*
X278500D01*
X272500Y190199D02*
X278500D01*
X272500Y189299D02*
X278500D01*
X272500Y188399D02*
X278500D01*
X272500Y187499D02*
X278500D01*
X272500Y186599D02*
X278500D01*
X272500Y185699D02*
X278500D01*
X272500Y184799D02*
X278500D01*
X272500Y183899D02*
X278500D01*
X272500Y182999D02*
X278500D01*
X272500Y182099D02*
X278500D01*
X272500Y181199D02*
X278500D01*
X272500Y180299D02*
X278500D01*
X272500Y179399D02*
X278500D01*
X272500Y178499D02*
X278500D01*
X272500Y177599D02*
X278500D01*
X272500Y176699D02*
X278500D01*
X272500Y175799D02*
X278500D01*
X272500Y174899D02*
X278500D01*
X272500Y173999D02*
X278500D01*
X272500Y173099D02*
X278500D01*
X272500Y172199D02*
X278500D01*
X272500Y171299D02*
X278500D01*
X272500Y170399D02*
X278500D01*
X272500Y169499D02*
X278500D01*
X272500Y168599D02*
X278500D01*
X272500Y167699D02*
X278500D01*
X227600Y248799D02*
X242500D01*
X227600Y247899D02*
X242500D01*
X227600Y246999D02*
X242500D01*
X227600Y246099D02*
X242500D01*
X227600Y245199D02*
X242500D01*
X227600Y244299D02*
X242500D01*
X227600Y243399D02*
X242500D01*
X227600Y242499D02*
X242500D01*
X227600Y241599D02*
X242500D01*
X227600Y240699D02*
X242500D01*
X227600Y239799D02*
X242500D01*
X227600Y238899D02*
X242500D01*
X227600Y237999D02*
X242500D01*
X227600Y237099D02*
X242500D01*
X227600Y236199D02*
X242500D01*
X227600Y235299D02*
X242500D01*
X227600Y234399D02*
X242500D01*
X227600Y233499D02*
X242500D01*
X227600Y232599D02*
X242500D01*
X227600Y231699D02*
X242500D01*
X227600Y230799D02*
X242500D01*
X227600Y229899D02*
X242500D01*
X227600Y228999D02*
X242500D01*
X227600Y228099D02*
X242500D01*
X227600Y227199D02*
X242500D01*
X227600Y226299D02*
X242500D01*
X227600Y225399D02*
X242500D01*
X227600Y224499D02*
X242500D01*
X227600Y223599D02*
X242500D01*
X102700Y222699D02*
X242500D01*
X102700Y221799D02*
X242500D01*
X102700Y220899D02*
X242500D01*
X102700Y219999D02*
X242500D01*
X102700Y219099D02*
X242500D01*
X102700Y218199D02*
X242500D01*
X102700Y217299D02*
X242500D01*
X102700Y216399D02*
X242500D01*
X102700Y215499D02*
X242500D01*
X102700Y214599D02*
X242500D01*
X151484Y213699D02*
X242500D01*
X197597Y212799D02*
X242500D01*
X227600Y257799D02*
X242400D01*
X227600Y256899D02*
X242400D01*
X227600Y255999D02*
X242400D01*
X227600Y255099D02*
X242400D01*
X227600Y254199D02*
X242400D01*
X227600Y253299D02*
X242400D01*
X227600Y252399D02*
X242400D01*
X227600Y251499D02*
X242400D01*
X227600Y250599D02*
X242400D01*
X227600Y249699D02*
X242400D01*
X227600Y258699D02*
X242397D01*
X159200Y159699D02*
X173800D01*
X159200Y158799D02*
X173800D01*
X159200Y157899D02*
X173800D01*
X159200Y156999D02*
X173800D01*
X159200Y156099D02*
X173800D01*
X159135Y155199D02*
X173800D01*
X158457Y154299D02*
X173800D01*
X145400Y153399D02*
X173800D01*
X145400Y152499D02*
X173800D01*
X159200Y192099D02*
X173600D01*
X159200Y191199D02*
X173600D01*
X159200Y190299D02*
X173600D01*
X159180Y189399D02*
X173600D01*
X158711Y188499D02*
X173600D01*
X102700Y187599D02*
X173600D01*
X102700Y186699D02*
X173600D01*
X102700Y185799D02*
X173600D01*
X159200Y192999D02*
X160702D01*
X152256Y212799D02*
X160403D01*
X102700Y184899D02*
X160200D01*
X102700Y183999D02*
X160200D01*
X102700Y183099D02*
X160200D01*
X102700Y182199D02*
X160200D01*
X102700Y181299D02*
X160200D01*
X102700Y180399D02*
X160200D01*
X102700Y179499D02*
X160200D01*
X152105Y178599D02*
X160200D01*
X152810Y177699D02*
X160200D01*
X153109Y176799D02*
X160200D01*
X158002Y175899D02*
X160200D01*
X159063Y174999D02*
X160200D01*
X159200Y174099D02*
X160200D01*
X159200Y173199D02*
X160200D01*
X159200Y172299D02*
X160200D01*
X159200Y171399D02*
X160200D01*
X159200Y170499D02*
X160200D01*
X159200Y169599D02*
X160200D01*
X159135Y168699D02*
X160200D01*
X158457Y167799D02*
X160200D01*
X145400Y166899D02*
X160200D01*
X145400Y165999D02*
X160200D01*
X145400Y165099D02*
X160200D01*
X145400Y164199D02*
X160200D01*
X145400Y163299D02*
X160200D01*
X158002Y162399D02*
X160200D01*
X159063Y161499D02*
X160200D01*
X159200Y160599D02*
X160200D01*
X159200Y203799D02*
X159951D01*
X159200Y193899D02*
X159910D01*
X152591Y211899D02*
X159847D01*
X159180Y202899D02*
X159847D01*
X152635Y210999D02*
X159800D01*
X153131Y210099D02*
X159800D01*
X158956Y209199D02*
X159800D01*
X159200Y208299D02*
X159800D01*
X159200Y207399D02*
X159800D01*
X159200Y206499D02*
X159800D01*
X159200Y205599D02*
X159800D01*
X159200Y204699D02*
X159800D01*
X158711Y201999D02*
X159800D01*
X134429Y201099D02*
X159800D01*
X134079Y200199D02*
X159800D01*
X133394Y199299D02*
X159800D01*
X131857Y198399D02*
X159800D01*
X102700Y197499D02*
X159800D01*
X102700Y196599D02*
X159800D01*
X158956Y195699D02*
X159800D01*
X159200Y194799D02*
X159800D01*
X145400Y162399D02*
X151998D01*
X145400Y167799D02*
X151543D01*
X145400Y154299D02*
X151543D01*
X134539Y201999D02*
X151289D01*
X102700Y188499D02*
X151289D01*
X102700Y195699D02*
X151044D01*
X145400Y161499D02*
X150937D01*
X145400Y168699D02*
X150865D01*
X145400Y155199D02*
X150865D01*
X134430Y202899D02*
X150820D01*
X102700Y189399D02*
X150820D01*
X102700Y207399D02*
X150800D01*
X102700Y206499D02*
X150800D01*
X131866Y205599D02*
X150800D01*
X133396Y204699D02*
X150800D01*
X134080Y203799D02*
X150800D01*
X102700Y194799D02*
X150800D01*
X102700Y193899D02*
X150800D01*
X102700Y192999D02*
X150800D01*
X102700Y192099D02*
X150800D01*
X102700Y191199D02*
X150800D01*
X102700Y190299D02*
X150800D01*
X145400Y173199D02*
X150800D01*
X145400Y172299D02*
X150800D01*
X145400Y171399D02*
X150800D01*
X145400Y170499D02*
X150800D01*
X145400Y169599D02*
X150800D01*
X145400Y160599D02*
X150800D01*
X145400Y159699D02*
X150800D01*
X145400Y158799D02*
X150800D01*
X145400Y157899D02*
X150800D01*
X145400Y156999D02*
X150800D01*
X145400Y156099D02*
X150800D01*
X102700Y208299D02*
X149057D01*
X102700Y178599D02*
X148095D01*
X145400Y174099D02*
X147989D01*
X102700Y213699D02*
X147716D01*
X145400Y177699D02*
X147390D01*
X102700Y209199D02*
X147389D01*
X145400Y174999D02*
X147342D01*
X145400Y176799D02*
X147091D01*
X145400Y175899D02*
X147076D01*
X102700Y212799D02*
X146944D01*
X102700Y210099D02*
X146797D01*
X102700Y211899D02*
X146609D01*
X102700Y210999D02*
X146565D01*
X119548Y198399D02*
X129702D01*
X119554Y205599D02*
X129693D01*
X120528Y199299D02*
X128165D01*
X120530Y204699D02*
X128163D01*
X120759Y200199D02*
X127480D01*
X120759Y203799D02*
X127479D01*
X120759Y201099D02*
X127130D01*
X120759Y202899D02*
X127129D01*
X120759Y201999D02*
X127020D01*
X102700Y198399D02*
X114452D01*
X102700Y205599D02*
X114446D01*
X102700Y199299D02*
X113472D01*
X102700Y204699D02*
X113470D01*
X102700Y200199D02*
X113241D01*
X102700Y203799D02*
X113241D01*
X102700Y202899D02*
X113241D01*
X102700Y201999D02*
X113241D01*
X102700Y201099D02*
X113241D01*
X212615Y188699D02*
X234500D01*
X212700Y187799D02*
X234500D01*
X212700Y186899D02*
X234500D01*
X212700Y185999D02*
X234500D01*
X212700Y185099D02*
X234500D01*
X212700Y184199D02*
X234500D01*
X212700Y183299D02*
X234500D01*
X212645Y182399D02*
X234500D01*
X211946Y181499D02*
X234500D01*
X211742Y180599D02*
X234500D01*
X212615Y179699D02*
X234500D01*
X212700Y178799D02*
X234500D01*
X212700Y177899D02*
X234500D01*
X212700Y176999D02*
X234500D01*
X212700Y176099D02*
X234500D01*
X212700Y175199D02*
X234500D01*
X212700Y174299D02*
X234500D01*
X212645Y173399D02*
X234500D01*
X211946Y172499D02*
X234500D01*
X162200Y180599D02*
X206258D01*
X162200Y181499D02*
X206054D01*
X204371Y172499D02*
X206054D01*
X204168Y188699D02*
X205385D01*
X162200Y179699D02*
X205385D01*
X162200Y182399D02*
X205355D01*
X204700Y173399D02*
X205355D01*
X204686Y187799D02*
X205300D01*
X204700Y186899D02*
X205300D01*
X204700Y185999D02*
X205300D01*
X204700Y185099D02*
X205300D01*
X204700Y184199D02*
X205300D01*
X204371Y183299D02*
X205300D01*
X162200Y178799D02*
X205300D01*
X204168Y177899D02*
X205300D01*
X204686Y176999D02*
X205300D01*
X204700Y176099D02*
X205300D01*
X204700Y175199D02*
X205300D01*
X204700Y174299D02*
X205300D01*
X187500Y188699D02*
X199832D01*
X162200Y177899D02*
X199832D01*
X187500Y183299D02*
X199629D01*
X194870Y172499D02*
X199629D01*
X187500Y187799D02*
X199314D01*
X162200Y176999D02*
X199314D01*
X187500Y186899D02*
X199300D01*
X187500Y185999D02*
X199300D01*
X187500Y185099D02*
X199300D01*
X187500Y184199D02*
X199300D01*
X162200Y176099D02*
X199300D01*
X162200Y175199D02*
X199300D01*
X162200Y174299D02*
X199300D01*
X162200Y173399D02*
X199300D01*
X162200Y172499D02*
X186799D01*
X162200Y171599D02*
X173900D01*
X162200Y170699D02*
X173812D01*
X161800Y210799D02*
X196500D01*
X161800Y209899D02*
X196500D01*
X161800Y208999D02*
X196500D01*
X161800Y208099D02*
X196500D01*
X161800Y207199D02*
X196500D01*
X161800Y206299D02*
X196500D01*
X195180Y205399D02*
X196500D01*
X161800D02*
X186490D01*
X356926Y298199D02*
X357395D01*
X356026Y297299D02*
X356690D01*
X353326Y294599D02*
X356642D01*
X355126Y296399D02*
X356391D01*
X354226Y295499D02*
X356376D01*
X352426Y293699D02*
X355591D01*
X353668Y288299D02*
X354891D01*
X353004Y290999D02*
X354806D01*
X351526Y292799D02*
X354747D01*
X353545Y290099D02*
X354688D01*
X353744Y289199D02*
X354570D01*
X351649Y291899D02*
X354561D01*
X353296Y287399D02*
X354311D01*
X352445Y286499D02*
X353411D01*
X349703Y285599D02*
X352511D01*
X348803Y284699D02*
X351611D01*
X347903Y283799D02*
X350711D01*
X347003Y282899D02*
X349811D01*
X346600Y281999D02*
X348911D01*
X346600Y281099D02*
X348011D01*
X346600Y280199D02*
X347111D01*
X362409Y296399D02*
X385021D01*
X362110Y297299D02*
X384510D01*
X362424Y295499D02*
X383889D01*
X361405Y298199D02*
X383628D01*
X362158Y294599D02*
X383282D01*
X361511Y293699D02*
X382957D01*
X361880Y291899D02*
X382935D01*
X361694Y292799D02*
X382848D01*
X361635Y290999D02*
X382846D01*
X361753Y290099D02*
X381946D01*
X361871Y289199D02*
X381046D01*
X361550Y288299D02*
X380146D01*
X361801Y287399D02*
X379246D01*
X361852Y286499D02*
X378346D01*
X245500Y326999D02*
X396400D01*
X245500Y326099D02*
X396400D01*
X245500Y325199D02*
X396400D01*
X245500Y324299D02*
X396400D01*
X327270Y323399D02*
X396400D01*
X329411Y322499D02*
X396400D01*
X330670Y321599D02*
X396400D01*
X331574Y320699D02*
X396400D01*
X332257Y319799D02*
X396400D01*
X332778Y318899D02*
X396400D01*
X333167Y317999D02*
X396400D01*
X333443Y317099D02*
X396400D01*
X333617Y316199D02*
X396400D01*
X333695Y315299D02*
X396400D01*
X333679Y314399D02*
X396400D01*
X333570Y313499D02*
X396400D01*
X387643Y312599D02*
X396400D01*
X389644Y311699D02*
X396400D01*
X390456Y310799D02*
X396400D01*
X390909Y309899D02*
X396400D01*
X391122Y308999D02*
X396400D01*
X391134Y308099D02*
X396400D01*
X390945Y307199D02*
X396400D01*
X390524Y306299D02*
X396400D01*
X389766Y305399D02*
X396400D01*
X388489Y304499D02*
X396400D01*
X389896Y303599D02*
X396400D01*
X390596Y302699D02*
X396400D01*
X390983Y301799D02*
X396400D01*
X391144Y300899D02*
X396400D01*
X391106Y299999D02*
X396400D01*
X390863Y299099D02*
X396400D01*
X390372Y298199D02*
X396400D01*
X389490Y297299D02*
X396400D01*
X388979Y296399D02*
X396400D01*
X390111Y295499D02*
X396400D01*
X390718Y294599D02*
X396400D01*
X391043Y293699D02*
X396400D01*
X391152Y292799D02*
X396400D01*
X391065Y291899D02*
X396400D01*
X390766Y290999D02*
X396400D01*
X390198Y290099D02*
X396400D01*
X389156Y289199D02*
X396400D01*
X389349Y288299D02*
X396400D01*
X390297Y287399D02*
X396400D01*
X390822Y286499D02*
X396400D01*
X391089Y285599D02*
X396400D01*
X391149Y284699D02*
X396400D01*
X391011Y283799D02*
X396400D01*
X390653Y282899D02*
X396400D01*
X389996Y281999D02*
X396400D01*
X388730Y281099D02*
X396400D01*
X389648Y280199D02*
X396400D01*
X390459Y279299D02*
X396400D01*
X390910Y278399D02*
X396400D01*
X391123Y277499D02*
X396400D01*
X391133Y276599D02*
X396400D01*
X390944Y275699D02*
X396400D01*
X390521Y274799D02*
X396400D01*
X389762Y273899D02*
X396400D01*
X388111Y272999D02*
X396400D01*
X369667Y272099D02*
X396400D01*
X369019Y271199D02*
X396400D01*
X369513Y270299D02*
X396400D01*
X369700Y269399D02*
X396400D01*
X369700Y268499D02*
X396400D01*
X369700Y267599D02*
X396400D01*
X369700Y266699D02*
X396400D01*
X369641Y265799D02*
X396400D01*
X333362Y312599D02*
X386357D01*
X369700Y272999D02*
X385889D01*
X282200Y304499D02*
X385511D01*
X333049Y311699D02*
X384356D01*
X369700Y273899D02*
X384238D01*
X282200Y305399D02*
X384234D01*
X286295Y303599D02*
X384104D01*
X332618Y310799D02*
X383544D01*
X361876Y279299D02*
X383541D01*
X369700Y274799D02*
X383479D01*
X282200Y306299D02*
X383476D01*
X287531Y302699D02*
X383404D01*
X332047Y309899D02*
X383091D01*
X361729Y278399D02*
X383090D01*
X369700Y275699D02*
X383056D01*
X328851Y307199D02*
X383055D01*
X331299Y308999D02*
X382878D01*
X361668Y277499D02*
X382877D01*
X369450Y276599D02*
X382867D01*
X330297Y308099D02*
X382866D01*
X369760Y264899D02*
X371600D01*
X370024Y263999D02*
X371600D01*
X370009Y263099D02*
X371600D01*
X369709Y262199D02*
X371600D01*
X369002Y261299D02*
X371600D01*
X345903Y260399D02*
X371600D01*
X345003Y259499D02*
X371600D01*
X344000Y258599D02*
X371600D01*
X344000Y257699D02*
X371600D01*
X344000Y256799D02*
X371600D01*
X344000Y255899D02*
X371600D01*
X344000Y254999D02*
X371600D01*
X366823Y254099D02*
X371600D01*
X367642Y253199D02*
X371600D01*
X367700Y252299D02*
X371600D01*
X367700Y251399D02*
X371600D01*
X367700Y250499D02*
X371600D01*
X367700Y249599D02*
X371600D01*
X367512Y248699D02*
X371600D01*
X367023Y247799D02*
X371600D01*
X367668Y246899D02*
X371600D01*
X367700Y245999D02*
X371600D01*
X367700Y245099D02*
X371600D01*
X367700Y244199D02*
X371600D01*
X367700Y243299D02*
X371600D01*
X367448Y242399D02*
X371600D01*
X366900Y241499D02*
X371600D01*
X366900Y240599D02*
X371600D01*
X360703Y228899D02*
X371600D01*
X359803Y227999D02*
X371600D01*
X358903Y227099D02*
X371600D01*
X358003Y226199D02*
X371600D01*
X357103Y225299D02*
X371600D01*
X357135Y224399D02*
X371600D01*
X356903Y223499D02*
X371600D01*
X356311Y222599D02*
X371600D01*
X354643Y221699D02*
X371600D01*
X344000Y220799D02*
X371600D01*
X344000Y219899D02*
X371600D01*
X344000Y218999D02*
X371600D01*
X344000Y218099D02*
X371600D01*
X344000Y217199D02*
X371600D01*
X344000Y216299D02*
X371600D01*
X344000Y215399D02*
X371600D01*
X344000Y214499D02*
X371600D01*
X344000Y213599D02*
X371600D01*
X344000Y212699D02*
X371600D01*
X344000Y211799D02*
X371600D01*
X344000Y210899D02*
X371600D01*
X344000Y209999D02*
X371600D01*
X344000Y209099D02*
X371600D01*
X344000Y208199D02*
X371600D01*
X344000Y207299D02*
X371600D01*
X344000Y206399D02*
X371600D01*
X344000Y205499D02*
X371600D01*
X344000Y204599D02*
X371600D01*
X344000Y203699D02*
X371600D01*
X344000Y202799D02*
X371600D01*
X344000Y201899D02*
X371600D01*
X344000Y200999D02*
X371600D01*
X344000Y200099D02*
X371600D01*
X344000Y199199D02*
X371600D01*
X344000Y198299D02*
X371600D01*
X344000Y197399D02*
X371600D01*
X344000Y196499D02*
X371600D01*
X344000Y195599D02*
X369672D01*
X344000Y194699D02*
X368772D01*
X344000Y193799D02*
X367872D01*
X344000Y192899D02*
X366972D01*
X344000Y191999D02*
X366072D01*
X344000Y191099D02*
X365172D01*
X346803Y261299D02*
X364998D01*
X352300Y271199D02*
X364981D01*
X361881Y276599D02*
X364550D01*
X352300Y270299D02*
X364487D01*
X351303Y265799D02*
X364359D01*
X360304Y272099D02*
X364333D01*
X361664Y275699D02*
X364300D01*
X361732Y274799D02*
X364300D01*
X361876Y273899D02*
X364300D01*
X361584Y272999D02*
X364300D01*
X352300Y269399D02*
X364300D01*
X352300Y268499D02*
X364300D01*
X352300Y267599D02*
X364300D01*
X352099Y266699D02*
X364300D01*
X347703Y262199D02*
X364291D01*
X344000Y190199D02*
X364272D01*
X350403Y264899D02*
X364240D01*
X348603Y263099D02*
X363991D01*
X349503Y263999D02*
X363976D01*
X358403Y241499D02*
X363500D01*
X357503Y240599D02*
X363500D01*
X344000Y189299D02*
X363372D01*
X360823Y254099D02*
X363177D01*
X361023Y247799D02*
X362977D01*
X361448Y242399D02*
X362552D01*
X361512Y248699D02*
X362488D01*
X344000Y188399D02*
X362472D01*
X361642Y253199D02*
X362358D01*
X361668Y246899D02*
X362332D01*
X361700Y252299D02*
X362300D01*
X361700Y251399D02*
X362300D01*
X361700Y250499D02*
X362300D01*
X361700Y249599D02*
X362300D01*
X361700Y245999D02*
X362300D01*
X361700Y245099D02*
X362300D01*
X361700Y244199D02*
X362300D01*
X361700Y243299D02*
X362300D01*
X344000Y187499D02*
X361572D01*
X344000Y186599D02*
X360672D01*
X356603Y239699D02*
X359794D01*
X344000Y185699D02*
X359772D01*
X355703Y238799D02*
X358894D01*
X344000Y184799D02*
X358872D01*
X354803Y237899D02*
X357994D01*
X344000Y254099D02*
X357177D01*
X353903Y236999D02*
X357094D01*
X344000Y247799D02*
X356977D01*
X344000Y248699D02*
X356488D01*
X344000Y253199D02*
X356358D01*
X344000Y246899D02*
X356332D01*
X344000Y252299D02*
X356300D01*
X344000Y251399D02*
X356300D01*
X344000Y250499D02*
X356300D01*
X344000Y249599D02*
X356300D01*
X344000Y245999D02*
X356300D01*
X344000Y245099D02*
X356300D01*
X344000Y244199D02*
X356294D01*
X353003Y236099D02*
X356194D01*
X352300Y272099D02*
X356137D01*
X287949Y301799D02*
X355717D01*
X344000Y243299D02*
X355394D01*
X352650Y235199D02*
X355294D01*
X352300Y272999D02*
X354856D01*
X288019Y300899D02*
X354817D01*
X352803Y275699D02*
X354777D01*
X352300Y274799D02*
X354709D01*
X352300Y273899D02*
X354565D01*
X353703Y276599D02*
X354560D01*
X344000Y242399D02*
X354494D01*
X288019Y299999D02*
X353917D01*
X344000Y241499D02*
X353594D01*
X344000Y221699D02*
X353557D01*
X288019Y299099D02*
X353017D01*
X352650Y234299D02*
X352788D01*
X344000Y240599D02*
X352694D01*
X288019Y298199D02*
X352117D01*
X344000Y222599D02*
X351889D01*
X344000Y239699D02*
X351794D01*
X344000Y223499D02*
X351297D01*
X288019Y297299D02*
X351217D01*
X344000Y225299D02*
X351097D01*
X344000Y224399D02*
X351065D01*
X344000Y238799D02*
X350894D01*
X287980Y296399D02*
X350317D01*
X344000Y226199D02*
X350197D01*
X344000Y237899D02*
X349994D01*
X344000Y227099D02*
X349425D01*
X287633Y295499D02*
X349417D01*
X344000Y236999D02*
X349341D01*
X344000Y236099D02*
X349250D01*
X344000Y235199D02*
X349250D01*
X344000Y234299D02*
X349250D01*
X344000Y233399D02*
X349250D01*
X344000Y232499D02*
X349250D01*
X344000Y231599D02*
X349250D01*
X344000Y230699D02*
X349250D01*
X344000Y229799D02*
X349250D01*
X344000Y228899D02*
X349250D01*
X344000Y227999D02*
X349250D01*
X288033Y294599D02*
X348517D01*
X344305Y293699D02*
X347617D01*
X345010Y292799D02*
X346717D01*
X345309Y291899D02*
X345817D01*
X338409Y293699D02*
X340295D01*
X339253Y292799D02*
X339590D01*
X288444Y293699D02*
X333150D01*
X282600Y285599D02*
X332553D01*
X282600Y282899D02*
X332506D01*
X283950Y288299D02*
X332450D01*
X287795Y280199D02*
X332411D01*
X287885Y290999D02*
X332365D01*
X330523Y277499D02*
X332332D01*
X288548Y292799D02*
X332306D01*
X288019Y278399D02*
X332271D01*
X286706Y290099D02*
X332247D01*
X287110Y281099D02*
X332219D01*
X283814Y287399D02*
X332199D01*
X282600Y283799D02*
X332178D01*
X282600Y284699D02*
X332164D01*
X283361Y286499D02*
X332148D01*
X282600Y281999D02*
X332138D01*
X283815Y289199D02*
X332129D01*
X288015Y279299D02*
X332124D01*
X288381Y291899D02*
X332120D01*
X331168Y276599D02*
X332119D01*
X324323Y277499D02*
X325677D01*
X324968Y276599D02*
X325032D01*
X292386Y323399D02*
X322730D01*
X282203Y307199D02*
X321149D01*
X293317Y322499D02*
X320589D01*
X289904Y272099D02*
X320300D01*
X283103Y308099D02*
X319703D01*
X288019Y277499D02*
X319477D01*
X293833Y321599D02*
X319330D01*
X288549Y272999D02*
X318988D01*
X288019Y276599D02*
X318832D01*
X288019Y275699D02*
X318800D01*
X288019Y274799D02*
X318800D01*
X287855Y273899D02*
X318800D01*
X283742Y308999D02*
X318701D01*
X294094Y320699D02*
X318426D01*
X283826Y309899D02*
X317953D01*
X294148Y319799D02*
X317743D01*
X283826Y310799D02*
X317382D01*
X294004Y318899D02*
X317222D01*
X283826Y311699D02*
X316951D01*
X293639Y317999D02*
X316833D01*
X283826Y312599D02*
X316638D01*
X292971Y317099D02*
X316557D01*
X283826Y313499D02*
X316430D01*
X291672Y316199D02*
X316383D01*
X283826Y314399D02*
X316321D01*
X283826Y315299D02*
X316305D01*
X283826Y316199D02*
X288328D01*
X284512Y323399D02*
X287614D01*
X285097Y317099D02*
X287029D01*
X285443Y322499D02*
X286683D01*
X285765Y317999D02*
X286361D01*
X285959Y321599D02*
X286167D01*
X282200Y303599D02*
X284705D01*
X283363Y290099D02*
X284294D01*
X282600Y281099D02*
X283890D01*
X282531Y302699D02*
X283469D01*
X282633Y295499D02*
X283367D01*
X282795Y280199D02*
X283205D01*
X282321Y290999D02*
X283115D01*
X282949Y301799D02*
X283051D01*
X282980Y296399D02*
X283020D01*
X281652Y294599D02*
X282967D01*
X270781Y291899D02*
X282619D01*
X270844Y293699D02*
X282556D01*
X270948Y292799D02*
X282452D01*
X276638Y323399D02*
X279740D01*
X270285Y290999D02*
X279479D01*
X276652Y294599D02*
X279348D01*
X277810Y285599D02*
X279200D01*
X278109Y284699D02*
X279200D01*
X278124Y283799D02*
X279200D01*
X277858Y282899D02*
X279200D01*
X277211Y281999D02*
X279200D01*
X277110Y281099D02*
X278890D01*
X277569Y322499D02*
X278809D01*
X277105Y286499D02*
X278439D01*
X269106Y290099D02*
X278437D01*
X277633Y295499D02*
X278367D01*
X278085Y321599D02*
X278293D01*
X277795Y280199D02*
X278205D01*
X277980Y296399D02*
X278020D01*
X245500Y287399D02*
X277986D01*
X245500Y289199D02*
X277985D01*
X245500Y288299D02*
X277850D01*
X271652Y294599D02*
X274348D01*
X245500Y306299D02*
X273800D01*
X245500Y305399D02*
X273800D01*
X245500Y304499D02*
X273800D01*
X271295Y303599D02*
X273800D01*
X245500Y307199D02*
X273697D01*
X272531Y302699D02*
X273469D01*
X272110Y281099D02*
X273400D01*
X272633Y295499D02*
X273367D01*
X272795Y280199D02*
X273205D01*
X245500Y286499D02*
X273095D01*
X272949Y301799D02*
X273051D01*
X272980Y296399D02*
X273020D01*
X245500Y281999D02*
X272989D01*
X245500Y308099D02*
X272842D01*
X245500Y308999D02*
X272553D01*
X245500Y316199D02*
X272552D01*
X245500Y315299D02*
X272552D01*
X245500Y314399D02*
X272552D01*
X245500Y313499D02*
X272552D01*
X245500Y312599D02*
X272552D01*
X245500Y311699D02*
X272552D01*
X245500Y310799D02*
X272552D01*
X245500Y309899D02*
X272552D01*
X245500Y285599D02*
X272390D01*
X245500Y282899D02*
X272342D01*
X245500Y284699D02*
X272091D01*
X245500Y283799D02*
X272076D01*
X245500Y323399D02*
X271866D01*
X245500Y317099D02*
X271281D01*
X245500Y322499D02*
X270935D01*
X245500Y317999D02*
X270613D01*
X245500Y321599D02*
X270419D01*
X245500Y318899D02*
X270248D01*
X245500Y320699D02*
X270158D01*
X245500Y319799D02*
X270104D01*
X245500Y303599D02*
X269705D01*
X245500Y281099D02*
X268890D01*
X245500Y272099D02*
X268800D01*
X245500Y272999D02*
X268730D01*
X245500Y302699D02*
X268469D01*
X245500Y280199D02*
X268205D01*
X245500Y273899D02*
X268145D01*
X266281Y301799D02*
X268051D01*
X266278Y296399D02*
X268020D01*
X245500Y279299D02*
X267985D01*
X266697Y300899D02*
X267981D01*
X266700Y299999D02*
X267981D01*
X266700Y299099D02*
X267981D01*
X266700Y298199D02*
X267981D01*
X266696Y297299D02*
X267981D01*
X245500Y278399D02*
X267981D01*
X245500Y277499D02*
X267981D01*
X245500Y276599D02*
X267981D01*
X245500Y275699D02*
X267981D01*
X245500Y274799D02*
X267981D01*
X266164Y290099D02*
X266694D01*
X245500Y271199D02*
X264500D01*
X245500Y270299D02*
X264500D01*
X245500Y269399D02*
X264500D01*
X245500Y268499D02*
X264500D01*
X245500Y267599D02*
X264500D01*
X245500Y263999D02*
X264500D01*
X245500Y263099D02*
X264500D01*
X245500Y262199D02*
X264500D01*
X245500Y261299D02*
X264500D01*
X245500Y260399D02*
X264500D01*
X245797Y259499D02*
X264500D01*
X245800Y258599D02*
X264500D01*
X245800Y257699D02*
X264500D01*
X245800Y256799D02*
X264500D01*
X245800Y255899D02*
X264500D01*
X245800Y254999D02*
X264500D01*
X245800Y254099D02*
X264500D01*
X245800Y253199D02*
X264500D01*
X245800Y252299D02*
X264500D01*
X245800Y251399D02*
X264500D01*
X245800Y250499D02*
X264500D01*
X246506Y249599D02*
X264500D01*
X247406Y248699D02*
X264500D01*
X251643Y244199D02*
X264500D01*
X251231Y243299D02*
X264500D01*
X250292Y242399D02*
X264500D01*
X245500Y241499D02*
X264500D01*
X245500Y240599D02*
X264500D01*
X245500Y239699D02*
X264500D01*
X264057Y232499D02*
X264500D01*
X245500Y226199D02*
X264500D01*
X245500Y225299D02*
X264500D01*
X245500Y224399D02*
X264500D01*
X245500Y223499D02*
X264500D01*
X263942Y222599D02*
X264500D01*
X264146Y214499D02*
X264500D01*
X263942Y213599D02*
X264500D01*
X264146Y205499D02*
X264500D01*
X198500Y204599D02*
X264500D01*
X198500Y203699D02*
X264500D01*
X198500Y202799D02*
X264500D01*
X161800Y201899D02*
X264500D01*
X251748Y245099D02*
X264391D01*
X249912Y247799D02*
X264340D01*
X245500Y264899D02*
X264286D01*
X245500Y266699D02*
X264285D01*
X245500Y265799D02*
X264150D01*
X251582Y245999D02*
X264091D01*
X251087Y246899D02*
X264076D01*
X245500Y233399D02*
X263094D01*
X245500Y232499D02*
X262943D01*
X245500Y238799D02*
X262703D01*
X245500Y234299D02*
X261915D01*
X245500Y290099D02*
X261836D01*
X245500Y237899D02*
X261767D01*
X245500Y296399D02*
X261722D01*
X245500Y301799D02*
X261719D01*
X245500Y295499D02*
X261626D01*
X245500Y227099D02*
X261619D01*
X245500Y235199D02*
X261419D01*
X245500Y236999D02*
X261356D01*
X245500Y290999D02*
X261315D01*
X245500Y297299D02*
X261304D01*
X245500Y300899D02*
X261303D01*
X245500Y299999D02*
X261300D01*
X245500Y299099D02*
X261300D01*
X245500Y298199D02*
X261300D01*
X245500Y294599D02*
X261300D01*
X245500Y293699D02*
X261300D01*
X245500Y292799D02*
X261300D01*
X245500Y291899D02*
X261300D01*
X245500Y231599D02*
X261287D01*
X245500Y236099D02*
X261252D01*
X245500Y227999D02*
X260845D01*
X245500Y230699D02*
X260695D01*
X245500Y228899D02*
X260510D01*
X245500Y229799D02*
X260465D01*
X254942Y222599D02*
X258458D01*
X254942Y213599D02*
X258458D01*
X255146Y214499D02*
X258254D01*
X255146Y205499D02*
X258254D01*
X255815Y221699D02*
X257585D01*
X255815Y212699D02*
X257585D01*
X255845Y215399D02*
X257555D01*
X255845Y206399D02*
X257555D01*
X255900Y220799D02*
X257500D01*
X255900Y216299D02*
X257500D01*
X255900Y211799D02*
X257500D01*
X255900Y210899D02*
X257500D01*
X255900Y209999D02*
X257500D01*
X255900Y209099D02*
X257500D01*
X255900Y208199D02*
X257500D01*
X255900Y207299D02*
X257500D01*
X161800Y200999D02*
X250194D01*
X245500Y222599D02*
X249458D01*
X245500Y213599D02*
X249458D01*
X161800Y200099D02*
X249294D01*
X245500Y214499D02*
X249254D01*
X198500Y205499D02*
X249254D01*
X245500Y221699D02*
X248585D01*
X245500Y212699D02*
X248585D01*
X245500Y215399D02*
X248555D01*
X198500Y206399D02*
X248555D01*
X245500Y220799D02*
X248500D01*
X245500Y219899D02*
X248500D01*
X245500Y218999D02*
X248500D01*
X245500Y218099D02*
X248500D01*
X245500Y217199D02*
X248500D01*
X245500Y216299D02*
X248500D01*
X245500Y211799D02*
X248500D01*
X245500Y210899D02*
X248500D01*
X198500Y209999D02*
X248500D01*
X198500Y209099D02*
X248500D01*
X198500Y208199D02*
X248500D01*
X198500Y207299D02*
X248500D01*
X161800Y199199D02*
X248394D01*
X212221Y198299D02*
X247494D01*
X245500Y242399D02*
X247108D01*
X212687Y197399D02*
X246594D01*
X245500Y243299D02*
X246169D01*
X212700Y196499D02*
X245909D01*
X212700Y195599D02*
X245800D01*
X212700Y194699D02*
X245800D01*
X212700Y193799D02*
X245800D01*
X212700Y192899D02*
X245800D01*
X212700Y191999D02*
X245800D01*
X235078Y191099D02*
X245800D01*
X245500Y244199D02*
X245757D01*
X245500Y245099D02*
X245652D01*
X161800Y198299D02*
X205779D01*
X161800Y197399D02*
X205313D01*
X161800Y196499D02*
X205300D01*
X161800Y195599D02*
X205300D01*
X204374Y194699D02*
X205300D01*
X204700Y193799D02*
X205300D01*
X204700Y192899D02*
X205300D01*
X204700Y191999D02*
X205300D01*
X173667Y194699D02*
X199626D01*
X175500Y193799D02*
X199300D01*
X175500Y192899D02*
X199300D01*
X175500Y191999D02*
X199300D01*
X175500Y191099D02*
X186922D01*
X175500Y190199D02*
X185500D01*
X175500Y189299D02*
X185500D01*
X175500Y188399D02*
X185500D01*
X175500Y187499D02*
X185500D01*
X175500Y186599D02*
X185500D01*
X175500Y185699D02*
X185500D01*
X175500Y184799D02*
X185500D01*
X363812Y170099D02*
X372200D01*
X364456Y169199D02*
X372200D01*
X364902Y168299D02*
X372200D01*
X370566Y167399D02*
X372200D01*
X370700Y166499D02*
X372200D01*
X370700Y165599D02*
X372200D01*
X370700Y164699D02*
X372200D01*
X370700Y163799D02*
X372200D01*
X370607Y162899D02*
X372200D01*
X369361Y161999D02*
X372200D01*
X370608Y161099D02*
X372200D01*
X370700Y160199D02*
X372200D01*
X370700Y159299D02*
X372200D01*
X370700Y158399D02*
X372200D01*
X370700Y157499D02*
X372200D01*
X370564Y156599D02*
X372200D01*
X352306Y155699D02*
X372200D01*
X353206Y154799D02*
X372200D01*
X370168Y153899D02*
X372200D01*
X370686Y152999D02*
X372200D01*
X370700Y152099D02*
X372200D01*
X370700Y151199D02*
X372200D01*
X370700Y150299D02*
X372200D01*
X370700Y149399D02*
X372200D01*
X370371Y148499D02*
X372200D01*
X370281Y147599D02*
X372200D01*
X356980Y161999D02*
X366639D01*
X365521Y153899D02*
X365832D01*
X356980Y147599D02*
X365719D01*
X365516Y148499D02*
X365629D01*
X364944Y167399D02*
X365434D01*
X364067Y162899D02*
X365393D01*
X364944Y166499D02*
X365300D01*
X364944Y165599D02*
X365300D01*
X364944Y164699D02*
X365300D01*
X364798Y163799D02*
X365300D01*
X356980Y148499D02*
X362684D01*
X354106Y153899D02*
X362679D01*
X351406Y156599D02*
X361898D01*
X361508Y162899D02*
X361847D01*
X356956Y161099D02*
X361786D01*
X356980Y149399D02*
X361639D01*
X355006Y152999D02*
X361637D01*
X353762Y157499D02*
X361191D01*
X356980Y150299D02*
X361186D01*
X355906Y152099D02*
X361185D01*
X356503Y160199D02*
X361140D01*
X356735Y151199D02*
X361050D01*
X354703Y158399D02*
X360891D01*
X355603Y159299D02*
X360876D01*
X358949Y162899D02*
X359288D01*
X331406Y157499D02*
X332438D01*
X330506Y158399D02*
X331497D01*
X329606Y159299D02*
X330597D01*
X328706Y160199D02*
X329697D01*
X327806Y161099D02*
X328797D01*
X326906Y161999D02*
X327897D01*
X326006Y162899D02*
X326997D01*
X325106Y163799D02*
X326097D01*
X324206Y164699D02*
X325197D01*
X323306Y165599D02*
X324297D01*
X322406Y166499D02*
X323397D01*
X321506Y167399D02*
X322497D01*
X320606Y168299D02*
X321597D01*
X319706Y169199D02*
X320697D01*
X318806Y170099D02*
X319797D01*
X375000Y261899D02*
X397000D01*
X375000Y260999D02*
X397000D01*
X375000Y260099D02*
X397000D01*
X375000Y259199D02*
X397000D01*
X375000Y258299D02*
X397000D01*
X375000Y257399D02*
X397000D01*
X375000Y256499D02*
X397000D01*
X375000Y255599D02*
X397000D01*
X375000Y254699D02*
X397000D01*
X375000Y253799D02*
X397000D01*
X375000Y252899D02*
X397000D01*
X375000Y251999D02*
X397000D01*
X375000Y251099D02*
X397000D01*
X390311Y250199D02*
X397000D01*
X391277Y249299D02*
X397000D01*
X391811Y248399D02*
X397000D01*
X392084Y247499D02*
X397000D01*
X392150Y246599D02*
X397000D01*
X392018Y245699D02*
X397000D01*
X391667Y244799D02*
X397000D01*
X391021Y243899D02*
X397000D01*
X389785Y242999D02*
X397000D01*
X390617Y242099D02*
X397000D01*
X391441Y241199D02*
X397000D01*
X391901Y240299D02*
X397000D01*
X392119Y239399D02*
X397000D01*
X392136Y238499D02*
X397000D01*
X391952Y237599D02*
X397000D01*
X391537Y236699D02*
X397000D01*
X390791Y235799D02*
X397000D01*
X389430Y234899D02*
X397000D01*
X390873Y233999D02*
X397000D01*
X391583Y233099D02*
X397000D01*
X391976Y232199D02*
X397000D01*
X392142Y231299D02*
X397000D01*
X392109Y230399D02*
X397000D01*
X391872Y229499D02*
X397000D01*
X391388Y228599D02*
X397000D01*
X390519Y227699D02*
X397000D01*
X375000Y226799D02*
X397000D01*
X375000Y225899D02*
X397000D01*
X375000Y224999D02*
X397000D01*
X375000Y224099D02*
X397000D01*
X375000Y223199D02*
X397000D01*
X375000Y222299D02*
X397000D01*
X375000Y221399D02*
X397000D01*
X375000Y220499D02*
X397000D01*
X375000Y219599D02*
X397000D01*
X375000Y218699D02*
X397000D01*
X375000Y217799D02*
X397000D01*
X375000Y216899D02*
X397000D01*
X375000Y215999D02*
X397000D01*
X375000Y215099D02*
X397000D01*
X375000Y214199D02*
X397000D01*
X375000Y213299D02*
X397000D01*
X375000Y212399D02*
X397000D01*
X375000Y211499D02*
X397000D01*
X375000Y210599D02*
X397000D01*
X375000Y209699D02*
X397000D01*
X375000Y208799D02*
X397000D01*
X375000Y207899D02*
X397000D01*
X375000Y206999D02*
X397000D01*
X375000Y206099D02*
X397000D01*
X375000Y205199D02*
X397000D01*
X375000Y204299D02*
X397000D01*
X375000Y203399D02*
X397000D01*
X375000Y202499D02*
X397000D01*
X375000Y201599D02*
X397000D01*
X375000Y200699D02*
X397000D01*
X375000Y199799D02*
X397000D01*
X375000Y198899D02*
X397000D01*
X389417Y197999D02*
X397000D01*
X390333Y197099D02*
X397000D01*
X390842Y196199D02*
X397000D01*
X391097Y195299D02*
X397000D01*
X391147Y194399D02*
X397000D01*
X390998Y193499D02*
X397000D01*
X390627Y192599D02*
X397000D01*
X389949Y191699D02*
X397000D01*
X388621Y190799D02*
X397000D01*
X389705Y189899D02*
X397000D01*
X390490Y188999D02*
X397000D01*
X390927Y188099D02*
X397000D01*
X391128Y187199D02*
X397000D01*
X391128Y186299D02*
X397000D01*
X390927Y185399D02*
X397000D01*
X390491Y184499D02*
X397000D01*
X389707Y183599D02*
X397000D01*
X388618Y182699D02*
X397000D01*
X389948Y181799D02*
X397000D01*
X390626Y180899D02*
X397000D01*
X390998Y179999D02*
X397000D01*
X391147Y179099D02*
X397000D01*
X391097Y178199D02*
X397000D01*
X390842Y177299D02*
X397000D01*
X390334Y176399D02*
X397000D01*
X389419Y175499D02*
X397000D01*
X389072Y174599D02*
X397000D01*
X390156Y173699D02*
X397000D01*
X390743Y172799D02*
X397000D01*
X391054Y171899D02*
X397000D01*
X391153Y170999D02*
X397000D01*
X391054Y170099D02*
X397000D01*
X390742Y169199D02*
X397000D01*
X390154Y168299D02*
X397000D01*
X389068Y167399D02*
X397000D01*
X376200Y166499D02*
X397000D01*
X376200Y165599D02*
X397000D01*
X376200Y164699D02*
X397000D01*
X376200Y163799D02*
X397000D01*
X376200Y162899D02*
X397000D01*
X376200Y161999D02*
X397000D01*
X376200Y161099D02*
X397000D01*
X376200Y160199D02*
X397000D01*
X376200Y159299D02*
X397000D01*
X376200Y158399D02*
X397000D01*
X376200Y157499D02*
X397000D01*
X376200Y156599D02*
X397000D01*
X376200Y155699D02*
X397000D01*
X376200Y154799D02*
X397000D01*
X376200Y153899D02*
X397000D01*
X376200Y152999D02*
X397000D01*
X376200Y152099D02*
X397000D01*
X376200Y151199D02*
X397000D01*
X376200Y150299D02*
X397000D01*
X376200Y149399D02*
X397000D01*
X388489Y148499D02*
X397000D01*
X389896Y147599D02*
X397000D01*
X390596Y146699D02*
X397000D01*
X390983Y145799D02*
X397000D01*
X391144Y144899D02*
X397000D01*
X391106Y143999D02*
X397000D01*
X390863Y143099D02*
X397000D01*
X390372Y142199D02*
X397000D01*
X389490Y141299D02*
X397000D01*
X388979Y140399D02*
X397000D01*
X390111Y139499D02*
X397000D01*
X390718Y138599D02*
X397000D01*
X391043Y137699D02*
X397000D01*
X391152Y136799D02*
X397000D01*
X391065Y135899D02*
X397000D01*
X390766Y134999D02*
X397000D01*
X390198Y134099D02*
X397000D01*
X389156Y133199D02*
X397000D01*
X389349Y132299D02*
X397000D01*
X390297Y131399D02*
X397000D01*
X390822Y130499D02*
X397000D01*
X391089Y129599D02*
X397000D01*
X391149Y128699D02*
X397000D01*
X391011Y127799D02*
X397000D01*
X390653Y126899D02*
X397000D01*
X389996Y125999D02*
X397000D01*
X388730Y125099D02*
X397000D01*
X389648Y124199D02*
X397000D01*
X390459Y123299D02*
X397000D01*
X390910Y122399D02*
X397000D01*
X391123Y121499D02*
X397000D01*
X391133Y120599D02*
X397000D01*
X390944Y119699D02*
X397000D01*
X390521Y118799D02*
X397000D01*
X389762Y117899D02*
X397000D01*
X388111Y116999D02*
X397000D01*
X333630Y116099D02*
X397000D01*
X333698Y115199D02*
X397000D01*
X333672Y114299D02*
X397000D01*
X333551Y113399D02*
X397000D01*
X333333Y112499D02*
X397000D01*
X333008Y111599D02*
X397000D01*
X332562Y110699D02*
X397000D01*
X331974Y109799D02*
X397000D01*
X331202Y108899D02*
X397000D01*
X330164Y107999D02*
X397000D01*
X328641Y107099D02*
X397000D01*
X175500Y106199D02*
X397000D01*
X175500Y105299D02*
X397000D01*
X175500Y104399D02*
X397000D01*
X175500Y103499D02*
X397000D01*
X175500Y102599D02*
X397000D01*
X375000Y242999D02*
X386215D01*
X333467Y116999D02*
X385889D01*
X375000Y250199D02*
X385689D01*
X376200Y148499D02*
X385511D01*
X375000Y227699D02*
X385481D01*
X375000Y242099D02*
X385383D01*
X375000Y182699D02*
X385382D01*
X248582Y125099D02*
X385270D01*
X375000Y243899D02*
X384979D01*
X376200Y167399D02*
X384932D01*
X376198Y174599D02*
X384928D01*
X375000Y249299D02*
X384723D01*
X375000Y228599D02*
X384612D01*
X375000Y197999D02*
X384583D01*
X375933Y175499D02*
X384581D01*
X375000Y241199D02*
X384559D01*
X247682Y124199D02*
X384352D01*
X375000Y244799D02*
X384333D01*
X375000Y183599D02*
X384293D01*
X333203Y117899D02*
X384238D01*
X375000Y248399D02*
X384189D01*
X376200Y147599D02*
X384104D01*
X375000Y181799D02*
X384052D01*
X249482Y125999D02*
X384004D01*
X375000Y245699D02*
X383982D01*
X375000Y247499D02*
X383916D01*
X375000Y246599D02*
X383850D01*
X376200Y168299D02*
X383846D01*
X376200Y173699D02*
X383844D01*
X375000Y197099D02*
X383667D01*
X375130Y176399D02*
X383666D01*
X327612Y123299D02*
X383541D01*
X375000Y184499D02*
X383509D01*
X332827Y118799D02*
X383479D01*
X376200Y146699D02*
X383404D01*
X375000Y180899D02*
X383374D01*
X294496Y126899D02*
X383347D01*
X376200Y169199D02*
X383258D01*
X376200Y172799D02*
X383257D01*
X375000Y177299D02*
X383158D01*
X329577Y122399D02*
X383090D01*
X373869Y143099D02*
X383072D01*
X332322Y119699D02*
X383056D01*
X376177Y145799D02*
X383017D01*
X375000Y179999D02*
X383002D01*
X376200Y170099D02*
X382946D01*
X376200Y171899D02*
X382946D01*
X375000Y178199D02*
X382903D01*
X374927Y143999D02*
X382894D01*
X330784Y121499D02*
X382877D01*
X331659Y120599D02*
X382867D01*
X375799Y144899D02*
X382856D01*
X375000Y179099D02*
X382853D01*
X376200Y170999D02*
X382847D01*
X370278Y142199D02*
X382172D01*
X364773Y141299D02*
X381272D01*
X363974Y140399D02*
X380372D01*
X359539Y139499D02*
X379472D01*
X359544Y138599D02*
X378572D01*
X360444Y137699D02*
X377672D01*
X364944Y142199D02*
X365722D01*
X361414Y140399D02*
X361940D01*
X296309Y127799D02*
X355199D01*
X297104Y128699D02*
X354299D01*
X297550Y129599D02*
X353399D01*
X297761Y130499D02*
X352499D01*
X297772Y131399D02*
X351599D01*
X297585Y132299D02*
X350699D01*
X297169Y133199D02*
X349799D01*
X296426Y134099D02*
X348899D01*
X318397Y150299D02*
X348461D01*
X326897Y149399D02*
X348461D01*
X327833Y148499D02*
X348461D01*
X328244Y147599D02*
X348461D01*
X319815Y134999D02*
X347999D01*
X306794Y151199D02*
X347597D01*
X320820Y135899D02*
X347099D01*
X321720Y136799D02*
X346229D01*
X322620Y137699D02*
X345905D01*
X324420Y139499D02*
X345902D01*
X323520Y138599D02*
X345902D01*
X327803Y140399D02*
X344026D01*
X330112Y146699D02*
X343495D01*
X330492Y141299D02*
X343227D01*
X331287Y145799D02*
X343086D01*
X331782Y144899D02*
X343056D01*
X331948Y143999D02*
X343056D01*
X331843Y143099D02*
X343056D01*
X331431Y142199D02*
X343056D01*
X307102Y152099D02*
X327697D01*
X307200Y152999D02*
X326797D01*
X307103Y153899D02*
X325897D01*
X306795Y154799D02*
X324997D01*
X306218Y155699D02*
X324097D01*
X319333Y149399D02*
X323703D01*
X305166Y156599D02*
X323197D01*
X319744Y148499D02*
X322767D01*
X246782Y123299D02*
X322388D01*
X319848Y147599D02*
X322356D01*
X267600Y157499D02*
X322297D01*
X322205Y146699D02*
X322252D01*
X316000Y158399D02*
X321397D01*
X178641Y107099D02*
X321359D01*
X316000Y159299D02*
X320497D01*
X245882Y122399D02*
X320423D01*
X180164Y107999D02*
X319836D01*
X316000Y160199D02*
X319597D01*
X244982Y121499D02*
X319216D01*
X181202Y108899D02*
X318798D01*
X316000Y161099D02*
X318697D01*
X244082Y120599D02*
X318341D01*
X295935Y109799D02*
X318026D01*
X316000Y161999D02*
X317797D01*
X243192Y119699D02*
X317678D01*
X296901Y110699D02*
X317438D01*
X243457Y118799D02*
X317173D01*
X297438Y111599D02*
X316992D01*
X316000Y162899D02*
X316897D01*
X243528Y117899D02*
X316797D01*
X297717Y112499D02*
X316667D01*
X295549Y116999D02*
X316533D01*
X297789Y113399D02*
X316449D01*
X296707Y116099D02*
X316370D01*
X297666Y114299D02*
X316328D01*
X297328Y115199D02*
X316302D01*
X306216Y150299D02*
X315203D01*
X295166Y156599D02*
X300834D01*
X296216Y150299D02*
X299784D01*
X296218Y155699D02*
X299782D01*
X296794Y151199D02*
X299206D01*
X296795Y154799D02*
X299205D01*
X297102Y152099D02*
X298898D01*
X297103Y153899D02*
X298897D01*
X297200Y152999D02*
X298800D01*
X289767Y138599D02*
X294958D01*
X268905Y126899D02*
X292685D01*
X269959Y116999D02*
X291632D01*
X270344Y109799D02*
X291246D01*
X270719Y127799D02*
X290872D01*
X285166Y156599D02*
X290834D01*
X270835Y134099D02*
X290755D01*
X288867Y139499D02*
X290622D01*
X271117Y116099D02*
X290474D01*
X271310Y110699D02*
X290280D01*
X271513Y128699D02*
X290077D01*
X271579Y133199D02*
X290012D01*
X286096Y145799D02*
X289904D01*
X271738Y115199D02*
X289853D01*
X288106Y150299D02*
X289784D01*
X286218Y155699D02*
X289782D01*
X271847Y111599D02*
X289743D01*
X287967Y140399D02*
X289672D01*
X271959Y129599D02*
X289631D01*
X271994Y132299D02*
X289596D01*
X272075Y114299D02*
X289515D01*
X272126Y112499D02*
X289464D01*
X272170Y130499D02*
X289421D01*
X272181Y131399D02*
X289409D01*
X272198Y113399D02*
X289392D01*
X286726Y144899D02*
X289274D01*
X287206Y151199D02*
X289206D01*
X286795Y154799D02*
X289205D01*
X287067Y141299D02*
X289143D01*
X287070Y143999D02*
X288930D01*
X287102Y152099D02*
X288898D01*
X287103Y153899D02*
X288897D01*
X287130Y142199D02*
X288870D01*
X287198Y143099D02*
X288802D01*
X287200Y152999D02*
X288800D01*
X269285Y134999D02*
X288663D01*
X259382Y135899D02*
X287658D01*
X284916Y146699D02*
X286897D01*
X260282Y136799D02*
X286758D01*
X267600Y147599D02*
X285997D01*
X261182Y137699D02*
X285858D01*
X267600Y148499D02*
X285097D01*
X262082Y138599D02*
X284958D01*
X274916Y146699D02*
X281084D01*
X276795Y149399D02*
X280839D01*
X276797Y156599D02*
X280834D01*
X275378Y139499D02*
X280622D01*
X276096Y145799D02*
X279904D01*
X277188Y150299D02*
X279784D01*
X277188Y155699D02*
X279782D01*
X276328Y140399D02*
X279672D01*
X276726Y144899D02*
X279274D01*
X277200Y151199D02*
X279206D01*
X277200Y154799D02*
X279205D01*
X276857Y141299D02*
X279143D01*
X277070Y143999D02*
X278930D01*
X277200Y152099D02*
X278898D01*
X277200Y153899D02*
X278897D01*
X277130Y142199D02*
X278870D01*
X277198Y143099D02*
X278802D01*
X277200Y152999D02*
X278800D01*
X267600Y146699D02*
X271084D01*
X262982Y139499D02*
X270622D01*
X267600Y145799D02*
X269904D01*
X263882Y140399D02*
X269672D01*
X267600Y144899D02*
X269274D01*
X267600Y149399D02*
X269205D01*
X267600Y156599D02*
X269203D01*
X264782Y141299D02*
X269143D01*
X267388Y143999D02*
X268930D01*
X265682Y142199D02*
X268870D01*
X267600Y150299D02*
X268812D01*
X267600Y155699D02*
X268812D01*
X266582Y143099D02*
X268802D01*
X267600Y170099D02*
X268800D01*
X267600Y169199D02*
X268800D01*
X267600Y168299D02*
X268800D01*
X267600Y167399D02*
X268800D01*
X267600Y166499D02*
X268800D01*
X267600Y165599D02*
X268800D01*
X267600Y164699D02*
X268800D01*
X267600Y163799D02*
X268800D01*
X267600Y162899D02*
X268800D01*
X267600Y161999D02*
X268800D01*
X267600Y161099D02*
X268800D01*
X267600Y160199D02*
X268800D01*
X267600Y159299D02*
X268800D01*
X267600Y158399D02*
X268800D01*
X267600Y154799D02*
X268800D01*
X267600Y153899D02*
X268800D01*
X267600Y152999D02*
X268800D01*
X267600Y152099D02*
X268800D01*
X267600Y151199D02*
X268800D01*
X250382Y126899D02*
X267095D01*
X258482Y134999D02*
X266715D01*
X243415Y116999D02*
X266041D01*
X181974Y109799D02*
X265656D01*
X251282Y127799D02*
X265281D01*
X257582Y134099D02*
X265165D01*
X243102Y116099D02*
X264883D01*
X182562Y110699D02*
X264690D01*
X252182Y128699D02*
X264487D01*
X256682Y133199D02*
X264421D01*
X242536Y115199D02*
X264262D01*
X183008Y111599D02*
X264153D01*
X253082Y129599D02*
X264041D01*
X255782Y132299D02*
X264006D01*
X241549Y114299D02*
X263925D01*
X183333Y112499D02*
X263874D01*
X253982Y130499D02*
X263830D01*
X254882Y131399D02*
X263819D01*
X183551Y113399D02*
X263802D01*
X175500Y161099D02*
X260800D01*
X175625Y160199D02*
X260800D01*
X175700Y159299D02*
X260800D01*
X175700Y158399D02*
X260800D01*
X175700Y157499D02*
X260800D01*
X175700Y156599D02*
X260800D01*
X175700Y155699D02*
X260800D01*
X175700Y154799D02*
X260800D01*
X175700Y153899D02*
X260800D01*
X175700Y152999D02*
X260800D01*
X175700Y152099D02*
X260800D01*
X175652Y151199D02*
X260800D01*
X175500Y150299D02*
X260800D01*
X175500Y149399D02*
X260800D01*
X175500Y148499D02*
X260800D01*
X175500Y147599D02*
X260800D01*
X162500Y161999D02*
X260693D01*
X175500Y146699D02*
X260565D01*
X162500Y162899D02*
X259793D01*
X175500Y145799D02*
X259665D01*
X212317Y163799D02*
X258893D01*
X175500Y144899D02*
X258765D01*
X212697Y164699D02*
X257993D01*
X175500Y143999D02*
X257865D01*
X212700Y165599D02*
X257093D01*
X175500Y143099D02*
X256965D01*
X212700Y166499D02*
X256193D01*
X175500Y142199D02*
X256065D01*
X212700Y167399D02*
X255293D01*
X175500Y141299D02*
X255165D01*
X212700Y168299D02*
X254393D01*
X175500Y140399D02*
X254265D01*
X212700Y169199D02*
X253493D01*
X175500Y139499D02*
X253365D01*
X212700Y170099D02*
X252593D01*
X175500Y138599D02*
X252465D01*
X175500Y137699D02*
X251565D01*
X175500Y136799D02*
X250665D01*
X225860Y132299D02*
X248569D01*
X241754Y131399D02*
X247669D01*
X242649Y130499D02*
X246769D01*
X243168Y129599D02*
X245869D01*
X243446Y128699D02*
X244969D01*
X243529Y127799D02*
X244069D01*
X231313Y114299D02*
X236608D01*
X231518Y131399D02*
X236404D01*
X232300Y115199D02*
X235621D01*
X232346Y125099D02*
X235575D01*
X232413Y130499D02*
X235508D01*
X232455Y120599D02*
X235466D01*
X232866Y116099D02*
X235055D01*
X232893Y125999D02*
X235029D01*
X232931Y129599D02*
X234990D01*
X232956Y119699D02*
X234966D01*
X233178Y116999D02*
X234743D01*
X233191Y126899D02*
X234730D01*
X233209Y128699D02*
X234712D01*
X233220Y118799D02*
X234701D01*
X233291Y117899D02*
X234630D01*
X233292Y127799D02*
X234629D01*
X223159Y114299D02*
X226372D01*
X224960Y131399D02*
X226167D01*
X223449Y115199D02*
X225385D01*
X222503Y125099D02*
X225339D01*
X224060Y130499D02*
X225272D01*
X224003Y120599D02*
X225230D01*
X223450Y116099D02*
X224819D01*
X223050Y125999D02*
X224792D01*
X223160Y129599D02*
X224754D01*
X223450Y119699D02*
X224729D01*
X175500Y135899D02*
X224652D01*
X223450Y116999D02*
X224507D01*
X223349Y126899D02*
X224494D01*
X223367Y128699D02*
X224476D01*
X223450Y118799D02*
X224465D01*
X223450Y117899D02*
X224394D01*
X223450Y127799D02*
X224393D01*
X175500Y134999D02*
X223752D01*
X175500Y134099D02*
X222852D01*
X221554Y124199D02*
X222794D01*
X175500Y133199D02*
X221952D01*
X177612Y123299D02*
X221894D01*
X175500Y132299D02*
X221052D01*
X175500Y124199D02*
X216446D01*
X175500Y131399D02*
X216325D01*
X179577Y122399D02*
X215835D01*
X175500Y125099D02*
X215497D01*
X175500Y130499D02*
X215430D01*
X175500Y125999D02*
X214950D01*
X175500Y129599D02*
X214911D01*
X183672Y114299D02*
X214841D01*
X180784Y121499D02*
X214724D01*
X175500Y126899D02*
X214651D01*
X175500Y128699D02*
X214633D01*
X183698Y115199D02*
X214551D01*
X175500Y127799D02*
X214550D01*
X181659Y120599D02*
X214550D01*
X182322Y119699D02*
X214550D01*
X182827Y118799D02*
X214550D01*
X183203Y117899D02*
X214550D01*
X183467Y116999D02*
X214550D01*
X183630Y116099D02*
X214550D01*
X162500Y163799D02*
X205683D01*
X162500Y164699D02*
X205303D01*
X204700Y170099D02*
X205300D01*
X204700Y169199D02*
X205300D01*
X204700Y168299D02*
X205300D01*
X204700Y167399D02*
X205300D01*
X204512Y166499D02*
X205300D01*
X162500Y165599D02*
X205300D01*
X162500Y166499D02*
X199488D01*
X175600Y170099D02*
X199300D01*
X175500Y169199D02*
X199300D01*
X174698Y168299D02*
X199300D01*
X162500Y167399D02*
X199300D01*
X144487Y259299D02*
X223100D01*
X144487Y258399D02*
X223100D01*
X144487Y257499D02*
X223100D01*
X144482Y256599D02*
X223100D01*
X144137Y255699D02*
X223100D01*
X129604Y254799D02*
X223100D01*
X131034Y253899D02*
X223100D01*
X131934Y252999D02*
X223100D01*
X132834Y252099D02*
X223100D01*
X143891Y251199D02*
X223100D01*
X144441Y250299D02*
X223100D01*
X144487Y249399D02*
X223100D01*
X144487Y248499D02*
X223100D01*
X144487Y247599D02*
X223100D01*
X144487Y246699D02*
X223100D01*
X144487Y245799D02*
X223100D01*
X144487Y244899D02*
X223100D01*
X144485Y243999D02*
X223100D01*
X144165Y243099D02*
X223100D01*
X102500Y242199D02*
X223100D01*
X102500Y241299D02*
X223100D01*
X102500Y240399D02*
X223100D01*
X102500Y239499D02*
X223100D01*
X102500Y238599D02*
X223100D01*
X102500Y237699D02*
X223100D01*
X102500Y236799D02*
X223100D01*
X102500Y235899D02*
X223100D01*
X102500Y234999D02*
X223100D01*
X102500Y234099D02*
X223100D01*
X102500Y233199D02*
X223100D01*
X102500Y232299D02*
X223100D01*
X102500Y231399D02*
X223100D01*
X102500Y230499D02*
X223100D01*
X102500Y229599D02*
X223100D01*
X102500Y228699D02*
X223100D01*
X102500Y227799D02*
X223100D01*
X205002Y260199D02*
X222773D01*
X102500Y289899D02*
X202500D01*
X102500Y288999D02*
X202500D01*
X167917Y288099D02*
X202500D01*
X169722Y287199D02*
X202500D01*
X170515Y286299D02*
X202500D01*
X170960Y285399D02*
X202500D01*
X171170Y284499D02*
X202500D01*
X171181Y283599D02*
X202500D01*
X170993Y282699D02*
X202500D01*
X170577Y281799D02*
X202500D01*
X169832Y280899D02*
X202500D01*
X168277Y279999D02*
X202500D01*
X102500Y279099D02*
X202500D01*
X102500Y278199D02*
X202500D01*
X102500Y277299D02*
X202500D01*
X102500Y276399D02*
X202500D01*
X102500Y275499D02*
X202500D01*
X102500Y274599D02*
X202500D01*
X102500Y273699D02*
X202500D01*
X102500Y272799D02*
X202500D01*
X102500Y271899D02*
X202500D01*
X102500Y270999D02*
X202500D01*
X102500Y270099D02*
X202500D01*
X102500Y269199D02*
X202500D01*
X102500Y268299D02*
X202500D01*
X102500Y267399D02*
X202500D01*
X102500Y266499D02*
X202500D01*
X102500Y265599D02*
X202500D01*
X144487Y260199D02*
X200998D01*
X102500Y264699D02*
X200886D01*
X144487Y261099D02*
X200291D01*
X143934Y263799D02*
X200240D01*
X144487Y261999D02*
X199991D01*
X144450Y262899D02*
X199976D01*
X150480Y288099D02*
X166083D01*
X150692Y279999D02*
X165723D01*
X151401Y287199D02*
X164278D01*
X151436Y280899D02*
X164168D01*
X151515Y286299D02*
X163485D01*
X151515Y281799D02*
X163423D01*
X151515Y285399D02*
X163040D01*
X151515Y282699D02*
X163007D01*
X151515Y284499D02*
X162830D01*
X151515Y283599D02*
X162819D01*
X102500Y288099D02*
X144149D01*
X102500Y279999D02*
X143938D01*
X102500Y287199D02*
X143229D01*
X102500Y280899D02*
X143194D01*
X102500Y286299D02*
X143115D01*
X102500Y285399D02*
X143115D01*
X102500Y284499D02*
X143115D01*
X102500Y283599D02*
X143115D01*
X102500Y282699D02*
X143115D01*
X102500Y281799D02*
X143115D01*
X133734Y251199D02*
X136109D01*
X102500Y263799D02*
X136066D01*
X120007Y255699D02*
X135863D01*
X102500Y243099D02*
X135835D01*
X102500Y262899D02*
X135550D01*
X118707Y256599D02*
X135518D01*
X102500Y261999D02*
X135513D01*
X102500Y261099D02*
X135513D01*
X102500Y260199D02*
X135513D01*
X102500Y259299D02*
X135513D01*
X102500Y258399D02*
X135513D01*
X102500Y257499D02*
X135513D01*
X102500Y243999D02*
X130536D01*
X102500Y244899D02*
X129569D01*
X118267Y245799D02*
X128669D01*
X119772Y246699D02*
X127769D01*
X120659Y247599D02*
X126869D01*
X102500Y245799D02*
X113733D01*
X102500Y256599D02*
X113293D01*
X102500Y246699D02*
X112228D01*
X102500Y255699D02*
X111993D01*
X102500Y247599D02*
X111341D01*
X102500Y254799D02*
X111187D01*
X102500Y248499D02*
X110751D01*
X102500Y253899D02*
X110647D01*
X102500Y249399D02*
X110362D01*
X102500Y252999D02*
X110298D01*
X102500Y250299D02*
X110135D01*
X102500Y252099D02*
X110104D01*
X102500Y251199D02*
X110051D01*
X300843Y249099D02*
X319100D01*
X300644Y248199D02*
X319100D01*
X300102Y247299D02*
X319100D01*
X298741Y246399D02*
X319100D01*
X283100Y245499D02*
X319100D01*
X283100Y244599D02*
X319100D01*
X283100Y243699D02*
X319100D01*
X283100Y242799D02*
X319100D01*
X283100Y241899D02*
X319100D01*
X283100Y234699D02*
X319100D01*
X283100Y233799D02*
X319100D01*
X283100Y232899D02*
X319100D01*
X283100Y231999D02*
X319100D01*
X283100Y231099D02*
X319100D01*
X283100Y230199D02*
X319100D01*
X283100Y229299D02*
X319100D01*
X285921Y228399D02*
X319100D01*
X286963Y227499D02*
X319100D01*
X287415Y226599D02*
X319100D01*
X287550Y225699D02*
X319100D01*
X287414Y224799D02*
X319100D01*
X286961Y223899D02*
X319100D01*
X285916Y222999D02*
X319100D01*
X308721Y222099D02*
X319100D01*
X309763Y221199D02*
X319100D01*
X310215Y220299D02*
X319100D01*
X310350Y219399D02*
X319100D01*
X310214Y218499D02*
X319100D01*
X309761Y217599D02*
X319100D01*
X309000Y216699D02*
X319100D01*
X309000Y215799D02*
X319100D01*
X308999Y214899D02*
X319100D01*
X283100Y235599D02*
X316484D01*
X283100Y240999D02*
X316479D01*
X283100Y236499D02*
X315439D01*
X283100Y240099D02*
X315437D01*
X283100Y237399D02*
X314986D01*
X283100Y239199D02*
X314985D01*
X283100Y238299D02*
X314850D01*
X283100Y222099D02*
X305879D01*
X283100Y221199D02*
X304837D01*
X286006Y220299D02*
X304385D01*
X288621Y219399D02*
X304250D01*
X289663Y218499D02*
X303643D01*
X298357Y217599D02*
X301987D01*
X300013Y216699D02*
X301395D01*
X300835Y214899D02*
X301210D01*
X300605Y215799D02*
X301165D01*
X290115Y217599D02*
X297243D01*
X283100Y246399D02*
X296859D01*
X290250Y216699D02*
X295587D01*
X283100Y247299D02*
X295498D01*
X290114Y215799D02*
X294995D01*
X283100Y248199D02*
X294956D01*
X289661Y214899D02*
X294765D01*
X283100Y249099D02*
X294757D01*
X102800Y327799D02*
X241200D01*
X102800Y326899D02*
X241200D01*
X102800Y325999D02*
X241200D01*
X102800Y325099D02*
X241200D01*
X102800Y324199D02*
X241200D01*
X177612Y323299D02*
X241200D01*
X179577Y322399D02*
X241200D01*
X180784Y321499D02*
X241200D01*
X181659Y320599D02*
X241200D01*
X182322Y319699D02*
X241200D01*
X182827Y318799D02*
X241200D01*
X183203Y317899D02*
X241200D01*
X183467Y316999D02*
X241200D01*
X183630Y316099D02*
X241200D01*
X183698Y315199D02*
X241200D01*
X183672Y314299D02*
X241200D01*
X183551Y313399D02*
X241200D01*
X183333Y312499D02*
X241200D01*
X183008Y311599D02*
X241200D01*
X227106Y310699D02*
X241200D01*
X229405Y309799D02*
X241200D01*
X230668Y308899D02*
X241200D01*
X231558Y307999D02*
X241200D01*
X232220Y307099D02*
X241200D01*
X232716Y306199D02*
X241200D01*
X233077Y305299D02*
X241200D01*
X233322Y304399D02*
X241200D01*
X233461Y303499D02*
X241200D01*
X233499Y302599D02*
X241200D01*
X233439Y301699D02*
X241200D01*
X233277Y300799D02*
X241200D01*
X233007Y299899D02*
X241200D01*
X232617Y298999D02*
X241200D01*
X232087Y298099D02*
X241200D01*
X231381Y297199D02*
X241200D01*
X230425Y296299D02*
X241200D01*
X229032Y295399D02*
X241200D01*
X119248Y294499D02*
X241200D01*
X102800Y293599D02*
X241200D01*
X102800Y292699D02*
X241200D01*
X204600Y291799D02*
X241200D01*
X204600Y290899D02*
X241200D01*
X204600Y289999D02*
X241200D01*
X204600Y289099D02*
X241200D01*
X204600Y288199D02*
X241200D01*
X204600Y287299D02*
X241200D01*
X204600Y286399D02*
X241200D01*
X204600Y285499D02*
X241200D01*
X204600Y284599D02*
X241200D01*
X204600Y283699D02*
X241200D01*
X204600Y282799D02*
X241200D01*
X204600Y281899D02*
X241200D01*
X182562Y310699D02*
X223494D01*
X204600Y280999D02*
X223000D01*
X204600Y280099D02*
X223000D01*
X204600Y279199D02*
X223000D01*
X204600Y278299D02*
X223000D01*
X204600Y277399D02*
X223000D01*
X204600Y276499D02*
X223000D01*
X204600Y275599D02*
X223000D01*
X204600Y274699D02*
X223000D01*
X204600Y273799D02*
X223000D01*
X204600Y272899D02*
X223000D01*
X204600Y271999D02*
X223000D01*
X204600Y271099D02*
X223000D01*
X204600Y270199D02*
X223000D01*
X204600Y269299D02*
X223000D01*
X204600Y268399D02*
X223000D01*
X204600Y267499D02*
X223000D01*
X204600Y266599D02*
X223000D01*
X204600Y265699D02*
X223000D01*
X205005Y264799D02*
X223000D01*
X120765Y295399D02*
X221568D01*
X181974Y309799D02*
X221195D01*
X121765Y296299D02*
X220175D01*
X181202Y308899D02*
X219932D01*
X122492Y297199D02*
X219219D01*
X180164Y307999D02*
X219042D01*
X123031Y298099D02*
X218513D01*
X178641Y307099D02*
X218380D01*
X123424Y298999D02*
X217983D01*
X122494Y306199D02*
X217884D01*
X123692Y299899D02*
X217593D01*
X123033Y305299D02*
X217523D01*
X123848Y300799D02*
X217323D01*
X123425Y304399D02*
X217278D01*
X123900Y301699D02*
X217161D01*
X123693Y303499D02*
X217139D01*
X123849Y302599D02*
X217101D01*
X102800Y323299D02*
X172388D01*
X121768Y307099D02*
X171359D01*
X102800Y322399D02*
X170423D01*
X120768Y307999D02*
X169836D01*
X102800Y321499D02*
X169216D01*
X119254Y308899D02*
X168798D01*
X102800Y320599D02*
X168341D01*
X102800Y309799D02*
X168026D01*
X102800Y319699D02*
X167678D01*
X102800Y310699D02*
X167438D01*
X102800Y318799D02*
X167173D01*
X102800Y311599D02*
X166992D01*
X102800Y317899D02*
X166797D01*
X102800Y312499D02*
X166667D01*
X102800Y316999D02*
X166533D01*
X102800Y313399D02*
X166449D01*
X102800Y316099D02*
X166370D01*
X102800Y314299D02*
X166328D01*
X102800Y315199D02*
X166302D01*
X102800Y294499D02*
X112752D01*
X102800Y308899D02*
X112746D01*
X102800Y295399D02*
X111235D01*
X102800Y307999D02*
X111232D01*
X102800Y296299D02*
X110235D01*
X102800Y307099D02*
X110232D01*
X102800Y297199D02*
X109508D01*
X102800Y306199D02*
X109506D01*
X102800Y298099D02*
X108969D01*
X102800Y305299D02*
X108967D01*
X102800Y298999D02*
X108576D01*
X102800Y304399D02*
X108575D01*
X102800Y299899D02*
X108308D01*
X102800Y303499D02*
X108307D01*
X102800Y300799D02*
X108152D01*
X102800Y302599D02*
X108151D01*
X102800Y301699D02*
X108100D01*
X326388Y217699D02*
X326950D01*
X326838Y216799D02*
X326950D01*
X326877Y215899D02*
X326950D01*
X326530Y214999D02*
X326950D01*
X325380Y214099D02*
X326950D01*
X324112Y213199D02*
X326950D01*
X325287Y212299D02*
X326950D01*
X325782Y211399D02*
X326950D01*
X325948Y210499D02*
X326950D01*
X326085Y209599D02*
X326950D01*
X326433Y208699D02*
X326950D01*
X326438Y207799D02*
X326950D01*
X326438Y206899D02*
X326950D01*
X326438Y205999D02*
X326950D01*
X326438Y205099D02*
X326950D01*
X326438Y204199D02*
X326950D01*
X326438Y203299D02*
X326950D01*
X326438Y202399D02*
X326950D01*
X326438Y201499D02*
X326950D01*
X326312Y200599D02*
X326950D01*
X325598Y199699D02*
X326950D01*
X324698Y198799D02*
X326950D01*
X324250Y197899D02*
X326950D01*
X324250Y196999D02*
X326950D01*
X324250Y196099D02*
X326950D01*
X324250Y195199D02*
X326950D01*
X324250Y194299D02*
X326950D01*
X324250Y193399D02*
X326950D01*
X324250Y192499D02*
X326950D01*
X324250Y191599D02*
X325216D01*
X324250Y190699D02*
X324444D01*
X320599Y213199D02*
X321688D01*
X320800Y214099D02*
X321108D01*
X318711Y212299D02*
X320513D01*
X319031Y208699D02*
X320369D01*
X319015Y211399D02*
X320018D01*
X319031Y209599D02*
X319957D01*
X318448Y202399D02*
X319900D01*
X319031Y210499D02*
X319852D01*
X318956Y207799D02*
X319851D01*
X318448Y203299D02*
X319298D01*
X318448Y201499D02*
X319194D01*
X318487Y206899D02*
X319003D01*
X318448Y204199D02*
X318756D01*
X318448Y205999D02*
X318631D01*
X318448Y205099D02*
X318557D01*
X318448Y200599D02*
X318509D01*
X266200Y261799D02*
X278390D01*
X266200Y260899D02*
X277851D01*
X266200Y262699D02*
X277490D01*
X266200Y259999D02*
X277003D01*
X266200Y259099D02*
X276631D01*
X266200Y263599D02*
X276590D01*
X266200Y258199D02*
X276557D01*
X266200Y257299D02*
X276094D01*
X266200Y264499D02*
X275690D01*
X266200Y256399D02*
X275194D01*
X266200Y265399D02*
X274790D01*
X266200Y255499D02*
X274294D01*
X266200Y246499D02*
X274099D01*
X266200Y266299D02*
X273890D01*
X266200Y254599D02*
X273394D01*
X266200Y247399D02*
X273197D01*
X266200Y267199D02*
X272990D01*
X266200Y253699D02*
X272503D01*
X266200Y248299D02*
X272359D01*
X266200Y252799D02*
X272112D01*
X266200Y251899D02*
X272100D01*
X266200Y250999D02*
X272100D01*
X266200Y250099D02*
X272100D01*
X266200Y249199D02*
X272100D01*
X266200Y268099D02*
X272090D01*
X266200Y268999D02*
X271190D01*
X266200Y245599D02*
X270694D01*
X266200Y244699D02*
X269794D01*
X266200Y243799D02*
X268894D01*
X266200Y206899D02*
X283513D01*
X266200Y212299D02*
X283289D01*
X266200Y207799D02*
X283044D01*
X266200Y211399D02*
X282985D01*
X266200Y210499D02*
X282969D01*
X266200Y209599D02*
X282969D01*
X266200Y208699D02*
X282969D01*
X266200Y213199D02*
X281601D01*
X280892Y214099D02*
X281400D01*
X266200D02*
X276620D01*
X266695Y217699D02*
X275612D01*
X266200Y214999D02*
X275470D01*
X274927Y220399D02*
X275325D01*
X271564Y218599D02*
X275241D01*
X266200Y216799D02*
X275162D01*
X266200Y215899D02*
X275123D01*
X274027Y219499D02*
X275097D01*
X266200Y205999D02*
X270390D01*
X266200Y205099D02*
X269490D01*
X266200Y204199D02*
X268590D01*
X266200Y203299D02*
X267690D01*
X266200Y202399D02*
X266790D01*
X139606Y149299D02*
X173800D01*
X140506Y148399D02*
X173800D01*
X141406Y147499D02*
X173800D01*
X102000Y142999D02*
X173800D01*
X102000Y142099D02*
X173800D01*
X102000Y141199D02*
X173800D01*
X102000Y140299D02*
X173800D01*
X102000Y139399D02*
X173800D01*
X102000Y138499D02*
X173800D01*
X102000Y137599D02*
X173800D01*
X102000Y136699D02*
X173800D01*
X102000Y135799D02*
X173800D01*
X136797Y134899D02*
X173800D01*
X137733Y133999D02*
X173800D01*
X138144Y133099D02*
X173800D01*
X138248Y132199D02*
X173800D01*
X138081Y131299D02*
X173800D01*
X137585Y130399D02*
X173800D01*
X136406Y129499D02*
X173800D01*
X102000Y128599D02*
X173800D01*
X102000Y127699D02*
X173800D01*
X136949Y126799D02*
X173800D01*
X137797Y125899D02*
X173800D01*
X138169Y124999D02*
X173800D01*
X138243Y124099D02*
X173800D01*
X131071Y106099D02*
X173800D01*
X102000Y105199D02*
X173800D01*
X102000Y104299D02*
X173800D01*
X102000Y103399D02*
X173800D01*
X138044Y123199D02*
X172089D01*
X131400Y106999D02*
X171584D01*
X137502Y122299D02*
X170265D01*
X135643Y107899D02*
X169974D01*
X136141Y121399D02*
X169105D01*
X137311Y108799D02*
X168898D01*
X102000Y120499D02*
X168258D01*
X137903Y109699D02*
X168102D01*
X102000Y119599D02*
X167615D01*
X138135Y110599D02*
X167495D01*
X137084Y118699D02*
X167125D01*
X138091Y111499D02*
X167036D01*
X137856Y117799D02*
X166762D01*
X137756Y112399D02*
X166698D01*
X138191Y116899D02*
X166510D01*
X136984Y113299D02*
X166468D01*
X138235Y115999D02*
X166357D01*
X137411Y114199D02*
X166337D01*
X138003Y115099D02*
X166301D01*
X138706Y150199D02*
X144438D01*
X137806Y151099D02*
X143776D01*
X102000Y176299D02*
X143700D01*
X102000Y175399D02*
X143700D01*
X102000Y174499D02*
X143700D01*
X102000Y173599D02*
X143700D01*
X102000Y172699D02*
X143700D01*
X102000Y171799D02*
X143700D01*
X102000Y170899D02*
X143700D01*
X102000Y169999D02*
X143700D01*
X102000Y169099D02*
X143700D01*
X102000Y168199D02*
X143700D01*
X141005Y167299D02*
X143700D01*
X141710Y166399D02*
X143700D01*
X142009Y165499D02*
X143700D01*
X142024Y164599D02*
X143700D01*
X141758Y163699D02*
X143700D01*
X141111Y162799D02*
X143700D01*
X102000Y161899D02*
X143700D01*
X102000Y160999D02*
X143700D01*
X102000Y160099D02*
X143700D01*
X102000Y159199D02*
X143700D01*
X102000Y158299D02*
X143700D01*
X102000Y157399D02*
X143700D01*
X102000Y156499D02*
X143700D01*
X102000Y155599D02*
X143700D01*
X135861Y154699D02*
X143700D01*
X137108Y153799D02*
X143700D01*
X137200Y152899D02*
X143700D01*
X137200Y151999D02*
X143700D01*
X102000Y143899D02*
X140197D01*
X102000Y144799D02*
X139297D01*
X102000Y145699D02*
X138397D01*
X102000Y146599D02*
X137497D01*
X136781Y167299D02*
X136995D01*
X136871Y162799D02*
X136889D01*
X102000Y147499D02*
X136597D01*
X102000Y148399D02*
X135697D01*
X102000Y149299D02*
X134797D01*
X131400Y107899D02*
X134557D01*
X102000Y121399D02*
X134259D01*
X102000Y129499D02*
X133994D01*
X131523Y134899D02*
X133603D01*
X131723Y126799D02*
X133451D01*
X131868Y118699D02*
X133316D01*
X102000Y113299D02*
X133216D01*
X132148Y114199D02*
X132989D01*
X132212Y122299D02*
X132898D01*
X131603Y108799D02*
X132889D01*
X132264Y130399D02*
X132815D01*
X129661Y154699D02*
X132339D01*
X130581Y167299D02*
X131419D01*
X130671Y162799D02*
X131329D01*
X130907Y150199D02*
X131093D01*
X130908Y153799D02*
X131092D01*
X130997Y166399D02*
X131003D01*
X102000Y112399D02*
X130497D01*
X102000Y111499D02*
X129494D01*
X125323Y134899D02*
X127077D01*
X125523Y126799D02*
X126877D01*
X125668Y118699D02*
X126732D01*
X125948Y114199D02*
X126452D01*
X126012Y122299D02*
X126388D01*
X126064Y130399D02*
X126336D01*
X126142Y133999D02*
X126258D01*
X126168Y125899D02*
X126232D01*
X126186Y117799D02*
X126214D01*
X121868Y154699D02*
X126139D01*
X124781Y110599D02*
X125619D01*
X124871Y106099D02*
X125529D01*
X122213Y167299D02*
X125219D01*
X125197Y109699D02*
X125203D01*
X121719Y162799D02*
X125129D01*
X122148Y150199D02*
X124893D01*
X124253Y153799D02*
X124892D01*
X117523Y134899D02*
X120877D01*
X117723Y126799D02*
X120677D01*
X117868Y118699D02*
X120532D01*
X118148Y114199D02*
X120252D01*
X118212Y122299D02*
X120188D01*
X118264Y130399D02*
X120136D01*
X117981Y110599D02*
X119419D01*
X118071Y106099D02*
X119329D01*
X115519Y162799D02*
X116881D01*
X115668Y154699D02*
X116732D01*
X115948Y150199D02*
X116452D01*
X116013Y167299D02*
X116387D01*
X116167Y163699D02*
X116233D01*
X116186Y153799D02*
X116214D01*
X111323Y134899D02*
X113077D01*
X111523Y126799D02*
X112877D01*
X111668Y118699D02*
X112732D01*
X111781Y110599D02*
X112619D01*
X111871Y106099D02*
X112529D01*
X111948Y114199D02*
X112452D01*
X112012Y122299D02*
X112388D01*
X112064Y130399D02*
X112336D01*
X112142Y133999D02*
X112258D01*
X112168Y125899D02*
X112232D01*
X112186Y117799D02*
X112214D01*
X112197Y109699D02*
X112203D01*
X102000Y162799D02*
X110681D01*
X102000Y154699D02*
X110532D01*
X102000Y150199D02*
X110252D01*
X102000Y167299D02*
X110187D01*
X102000Y163699D02*
X110033D01*
X102000Y153799D02*
X110014D01*
X102000Y166399D02*
X110000D01*
X102000Y165499D02*
X110000D01*
X102000Y164599D02*
X110000D01*
X102000Y152899D02*
X110000D01*
X102000Y151999D02*
X110000D01*
X102000Y151099D02*
X110000D01*
X102000Y134899D02*
X106877D01*
X102000Y126799D02*
X106677D01*
X102000Y118699D02*
X106532D01*
X102000Y110599D02*
X106419D01*
X102000Y106099D02*
X106329D01*
X102000Y114199D02*
X106252D01*
X102000Y122299D02*
X106188D01*
X102000Y130399D02*
X106136D01*
X102000Y133999D02*
X106058D01*
X102000Y125899D02*
X106032D01*
X102000Y117799D02*
X106014D01*
X102000Y109699D02*
X106003D01*
X102000Y133099D02*
X106000D01*
X102000Y132199D02*
X106000D01*
X102000Y131299D02*
X106000D01*
X102000Y124999D02*
X106000D01*
X102000Y124099D02*
X106000D01*
X102000Y123199D02*
X106000D01*
X102000Y116899D02*
X106000D01*
X102000Y115999D02*
X106000D01*
X102000Y115099D02*
X106000D01*
X102000Y108799D02*
X106000D01*
X102000Y107899D02*
X106000D01*
X102000Y106999D02*
X106000D01*
X161800Y210499D02*
X196800D01*
X161800Y209599D02*
X196800D01*
X161800Y208699D02*
X196800D01*
X161800Y207799D02*
X196800D01*
X161800Y206899D02*
X196800D01*
X161800Y205999D02*
X196800D01*
X195656Y205099D02*
X196800D01*
X161800D02*
X186013D01*
X263867Y180799D02*
X264200D01*
X263191Y179899D02*
X264200D01*
X261947Y178999D02*
X264200D01*
X251806Y178099D02*
X264200D01*
X252706Y177199D02*
X264200D01*
X253606Y176299D02*
X264200D01*
X254506Y175399D02*
X264200D01*
X255406Y174499D02*
X264200D01*
X256306Y173599D02*
X264200D01*
X257206Y172699D02*
X264200D01*
X250906Y178999D02*
X258053D01*
X253816Y179899D02*
X256809D01*
X254641Y180799D02*
X256133D01*
X250006Y179899D02*
X250184D01*
X249200Y186199D02*
X249981D01*
X249200Y185299D02*
X249487D01*
X249200Y180799D02*
X249359D01*
X249200Y187099D02*
X249333D01*
X249200Y187999D02*
X249300D01*
X249200Y184399D02*
X249300D01*
X249200Y183499D02*
X249300D01*
X249200Y182599D02*
X249300D01*
X249200Y181699D02*
X249300D01*
X212218Y172699D02*
X249993D01*
X212686Y173599D02*
X249093D01*
X212700Y174499D02*
X248193D01*
X212700Y175399D02*
X247293D01*
X212700Y176299D02*
X246393D01*
X212700Y177199D02*
X245493D01*
X212700Y178099D02*
X244593D01*
X212700Y178999D02*
X243693D01*
X212527Y179899D02*
X242793D01*
X161900Y180799D02*
X242067D01*
X212700Y187999D02*
X241931D01*
X212700Y187099D02*
X241931D01*
X212700Y186199D02*
X241931D01*
X212700Y185299D02*
X241931D01*
X212700Y184399D02*
X241931D01*
X212700Y183499D02*
X241931D01*
X212686Y182599D02*
X241931D01*
X212218Y181699D02*
X241931D01*
X161900D02*
X205782D01*
X204512Y172699D02*
X205782D01*
X161900Y179899D02*
X205473D01*
X161900Y182599D02*
X205314D01*
X204700Y173599D02*
X205314D01*
X204642Y187999D02*
X205300D01*
X204700Y187099D02*
X205300D01*
X204700Y186199D02*
X205300D01*
X204700Y185299D02*
X205300D01*
X204700Y184399D02*
X205300D01*
X204512Y183499D02*
X205300D01*
X161900Y178999D02*
X205300D01*
X203823Y178099D02*
X205300D01*
X204642Y177199D02*
X205300D01*
X204700Y176299D02*
X205300D01*
X204700Y175399D02*
X205300D01*
X204700Y174499D02*
X205300D01*
X161900Y178099D02*
X200177D01*
X186874Y183499D02*
X199488D01*
X161900Y172699D02*
X199488D01*
X187200Y187999D02*
X199358D01*
X161900Y177199D02*
X199358D01*
X187200Y187099D02*
X199300D01*
X187200Y186199D02*
X199300D01*
X187200Y185299D02*
X199300D01*
X187197Y184399D02*
X199300D01*
X161900Y176299D02*
X199300D01*
X161900Y175399D02*
X199300D01*
X161900Y174499D02*
X199300D01*
X161900Y173599D02*
X199300D01*
X161900Y171799D02*
X174403D01*
X161900Y170899D02*
X173847D01*
X330302Y268999D02*
X341794D01*
X328941Y268099D02*
X340894D01*
X289902D02*
X327059D01*
X290444Y268999D02*
X325698D01*
X304168Y267199D02*
X312922D01*
X304686Y266299D02*
X311794D01*
X304700Y265399D02*
X310894D01*
X304700Y264499D02*
X309994D01*
X304700Y263599D02*
X309094D01*
X304448Y262699D02*
X308194D01*
X296401Y261799D02*
X307294D01*
X296401Y260899D02*
X306394D01*
X296401Y259999D02*
X305585D01*
X296401Y259099D02*
X305369D01*
X296401Y258199D02*
X305369D01*
X302549Y257299D02*
X302601D01*
X299399D02*
X299451D01*
X297968Y267199D02*
X299032D01*
X298248Y262699D02*
X298752D01*
X298486Y266299D02*
X298514D01*
X292596Y261799D02*
X293001D01*
X288541Y267199D02*
X292832D01*
X291696Y262699D02*
X292552D01*
X288096Y266299D02*
X292314D01*
X288996Y265399D02*
X292300D01*
X289896Y264499D02*
X292300D01*
X290796Y263599D02*
X292300D01*
X270500Y164599D02*
X314300D01*
X270500Y163699D02*
X314300D01*
X270500Y162799D02*
X314300D01*
X270500Y161899D02*
X314300D01*
X270500Y160999D02*
X314300D01*
X270500Y160099D02*
X314300D01*
X270500Y165499D02*
X314297D01*
X270500Y166399D02*
X313397D01*
X270500Y167299D02*
X312497D01*
X270500Y168199D02*
X311947D01*
X311716Y201499D02*
X311898D01*
X296400Y200599D02*
X311898D01*
X296400Y199699D02*
X311898D01*
X296400Y198799D02*
X311898D01*
X296400Y197899D02*
X311898D01*
X296400Y196999D02*
X311898D01*
X296400Y196099D02*
X311898D01*
X296406Y195199D02*
X311898D01*
X297306Y194299D02*
X311898D01*
X298206Y193399D02*
X311898D01*
X299106Y192499D02*
X311898D01*
X300006Y191599D02*
X311898D01*
X300906Y190699D02*
X311898D01*
X304464Y189799D02*
X311898D01*
X305259Y188899D02*
X311898D01*
X305659Y187999D02*
X311898D01*
X305799Y187099D02*
X311898D01*
X305710Y186199D02*
X311898D01*
X305373Y185299D02*
X311898D01*
X304689Y184399D02*
X311898D01*
X303800Y183499D02*
X311898D01*
X303800Y182599D02*
X311898D01*
X303800Y181699D02*
X311898D01*
X303800Y180799D02*
X311898D01*
X303800Y179899D02*
X311898D01*
X303800Y178999D02*
X311898D01*
X303800Y178099D02*
X311898D01*
X303800Y177199D02*
X311898D01*
X303800Y176299D02*
X311898D01*
X304668Y175399D02*
X311898D01*
X305186Y174499D02*
X311898D01*
X305200Y173599D02*
X311898D01*
X305200Y172699D02*
X311898D01*
X305200Y171799D02*
X311898D01*
X304948Y170899D02*
X311898D01*
X270500Y169999D02*
X311898D01*
X270500Y169099D02*
X311898D01*
X307619Y201499D02*
X308884D01*
X301419D02*
X302781D01*
X302067Y202399D02*
X302133D01*
X284600Y183499D02*
X300400D01*
X284600Y182599D02*
X300400D01*
X284600Y181699D02*
X300400D01*
X284600Y180799D02*
X300400D01*
X284600Y179899D02*
X300400D01*
X284600Y178999D02*
X300400D01*
X284600Y178099D02*
X300400D01*
X284600Y177199D02*
X300400D01*
X284600Y176299D02*
X300400D01*
X285489Y184399D02*
X299711D01*
X298468Y175399D02*
X299532D01*
X298748Y170899D02*
X299252D01*
X286173Y185299D02*
X299027D01*
X298986Y174499D02*
X299014D01*
X286459Y187999D02*
X298741D01*
X286510Y186199D02*
X298690D01*
X286599Y187099D02*
X298601D01*
X287303Y188899D02*
X297897D01*
X288203Y189799D02*
X296997D01*
X296400Y201499D02*
X296581D01*
X289103Y190699D02*
X296097D01*
X290003Y191599D02*
X295197D01*
X290903Y192499D02*
X294297D01*
X291803Y193399D02*
X293405D01*
X291668Y175399D02*
X293332D01*
X291948Y170899D02*
X293052D01*
X292703Y194299D02*
X293012D01*
X292186Y174499D02*
X292814D01*
X292200Y173599D02*
X292800D01*
X292200Y172699D02*
X292800D01*
X292200Y171799D02*
X292800D01*
X289503Y202399D02*
X289851D01*
X288603Y201499D02*
X289851D01*
X272203Y200599D02*
X289851D01*
X271303Y199699D02*
X289851D01*
X270403Y198799D02*
X289851D01*
X269503Y197899D02*
X289851D01*
X268603Y196999D02*
X289851D01*
X267698Y196099D02*
X289694D01*
X266200Y195199D02*
X288794D01*
X266200Y194299D02*
X287894D01*
X266200Y193399D02*
X286994D01*
X285468Y175399D02*
X286532D01*
X285748Y170899D02*
X286252D01*
X266200Y192499D02*
X286094D01*
X285986Y174499D02*
X286014D01*
X266200Y191599D02*
X285194D01*
X266200Y190699D02*
X284294D01*
X267600Y183499D02*
X281200D01*
X267600Y182599D02*
X281200D01*
X267600Y181699D02*
X281200D01*
X267600Y180799D02*
X281200D01*
X267600Y179899D02*
X281200D01*
X267600Y178999D02*
X281200D01*
X267600Y178099D02*
X281200D01*
X267600Y177199D02*
X281200D01*
X267600Y176299D02*
X281200D01*
X266049Y189799D02*
X280736D01*
X267600Y184399D02*
X280511D01*
X267600Y175399D02*
X280332D01*
X270453Y170899D02*
X280052D01*
X266506Y188899D02*
X279941D01*
X267600Y185299D02*
X279827D01*
X267600Y174499D02*
X279814D01*
X267600Y173599D02*
X279800D01*
X267600Y172699D02*
X279800D01*
X269897Y171799D02*
X279800D01*
X267343Y187999D02*
X279541D01*
X267600Y186199D02*
X279490D01*
X267600Y187099D02*
X279401D01*
X338900Y181699D02*
X355772D01*
X338900Y180799D02*
X354872D01*
X338900Y179899D02*
X353972D01*
X338900Y178999D02*
X353072D01*
X338900Y178099D02*
X352172D01*
X339504Y177199D02*
X351272D01*
X340045Y176299D02*
X350372D01*
X340244Y175399D02*
X349472D01*
X346784Y174499D02*
X348670D01*
X347556Y173599D02*
X348461D01*
X347891Y172699D02*
X348461D01*
X340168Y174499D02*
X343016D01*
X338900Y182599D02*
X342906D01*
X338900Y183499D02*
X342348D01*
X316303Y258199D02*
X342300D01*
X318297Y257299D02*
X342300D01*
X318895Y256399D02*
X342300D01*
X319031Y255499D02*
X342300D01*
X319031Y254599D02*
X342300D01*
X319031Y253699D02*
X342300D01*
X319030Y252799D02*
X342300D01*
X318816Y251899D02*
X342300D01*
X320397Y250999D02*
X342300D01*
X320788Y250099D02*
X342300D01*
X326385Y249199D02*
X342300D01*
X326837Y248299D02*
X342300D01*
X326878Y247399D02*
X342300D01*
X326533Y246499D02*
X342300D01*
X335450Y245599D02*
X342300D01*
X335700Y244699D02*
X342300D01*
X335700Y243799D02*
X342300D01*
X335700Y242899D02*
X342300D01*
X335700Y241999D02*
X342300D01*
X335667Y241099D02*
X342300D01*
X335019Y240199D02*
X342300D01*
X335513Y239299D02*
X342300D01*
X335700Y238399D02*
X342300D01*
X335700Y237499D02*
X342300D01*
X335700Y236599D02*
X342300D01*
X335700Y235699D02*
X342300D01*
X335641Y234799D02*
X342300D01*
X334816Y233899D02*
X342300D01*
X332806Y232999D02*
X342300D01*
X333706Y232099D02*
X342300D01*
X334606Y231199D02*
X342300D01*
X335506Y230299D02*
X342300D01*
X336406Y229399D02*
X342300D01*
X337306Y228499D02*
X342300D01*
X338206Y227599D02*
X342300D01*
X338825Y226699D02*
X342300D01*
X338900Y225799D02*
X342300D01*
X338900Y224899D02*
X342300D01*
X338900Y223999D02*
X342300D01*
X338900Y223099D02*
X342300D01*
X338900Y222199D02*
X342300D01*
X338900Y221299D02*
X342300D01*
X338900Y220399D02*
X342300D01*
X338900Y219499D02*
X342300D01*
X338900Y218599D02*
X342300D01*
X338900Y217699D02*
X342300D01*
X338900Y216799D02*
X342300D01*
X338900Y215899D02*
X342300D01*
X338900Y214999D02*
X342300D01*
X338900Y214099D02*
X342300D01*
X338900Y213199D02*
X342300D01*
X338900Y212299D02*
X342300D01*
X338900Y211399D02*
X342300D01*
X338900Y210499D02*
X342300D01*
X338900Y209599D02*
X342300D01*
X338900Y208699D02*
X342300D01*
X338900Y207799D02*
X342300D01*
X338900Y206899D02*
X342300D01*
X338900Y205999D02*
X342300D01*
X338900Y205099D02*
X342300D01*
X338900Y204199D02*
X342300D01*
X338900Y203299D02*
X342300D01*
X338900Y202399D02*
X342300D01*
X338900Y201499D02*
X342300D01*
X338900Y200599D02*
X342300D01*
X338900Y199699D02*
X342300D01*
X338900Y198799D02*
X342300D01*
X338900Y197899D02*
X342300D01*
X338900Y196999D02*
X342300D01*
X338900Y196099D02*
X342300D01*
X338900Y195199D02*
X342300D01*
X338900Y194299D02*
X342300D01*
X338900Y193399D02*
X342300D01*
X338900Y192499D02*
X342300D01*
X338900Y191599D02*
X342300D01*
X338900Y190699D02*
X342300D01*
X338900Y189799D02*
X342300D01*
X338900Y188899D02*
X342300D01*
X338900Y187999D02*
X342300D01*
X338900Y187099D02*
X342300D01*
X338900Y186199D02*
X342300D01*
X338900Y185299D02*
X342300D01*
X338900Y184399D02*
X342300D01*
X339796Y173599D02*
X342244D01*
X338945Y172699D02*
X341909D01*
X326674Y245599D02*
X330550D01*
X326903Y244699D02*
X330300D01*
X326760Y243799D02*
X330300D01*
X289100Y175700D02*
Y174500D01*
Y170300D02*
Y171500D01*
X292200Y173000D02*
X291000D01*
X295900Y170300D02*
Y171500D01*
Y175700D02*
Y174500D01*
X292800Y173000D02*
X294000D01*
X159200Y192250D02*
X158000D01*
X155000Y196450D02*
Y195250D01*
X150800Y192250D02*
X152000D01*
X155000Y188050D02*
Y189250D01*
X159200Y158250D02*
X158000D01*
X155000Y162450D02*
Y161250D01*
X150800Y158250D02*
X152000D01*
X155000Y154050D02*
Y155250D01*
X199300Y185900D02*
X200500D01*
X202000Y182800D02*
Y184000D01*
X204700Y185900D02*
X203500D01*
X204700Y175100D02*
X203500D01*
X202000Y178200D02*
Y177000D01*
X199300Y175100D02*
X200500D01*
X212700Y176500D02*
X211500D01*
X209000Y180700D02*
Y179500D01*
X205300Y176500D02*
X206500D01*
X209000Y172300D02*
Y173500D01*
X205300Y185500D02*
X206500D01*
X209000Y181300D02*
Y182500D01*
X212700Y185500D02*
X211500D01*
X369700Y274100D02*
X368500D01*
X367000Y277200D02*
Y276000D01*
X364300Y274100D02*
X365500D01*
X354560Y289398D02*
X355760D01*
X361881D02*
X360681D01*
X199300Y192100D02*
X200500D01*
X204700D02*
X203500D01*
X202000Y195200D02*
Y194000D01*
X362300Y251100D02*
X363500D01*
X367700D02*
X366500D01*
X365000Y254200D02*
Y253000D01*
X335780Y293944D02*
Y292744D01*
X332119Y291957D02*
X333319D01*
X354560Y276602D02*
X355760D01*
X361881D02*
X360681D01*
X354560Y274043D02*
X355760D01*
X358220Y272056D02*
Y273256D01*
X361881Y274043D02*
X360681D01*
X356300Y251100D02*
X357500D01*
X361700D02*
X360500D01*
X359000Y254200D02*
Y253000D01*
X255900Y209500D02*
X254700D01*
X252200Y213700D02*
Y212500D01*
X248500Y209500D02*
X249700D01*
X252200Y205300D02*
Y206500D01*
X266700Y299100D02*
X265500D01*
X264000Y302200D02*
Y301000D01*
X261300Y299100D02*
X262500D01*
X270500Y303728D02*
Y302528D01*
X267981Y299024D02*
X269181D01*
X205300Y194500D02*
X206500D01*
X212700D02*
X211500D01*
X209000Y198700D02*
Y197500D01*
X370700Y165100D02*
X369500D01*
X368000Y168200D02*
Y167000D01*
X365300Y165100D02*
X366500D01*
X360398Y140119D02*
Y141319D01*
Y147440D02*
Y146240D01*
X343056Y143780D02*
X344256D01*
X345043Y140119D02*
Y141319D01*
Y147440D02*
Y146240D01*
X360398Y162560D02*
Y163760D01*
X362957Y162560D02*
Y163760D01*
X364944Y166220D02*
X363744D01*
X204700Y168900D02*
X203500D01*
X199300D02*
X200500D01*
X202000Y165800D02*
Y167000D01*
X212700Y167500D02*
X211500D01*
X205300D02*
X206500D01*
X209000Y163300D02*
Y164500D01*
X144487Y259638D02*
X143287D01*
X140000Y264243D02*
Y263043D01*
X135513Y259638D02*
X136713D01*
X140000Y255032D02*
Y256232D01*
X249300Y189100D02*
X250500D01*
X297850Y257905D02*
Y256705D01*
X301600Y262100D02*
Y263300D01*
X304700Y264800D02*
X303500D01*
X301600Y267500D02*
Y266300D01*
X109100Y119000D02*
Y117800D01*
X106000Y116300D02*
X107200D01*
X109100Y113600D02*
Y114800D01*
Y135000D02*
Y133800D01*
X106000Y132300D02*
X107200D01*
X109100Y129600D02*
Y130800D01*
Y127000D02*
Y125800D01*
X106000Y124300D02*
X107200D01*
X109100Y121600D02*
Y122800D01*
Y111000D02*
Y109800D01*
X106000Y108300D02*
X107200D01*
X109100Y105600D02*
Y106800D01*
X113100Y155000D02*
Y153800D01*
X110000Y152300D02*
X111200D01*
X113100Y149600D02*
Y150800D01*
Y168000D02*
Y166800D01*
X110000Y165300D02*
X111200D01*
X113100Y162600D02*
Y163800D01*
X299000Y201300D02*
Y202500D01*
X333000Y233800D02*
Y235000D01*
X335700Y236900D02*
X334500D01*
G54D20*
X219000Y127843D03*
X228843Y118000D03*
Y127843D03*
X239079Y118000D03*
Y127843D03*
X260000Y183000D03*
Y193000D03*
G54D21*
X268000Y131000D03*
Y113283D03*
X293591Y131000D03*
Y113283D03*
X167000Y284000D03*
X273000Y142961D03*
X283000Y153000D03*
Y142961D03*
X293000Y153000D03*
Y142961D03*
X303000Y153000D03*
Y142961D03*
G54D22*
X290000Y320000D03*
X282126D03*
X274252D03*
X387000Y121000D03*
Y128874D03*
Y136748D03*
Y144622D03*
Y171000D03*
Y178874D03*
Y186748D03*
Y194622D03*
X388000Y231000D03*
Y238874D03*
Y246748D03*
X387000Y277000D03*
Y284874D03*
Y292748D03*
Y300622D03*
Y308496D03*
G54D23*
X115228Y200228D02*
Y203772D01*
X118772*
Y200228*
X115228*
Y200787D02*
X118772D01*
X115228Y202362D02*
X118772D01*
X115748Y200228D02*
Y203772D01*
X117323Y200228D02*
Y203772D01*
G54D24*
X130780Y202000D03*
G54D25*
X362957Y166220D03*
X360398D03*
X357839D03*
X355280D03*
X352720D03*
X350161D03*
X347602D03*
X345043D03*
Y143780D03*
X347602D03*
X350161D03*
X352720D03*
X355280D03*
X357839D03*
X360398D03*
X362957D03*
G54D26*
X358220Y274043D03*
Y276602D03*
Y279161D03*
Y281720D03*
Y284280D03*
Y286839D03*
Y289398D03*
Y291957D03*
X335780D03*
Y289398D03*
Y286839D03*
Y284280D03*
Y281720D03*
Y279161D03*
Y276602D03*
Y274043D03*
G54D27*
X217000Y274000D03*
X233500D03*
X217000Y252300D03*
X233500D03*
X116000Y273000D03*
Y251300D03*
G54D28*
X225300Y302700D03*
G54D29*
X144709Y281394D02*
Y286606D01*
X149921*
Y281394*
X144709*
Y281890D02*
X149921D01*
X144709Y282677D02*
X149921D01*
X144709Y283465D02*
X149921D01*
X144709Y284252D02*
X149921D01*
X144709Y285039D02*
X149921D01*
X144709Y285827D02*
X149921D01*
X144882Y281394D02*
Y286606D01*
X145669Y281394D02*
Y286606D01*
X146457Y281394D02*
Y286606D01*
X147244Y281394D02*
Y286606D01*
X148031Y281394D02*
Y286606D01*
X148819Y281394D02*
Y286606D01*
X149606Y281394D02*
Y286606D01*
G54D30*
X175000Y315000D03*
Y115000D03*
X325000D03*
Y315000D03*
G54D31*
X368000Y144900D02*
X373000D01*
X374200Y146100*
Y174500*
X368000Y144900D02*
Y145300D01*
X362957Y143780D02*
Y144900D01*
X368000*
X367600Y181100D02*
X374200Y174500D01*
X269000Y220900D02*
X272600D01*
X274251Y222551*
X278756*
X283149*
X283800Y221900*
X292800*
X296584*
X203000Y262500D02*
X223300D01*
X233500Y252300*
X328000Y271000D02*
Y275000D01*
X328100*
Y274562*
X331400*
X331919Y274043*
X335780*
X367000D02*
Y274100D01*
G54D32*
X252200Y218500D02*
X261200D01*
Y219400*
X265300*
X265900Y220000*
X269000*
Y220900*
G54D33*
X116000Y251300D02*
X128400D01*
X132700Y247000*
X140000*
G54D34*
X140062Y104100D03*
X150062D03*
X160062D03*
X170062D03*
X103600Y111731D03*
X135100Y110900D03*
X135200Y116300D03*
X103600Y121731D03*
X135200Y124300D03*
X103600Y131731D03*
X135200Y132300D03*
X159600Y134700D03*
X172200Y135300D03*
X103600Y141731D03*
X152200Y148300D03*
X162200D03*
X172200D03*
X316800Y147700D03*
X320200Y144400D03*
X325300Y146800D03*
X328900Y143900D03*
X103600Y151731D03*
X142391Y150245D03*
X364100Y151200D03*
X103600Y161731D03*
X139000Y165000D03*
X142100Y160241D03*
X275000Y166000D03*
X283000Y165000D03*
X292000D03*
X301000D03*
X310000Y166000D03*
X363900Y158900D03*
X103600Y171731D03*
X113149Y174700D03*
X123149D03*
X133149D03*
X142100Y170241D03*
X150100Y176300D03*
X181000Y178000D03*
X215000Y177000D03*
X226000D03*
X246629Y173800D03*
X275000Y177000D03*
X310298Y176684D03*
X326900Y177700D03*
X328900Y173500D03*
X333000Y172700D03*
X337200Y175200D03*
X344900Y172100D03*
X339200Y169000D03*
X362000Y172100D03*
X168000Y180000D03*
X192000Y179000D03*
Y187000D03*
X202000Y181000D03*
X215000Y186000D03*
X226000D03*
X221000Y181000D03*
X286904Y183566D03*
X298800Y183066D03*
X310298Y186684D03*
X327600Y183400D03*
X341419Y179003D03*
X349000Y179000D03*
X367600Y181100D03*
X177200Y189400D03*
X243900Y193000D03*
X252000Y194000D03*
X275000Y198000D03*
Y189000D03*
X284000Y198000D03*
X301000D03*
X310000D03*
X327100Y189200D03*
X325600Y196800D03*
X340700Y190854D03*
X359900Y188700D03*
X174432Y206100D03*
X184000Y206000D03*
X194378Y207143D03*
X310300Y204200D03*
X321600Y205300D03*
X340700Y200854D03*
X149600Y211300D03*
X179000Y210000D03*
X189000Y209000D03*
X267800Y209500D03*
X271600Y215100D03*
X287200Y216700D03*
X281370Y211190D03*
X297800Y214600D03*
X304200Y215500D03*
X322900Y210400D03*
X284500Y225700D03*
X307300Y219400D03*
X340700Y220854D03*
X354100Y224700D03*
X263500Y229500D03*
X264300Y236200D03*
X274200Y228500D03*
X270600Y234300D03*
X317900Y238300D03*
X340700Y230854D03*
X354000Y231500D03*
X248700Y245000D03*
X267900Y240400D03*
X267100Y246500D03*
X340700Y240854D03*
X279600Y258400D03*
X297800Y249300D03*
X323054Y257300D03*
X333054D03*
X340700Y250854D03*
X203000Y262500D03*
X231300Y262100D03*
X267200Y265800D03*
X290758Y266687D03*
X307633Y268100D03*
X367000Y263600D03*
X377100Y259100D03*
X287600Y270100D03*
X322000Y269000D03*
X328000Y271000D03*
X340700Y276600D03*
X363600Y278400D03*
X265500Y284500D03*
X275100Y284200D03*
X280900Y288300D03*
X267900Y292900D03*
X285500D03*
X342300Y291400D03*
X350700Y289000D03*
X363600Y289400D03*
X359400Y295900D03*
X293100Y303100D03*
G54D35*
X117000Y198241D02*
Y199441D01*
X120759Y202000D02*
X119559D01*
X117000Y205759D02*
Y204559D01*
X113241Y202000D02*
X114441D01*
X384064Y173936D02*
X384912Y173088D01*
X384064Y168064D02*
X384912Y168912D01*
X389936Y168064D02*
X389088Y168912D01*
X389936Y173936D02*
X389088Y173088D01*
X384064Y123936D02*
X384912Y123088D01*
X384064Y118064D02*
X384912Y118912D01*
X389936Y118064D02*
X389088Y118912D01*
X389936Y123936D02*
X389088Y123088D01*
X151515Y284000D02*
X150315D01*
X147315Y288200D02*
Y287000D01*
X143115Y284000D02*
X144315D01*
X147315Y279800D02*
Y281000D01*
G74*
X0Y0D02*
M02*
