*
*
G04 PADS 9.3.1 Build Number: 456998 generated Gerber (RS-274-X) file*
G04 PC Version=2.1*
*
%IN "videoMux.pcb"*%
*
%MOIN*%
*
%FSLAX35Y35*%
*
*
*
*
G04 PC Standard Apertures*
*
*
G04 Thermal Relief Aperture macro.*
%AMTER*
1,1,$1,0,0*
1,0,$1-$2,0,0*
21,0,$3,$4,0,0,45*
21,0,$3,$4,0,0,135*
%
*
*
G04 Annular Aperture macro.*
%AMANN*
1,1,$1,0,0*
1,0,$2,0,0*
%
*
*
G04 Odd Aperture macro.*
%AMODD*
1,1,$1,0,0*
1,0,$1-0.005,0,0*
%
*
*
G04 PC Custom Aperture Macros*
*
*
*
*
*
*
G04 PC Aperture Table*
*
%ADD010C,0.001*%
%ADD020C,0.01*%
%ADD031C,0.02*%
%ADD032C,0.06*%
%ADD034C,0.03*%
%ADD036C,0.096*%
%ADD037C,0.02181*%
%ADD038C,0.105*%
%ADD039C,0.014*%
%ADD040C,0.018*%
%ADD041C,0.06906*%
%ADD042C,0.016*%
%ADD043C,0.02575*%
%ADD044C,0.075*%
%ADD045C,0.08087*%
%ADD046C,0.034*%
%ADD047C,0.06118*%
%ADD048C,0.07*%
%ADD049O,0.033X0.107*%
%ADD050R,0.08087X0.02378*%
%ADD051O,0.02969X0.08677*%
%ADD052O,0.08677X0.02969*%
%ADD053C,0.01787*%
%ADD054C,0.25016*%
%ADD055O,0.0352X0.0789*%
*
*
*
*
G04 PC Circuitry*
G04 Layer Name videoMux.pcb - circuitry*
%LPD*%
*
*
G04 PC Custom Flashes*
G04 Layer Name videoMux.pcb - flashes*
%LPD*%
*
*
G04 PC Circuitry*
G04 Layer Name videoMux.pcb - circuitry*
%LPD*%
*
G54D10*
G54D20*
G01X263500Y130500D02*
Y143500D01*
X264500Y144500*
X277500*
X278500Y143500*
Y130500*
X277500Y129500*
X264500*
X263500Y130500*
X264000Y130000D02*
X278000D01*
X263500Y131000D02*
X278500D01*
X263500Y132000D02*
X278500D01*
X263500Y133000D02*
X278500D01*
X263500Y134000D02*
X278500D01*
X263500Y135000D02*
X278500D01*
X263500Y136000D02*
X278500D01*
X263500Y137000D02*
X278500D01*
X263500Y138000D02*
X278500D01*
X263500Y139000D02*
X278500D01*
X263500Y140000D02*
X278500D01*
X263500Y141000D02*
X278500D01*
X263500Y142000D02*
X278500D01*
X263500Y143000D02*
X278500D01*
X264000Y144000D02*
X278000D01*
X264000Y130000D02*
Y144000D01*
X265000Y129500D02*
Y144500D01*
X266000Y129500D02*
Y144500D01*
X267000Y129500D02*
Y144500D01*
X268000Y129500D02*
Y144500D01*
X269000Y129500D02*
Y144500D01*
X270000Y129500D02*
Y144500D01*
X271000Y129500D02*
Y144500D01*
X272000Y129500D02*
Y144500D01*
X273000Y129500D02*
Y144500D01*
X274000Y129500D02*
Y144500D01*
X275000Y129500D02*
Y144500D01*
X276000Y129500D02*
Y144500D01*
X277000Y129500D02*
Y144500D01*
X278000Y130000D02*
Y144000D01*
X273000Y154500D02*
X269000D01*
X268000Y155500*
Y163500*
X269000Y164500*
X273000*
X274000Y163500*
Y155500*
X273000Y154500*
X268500Y155000D02*
X273500D01*
X268000Y156000D02*
X274000D01*
X268000Y157000D02*
X274000D01*
X268000Y158000D02*
X274000D01*
X268000Y159000D02*
X274000D01*
X268000Y160000D02*
X274000D01*
X268000Y161000D02*
X274000D01*
X268000Y162000D02*
X274000D01*
X268000Y163000D02*
X274000D01*
X268500Y164000D02*
X273500D01*
X268000Y155500D02*
Y163500D01*
X269000Y154500D02*
Y164500D01*
X270000Y154500D02*
Y164500D01*
X271000Y154500D02*
Y164500D01*
X272000Y154500D02*
Y164500D01*
X273000Y154500D02*
Y164500D01*
X274000Y155500D02*
Y163500D01*
X167000Y378000D02*
Y391000D01*
X168000Y392000*
X181000*
X182000Y391000*
Y378000*
X181000Y377000*
X168000*
X167000Y378000*
X168000Y377000D02*
X181000D01*
X167000Y378000D02*
X182000D01*
X167000Y379000D02*
X182000D01*
X167000Y380000D02*
X182000D01*
X167000Y381000D02*
X182000D01*
X167000Y382000D02*
X182000D01*
X167000Y383000D02*
X182000D01*
X167000Y384000D02*
X182000D01*
X167000Y385000D02*
X182000D01*
X167000Y386000D02*
X182000D01*
X167000Y387000D02*
X182000D01*
X167000Y388000D02*
X182000D01*
X167000Y389000D02*
X182000D01*
X167000Y390000D02*
X182000D01*
X167000Y391000D02*
X182000D01*
X168000Y392000D02*
X181000D01*
X167000Y378000D02*
Y391000D01*
X168000Y377000D02*
Y392000D01*
X169000Y377000D02*
Y392000D01*
X170000Y377000D02*
Y392000D01*
X171000Y377000D02*
Y392000D01*
X172000Y377000D02*
Y392000D01*
X173000Y377000D02*
Y392000D01*
X174000Y377000D02*
Y392000D01*
X175000Y377000D02*
Y392000D01*
X176000Y377000D02*
Y392000D01*
X177000Y377000D02*
Y392000D01*
X178000Y377000D02*
Y392000D01*
X179000Y377000D02*
Y392000D01*
X180000Y377000D02*
Y392000D01*
X181000Y377000D02*
Y392000D01*
X182000Y378000D02*
Y391000D01*
X157000Y386500D02*
Y382500D01*
X156000Y381500*
X148000*
X147000Y382500*
Y386500*
X148000Y387500*
X156000*
X157000Y386500*
X147500Y382000D02*
X156500D01*
X147000Y383000D02*
X157000D01*
X147000Y384000D02*
X157000D01*
X147000Y385000D02*
X157000D01*
X147000Y386000D02*
X157000D01*
X147500Y387000D02*
X156500D01*
X147000Y382500D02*
Y386500D01*
X148000Y381500D02*
Y387500D01*
X149000Y381500D02*
Y387500D01*
X150000Y381500D02*
Y387500D01*
X151000Y381500D02*
Y387500D01*
X152000Y381500D02*
Y387500D01*
X153000Y381500D02*
Y387500D01*
X154000Y381500D02*
Y387500D01*
X155000Y381500D02*
Y387500D01*
X156000Y381500D02*
Y387500D01*
X157000Y382500D02*
Y386500D01*
X167000Y318000D02*
Y331000D01*
X168000Y332000*
X181000*
X182000Y331000*
Y318000*
X181000Y317000*
X168000*
X167000Y318000*
X168000Y317000D02*
X181000D01*
X167000Y318000D02*
X182000D01*
X167000Y319000D02*
X182000D01*
X167000Y320000D02*
X182000D01*
X167000Y321000D02*
X182000D01*
X167000Y322000D02*
X182000D01*
X167000Y323000D02*
X182000D01*
X167000Y324000D02*
X182000D01*
X167000Y325000D02*
X182000D01*
X167000Y326000D02*
X182000D01*
X167000Y327000D02*
X182000D01*
X167000Y328000D02*
X182000D01*
X167000Y329000D02*
X182000D01*
X167000Y330000D02*
X182000D01*
X167000Y331000D02*
X182000D01*
X168000Y332000D02*
X181000D01*
X167000Y318000D02*
Y331000D01*
X168000Y317000D02*
Y332000D01*
X169000Y317000D02*
Y332000D01*
X170000Y317000D02*
Y332000D01*
X171000Y317000D02*
Y332000D01*
X172000Y317000D02*
Y332000D01*
X173000Y317000D02*
Y332000D01*
X174000Y317000D02*
Y332000D01*
X175000Y317000D02*
Y332000D01*
X176000Y317000D02*
Y332000D01*
X177000Y317000D02*
Y332000D01*
X178000Y317000D02*
Y332000D01*
X179000Y317000D02*
Y332000D01*
X180000Y317000D02*
Y332000D01*
X181000Y317000D02*
Y332000D01*
X182000Y318000D02*
Y331000D01*
X157000Y326500D02*
Y322500D01*
X156000Y321500*
X148000*
X147000Y322500*
Y326500*
X148000Y327500*
X156000*
X157000Y326500*
X147500Y322000D02*
X156500D01*
X147000Y323000D02*
X157000D01*
X147000Y324000D02*
X157000D01*
X147000Y325000D02*
X157000D01*
X147000Y326000D02*
X157000D01*
X147500Y327000D02*
X156500D01*
X147000Y322500D02*
Y326500D01*
X148000Y321500D02*
Y327500D01*
X149000Y321500D02*
Y327500D01*
X150000Y321500D02*
Y327500D01*
X151000Y321500D02*
Y327500D01*
X152000Y321500D02*
Y327500D01*
X153000Y321500D02*
Y327500D01*
X154000Y321500D02*
Y327500D01*
X155000Y321500D02*
Y327500D01*
X156000Y321500D02*
Y327500D01*
X157000Y322500D02*
Y326500D01*
X167000Y258000D02*
Y271000D01*
X168000Y272000*
X181000*
X182000Y271000*
Y258000*
X181000Y257000*
X168000*
X167000Y258000*
X168000Y257000D02*
X181000D01*
X167000Y258000D02*
X182000D01*
X167000Y259000D02*
X182000D01*
X167000Y260000D02*
X182000D01*
X167000Y261000D02*
X182000D01*
X167000Y262000D02*
X182000D01*
X167000Y263000D02*
X182000D01*
X167000Y264000D02*
X182000D01*
X167000Y265000D02*
X182000D01*
X167000Y266000D02*
X182000D01*
X167000Y267000D02*
X182000D01*
X167000Y268000D02*
X182000D01*
X167000Y269000D02*
X182000D01*
X167000Y270000D02*
X182000D01*
X167000Y271000D02*
X182000D01*
X168000Y272000D02*
X181000D01*
X167000Y258000D02*
Y271000D01*
X168000Y257000D02*
Y272000D01*
X169000Y257000D02*
Y272000D01*
X170000Y257000D02*
Y272000D01*
X171000Y257000D02*
Y272000D01*
X172000Y257000D02*
Y272000D01*
X173000Y257000D02*
Y272000D01*
X174000Y257000D02*
Y272000D01*
X175000Y257000D02*
Y272000D01*
X176000Y257000D02*
Y272000D01*
X177000Y257000D02*
Y272000D01*
X178000Y257000D02*
Y272000D01*
X179000Y257000D02*
Y272000D01*
X180000Y257000D02*
Y272000D01*
X181000Y257000D02*
Y272000D01*
X182000Y258000D02*
Y271000D01*
X157000Y266500D02*
Y262500D01*
X156000Y261500*
X148000*
X147000Y262500*
Y266500*
X148000Y267500*
X156000*
X157000Y266500*
X147500Y262000D02*
X156500D01*
X147000Y263000D02*
X157000D01*
X147000Y264000D02*
X157000D01*
X147000Y265000D02*
X157000D01*
X147000Y266000D02*
X157000D01*
X147500Y267000D02*
X156500D01*
X147000Y262500D02*
Y266500D01*
X148000Y261500D02*
Y267500D01*
X149000Y261500D02*
Y267500D01*
X150000Y261500D02*
Y267500D01*
X151000Y261500D02*
Y267500D01*
X152000Y261500D02*
Y267500D01*
X153000Y261500D02*
Y267500D01*
X154000Y261500D02*
Y267500D01*
X155000Y261500D02*
Y267500D01*
X156000Y261500D02*
Y267500D01*
X157000Y262500D02*
Y266500D01*
X167000Y198000D02*
Y211000D01*
X168000Y212000*
X181000*
X182000Y211000*
Y198000*
X181000Y197000*
X168000*
X167000Y198000*
X168000Y197000D02*
X181000D01*
X167000Y198000D02*
X182000D01*
X167000Y199000D02*
X182000D01*
X167000Y200000D02*
X182000D01*
X167000Y201000D02*
X182000D01*
X167000Y202000D02*
X182000D01*
X167000Y203000D02*
X182000D01*
X167000Y204000D02*
X182000D01*
X167000Y205000D02*
X182000D01*
X167000Y206000D02*
X182000D01*
X167000Y207000D02*
X182000D01*
X167000Y208000D02*
X182000D01*
X167000Y209000D02*
X182000D01*
X167000Y210000D02*
X182000D01*
X167000Y211000D02*
X182000D01*
X168000Y212000D02*
X181000D01*
X167000Y198000D02*
Y211000D01*
X168000Y197000D02*
Y212000D01*
X169000Y197000D02*
Y212000D01*
X170000Y197000D02*
Y212000D01*
X171000Y197000D02*
Y212000D01*
X172000Y197000D02*
Y212000D01*
X173000Y197000D02*
Y212000D01*
X174000Y197000D02*
Y212000D01*
X175000Y197000D02*
Y212000D01*
X176000Y197000D02*
Y212000D01*
X177000Y197000D02*
Y212000D01*
X178000Y197000D02*
Y212000D01*
X179000Y197000D02*
Y212000D01*
X180000Y197000D02*
Y212000D01*
X181000Y197000D02*
Y212000D01*
X182000Y198000D02*
Y211000D01*
X157000Y206500D02*
Y202500D01*
X156000Y201500*
X148000*
X147000Y202500*
Y206500*
X148000Y207500*
X156000*
X157000Y206500*
X147500Y202000D02*
X156500D01*
X147000Y203000D02*
X157000D01*
X147000Y204000D02*
X157000D01*
X147000Y205000D02*
X157000D01*
X147000Y206000D02*
X157000D01*
X147500Y207000D02*
X156500D01*
X147000Y202500D02*
Y206500D01*
X148000Y201500D02*
Y207500D01*
X149000Y201500D02*
Y207500D01*
X150000Y201500D02*
Y207500D01*
X151000Y201500D02*
Y207500D01*
X152000Y201500D02*
Y207500D01*
X153000Y201500D02*
Y207500D01*
X154000Y201500D02*
Y207500D01*
X155000Y201500D02*
Y207500D01*
X156000Y201500D02*
Y207500D01*
X157000Y202500D02*
Y206500D01*
X167000Y138000D02*
Y151000D01*
X168000Y152000*
X181000*
X182000Y151000*
Y138000*
X181000Y137000*
X168000*
X167000Y138000*
X168000Y137000D02*
X181000D01*
X167000Y138000D02*
X182000D01*
X167000Y139000D02*
X182000D01*
X167000Y140000D02*
X182000D01*
X167000Y141000D02*
X182000D01*
X167000Y142000D02*
X182000D01*
X167000Y143000D02*
X182000D01*
X167000Y144000D02*
X182000D01*
X167000Y145000D02*
X182000D01*
X167000Y146000D02*
X182000D01*
X167000Y147000D02*
X182000D01*
X167000Y148000D02*
X182000D01*
X167000Y149000D02*
X182000D01*
X167000Y150000D02*
X182000D01*
X167000Y151000D02*
X182000D01*
X168000Y152000D02*
X181000D01*
X167000Y138000D02*
Y151000D01*
X168000Y137000D02*
Y152000D01*
X169000Y137000D02*
Y152000D01*
X170000Y137000D02*
Y152000D01*
X171000Y137000D02*
Y152000D01*
X172000Y137000D02*
Y152000D01*
X173000Y137000D02*
Y152000D01*
X174000Y137000D02*
Y152000D01*
X175000Y137000D02*
Y152000D01*
X176000Y137000D02*
Y152000D01*
X177000Y137000D02*
Y152000D01*
X178000Y137000D02*
Y152000D01*
X179000Y137000D02*
Y152000D01*
X180000Y137000D02*
Y152000D01*
X181000Y137000D02*
Y152000D01*
X182000Y138000D02*
Y151000D01*
X157000Y146500D02*
Y142500D01*
X156000Y141500*
X148000*
X147000Y142500*
Y146500*
X148000Y147500*
X156000*
X157000Y146500*
X147500Y142000D02*
X156500D01*
X147000Y143000D02*
X157000D01*
X147000Y144000D02*
X157000D01*
X147000Y145000D02*
X157000D01*
X147000Y146000D02*
X157000D01*
X147500Y147000D02*
X156500D01*
X147000Y142500D02*
Y146500D01*
X148000Y141500D02*
Y147500D01*
X149000Y141500D02*
Y147500D01*
X150000Y141500D02*
Y147500D01*
X151000Y141500D02*
Y147500D01*
X152000Y141500D02*
Y147500D01*
X153000Y141500D02*
Y147500D01*
X154000Y141500D02*
Y147500D01*
X155000Y141500D02*
Y147500D01*
X156000Y141500D02*
Y147500D01*
X157000Y142500D02*
Y146500D01*
X223500Y130500D02*
Y143500D01*
X224500Y144500*
X237500*
X238500Y143500*
Y130500*
X237500Y129500*
X224500*
X223500Y130500*
X224000Y130000D02*
X238000D01*
X223500Y131000D02*
X238500D01*
X223500Y132000D02*
X238500D01*
X223500Y133000D02*
X238500D01*
X223500Y134000D02*
X238500D01*
X223500Y135000D02*
X238500D01*
X223500Y136000D02*
X238500D01*
X223500Y137000D02*
X238500D01*
X223500Y138000D02*
X238500D01*
X223500Y139000D02*
X238500D01*
X223500Y140000D02*
X238500D01*
X223500Y141000D02*
X238500D01*
X223500Y142000D02*
X238500D01*
X223500Y143000D02*
X238500D01*
X224000Y144000D02*
X238000D01*
X224000Y130000D02*
Y144000D01*
X225000Y129500D02*
Y144500D01*
X226000Y129500D02*
Y144500D01*
X227000Y129500D02*
Y144500D01*
X228000Y129500D02*
Y144500D01*
X229000Y129500D02*
Y144500D01*
X230000Y129500D02*
Y144500D01*
X231000Y129500D02*
Y144500D01*
X232000Y129500D02*
Y144500D01*
X233000Y129500D02*
Y144500D01*
X234000Y129500D02*
Y144500D01*
X235000Y129500D02*
Y144500D01*
X236000Y129500D02*
Y144500D01*
X237000Y129500D02*
Y144500D01*
X238000Y130000D02*
Y144000D01*
X233000Y154500D02*
X229000D01*
X228000Y155500*
Y163500*
X229000Y164500*
X233000*
X234000Y163500*
Y155500*
X233000Y154500*
X228500Y155000D02*
X233500D01*
X228000Y156000D02*
X234000D01*
X228000Y157000D02*
X234000D01*
X228000Y158000D02*
X234000D01*
X228000Y159000D02*
X234000D01*
X228000Y160000D02*
X234000D01*
X228000Y161000D02*
X234000D01*
X228000Y162000D02*
X234000D01*
X228000Y163000D02*
X234000D01*
X228500Y164000D02*
X233500D01*
X228000Y155500D02*
Y163500D01*
X229000Y154500D02*
Y164500D01*
X230000Y154500D02*
Y164500D01*
X231000Y154500D02*
Y164500D01*
X232000Y154500D02*
Y164500D01*
X233000Y154500D02*
Y164500D01*
X234000Y155500D02*
Y163500D01*
X365500Y186500D02*
Y199500D01*
X366500Y200500*
X379500*
X380500Y199500*
Y186500*
X379500Y185500*
X366500*
X365500Y186500*
X366000Y186000D02*
X380000D01*
X365500Y187000D02*
X380500D01*
X365500Y188000D02*
X380500D01*
X365500Y189000D02*
X380500D01*
X365500Y190000D02*
X380500D01*
X365500Y191000D02*
X380500D01*
X365500Y192000D02*
X380500D01*
X365500Y193000D02*
X380500D01*
X365500Y194000D02*
X380500D01*
X365500Y195000D02*
X380500D01*
X365500Y196000D02*
X380500D01*
X365500Y197000D02*
X380500D01*
X365500Y198000D02*
X380500D01*
X365500Y199000D02*
X380500D01*
X366000Y200000D02*
X380000D01*
X366000Y186000D02*
Y200000D01*
X367000Y185500D02*
Y200500D01*
X368000Y185500D02*
Y200500D01*
X369000Y185500D02*
Y200500D01*
X370000Y185500D02*
Y200500D01*
X371000Y185500D02*
Y200500D01*
X372000Y185500D02*
Y200500D01*
X373000Y185500D02*
Y200500D01*
X374000Y185500D02*
Y200500D01*
X375000Y185500D02*
Y200500D01*
X376000Y185500D02*
Y200500D01*
X377000Y185500D02*
Y200500D01*
X378000Y185500D02*
Y200500D01*
X379000Y185500D02*
Y200500D01*
X380000Y186000D02*
Y200000D01*
X375000Y210500D02*
X371000D01*
X370000Y211500*
Y219500*
X371000Y220500*
X375000*
X376000Y219500*
Y211500*
X375000Y210500*
X370500Y211000D02*
X375500D01*
X370000Y212000D02*
X376000D01*
X370000Y213000D02*
X376000D01*
X370000Y214000D02*
X376000D01*
X370000Y215000D02*
X376000D01*
X370000Y216000D02*
X376000D01*
X370000Y217000D02*
X376000D01*
X370000Y218000D02*
X376000D01*
X370000Y219000D02*
X376000D01*
X370500Y220000D02*
X375500D01*
X370000Y211500D02*
Y219500D01*
X371000Y210500D02*
Y220500D01*
X372000Y210500D02*
Y220500D01*
X373000Y210500D02*
Y220500D01*
X374000Y210500D02*
Y220500D01*
X375000Y210500D02*
Y220500D01*
X376000Y211500D02*
Y219500D01*
X243500Y130500D02*
Y143500D01*
X244500Y144500*
X257500*
X258500Y143500*
Y130500*
X257500Y129500*
X244500*
X243500Y130500*
X244000Y130000D02*
X258000D01*
X243500Y131000D02*
X258500D01*
X243500Y132000D02*
X258500D01*
X243500Y133000D02*
X258500D01*
X243500Y134000D02*
X258500D01*
X243500Y135000D02*
X258500D01*
X243500Y136000D02*
X258500D01*
X243500Y137000D02*
X258500D01*
X243500Y138000D02*
X258500D01*
X243500Y139000D02*
X258500D01*
X243500Y140000D02*
X258500D01*
X243500Y141000D02*
X258500D01*
X243500Y142000D02*
X258500D01*
X243500Y143000D02*
X258500D01*
X244000Y144000D02*
X258000D01*
X244000Y130000D02*
Y144000D01*
X245000Y129500D02*
Y144500D01*
X246000Y129500D02*
Y144500D01*
X247000Y129500D02*
Y144500D01*
X248000Y129500D02*
Y144500D01*
X249000Y129500D02*
Y144500D01*
X250000Y129500D02*
Y144500D01*
X251000Y129500D02*
Y144500D01*
X252000Y129500D02*
Y144500D01*
X253000Y129500D02*
Y144500D01*
X254000Y129500D02*
Y144500D01*
X255000Y129500D02*
Y144500D01*
X256000Y129500D02*
Y144500D01*
X257000Y129500D02*
Y144500D01*
X258000Y130000D02*
Y144000D01*
X253000Y154500D02*
X249000D01*
X248000Y155500*
Y163500*
X249000Y164500*
X253000*
X254000Y163500*
Y155500*
X253000Y154500*
X248500Y155000D02*
X253500D01*
X248000Y156000D02*
X254000D01*
X248000Y157000D02*
X254000D01*
X248000Y158000D02*
X254000D01*
X248000Y159000D02*
X254000D01*
X248000Y160000D02*
X254000D01*
X248000Y161000D02*
X254000D01*
X248000Y162000D02*
X254000D01*
X248000Y163000D02*
X254000D01*
X248500Y164000D02*
X253500D01*
X248000Y155500D02*
Y163500D01*
X249000Y154500D02*
Y164500D01*
X250000Y154500D02*
Y164500D01*
X251000Y154500D02*
Y164500D01*
X252000Y154500D02*
Y164500D01*
X253000Y154500D02*
Y164500D01*
X254000Y155500D02*
Y163500D01*
X427000Y395500D02*
Y408500D01*
X428000Y409500*
X441000*
X442000Y408500*
Y395500*
X441000Y394500*
X428000*
X427000Y395500*
X427500Y395000D02*
X441500D01*
X427000Y396000D02*
X442000D01*
X427000Y397000D02*
X442000D01*
X427000Y398000D02*
X442000D01*
X427000Y399000D02*
X442000D01*
X427000Y400000D02*
X442000D01*
X427000Y401000D02*
X442000D01*
X427000Y402000D02*
X442000D01*
X427000Y403000D02*
X442000D01*
X427000Y404000D02*
X442000D01*
X427000Y405000D02*
X442000D01*
X427000Y406000D02*
X442000D01*
X427000Y407000D02*
X442000D01*
X427000Y408000D02*
X442000D01*
X427500Y409000D02*
X441500D01*
X427000Y395500D02*
Y408500D01*
X428000Y394500D02*
Y409500D01*
X429000Y394500D02*
Y409500D01*
X430000Y394500D02*
Y409500D01*
X431000Y394500D02*
Y409500D01*
X432000Y394500D02*
Y409500D01*
X433000Y394500D02*
Y409500D01*
X434000Y394500D02*
Y409500D01*
X435000Y394500D02*
Y409500D01*
X436000Y394500D02*
Y409500D01*
X437000Y394500D02*
Y409500D01*
X438000Y394500D02*
Y409500D01*
X439000Y394500D02*
Y409500D01*
X440000Y394500D02*
Y409500D01*
X441000Y394500D02*
Y409500D01*
X442000Y395500D02*
Y408500D01*
X436500Y419500D02*
X432500D01*
X431500Y420500*
Y428500*
X432500Y429500*
X436500*
X437500Y428500*
Y420500*
X436500Y419500*
X432000Y420000D02*
X437000D01*
X431500Y421000D02*
X437500D01*
X431500Y422000D02*
X437500D01*
X431500Y423000D02*
X437500D01*
X431500Y424000D02*
X437500D01*
X431500Y425000D02*
X437500D01*
X431500Y426000D02*
X437500D01*
X431500Y427000D02*
X437500D01*
X431500Y428000D02*
X437500D01*
X432000Y429000D02*
X437000D01*
X432000Y420000D02*
Y429000D01*
X433000Y419500D02*
Y429500D01*
X434000Y419500D02*
Y429500D01*
X435000Y419500D02*
Y429500D01*
X436000Y419500D02*
Y429500D01*
X437000Y420000D02*
Y429000D01*
X509000Y451000D02*
Y464000D01*
X510000Y465000*
X523000*
X524000Y464000*
Y451000*
X523000Y450000*
X510000*
X509000Y451000*
X510000Y450000D02*
X523000D01*
X509000Y451000D02*
X524000D01*
X509000Y452000D02*
X524000D01*
X509000Y453000D02*
X524000D01*
X509000Y454000D02*
X524000D01*
X509000Y455000D02*
X524000D01*
X509000Y456000D02*
X524000D01*
X509000Y457000D02*
X524000D01*
X509000Y458000D02*
X524000D01*
X509000Y459000D02*
X524000D01*
X509000Y460000D02*
X524000D01*
X509000Y461000D02*
X524000D01*
X509000Y462000D02*
X524000D01*
X509000Y463000D02*
X524000D01*
X509000Y464000D02*
X524000D01*
X510000Y465000D02*
X523000D01*
X509000Y451000D02*
Y464000D01*
X510000Y450000D02*
Y465000D01*
X511000Y450000D02*
Y465000D01*
X512000Y450000D02*
Y465000D01*
X513000Y450000D02*
Y465000D01*
X514000Y450000D02*
Y465000D01*
X515000Y450000D02*
Y465000D01*
X516000Y450000D02*
Y465000D01*
X517000Y450000D02*
Y465000D01*
X518000Y450000D02*
Y465000D01*
X519000Y450000D02*
Y465000D01*
X520000Y450000D02*
Y465000D01*
X521000Y450000D02*
Y465000D01*
X522000Y450000D02*
Y465000D01*
X523000Y450000D02*
Y465000D01*
X524000Y451000D02*
Y464000D01*
X514500Y440000D02*
X518500D01*
X519500Y439000*
Y431000*
X518500Y430000*
X514500*
X513500Y431000*
Y439000*
X514500Y440000*
Y430000D02*
X518500D01*
X513500Y431000D02*
X519500D01*
X513500Y432000D02*
X519500D01*
X513500Y433000D02*
X519500D01*
X513500Y434000D02*
X519500D01*
X513500Y435000D02*
X519500D01*
X513500Y436000D02*
X519500D01*
X513500Y437000D02*
X519500D01*
X513500Y438000D02*
X519500D01*
X513500Y439000D02*
X519500D01*
X514500Y440000D02*
X518500D01*
X514000Y430500D02*
Y439500D01*
X515000Y430000D02*
Y440000D01*
X516000Y430000D02*
Y440000D01*
X517000Y430000D02*
Y440000D01*
X518000Y430000D02*
Y440000D01*
X519000Y430500D02*
Y439500D01*
X437000Y447000D02*
Y460000D01*
X438000Y461000*
X451000*
X452000Y460000*
Y447000*
X451000Y446000*
X438000*
X437000Y447000*
X438000Y446000D02*
X451000D01*
X437000Y447000D02*
X452000D01*
X437000Y448000D02*
X452000D01*
X437000Y449000D02*
X452000D01*
X437000Y450000D02*
X452000D01*
X437000Y451000D02*
X452000D01*
X437000Y452000D02*
X452000D01*
X437000Y453000D02*
X452000D01*
X437000Y454000D02*
X452000D01*
X437000Y455000D02*
X452000D01*
X437000Y456000D02*
X452000D01*
X437000Y457000D02*
X452000D01*
X437000Y458000D02*
X452000D01*
X437000Y459000D02*
X452000D01*
X437000Y460000D02*
X452000D01*
X438000Y461000D02*
X451000D01*
X437000Y447000D02*
Y460000D01*
X438000Y446000D02*
Y461000D01*
X439000Y446000D02*
Y461000D01*
X440000Y446000D02*
Y461000D01*
X441000Y446000D02*
Y461000D01*
X442000Y446000D02*
Y461000D01*
X443000Y446000D02*
Y461000D01*
X444000Y446000D02*
Y461000D01*
X445000Y446000D02*
Y461000D01*
X446000Y446000D02*
Y461000D01*
X447000Y446000D02*
Y461000D01*
X448000Y446000D02*
Y461000D01*
X449000Y446000D02*
Y461000D01*
X450000Y446000D02*
Y461000D01*
X451000Y446000D02*
Y461000D01*
X452000Y447000D02*
Y460000D01*
X442500Y436000D02*
X446500D01*
X447500Y435000*
Y427000*
X446500Y426000*
X442500*
X441500Y427000*
Y435000*
X442500Y436000*
Y426000D02*
X446500D01*
X441500Y427000D02*
X447500D01*
X441500Y428000D02*
X447500D01*
X441500Y429000D02*
X447500D01*
X441500Y430000D02*
X447500D01*
X441500Y431000D02*
X447500D01*
X441500Y432000D02*
X447500D01*
X441500Y433000D02*
X447500D01*
X441500Y434000D02*
X447500D01*
X441500Y435000D02*
X447500D01*
X442500Y436000D02*
X446500D01*
X442000Y426500D02*
Y435500D01*
X443000Y426000D02*
Y436000D01*
X444000Y426000D02*
Y436000D01*
X445000Y426000D02*
Y436000D01*
X446000Y426000D02*
Y436000D01*
X447000Y426500D02*
Y435500D01*
X282500Y385500D02*
X332500D01*
Y378500*
X282500*
Y385500*
X283000Y322500D02*
X333000D01*
Y315500*
X283000*
Y322500*
X272500Y325500D02*
Y375500D01*
X279500*
Y325500*
X272500*
X335500D02*
Y375500D01*
X342500*
Y325500*
X335500*
X282500Y384799D02*
X332500D01*
X282500Y383899D02*
X332500D01*
X282500Y382999D02*
X332500D01*
X282500Y382099D02*
X332500D01*
X282500Y381199D02*
X332500D01*
X282500Y380299D02*
X332500D01*
X282500Y379399D02*
X332500D01*
X283000Y321799D02*
X333000D01*
X283000Y320899D02*
X333000D01*
X283000Y319999D02*
X333000D01*
X283000Y319099D02*
X333000D01*
X283000Y318199D02*
X333000D01*
X283000Y317299D02*
X333000D01*
X283000Y316399D02*
X333000D01*
X272500Y374999D02*
X279500D01*
X272500Y374099D02*
X279500D01*
X272500Y373199D02*
X279500D01*
X272500Y372299D02*
X279500D01*
X272500Y371399D02*
X279500D01*
X272500Y370499D02*
X279500D01*
X272500Y369599D02*
X279500D01*
X272500Y368699D02*
X279500D01*
X272500Y367799D02*
X279500D01*
X272500Y366899D02*
X279500D01*
X272500Y365999D02*
X279500D01*
X272500Y365099D02*
X279500D01*
X272500Y364199D02*
X279500D01*
X272500Y363299D02*
X279500D01*
X272500Y362399D02*
X279500D01*
X272500Y361499D02*
X279500D01*
X272500Y360599D02*
X279500D01*
X272500Y359699D02*
X279500D01*
X272500Y358799D02*
X279500D01*
X272500Y357899D02*
X279500D01*
X272500Y356999D02*
X279500D01*
X272500Y356099D02*
X279500D01*
X272500Y355199D02*
X279500D01*
X272500Y354299D02*
X279500D01*
X272500Y353399D02*
X279500D01*
X272500Y352499D02*
X279500D01*
X272500Y351599D02*
X279500D01*
X272500Y350699D02*
X279500D01*
X272500Y349799D02*
X279500D01*
X272500Y348899D02*
X279500D01*
X272500Y347999D02*
X279500D01*
X272500Y347099D02*
X279500D01*
X272500Y346199D02*
X279500D01*
X272500Y345299D02*
X279500D01*
X272500Y344399D02*
X279500D01*
X272500Y343499D02*
X279500D01*
X272500Y342599D02*
X279500D01*
X272500Y341699D02*
X279500D01*
X272500Y340799D02*
X279500D01*
X272500Y339899D02*
X279500D01*
X272500Y338999D02*
X279500D01*
X272500Y338099D02*
X279500D01*
X272500Y337199D02*
X279500D01*
X272500Y336299D02*
X279500D01*
X272500Y335399D02*
X279500D01*
X272500Y334499D02*
X279500D01*
X272500Y333599D02*
X279500D01*
X272500Y332699D02*
X279500D01*
X272500Y331799D02*
X279500D01*
X272500Y330899D02*
X279500D01*
X272500Y329999D02*
X279500D01*
X272500Y329099D02*
X279500D01*
X272500Y328199D02*
X279500D01*
X272500Y327299D02*
X279500D01*
X272500Y326399D02*
X279500D01*
X335500Y374999D02*
X342500D01*
X335500Y374099D02*
X342500D01*
X335500Y373199D02*
X342500D01*
X335500Y372299D02*
X342500D01*
X335500Y371399D02*
X342500D01*
X335500Y370499D02*
X342500D01*
X335500Y369599D02*
X342500D01*
X335500Y368699D02*
X342500D01*
X335500Y367799D02*
X342500D01*
X335500Y366899D02*
X342500D01*
X335500Y365999D02*
X342500D01*
X335500Y365099D02*
X342500D01*
X335500Y364199D02*
X342500D01*
X335500Y363299D02*
X342500D01*
X335500Y362399D02*
X342500D01*
X335500Y361499D02*
X342500D01*
X335500Y360599D02*
X342500D01*
X335500Y359699D02*
X342500D01*
X335500Y358799D02*
X342500D01*
X335500Y357899D02*
X342500D01*
X335500Y356999D02*
X342500D01*
X335500Y356099D02*
X342500D01*
X335500Y355199D02*
X342500D01*
X335500Y354299D02*
X342500D01*
X335500Y353399D02*
X342500D01*
X335500Y352499D02*
X342500D01*
X335500Y351599D02*
X342500D01*
X335500Y350699D02*
X342500D01*
X335500Y349799D02*
X342500D01*
X335500Y348899D02*
X342500D01*
X335500Y347999D02*
X342500D01*
X335500Y347099D02*
X342500D01*
X335500Y346199D02*
X342500D01*
X335500Y345299D02*
X342500D01*
X335500Y344399D02*
X342500D01*
X335500Y343499D02*
X342500D01*
X335500Y342599D02*
X342500D01*
X335500Y341699D02*
X342500D01*
X335500Y340799D02*
X342500D01*
X335500Y339899D02*
X342500D01*
X335500Y338999D02*
X342500D01*
X335500Y338099D02*
X342500D01*
X335500Y337199D02*
X342500D01*
X335500Y336299D02*
X342500D01*
X335500Y335399D02*
X342500D01*
X335500Y334499D02*
X342500D01*
X335500Y333599D02*
X342500D01*
X335500Y332699D02*
X342500D01*
X335500Y331799D02*
X342500D01*
X335500Y330899D02*
X342500D01*
X335500Y329999D02*
X342500D01*
X335500Y329099D02*
X342500D01*
X335500Y328199D02*
X342500D01*
X335500Y327299D02*
X342500D01*
X335500Y326399D02*
X342500D01*
G54D31*
X407250Y274457D02*
Y273457D01*
X404750*
Y274457*
X407250*
X404750Y274000D02*
X407250D01*
X406000Y273457D02*
Y274457D01*
X407250Y281543D02*
Y280543D01*
X404750*
Y281543*
X407250*
X406000Y280543D02*
Y281543D01*
X399376Y278000D02*
Y277000D01*
X396876*
Y278000*
X399376*
X396876D02*
X399376D01*
X398000Y277000D02*
Y278000D01*
X374750Y292457D02*
Y291457D01*
X372250*
Y292457*
X374750*
X372250Y292000D02*
X374750D01*
X374000Y291457D02*
Y292457D01*
X374750Y299543D02*
Y298543D01*
X372250*
Y299543*
X374750*
X374000Y298543D02*
Y299543D01*
X366876Y296000D02*
Y295000D01*
X364376*
Y296000*
X366876*
X364376D02*
X366876D01*
X366000Y295000D02*
Y296000D01*
X449500Y231878D02*
X448500D01*
Y233378*
X449500*
Y231878*
X448500Y232000D02*
X449500D01*
Y226622D02*
X448500D01*
Y228122*
X449500*
Y226622*
X448500Y228000D02*
X449500D01*
X456122Y233000D02*
Y232000D01*
X454622*
Y233000*
X456122*
X454622Y232000D02*
X456122D01*
X456000D02*
Y233000D01*
X461378D02*
Y232000D01*
X459878*
Y233000*
X461378*
X459878Y232000D02*
X461378D01*
X460000D02*
Y233000D01*
X474122D02*
Y232000D01*
X472622*
Y233000*
X474122*
X472622Y232000D02*
X474122D01*
X474000D02*
Y233000D01*
X479378D02*
Y232000D01*
X477878*
Y233000*
X479378*
X477878Y232000D02*
X479378D01*
X478000D02*
Y233000D01*
X467500Y231878D02*
X466500D01*
Y233378*
X467500*
Y231878*
X466500Y232000D02*
X467500D01*
Y226622D02*
X466500D01*
Y228122*
X467500*
Y226622*
X466500Y228000D02*
X467500D01*
X485500Y231878D02*
X484500D01*
Y233378*
X485500*
Y231878*
X484500Y232000D02*
X485500D01*
Y226622D02*
X484500D01*
Y228122*
X485500*
Y226622*
X484500Y228000D02*
X485500D01*
X456122Y239000D02*
Y238000D01*
X454622*
Y239000*
X456122*
X454622Y238000D02*
X456122D01*
X456000D02*
Y239000D01*
X461378D02*
Y238000D01*
X459878*
Y239000*
X461378*
X459878Y238000D02*
X461378D01*
X460000D02*
Y239000D01*
X474122D02*
Y238000D01*
X472622*
Y239000*
X474122*
X472622Y238000D02*
X474122D01*
X474000D02*
Y239000D01*
X479378D02*
Y238000D01*
X477878*
Y239000*
X479378*
X477878Y238000D02*
X479378D01*
X478000D02*
Y239000D01*
G54D32*
X509000Y232500D03*
X119500Y409500D03*
Y349500D03*
Y289500D03*
Y229500D03*
Y169500D03*
G54D34*
X389157Y453000D03*
X392863Y445305D03*
X401190Y443404D03*
X407868Y448730D03*
Y457271D03*
X401190Y462596D03*
X392863Y460695D03*
X457157Y261000D03*
X460863Y253305D03*
X469190Y251404D03*
X475868Y256730D03*
Y265271D03*
X469190Y270596D03*
X460863Y268695D03*
X108157Y117000D03*
X111863Y109305D03*
X120190Y107404D03*
X126868Y112730D03*
Y121271D03*
X120190Y126596D03*
X111863Y124695D03*
X108157Y453000D03*
X111863Y445305D03*
X120190Y443404D03*
X126868Y448730D03*
Y457271D03*
X120190Y462596D03*
X111863Y460695D03*
G54D36*
X519000Y242500D03*
Y222500D03*
X499000D03*
Y242500D03*
X129500Y419500D03*
Y399500D03*
X109500D03*
Y419500D03*
X129500Y359500D03*
Y339500D03*
X109500D03*
Y359500D03*
X129500Y299500D03*
Y279500D03*
X109500D03*
Y299500D03*
X129500Y239500D03*
Y219500D03*
X109500D03*
Y239500D03*
X129500Y179500D03*
Y159500D03*
X109500D03*
Y179500D03*
G54D37*
X179205Y418909D02*
Y420091D01*
X185898*
Y418909*
X179205*
X180701D02*
Y420091D01*
X182882Y418909D02*
Y420091D01*
X185063Y418909D02*
Y420091D01*
X179205Y413909D02*
Y415091D01*
X185898*
Y413909*
X179205*
Y414079D02*
X185898D01*
X180701Y413909D02*
Y415091D01*
X182882Y413909D02*
Y415091D01*
X185063Y413909D02*
Y415091D01*
X179205Y408909D02*
Y410091D01*
X185898*
Y408909*
X179205*
Y409717D02*
X185898D01*
X180701Y408909D02*
Y410091D01*
X182882Y408909D02*
Y410091D01*
X185063Y408909D02*
Y410091D01*
X179205Y403909D02*
Y405091D01*
X185898*
Y403909*
X179205*
X180701D02*
Y405091D01*
X182882Y403909D02*
Y405091D01*
X185063Y403909D02*
Y405091D01*
X198102Y403909D02*
Y405091D01*
X204795*
Y403909*
X198102*
X198150D02*
Y405091D01*
X200331Y403909D02*
Y405091D01*
X202512Y403909D02*
Y405091D01*
X204693Y403909D02*
Y405091D01*
X198102Y408909D02*
Y410091D01*
X204795*
Y408909*
X198102*
Y409717D02*
X204795D01*
X198150Y408909D02*
Y410091D01*
X200331Y408909D02*
Y410091D01*
X202512Y408909D02*
Y410091D01*
X204693Y408909D02*
Y410091D01*
X198102Y413909D02*
Y415091D01*
X204795*
Y413909*
X198102*
Y414079D02*
X204795D01*
X198150Y413909D02*
Y415091D01*
X200331Y413909D02*
Y415091D01*
X202512Y413909D02*
Y415091D01*
X204693Y413909D02*
Y415091D01*
X198102Y418909D02*
Y420091D01*
X204795*
Y418909*
X198102*
X198150D02*
Y420091D01*
X200331Y418909D02*
Y420091D01*
X202512Y418909D02*
Y420091D01*
X204693Y418909D02*
Y420091D01*
X179205Y358909D02*
Y360091D01*
X185898*
Y358909*
X179205*
Y359551D02*
X185898D01*
X180701Y358909D02*
Y360091D01*
X182882Y358909D02*
Y360091D01*
X185063Y358909D02*
Y360091D01*
X179205Y353909D02*
Y355091D01*
X185898*
Y353909*
X179205*
X180701D02*
Y355091D01*
X182882Y353909D02*
Y355091D01*
X185063Y353909D02*
Y355091D01*
X179205Y348909D02*
Y350091D01*
X185898*
Y348909*
X179205*
X180701D02*
Y350091D01*
X182882Y348909D02*
Y350091D01*
X185063Y348909D02*
Y350091D01*
X179205Y343909D02*
Y345091D01*
X185898*
Y343909*
X179205*
Y344283D02*
X185898D01*
X180701Y343909D02*
Y345091D01*
X182882Y343909D02*
Y345091D01*
X185063Y343909D02*
Y345091D01*
X198102Y343909D02*
Y345091D01*
X204795*
Y343909*
X198102*
Y344283D02*
X204795D01*
X198150Y343909D02*
Y345091D01*
X200331Y343909D02*
Y345091D01*
X202512Y343909D02*
Y345091D01*
X204693Y343909D02*
Y345091D01*
X198102Y348909D02*
Y350091D01*
X204795*
Y348909*
X198102*
X198150D02*
Y350091D01*
X200331Y348909D02*
Y350091D01*
X202512Y348909D02*
Y350091D01*
X204693Y348909D02*
Y350091D01*
X198102Y353909D02*
Y355091D01*
X204795*
Y353909*
X198102*
X198150D02*
Y355091D01*
X200331Y353909D02*
Y355091D01*
X202512Y353909D02*
Y355091D01*
X204693Y353909D02*
Y355091D01*
X198102Y358909D02*
Y360091D01*
X204795*
Y358909*
X198102*
Y359551D02*
X204795D01*
X198150Y358909D02*
Y360091D01*
X200331Y358909D02*
Y360091D01*
X202512Y358909D02*
Y360091D01*
X204693Y358909D02*
Y360091D01*
X179205Y298909D02*
Y300091D01*
X185898*
Y298909*
X179205*
X180701D02*
Y300091D01*
X182882Y298909D02*
Y300091D01*
X185063Y298909D02*
Y300091D01*
X179205Y293909D02*
Y295091D01*
X185898*
Y293909*
X179205*
Y294118D02*
X185898D01*
X180701Y293909D02*
Y295091D01*
X182882Y293909D02*
Y295091D01*
X185063Y293909D02*
Y295091D01*
X179205Y288909D02*
Y290091D01*
X185898*
Y288909*
X179205*
Y289756D02*
X185898D01*
X180701Y288909D02*
Y290091D01*
X182882Y288909D02*
Y290091D01*
X185063Y288909D02*
Y290091D01*
X179205Y283909D02*
Y285091D01*
X185898*
Y283909*
X179205*
X180701D02*
Y285091D01*
X182882Y283909D02*
Y285091D01*
X185063Y283909D02*
Y285091D01*
X198102Y283909D02*
Y285091D01*
X204795*
Y283909*
X198102*
X198150D02*
Y285091D01*
X200331Y283909D02*
Y285091D01*
X202512Y283909D02*
Y285091D01*
X204693Y283909D02*
Y285091D01*
X198102Y288909D02*
Y290091D01*
X204795*
Y288909*
X198102*
Y289756D02*
X204795D01*
X198150Y288909D02*
Y290091D01*
X200331Y288909D02*
Y290091D01*
X202512Y288909D02*
Y290091D01*
X204693Y288909D02*
Y290091D01*
X198102Y293909D02*
Y295091D01*
X204795*
Y293909*
X198102*
Y294118D02*
X204795D01*
X198150Y293909D02*
Y295091D01*
X200331Y293909D02*
Y295091D01*
X202512Y293909D02*
Y295091D01*
X204693Y293909D02*
Y295091D01*
X198102Y298909D02*
Y300091D01*
X204795*
Y298909*
X198102*
X198150D02*
Y300091D01*
X200331Y298909D02*
Y300091D01*
X202512Y298909D02*
Y300091D01*
X204693Y298909D02*
Y300091D01*
X179205Y238909D02*
Y240091D01*
X185898*
Y238909*
X179205*
Y239591D02*
X185898D01*
X180701Y238909D02*
Y240091D01*
X182882Y238909D02*
Y240091D01*
X185063Y238909D02*
Y240091D01*
X179205Y233909D02*
Y235091D01*
X185898*
Y233909*
X179205*
X180701D02*
Y235091D01*
X182882Y233909D02*
Y235091D01*
X185063Y233909D02*
Y235091D01*
X179205Y228909D02*
Y230091D01*
X185898*
Y228909*
X179205*
X180701D02*
Y230091D01*
X182882Y228909D02*
Y230091D01*
X185063Y228909D02*
Y230091D01*
X179205Y223909D02*
Y225091D01*
X185898*
Y223909*
X179205*
Y224323D02*
X185898D01*
X180701Y223909D02*
Y225091D01*
X182882Y223909D02*
Y225091D01*
X185063Y223909D02*
Y225091D01*
X198102Y223909D02*
Y225091D01*
X204795*
Y223909*
X198102*
Y224323D02*
X204795D01*
X198150Y223909D02*
Y225091D01*
X200331Y223909D02*
Y225091D01*
X202512Y223909D02*
Y225091D01*
X204693Y223909D02*
Y225091D01*
X198102Y228909D02*
Y230091D01*
X204795*
Y228909*
X198102*
X198150D02*
Y230091D01*
X200331Y228909D02*
Y230091D01*
X202512Y228909D02*
Y230091D01*
X204693Y228909D02*
Y230091D01*
X198102Y233909D02*
Y235091D01*
X204795*
Y233909*
X198102*
X198150D02*
Y235091D01*
X200331Y233909D02*
Y235091D01*
X202512Y233909D02*
Y235091D01*
X204693Y233909D02*
Y235091D01*
X198102Y238909D02*
Y240091D01*
X204795*
Y238909*
X198102*
Y239591D02*
X204795D01*
X198150Y238909D02*
Y240091D01*
X200331Y238909D02*
Y240091D01*
X202512Y238909D02*
Y240091D01*
X204693Y238909D02*
Y240091D01*
X179205Y178909D02*
Y180091D01*
X185898*
Y178909*
X179205*
X180701D02*
Y180091D01*
X182882Y178909D02*
Y180091D01*
X185063Y178909D02*
Y180091D01*
X179205Y173909D02*
Y175091D01*
X185898*
Y173909*
X179205*
Y174157D02*
X185898D01*
X180701Y173909D02*
Y175091D01*
X182882Y173909D02*
Y175091D01*
X185063Y173909D02*
Y175091D01*
X179205Y168909D02*
Y170091D01*
X185898*
Y168909*
X179205*
Y169795D02*
X185898D01*
X180701Y168909D02*
Y170091D01*
X182882Y168909D02*
Y170091D01*
X185063Y168909D02*
Y170091D01*
X179205Y163909D02*
Y165091D01*
X185898*
Y163909*
X179205*
X180701D02*
Y165091D01*
X182882Y163909D02*
Y165091D01*
X185063Y163909D02*
Y165091D01*
X198102Y163909D02*
Y165091D01*
X204795*
Y163909*
X198102*
X198150D02*
Y165091D01*
X200331Y163909D02*
Y165091D01*
X202512Y163909D02*
Y165091D01*
X204693Y163909D02*
Y165091D01*
X198102Y168909D02*
Y170091D01*
X204795*
Y168909*
X198102*
Y169795D02*
X204795D01*
X198150Y168909D02*
Y170091D01*
X200331Y168909D02*
Y170091D01*
X202512Y168909D02*
Y170091D01*
X204693Y168909D02*
Y170091D01*
X198102Y173909D02*
Y175091D01*
X204795*
Y173909*
X198102*
Y174157D02*
X204795D01*
X198150Y173909D02*
Y175091D01*
X200331Y173909D02*
Y175091D01*
X202512Y173909D02*
Y175091D01*
X204693Y173909D02*
Y175091D01*
X198102Y178909D02*
Y180091D01*
X204795*
Y178909*
X198102*
X198150D02*
Y180091D01*
X200331Y178909D02*
Y180091D01*
X202512Y178909D02*
Y180091D01*
X204693Y178909D02*
Y180091D01*
X393705Y241909D02*
Y243091D01*
X400398*
Y241909*
X393705*
X394449D02*
Y243091D01*
X396630Y241909D02*
Y243091D01*
X398811Y241909D02*
Y243091D01*
X393705Y236909D02*
Y238091D01*
X400398*
Y236909*
X393705*
Y237409D02*
X400398D01*
X394449Y236909D02*
Y238091D01*
X396630Y236909D02*
Y238091D01*
X398811Y236909D02*
Y238091D01*
X393705Y231909D02*
Y233091D01*
X400398*
Y231909*
X393705*
Y233047D02*
X400398D01*
X394449Y231909D02*
Y233091D01*
X396630Y231909D02*
Y233091D01*
X398811Y231909D02*
Y233091D01*
X393705Y226909D02*
Y228091D01*
X400398*
Y226909*
X393705*
X394449D02*
Y228091D01*
X396630Y226909D02*
Y228091D01*
X398811Y226909D02*
Y228091D01*
X412602Y226909D02*
Y228091D01*
X419295*
Y226909*
X412602*
X414079D02*
Y228091D01*
X416260Y226909D02*
Y228091D01*
X418441Y226909D02*
Y228091D01*
X412602Y231909D02*
Y233091D01*
X419295*
Y231909*
X412602*
Y233047D02*
X419295D01*
X414079Y231909D02*
Y233091D01*
X416260Y231909D02*
Y233091D01*
X418441Y231909D02*
Y233091D01*
X412602Y236909D02*
Y238091D01*
X419295*
Y236909*
X412602*
Y237409D02*
X419295D01*
X414079Y236909D02*
Y238091D01*
X416260Y236909D02*
Y238091D01*
X418441Y236909D02*
Y238091D01*
X412602Y241909D02*
Y243091D01*
X419295*
Y241909*
X412602*
X414079D02*
Y243091D01*
X416260Y241909D02*
Y243091D01*
X418441Y241909D02*
Y243091D01*
X393705Y218909D02*
Y220091D01*
X400398*
Y218909*
X393705*
Y219961D02*
X400398D01*
X394449Y218909D02*
Y220091D01*
X396630Y218909D02*
Y220091D01*
X398811Y218909D02*
Y220091D01*
X393705Y213909D02*
Y215091D01*
X400398*
Y213909*
X393705*
X394449D02*
Y215091D01*
X396630Y213909D02*
Y215091D01*
X398811Y213909D02*
Y215091D01*
X393705Y208909D02*
Y210091D01*
X400398*
Y208909*
X393705*
Y209055D02*
X400398D01*
X394449Y208909D02*
Y210091D01*
X396630Y208909D02*
Y210091D01*
X398811Y208909D02*
Y210091D01*
X393705Y203909D02*
Y205091D01*
X400398*
Y203909*
X393705*
Y204693D02*
X400398D01*
X394449Y203909D02*
Y205091D01*
X396630Y203909D02*
Y205091D01*
X398811Y203909D02*
Y205091D01*
X412602Y203909D02*
Y205091D01*
X419295*
Y203909*
X412602*
Y204693D02*
X419295D01*
X414079Y203909D02*
Y205091D01*
X416260Y203909D02*
Y205091D01*
X418441Y203909D02*
Y205091D01*
X412602Y208909D02*
Y210091D01*
X419295*
Y208909*
X412602*
Y209055D02*
X419295D01*
X414079Y208909D02*
Y210091D01*
X416260Y208909D02*
Y210091D01*
X418441Y208909D02*
Y210091D01*
X412602Y213909D02*
Y215091D01*
X419295*
Y213909*
X412602*
X414079D02*
Y215091D01*
X416260Y213909D02*
Y215091D01*
X418441Y213909D02*
Y215091D01*
X412602Y218909D02*
Y220091D01*
X419295*
Y218909*
X412602*
Y219961D02*
X419295D01*
X414079Y218909D02*
Y220091D01*
X416260Y218909D02*
Y220091D01*
X418441Y218909D02*
Y220091D01*
X393705Y264909D02*
Y266091D01*
X400398*
Y264909*
X393705*
Y265764D02*
X400398D01*
X394449Y264909D02*
Y266091D01*
X396630Y264909D02*
Y266091D01*
X398811Y264909D02*
Y266091D01*
X393705Y259909D02*
Y261091D01*
X400398*
Y259909*
X393705*
X394449D02*
Y261091D01*
X396630Y259909D02*
Y261091D01*
X398811Y259909D02*
Y261091D01*
X393705Y254909D02*
Y256091D01*
X400398*
Y254909*
X393705*
X394449D02*
Y256091D01*
X396630Y254909D02*
Y256091D01*
X398811Y254909D02*
Y256091D01*
X393705Y249909D02*
Y251091D01*
X400398*
Y249909*
X393705*
Y250496D02*
X400398D01*
X394449Y249909D02*
Y251091D01*
X396630Y249909D02*
Y251091D01*
X398811Y249909D02*
Y251091D01*
X412602Y249909D02*
Y251091D01*
X419295*
Y249909*
X412602*
Y250496D02*
X419295D01*
X414079Y249909D02*
Y251091D01*
X416260Y249909D02*
Y251091D01*
X418441Y249909D02*
Y251091D01*
X412602Y254909D02*
Y256091D01*
X419295*
Y254909*
X412602*
X414079D02*
Y256091D01*
X416260Y254909D02*
Y256091D01*
X418441Y254909D02*
Y256091D01*
X412602Y259909D02*
Y261091D01*
X419295*
Y259909*
X412602*
X414079D02*
Y261091D01*
X416260Y259909D02*
Y261091D01*
X418441Y259909D02*
Y261091D01*
X412602Y264909D02*
Y266091D01*
X419295*
Y264909*
X412602*
Y265764D02*
X419295D01*
X414079Y264909D02*
Y266091D01*
X416260Y264909D02*
Y266091D01*
X418441Y264909D02*
Y266091D01*
X382091Y288705D02*
X380909D01*
Y295398*
X382091*
Y288705*
X380909Y289756D02*
X382091D01*
X380909Y291937D02*
X382091D01*
X380909Y294118D02*
X382091D01*
X381362Y288705D02*
Y295398D01*
X387091Y288705D02*
X385909D01*
Y295398*
X387091*
Y288705*
X385909Y289756D02*
X387091D01*
X385909Y291937D02*
X387091D01*
X385909Y294118D02*
X387091D01*
X392091Y288705D02*
X390909D01*
Y295398*
X392091*
Y288705*
X390909Y289756D02*
X392091D01*
X390909Y291937D02*
X392091D01*
X390909Y294118D02*
X392091D01*
X397091Y288705D02*
X395909D01*
Y295398*
X397091*
Y288705*
X395909Y289756D02*
X397091D01*
X395909Y291937D02*
X397091D01*
X395909Y294118D02*
X397091D01*
X396630Y288705D02*
Y295398D01*
X397091Y307602D02*
X395909D01*
Y314295*
X397091*
Y307602*
X395909Y309386D02*
X397091D01*
X395909Y311567D02*
X397091D01*
X395909Y313748D02*
X397091D01*
X396630Y307602D02*
Y314295D01*
X392091Y307602D02*
X390909D01*
Y314295*
X392091*
Y307602*
X390909Y309386D02*
X392091D01*
X390909Y311567D02*
X392091D01*
X390909Y313748D02*
X392091D01*
X387091Y307602D02*
X385909D01*
Y314295*
X387091*
Y307602*
X385909Y309386D02*
X387091D01*
X385909Y311567D02*
X387091D01*
X385909Y313748D02*
X387091D01*
X382091Y307602D02*
X380909D01*
Y314295*
X382091*
Y307602*
X380909Y309386D02*
X382091D01*
X380909Y311567D02*
X382091D01*
X380909Y313748D02*
X382091D01*
X381362Y307602D02*
Y314295D01*
X493295Y416591D02*
Y415409D01*
X486602*
Y416591*
X493295*
X486602Y416260D02*
X493295D01*
X488236Y415409D02*
Y416591D01*
X490417Y415409D02*
Y416591D01*
X492598Y415409D02*
Y416591D01*
X493295Y421591D02*
Y420409D01*
X486602*
Y421591*
X493295*
X486602Y420622D02*
X493295D01*
X488236Y420409D02*
Y421591D01*
X490417Y420409D02*
Y421591D01*
X492598Y420409D02*
Y421591D01*
X493295Y426591D02*
Y425409D01*
X486602*
Y426591*
X493295*
X488236Y425409D02*
Y426591D01*
X490417Y425409D02*
Y426591D01*
X492598Y425409D02*
Y426591D01*
X493295Y431591D02*
Y430409D01*
X486602*
Y431591*
X493295*
X486602Y431528D02*
X493295D01*
X488236Y430409D02*
Y431591D01*
X490417Y430409D02*
Y431591D01*
X492598Y430409D02*
Y431591D01*
X474398D02*
Y430409D01*
X467705*
Y431591*
X474398*
X467705Y431528D02*
X474398D01*
X468606Y430409D02*
Y431591D01*
X470787Y430409D02*
Y431591D01*
X472969Y430409D02*
Y431591D01*
X474398Y426591D02*
Y425409D01*
X467705*
Y426591*
X474398*
X468606Y425409D02*
Y426591D01*
X470787Y425409D02*
Y426591D01*
X472969Y425409D02*
Y426591D01*
X474398Y421591D02*
Y420409D01*
X467705*
Y421591*
X474398*
X467705Y420622D02*
X474398D01*
X468606Y420409D02*
Y421591D01*
X470787Y420409D02*
Y421591D01*
X472969Y420409D02*
Y421591D01*
X474398Y416591D02*
Y415409D01*
X467705*
Y416591*
X474398*
X467705Y416260D02*
X474398D01*
X468606Y415409D02*
Y416591D01*
X470787Y415409D02*
Y416591D01*
X472969Y415409D02*
Y416591D01*
G54D38*
X476500Y120500D03*
X454800D03*
G54D39*
X220300Y350800D02*
Y348200D01*
X216900*
Y350800*
X220300*
X216900Y349200D02*
X220300D01*
X216900Y350600D02*
X220300D01*
X217600Y348200D02*
Y350800D01*
X219000Y348200D02*
Y350800D01*
X214100D02*
Y348200D01*
X210700*
Y350800*
X214100*
X210700Y349200D02*
X214100D01*
X210700Y350600D02*
X214100D01*
X212000Y348200D02*
Y350800D01*
X213400Y348200D02*
Y350800D01*
X220300Y286800D02*
Y284200D01*
X216900*
Y286800*
X220300*
X216900Y284800D02*
X220300D01*
X216900Y286200D02*
X220300D01*
X217600Y284200D02*
Y286800D01*
X219000Y284200D02*
Y286800D01*
X214100D02*
Y284200D01*
X210700*
Y286800*
X214100*
X210700Y284800D02*
X214100D01*
X210700Y286200D02*
X214100D01*
X212000Y284200D02*
Y286800D01*
X213400Y284200D02*
Y286800D01*
X220300Y230800D02*
Y228200D01*
X216900*
Y230800*
X220300*
X216900Y228800D02*
X220300D01*
X216900Y230200D02*
X220300D01*
X217600Y228200D02*
Y230800D01*
X219000Y228200D02*
Y230800D01*
X214100D02*
Y228200D01*
X210700*
Y230800*
X214100*
X210700Y228800D02*
X214100D01*
X210700Y230200D02*
X214100D01*
X212000Y228200D02*
Y230800D01*
X213400Y228200D02*
Y230800D01*
X293800Y143200D02*
X291200D01*
Y146600*
X293800*
Y143200*
X291200Y143400D02*
X293800D01*
X291200Y144800D02*
X293800D01*
X291200Y146200D02*
X293800D01*
X291800Y143200D02*
Y146600D01*
X293200Y143200D02*
Y146600D01*
X293800Y149400D02*
X291200D01*
Y152800*
X293800*
Y149400*
X291200Y150400D02*
X293800D01*
X291200Y151800D02*
X293800D01*
X291800Y149400D02*
Y152800D01*
X293200Y149400D02*
Y152800D01*
X220300Y170800D02*
Y168200D01*
X216900*
Y170800*
X220300*
X216900Y168600D02*
X220300D01*
X216900Y170000D02*
X220300D01*
X217600Y168200D02*
Y170800D01*
X219000Y168200D02*
Y170800D01*
X214100D02*
Y168200D01*
X210700*
Y170800*
X214100*
X210700Y168600D02*
X214100D01*
X210700Y170000D02*
X214100D01*
X212000Y168200D02*
Y170800D01*
X213400Y168200D02*
Y170800D01*
X316800Y116700D02*
X314200D01*
Y120100*
X316800*
Y116700*
X314200Y116800D02*
X316800D01*
X314200Y118200D02*
X316800D01*
X314200Y119600D02*
X316800D01*
X314200Y116700D02*
Y120100D01*
X315600Y116700D02*
Y120100D01*
X316800Y122900D02*
X314200D01*
Y126300*
X316800*
Y122900*
X314200Y123800D02*
X316800D01*
X314200Y125200D02*
X316800D01*
X314200Y122900D02*
Y126300D01*
X315600Y122900D02*
Y126300D01*
X220300Y410800D02*
Y408200D01*
X216900*
Y410800*
X220300*
X216900Y409400D02*
X220300D01*
X216900Y410800D02*
X220300D01*
X217600Y408200D02*
Y410800D01*
X219000Y408200D02*
Y410800D01*
X214100D02*
Y408200D01*
X210700*
Y410800*
X214100*
X210700Y409400D02*
X214100D01*
X210700Y410800D02*
X214100D01*
X212000Y408200D02*
Y410800D01*
X213400Y408200D02*
Y410800D01*
X173800Y407700D02*
X171200D01*
Y411100*
X173800*
Y407700*
X171200Y408000D02*
X173800D01*
X171200Y409400D02*
X173800D01*
X171200Y410800D02*
X173800D01*
X171400Y407700D02*
Y411100D01*
X172800Y407700D02*
Y411100D01*
X173800Y413900D02*
X171200D01*
Y417300*
X173800*
Y413900*
X171200Y415000D02*
X173800D01*
X171200Y416400D02*
X173800D01*
X171400Y413900D02*
Y417300D01*
X172800Y413900D02*
Y417300D01*
X173800Y347700D02*
X171200D01*
Y351100*
X173800*
Y347700*
X171200Y347800D02*
X173800D01*
X171200Y349200D02*
X173800D01*
X171200Y350600D02*
X173800D01*
X171400Y347700D02*
Y351100D01*
X172800Y347700D02*
Y351100D01*
X173800Y353900D02*
X171200D01*
Y357300*
X173800*
Y353900*
X171200Y354800D02*
X173800D01*
X171200Y356200D02*
X173800D01*
X171400Y353900D02*
Y357300D01*
X172800Y353900D02*
Y357300D01*
X173800Y287700D02*
X171200D01*
Y291100*
X173800*
Y287700*
X171200Y289000D02*
X173800D01*
X171200Y290400D02*
X173800D01*
X171400Y287700D02*
Y291100D01*
X172800Y287700D02*
Y291100D01*
X173800Y293900D02*
X171200D01*
Y297300*
X173800*
Y293900*
X171200Y294600D02*
X173800D01*
X171200Y296000D02*
X173800D01*
X171400Y293900D02*
Y297300D01*
X172800Y293900D02*
Y297300D01*
X173800Y227700D02*
X171200D01*
Y231100*
X173800*
Y227700*
X171200Y228800D02*
X173800D01*
X171200Y230200D02*
X173800D01*
X171400Y227700D02*
Y231100D01*
X172800Y227700D02*
Y231100D01*
X173800Y233900D02*
X171200D01*
Y237300*
X173800*
Y233900*
X171200Y234400D02*
X173800D01*
X171200Y235800D02*
X173800D01*
X171200Y237200D02*
X173800D01*
X171400Y233900D02*
Y237300D01*
X172800Y233900D02*
Y237300D01*
X173800Y167700D02*
X171200D01*
Y171100*
X173800*
Y167700*
X171200Y168600D02*
X173800D01*
X171200Y170000D02*
X173800D01*
X171400Y167700D02*
Y171100D01*
X172800Y167700D02*
Y171100D01*
X173800Y173900D02*
X171200D01*
Y177300*
X173800*
Y173900*
X171200Y174200D02*
X173800D01*
X171200Y175600D02*
X173800D01*
X171200Y177000D02*
X173800D01*
X171400Y173900D02*
Y177300D01*
X172800Y173900D02*
Y177300D01*
X282300Y162200D02*
X279700D01*
Y165600*
X282300*
Y162200*
X279700Y163000D02*
X282300D01*
X279700Y164400D02*
X282300D01*
X280600Y162200D02*
Y165600D01*
X282000Y162200D02*
Y165600D01*
X282300Y168400D02*
X279700D01*
Y171800*
X282300*
Y168400*
X279700Y168600D02*
X282300D01*
X279700Y170000D02*
X282300D01*
X279700Y171400D02*
X282300D01*
X280600Y168400D02*
Y171800D01*
X282000Y168400D02*
Y171800D01*
X296200Y152800D02*
X298800D01*
Y149400*
X296200*
Y152800*
Y150400D02*
X298800D01*
X296200Y151800D02*
X298800D01*
X297400Y149400D02*
Y152800D01*
X298800Y149400D02*
Y152800D01*
X296200Y146600D02*
X298800D01*
Y143200*
X296200*
Y146600*
Y143400D02*
X298800D01*
X296200Y144800D02*
X298800D01*
X296200Y146200D02*
X298800D01*
X297400Y143200D02*
Y146600D01*
X298800Y143200D02*
Y146600D01*
X321800Y116700D02*
X319200D01*
Y120100*
X321800*
Y116700*
X319200Y116800D02*
X321800D01*
X319200Y118200D02*
X321800D01*
X319200Y119600D02*
X321800D01*
X319800Y116700D02*
Y120100D01*
X321200Y116700D02*
Y120100D01*
X321800Y122900D02*
X319200D01*
Y126300*
X321800*
Y122900*
X319200Y123800D02*
X321800D01*
X319200Y125200D02*
X321800D01*
X319800Y122900D02*
Y126300D01*
X321200Y122900D02*
Y126300D01*
X187700Y394200D02*
Y396800D01*
X191100*
Y394200*
X187700*
Y395400D02*
X191100D01*
X187700Y396800D02*
X191100D01*
X188200Y394200D02*
Y396800D01*
X189600Y394200D02*
Y396800D01*
X191000Y394200D02*
Y396800D01*
X193900Y394200D02*
Y396800D01*
X197300*
Y394200*
X193900*
Y395400D02*
X197300D01*
X193900Y396800D02*
X197300D01*
X195200Y394200D02*
Y396800D01*
X196600Y394200D02*
Y396800D01*
X210700Y413200D02*
Y415800D01*
X214100*
Y413200*
X210700*
Y413600D02*
X214100D01*
X210700Y415000D02*
X214100D01*
X212000Y413200D02*
Y415800D01*
X213400Y413200D02*
Y415800D01*
X216900Y413200D02*
Y415800D01*
X220300*
Y413200*
X216900*
Y413600D02*
X220300D01*
X216900Y415000D02*
X220300D01*
X217600Y413200D02*
Y415800D01*
X219000Y413200D02*
Y415800D01*
X210700Y353200D02*
Y355800D01*
X214100*
Y353200*
X210700*
Y353400D02*
X214100D01*
X210700Y354800D02*
X214100D01*
X212000Y353200D02*
Y355800D01*
X213400Y353200D02*
Y355800D01*
X216900Y353200D02*
Y355800D01*
X220300*
Y353200*
X216900*
Y353400D02*
X220300D01*
X216900Y354800D02*
X220300D01*
X217600Y353200D02*
Y355800D01*
X219000Y353200D02*
Y355800D01*
X187700Y334200D02*
Y336800D01*
X191100*
Y334200*
X187700*
Y335200D02*
X191100D01*
X187700Y336600D02*
X191100D01*
X188200Y334200D02*
Y336800D01*
X189600Y334200D02*
Y336800D01*
X191000Y334200D02*
Y336800D01*
X193900Y334200D02*
Y336800D01*
X197300*
Y334200*
X193900*
Y335200D02*
X197300D01*
X193900Y336600D02*
X197300D01*
X195200Y334200D02*
Y336800D01*
X196600Y334200D02*
Y336800D01*
X187700Y274200D02*
Y276800D01*
X191100*
Y274200*
X187700*
Y275000D02*
X191100D01*
X187700Y276400D02*
X191100D01*
X188200Y274200D02*
Y276800D01*
X189600Y274200D02*
Y276800D01*
X191000Y274200D02*
Y276800D01*
X193900Y274200D02*
Y276800D01*
X197300*
Y274200*
X193900*
Y275000D02*
X197300D01*
X193900Y276400D02*
X197300D01*
X195200Y274200D02*
Y276800D01*
X196600Y274200D02*
Y276800D01*
X210700Y293200D02*
Y295800D01*
X214100*
Y293200*
X210700*
X214100*
X210700Y294600D02*
X214100D01*
X212000Y293200D02*
Y295800D01*
X213400Y293200D02*
Y295800D01*
X216900Y293200D02*
Y295800D01*
X220300*
Y293200*
X216900*
X220300*
X216900Y294600D02*
X220300D01*
X217600Y293200D02*
Y295800D01*
X219000Y293200D02*
Y295800D01*
X187700Y214200D02*
Y216800D01*
X191100*
Y214200*
X187700*
Y214800D02*
X191100D01*
X187700Y216200D02*
X191100D01*
X188200Y214200D02*
Y216800D01*
X189600Y214200D02*
Y216800D01*
X191000Y214200D02*
Y216800D01*
X193900Y214200D02*
Y216800D01*
X197300*
Y214200*
X193900*
Y214800D02*
X197300D01*
X193900Y216200D02*
X197300D01*
X195200Y214200D02*
Y216800D01*
X196600Y214200D02*
Y216800D01*
X210700Y233200D02*
Y235800D01*
X214100*
Y233200*
X210700*
Y234400D02*
X214100D01*
X210700Y235800D02*
X214100D01*
X212000Y233200D02*
Y235800D01*
X213400Y233200D02*
Y235800D01*
X216900Y233200D02*
Y235800D01*
X220300*
Y233200*
X216900*
Y234400D02*
X220300D01*
X216900Y235800D02*
X220300D01*
X217600Y233200D02*
Y235800D01*
X219000Y233200D02*
Y235800D01*
X210700Y173200D02*
Y175800D01*
X214100*
Y173200*
X210700*
Y174200D02*
X214100D01*
X210700Y175600D02*
X214100D01*
X212000Y173200D02*
Y175800D01*
X213400Y173200D02*
Y175800D01*
X216900Y173200D02*
Y175800D01*
X220300*
Y173200*
X216900*
Y174200D02*
X220300D01*
X216900Y175600D02*
X220300D01*
X217600Y173200D02*
Y175800D01*
X219000Y173200D02*
Y175800D01*
X187700Y154200D02*
Y156800D01*
X191100*
Y154200*
X187700*
Y154600D02*
X191100D01*
X187700Y156000D02*
X191100D01*
X188200Y154200D02*
Y156800D01*
X189600Y154200D02*
Y156800D01*
X191000Y154200D02*
Y156800D01*
X193900Y154200D02*
Y156800D01*
X197300*
Y154200*
X193900*
Y154600D02*
X197300D01*
X193900Y156000D02*
X197300D01*
X195200Y154200D02*
Y156800D01*
X196600Y154200D02*
Y156800D01*
X210700Y418200D02*
Y420800D01*
X214100*
Y418200*
X210700*
Y419200D02*
X214100D01*
X210700Y420600D02*
X214100D01*
X212000Y418200D02*
Y420800D01*
X213400Y418200D02*
Y420800D01*
X216900Y418200D02*
Y420800D01*
X220300*
Y418200*
X216900*
Y419200D02*
X220300D01*
X216900Y420600D02*
X220300D01*
X217600Y418200D02*
Y420800D01*
X219000Y418200D02*
Y420800D01*
X210700Y358200D02*
Y360800D01*
X214100*
Y358200*
X210700*
Y359000D02*
X214100D01*
X210700Y360400D02*
X214100D01*
X212000Y358200D02*
Y360800D01*
X213400Y358200D02*
Y360800D01*
X216900Y358200D02*
Y360800D01*
X220300*
Y358200*
X216900*
Y359000D02*
X220300D01*
X216900Y360400D02*
X220300D01*
X217600Y358200D02*
Y360800D01*
X219000Y358200D02*
Y360800D01*
X210700Y298200D02*
Y300800D01*
X214100*
Y298200*
X210700*
Y298800D02*
X214100D01*
X210700Y300200D02*
X214100D01*
X212000Y298200D02*
Y300800D01*
X213400Y298200D02*
Y300800D01*
X216900Y298200D02*
Y300800D01*
X220300*
Y298200*
X216900*
Y298800D02*
X220300D01*
X216900Y300200D02*
X220300D01*
X217600Y298200D02*
Y300800D01*
X219000Y298200D02*
Y300800D01*
X210700Y238200D02*
Y240800D01*
X214100*
Y238200*
X210700*
Y238600D02*
X214100D01*
X210700Y240000D02*
X214100D01*
X212000Y238200D02*
Y240800D01*
X213400Y238200D02*
Y240800D01*
X216900Y238200D02*
Y240800D01*
X220300*
Y238200*
X216900*
Y238600D02*
X220300D01*
X216900Y240000D02*
X220300D01*
X217600Y238200D02*
Y240800D01*
X219000Y238200D02*
Y240800D01*
X210700Y178200D02*
Y180800D01*
X214100*
Y178200*
X210700*
Y178400D02*
X214100D01*
X210700Y179800D02*
X214100D01*
X212000Y178200D02*
Y180800D01*
X213400Y178200D02*
Y180800D01*
X216900Y178200D02*
Y180800D01*
X220300*
Y178200*
X216900*
Y178400D02*
X220300D01*
X216900Y179800D02*
X220300D01*
X217600Y178200D02*
Y180800D01*
X219000Y178200D02*
Y180800D01*
X388800Y212200D02*
X386200D01*
Y215600*
X388800*
Y212200*
X386200Y213400D02*
X388800D01*
X386200Y214800D02*
X388800D01*
X387000Y212200D02*
Y215600D01*
X388400Y212200D02*
Y215600D01*
X388800Y218400D02*
X386200D01*
Y221800*
X388800*
Y218400*
X386200Y219000D02*
X388800D01*
X386200Y220400D02*
X388800D01*
X386200Y221800D02*
X388800D01*
X387000Y218400D02*
Y221800D01*
X388400Y218400D02*
Y221800D01*
X469300Y193800D02*
Y191200D01*
X465900*
Y193800*
X469300*
X465900Y192400D02*
X469300D01*
X465900Y193800D02*
X469300D01*
X466800Y191200D02*
Y193800D01*
X468200Y191200D02*
Y193800D01*
X463100D02*
Y191200D01*
X459700*
Y193800*
X463100*
X459700Y192400D02*
X463100D01*
X459700Y193800D02*
X463100D01*
X459800Y191200D02*
Y193800D01*
X461200Y191200D02*
Y193800D01*
X462600Y191200D02*
Y193800D01*
X388300Y266800D02*
Y264200D01*
X384900*
Y266800*
X388300*
X384900Y265200D02*
X388300D01*
X384900Y266600D02*
X388300D01*
X385600Y264200D02*
Y266800D01*
X387000Y264200D02*
Y266800D01*
X382100D02*
Y264200D01*
X378700*
Y266800*
X382100*
X378700Y265200D02*
X382100D01*
X378700Y266600D02*
X382100D01*
X380000Y264200D02*
Y266800D01*
X381400Y264200D02*
Y266800D01*
X388300Y261800D02*
Y259200D01*
X384900*
Y261800*
X388300*
X384900Y259600D02*
X388300D01*
X384900Y261000D02*
X388300D01*
X385600Y259200D02*
Y261800D01*
X387000Y259200D02*
Y261800D01*
X382100D02*
Y259200D01*
X378700*
Y261800*
X382100*
X378700Y259600D02*
X382100D01*
X378700Y261000D02*
X382100D01*
X380000Y259200D02*
Y261800D01*
X381400Y259200D02*
Y261800D01*
X469300Y183800D02*
Y181200D01*
X465900*
Y183800*
X469300*
X465900Y181200D02*
X469300D01*
X465900Y182600D02*
X469300D01*
X466800Y181200D02*
Y183800D01*
X468200Y181200D02*
Y183800D01*
X463100D02*
Y181200D01*
X459700*
Y183800*
X463100*
X459700Y181200D02*
X463100D01*
X459700Y182600D02*
X463100D01*
X459800Y181200D02*
Y183800D01*
X461200Y181200D02*
Y183800D01*
X462600Y181200D02*
Y183800D01*
X388300Y278800D02*
Y276200D01*
X384900*
Y278800*
X388300*
X384900Y276400D02*
X388300D01*
X384900Y277800D02*
X388300D01*
X385600Y276200D02*
Y278800D01*
X387000Y276200D02*
Y278800D01*
X382100D02*
Y276200D01*
X378700*
Y278800*
X382100*
X378700Y276400D02*
X382100D01*
X378700Y277800D02*
X382100D01*
X380000Y276200D02*
Y278800D01*
X381400Y276200D02*
Y278800D01*
X388300Y273800D02*
Y271200D01*
X384900*
Y273800*
X388300*
X384900Y272200D02*
X388300D01*
X384900Y273600D02*
X388300D01*
X385600Y271200D02*
Y273800D01*
X387000Y271200D02*
Y273800D01*
X382100D02*
Y271200D01*
X378700*
Y273800*
X382100*
X378700Y272200D02*
X382100D01*
X378700Y273600D02*
X382100D01*
X380000Y271200D02*
Y273800D01*
X381400Y271200D02*
Y273800D01*
X424200Y236200D02*
Y238800D01*
X427600*
Y236200*
X424200*
Y237200D02*
X427600D01*
X424200Y238600D02*
X427600D01*
X424800Y236200D02*
Y238800D01*
X426200Y236200D02*
Y238800D01*
X427600Y236200D02*
Y238800D01*
X430400Y236200D02*
Y238800D01*
X433800*
Y236200*
X430400*
Y237200D02*
X433800D01*
X430400Y238600D02*
X433800D01*
X430400Y236200D02*
Y238800D01*
X431800Y236200D02*
Y238800D01*
X433200Y236200D02*
Y238800D01*
X388800Y228800D02*
Y226200D01*
X385400*
Y228800*
X388800*
X385400Y227400D02*
X388800D01*
X385400Y228800D02*
X388800D01*
X385600Y226200D02*
Y228800D01*
X387000Y226200D02*
Y228800D01*
X388400Y226200D02*
Y228800D01*
X382600D02*
Y226200D01*
X379200*
Y228800*
X382600*
X379200Y227400D02*
X382600D01*
X379200Y228800D02*
X382600D01*
X380000Y226200D02*
Y228800D01*
X381400Y226200D02*
Y228800D01*
X388300Y251800D02*
Y249200D01*
X384900*
Y251800*
X388300*
X384900Y249800D02*
X388300D01*
X384900Y251200D02*
X388300D01*
X385600Y249200D02*
Y251800D01*
X387000Y249200D02*
Y251800D01*
X382100D02*
Y249200D01*
X378700*
Y251800*
X382100*
X378700Y249800D02*
X382100D01*
X378700Y251200D02*
X382100D01*
X380000Y249200D02*
Y251800D01*
X381400Y249200D02*
Y251800D01*
X424200Y259200D02*
Y261800D01*
X427600*
Y259200*
X424200*
Y259600D02*
X427600D01*
X424200Y261000D02*
X427600D01*
X424800Y259200D02*
Y261800D01*
X426200Y259200D02*
Y261800D01*
X427600Y259200D02*
Y261800D01*
X430400Y259200D02*
Y261800D01*
X433800*
Y259200*
X430400*
Y259600D02*
X433800D01*
X430400Y261000D02*
X433800D01*
X430400Y259200D02*
Y261800D01*
X431800Y259200D02*
Y261800D01*
X433200Y259200D02*
Y261800D01*
X502200Y205200D02*
Y207800D01*
X505600*
Y205200*
X502200*
Y206400D02*
X505600D01*
X502200Y207800D02*
X505600D01*
X503200Y205200D02*
Y207800D01*
X504600Y205200D02*
Y207800D01*
X508400Y205200D02*
Y207800D01*
X511800*
Y205200*
X508400*
Y206400D02*
X511800D01*
X508400Y207800D02*
X511800D01*
X508800Y205200D02*
Y207800D01*
X510200Y205200D02*
Y207800D01*
X511600Y205200D02*
Y207800D01*
X338300Y204300D02*
Y201700D01*
X334900*
Y204300*
X338300*
X334900Y202200D02*
X338300D01*
X334900Y203600D02*
X338300D01*
X335200Y201700D02*
Y204300D01*
X336600Y201700D02*
Y204300D01*
X338000Y201700D02*
Y204300D01*
X332100D02*
Y201700D01*
X328700*
Y204300*
X332100*
X328700Y202200D02*
X332100D01*
X328700Y203600D02*
X332100D01*
X329600Y201700D02*
Y204300D01*
X331000Y201700D02*
Y204300D01*
X371800Y152700D02*
X369200D01*
Y156100*
X371800*
Y152700*
X369200Y153200D02*
X371800D01*
X369200Y154600D02*
X371800D01*
X369200Y156000D02*
X371800D01*
X370200Y152700D02*
Y156100D01*
X371600Y152700D02*
Y156100D01*
X371800Y158900D02*
X369200D01*
Y162300*
X371800*
Y158900*
X369200Y160200D02*
X371800D01*
X369200Y161600D02*
X371800D01*
X370200Y158900D02*
Y162300D01*
X371600Y158900D02*
Y162300D01*
X361800Y152700D02*
X359200D01*
Y156100*
X361800*
Y152700*
X359200Y153200D02*
X361800D01*
X359200Y154600D02*
X361800D01*
X359200Y156000D02*
X361800D01*
X360400Y152700D02*
Y156100D01*
X361800Y152700D02*
Y156100D01*
Y158900D02*
X359200D01*
Y162300*
X361800*
Y158900*
X359200Y160200D02*
X361800D01*
X359200Y161600D02*
X361800D01*
X360400Y158900D02*
Y162300D01*
X361800Y158900D02*
Y162300D01*
X331200Y224200D02*
Y226800D01*
X334600*
Y224200*
X331200*
Y224600D02*
X334600D01*
X331200Y226000D02*
X334600D01*
X332400Y224200D02*
Y226800D01*
X333800Y224200D02*
Y226800D01*
X337400Y224200D02*
Y226800D01*
X340800*
Y224200*
X337400*
Y224600D02*
X340800D01*
X337400Y226000D02*
X340800D01*
X338000Y224200D02*
Y226800D01*
X339400Y224200D02*
Y226800D01*
X340800Y224200D02*
Y226800D01*
X331200Y217200D02*
Y219800D01*
X334600*
Y217200*
X331200*
Y217600D02*
X334600D01*
X331200Y219000D02*
X334600D01*
X332400Y217200D02*
Y219800D01*
X333800Y217200D02*
Y219800D01*
X337400Y217200D02*
Y219800D01*
X340800*
Y217200*
X337400*
Y217600D02*
X340800D01*
X337400Y219000D02*
X340800D01*
X338000Y217200D02*
Y219800D01*
X339400Y217200D02*
Y219800D01*
X340800Y217200D02*
Y219800D01*
X284800Y244800D02*
Y242200D01*
X281400*
Y244800*
X284800*
X281400Y242800D02*
X284800D01*
X281400Y244200D02*
X284800D01*
X282000Y242200D02*
Y244800D01*
X283400Y242200D02*
Y244800D01*
X284800Y242200D02*
Y244800D01*
X278600D02*
Y242200D01*
X275200*
Y244800*
X278600*
X275200Y242800D02*
X278600D01*
X275200Y244200D02*
X278600D01*
X276400Y242200D02*
Y244800D01*
X277800Y242200D02*
Y244800D01*
X381300Y109200D02*
X378700D01*
Y112600*
X381300*
Y109200*
X378700Y109800D02*
X381300D01*
X378700Y111200D02*
X381300D01*
X378700Y112600D02*
X381300D01*
X380000Y109200D02*
Y112600D01*
X381300Y115400D02*
X378700D01*
Y118800*
X381300*
Y115400*
X378700D02*
X381300D01*
X378700Y116800D02*
X381300D01*
X378700Y118200D02*
X381300D01*
X380000Y115400D02*
Y118800D01*
X210700Y183200D02*
Y185800D01*
X214100*
Y183200*
X210700*
Y184000D02*
X214100D01*
X210700Y185400D02*
X214100D01*
X212000Y183200D02*
Y185800D01*
X213400Y183200D02*
Y185800D01*
X216900Y183200D02*
Y185800D01*
X220300*
Y183200*
X216900*
Y184000D02*
X220300D01*
X216900Y185400D02*
X220300D01*
X217600Y183200D02*
Y185800D01*
X219000Y183200D02*
Y185800D01*
X433800Y233800D02*
Y231200D01*
X430400*
Y233800*
X433800*
X430400Y231600D02*
X433800D01*
X430400Y233000D02*
X433800D01*
X430400Y231200D02*
Y233800D01*
X431800Y231200D02*
Y233800D01*
X433200Y231200D02*
Y233800D01*
X427600D02*
Y231200D01*
X424200*
Y233800*
X427600*
X424200Y231600D02*
X427600D01*
X424200Y233000D02*
X427600D01*
X424800Y231200D02*
Y233800D01*
X426200Y231200D02*
Y233800D01*
X427600Y231200D02*
Y233800D01*
X402200Y309700D02*
Y312300D01*
X405600*
Y309700*
X402200*
Y310000D02*
X405600D01*
X402200Y311400D02*
X405600D01*
X402400Y309700D02*
Y312300D01*
X403800Y309700D02*
Y312300D01*
X405200Y309700D02*
Y312300D01*
X408400Y309700D02*
Y312300D01*
X411800*
Y309700*
X408400*
Y310000D02*
X411800D01*
X408400Y311400D02*
X411800D01*
X409400Y309700D02*
Y312300D01*
X410800Y309700D02*
Y312300D01*
X375800D02*
Y309700D01*
X372400*
Y312300*
X375800*
X372400Y310000D02*
X375800D01*
X372400Y311400D02*
X375800D01*
X373000Y309700D02*
Y312300D01*
X374400Y309700D02*
Y312300D01*
X375800Y309700D02*
Y312300D01*
X369600D02*
Y309700D01*
X366200*
Y312300*
X369600*
X366200Y310000D02*
X369600D01*
X366200Y311400D02*
X369600D01*
X367400Y309700D02*
Y312300D01*
X368800Y309700D02*
Y312300D01*
X365700Y282700D02*
Y285300D01*
X369100*
Y282700*
X365700*
Y283400D02*
X369100D01*
X365700Y284800D02*
X369100D01*
X366000Y282700D02*
Y285300D01*
X367400Y282700D02*
Y285300D01*
X368800Y282700D02*
Y285300D01*
X371900Y282700D02*
Y285300D01*
X375300*
Y282700*
X371900*
Y283400D02*
X375300D01*
X371900Y284800D02*
X375300D01*
X373000Y282700D02*
Y285300D01*
X374400Y282700D02*
Y285300D01*
X434200Y170700D02*
Y173300D01*
X437600*
Y170700*
X434200*
Y171400D02*
X437600D01*
X434200Y172800D02*
X437600D01*
X434600Y170700D02*
Y173300D01*
X436000Y170700D02*
Y173300D01*
X437400Y170700D02*
Y173300D01*
X440400Y170700D02*
Y173300D01*
X443800*
Y170700*
X440400*
Y171400D02*
X443800D01*
X440400Y172800D02*
X443800D01*
X441600Y170700D02*
Y173300D01*
X443000Y170700D02*
Y173300D01*
X434200Y137200D02*
Y139800D01*
X437600*
Y137200*
X434200*
Y137800D02*
X437600D01*
X434200Y139200D02*
X437600D01*
X434600Y137200D02*
Y139800D01*
X436000Y137200D02*
Y139800D01*
X437400Y137200D02*
Y139800D01*
X440400Y137200D02*
Y139800D01*
X443800*
Y137200*
X440400*
Y137800D02*
X443800D01*
X440400Y139200D02*
X443800D01*
X441600Y137200D02*
Y139800D01*
X443000Y137200D02*
Y139800D01*
X397800Y143300D02*
Y140700D01*
X394400*
Y143300*
X397800*
X394400Y142000D02*
X397800D01*
X395400Y140700D02*
Y143300D01*
X396800Y140700D02*
Y143300D01*
X391600D02*
Y140700D01*
X388200*
Y143300*
X391600*
X388200Y142000D02*
X391600D01*
X388400Y140700D02*
Y143300D01*
X389800Y140700D02*
Y143300D01*
X391200Y140700D02*
Y143300D01*
X397800Y138300D02*
Y135700D01*
X394400*
Y138300*
X397800*
X394400Y136400D02*
X397800D01*
X394400Y137800D02*
X397800D01*
X395400Y135700D02*
Y138300D01*
X396800Y135700D02*
Y138300D01*
X391600D02*
Y135700D01*
X388200*
Y138300*
X391600*
X388200Y136400D02*
X391600D01*
X388200Y137800D02*
X391600D01*
X388400Y135700D02*
Y138300D01*
X389800Y135700D02*
Y138300D01*
X391200Y135700D02*
Y138300D01*
X397800Y133300D02*
Y130700D01*
X394400*
Y133300*
X397800*
X394400Y130800D02*
X397800D01*
X394400Y132200D02*
X397800D01*
X395400Y130700D02*
Y133300D01*
X396800Y130700D02*
Y133300D01*
X391600D02*
Y130700D01*
X388200*
Y133300*
X391600*
X388200Y130800D02*
X391600D01*
X388200Y132200D02*
X391600D01*
X388400Y130700D02*
Y133300D01*
X389800Y130700D02*
Y133300D01*
X391200Y130700D02*
Y133300D01*
X386800Y167800D02*
Y165200D01*
X383400*
Y167800*
X386800*
X383400Y165800D02*
X386800D01*
X383400Y167200D02*
X386800D01*
X384200Y165200D02*
Y167800D01*
X385600Y165200D02*
Y167800D01*
X380600D02*
Y165200D01*
X377200*
Y167800*
X380600*
X377200Y165800D02*
X380600D01*
X377200Y167200D02*
X380600D01*
X377200Y165200D02*
Y167800D01*
X378600Y165200D02*
Y167800D01*
X380000Y165200D02*
Y167800D01*
X150700Y411300D02*
X153300D01*
Y407900*
X150700*
Y411300*
Y408000D02*
X153300D01*
X150700Y409400D02*
X153300D01*
X150700Y410800D02*
X153300D01*
X151800Y407900D02*
Y411300D01*
X153200Y407900D02*
Y411300D01*
X150700Y405100D02*
X153300D01*
Y401700*
X150700*
Y405100*
Y402400D02*
X153300D01*
X150700Y403800D02*
X153300D01*
X151800Y401700D02*
Y405100D01*
X153200Y401700D02*
Y405100D01*
X150700Y351300D02*
X153300D01*
Y347900*
X150700*
Y351300*
Y349200D02*
X153300D01*
X150700Y350600D02*
X153300D01*
X151800Y347900D02*
Y351300D01*
X153200Y347900D02*
Y351300D01*
X150700Y345100D02*
X153300D01*
Y341700*
X150700*
Y345100*
Y342200D02*
X153300D01*
X150700Y343600D02*
X153300D01*
X150700Y345000D02*
X153300D01*
X151800Y341700D02*
Y345100D01*
X153200Y341700D02*
Y345100D01*
X150700Y291300D02*
X153300D01*
Y287900*
X150700*
Y291300*
Y289000D02*
X153300D01*
X150700Y290400D02*
X153300D01*
X151800Y287900D02*
Y291300D01*
X153200Y287900D02*
Y291300D01*
X150700Y285100D02*
X153300D01*
Y281700*
X150700*
Y285100*
Y282000D02*
X153300D01*
X150700Y283400D02*
X153300D01*
X150700Y284800D02*
X153300D01*
X151800Y281700D02*
Y285100D01*
X153200Y281700D02*
Y285100D01*
X150700Y231300D02*
X153300D01*
Y227900*
X150700*
Y231300*
Y228800D02*
X153300D01*
X150700Y230200D02*
X153300D01*
X151800Y227900D02*
Y231300D01*
X153200Y227900D02*
Y231300D01*
X150700Y225100D02*
X153300D01*
Y221700*
X150700*
Y225100*
Y221800D02*
X153300D01*
X150700Y223200D02*
X153300D01*
X150700Y224600D02*
X153300D01*
X151800Y221700D02*
Y225100D01*
X153200Y221700D02*
Y225100D01*
X150700Y171300D02*
X153300D01*
Y167900*
X150700*
Y171300*
Y168600D02*
X153300D01*
X150700Y170000D02*
X153300D01*
X151800Y167900D02*
Y171300D01*
X153200Y167900D02*
Y171300D01*
X150700Y165100D02*
X153300D01*
Y161700*
X150700*
Y165100*
Y163000D02*
X153300D01*
X150700Y164400D02*
X153300D01*
X151800Y161700D02*
Y165100D01*
X153200Y161700D02*
Y165100D01*
X118200Y271800D02*
X120800D01*
Y268400*
X118200*
Y271800*
Y269400D02*
X120800D01*
X118200Y270800D02*
X120800D01*
X118200Y268400D02*
Y271800D01*
X119600Y268400D02*
Y271800D01*
X118200Y265600D02*
X120800D01*
Y262200*
X118200*
Y265600*
Y262400D02*
X120800D01*
X118200Y263800D02*
X120800D01*
X118200Y265200D02*
X120800D01*
X118200Y262200D02*
Y265600D01*
X119600Y262200D02*
Y265600D01*
X118200Y391800D02*
X120800D01*
Y388400*
X118200*
Y391800*
Y388400D02*
X120800D01*
X118200Y389800D02*
X120800D01*
X118200Y391200D02*
X120800D01*
X118200Y388400D02*
Y391800D01*
X119600Y388400D02*
Y391800D01*
X118200Y385600D02*
X120800D01*
Y382200*
X118200*
Y385600*
Y382800D02*
X120800D01*
X118200Y384200D02*
X120800D01*
X118200Y385600D02*
X120800D01*
X118200Y382200D02*
Y385600D01*
X119600Y382200D02*
Y385600D01*
X118200Y211800D02*
X120800D01*
Y208400*
X118200*
Y211800*
Y209200D02*
X120800D01*
X118200Y210600D02*
X120800D01*
X118200Y208400D02*
Y211800D01*
X119600Y208400D02*
Y211800D01*
X118200Y205600D02*
X120800D01*
Y202200*
X118200*
Y205600*
Y202200D02*
X120800D01*
X118200Y203600D02*
X120800D01*
X118200Y205000D02*
X120800D01*
X118200Y202200D02*
Y205600D01*
X119600Y202200D02*
Y205600D01*
X118200Y151800D02*
X120800D01*
Y148400*
X118200*
Y151800*
Y149000D02*
X120800D01*
X118200Y150400D02*
X120800D01*
X118200Y151800D02*
X120800D01*
X118200Y148400D02*
Y151800D01*
X119600Y148400D02*
Y151800D01*
X118200Y145600D02*
X120800D01*
Y142200*
X118200*
Y145600*
Y143400D02*
X120800D01*
X118200Y144800D02*
X120800D01*
X118200Y142200D02*
Y145600D01*
X119600Y142200D02*
Y145600D01*
X118200Y331800D02*
X120800D01*
Y328400*
X118200*
Y331800*
Y329600D02*
X120800D01*
X118200Y331000D02*
X120800D01*
X118200Y328400D02*
Y331800D01*
X119600Y328400D02*
Y331800D01*
X118200Y325600D02*
X120800D01*
Y322200*
X118200*
Y325600*
Y322600D02*
X120800D01*
X118200Y324000D02*
X120800D01*
X118200Y325400D02*
X120800D01*
X118200Y322200D02*
Y325600D01*
X119600Y322200D02*
Y325600D01*
X386800Y162800D02*
Y160200D01*
X383400*
Y162800*
X386800*
X383400Y160200D02*
X386800D01*
X383400Y161600D02*
X386800D01*
X384200Y160200D02*
Y162800D01*
X385600Y160200D02*
Y162800D01*
X380600D02*
Y160200D01*
X377200*
Y162800*
X380600*
X377200Y160200D02*
X380600D01*
X377200Y161600D02*
X380600D01*
X377200Y160200D02*
Y162800D01*
X378600Y160200D02*
Y162800D01*
X380000Y160200D02*
Y162800D01*
X386800Y157800D02*
Y155200D01*
X383400*
Y157800*
X386800*
X383400Y156000D02*
X386800D01*
X383400Y157400D02*
X386800D01*
X384200Y155200D02*
Y157800D01*
X385600Y155200D02*
Y157800D01*
X380600D02*
Y155200D01*
X377200*
Y157800*
X380600*
X377200Y156000D02*
X380600D01*
X377200Y157400D02*
X380600D01*
X377200Y155200D02*
Y157800D01*
X378600Y155200D02*
Y157800D01*
X380000Y155200D02*
Y157800D01*
X291300Y301200D02*
X288700D01*
Y304600*
X291300*
Y301200*
X288700Y301600D02*
X291300D01*
X288700Y303000D02*
X291300D01*
X288700Y304400D02*
X291300D01*
X289000Y301200D02*
Y304600D01*
X290400Y301200D02*
Y304600D01*
X291300Y307400D02*
X288700D01*
Y310800*
X291300*
Y307400*
X288700Y308600D02*
X291300D01*
X288700Y310000D02*
X291300D01*
X289000Y307400D02*
Y310800D01*
X290400Y307400D02*
Y310800D01*
X356800Y365800D02*
Y363200D01*
X353400*
Y365800*
X356800*
X353400Y363200D02*
X356800D01*
X353400Y364600D02*
X356800D01*
X353400Y363200D02*
Y365800D01*
X354800Y363200D02*
Y365800D01*
X356200Y363200D02*
Y365800D01*
X350600D02*
Y363200D01*
X347200*
Y365800*
X350600*
X347200Y363200D02*
X350600D01*
X347200Y364600D02*
X350600D01*
X347800Y363200D02*
Y365800D01*
X349200Y363200D02*
Y365800D01*
X350600Y363200D02*
Y365800D01*
X356800Y340800D02*
Y338200D01*
X353400*
Y340800*
X356800*
X353400Y339400D02*
X356800D01*
X353400Y340800D02*
X356800D01*
X353400Y338200D02*
Y340800D01*
X354800Y338200D02*
Y340800D01*
X356200Y338200D02*
Y340800D01*
X350600D02*
Y338200D01*
X347200*
Y340800*
X350600*
X347200Y339400D02*
X350600D01*
X347200Y340800D02*
X350600D01*
X347800Y338200D02*
Y340800D01*
X349200Y338200D02*
Y340800D01*
X350600Y338200D02*
Y340800D01*
X320200Y310800D02*
X322800D01*
Y307400*
X320200*
Y310800*
Y308600D02*
X322800D01*
X320200Y310000D02*
X322800D01*
X321200Y307400D02*
Y310800D01*
X322600Y307400D02*
Y310800D01*
X320200Y304600D02*
X322800D01*
Y301200*
X320200*
Y304600*
Y301600D02*
X322800D01*
X320200Y303000D02*
X322800D01*
X320200Y304400D02*
X322800D01*
X321200Y301200D02*
Y304600D01*
X322600Y301200D02*
Y304600D01*
X267800Y350300D02*
Y347700D01*
X264400*
Y350300*
X267800*
X264400Y347800D02*
X267800D01*
X264400Y349200D02*
X267800D01*
X265200Y347700D02*
Y350300D01*
X266600Y347700D02*
Y350300D01*
X261600D02*
Y347700D01*
X258200*
Y350300*
X261600*
X258200Y347800D02*
X261600D01*
X258200Y349200D02*
X261600D01*
X258200Y347700D02*
Y350300D01*
X259600Y347700D02*
Y350300D01*
X261000Y347700D02*
Y350300D01*
X314200Y209300D02*
X316800D01*
Y205900*
X314200*
Y209300*
Y206400D02*
X316800D01*
X314200Y207800D02*
X316800D01*
X314200Y209200D02*
X316800D01*
X314200Y205900D02*
Y209300D01*
X315600Y205900D02*
Y209300D01*
X314200Y203100D02*
X316800D01*
Y199700*
X314200*
Y203100*
Y200800D02*
X316800D01*
X314200Y202200D02*
X316800D01*
X314200Y199700D02*
Y203100D01*
X315600Y199700D02*
Y203100D01*
X279700Y157800D02*
X282300D01*
Y154400*
X279700*
Y157800*
Y154600D02*
X282300D01*
X279700Y156000D02*
X282300D01*
X279700Y157400D02*
X282300D01*
X280600Y154400D02*
Y157800D01*
X282000Y154400D02*
Y157800D01*
X279700Y151600D02*
X282300D01*
Y148200*
X279700*
Y151600*
Y149000D02*
X282300D01*
X279700Y150400D02*
X282300D01*
X280600Y148200D02*
Y151600D01*
X282000Y148200D02*
Y151600D01*
X288300Y390200D02*
X285700D01*
Y393600*
X288300*
Y390200*
X285700Y391200D02*
X288300D01*
X285700Y392600D02*
X288300D01*
X286200Y390200D02*
Y393600D01*
X287600Y390200D02*
Y393600D01*
X288300Y396400D02*
X285700D01*
Y399800*
X288300*
Y396400*
X285700Y396800D02*
X288300D01*
X285700Y398200D02*
X288300D01*
X285700Y399600D02*
X288300D01*
X286200Y396400D02*
Y399800D01*
X287600Y396400D02*
Y399800D01*
X326800Y252700D02*
X324200D01*
Y256100*
X326800*
Y252700*
X324200Y254000D02*
X326800D01*
X324200Y255400D02*
X326800D01*
X325400Y252700D02*
Y256100D01*
X326800Y252700D02*
Y256100D01*
Y258900D02*
X324200D01*
Y262300*
X326800*
Y258900*
X324200Y259600D02*
X326800D01*
X324200Y261000D02*
X326800D01*
X325400Y258900D02*
Y262300D01*
X326800Y258900D02*
Y262300D01*
X321800Y252700D02*
X319200D01*
Y256100*
X321800*
Y252700*
X319200Y254000D02*
X321800D01*
X319200Y255400D02*
X321800D01*
X319800Y252700D02*
Y256100D01*
X321200Y252700D02*
Y256100D01*
X321800Y258900D02*
X319200D01*
Y262300*
X321800*
Y258900*
X319200Y259600D02*
X321800D01*
X319200Y261000D02*
X321800D01*
X319800Y258900D02*
Y262300D01*
X321200Y258900D02*
Y262300D01*
X316800Y252700D02*
X314200D01*
Y256100*
X316800*
Y252700*
X314200Y254000D02*
X316800D01*
X314200Y255400D02*
X316800D01*
X314200Y252700D02*
Y256100D01*
X315600Y252700D02*
Y256100D01*
X316800Y258900D02*
X314200D01*
Y262300*
X316800*
Y258900*
X314200Y259600D02*
X316800D01*
X314200Y261000D02*
X316800D01*
X314200Y258900D02*
Y262300D01*
X315600Y258900D02*
Y262300D01*
X368200Y375700D02*
Y378300D01*
X371600*
Y375700*
X368200*
Y375800D02*
X371600D01*
X368200Y377200D02*
X371600D01*
X368800Y375700D02*
Y378300D01*
X370200Y375700D02*
Y378300D01*
X371600Y375700D02*
Y378300D01*
X374400Y375700D02*
Y378300D01*
X377800*
Y375700*
X374400*
Y375800D02*
X377800D01*
X374400Y377200D02*
X377800D01*
X374400Y375700D02*
Y378300D01*
X375800Y375700D02*
Y378300D01*
X377200Y375700D02*
Y378300D01*
X396800D02*
Y375700D01*
X393400*
Y378300*
X396800*
X393400Y375800D02*
X396800D01*
X393400Y377200D02*
X396800D01*
X394000Y375700D02*
Y378300D01*
X395400Y375700D02*
Y378300D01*
X396800Y375700D02*
Y378300D01*
X390600D02*
Y375700D01*
X387200*
Y378300*
X390600*
X387200Y375800D02*
X390600D01*
X387200Y377200D02*
X390600D01*
X388400Y375700D02*
Y378300D01*
X389800Y375700D02*
Y378300D01*
X356800Y346800D02*
Y344200D01*
X353400*
Y346800*
X356800*
X353400Y345000D02*
X356800D01*
X353400Y346400D02*
X356800D01*
X353400Y344200D02*
Y346800D01*
X354800Y344200D02*
Y346800D01*
X356200Y344200D02*
Y346800D01*
X350600D02*
Y344200D01*
X347200*
Y346800*
X350600*
X347200Y345000D02*
X350600D01*
X347200Y346400D02*
X350600D01*
X347800Y344200D02*
Y346800D01*
X349200Y344200D02*
Y346800D01*
X350600Y344200D02*
Y346800D01*
X360800Y233800D02*
Y231200D01*
X357400*
Y233800*
X360800*
X357400Y231600D02*
X360800D01*
X357400Y233000D02*
X360800D01*
X357600Y231200D02*
Y233800D01*
X359000Y231200D02*
Y233800D01*
X360400Y231200D02*
Y233800D01*
X354600D02*
Y231200D01*
X351200*
Y233800*
X354600*
X351200Y231600D02*
X354600D01*
X351200Y233000D02*
X354600D01*
X352000Y231200D02*
Y233800D01*
X353400Y231200D02*
Y233800D01*
X364700Y234300D02*
X367300D01*
Y230900*
X364700*
Y234300*
Y231600D02*
X367300D01*
X364700Y233000D02*
X367300D01*
X366000Y230900D02*
Y234300D01*
X364700Y228100D02*
X367300D01*
Y224700*
X364700*
Y228100*
Y226000D02*
X367300D01*
X364700Y227400D02*
X367300D01*
X366000Y224700D02*
Y228100D01*
X242300Y162200D02*
X239700D01*
Y165600*
X242300*
Y162200*
X239700Y163000D02*
X242300D01*
X239700Y164400D02*
X242300D01*
X240000Y162200D02*
Y165600D01*
X241400Y162200D02*
Y165600D01*
X242300Y168400D02*
X239700D01*
Y171800*
X242300*
Y168400*
X239700Y168600D02*
X242300D01*
X239700Y170000D02*
X242300D01*
X239700Y171400D02*
X242300D01*
X240000Y168400D02*
Y171800D01*
X241400Y168400D02*
Y171800D01*
X239700Y157800D02*
X242300D01*
Y154400*
X239700*
Y157800*
Y154600D02*
X242300D01*
X239700Y156000D02*
X242300D01*
X239700Y157400D02*
X242300D01*
X240000Y154400D02*
Y157800D01*
X241400Y154400D02*
Y157800D01*
X239700Y151600D02*
X242300D01*
Y148200*
X239700*
Y151600*
Y149000D02*
X242300D01*
X239700Y150400D02*
X242300D01*
X240000Y148200D02*
Y151600D01*
X241400Y148200D02*
Y151600D01*
X262300Y162200D02*
X259700D01*
Y165600*
X262300*
Y162200*
X259700Y163000D02*
X262300D01*
X259700Y164400D02*
X262300D01*
X261000Y162200D02*
Y165600D01*
X262300Y168400D02*
X259700D01*
Y171800*
X262300*
Y168400*
X259700Y168600D02*
X262300D01*
X259700Y170000D02*
X262300D01*
X259700Y171400D02*
X262300D01*
X261000Y168400D02*
Y171800D01*
X374300Y224700D02*
X371700D01*
Y228100*
X374300*
Y224700*
X371700Y226000D02*
X374300D01*
X371700Y227400D02*
X374300D01*
X373000Y224700D02*
Y228100D01*
X374300Y230900D02*
X371700D01*
Y234300*
X374300*
Y230900*
X371700Y231600D02*
X374300D01*
X371700Y233000D02*
X374300D01*
X373000Y230900D02*
Y234300D01*
X379200Y231200D02*
Y233800D01*
X382600*
Y231200*
X379200*
Y231600D02*
X382600D01*
X379200Y233000D02*
X382600D01*
X380000Y231200D02*
Y233800D01*
X381400Y231200D02*
Y233800D01*
X385400Y231200D02*
Y233800D01*
X388800*
Y231200*
X385400*
Y231600D02*
X388800D01*
X385400Y233000D02*
X388800D01*
X385600Y231200D02*
Y233800D01*
X387000Y231200D02*
Y233800D01*
X388400Y231200D02*
Y233800D01*
X259700Y157800D02*
X262300D01*
Y154400*
X259700*
Y157800*
Y154600D02*
X262300D01*
X259700Y156000D02*
X262300D01*
X259700Y157400D02*
X262300D01*
X261000Y154400D02*
Y157800D01*
X259700Y151600D02*
X262300D01*
Y148200*
X259700*
Y151600*
Y149000D02*
X262300D01*
X259700Y150400D02*
X262300D01*
X261000Y148200D02*
Y151600D01*
X433800Y210800D02*
Y208200D01*
X430400*
Y210800*
X433800*
X430400Y209200D02*
X433800D01*
X430400Y210600D02*
X433800D01*
X430400Y208200D02*
Y210800D01*
X431800Y208200D02*
Y210800D01*
X433200Y208200D02*
Y210800D01*
X427600D02*
Y208200D01*
X424200*
Y210800*
X427600*
X424200Y209200D02*
X427600D01*
X424200Y210600D02*
X427600D01*
X424800Y208200D02*
Y210800D01*
X426200Y208200D02*
Y210800D01*
X427600Y208200D02*
Y210800D01*
X340800Y233800D02*
Y231200D01*
X337400*
Y233800*
X340800*
X337400Y231600D02*
X340800D01*
X337400Y233000D02*
X340800D01*
X338000Y231200D02*
Y233800D01*
X339400Y231200D02*
Y233800D01*
X340800Y231200D02*
Y233800D01*
X334600D02*
Y231200D01*
X331200*
Y233800*
X334600*
X331200Y231600D02*
X334600D01*
X331200Y233000D02*
X334600D01*
X332400Y231200D02*
Y233800D01*
X333800Y231200D02*
Y233800D01*
X344700Y234300D02*
X347300D01*
Y230900*
X344700*
Y234300*
Y231600D02*
X347300D01*
X344700Y233000D02*
X347300D01*
X345000Y230900D02*
Y234300D01*
X346400Y230900D02*
Y234300D01*
X344700Y228100D02*
X347300D01*
Y224700*
X344700*
Y228100*
Y226000D02*
X347300D01*
X344700Y227400D02*
X347300D01*
X345000Y224700D02*
Y228100D01*
X346400Y224700D02*
Y228100D01*
X503700Y427800D02*
X506300D01*
Y424400*
X503700*
Y427800*
Y424800D02*
X506300D01*
X503700Y426200D02*
X506300D01*
X503700Y427600D02*
X506300D01*
X504600Y424400D02*
Y427800D01*
X506000Y424400D02*
Y427800D01*
X503700Y421600D02*
X506300D01*
Y418200*
X503700*
Y421600*
Y419200D02*
X506300D01*
X503700Y420600D02*
X506300D01*
X504600Y418200D02*
Y421600D01*
X506000Y418200D02*
Y421600D01*
X432300Y433700D02*
X429700D01*
Y437100*
X432300*
Y433700*
X429700Y434600D02*
X432300D01*
X429700Y436000D02*
X432300D01*
X430400Y433700D02*
Y437100D01*
X431800Y433700D02*
Y437100D01*
X432300Y439900D02*
X429700D01*
Y443300*
X432300*
Y439900*
X429700Y440200D02*
X432300D01*
X429700Y441600D02*
X432300D01*
X429700Y443000D02*
X432300D01*
X430400Y439900D02*
Y443300D01*
X431800Y439900D02*
Y443300D01*
X437300Y433700D02*
X434700D01*
Y437100*
X437300*
Y433700*
X434700Y434600D02*
X437300D01*
X434700Y436000D02*
X437300D01*
X436000Y433700D02*
Y437100D01*
X437300Y439900D02*
X434700D01*
Y443300*
X437300*
Y439900*
X434700Y440200D02*
X437300D01*
X434700Y441600D02*
X437300D01*
X434700Y443000D02*
X437300D01*
X436000Y439900D02*
Y443300D01*
X484800Y441300D02*
Y438700D01*
X481400*
Y441300*
X484800*
X481400Y438800D02*
X484800D01*
X481400Y440200D02*
X484800D01*
X482200Y438700D02*
Y441300D01*
X483600Y438700D02*
Y441300D01*
X478600D02*
Y438700D01*
X475200*
Y441300*
X478600*
X475200Y438800D02*
X478600D01*
X475200Y440200D02*
X478600D01*
X475200Y438700D02*
Y441300D01*
X476600Y438700D02*
Y441300D01*
X478000Y438700D02*
Y441300D01*
X461800Y422300D02*
Y419700D01*
X458400*
Y422300*
X461800*
X458400Y420600D02*
X461800D01*
X458400Y422000D02*
X461800D01*
X458400Y419700D02*
Y422300D01*
X459800Y419700D02*
Y422300D01*
X461200Y419700D02*
Y422300D01*
X455600D02*
Y419700D01*
X452200*
Y422300*
X455600*
X452200Y420600D02*
X455600D01*
X452200Y422000D02*
X455600D01*
X452800Y419700D02*
Y422300D01*
X454200Y419700D02*
Y422300D01*
X455600Y419700D02*
Y422300D01*
X461800Y417300D02*
Y414700D01*
X458400*
Y417300*
X461800*
X458400Y415000D02*
X461800D01*
X458400Y416400D02*
X461800D01*
X458400Y414700D02*
Y417300D01*
X459800Y414700D02*
Y417300D01*
X461200Y414700D02*
Y417300D01*
X455600D02*
Y414700D01*
X452200*
Y417300*
X455600*
X452200Y415000D02*
X455600D01*
X452200Y416400D02*
X455600D01*
X452800Y414700D02*
Y417300D01*
X454200Y414700D02*
Y417300D01*
X455600Y414700D02*
Y417300D01*
X498700Y427800D02*
X501300D01*
Y424400*
X498700*
Y427800*
Y424800D02*
X501300D01*
X498700Y426200D02*
X501300D01*
X498700Y427600D02*
X501300D01*
X499000Y424400D02*
Y427800D01*
X500400Y424400D02*
Y427800D01*
X498700Y421600D02*
X501300D01*
Y418200*
X498700*
Y421600*
Y419200D02*
X501300D01*
X498700Y420600D02*
X501300D01*
X499000Y418200D02*
Y421600D01*
X500400Y418200D02*
Y421600D01*
X508700Y424700D02*
Y427300D01*
X512100*
Y424700*
X508700*
Y424800D02*
X512100D01*
X508700Y426200D02*
X512100D01*
X508800Y424700D02*
Y427300D01*
X510200Y424700D02*
Y427300D01*
X511600Y424700D02*
Y427300D01*
X514900Y424700D02*
Y427300D01*
X518300*
Y424700*
X514900*
Y424800D02*
X518300D01*
X514900Y426200D02*
X518300D01*
X515800Y424700D02*
Y427300D01*
X517200Y424700D02*
Y427300D01*
X452200Y424700D02*
Y427300D01*
X455600*
Y424700*
X452200*
Y424800D02*
X455600D01*
X452200Y426200D02*
X455600D01*
X452800Y424700D02*
Y427300D01*
X454200Y424700D02*
Y427300D01*
X455600Y424700D02*
Y427300D01*
X458400Y424700D02*
Y427300D01*
X461800*
Y424700*
X458400*
Y424800D02*
X461800D01*
X458400Y426200D02*
X461800D01*
X458400Y424700D02*
Y427300D01*
X459800Y424700D02*
Y427300D01*
X461200Y424700D02*
Y427300D01*
X452200Y429700D02*
Y432300D01*
X455600*
Y429700*
X452200*
Y430400D02*
X455600D01*
X452200Y431800D02*
X455600D01*
X452800Y429700D02*
Y432300D01*
X454200Y429700D02*
Y432300D01*
X455600Y429700D02*
Y432300D01*
X458400Y429700D02*
Y432300D01*
X461800*
Y429700*
X458400*
Y430400D02*
X461800D01*
X458400Y431800D02*
X461800D01*
X458400Y429700D02*
Y432300D01*
X459800Y429700D02*
Y432300D01*
X461200Y429700D02*
Y432300D01*
X475200Y323700D02*
Y326300D01*
X478600*
Y323700*
X475200*
Y324000D02*
X478600D01*
X475200Y325400D02*
X478600D01*
X475200Y323700D02*
Y326300D01*
X476600Y323700D02*
Y326300D01*
X478000Y323700D02*
Y326300D01*
X481400Y323700D02*
Y326300D01*
X484800*
Y323700*
X481400*
Y324000D02*
X484800D01*
X481400Y325400D02*
X484800D01*
X482200Y323700D02*
Y326300D01*
X483600Y323700D02*
Y326300D01*
X470800D02*
Y323700D01*
X467400*
Y326300*
X470800*
X467400Y324000D02*
X470800D01*
X467400Y325400D02*
X470800D01*
X468200Y323700D02*
Y326300D01*
X469600Y323700D02*
Y326300D01*
X464600D02*
Y323700D01*
X461200*
Y326300*
X464600*
X461200Y324000D02*
X464600D01*
X461200Y325400D02*
X464600D01*
X461200Y323700D02*
Y326300D01*
X462600Y323700D02*
Y326300D01*
X464000Y323700D02*
Y326300D01*
X464800Y333300D02*
Y330700D01*
X461400*
Y333300*
X464800*
X461400Y331000D02*
X464800D01*
X461400Y332400D02*
X464800D01*
X462600Y330700D02*
Y333300D01*
X464000Y330700D02*
Y333300D01*
X458600D02*
Y330700D01*
X455200*
Y333300*
X458600*
X455200Y331000D02*
X458600D01*
X455200Y332400D02*
X458600D01*
X455600Y330700D02*
Y333300D01*
X457000Y330700D02*
Y333300D01*
X458400Y330700D02*
Y333300D01*
G54D40*
X313150Y169900D02*
Y175100D01*
X318350*
Y169900*
X313150*
Y170200D02*
X318350D01*
X313150Y172000D02*
X318350D01*
X313150Y173800D02*
X318350D01*
X314200Y169900D02*
Y175100D01*
X316000Y169900D02*
Y175100D01*
X317800Y169900D02*
Y175100D01*
X299650Y169900D02*
Y175100D01*
X304850*
Y169900*
X299650*
Y170200D02*
X304850D01*
X299650Y172000D02*
X304850D01*
X299650Y173800D02*
X304850D01*
X299800Y169900D02*
Y175100D01*
X301600Y169900D02*
Y175100D01*
X303400Y169900D02*
Y175100D01*
X324650Y120900D02*
Y126100D01*
X329850*
Y120900*
X324650*
Y121600D02*
X329850D01*
X324650Y123400D02*
X329850D01*
X324650Y125200D02*
X329850D01*
X325000Y120900D02*
Y126100D01*
X326800Y120900D02*
Y126100D01*
X328600Y120900D02*
Y126100D01*
X338150Y120900D02*
Y126100D01*
X343350*
Y120900*
X338150*
Y121600D02*
X343350D01*
X338150Y123400D02*
X343350D01*
X338150Y125200D02*
X343350D01*
X339400Y120900D02*
Y126100D01*
X341200Y120900D02*
Y126100D01*
X343000Y120900D02*
Y126100D01*
X467650Y202400D02*
Y207600D01*
X472850*
Y202400*
X467650*
Y202600D02*
X472850D01*
X467650Y204400D02*
X472850D01*
X467650Y206200D02*
X472850D01*
X469000Y202400D02*
Y207600D01*
X470800Y202400D02*
Y207600D01*
X472600Y202400D02*
Y207600D01*
X454150Y202400D02*
Y207600D01*
X459350*
Y202400*
X454150*
Y202600D02*
X459350D01*
X454150Y204400D02*
X459350D01*
X454150Y206200D02*
X459350D01*
X454600Y202400D02*
Y207600D01*
X456400Y202400D02*
Y207600D01*
X458200Y202400D02*
Y207600D01*
X234900Y427650D02*
Y432850D01*
X240100*
Y427650*
X234900*
Y429400D02*
X240100D01*
X234900Y431200D02*
X240100D01*
X235000Y427650D02*
Y432850D01*
X236800Y427650D02*
Y432850D01*
X238600Y427650D02*
Y432850D01*
X234900Y414150D02*
Y419350D01*
X240100*
Y414150*
X234900*
Y415000D02*
X240100D01*
X234900Y416800D02*
X240100D01*
X234900Y418600D02*
X240100D01*
X235000Y414150D02*
Y419350D01*
X236800Y414150D02*
Y419350D01*
X238600Y414150D02*
Y419350D01*
X465650Y371400D02*
Y376600D01*
X470850*
Y371400*
X465650*
Y371800D02*
X470850D01*
X465650Y373600D02*
X470850D01*
X465650Y375400D02*
X470850D01*
X467200Y371400D02*
Y376600D01*
X469000Y371400D02*
Y376600D01*
X470800Y371400D02*
Y376600D01*
X479150Y371400D02*
Y376600D01*
X484350*
Y371400*
X479150*
Y371800D02*
X484350D01*
X479150Y373600D02*
X484350D01*
X479150Y375400D02*
X484350D01*
X479800Y371400D02*
Y376600D01*
X481600Y371400D02*
Y376600D01*
X483400Y371400D02*
Y376600D01*
X485400Y338650D02*
Y343850D01*
X490600*
Y338650*
X485400*
Y339400D02*
X490600D01*
X485400Y341200D02*
X490600D01*
X485400Y343000D02*
X490600D01*
X487000Y338650D02*
Y343850D01*
X488800Y338650D02*
Y343850D01*
X490600Y338650D02*
Y343850D01*
X485400Y352150D02*
Y357350D01*
X490600*
Y352150*
X485400*
Y353800D02*
X490600D01*
X485400Y355600D02*
X490600D01*
X487000Y352150D02*
Y357350D01*
X488800Y352150D02*
Y357350D01*
X490600Y352150D02*
Y357350D01*
G54D41*
X280000Y455500D03*
X272126D03*
X264252D03*
X256378D03*
X248504D03*
X510000Y320000D03*
Y327874D03*
Y335748D03*
Y360000D03*
Y367874D03*
Y375748D03*
G54D42*
X483300Y204300D02*
Y208700D01*
X488700*
Y204300*
X483300*
Y205600D02*
X488700D01*
X483300Y207200D02*
X488700D01*
X484000Y204300D02*
Y208700D01*
X485600Y204300D02*
Y208700D01*
X487200Y204300D02*
Y208700D01*
X492300Y204300D02*
Y208700D01*
X497700*
Y204300*
X492300*
Y205600D02*
X497700D01*
X492300Y207200D02*
X497700D01*
X493600Y204300D02*
Y208700D01*
X495200Y204300D02*
Y208700D01*
X496800Y204300D02*
Y208700D01*
X357700Y205200D02*
Y200800D01*
X352300*
Y205200*
X357700*
X352300Y200800D02*
X357700D01*
X352300Y202400D02*
X357700D01*
X352300Y204000D02*
X357700D01*
X352800Y200800D02*
Y205200D01*
X354400Y200800D02*
Y205200D01*
X356000Y200800D02*
Y205200D01*
X357600Y200800D02*
Y205200D01*
X348700D02*
Y200800D01*
X343300*
Y205200*
X348700*
X343300Y200800D02*
X348700D01*
X343300Y202400D02*
X348700D01*
X343300Y204000D02*
X348700D01*
X344800Y200800D02*
Y205200D01*
X346400Y200800D02*
Y205200D01*
X348000Y200800D02*
Y205200D01*
X388300Y122700D02*
X392700D01*
Y117300*
X388300*
Y122700*
Y117600D02*
X392700D01*
X388300Y119200D02*
X392700D01*
X388300Y120800D02*
X392700D01*
X388300Y122400D02*
X392700D01*
X389600Y117300D02*
Y122700D01*
X391200Y117300D02*
Y122700D01*
X388300Y113700D02*
X392700D01*
Y108300*
X388300*
Y113700*
Y109600D02*
X392700D01*
X388300Y111200D02*
X392700D01*
X388300Y112800D02*
X392700D01*
X389600Y108300D02*
Y113700D01*
X391200Y108300D02*
Y113700D01*
X434300Y177800D02*
Y182200D01*
X439700*
Y177800*
X434300*
Y178400D02*
X439700D01*
X434300Y180000D02*
X439700D01*
X434300Y181600D02*
X439700D01*
X434400Y177800D02*
Y182200D01*
X436000Y177800D02*
Y182200D01*
X437600Y177800D02*
Y182200D01*
X439200Y177800D02*
Y182200D01*
X443300Y177800D02*
Y182200D01*
X448700*
Y177800*
X443300*
Y178400D02*
X448700D01*
X443300Y180000D02*
X448700D01*
X443300Y181600D02*
X448700D01*
X444000Y177800D02*
Y182200D01*
X445600Y177800D02*
Y182200D01*
X447200Y177800D02*
Y182200D01*
X397700Y174700D02*
Y170300D01*
X392300*
Y174700*
X397700*
X392300Y170400D02*
X397700D01*
X392300Y172000D02*
X397700D01*
X392300Y173600D02*
X397700D01*
X392800Y170300D02*
Y174700D01*
X394400Y170300D02*
Y174700D01*
X396000Y170300D02*
Y174700D01*
X397600Y170300D02*
Y174700D01*
X388700D02*
Y170300D01*
X383300*
Y174700*
X388700*
X383300Y170400D02*
X388700D01*
X383300Y172000D02*
X388700D01*
X383300Y173600D02*
X388700D01*
X384800Y170300D02*
Y174700D01*
X386400Y170300D02*
Y174700D01*
X388000Y170300D02*
Y174700D01*
X408800Y154300D02*
Y158700D01*
X414200*
Y154300*
X408800*
Y154400D02*
X414200D01*
X408800Y156000D02*
X414200D01*
X408800Y157600D02*
X414200D01*
X408800Y154300D02*
Y158700D01*
X410400Y154300D02*
Y158700D01*
X412000Y154300D02*
Y158700D01*
X413600Y154300D02*
Y158700D01*
X417800Y154300D02*
Y158700D01*
X423200*
Y154300*
X417800*
Y154400D02*
X423200D01*
X417800Y156000D02*
X423200D01*
X417800Y157600D02*
X423200D01*
X418400Y154300D02*
Y158700D01*
X420000Y154300D02*
Y158700D01*
X421600Y154300D02*
Y158700D01*
X423200Y154300D02*
Y158700D01*
X393300Y160700D02*
X397700D01*
Y155300*
X393300*
Y160700*
Y156000D02*
X397700D01*
X393300Y157600D02*
X397700D01*
X393300Y159200D02*
X397700D01*
X394400Y155300D02*
Y160700D01*
X396000Y155300D02*
Y160700D01*
X397600Y155300D02*
Y160700D01*
X393300Y151700D02*
X397700D01*
Y146300*
X393300*
Y151700*
Y146400D02*
X397700D01*
X393300Y148000D02*
X397700D01*
X393300Y149600D02*
X397700D01*
X393300Y151200D02*
X397700D01*
X394400Y146300D02*
Y151700D01*
X396000Y146300D02*
Y151700D01*
X397600Y146300D02*
Y151700D01*
X397700Y179300D02*
X393300D01*
Y184700*
X397700*
Y179300*
X393300Y180000D02*
X397700D01*
X393300Y181600D02*
X397700D01*
X393300Y183200D02*
X397700D01*
X394400Y179300D02*
Y184700D01*
X396000Y179300D02*
Y184700D01*
X397600Y179300D02*
Y184700D01*
X397700Y188300D02*
X393300D01*
Y193700*
X397700*
Y188300*
X393300Y189600D02*
X397700D01*
X393300Y191200D02*
X397700D01*
X393300Y192800D02*
X397700D01*
X394400Y188300D02*
Y193700D01*
X396000Y188300D02*
Y193700D01*
X397600Y188300D02*
Y193700D01*
X423200Y192200D02*
Y187800D01*
X417800*
Y192200*
X423200*
X417800Y188000D02*
X423200D01*
X417800Y189600D02*
X423200D01*
X417800Y191200D02*
X423200D01*
X418400Y187800D02*
Y192200D01*
X420000Y187800D02*
Y192200D01*
X421600Y187800D02*
Y192200D01*
X423200Y187800D02*
Y192200D01*
X414200D02*
Y187800D01*
X408800*
Y192200*
X414200*
X408800Y188000D02*
X414200D01*
X408800Y189600D02*
X414200D01*
X408800Y191200D02*
X414200D01*
X408800Y187800D02*
Y192200D01*
X410400Y187800D02*
Y192200D01*
X412000Y187800D02*
Y192200D01*
X413600Y187800D02*
Y192200D01*
X365700Y333800D02*
X361300D01*
Y339200*
X365700*
Y333800*
X361300Y335200D02*
X365700D01*
X361300Y336800D02*
X365700D01*
X361300Y338400D02*
X365700D01*
X362400Y333800D02*
Y339200D01*
X364000Y333800D02*
Y339200D01*
X365600Y333800D02*
Y339200D01*
X365700Y342800D02*
X361300D01*
Y348200*
X365700*
Y342800*
X361300Y343200D02*
X365700D01*
X361300Y344800D02*
X365700D01*
X361300Y346400D02*
X365700D01*
X361300Y348000D02*
X365700D01*
X362400Y342800D02*
Y348200D01*
X364000Y342800D02*
Y348200D01*
X365600Y342800D02*
Y348200D01*
G54D43*
X375106Y147543D02*
X375894D01*
Y140457*
X375106*
Y147543*
Y141197D02*
X375894D01*
X375106Y143772D02*
X375894D01*
X375106Y146346D02*
X375894D01*
X375504Y140457D02*
Y147543D01*
X370106D02*
X370894D01*
Y140457*
X370106*
Y147543*
Y141197D02*
X370894D01*
X370106Y143772D02*
X370894D01*
X370106Y146346D02*
X370894D01*
X370354Y140457D02*
Y147543D01*
X365106D02*
X365894D01*
Y140457*
X365106*
Y147543*
Y141197D02*
X365894D01*
X365106Y143772D02*
X365894D01*
X365106Y146346D02*
X365894D01*
X365205Y140457D02*
Y147543D01*
X360106D02*
X360894D01*
Y140457*
X360106*
Y147543*
Y141197D02*
X360894D01*
X360106Y143772D02*
X360894D01*
X360106Y146346D02*
X360894D01*
X355106Y147543D02*
X355894D01*
Y140457*
X355106*
Y147543*
Y141197D02*
X355894D01*
X355106Y143772D02*
X355894D01*
X355106Y146346D02*
X355894D01*
X371602Y123134D02*
Y116047D01*
X359398*
Y123134*
X371602*
X359398Y118024D02*
X371602D01*
X359398Y120598D02*
X371602D01*
X360055Y116047D02*
Y123134D01*
X362630Y116047D02*
Y123134D01*
X365205Y116047D02*
Y123134D01*
X367780Y116047D02*
Y123134D01*
X370354Y116047D02*
Y123134D01*
X474457Y197106D02*
Y197894D01*
X481543*
Y197106*
X474457*
Y197843D02*
X481543D01*
X475921Y197106D02*
Y197894D01*
X478496Y197106D02*
Y197894D01*
X481071Y197106D02*
Y197894D01*
X474457Y192106D02*
Y192894D01*
X481543*
Y192106*
X474457*
Y192693D02*
X481543D01*
X475921Y192106D02*
Y192894D01*
X478496Y192106D02*
Y192894D01*
X481071Y192106D02*
Y192894D01*
X474457Y187106D02*
Y187894D01*
X481543*
Y187106*
X474457*
Y187543D02*
X481543D01*
X475921Y187106D02*
Y187894D01*
X478496Y187106D02*
Y187894D01*
X481071Y187106D02*
Y187894D01*
X474457Y182106D02*
Y182894D01*
X481543*
Y182106*
X474457*
Y182394D02*
X481543D01*
X475921Y182106D02*
Y182894D01*
X478496Y182106D02*
Y182894D01*
X481071Y182106D02*
Y182894D01*
X474457Y177106D02*
Y177894D01*
X481543*
Y177106*
X474457*
Y177244D02*
X481543D01*
X475921Y177106D02*
Y177894D01*
X478496Y177106D02*
Y177894D01*
X481071Y177106D02*
Y177894D01*
X498866Y193602D02*
X505953D01*
Y181398*
X498866*
Y193602*
Y182394D02*
X505953D01*
X498866Y184969D02*
X505953D01*
X498866Y187543D02*
X505953D01*
X498866Y190118D02*
X505953D01*
X498866Y192693D02*
X505953D01*
X499094Y181398D02*
Y193602D01*
X501669Y181398D02*
Y193602D01*
X504244Y181398D02*
Y193602D01*
X399429Y359382D02*
X391161D01*
Y369618*
X399429*
Y359382*
X391161Y360055D02*
X399429D01*
X391161Y362630D02*
X399429D01*
X391161Y365205D02*
X399429D01*
X391161Y367780D02*
X399429D01*
X393528Y359382D02*
Y369618D01*
X396102Y359382D02*
Y369618D01*
X398677Y359382D02*
Y369618D01*
X373839Y359382D02*
X365571D01*
Y369618*
X373839*
Y359382*
X365571Y360055D02*
X373839D01*
X365571Y362630D02*
X373839D01*
X365571Y365205D02*
X373839D01*
X365571Y367780D02*
X373839D01*
X367780Y359382D02*
Y369618D01*
X370354Y359382D02*
Y369618D01*
X372929Y359382D02*
Y369618D01*
X492937Y165539D02*
Y161209D01*
X485063*
Y165539*
X492937*
X485063Y161795D02*
X492937D01*
X485063Y164370D02*
X492937D01*
X486220Y161209D02*
Y165539D01*
X488795Y161209D02*
Y165539D01*
X491370Y161209D02*
Y165539D01*
X492937Y149791D02*
Y145461D01*
X485063*
Y149791*
X492937*
X485063Y146346D02*
X492937D01*
X485063Y148921D02*
X492937D01*
X486220Y145461D02*
Y149791D01*
X488795Y145461D02*
Y149791D01*
X491370Y145461D02*
Y149791D01*
X464228Y153228D02*
Y156772D01*
X467772*
Y153228*
X464228*
Y154071D02*
X467772D01*
X464228Y156646D02*
X467772D01*
X465622Y153228D02*
Y156772D01*
X356461Y173398D02*
X348587D01*
Y185602*
X356461*
Y173398*
X348587Y174669D02*
X356461D01*
X348587Y177244D02*
X356461D01*
X348587Y179819D02*
X356461D01*
X348587Y182394D02*
X356461D01*
X348587Y184969D02*
X356461D01*
X349756Y173398D02*
Y185602D01*
X352331Y173398D02*
Y185602D01*
X354906Y173398D02*
Y185602D01*
X334413Y173398D02*
X326539D01*
Y185602*
X334413*
Y173398*
X326539Y174669D02*
X334413D01*
X326539Y177244D02*
X334413D01*
X326539Y179819D02*
X334413D01*
X326539Y182394D02*
X334413D01*
X326539Y184969D02*
X334413D01*
X326583Y173398D02*
Y185602D01*
X329157Y173398D02*
Y185602D01*
X331732Y173398D02*
Y185602D01*
X334307Y173398D02*
Y185602D01*
G54D44*
X401500Y331500D03*
X391500D03*
X381500D03*
X368000Y461500D03*
X358000D03*
X348000D03*
X338000D03*
X328000D03*
X318000D03*
X308000D03*
X298000D03*
X421000Y118500D03*
X411000D03*
X360000Y431000D03*
X370000D03*
X361000Y243500D03*
X351000D03*
X256500Y386000D03*
Y376000D03*
Y366000D03*
X302500Y411500D03*
Y401500D03*
Y426500D03*
Y436500D03*
X425000Y340500D03*
X435000Y350500D03*
X425000D03*
X435000Y360500D03*
X425000D03*
X279000Y283000D03*
X289000D03*
X299000D03*
X309000D03*
X319000D03*
X329000D03*
X339000D03*
X349000D03*
X509000Y402000D03*
X499000D03*
X489000D03*
X474000D03*
X464000D03*
X454000D03*
G54D45*
X357205Y406858D03*
X382795D03*
X357205Y389142D03*
X382795D03*
G54D46*
X432950Y338450D02*
Y342550D01*
X437050*
Y338450*
X432950*
Y341400D02*
X437050D01*
X433200Y338450D02*
Y342550D01*
X436600Y338450D02*
Y342550D01*
G54D47*
X452220Y155000D03*
G54D48*
X258000Y402000D03*
X268000D03*
X278000D03*
X248000D03*
G54D49*
X290500Y218500D03*
X295500D03*
X300500D03*
X305500D03*
X310500D03*
X315500D03*
X320500D03*
X325500D03*
Y243500D03*
X320500D03*
X315500D03*
X310500D03*
X305500D03*
X300500D03*
X295500D03*
X290500D03*
X305500Y135500D03*
X310500D03*
X315500D03*
X320500D03*
X325500D03*
X330500D03*
X335500D03*
X340500D03*
Y160500D03*
X335500D03*
X330500D03*
X325500D03*
X320500D03*
X315500D03*
X310500D03*
X305500D03*
G54D50*
X405764Y148750D03*
Y146250D03*
Y143750D03*
Y141250D03*
Y138750D03*
Y136250D03*
Y133750D03*
Y131250D03*
X426236D03*
Y133750D03*
Y136250D03*
Y138750D03*
Y141250D03*
Y143750D03*
Y146250D03*
Y148750D03*
X405764Y182250D03*
Y179750D03*
Y177250D03*
Y174750D03*
Y172250D03*
Y169750D03*
Y167250D03*
Y164750D03*
X426236D03*
Y167250D03*
Y169750D03*
Y172250D03*
Y174750D03*
Y177250D03*
Y179750D03*
Y182250D03*
G54D51*
X331122Y381996D03*
X327972D03*
X324823D03*
X321673D03*
X318524D03*
X315374D03*
X312224D03*
X309075D03*
X305925D03*
X302776D03*
X299626D03*
X296476D03*
X293327D03*
X290177D03*
X287028D03*
X283878D03*
Y319004D03*
X287028D03*
X290177D03*
X293327D03*
X296476D03*
X299626D03*
X302776D03*
X305925D03*
X309075D03*
X312224D03*
X315374D03*
X318524D03*
X321673D03*
X324823D03*
X327972D03*
X331122D03*
G54D52*
X276004Y374122D03*
Y370972D03*
Y367823D03*
Y364673D03*
Y361524D03*
Y358374D03*
Y355224D03*
Y352075D03*
Y348925D03*
Y345776D03*
Y342626D03*
Y339476D03*
Y336327D03*
Y333177D03*
Y330028D03*
Y326878D03*
X338996D03*
Y330028D03*
Y333177D03*
Y336327D03*
Y339476D03*
Y342626D03*
Y345776D03*
Y348925D03*
Y352075D03*
Y355224D03*
Y358374D03*
Y361524D03*
Y364673D03*
Y367823D03*
Y370972D03*
Y374122D03*
G54D53*
X248591Y408886D02*
X247409D01*
Y412705*
X248591*
Y408886*
X247409Y409220D02*
X248591D01*
X247409Y411008D02*
X248591D01*
X248354Y408886D02*
Y412705D01*
X253591Y408886D02*
X252409D01*
Y412705*
X253591*
Y408886*
X252409Y409220D02*
X253591D01*
X252409Y411008D02*
X253591D01*
X258591Y408886D02*
X257409D01*
Y412705*
X258591*
Y408886*
X257409Y409220D02*
X258591D01*
X257409Y411008D02*
X258591D01*
X263591Y408886D02*
X262409D01*
Y412705*
X263591*
Y408886*
X262409Y409220D02*
X263591D01*
X262409Y411008D02*
X263591D01*
X262654Y408886D02*
Y412705D01*
X268591Y408886D02*
X267409D01*
Y412705*
X268591*
Y408886*
X267409Y409220D02*
X268591D01*
X267409Y411008D02*
X268591D01*
X268016Y408886D02*
Y412705D01*
X273591Y408886D02*
X272409D01*
Y412705*
X273591*
Y408886*
X272409Y409220D02*
X273591D01*
X272409Y411008D02*
X273591D01*
X273378Y408886D02*
Y412705D01*
X278591Y408886D02*
X277409D01*
Y412705*
X278591*
Y408886*
X277409Y409220D02*
X278591D01*
X277409Y411008D02*
X278591D01*
Y428295D02*
X277409D01*
Y432114*
X278591*
Y428295*
X277409Y428882D02*
X278591D01*
X277409Y430669D02*
X278591D01*
X273591Y428295D02*
X272409D01*
Y432114*
X273591*
Y428295*
X272409Y428882D02*
X273591D01*
X272409Y430669D02*
X273591D01*
X273378Y428295D02*
Y432114D01*
X268591Y428295D02*
X267409D01*
Y432114*
X268591*
Y428295*
X267409Y428882D02*
X268591D01*
X267409Y430669D02*
X268591D01*
X268016Y428295D02*
Y432114D01*
X263591Y428295D02*
X262409D01*
Y432114*
X263591*
Y428295*
X262409Y428882D02*
X263591D01*
X262409Y430669D02*
X263591D01*
X262654Y428295D02*
Y432114D01*
X258591Y428295D02*
X257409D01*
Y432114*
X258591*
Y428295*
X257409Y428882D02*
X258591D01*
X257409Y430669D02*
X258591D01*
X253591Y428295D02*
X252409D01*
Y432114*
X253591*
Y428295*
X252409Y428882D02*
X253591D01*
X252409Y430669D02*
X253591D01*
X248591Y428295D02*
X247409D01*
Y432114*
X248591*
Y428295*
X247409Y428882D02*
X248591D01*
X247409Y430669D02*
X248591D01*
X248354Y428295D02*
Y432114D01*
G54D54*
X399000Y453000D03*
X467000Y261000D03*
X118000Y117000D03*
Y453000D03*
G54D55*
X463500Y340976D03*
X468500D03*
X473500D03*
X478500D03*
Y363024D03*
X473500D03*
X468500D03*
X463500D03*
X0Y0D02*
M02*
