*
*
G04 PADS 9.3.1 Build Number: 456998 generated Gerber (RS-274-X) file*
G04 PC Version=2.1*
*
%IN "bogiectl_rev2_1.pcb"*%
*
%MOIN*%
*
%FSLAX35Y35*%
*
*
*
*
G04 PC Standard Apertures*
*
*
G04 Thermal Relief Aperture macro.*
%AMTER*
1,1,$1,0,0*
1,0,$1-$2,0,0*
21,0,$3,$4,0,0,45*
21,0,$3,$4,0,0,135*
%
*
*
G04 Annular Aperture macro.*
%AMANN*
1,1,$1,0,0*
1,0,$2,0,0*
%
*
*
G04 Odd Aperture macro.*
%AMODD*
1,1,$1,0,0*
1,0,$1-0.005,0,0*
%
*
*
G04 PC Custom Aperture Macros*
*
*
*
*
*
*
G04 PC Aperture Table*
*
%ADD010C,0.001*%
%ADD012C,0.004*%
%ADD016C,0.06*%
%ADD017C,0.065*%
%ADD018C,0.15*%
%ADD019C,0.01*%
%ADD023C,0.05118*%
%ADD028C,0.05906*%
%ADD029C,0.1*%
%ADD032C,0.09449*%
%ADD037C,0.028*%
%ADD041C,0.03*%
%ADD046C,0.015*%
*
*
*
*
G04 PC Circuitry*
G04 Layer Name bogiectl_rev2_1.pcb - circuitry*
%LPD*%
*
*
G04 PC Custom Flashes*
G04 Layer Name bogiectl_rev2_1.pcb - flashes*
%LPD*%
*
*
G04 PC Circuitry*
G04 Layer Name bogiectl_rev2_1.pcb - circuitry*
%LPD*%
*
G54D10*
G54D12*
G01X236600Y211200D02*
X234000D01*
Y214600*
X236600*
Y211200*
X234000D02*
X236600D01*
X234000Y211600D02*
X236600D01*
X234000Y212000D02*
X236600D01*
X234000Y212400D02*
X236600D01*
X234000Y212800D02*
X236600D01*
X234000Y213200D02*
X236600D01*
X234000Y213600D02*
X236600D01*
X234000Y214000D02*
X236600D01*
X234000Y214400D02*
X236600D01*
X234000Y211200D02*
Y214600D01*
X234400Y211200D02*
Y214600D01*
X234800Y211200D02*
Y214600D01*
X235200Y211200D02*
Y214600D01*
X235600Y211200D02*
Y214600D01*
X236000Y211200D02*
Y214600D01*
X236400Y211200D02*
Y214600D01*
X236600Y217400D02*
X234000D01*
Y220800*
X236600*
Y217400*
X234000Y217600D02*
X236600D01*
X234000Y218000D02*
X236600D01*
X234000Y218400D02*
X236600D01*
X234000Y218800D02*
X236600D01*
X234000Y219200D02*
X236600D01*
X234000Y219600D02*
X236600D01*
X234000Y220000D02*
X236600D01*
X234000Y220400D02*
X236600D01*
X234000Y220800D02*
X236600D01*
X234000Y217400D02*
Y220800D01*
X234400Y217400D02*
Y220800D01*
X234800Y217400D02*
Y220800D01*
X235200Y217400D02*
Y220800D01*
X235600Y217400D02*
Y220800D01*
X236000Y217400D02*
Y220800D01*
X236400Y217400D02*
Y220800D01*
X188800Y150300D02*
Y147700D01*
X185400*
Y150300*
X188800*
X185400Y148000D02*
X188800D01*
X185400Y148400D02*
X188800D01*
X185400Y148800D02*
X188800D01*
X185400Y149200D02*
X188800D01*
X185400Y149600D02*
X188800D01*
X185400Y150000D02*
X188800D01*
X185600Y147700D02*
Y150300D01*
X186000Y147700D02*
Y150300D01*
X186400Y147700D02*
Y150300D01*
X186800Y147700D02*
Y150300D01*
X187200Y147700D02*
Y150300D01*
X187600Y147700D02*
Y150300D01*
X188000Y147700D02*
Y150300D01*
X188400Y147700D02*
Y150300D01*
X188800Y147700D02*
Y150300D01*
X182600D02*
Y147700D01*
X179200*
Y150300*
X182600*
X179200Y148000D02*
X182600D01*
X179200Y148400D02*
X182600D01*
X179200Y148800D02*
X182600D01*
X179200Y149200D02*
X182600D01*
X179200Y149600D02*
X182600D01*
X179200Y150000D02*
X182600D01*
X179200Y147700D02*
Y150300D01*
X179600Y147700D02*
Y150300D01*
X180000Y147700D02*
Y150300D01*
X180400Y147700D02*
Y150300D01*
X180800Y147700D02*
Y150300D01*
X181200Y147700D02*
Y150300D01*
X181600Y147700D02*
Y150300D01*
X182000Y147700D02*
Y150300D01*
X182400Y147700D02*
Y150300D01*
X290600Y214200D02*
Y211600D01*
X287200*
Y214200*
X290600*
X287200Y211600D02*
X290600D01*
X287200Y212000D02*
X290600D01*
X287200Y212400D02*
X290600D01*
X287200Y212800D02*
X290600D01*
X287200Y213200D02*
X290600D01*
X287200Y213600D02*
X290600D01*
X287200Y214000D02*
X290600D01*
X287200Y211600D02*
Y214200D01*
X287600Y211600D02*
Y214200D01*
X288000Y211600D02*
Y214200D01*
X288400Y211600D02*
Y214200D01*
X288800Y211600D02*
Y214200D01*
X289200Y211600D02*
Y214200D01*
X289600Y211600D02*
Y214200D01*
X290000Y211600D02*
Y214200D01*
X290400Y211600D02*
Y214200D01*
X284400D02*
Y211600D01*
X281000*
Y214200*
X284400*
X281000Y211600D02*
X284400D01*
X281000Y212000D02*
X284400D01*
X281000Y212400D02*
X284400D01*
X281000Y212800D02*
X284400D01*
X281000Y213200D02*
X284400D01*
X281000Y213600D02*
X284400D01*
X281000Y214000D02*
X284400D01*
X281200Y211600D02*
Y214200D01*
X281600Y211600D02*
Y214200D01*
X282000Y211600D02*
Y214200D01*
X282400Y211600D02*
Y214200D01*
X282800Y211600D02*
Y214200D01*
X283200Y211600D02*
Y214200D01*
X283600Y211600D02*
Y214200D01*
X284000Y211600D02*
Y214200D01*
X284400Y211600D02*
Y214200D01*
X281000Y206600D02*
Y209200D01*
X284400*
Y206600*
X281000*
Y206800D02*
X284400D01*
X281000Y207200D02*
X284400D01*
X281000Y207600D02*
X284400D01*
X281000Y208000D02*
X284400D01*
X281000Y208400D02*
X284400D01*
X281000Y208800D02*
X284400D01*
X281000Y209200D02*
X284400D01*
X281200Y206600D02*
Y209200D01*
X281600Y206600D02*
Y209200D01*
X282000Y206600D02*
Y209200D01*
X282400Y206600D02*
Y209200D01*
X282800Y206600D02*
Y209200D01*
X283200Y206600D02*
Y209200D01*
X283600Y206600D02*
Y209200D01*
X284000Y206600D02*
Y209200D01*
X284400Y206600D02*
Y209200D01*
X287200Y206600D02*
Y209200D01*
X290600*
Y206600*
X287200*
Y206800D02*
X290600D01*
X287200Y207200D02*
X290600D01*
X287200Y207600D02*
X290600D01*
X287200Y208000D02*
X290600D01*
X287200Y208400D02*
X290600D01*
X287200Y208800D02*
X290600D01*
X287200Y209200D02*
X290600D01*
X287200Y206600D02*
Y209200D01*
X287600Y206600D02*
Y209200D01*
X288000Y206600D02*
Y209200D01*
X288400Y206600D02*
Y209200D01*
X288800Y206600D02*
Y209200D01*
X289200Y206600D02*
Y209200D01*
X289600Y206600D02*
Y209200D01*
X290000Y206600D02*
Y209200D01*
X290400Y206600D02*
Y209200D01*
X223800Y132300D02*
Y129700D01*
X220400*
Y132300*
X223800*
X220400Y130000D02*
X223800D01*
X220400Y130400D02*
X223800D01*
X220400Y130800D02*
X223800D01*
X220400Y131200D02*
X223800D01*
X220400Y131600D02*
X223800D01*
X220400Y132000D02*
X223800D01*
X220400Y129700D02*
Y132300D01*
X220800Y129700D02*
Y132300D01*
X221200Y129700D02*
Y132300D01*
X221600Y129700D02*
Y132300D01*
X222000Y129700D02*
Y132300D01*
X222400Y129700D02*
Y132300D01*
X222800Y129700D02*
Y132300D01*
X223200Y129700D02*
Y132300D01*
X223600Y129700D02*
Y132300D01*
X217600D02*
Y129700D01*
X214200*
Y132300*
X217600*
X214200Y130000D02*
X217600D01*
X214200Y130400D02*
X217600D01*
X214200Y130800D02*
X217600D01*
X214200Y131200D02*
X217600D01*
X214200Y131600D02*
X217600D01*
X214200Y132000D02*
X217600D01*
X214400Y129700D02*
Y132300D01*
X214800Y129700D02*
Y132300D01*
X215200Y129700D02*
Y132300D01*
X215600Y129700D02*
Y132300D01*
X216000Y129700D02*
Y132300D01*
X216400Y129700D02*
Y132300D01*
X216800Y129700D02*
Y132300D01*
X217200Y129700D02*
Y132300D01*
X217600Y129700D02*
Y132300D01*
X364200Y190700D02*
Y193300D01*
X367600*
Y190700*
X364200*
Y190800D02*
X367600D01*
X364200Y191200D02*
X367600D01*
X364200Y191600D02*
X367600D01*
X364200Y192000D02*
X367600D01*
X364200Y192400D02*
X367600D01*
X364200Y192800D02*
X367600D01*
X364200Y193200D02*
X367600D01*
X364400Y190700D02*
Y193300D01*
X364800Y190700D02*
Y193300D01*
X365200Y190700D02*
Y193300D01*
X365600Y190700D02*
Y193300D01*
X366000Y190700D02*
Y193300D01*
X366400Y190700D02*
Y193300D01*
X366800Y190700D02*
Y193300D01*
X367200Y190700D02*
Y193300D01*
X367600Y190700D02*
Y193300D01*
X370400Y190700D02*
Y193300D01*
X373800*
Y190700*
X370400*
Y190800D02*
X373800D01*
X370400Y191200D02*
X373800D01*
X370400Y191600D02*
X373800D01*
X370400Y192000D02*
X373800D01*
X370400Y192400D02*
X373800D01*
X370400Y192800D02*
X373800D01*
X370400Y193200D02*
X373800D01*
X370400Y190700D02*
Y193300D01*
X370800Y190700D02*
Y193300D01*
X371200Y190700D02*
Y193300D01*
X371600Y190700D02*
Y193300D01*
X372000Y190700D02*
Y193300D01*
X372400Y190700D02*
Y193300D01*
X372800Y190700D02*
Y193300D01*
X373200Y190700D02*
Y193300D01*
X373600Y190700D02*
Y193300D01*
X364200Y169700D02*
Y172300D01*
X367600*
Y169700*
X364200*
Y170000D02*
X367600D01*
X364200Y170400D02*
X367600D01*
X364200Y170800D02*
X367600D01*
X364200Y171200D02*
X367600D01*
X364200Y171600D02*
X367600D01*
X364200Y172000D02*
X367600D01*
X364400Y169700D02*
Y172300D01*
X364800Y169700D02*
Y172300D01*
X365200Y169700D02*
Y172300D01*
X365600Y169700D02*
Y172300D01*
X366000Y169700D02*
Y172300D01*
X366400Y169700D02*
Y172300D01*
X366800Y169700D02*
Y172300D01*
X367200Y169700D02*
Y172300D01*
X367600Y169700D02*
Y172300D01*
X370400Y169700D02*
Y172300D01*
X373800*
Y169700*
X370400*
Y170000D02*
X373800D01*
X370400Y170400D02*
X373800D01*
X370400Y170800D02*
X373800D01*
X370400Y171200D02*
X373800D01*
X370400Y171600D02*
X373800D01*
X370400Y172000D02*
X373800D01*
X370400Y169700D02*
Y172300D01*
X370800Y169700D02*
Y172300D01*
X371200Y169700D02*
Y172300D01*
X371600Y169700D02*
Y172300D01*
X372000Y169700D02*
Y172300D01*
X372400Y169700D02*
Y172300D01*
X372800Y169700D02*
Y172300D01*
X373200Y169700D02*
Y172300D01*
X373600Y169700D02*
Y172300D01*
X390300Y267200D02*
X387700D01*
Y270600*
X390300*
Y267200*
X387700D02*
X390300D01*
X387700Y267600D02*
X390300D01*
X387700Y268000D02*
X390300D01*
X387700Y268400D02*
X390300D01*
X387700Y268800D02*
X390300D01*
X387700Y269200D02*
X390300D01*
X387700Y269600D02*
X390300D01*
X387700Y270000D02*
X390300D01*
X387700Y270400D02*
X390300D01*
X388000Y267200D02*
Y270600D01*
X388400Y267200D02*
Y270600D01*
X388800Y267200D02*
Y270600D01*
X389200Y267200D02*
Y270600D01*
X389600Y267200D02*
Y270600D01*
X390000Y267200D02*
Y270600D01*
X390300Y273400D02*
X387700D01*
Y276800*
X390300*
Y273400*
X387700Y273600D02*
X390300D01*
X387700Y274000D02*
X390300D01*
X387700Y274400D02*
X390300D01*
X387700Y274800D02*
X390300D01*
X387700Y275200D02*
X390300D01*
X387700Y275600D02*
X390300D01*
X387700Y276000D02*
X390300D01*
X387700Y276400D02*
X390300D01*
X387700Y276800D02*
X390300D01*
X388000Y273400D02*
Y276800D01*
X388400Y273400D02*
Y276800D01*
X388800Y273400D02*
Y276800D01*
X389200Y273400D02*
Y276800D01*
X389600Y273400D02*
Y276800D01*
X390000Y273400D02*
Y276800D01*
X387700Y263800D02*
X390300D01*
Y260400*
X387700*
Y263800*
Y260400D02*
X390300D01*
X387700Y260800D02*
X390300D01*
X387700Y261200D02*
X390300D01*
X387700Y261600D02*
X390300D01*
X387700Y262000D02*
X390300D01*
X387700Y262400D02*
X390300D01*
X387700Y262800D02*
X390300D01*
X387700Y263200D02*
X390300D01*
X387700Y263600D02*
X390300D01*
X388000Y260400D02*
Y263800D01*
X388400Y260400D02*
Y263800D01*
X388800Y260400D02*
Y263800D01*
X389200Y260400D02*
Y263800D01*
X389600Y260400D02*
Y263800D01*
X390000Y260400D02*
Y263800D01*
X387700Y257600D02*
X390300D01*
Y254200*
X387700*
Y257600*
Y254400D02*
X390300D01*
X387700Y254800D02*
X390300D01*
X387700Y255200D02*
X390300D01*
X387700Y255600D02*
X390300D01*
X387700Y256000D02*
X390300D01*
X387700Y256400D02*
X390300D01*
X387700Y256800D02*
X390300D01*
X387700Y257200D02*
X390300D01*
X387700Y257600D02*
X390300D01*
X388000Y254200D02*
Y257600D01*
X388400Y254200D02*
Y257600D01*
X388800Y254200D02*
Y257600D01*
X389200Y254200D02*
Y257600D01*
X389600Y254200D02*
Y257600D01*
X390000Y254200D02*
Y257600D01*
G54D16*
X122000Y225000D03*
X154800Y181700D03*
X182000Y201000D03*
X199717D03*
X182000Y226591D03*
X199717D03*
G54D17*
X215000Y306000D03*
Y316000D03*
X283200Y286600D03*
Y296600D03*
X207300Y172657D03*
X197457Y182500D03*
Y172657D03*
X187221Y182500D03*
Y172657D03*
X188000Y158000D03*
X178000D03*
G54D18*
X188000Y115000D03*
X313000Y315000D03*
Y115000D03*
X188000Y315000D03*
G54D19*
X119500Y202916D02*
Y207714D01*
X119601Y207815*
X124399*
X124500Y207714*
Y202916*
X124399Y202815*
X119601*
X119500Y202916*
Y203000D02*
X124500D01*
X119500Y204000D02*
X124500D01*
X119500Y205000D02*
X124500D01*
X119500Y206000D02*
X124500D01*
X119500Y207000D02*
X124500D01*
X120000Y202815D02*
Y207815D01*
X121000Y202815D02*
Y207815D01*
X122000Y202815D02*
Y207815D01*
X123000Y202815D02*
Y207815D01*
X124000Y202815D02*
Y207815D01*
X132615Y179301D02*
Y184099D01*
X132716Y184200*
X137514*
X137615Y184099*
Y179301*
X137514Y179200*
X132716*
X132615Y179301*
Y180000D02*
X137615D01*
X132615Y181000D02*
X137615D01*
X132615Y182000D02*
X137615D01*
X132615Y183000D02*
X137615D01*
X132615Y184000D02*
X137615D01*
X133000Y179200D02*
Y184200D01*
X134000Y179200D02*
Y184200D01*
X135000Y179200D02*
Y184200D01*
X136000Y179200D02*
Y184200D01*
X137000Y179200D02*
Y184200D01*
X264250Y145043D02*
Y144043D01*
X261750*
Y145043*
X264250*
X261750Y145000D02*
X264250D01*
X262000Y144043D02*
Y145043D01*
X263000Y144043D02*
Y145043D01*
X264000Y144043D02*
Y145043D01*
X264250Y137957D02*
Y136957D01*
X261750*
Y137957*
X264250*
X261750Y137000D02*
X264250D01*
X262000Y136957D02*
Y137957D01*
X263000Y136957D02*
Y137957D01*
X264000Y136957D02*
Y137957D01*
X256376Y141500D02*
Y140500D01*
X253876*
Y141500*
X256376*
X253876Y141000D02*
X256376D01*
X254000Y140500D02*
Y141500D01*
X255000Y140500D02*
Y141500D01*
X256000Y140500D02*
Y141500D01*
X264250Y121043D02*
Y120043D01*
X261750*
Y121043*
X264250*
X261750Y121000D02*
X264250D01*
X262000Y120043D02*
Y121043D01*
X263000Y120043D02*
Y121043D01*
X264000Y120043D02*
Y121043D01*
X264250Y113957D02*
Y112957D01*
X261750*
Y113957*
X264250*
X261750Y113000D02*
X264250D01*
X262000Y112957D02*
Y113957D01*
X263000Y112957D02*
Y113957D01*
X264000Y112957D02*
Y113957D01*
X256376Y117500D02*
Y116500D01*
X253876*
Y117500*
X256376*
X253876Y117000D02*
X256376D01*
X254000Y116500D02*
Y117500D01*
X255000Y116500D02*
Y117500D01*
X256000Y116500D02*
Y117500D01*
X204550Y179750D02*
Y185250D01*
X210050*
Y179750*
X204550*
Y180000D02*
X210050D01*
X204550Y181000D02*
X210050D01*
X204550Y182000D02*
X210050D01*
X204550Y183000D02*
X210050D01*
X204550Y184000D02*
X210050D01*
X204550Y185000D02*
X210050D01*
X205000Y179750D02*
Y185250D01*
X206000Y179750D02*
Y185250D01*
X207000Y179750D02*
Y185250D01*
X208000Y179750D02*
Y185250D01*
X209000Y179750D02*
Y185250D01*
X210000Y179750D02*
Y185250D01*
X276043Y204750D02*
X275043D01*
Y207250*
X276043*
Y204750*
X275043Y205000D02*
X276043D01*
X275043Y206000D02*
X276043D01*
X275043Y207000D02*
X276043D01*
X276000Y204750D02*
Y207250D01*
X268957Y204750D02*
X267957D01*
Y207250*
X268957*
Y204750*
X267957Y205000D02*
X268957D01*
X267957Y206000D02*
X268957D01*
X267957Y207000D02*
X268957D01*
X268000Y204750D02*
Y207250D01*
X272500Y212624D02*
X271500D01*
Y215124*
X272500*
Y212624*
X271500Y213000D02*
X272500D01*
X271500Y214000D02*
X272500D01*
X271500Y215000D02*
X272500D01*
X272000Y212624D02*
Y215124D01*
X372750Y278143D02*
Y277143D01*
X370250*
Y278143*
X372750*
X370250Y278000D02*
X372750D01*
X371000Y277143D02*
Y278143D01*
X372000Y277143D02*
Y278143D01*
X372750Y271057D02*
Y270057D01*
X370250*
Y271057*
X372750*
X370250Y271000D02*
X372750D01*
X371000Y270057D02*
Y271057D01*
X372000Y270057D02*
Y271057D01*
X364876Y274600D02*
Y273600D01*
X362376*
Y274600*
X364876*
X362376Y274000D02*
X364876D01*
X363000Y273600D02*
Y274600D01*
X364000Y273600D02*
Y274600D01*
X372750Y262143D02*
Y261143D01*
X370250*
Y262143*
X372750*
X370250Y262000D02*
X372750D01*
X371000Y261143D02*
Y262143D01*
X372000Y261143D02*
Y262143D01*
X372750Y255057D02*
Y254057D01*
X370250*
Y255057*
X372750*
X370250Y255000D02*
X372750D01*
X371000Y254057D02*
Y255057D01*
X372000Y254057D02*
Y255057D01*
X364876Y258600D02*
Y257600D01*
X362376*
Y258600*
X364876*
X362376Y258000D02*
X364876D01*
X363000Y257600D02*
Y258600D01*
X364000Y257600D02*
Y258600D01*
X370250Y131043D02*
Y130043D01*
X367750*
Y131043*
X370250*
X367750Y131000D02*
X370250D01*
X368000Y130043D02*
Y131043D01*
X369000Y130043D02*
Y131043D01*
X370000Y130043D02*
Y131043D01*
X370250Y123957D02*
Y122957D01*
X367750*
Y123957*
X370250*
X367750Y123000D02*
X370250D01*
X368000Y122957D02*
Y123957D01*
X369000Y122957D02*
Y123957D01*
X370000Y122957D02*
Y123957D01*
X362376Y127500D02*
Y126500D01*
X359876*
Y127500*
X362376*
X359876Y127000D02*
X362376D01*
X360000Y126500D02*
Y127500D01*
X361000Y126500D02*
Y127500D01*
X362000Y126500D02*
Y127500D01*
X371250Y186043D02*
Y185043D01*
X368750*
Y186043*
X371250*
X368750Y186000D02*
X371250D01*
X369000Y185043D02*
Y186043D01*
X370000Y185043D02*
Y186043D01*
X371000Y185043D02*
Y186043D01*
X371250Y178957D02*
Y177957D01*
X368750*
Y178957*
X371250*
X368750Y178000D02*
X371250D01*
X369000Y177957D02*
Y178957D01*
X370000Y177957D02*
Y178957D01*
X371000Y177957D02*
Y178957D01*
X363376Y182500D02*
Y181500D01*
X360876*
Y182500*
X363376*
X360876Y182000D02*
X363376D01*
X361000Y181500D02*
Y182500D01*
X362000Y181500D02*
Y182500D01*
X363000Y181500D02*
Y182500D01*
X371250Y223043D02*
Y222043D01*
X368750*
Y223043*
X371250*
X368750Y223000D02*
X371250D01*
X369000Y222043D02*
Y223043D01*
X370000Y222043D02*
Y223043D01*
X371000Y222043D02*
Y223043D01*
X371250Y215957D02*
Y214957D01*
X368750*
Y215957*
X371250*
X368750Y215000D02*
X371250D01*
X369000Y214957D02*
Y215957D01*
X370000Y214957D02*
Y215957D01*
X371000Y214957D02*
Y215957D01*
X363376Y219500D02*
Y218500D01*
X360876*
Y219500*
X363376*
X360876Y219000D02*
X363376D01*
X361000Y218500D02*
Y219500D01*
X362000Y218500D02*
Y219500D01*
X363000Y218500D02*
Y219500D01*
X364591Y327000D02*
X364818Y327625D01*
X365273Y328250*
X365727Y328563*
X365727D02*
X366636D01*
X366636D02*
X367091Y328250D01*
X367545Y327625*
X367773Y327000*
X368000Y326063*
X368000D02*
Y324500D01*
X367773Y323563*
X367773D02*
X367545Y322938D01*
X367545D02*
X367091Y322313D01*
X367091D02*
X366636Y322000D01*
X365727*
X365273Y322313*
X365273D02*
X364818Y322938D01*
X364818D02*
X364591Y323563D01*
X360727Y328563D02*
X362545Y322000D01*
X360727Y328563D02*
X358909Y322000D01*
X361864Y324188D02*
X359591D01*
X356864Y328563D02*
Y322000D01*
X353682Y328563D02*
Y322000D01*
X356864Y325438D02*
X353682D01*
X222100Y131000D02*
X227000D01*
X187100Y149000D02*
X187654D01*
Y158000*
X188000*
X307700Y155000D02*
X303700Y159000D01*
X289099*
X277800Y170299*
X312400Y155100D02*
X306800Y160700D01*
X291500*
X280800Y171400*
X365900Y165600D02*
Y171000D01*
X207300Y182500D02*
Y191125D01*
X210300Y194125*
Y209800*
X210600Y210100*
Y219900*
X218000Y167200D02*
X224000Y173200D01*
X265300*
X270700Y178600*
X218000Y167200D02*
X186385D01*
X180400Y173185*
Y189000*
X160000Y209400*
Y225000*
X277800Y170299D02*
Y174200D01*
X277900*
X372100Y171000D02*
X379000Y177900D01*
Y178000*
Y185622D02*
Y189500D01*
X376500Y192000*
X372100*
X272000Y202500D02*
X275543Y205120D01*
Y206000*
Y207056*
X282700*
Y207900*
X328400Y203500D02*
X319400D01*
X318000Y204900*
X309600*
X321700Y191200D02*
X311200Y201700D01*
X307300*
X320800Y187300D02*
X315250Y192850D01*
Y193050*
X309700Y198600*
X365900Y197100D02*
X370301Y201501D01*
X373501*
X379000Y207000*
X365900Y192000D02*
Y197100D01*
X235300Y219100D02*
X239000D01*
X235300Y212900D02*
Y213000D01*
X239000*
X281300Y207900D02*
Y212900D01*
X282700*
Y207900D02*
X281300D01*
X288900Y212900D02*
X288500D01*
X283900Y217500*
X278000*
X309400Y220600D02*
X326500D01*
X307200Y223700D02*
X323300D01*
X326500Y220700D02*
Y220600D01*
X326600*
X326300Y206700D02*
X313150D01*
X311850Y208000*
X307300*
Y228100D02*
X323300D01*
X385500Y262100D02*
X389000D01*
Y268900*
X379500Y254100D02*
X384100D01*
X385900Y255900*
X389000*
X206100Y284000D02*
X197300D01*
X195900Y285400*
X192900*
X379500Y269848D02*
X384752Y275100D01*
X389000*
X182450Y158000D02*
G75*
G03X182450I-4450J0D01*
G01X287650Y286600D02*
G03X287650I-4450J0D01*
G01Y296600D02*
G03X287650I-4450J0D01*
G01X219450Y306000D02*
G03X219450I-4450J0D01*
G01Y316000D02*
G03X219450I-4450J0D01*
G01X201908Y182500D02*
G03X201908I-4451J0D01*
G01X203917Y201000D02*
G03X203917I-4200J0D01*
G01Y226591D02*
G03X203917I-4200J0D01*
G01X191671Y182500D02*
G03X191671I-4450J0D01*
G01X186200Y201000D02*
G03X186200I-4200J0D01*
G01Y226591D02*
G03X186200I-4200J0D01*
G01X159000Y181700D02*
G03X159000I-4200J0D01*
G01X141924Y130000D02*
G03X141924I-5924J0D01*
G01X118300Y120943D02*
G03X118300I-6200J0D01*
G01Y135510D02*
G03X118300I-6200J0D01*
G01Y152833D02*
G03X118300I-6200J0D01*
G01Y167400D02*
G03X118300I-6200J0D01*
G01X126200Y225000D02*
G03X126200I-4200J0D01*
G01X123239Y301000D02*
G03X123239I-5924J0D01*
G01X398000Y102000D02*
Y328000D01*
X369700*
Y319312*
X368500Y318112D02*
G03X369700Y319312I0J1200D01*
G01X368500Y318112D02*
X352273D01*
X351073Y319312D02*
G03X352273Y318112I1200J0D01*
G01X351073Y319312D02*
Y328000D01*
X321441*
X304559D02*
G03X321441I8441J-13000D01*
G01X304559D02*
X196441D01*
X179559D02*
G03X196441I8441J-13000D01*
G01X179559D02*
X152500D01*
Y274807*
Y269193D02*
G03Y274807I2500J2807D01*
G01Y269193D02*
Y261028D01*
Y255413D02*
G03Y261028I2500J2807D01*
G01Y255413D02*
Y226800D01*
X157726*
X162274D02*
G03X157726I-2274J-1800D01*
G01X162274D02*
X172300D01*
Y245700*
X172800Y246200D02*
G03X172300Y245700I0J-500D01*
G01X172800Y246200D02*
X175700D01*
X176200Y245700D02*
G03X175700Y246200I-500J0D01*
G01X176200Y245700D02*
Y222000D01*
X175700Y221500D02*
G03X176200Y222000I0J500D01*
G01X175700Y221500D02*
X161700D01*
Y210104*
X181602Y190202*
X182100Y189000D02*
G03X181602Y190202I-1700J0D01*
G01X182100Y189000D02*
Y173890D01*
X182803Y173187*
X189605Y168900D02*
G03X182803Y173187I-2384J3757D01*
G01X189605Y168900D02*
X195073D01*
X199842D02*
G03X195073I-2385J3757D01*
G01X199842D02*
X204916D01*
X209684D02*
G03X204916I-2384J3757D01*
G01X209684D02*
X217296D01*
X222798Y174402*
X224000Y174900D02*
G03X222798Y174402I0J-1700D01*
G01X224000Y174900D02*
X264596D01*
X267837Y178141*
X270241Y175737D02*
G03X267837Y178141I459J2863D01*
G01X270241Y175737D02*
X266502Y171998D01*
X265300Y171500D02*
G03X266502Y171998I0J1700D01*
G01X265300Y171500D02*
X224704D01*
X219202Y165998*
X218000Y165500D02*
G03X219202Y165998I0J1700D01*
G01X218000Y165500D02*
X186385D01*
X185183Y165998D02*
G03X186385Y165500I1202J1202D01*
G01X185183Y165998D02*
X179198Y171983D01*
X178700Y173185D02*
G03X179198Y171983I1700J0D01*
G01X178700Y173185D02*
Y188296D01*
X158798Y208198*
X158300Y209400D02*
G03X158798Y208198I1700J0D01*
G01X158300Y209400D02*
Y221500D01*
X152500*
Y206207*
X157207Y201500*
X163207*
X168500Y196207*
Y102000*
X179559*
X196441D02*
G03X179559I-8441J13000D01*
G01X196441D02*
X304559D01*
X321441D02*
G03X304559I-8441J13000D01*
G01X321441D02*
X398000D01*
X164500D02*
Y191793D01*
X159793Y196500*
X153793*
X148500Y201793*
Y221542*
X148200Y222000D02*
G03X148500Y221542I500J0D01*
G01X148200Y222000D02*
Y226300D01*
X148500Y226758D02*
G03X148200Y226300I200J-458D01*
G01X148500Y226758D02*
Y328000D01*
X102000*
Y102000*
X164500*
X380321Y134811D02*
G03X377679I-1321J3937D01*
G01X380321Y126937D02*
G03Y134811I-1321J3937D01*
G01X375505Y120757D02*
G03X380321Y126937I3495J2243D01*
G01X375505Y120757D02*
X369000D01*
X367379Y121298D02*
G03X369000Y120757I1621J2159D01*
G01X366050Y122957D02*
G03X367379Y121298I1700J-0D01*
G01X366050Y122957D02*
Y123957D01*
X367379Y125616D02*
G03X366050Y123957I371J-1659D01*
G01X369000Y126157D02*
G03X367379Y125616I0J-2700D01*
G01X369000Y126157D02*
X376302D01*
X377679Y126937D02*
G03X376302Y126157I1321J-3937D01*
G01X376161Y127843D02*
G03X377679Y126937I2839J3031D01*
G01X376161Y127843D02*
X369000D01*
X367379Y128384D02*
G03X369000Y127843I1621J2159D01*
G01X366050Y130043D02*
G03X367379Y128384I1700J0D01*
G01X366050Y130043D02*
Y131043D01*
X367379Y132702D02*
G03X366050Y131043I371J-1659D01*
G01X369000Y133243D02*
G03X367379Y132702I0J-2700D01*
G01X369000Y133243D02*
X375589D01*
X377679Y134811D02*
G03X375589Y133243I1321J-3937D01*
G01X380321Y226685D02*
G03X377679I-1321J3937D01*
G01X380321Y218811D02*
G03Y226685I-1321J3937D01*
G01Y210937D02*
G03Y218811I-1321J3937D01*
G01X377523Y203119D02*
G03X380321Y210937I1477J3881D01*
G01X377523Y203119D02*
X374703Y200299D01*
X373501Y199801D02*
G03X374703Y200299I0J1700D01*
G01X373501Y199801D02*
X371005D01*
X368763Y197559*
X367600Y194751D02*
G03X368763Y197559I-1700J2349D01*
G01X367600Y194751D02*
Y194700D01*
X369000Y193308D02*
G03X367600Y194700I-1400J-8D01*
G01X370400D02*
G03X369000Y193308I0J-1400D01*
G01X370400Y194700D02*
X373800D01*
X375142Y193700D02*
G03X373800Y194700I-1342J-400D01*
G01X375142Y193700D02*
X376500D01*
X377702Y193202D02*
G03X376500Y193700I-1202J-1202D01*
G01X377702Y193202D02*
X380202Y190702D01*
X380700Y189500D02*
G03X380202Y190702I-1700J0D01*
G01X380700Y189500D02*
Y189411D01*
X380321Y181685D02*
G03X380700Y189411I-1321J3937D01*
G01X380321Y173811D02*
G03Y181685I-1321J3937D01*
G01Y165937D02*
G03Y173811I-1321J3937D01*
G01X377679Y165937D02*
G03X380321I1321J-3937D01*
G01X374959Y168915D02*
G03X377679Y165937I4041J959D01*
G01X373800Y168300D02*
G03X374959Y168915I0J1400D01*
G01X373800Y168300D02*
X370400D01*
X369000Y169692D02*
G03X370400Y168300I1400J8D01*
G01X367600D02*
G03X369000Y169692I0J1400D01*
G01X367600Y168300D02*
Y167949D01*
X364200D02*
G03X367600I1700J-2349D01*
G01X364200D02*
Y168300D01*
X362800Y169700D02*
G03X364200Y168300I1400J0D01*
G01X362800Y169700D02*
Y172300D01*
X364200Y173700D02*
G03X362800Y172300I0J-1400D01*
G01X364200Y173700D02*
X367600D01*
X369000Y172308D02*
G03X367600Y173700I-1400J-8D01*
G01X370400D02*
G03X369000Y172308I0J-1400D01*
G01X370400Y173700D02*
X372396D01*
X374452Y175757*
X370000*
X368379Y176298D02*
G03X370000Y175757I1621J2159D01*
G01X367050Y177957D02*
G03X368379Y176298I1700J-0D01*
G01X367050Y177957D02*
Y178957D01*
X368379Y180616D02*
G03X367050Y178957I371J-1659D01*
G01X370000Y181157D02*
G03X368379Y180616I0J-2700D01*
G01X370000Y181157D02*
X376628D01*
X377679Y181685D02*
G03X376628Y181157I1321J-3937D01*
G01X375914Y182843D02*
G03X377679Y181685I3086J2779D01*
G01X375914Y182843D02*
X370000D01*
X368379Y183384D02*
G03X370000Y182843I1621J2159D01*
G01X367050Y185043D02*
G03X368379Y183384I1700J0D01*
G01X367050Y185043D02*
Y186043D01*
X368379Y187702D02*
G03X367050Y186043I371J-1659D01*
G01X370000Y188243D02*
G03X368379Y187702I0J-2700D01*
G01X370000Y188243D02*
X375779D01*
X376894Y189201D02*
G03X375779Y188243I2106J-3579D01*
G01X376894Y189201D02*
X375796Y190300D01*
X375142*
X373800Y189300D02*
G03X375142Y190300I0J1400D01*
G01X373800Y189300D02*
X370400D01*
X369000Y190692D02*
G03X370400Y189300I1400J8D01*
G01X367600D02*
G03X369000Y190692I0J1400D01*
G01X367600Y189300D02*
X364200D01*
X362800Y190700D02*
G03X364200Y189300I1400J0D01*
G01X362800Y190700D02*
Y193300D01*
X364200Y194700D02*
G03X362800Y193300I0J-1400D01*
G01X364200Y194700D02*
Y194751D01*
X366359Y199963D02*
G03X364200Y194751I-459J-2863D01*
G01X366359Y199963D02*
X369099Y202703D01*
X370301Y203201D02*
G03X369099Y202703I0J-1700D01*
G01X370301Y203201D02*
X372797D01*
X375119Y205523*
X377679Y210937D02*
G03X375119Y205523I1321J-3937D01*
G01X375428Y212757D02*
G03X377679Y210937I3572J2117D01*
G01X375428Y212757D02*
X370000D01*
X368379Y213298D02*
G03X370000Y212757I1621J2159D01*
G01X367050Y214957D02*
G03X368379Y213298I1700J-0D01*
G01X367050Y214957D02*
Y215957D01*
X368379Y217616D02*
G03X367050Y215957I371J-1659D01*
G01X370000Y218157D02*
G03X368379Y217616I0J-2700D01*
G01X370000Y218157D02*
X376456D01*
X377679Y218811D02*
G03X376456Y218157I1321J-3937D01*
G01X376032Y219843D02*
G03X377679Y218811I2968J2905D01*
G01X376032Y219843D02*
X370000D01*
X368379Y220384D02*
G03X370000Y219843I1621J2159D01*
G01X367050Y222043D02*
G03X368379Y220384I1700J0D01*
G01X367050Y222043D02*
Y223043D01*
X368379Y224702D02*
G03X367050Y223043I371J-1659D01*
G01X370000Y225243D02*
G03X368379Y224702I0J-2700D01*
G01X370000Y225243D02*
X375681D01*
X377679Y226685D02*
G03X375681Y225243I1321J-3937D01*
G01X391700Y276800D02*
Y273400D01*
X390308Y272000D02*
G03X391700Y273400I-8J1400D01*
G01Y270600D02*
G03X390308Y272000I-1400J0D01*
G01X391700Y270600D02*
Y267200D01*
X390700Y265858D02*
G03X391700Y267200I-400J1342D01*
G01X390700Y265858D02*
Y265142D01*
X391700Y263800D02*
G03X390700Y265142I-1400J0D01*
G01X391700Y263800D02*
Y260400D01*
X390308Y259000D02*
G03X391700Y260400I-8J1400D01*
G01Y257600D02*
G03X390308Y259000I-1400J0D01*
G01X391700Y257600D02*
Y254200D01*
X390300Y252800D02*
G03X391700Y254200I0J1400D01*
G01X390300Y252800D02*
X387700D01*
X386328Y253923D02*
G03X387700Y252800I1372J277D01*
G01X386328Y253923D02*
X385302Y252898D01*
X384100Y252400D02*
G03X385302Y252898I0J1700D01*
G01X384100Y252400D02*
X383289D01*
X376005Y251857D02*
G03X383289Y252400I3495J2243D01*
G01X376005Y251857D02*
X371500D01*
X369879Y252398D02*
G03X371500Y251857I1621J2159D01*
G01X368550Y254057D02*
G03X369879Y252398I1700J-0D01*
G01X368550Y254057D02*
Y255057D01*
X369879Y256716D02*
G03X368550Y255057I371J-1659D01*
G01X371500Y257257D02*
G03X369879Y256716I0J-2700D01*
G01X371500Y257257D02*
X376802D01*
X378179Y258037D02*
G03X376802Y257257I1321J-3937D01*
G01X376661Y258943D02*
G03X378179Y258037I2839J3031D01*
G01X376661Y258943D02*
X371500D01*
X369879Y259484D02*
G03X371500Y258943I1621J2159D01*
G01X368550Y261143D02*
G03X369879Y259484I1700J0D01*
G01X368550Y261143D02*
Y262143D01*
X369879Y263802D02*
G03X368550Y262143I371J-1659D01*
G01X371500Y264343D02*
G03X369879Y263802I0J-2700D01*
G01X371500Y264343D02*
X376089D01*
X378179Y265911D02*
G03X376089Y264343I1321J-3937D01*
G01X375856Y267857D02*
G03X378179Y265911I3644J1991D01*
G01X375856Y267857D02*
X371500D01*
X369879Y268398D02*
G03X371500Y267857I1621J2159D01*
G01X368550Y270057D02*
G03X369879Y268398I1700J-0D01*
G01X368550Y270057D02*
Y271057D01*
X369879Y272716D02*
G03X368550Y271057I371J-1659D01*
G01X371500Y273257D02*
G03X369879Y272716I0J-2700D01*
G01X371500Y273257D02*
X377128D01*
X378179Y273785D02*
G03X377128Y273257I1321J-3937D01*
G01X376414Y274943D02*
G03X378179Y273785I3086J2779D01*
G01X376414Y274943D02*
X371500D01*
X369879Y275484D02*
G03X371500Y274943I1621J2159D01*
G01X368550Y277143D02*
G03X369879Y275484I1700J0D01*
G01X368550Y277143D02*
Y278143D01*
X369879Y279802D02*
G03X368550Y278143I371J-1659D01*
G01X371500Y280343D02*
G03X369879Y279802I0J-2700D01*
G01X371500Y280343D02*
X376279D01*
X378179Y281659D02*
G03X376279Y280343I1321J-3937D01*
G01X380821Y281659D02*
G03X378179I-1321J3937D01*
G01X383304Y276056D02*
G03X380821Y281659I-3804J1666D01*
G01X383304Y276056D02*
X383550Y276302D01*
X384752Y276800D02*
G03X383550Y276302I-0J-1700D01*
G01X384752Y276800D02*
X386300D01*
X387700Y278200D02*
G03X386300Y276800I0J-1400D01*
G01X387700Y278200D02*
X390300D01*
X391700Y276800D02*
G03X390300Y278200I-1400J0D01*
G01X365076Y219500D02*
Y218500D01*
X363376Y216800D02*
G03X365076Y218500I-0J1700D01*
G01X363376Y216800D02*
X360876D01*
X359176Y218500D02*
G03X360876Y216800I1700J0D01*
G01X359176Y218500D02*
Y219500D01*
X360876Y221200D02*
G03X359176Y219500I-0J-1700D01*
G01X360876Y221200D02*
X363376D01*
X365076Y219500D02*
G03X363376Y221200I-1700J0D01*
G01X366576Y258600D02*
Y257600D01*
X364876Y255900D02*
G03X366576Y257600I-0J1700D01*
G01X364876Y255900D02*
X362376D01*
X360676Y257600D02*
G03X362376Y255900I1700J0D01*
G01X360676Y257600D02*
Y258600D01*
X362376Y260300D02*
G03X360676Y258600I-0J-1700D01*
G01X362376Y260300D02*
X364876D01*
X366576Y258600D02*
G03X364876Y260300I-1700J0D01*
G01X366576Y274600D02*
Y273600D01*
X364876Y271900D02*
G03X366576Y273600I-0J1700D01*
G01X364876Y271900D02*
X362376D01*
X360676Y273600D02*
G03X362376Y271900I1700J0D01*
G01X360676Y273600D02*
Y274600D01*
X362376Y276300D02*
G03X360676Y274600I-0J-1700D01*
G01X362376Y276300D02*
X364876D01*
X366576Y274600D02*
G03X364876Y276300I-1700J0D01*
G01X326051Y201800D02*
G03X329172Y206295I2349J1700D01*
G01X326051Y201800D02*
X319400D01*
X318198Y202298D02*
G03X319400Y201800I1202J1202D01*
G01X318198Y202298D02*
X317296Y203200D01*
X312000*
X312402Y202902D02*
G03X312000Y203200I-1202J-1202D01*
G01X312402Y202902D02*
X321241Y194063D01*
X323295Y188778D02*
G03X321241Y194063I-1595J2422D01*
G01X317937Y187759D02*
G03X323295Y188778I2863J-459D01*
G01X317937Y187759D02*
X314048Y191648D01*
X313668Y192228D02*
G03X314048Y191648I1582J622D01*
G01X313668Y192228D02*
X310159Y195737D01*
X306810Y198842D02*
G03X310159Y195737I2890J-242D01*
G01X306722Y204542D02*
G03X306810Y198842I578J-2842D01*
G01X306712Y205160D02*
G03X306722Y204542I2888J-260D01*
G01X309649Y209700D02*
G03X306712Y205160I-2349J-1700D01*
G01X309649Y209700D02*
X311850D01*
X313052Y209202D02*
G03X311850Y209700I-1202J-1202D01*
G01X313052Y209202D02*
X313854Y208400D01*
X323951*
X329172Y206295D02*
G03X323951Y208400I-2872J405D01*
G01X324251Y218900D02*
G03X326191Y223471I2349J1700D01*
G01X324251Y218900D02*
X311749D01*
X306514Y220882D02*
G03X311749Y218900I2886J-282D01*
G01X305362Y225943D02*
G03X306514Y220882I1838J-2243D01*
G01X309649Y229800D02*
G03X305362Y225943I-2349J-1700D01*
G01X309649Y229800D02*
X320951D01*
X325189Y225900D02*
G03X320951Y229800I-1889J2200D01*
G01X326191Y223471D02*
G03X325189Y225900I-2891J229D01*
G01X258076Y117500D02*
Y116500D01*
X256376Y114800D02*
G03X258076Y116500I-0J1700D01*
G01X256376Y114800D02*
X253876D01*
X252176Y116500D02*
G03X253876Y114800I1700J0D01*
G01X252176Y116500D02*
Y117500D01*
X253876Y119200D02*
G03X252176Y117500I-0J-1700D01*
G01X253876Y119200D02*
X256376D01*
X258076Y117500D02*
G03X256376Y119200I-1700J0D01*
G01X258076Y141500D02*
Y140500D01*
X256376Y138800D02*
G03X258076Y140500I-0J1700D01*
G01X256376Y138800D02*
X253876D01*
X252176Y140500D02*
G03X253876Y138800I1700J0D01*
G01X252176Y140500D02*
Y141500D01*
X253876Y143200D02*
G03X252176Y141500I-0J-1700D01*
G01X253876Y143200D02*
X256376D01*
X258076Y141500D02*
G03X256376Y143200I-1700J0D01*
G01X224969Y128930D02*
G03Y133070I2031J2070D01*
G01X223800Y128300D02*
G03X224969Y128930I0J1400D01*
G01X223800Y128300D02*
X220400D01*
X219000Y129692D02*
G03X220400Y128300I1400J8D01*
G01X217600D02*
G03X219000Y129692I0J1400D01*
G01X217600Y128300D02*
X214200D01*
X212800Y129700D02*
G03X214200Y128300I1400J0D01*
G01X212800Y129700D02*
Y132300D01*
X214200Y133700D02*
G03X212800Y132300I0J-1400D01*
G01X214200Y133700D02*
X217600D01*
X219000Y132308D02*
G03X217600Y133700I-1400J-8D01*
G01X220400D02*
G03X219000Y132308I0J-1400D01*
G01X220400Y133700D02*
X223800D01*
X224969Y133070D02*
G03X223800Y133700I-1169J-770D01*
G01X189354Y153761D02*
G03X185954Y154048I-1354J4239D01*
G01X189354Y153761D02*
Y151586D01*
X190200Y150300D02*
G03X189354Y151586I-1400J0D01*
G01X190200Y150300D02*
Y147700D01*
X188800Y146300D02*
G03X190200Y147700I0J1400D01*
G01X188800Y146300D02*
X185400D01*
X184000Y147692D02*
G03X185400Y146300I1400J8D01*
G01X182600D02*
G03X184000Y147692I0J1400D01*
G01X182600Y146300D02*
X179200D01*
X177800Y147700D02*
G03X179200Y146300I1400J0D01*
G01X177800Y147700D02*
Y150300D01*
X179200Y151700D02*
G03X177800Y150300I0J-1400D01*
G01X179200Y151700D02*
X182600D01*
X184000Y150308D02*
G03X182600Y151700I-1400J-8D01*
G01X185400D02*
G03X184000Y150308I0J-1400D01*
G01X185400Y151700D02*
X185954D01*
Y154048*
X182450Y158000D02*
G03X182450I-4450J0D01*
G01X292000Y214200D02*
Y211600D01*
X291321Y210400D02*
G03X292000Y211600I-721J1200D01*
G01Y209200D02*
G03X291321Y210400I-1400J0D01*
G01X292000Y209200D02*
Y206600D01*
X290600Y205200D02*
G03X292000Y206600I0J1400D01*
G01X290600Y205200D02*
X287200D01*
X285800Y206592D02*
G03X287200Y205200I1400J8D01*
G01X284400D02*
G03X285800Y206592I0J1400D01*
G01X284400Y205200D02*
X281000D01*
X280359Y205356D02*
G03X281000Y205200I641J1244D01*
G01X280359Y205356D02*
X277743D01*
Y204750*
X276043Y203050D02*
G03X277743Y204750I0J1700D01*
G01X276043Y203050D02*
X275604D01*
X274900Y202530*
X269155Y203062D02*
G03X274900Y202530I2845J-562D01*
G01X268957Y203050D02*
G03X269155Y203062I-0J1700D01*
G01X268957Y203050D02*
X267957D01*
X266257Y204750D02*
G03X267957Y203050I1700J0D01*
G01X266257Y204750D02*
Y207250D01*
X267957Y208950D02*
G03X266257Y207250I-0J-1700D01*
G01X267957Y208950D02*
X268957D01*
X270657Y207250D02*
G03X268957Y208950I-1700J0D01*
G01X270657Y207250D02*
Y205070D01*
X272879Y205264D02*
G03X270657Y205070I-879J-2764D01*
G01X272879Y205264D02*
X273343Y205607D01*
Y207250*
X275043Y208950D02*
G03X273343Y207250I0J-1700D01*
G01X275043Y208950D02*
X276043D01*
X276833Y208756D02*
G03X276043Y208950I-790J-1506D01*
G01X276833Y208756D02*
X279600D01*
Y211600*
Y214200*
X281000Y215600D02*
G03X279600Y214200I0J-1400D01*
G01X281000Y215600D02*
X283396D01*
X283196Y215800*
X280349*
Y219200D02*
G03Y215800I-2349J-1700D01*
G01Y219200D02*
X283900D01*
X285102Y218702D02*
G03X283900Y219200I-1202J-1202D01*
G01X285102Y218702D02*
X288204Y215600D01*
X290600*
X292000Y214200D02*
G03X290600Y215600I-1400J0D01*
G01X287650Y286600D02*
G03X287650I-4450J0D01*
G01Y296600D02*
G03X287650I-4450J0D01*
G01X274200Y215124D02*
Y212624D01*
X272500Y210924D02*
G03X274200Y212624I0J1700D01*
G01X272500Y210924D02*
X271500D01*
X269800Y212624D02*
G03X271500Y210924I1700J0D01*
G01X269800Y212624D02*
Y215124D01*
X271500Y216824D02*
G03X269800Y215124I0J-1700D01*
G01X271500Y216824D02*
X272500D01*
X274200Y215124D02*
G03X272500Y216824I-1700J0D01*
G01X237685Y216515D02*
G03Y221685I1315J2585D01*
G01X236608Y216000D02*
G03X237685Y216515I-8J1400D01*
G01X237625Y215553D02*
G03X236608Y216000I-1025J-953D01*
G01X237740Y210388D02*
G03X237625Y215553I1260J2612D01*
G01X236600Y209800D02*
G03X237740Y210388I0J1400D01*
G01X236600Y209800D02*
X234000D01*
X232600Y211200D02*
G03X234000Y209800I1400J0D01*
G01X232600Y211200D02*
Y214600D01*
X233992Y216000D02*
G03X232600Y214600I8J-1400D01*
G01Y217400D02*
G03X233992Y216000I1400J0D01*
G01X232600Y217400D02*
Y220800D01*
X234000Y222200D02*
G03X232600Y220800I0J-1400D01*
G01X234000Y222200D02*
X236600D01*
X237685Y221685D02*
G03X236600Y222200I-1085J-885D01*
G01X212300Y217551D02*
G03X208900I-1700J2349D01*
G01X212300D02*
Y210100D01*
X212000Y209136D02*
G03X212300Y210100I-1400J964D01*
G01X212000Y209136D02*
Y194125D01*
X211502Y192923D02*
G03X212000Y194125I-1202J1202D01*
G01X211502Y192923D02*
X209000Y190421D01*
Y186950*
X210050*
X211750Y185250D02*
G03X210050Y186950I-1700J0D01*
G01X211750Y185250D02*
Y179750D01*
X210050Y178050D02*
G03X211750Y179750I0J1700D01*
G01X210050Y178050D02*
X204550D01*
X202850Y179750D02*
G03X204550Y178050I1700J0D01*
G01X202850Y179750D02*
Y185250D01*
X204550Y186950D02*
G03X202850Y185250I0J-1700D01*
G01X204550Y186950D02*
X205600D01*
Y191125*
X206098Y192327D02*
G03X205600Y191125I1202J-1202D01*
G01X206098Y192327D02*
X208600Y194829D01*
Y209800*
X208900Y210764D02*
G03X208600Y209800I1400J-964D01*
G01X208900Y210764D02*
Y217551D01*
X219450Y306000D02*
G03X219450I-4450J0D01*
G01Y316000D02*
G03X219450I-4450J0D01*
G01X201908Y182500D02*
G03X201908I-4451J0D01*
G01X203917Y201000D02*
G03X203917I-4200J0D01*
G01Y226591D02*
G03X203917I-4200J0D01*
G01X191671Y182500D02*
G03X191671I-4450J0D01*
G01X203751Y282300D02*
G03Y285700I2349J1700D01*
G01Y282300D02*
X197300D01*
X196098Y282798D02*
G03X197300Y282300I1202J1202D01*
G01X196098Y282798D02*
X195227Y283669D01*
X195249Y287100D02*
G03X195227Y283669I-2349J-1700D01*
G01X195249Y287100D02*
X195900D01*
X197102Y286602D02*
G03X195900Y287100I-1202J-1202D01*
G01X197102Y286602D02*
X198004Y285700D01*
X203751*
X186200Y201000D02*
G03X186200I-4200J0D01*
G01Y226591D02*
G03X186200I-4200J0D01*
G01X272321Y140559D02*
G03X267886Y147243I-1321J3937D01*
G01X272321Y132685D02*
G03Y140559I-1321J3937D01*
G01Y124811D02*
G03Y132685I-1321J3937D01*
G01Y116937D02*
G03Y124811I-1321J3937D01*
G01X267505Y110757D02*
G03X272321Y116937I3495J2243D01*
G01X267505Y110757D02*
X263000D01*
X261379Y111298D02*
G03X263000Y110757I1621J2159D01*
G01X260050Y112957D02*
G03X261379Y111298I1700J-0D01*
G01X260050Y112957D02*
Y113957D01*
X261379Y115616D02*
G03X260050Y113957I371J-1659D01*
G01X263000Y116157D02*
G03X261379Y115616I0J-2700D01*
G01X263000Y116157D02*
X268302D01*
X269679Y116937D02*
G03X268302Y116157I1321J-3937D01*
G01X268161Y117843D02*
G03X269679Y116937I2839J3031D01*
G01X268161Y117843D02*
X263000D01*
X261379Y118384D02*
G03X263000Y117843I1621J2159D01*
G01X260050Y120043D02*
G03X261379Y118384I1700J0D01*
G01X260050Y120043D02*
Y121043D01*
X261379Y122702D02*
G03X260050Y121043I371J-1659D01*
G01X263000Y123243D02*
G03X261379Y122702I0J-2700D01*
G01X263000Y123243D02*
X267589D01*
X269679Y124811D02*
G03X267589Y123243I1321J-3937D01*
G01X269679Y132685D02*
G03Y124811I1321J-3937D01*
G01X267290Y134757D02*
G03X269679Y132685I3710J1865D01*
G01X267290Y134757D02*
X263000D01*
X261379Y135298D02*
G03X263000Y134757I1621J2159D01*
G01X260050Y136957D02*
G03X261379Y135298I1700J-0D01*
G01X260050Y136957D02*
Y137957D01*
X261379Y139616D02*
G03X260050Y137957I371J-1659D01*
G01X263000Y140157D02*
G03X261379Y139616I0J-2700D01*
G01X263000Y140157D02*
X268820D01*
X269679Y140559D02*
G03X268820Y140157I1321J-3937D01*
G01X267805Y141843D02*
G03X269679Y140559I3195J2653D01*
G01X267805Y141843D02*
X263000D01*
X261379Y142384D02*
G03X263000Y141843I1621J2159D01*
G01X260050Y144043D02*
G03X261379Y142384I1700J0D01*
G01X260050Y144043D02*
Y145043D01*
X261379Y146702D02*
G03X260050Y145043I371J-1659D01*
G01X263000Y147243D02*
G03X261379Y146702I0J-2700D01*
G01X263000Y147243D02*
X267886D01*
X310086Y153352D02*
G03X311941Y157963I2314J1748D01*
G01X304837Y155459D02*
G03X310086Y153352I2863J-459D01*
G01X304837Y155459D02*
X302996Y157300D01*
X289099*
X287897Y157798D02*
G03X289099Y157300I1202J1202D01*
G01X287897Y157798D02*
X276598Y169097D01*
X276100Y170299D02*
G03X276598Y169097I1700J-0D01*
G01X276100Y170299D02*
Y171926D01*
X280798Y174300D02*
G03X276100Y171926I-2898J-100D01*
G01X283663Y170941D02*
G03X280798Y174300I-2863J459D01*
G01X283663Y170941D02*
X292204Y162400D01*
X306800*
X308002Y161902D02*
G03X306800Y162400I-1202J-1202D01*
G01X308002Y161902D02*
X311941Y157963D01*
X365076Y182500D02*
Y181500D01*
X363376Y179800D02*
G03X365076Y181500I-0J1700D01*
G01X363376Y179800D02*
X360876D01*
X359176Y181500D02*
G03X360876Y179800I1700J0D01*
G01X359176Y181500D02*
Y182500D01*
X360876Y184200D02*
G03X359176Y182500I-0J-1700D01*
G01X360876Y184200D02*
X363376D01*
X365076Y182500D02*
G03X363376Y184200I-1700J0D01*
G01X364076Y127500D02*
Y126500D01*
X362376Y124800D02*
G03X364076Y126500I-0J1700D01*
G01X362376Y124800D02*
X359876D01*
X358176Y126500D02*
G03X359876Y124800I1700J0D01*
G01X358176Y126500D02*
Y127500D01*
X359876Y129200D02*
G03X358176Y127500I-0J-1700D01*
G01X359876Y129200D02*
X362376D01*
X364076Y127500D02*
G03X362376Y129200I-1700J0D01*
G01X159000Y181700D02*
G03X159000I-4200J0D01*
G01X141924Y130000D02*
G03X141924I-5924J0D01*
G01X139315Y184306D02*
Y179094D01*
X138964Y178245D02*
G03X139315Y179094I-849J849D01*
G01X138964Y178245D02*
X138570Y177851D01*
X137721Y177500D02*
G03X138570Y177851I0J1200D01*
G01X137721Y177500D02*
X132509D01*
X131660Y177851D02*
G03X132509Y177500I849J849D01*
G01X131660Y177851D02*
X131266Y178245D01*
X130915Y179094D02*
G03X131266Y178245I1200J-0D01*
G01X130915Y179094D02*
Y184306D01*
X131266Y185155D02*
G03X130915Y184306I849J-849D01*
G01X131266Y185155D02*
X131660Y185549D01*
X132509Y185900D02*
G03X131660Y185549I-0J-1200D01*
G01X132509Y185900D02*
X137721D01*
X138570Y185549D02*
G03X137721Y185900I-849J-849D01*
G01X138570Y185549D02*
X138964Y185155D01*
X139315Y184306D02*
G03X138964Y185155I-1200J0D01*
G01X118300Y120943D02*
G03X118300I-6200J0D01*
G01Y135510D02*
G03X118300I-6200J0D01*
G01Y152833D02*
G03X118300I-6200J0D01*
G01Y167400D02*
G03X118300I-6200J0D01*
G01X126200Y207921D02*
Y202709D01*
X125849Y201860D02*
G03X126200Y202709I-849J849D01*
G01X125849Y201860D02*
X125455Y201466D01*
X124606Y201115D02*
G03X125455Y201466I0J1200D01*
G01X124606Y201115D02*
X119394D01*
X118545Y201466D02*
G03X119394Y201115I849J849D01*
G01X118545Y201466D02*
X118151Y201860D01*
X117800Y202709D02*
G03X118151Y201860I1200J-0D01*
G01X117800Y202709D02*
Y207921D01*
X118151Y208770D02*
G03X117800Y207921I849J-849D01*
G01X118151Y208770D02*
X118545Y209164D01*
X119394Y209515D02*
G03X118545Y209164I-0J-1200D01*
G01X119394Y209515D02*
X124606D01*
X125455Y209164D02*
G03X124606Y209515I-849J-849D01*
G01X125455Y209164D02*
X125849Y208770D01*
X126200Y207921D02*
G03X125849Y208770I-1200J0D01*
G01X126200Y225000D02*
G03X126200I-4200J0D01*
G01X123239Y301000D02*
G03X123239I-5924J0D01*
G01X369700Y327299D02*
X398000D01*
X369700Y326399D02*
X398000D01*
X369700Y325499D02*
X398000D01*
X369700Y324599D02*
X398000D01*
X369700Y323699D02*
X398000D01*
X369700Y322799D02*
X398000D01*
X369700Y321899D02*
X398000D01*
X369700Y320999D02*
X398000D01*
X369700Y320099D02*
X398000D01*
X369695Y319199D02*
X398000D01*
X369142Y318299D02*
X398000D01*
X328313Y317399D02*
X398000D01*
X328427Y316499D02*
X398000D01*
X328488Y315599D02*
X398000D01*
X328497Y314699D02*
X398000D01*
X328453Y313799D02*
X398000D01*
X328357Y312899D02*
X398000D01*
X328207Y311999D02*
X398000D01*
X328001Y311099D02*
X398000D01*
X327738Y310199D02*
X398000D01*
X327413Y309299D02*
X398000D01*
X327024Y308399D02*
X398000D01*
X326564Y307499D02*
X398000D01*
X326026Y306599D02*
X398000D01*
X325399Y305699D02*
X398000D01*
X324670Y304799D02*
X398000D01*
X323817Y303899D02*
X398000D01*
X322809Y302999D02*
X398000D01*
X321591Y302099D02*
X398000D01*
X320055Y301199D02*
X398000D01*
X317911Y300299D02*
X398000D01*
X286660Y299399D02*
X398000D01*
X287225Y298499D02*
X398000D01*
X287537Y297599D02*
X398000D01*
X287649Y296699D02*
X398000D01*
X287577Y295799D02*
X398000D01*
X287312Y294899D02*
X398000D01*
X286811Y293999D02*
X398000D01*
X285947Y293099D02*
X398000D01*
X283857Y292199D02*
X398000D01*
X152500Y291299D02*
X398000D01*
X285518Y290399D02*
X398000D01*
X380920Y289499D02*
X398000D01*
X382369Y288599D02*
X398000D01*
X383081Y287699D02*
X398000D01*
X383475Y286799D02*
X398000D01*
X383642Y285899D02*
X398000D01*
X383610Y284999D02*
X398000D01*
X383373Y284099D02*
X398000D01*
X382891Y283199D02*
X398000D01*
X382024Y282299D02*
X398000D01*
X381431Y281399D02*
X398000D01*
X382588Y280499D02*
X398000D01*
X383205Y279599D02*
X398000D01*
X383536Y278699D02*
X398000D01*
X391281Y277799D02*
X398000D01*
X391697Y276899D02*
X398000D01*
X391700Y275999D02*
X398000D01*
X391700Y275099D02*
X398000D01*
X391700Y274199D02*
X398000D01*
X391696Y273299D02*
X398000D01*
X391278Y272399D02*
X398000D01*
X391374Y271499D02*
X398000D01*
X391700Y270599D02*
X398000D01*
X391700Y269699D02*
X398000D01*
X391700Y268799D02*
X398000D01*
X391700Y267899D02*
X398000D01*
X391685Y266999D02*
X398000D01*
X391164Y266099D02*
X398000D01*
X390700Y265199D02*
X398000D01*
X391608Y264299D02*
X398000D01*
X391700Y263399D02*
X398000D01*
X391700Y262499D02*
X398000D01*
X391700Y261599D02*
X398000D01*
X391700Y260699D02*
X398000D01*
X391564Y259799D02*
X398000D01*
X390823Y258899D02*
X398000D01*
X391642Y257999D02*
X398000D01*
X391700Y257099D02*
X398000D01*
X391700Y256199D02*
X398000D01*
X391700Y255299D02*
X398000D01*
X391700Y254399D02*
X398000D01*
X391512Y253499D02*
X398000D01*
X384898Y252599D02*
X398000D01*
X382888Y251699D02*
X398000D01*
X382019Y250799D02*
X398000D01*
X152500Y249899D02*
X398000D01*
X152500Y248999D02*
X398000D01*
X152500Y248099D02*
X398000D01*
X152500Y247199D02*
X398000D01*
X152500Y246299D02*
X398000D01*
X176200Y245399D02*
X398000D01*
X176200Y244499D02*
X398000D01*
X176200Y243599D02*
X398000D01*
X176200Y242699D02*
X398000D01*
X176200Y241799D02*
X398000D01*
X176200Y240899D02*
X398000D01*
X176200Y239999D02*
X398000D01*
X176200Y239099D02*
X398000D01*
X176200Y238199D02*
X398000D01*
X176200Y237299D02*
X398000D01*
X176200Y236399D02*
X398000D01*
X176200Y235499D02*
X398000D01*
X380197Y234599D02*
X398000D01*
X381789Y233699D02*
X398000D01*
X382537Y232799D02*
X398000D01*
X382952Y231899D02*
X398000D01*
X383136Y230999D02*
X398000D01*
X383120Y230099D02*
X398000D01*
X382901Y229199D02*
X398000D01*
X382442Y228299D02*
X398000D01*
X381618Y227399D02*
X398000D01*
X380783Y226499D02*
X398000D01*
X382020Y225599D02*
X398000D01*
X382666Y224699D02*
X398000D01*
X383018Y223799D02*
X398000D01*
X383150Y222899D02*
X398000D01*
X383085Y221999D02*
X398000D01*
X382811Y221099D02*
X398000D01*
X382278Y220199D02*
X398000D01*
X381312Y219299D02*
X398000D01*
X381196Y218399D02*
X398000D01*
X382218Y217499D02*
X398000D01*
X382778Y216599D02*
X398000D01*
X383070Y215699D02*
X398000D01*
X383152Y214799D02*
X398000D01*
X383037Y213899D02*
X398000D01*
X382705Y212999D02*
X398000D01*
X382089Y212099D02*
X398000D01*
X380933Y211199D02*
X398000D01*
X381523Y210299D02*
X398000D01*
X382390Y209399D02*
X398000D01*
X382873Y208499D02*
X398000D01*
X383109Y207599D02*
X398000D01*
X383142Y206699D02*
X398000D01*
X382975Y205799D02*
X398000D01*
X382582Y204899D02*
X398000D01*
X381870Y203999D02*
X398000D01*
X380423Y203099D02*
X398000D01*
X376603Y202199D02*
X398000D01*
X375703Y201299D02*
X398000D01*
X374803Y200399D02*
X398000D01*
X370703Y199499D02*
X398000D01*
X369803Y198599D02*
X398000D01*
X368903Y197699D02*
X398000D01*
X368784Y196799D02*
X398000D01*
X368540Y195899D02*
X398000D01*
X367899Y194999D02*
X398000D01*
X374950Y194099D02*
X398000D01*
X377706Y193199D02*
X398000D01*
X378606Y192299D02*
X398000D01*
X379506Y191399D02*
X398000D01*
X380376Y190499D02*
X398000D01*
X380697Y189599D02*
X398000D01*
X381789Y188699D02*
X398000D01*
X382537Y187799D02*
X398000D01*
X382952Y186899D02*
X398000D01*
X383136Y185999D02*
X398000D01*
X383120Y185099D02*
X398000D01*
X382901Y184199D02*
X398000D01*
X382442Y183299D02*
X398000D01*
X381618Y182399D02*
X398000D01*
X380783Y181499D02*
X398000D01*
X382020Y180599D02*
X398000D01*
X382666Y179699D02*
X398000D01*
X383018Y178799D02*
X398000D01*
X383150Y177899D02*
X398000D01*
X383085Y176999D02*
X398000D01*
X382811Y176099D02*
X398000D01*
X382278Y175199D02*
X398000D01*
X381312Y174299D02*
X398000D01*
X381196Y173399D02*
X398000D01*
X382218Y172499D02*
X398000D01*
X382778Y171599D02*
X398000D01*
X383070Y170699D02*
X398000D01*
X383152Y169799D02*
X398000D01*
X383037Y168899D02*
X398000D01*
X382705Y167999D02*
X398000D01*
X382089Y167099D02*
X398000D01*
X380933Y166199D02*
X398000D01*
X381523Y165299D02*
X398000D01*
X382390Y164399D02*
X398000D01*
X382873Y163499D02*
X398000D01*
X383109Y162599D02*
X398000D01*
X383142Y161699D02*
X398000D01*
X382975Y160799D02*
X398000D01*
X382582Y159899D02*
X398000D01*
X381870Y158999D02*
X398000D01*
X380423Y158099D02*
X398000D01*
X314401Y157199D02*
X398000D01*
X315041Y156299D02*
X398000D01*
X315285Y155399D02*
X398000D01*
X315237Y154499D02*
X398000D01*
X314881Y153599D02*
X398000D01*
X314026Y152699D02*
X398000D01*
X189354Y151799D02*
X398000D01*
X190066Y150899D02*
X398000D01*
X190200Y149999D02*
X398000D01*
X190200Y149099D02*
X398000D01*
X272880Y148199D02*
X398000D01*
X274064Y147299D02*
X398000D01*
X274691Y146399D02*
X398000D01*
X275030Y145499D02*
X398000D01*
X275152Y144599D02*
X398000D01*
X275076Y143699D02*
X398000D01*
X379915Y142799D02*
X398000D01*
X381705Y141899D02*
X398000D01*
X382490Y140999D02*
X398000D01*
X382927Y140099D02*
X398000D01*
X383128Y139199D02*
X398000D01*
X383128Y138299D02*
X398000D01*
X382927Y137399D02*
X398000D01*
X382491Y136499D02*
X398000D01*
X381707Y135599D02*
X398000D01*
X380618Y134699D02*
X398000D01*
X381948Y133799D02*
X398000D01*
X382626Y132899D02*
X398000D01*
X382998Y131999D02*
X398000D01*
X383147Y131099D02*
X398000D01*
X383097Y130199D02*
X398000D01*
X382842Y129299D02*
X398000D01*
X382334Y128399D02*
X398000D01*
X381419Y127499D02*
X398000D01*
X381072Y126599D02*
X398000D01*
X382156Y125699D02*
X398000D01*
X382743Y124799D02*
X398000D01*
X383054Y123899D02*
X398000D01*
X383153Y122999D02*
X398000D01*
X383054Y122099D02*
X398000D01*
X382742Y121199D02*
X398000D01*
X382154Y120299D02*
X398000D01*
X381068Y119399D02*
X398000D01*
X328100Y118499D02*
X398000D01*
X328281Y117599D02*
X398000D01*
X328407Y116699D02*
X398000D01*
X328479Y115799D02*
X398000D01*
X328500Y114899D02*
X398000D01*
X328468Y113999D02*
X398000D01*
X328383Y113099D02*
X398000D01*
X328245Y112199D02*
X398000D01*
X328052Y111299D02*
X398000D01*
X327801Y110399D02*
X398000D01*
X327491Y109499D02*
X398000D01*
X327116Y108599D02*
X398000D01*
X326673Y107699D02*
X398000D01*
X326153Y106799D02*
X398000D01*
X325547Y105899D02*
X398000D01*
X324842Y104999D02*
X398000D01*
X324019Y104099D02*
X398000D01*
X323049Y103199D02*
X398000D01*
X321884Y102299D02*
X398000D01*
X383652Y277799D02*
X386719D01*
X385903Y253499D02*
X386488D01*
X383570Y276899D02*
X386303D01*
X274790Y142799D02*
X378085D01*
X286576Y289499D02*
X378080D01*
X366576Y257999D02*
X378070D01*
X176200Y234599D02*
X377803D01*
X152500Y266099D02*
X377715D01*
X377503Y203099D02*
X377577D01*
X311806Y158099D02*
X377577D01*
X207382Y281399D02*
X377569D01*
X274681Y134699D02*
X377382D01*
X366576Y274199D02*
X377302D01*
X325718Y226499D02*
X377217D01*
X365076Y181499D02*
X377217D01*
X366549Y273299D02*
X377189D01*
X291941Y211199D02*
X377067D01*
X368738Y166199D02*
X377067D01*
X152500Y250799D02*
X376981D01*
X284341Y282299D02*
X376976D01*
X327863Y119399D02*
X376932D01*
X364076Y126599D02*
X376928D01*
X152500Y265199D02*
X376883D01*
X365073Y218399D02*
X376804D01*
X366550Y258899D02*
X376709D01*
X365076Y219299D02*
X376688D01*
X287176Y288599D02*
X376631D01*
X364076Y127499D02*
X376581D01*
X374664Y189599D02*
X376497D01*
X152500Y266999D02*
X376479D01*
X309068Y210299D02*
X376477D01*
X368784Y165299D02*
X376477D01*
X152500Y280499D02*
X376412D01*
X326114Y227399D02*
X376382D01*
X365076Y182399D02*
X376382D01*
X274240Y141899D02*
X376295D01*
X275025Y135599D02*
X376293D01*
X176200Y233699D02*
X376211D01*
X323340Y188699D02*
X376211D01*
X310906Y158999D02*
X376130D01*
X152500Y251699D02*
X376112D01*
X286069Y283199D02*
X376109D01*
X274045Y133799D02*
X376052D01*
X325492Y225599D02*
X375980D01*
X287512Y287699D02*
X375919D01*
X292000Y212099D02*
X375911D01*
X368383Y167099D02*
X375911D01*
X327566Y120299D02*
X375846D01*
X286881Y284099D02*
X375627D01*
X327362Y209399D02*
X375610D01*
X368540Y164399D02*
X375610D01*
X326193Y228299D02*
X375558D01*
X287646Y286799D02*
X375525D01*
X273239Y140999D02*
X375510D01*
X275151Y136499D02*
X375509D01*
X176200Y232799D02*
X375463D01*
X310006Y159899D02*
X375418D01*
X287352Y284999D02*
X375390D01*
X287594Y285899D02*
X375358D01*
X367600Y167999D02*
X375295D01*
X328575Y208499D02*
X375127D01*
X367899Y163499D02*
X375127D01*
X325984Y229199D02*
X375099D01*
X273271Y140099D02*
X375073D01*
X275080Y137399D02*
X375073D01*
X176200Y231899D02*
X375048D01*
X330168Y205799D02*
X375025D01*
X309106Y160799D02*
X375025D01*
X374948Y168899D02*
X374963D01*
X329057Y207599D02*
X374891D01*
X292006Y162599D02*
X374891D01*
X325401Y230099D02*
X374880D01*
X274257Y139199D02*
X374872D01*
X274799Y138299D02*
X374872D01*
X323388Y230999D02*
X374864D01*
X329200Y206699D02*
X374858D01*
X308206Y161699D02*
X374858D01*
X330940Y204899D02*
X374494D01*
X280623Y175199D02*
X373894D01*
X331257Y203999D02*
X373594D01*
X280888Y174299D02*
X372994D01*
X152500Y267899D02*
X371026D01*
X152500Y264299D02*
X371011D01*
X366501Y275099D02*
X370597D01*
X366500Y257099D02*
X370590D01*
X331272Y203099D02*
X369720D01*
X368464Y189599D02*
X369536D01*
X368468Y173399D02*
X369532D01*
X152500Y252599D02*
X369376D01*
X152500Y279599D02*
X369371D01*
X368748Y168899D02*
X369252D01*
X368750Y194099D02*
X369250D01*
X366081Y259799D02*
X369210D01*
X366079Y272399D02*
X369206D01*
X156970Y268799D02*
X369107D01*
X152500Y263399D02*
X369104D01*
X368985Y190499D02*
X369015D01*
X368986Y172499D02*
X369014D01*
X365842Y275999D02*
X368993D01*
X365838Y256199D02*
X368991D01*
X292000Y212999D02*
X368883D01*
X280092Y176099D02*
X368685D01*
X364926Y220199D02*
X368661D01*
X152500Y253499D02*
X368644D01*
X152500Y278699D02*
X368643D01*
X157827Y260699D02*
X368609D01*
X158725Y271499D02*
X368608D01*
X330992Y202199D02*
X368594D01*
X157972Y269699D02*
X368588D01*
X152500Y262499D02*
X368588D01*
X152500Y276899D02*
X368568D01*
X157365Y255299D02*
X368567D01*
X152500Y277799D02*
X368550D01*
X158488Y270599D02*
X368550D01*
X156649Y261599D02*
X368550D01*
X152500Y254399D02*
X368550D01*
X323657Y187799D02*
X368516D01*
X364877Y183299D02*
X368499D01*
X326023Y224699D02*
X368363D01*
X364817Y180599D02*
X368310D01*
X364750Y217499D02*
X368034D01*
X330288Y201299D02*
X367694D01*
X272839Y132899D02*
X367680D01*
X327207Y121199D02*
X367520D01*
X363875Y125699D02*
X367495D01*
X292000Y213899D02*
X367419D01*
X278660Y176999D02*
X367346D01*
X363954Y221099D02*
X367337D01*
X363819Y128399D02*
X367320D01*
X323672Y186899D02*
X367281D01*
X363443Y184199D02*
X367275D01*
X326198Y223799D02*
X367227D01*
X273384Y179699D02*
X367220D01*
X287206Y216599D02*
X367176D01*
X291866Y214799D02*
X367057D01*
X273514Y177899D02*
X367051D01*
X329140Y221999D02*
X367051D01*
X328368Y222899D02*
X367050D01*
X288106Y215699D02*
X367050D01*
X323392Y185999D02*
X367050D01*
X322688Y185099D02*
X367050D01*
X273593Y178799D02*
X367050D01*
X314906Y200399D02*
X366794D01*
X273584Y131999D02*
X366344D01*
X326779Y122099D02*
X366282D01*
X325010Y124799D02*
X366273D01*
X318983Y129299D02*
X366222D01*
X274423Y131099D02*
X366051D01*
X316041Y130199D02*
X366050D01*
X325691Y123899D02*
X366050D01*
X326277Y122999D02*
X366050D01*
X315806Y199499D02*
X364270D01*
X286606Y167999D02*
X364200D01*
X320306Y194999D02*
X363901D01*
X291106Y163499D02*
X363901D01*
X316706Y198599D02*
X363417D01*
X287506Y167099D02*
X363417D01*
X324118Y189599D02*
X363336D01*
X282901Y173399D02*
X363332D01*
X319406Y195899D02*
X363260D01*
X290206Y164399D02*
X363260D01*
X317606Y197699D02*
X363062D01*
X288406Y166199D02*
X363062D01*
X285706Y168899D02*
X363052D01*
X321788Y194099D02*
X363050D01*
X318506Y196799D02*
X363016D01*
X289306Y165299D02*
X363016D01*
X324514Y190499D02*
X362815D01*
X283484Y172499D02*
X362814D01*
X323801Y193199D02*
X362800D01*
X324384Y192299D02*
X362800D01*
X324593Y191399D02*
X362800D01*
X283693Y171599D02*
X362800D01*
X283906Y170699D02*
X362800D01*
X284806Y169799D02*
X362800D01*
X158169Y256199D02*
X361413D01*
X152500Y275999D02*
X361410D01*
X158738Y272399D02*
X361173D01*
X158412Y259799D02*
X361170D01*
X211750Y184199D02*
X360809D01*
X158588Y257099D02*
X360752D01*
X157128Y275099D02*
X360751D01*
X158528Y273299D02*
X360703D01*
X158697Y258899D02*
X360702D01*
X158049Y274199D02*
X360676D01*
X158753Y257999D02*
X360676D01*
X329457Y221099D02*
X360298D01*
X286306Y217499D02*
X359502D01*
X272801Y180599D02*
X359435D01*
X211750Y183299D02*
X359375D01*
X329472Y220199D02*
X359326D01*
X328488Y218399D02*
X359179D01*
X329192Y219299D02*
X359176D01*
X211750Y182399D02*
X359176D01*
X270788Y181499D02*
X359176D01*
X320793Y128399D02*
X358433D01*
X324216Y125699D02*
X358377D01*
X322167Y127499D02*
X358176D01*
X323282Y126599D02*
X358176D01*
X328145Y318299D02*
X351631D01*
X327921Y319199D02*
X351078D01*
X322434Y327299D02*
X351073D01*
X323503Y326399D02*
X351073D01*
X324403Y325499D02*
X351073D01*
X325170Y324599D02*
X351073D01*
X325829Y323699D02*
X351073D01*
X326395Y322799D02*
X351073D01*
X326880Y321899D02*
X351073D01*
X327292Y320999D02*
X351073D01*
X327637Y320099D02*
X351073D01*
X314006Y201299D02*
X326512D01*
X312816Y209399D02*
X325238D01*
X311288Y218399D02*
X324712D01*
X313756Y208499D02*
X324025D01*
X307388Y230999D02*
X323212D01*
X321206Y194099D02*
X321612D01*
X309401Y230099D02*
X321199D01*
X211750Y185099D02*
X318912D01*
X313106Y202199D02*
X318306D01*
X211576Y185999D02*
X318208D01*
X210465Y186899D02*
X317928D01*
X209000Y187799D02*
X317897D01*
X312166Y203099D02*
X317397D01*
X209000Y188699D02*
X316997D01*
X209000Y189599D02*
X316097D01*
X209078Y190499D02*
X315197D01*
X209978Y191399D02*
X314297D01*
X210878Y192299D02*
X313597D01*
X211725Y193199D02*
X312697D01*
X212000Y194099D02*
X311797D01*
X212000Y194999D02*
X310897D01*
X309465Y152699D02*
X310774D01*
X274891Y130199D02*
X309959D01*
X212000Y195899D02*
X308645D01*
X285674Y300299D02*
X308089D01*
X285406Y218399D02*
X307512D01*
X212000Y196799D02*
X307427D01*
X176200Y230999D02*
X307212D01*
X275116Y129299D02*
X307017D01*
X212000Y197699D02*
X306944D01*
X280275Y219299D02*
X306808D01*
X212000Y198599D02*
X306800D01*
X277743Y204899D02*
X306700D01*
X279062Y220199D02*
X306528D01*
X195055Y301199D02*
X305945D01*
X189354Y152699D02*
X305935D01*
X241101Y221099D02*
X305918D01*
X291468Y210299D02*
X305532D01*
X277568Y203999D02*
X305532D01*
X291748Y205799D02*
X305412D01*
X212000Y199499D02*
X305412D01*
X275138Y128399D02*
X305207D01*
X202026Y230099D02*
X305199D01*
X189354Y153599D02*
X305161D01*
X203798Y225599D02*
X305008D01*
X203916Y226499D02*
X304882D01*
X239088Y221999D02*
X304851D01*
X190747Y154499D02*
X304844D01*
X191611Y155399D02*
X304828D01*
X291986Y209399D02*
X304760D01*
X276447Y203099D02*
X304760D01*
X292000Y206699D02*
X304708D01*
X273999Y200399D02*
X304708D01*
X203009Y229199D02*
X304616D01*
X203838Y227399D02*
X304486D01*
X203466Y224699D02*
X304477D01*
X292000Y208499D02*
X304443D01*
X274884Y202199D02*
X304443D01*
X292000Y207599D02*
X304428D01*
X274640Y201299D02*
X304428D01*
X201719Y222899D02*
X304413D01*
X217141Y302099D02*
X304409D01*
X203554Y228299D02*
X304407D01*
X202854Y223799D02*
X304302D01*
X196884Y102299D02*
X304116D01*
X192112Y156299D02*
X303997D01*
X274960Y127499D02*
X303833D01*
X197434Y327299D02*
X303566D01*
X218286Y302999D02*
X303191D01*
X192377Y157199D02*
X303097D01*
X198049Y103199D02*
X302951D01*
X274553Y126599D02*
X302718D01*
X198503Y326399D02*
X302497D01*
X218923Y303899D02*
X302183D01*
X199019Y104099D02*
X301981D01*
X273819Y125699D02*
X301784D01*
X199403Y325499D02*
X301597D01*
X219285Y304799D02*
X301330D01*
X199842Y104999D02*
X301158D01*
X272357Y124799D02*
X300990D01*
X200170Y324599D02*
X300830D01*
X219440Y305699D02*
X300601D01*
X200547Y105899D02*
X300453D01*
X273846Y123899D02*
X300309D01*
X200829Y323699D02*
X300171D01*
X219410Y306599D02*
X299974D01*
X201153Y106799D02*
X299847D01*
X274568Y122999D02*
X299723D01*
X201395Y322799D02*
X299605D01*
X219190Y307499D02*
X299436D01*
X201673Y107699D02*
X299327D01*
X274968Y122099D02*
X299221D01*
X201880Y321899D02*
X299120D01*
X218748Y308399D02*
X298976D01*
X202116Y108599D02*
X298884D01*
X275140Y121199D02*
X298793D01*
X202292Y320999D02*
X298708D01*
X217987Y309299D02*
X298587D01*
X273233Y109499D02*
X298509D01*
X275113Y120299D02*
X298434D01*
X216733Y320099D02*
X298363D01*
X216474Y310199D02*
X298262D01*
X274237Y110399D02*
X298199D01*
X274882Y119399D02*
X298137D01*
X218094Y319199D02*
X298079D01*
X203001Y311099D02*
X297999D01*
X274788Y111299D02*
X297948D01*
X274406Y118499D02*
X297900D01*
X218810Y318299D02*
X297855D01*
X216947Y311999D02*
X297793D01*
X275075Y112199D02*
X297755D01*
X273553Y117599D02*
X297719D01*
X219224Y317399D02*
X297687D01*
X218191Y312899D02*
X297643D01*
X275152Y113099D02*
X297617D01*
X272888Y116699D02*
X297593D01*
X219422Y316499D02*
X297573D01*
X218867Y313799D02*
X297547D01*
X275031Y113999D02*
X297532D01*
X274068Y115799D02*
X297521D01*
X219432Y315599D02*
X297512D01*
X219255Y314699D02*
X297503D01*
X274693Y114899D02*
X297500D01*
X192449Y158099D02*
X287596D01*
X192337Y158999D02*
X286696D01*
X285548Y205799D02*
X286052D01*
X192025Y159899D02*
X285796D01*
X191460Y160799D02*
X284896D01*
X190474Y161699D02*
X283996D01*
X280273Y215699D02*
X283297D01*
X168500Y162599D02*
X283096D01*
X152500Y292199D02*
X282543D01*
X168500Y163499D02*
X282196D01*
X208449Y282299D02*
X282059D01*
X168500Y164399D02*
X281296D01*
X152500Y290399D02*
X280882D01*
X192911Y300299D02*
X280726D01*
X152500Y293099D02*
X280453D01*
X168500Y165299D02*
X280396D01*
X208887Y283199D02*
X280331D01*
X152500Y289499D02*
X279824D01*
X152500Y299399D02*
X279740D01*
X279055Y214799D02*
X279734D01*
X274200Y213899D02*
X279600D01*
X274200Y212999D02*
X279600D01*
X274117Y212099D02*
X279600D01*
X273427Y211199D02*
X279600D01*
X240055Y210299D02*
X279600D01*
X212149Y209399D02*
X279600D01*
X152500Y293999D02*
X279589D01*
X208998Y284099D02*
X279519D01*
X219403Y166199D02*
X279496D01*
X152500Y288599D02*
X279224D01*
X152500Y298499D02*
X279175D01*
X152500Y294899D02*
X279088D01*
X208823Y284999D02*
X279048D01*
X194668Y287699D02*
X278888D01*
X152500Y297599D02*
X278863D01*
X152500Y295799D02*
X278823D01*
X208292Y285899D02*
X278806D01*
X206860Y286799D02*
X278754D01*
X152500Y296699D02*
X278751D01*
X220303Y167099D02*
X278596D01*
X221203Y167999D02*
X277696D01*
X273118Y176999D02*
X277140D01*
X274200Y214799D02*
X276945D01*
X241684Y220199D02*
X276938D01*
X222103Y168899D02*
X276796D01*
X223003Y169799D02*
X276175D01*
X265871Y171599D02*
X276100D01*
X223903Y170699D02*
X276100D01*
X274100Y215699D02*
X275727D01*
X241893Y219299D02*
X275725D01*
X272168Y176099D02*
X275708D01*
X267003Y172499D02*
X275551D01*
X273346Y216599D02*
X275244D01*
X241814Y218399D02*
X275243D01*
X269703Y175199D02*
X275177D01*
X267903Y173399D02*
X275113D01*
X241418Y217499D02*
X275100D01*
X268803Y174299D02*
X275002D01*
X270110Y208499D02*
X273890D01*
X270621Y207599D02*
X273379D01*
X270657Y206699D02*
X273343D01*
X270657Y205799D02*
X273343D01*
X240468Y216599D02*
X270654D01*
X211750Y181499D02*
X270612D01*
X241273Y211199D02*
X270573D01*
X212000Y200399D02*
X270001D01*
X240062Y215699D02*
X269900D01*
X241756Y212099D02*
X269883D01*
X241275Y214799D02*
X269800D01*
X241757Y213899D02*
X269800D01*
X241900Y212999D02*
X269800D01*
X200010Y124799D02*
X269643D01*
X212000Y201299D02*
X269360D01*
X229192Y132899D02*
X269161D01*
X190200Y148199D02*
X269120D01*
X212000Y202199D02*
X269116D01*
X258076Y116699D02*
X269112D01*
X202491Y109499D02*
X268767D01*
X258076Y140999D02*
X268761D01*
X211750Y180599D02*
X268599D01*
X258073Y117599D02*
X268447D01*
X229723Y131999D02*
X268416D01*
X199216Y125699D02*
X268181D01*
X200691Y123899D02*
X268154D01*
X211749Y179699D02*
X268016D01*
X227760Y133799D02*
X267955D01*
X190141Y147299D02*
X267936D01*
X211459Y178799D02*
X267807D01*
X202801Y110399D02*
X267763D01*
X182100Y177899D02*
X267594D01*
X229898Y131099D02*
X267577D01*
X212000Y203099D02*
X267553D01*
X198282Y126599D02*
X267447D01*
X168500Y134699D02*
X267319D01*
X229787Y130199D02*
X267109D01*
X197167Y127499D02*
X267040D01*
X229349Y129299D02*
X266884D01*
X228282Y128399D02*
X266862D01*
X212000Y208499D02*
X266803D01*
X208278Y176999D02*
X266694D01*
X212000Y203999D02*
X266432D01*
X212000Y207599D02*
X266293D01*
X212000Y206699D02*
X266257D01*
X212000Y205799D02*
X266257D01*
X212000Y204899D02*
X266257D01*
X210121Y176099D02*
X265794D01*
X210953Y175199D02*
X264894D01*
X258029Y141899D02*
X262456D01*
X258028Y140099D02*
X262443D01*
X201277Y122999D02*
X261877D01*
X257925Y115799D02*
X261656D01*
X203052Y111299D02*
X261374D01*
X257752Y118499D02*
X261040D01*
X168500Y135599D02*
X260727D01*
X189316Y146399D02*
X260724D01*
X257473Y142799D02*
X260592D01*
X257470Y139199D02*
X260589D01*
X201779Y122099D02*
X260417D01*
X256947Y114899D02*
X260335D01*
X203245Y112199D02*
X260228D01*
X202863Y119399D02*
X260177D01*
X168500Y136499D02*
X260113D01*
X168500Y145499D02*
X260112D01*
X168500Y143699D02*
X260085D01*
X168500Y138299D02*
X260085D01*
X202207Y121199D02*
X260057D01*
X203468Y113999D02*
X260050D01*
X168500Y144599D02*
X260050D01*
X168500Y137399D02*
X260050D01*
X202566Y120299D02*
X260050D01*
X203383Y113099D02*
X260050D01*
X203500Y114899D02*
X253305D01*
X168500Y139199D02*
X252782D01*
X168500Y142799D02*
X252779D01*
X203100Y118499D02*
X252500D01*
X203479Y115799D02*
X252327D01*
X168500Y140099D02*
X252224D01*
X168500Y141899D02*
X252223D01*
X203281Y117599D02*
X252179D01*
X168500Y140999D02*
X252176D01*
X203407Y116699D02*
X252176D01*
X237323Y221999D02*
X238912D01*
X237671Y210299D02*
X237945D01*
X237468Y215699D02*
X237938D01*
X212601Y221999D02*
X233277D01*
X212300Y215699D02*
X233132D01*
X212300Y210299D02*
X232929D01*
X212300Y216599D02*
X232852D01*
X213241Y221099D02*
X232632D01*
X212300Y214799D02*
X232614D01*
X213485Y220199D02*
X232600D01*
X213437Y219299D02*
X232600D01*
X213081Y218399D02*
X232600D01*
X212300Y217499D02*
X232600D01*
X212300Y213899D02*
X232600D01*
X212300Y212999D02*
X232600D01*
X212300Y212099D02*
X232600D01*
X212300Y211199D02*
X232600D01*
X168500Y133799D02*
X226240D01*
X224316Y128399D02*
X225718D01*
X211436Y174299D02*
X222694D01*
X211688Y173399D02*
X221794D01*
X211747Y172499D02*
X220894D01*
X211622Y171599D02*
X219994D01*
X218116Y128399D02*
X219884D01*
X218866Y132899D02*
X219134D01*
X211296Y170699D02*
X219094D01*
X218941Y129299D02*
X219059D01*
X210710Y169799D02*
X218194D01*
X195793Y128399D02*
X213684D01*
X202738Y310199D02*
X213526D01*
X202637Y320099D02*
X213267D01*
X203207Y311999D02*
X213053D01*
X168500Y132899D02*
X212934D01*
X196591Y302099D02*
X212859D01*
X193983Y129299D02*
X212859D01*
X168500Y131999D02*
X212800D01*
X168500Y131099D02*
X212800D01*
X191041Y130199D02*
X212800D01*
X202413Y309299D02*
X212013D01*
X202921Y319199D02*
X211906D01*
X203357Y312899D02*
X211809D01*
X197809Y302999D02*
X211714D01*
X202024Y308399D02*
X211252D01*
X203145Y318299D02*
X211190D01*
X203453Y313799D02*
X211133D01*
X198817Y303899D02*
X211077D01*
X201564Y307499D02*
X210810D01*
X203313Y317399D02*
X210776D01*
X203497Y314699D02*
X210745D01*
X199670Y304799D02*
X210715D01*
X201026Y306599D02*
X210590D01*
X203427Y316499D02*
X210578D01*
X203488Y315599D02*
X210568D01*
X200399Y305699D02*
X210560D01*
X161700Y217499D02*
X208900D01*
X161700Y216599D02*
X208900D01*
X161700Y215699D02*
X208900D01*
X161700Y214799D02*
X208900D01*
X161700Y213899D02*
X208900D01*
X161700Y212999D02*
X208900D01*
X161700Y212099D02*
X208900D01*
X161700Y211199D02*
X208900D01*
X161700Y210299D02*
X208675D01*
X162406Y209399D02*
X208600D01*
X163306Y208499D02*
X208600D01*
X164206Y207599D02*
X208600D01*
X165106Y206699D02*
X208600D01*
X166006Y205799D02*
X208600D01*
X201279Y204899D02*
X208600D01*
X202657Y203999D02*
X208600D01*
X203355Y203099D02*
X208600D01*
X203742Y202199D02*
X208600D01*
X203906Y201299D02*
X208600D01*
X203873Y200399D02*
X208600D01*
X203639Y199499D02*
X208600D01*
X203162Y198599D02*
X208600D01*
X202313Y197699D02*
X208600D01*
X175006Y196799D02*
X208600D01*
X175906Y195899D02*
X208600D01*
X176806Y194999D02*
X208600D01*
X176200Y221999D02*
X208599D01*
X161700Y218399D02*
X208119D01*
X161700Y221099D02*
X207959D01*
X177706Y194099D02*
X207869D01*
X161700Y219299D02*
X207763D01*
X161700Y220199D02*
X207715D01*
X178606Y193199D02*
X206969D01*
X198436Y176999D02*
X206322D01*
X179506Y192299D02*
X206070D01*
X180406Y191399D02*
X205622D01*
X181306Y190499D02*
X205600D01*
X181991Y189599D02*
X205600D01*
X182100Y188699D02*
X205600D01*
X182100Y187799D02*
X205600D01*
X196866Y286799D02*
X205340D01*
X152500Y281399D02*
X204818D01*
X200279Y176099D02*
X204479D01*
X198131Y186899D02*
X204135D01*
X197806Y285899D02*
X203908D01*
X200868Y169799D02*
X203890D01*
X152500Y282299D02*
X203751D01*
X201111Y175199D02*
X203647D01*
X201453Y170699D02*
X203304D01*
X201594Y174299D02*
X203164D01*
X199928Y178799D02*
X203141D01*
X200207Y185999D02*
X203024D01*
X201780Y171599D02*
X202978D01*
X201845Y173399D02*
X202912D01*
X201905Y172499D02*
X202853D01*
X200915Y179699D02*
X202851D01*
X201070Y185099D02*
X202850D01*
X201571Y184199D02*
X202850D01*
X201835Y183299D02*
X202850D01*
X201906Y182399D02*
X202850D01*
X201793Y181499D02*
X202850D01*
X201481Y180599D02*
X202850D01*
X183562Y204899D02*
X198154D01*
X184003Y222899D02*
X197714D01*
X184309Y230099D02*
X197407D01*
X184596Y197699D02*
X197120D01*
X187895Y186899D02*
X196784D01*
X184941Y203999D02*
X196776D01*
X185138Y223799D02*
X196579D01*
X188199Y176999D02*
X196479D01*
X185292Y229199D02*
X196424D01*
X185446Y198599D02*
X196271D01*
X185638Y203099D02*
X196078D01*
X185750Y224699D02*
X195967D01*
X185837Y228299D02*
X195880D01*
X185923Y199499D02*
X195794D01*
X194788Y283199D02*
X195697D01*
X186025Y202199D02*
X195691D01*
X186081Y225599D02*
X195635D01*
X186122Y227399D02*
X195595D01*
X186157Y200399D02*
X195560D01*
X186189Y201299D02*
X195527D01*
X186199Y226499D02*
X195518D01*
X189692Y178799D02*
X194987D01*
X189971Y185999D02*
X194708D01*
X190043Y176099D02*
X194636D01*
X190632Y169799D02*
X194047D01*
X190679Y179699D02*
X194000D01*
X190834Y185099D02*
X193845D01*
X190874Y175199D02*
X193804D01*
X191217Y170699D02*
X193462D01*
X191245Y180599D02*
X193434D01*
X191334Y184199D02*
X193344D01*
X191358Y174299D02*
X193321D01*
X191543Y171599D02*
X193135D01*
X191557Y181499D02*
X193122D01*
X191599Y183299D02*
X193080D01*
X191609Y173399D02*
X193070D01*
X191668Y172499D02*
X193010D01*
X191670Y182399D02*
X193009D01*
X152500Y287699D02*
X191132D01*
X152500Y283199D02*
X191012D01*
X152500Y286799D02*
X190360D01*
X152500Y284099D02*
X190308D01*
X152500Y285899D02*
X190043D01*
X152500Y284999D02*
X190028D01*
X182100Y186899D02*
X186547D01*
X182100Y176999D02*
X186243D01*
X178657Y153599D02*
X185954D01*
X168500Y152699D02*
X185954D01*
X168500Y151799D02*
X185954D01*
X180474Y161699D02*
X185526D01*
X180747Y154499D02*
X185253D01*
X168500Y166199D02*
X184983D01*
X168500Y130199D02*
X184959D01*
X183116Y146399D02*
X184884D01*
X182100Y178799D02*
X184751D01*
X181460Y160799D02*
X184540D01*
X182100Y185999D02*
X184471D01*
X182100Y176099D02*
X184400D01*
X181611Y155399D02*
X184389D01*
X183866Y150899D02*
X184134D01*
X168500Y167099D02*
X184083D01*
X183941Y147299D02*
X184059D01*
X182025Y159899D02*
X183975D01*
X182112Y156299D02*
X183888D01*
X182100Y179699D02*
X183764D01*
X182337Y158999D02*
X183663D01*
X182377Y157199D02*
X183623D01*
X182100Y185099D02*
X183609D01*
X182100Y175199D02*
X183568D01*
X182449Y158099D02*
X183551D01*
X182100Y180599D02*
X183198D01*
X168500Y167999D02*
X183183D01*
X182100Y184199D02*
X183108D01*
X152500Y300299D02*
X183089D01*
X182100Y174299D02*
X183085D01*
X182100Y181499D02*
X182885D01*
X182100Y183299D02*
X182843D01*
X182591Y173399D02*
X182833D01*
X182100Y182399D02*
X182772D01*
X168500Y168899D02*
X182283D01*
X168500Y129299D02*
X182017D01*
X168500Y169799D02*
X181383D01*
X152500Y301199D02*
X180945D01*
X168500Y170699D02*
X180483D01*
X166906Y204899D02*
X180438D01*
X168500Y128399D02*
X180207D01*
X176200Y222899D02*
X179997D01*
X176200Y230099D02*
X179691D01*
X168500Y171599D02*
X179583D01*
X152500Y302099D02*
X179409D01*
X174106Y197699D02*
X179404D01*
X168500Y102299D02*
X179116D01*
X167806Y203999D02*
X179059D01*
X176200Y223799D02*
X178862D01*
X168500Y172499D02*
X178845D01*
X168500Y127499D02*
X178833D01*
X176200Y229199D02*
X178708D01*
X168500Y187799D02*
X178700D01*
X168500Y186899D02*
X178700D01*
X168500Y185999D02*
X178700D01*
X168500Y185099D02*
X178700D01*
X168500Y184199D02*
X178700D01*
X168500Y183299D02*
X178700D01*
X168500Y182399D02*
X178700D01*
X168500Y181499D02*
X178700D01*
X168500Y180599D02*
X178700D01*
X168500Y179699D02*
X178700D01*
X168500Y178799D02*
X178700D01*
X168500Y177899D02*
X178700D01*
X168500Y176999D02*
X178700D01*
X168500Y176099D02*
X178700D01*
X168500Y175199D02*
X178700D01*
X168500Y174299D02*
X178700D01*
X168500Y173399D02*
X178700D01*
X168500Y146399D02*
X178684D01*
X152500Y327299D02*
X178566D01*
X173206Y198599D02*
X178554D01*
X168706Y203099D02*
X178362D01*
X168500Y188699D02*
X178297D01*
X176200Y224699D02*
X178250D01*
X152500Y302999D02*
X178191D01*
X176200Y228299D02*
X178163D01*
X172306Y199499D02*
X178077D01*
X169606Y202199D02*
X177975D01*
X168500Y103199D02*
X177951D01*
X168500Y150899D02*
X177934D01*
X176200Y225599D02*
X177919D01*
X176200Y227399D02*
X177878D01*
X168500Y147299D02*
X177859D01*
X171406Y200399D02*
X177843D01*
X170506Y201299D02*
X177811D01*
X176200Y226499D02*
X177801D01*
X168500Y149999D02*
X177800D01*
X168500Y149099D02*
X177800D01*
X168500Y148199D02*
X177800D01*
X168500Y126599D02*
X177718D01*
X152500Y326399D02*
X177497D01*
X168500Y189599D02*
X177397D01*
X168500Y153599D02*
X177343D01*
X152500Y303899D02*
X177183D01*
X168500Y104099D02*
X176981D01*
X168500Y125699D02*
X176784D01*
X152500Y325499D02*
X176597D01*
X168500Y190499D02*
X176497D01*
X152500Y304799D02*
X176330D01*
X168500Y104999D02*
X176158D01*
X168500Y124799D02*
X175990D01*
X152500Y324599D02*
X175830D01*
X152500Y305699D02*
X175601D01*
X168500Y191399D02*
X175597D01*
X168500Y161699D02*
X175526D01*
X168500Y105899D02*
X175453D01*
X168500Y123899D02*
X175309D01*
X168500Y154499D02*
X175253D01*
X152500Y323699D02*
X175171D01*
X152500Y306599D02*
X174974D01*
X168500Y106799D02*
X174847D01*
X168500Y122999D02*
X174723D01*
X168500Y192299D02*
X174697D01*
X152500Y322799D02*
X174605D01*
X168500Y160799D02*
X174540D01*
X152500Y307499D02*
X174436D01*
X168500Y155399D02*
X174389D01*
X168500Y107699D02*
X174327D01*
X168500Y122099D02*
X174221D01*
X152500Y321899D02*
X174120D01*
X152500Y308399D02*
X173976D01*
X168500Y159899D02*
X173975D01*
X168500Y156299D02*
X173888D01*
X168500Y108599D02*
X173884D01*
X168500Y193199D02*
X173797D01*
X168500Y121199D02*
X173793D01*
X152500Y320999D02*
X173708D01*
X168500Y158999D02*
X173663D01*
X168500Y157199D02*
X173623D01*
X152500Y309299D02*
X173587D01*
X168500Y158099D02*
X173551D01*
X168500Y109499D02*
X173509D01*
X168500Y120299D02*
X173434D01*
X152500Y320099D02*
X173363D01*
X152500Y310199D02*
X173262D01*
X168500Y110399D02*
X173199D01*
X168500Y119399D02*
X173137D01*
X152500Y319199D02*
X173079D01*
X152500Y311099D02*
X172999D01*
X168500Y111299D02*
X172948D01*
X168500Y118499D02*
X172900D01*
X168500Y194099D02*
X172897D01*
X152500Y318299D02*
X172855D01*
X152500Y311999D02*
X172793D01*
X168500Y112199D02*
X172755D01*
X168500Y117599D02*
X172719D01*
X152500Y317399D02*
X172687D01*
X152500Y312899D02*
X172643D01*
X168500Y113099D02*
X172617D01*
X168500Y116699D02*
X172593D01*
X152500Y316499D02*
X172573D01*
X152500Y313799D02*
X172547D01*
X168500Y113999D02*
X172532D01*
X168500Y115799D02*
X172521D01*
X152500Y315599D02*
X172512D01*
X152500Y314699D02*
X172503D01*
X168500Y114899D02*
X172500D01*
X152500Y245399D02*
X172300D01*
X152500Y244499D02*
X172300D01*
X152500Y243599D02*
X172300D01*
X152500Y242699D02*
X172300D01*
X152500Y241799D02*
X172300D01*
X152500Y240899D02*
X172300D01*
X152500Y239999D02*
X172300D01*
X152500Y239099D02*
X172300D01*
X152500Y238199D02*
X172300D01*
X152500Y237299D02*
X172300D01*
X152500Y236399D02*
X172300D01*
X152500Y235499D02*
X172300D01*
X152500Y234599D02*
X172300D01*
X152500Y233699D02*
X172300D01*
X152500Y232799D02*
X172300D01*
X152500Y231899D02*
X172300D01*
X152500Y230999D02*
X172300D01*
X152500Y230099D02*
X172300D01*
X152500Y229199D02*
X172300D01*
X152500Y228299D02*
X172300D01*
X161630Y227399D02*
X172300D01*
X168500Y194999D02*
X171997D01*
X168500Y195899D02*
X171097D01*
X167908Y196799D02*
X170197D01*
X167008Y197699D02*
X169297D01*
X166108Y198599D02*
X168397D01*
X165208Y199499D02*
X167497D01*
X164308Y200399D02*
X166597D01*
X163408Y201299D02*
X165697D01*
X156508Y202199D02*
X164797D01*
X155608Y203099D02*
X163897D01*
X154708Y203999D02*
X162997D01*
X153808Y204899D02*
X162097D01*
X152908Y205799D02*
X161197D01*
X152500Y206699D02*
X160297D01*
X152500Y207599D02*
X159397D01*
X152500Y208499D02*
X158559D01*
X152500Y227399D02*
X158370D01*
X152500Y221099D02*
X158300D01*
X152500Y220199D02*
X158300D01*
X152500Y219299D02*
X158300D01*
X152500Y218399D02*
X158300D01*
X152500Y217499D02*
X158300D01*
X152500Y216599D02*
X158300D01*
X152500Y215699D02*
X158300D01*
X152500Y214799D02*
X158300D01*
X152500Y213899D02*
X158300D01*
X152500Y212999D02*
X158300D01*
X152500Y212099D02*
X158300D01*
X152500Y211199D02*
X158300D01*
X152500Y210299D02*
X158300D01*
X152500Y209399D02*
X158300D01*
X152500Y261599D02*
X153351D01*
X152500Y268799D02*
X153030D01*
X152500Y275099D02*
X152872D01*
X152500Y255299D02*
X152635D01*
X102000Y191399D02*
X164500D01*
X102000Y190499D02*
X164500D01*
X102000Y189599D02*
X164500D01*
X102000Y188699D02*
X164500D01*
X102000Y187799D02*
X164500D01*
X102000Y186899D02*
X164500D01*
X102000Y185999D02*
X164500D01*
X157268Y185099D02*
X164500D01*
X158176Y184199D02*
X164500D01*
X158684Y183299D02*
X164500D01*
X158941Y182399D02*
X164500D01*
X158995Y181499D02*
X164500D01*
X158853Y180599D02*
X164500D01*
X158493Y179699D02*
X164500D01*
X157837Y178799D02*
X164500D01*
X156586Y177899D02*
X164500D01*
X102000Y176999D02*
X164500D01*
X102000Y176099D02*
X164500D01*
X102000Y175199D02*
X164500D01*
X102000Y174299D02*
X164500D01*
X113667Y173399D02*
X164500D01*
X115628Y172499D02*
X164500D01*
X116662Y171599D02*
X164500D01*
X117350Y170699D02*
X164500D01*
X117817Y169799D02*
X164500D01*
X118116Y168899D02*
X164500D01*
X118271Y167999D02*
X164500D01*
X118293Y167099D02*
X164500D01*
X118183Y166199D02*
X164500D01*
X117933Y165299D02*
X164500D01*
X117525Y164399D02*
X164500D01*
X116919Y163499D02*
X164500D01*
X116023Y162599D02*
X164500D01*
X114536Y161699D02*
X164500D01*
X102000Y160799D02*
X164500D01*
X102000Y159899D02*
X164500D01*
X112752Y158999D02*
X164500D01*
X115373Y158099D02*
X164500D01*
X116502Y157199D02*
X164500D01*
X117241Y156299D02*
X164500D01*
X117744Y155399D02*
X164500D01*
X118072Y154499D02*
X164500D01*
X118253Y153599D02*
X164500D01*
X118299Y152699D02*
X164500D01*
X118213Y151799D02*
X164500D01*
X117991Y150899D02*
X164500D01*
X117614Y149999D02*
X164500D01*
X117049Y149099D02*
X164500D01*
X116219Y148199D02*
X164500D01*
X114895Y147299D02*
X164500D01*
X102000Y146399D02*
X164500D01*
X102000Y145499D02*
X164500D01*
X102000Y144599D02*
X164500D01*
X102000Y143699D02*
X164500D01*
X102000Y142799D02*
X164500D01*
X102000Y141899D02*
X164500D01*
X114984Y140999D02*
X164500D01*
X116270Y140099D02*
X164500D01*
X117084Y139199D02*
X164500D01*
X117638Y138299D02*
X164500D01*
X118005Y137399D02*
X164500D01*
X118221Y136499D02*
X164500D01*
X137937Y135599D02*
X164500D01*
X139608Y134699D02*
X164500D01*
X140546Y133799D02*
X164500D01*
X141167Y132899D02*
X164500D01*
X141577Y131999D02*
X164500D01*
X141822Y131099D02*
X164500D01*
X141921Y130199D02*
X164500D01*
X141883Y129299D02*
X164500D01*
X141704Y128399D02*
X164500D01*
X141371Y127499D02*
X164500D01*
X140851Y126599D02*
X164500D01*
X140074Y125699D02*
X164500D01*
X138836Y124799D02*
X164500D01*
X117550Y123899D02*
X164500D01*
X117949Y122999D02*
X164500D01*
X118191Y122099D02*
X164500D01*
X118295Y121199D02*
X164500D01*
X118266Y120299D02*
X164500D01*
X118105Y119399D02*
X164500D01*
X117798Y118499D02*
X164500D01*
X117321Y117599D02*
X164500D01*
X116619Y116699D02*
X164500D01*
X115560Y115799D02*
X164500D01*
X113479Y114899D02*
X164500D01*
X102000Y113999D02*
X164500D01*
X102000Y113099D02*
X164500D01*
X102000Y112199D02*
X164500D01*
X102000Y111299D02*
X164500D01*
X102000Y110399D02*
X164500D01*
X102000Y109499D02*
X164500D01*
X102000Y108599D02*
X164500D01*
X102000Y107699D02*
X164500D01*
X102000Y106799D02*
X164500D01*
X102000Y105899D02*
X164500D01*
X102000Y104999D02*
X164500D01*
X102000Y104099D02*
X164500D01*
X102000Y103199D02*
X164500D01*
X102000Y102299D02*
X164500D01*
X102000Y192299D02*
X163994D01*
X102000Y193199D02*
X163094D01*
X102000Y194099D02*
X162194D01*
X102000Y194999D02*
X161294D01*
X102000Y195899D02*
X160394D01*
X102000Y196799D02*
X153494D01*
X138617Y177899D02*
X153014D01*
X102000Y197699D02*
X152594D01*
X139016Y185099D02*
X152332D01*
X139278Y178799D02*
X151763D01*
X102000Y198599D02*
X151694D01*
X139315Y184199D02*
X151424D01*
X139315Y179699D02*
X151107D01*
X139315Y183299D02*
X150916D01*
X102000Y199499D02*
X150794D01*
X139315Y180599D02*
X150747D01*
X139315Y182399D02*
X150659D01*
X139315Y181499D02*
X150605D01*
X102000Y200399D02*
X149894D01*
X125244Y201299D02*
X148994D01*
X102000Y327299D02*
X148500D01*
X102000Y326399D02*
X148500D01*
X102000Y325499D02*
X148500D01*
X102000Y324599D02*
X148500D01*
X102000Y323699D02*
X148500D01*
X102000Y322799D02*
X148500D01*
X102000Y321899D02*
X148500D01*
X102000Y320999D02*
X148500D01*
X102000Y320099D02*
X148500D01*
X102000Y319199D02*
X148500D01*
X102000Y318299D02*
X148500D01*
X102000Y317399D02*
X148500D01*
X102000Y316499D02*
X148500D01*
X102000Y315599D02*
X148500D01*
X102000Y314699D02*
X148500D01*
X102000Y313799D02*
X148500D01*
X102000Y312899D02*
X148500D01*
X102000Y311999D02*
X148500D01*
X102000Y311099D02*
X148500D01*
X102000Y310199D02*
X148500D01*
X102000Y309299D02*
X148500D01*
X102000Y308399D02*
X148500D01*
X102000Y307499D02*
X148500D01*
X119252Y306599D02*
X148500D01*
X120923Y305699D02*
X148500D01*
X121861Y304799D02*
X148500D01*
X122482Y303899D02*
X148500D01*
X122892Y302999D02*
X148500D01*
X123137Y302099D02*
X148500D01*
X123236Y301199D02*
X148500D01*
X123198Y300299D02*
X148500D01*
X123019Y299399D02*
X148500D01*
X122685Y298499D02*
X148500D01*
X122166Y297599D02*
X148500D01*
X121389Y296699D02*
X148500D01*
X120151Y295799D02*
X148500D01*
X102000Y294899D02*
X148500D01*
X102000Y293999D02*
X148500D01*
X102000Y293099D02*
X148500D01*
X102000Y292199D02*
X148500D01*
X102000Y291299D02*
X148500D01*
X102000Y290399D02*
X148500D01*
X102000Y289499D02*
X148500D01*
X102000Y288599D02*
X148500D01*
X102000Y287699D02*
X148500D01*
X102000Y286799D02*
X148500D01*
X102000Y285899D02*
X148500D01*
X102000Y284999D02*
X148500D01*
X102000Y284099D02*
X148500D01*
X102000Y283199D02*
X148500D01*
X102000Y282299D02*
X148500D01*
X102000Y281399D02*
X148500D01*
X102000Y280499D02*
X148500D01*
X102000Y279599D02*
X148500D01*
X102000Y278699D02*
X148500D01*
X102000Y277799D02*
X148500D01*
X102000Y276899D02*
X148500D01*
X102000Y275999D02*
X148500D01*
X102000Y275099D02*
X148500D01*
X102000Y274199D02*
X148500D01*
X102000Y273299D02*
X148500D01*
X102000Y272399D02*
X148500D01*
X102000Y271499D02*
X148500D01*
X102000Y270599D02*
X148500D01*
X102000Y269699D02*
X148500D01*
X102000Y268799D02*
X148500D01*
X102000Y267899D02*
X148500D01*
X102000Y266999D02*
X148500D01*
X102000Y266099D02*
X148500D01*
X102000Y265199D02*
X148500D01*
X102000Y264299D02*
X148500D01*
X102000Y263399D02*
X148500D01*
X102000Y262499D02*
X148500D01*
X102000Y261599D02*
X148500D01*
X102000Y260699D02*
X148500D01*
X102000Y259799D02*
X148500D01*
X102000Y258899D02*
X148500D01*
X102000Y257999D02*
X148500D01*
X102000Y257099D02*
X148500D01*
X102000Y256199D02*
X148500D01*
X102000Y255299D02*
X148500D01*
X102000Y254399D02*
X148500D01*
X102000Y253499D02*
X148500D01*
X102000Y252599D02*
X148500D01*
X102000Y251699D02*
X148500D01*
X102000Y250799D02*
X148500D01*
X102000Y249899D02*
X148500D01*
X102000Y248999D02*
X148500D01*
X102000Y248099D02*
X148500D01*
X102000Y247199D02*
X148500D01*
X102000Y246299D02*
X148500D01*
X102000Y245399D02*
X148500D01*
X102000Y244499D02*
X148500D01*
X102000Y243599D02*
X148500D01*
X102000Y242699D02*
X148500D01*
X102000Y241799D02*
X148500D01*
X102000Y240899D02*
X148500D01*
X102000Y239999D02*
X148500D01*
X102000Y239099D02*
X148500D01*
X102000Y238199D02*
X148500D01*
X102000Y237299D02*
X148500D01*
X102000Y236399D02*
X148500D01*
X102000Y235499D02*
X148500D01*
X102000Y234599D02*
X148500D01*
X102000Y233699D02*
X148500D01*
X102000Y232799D02*
X148500D01*
X102000Y231899D02*
X148500D01*
X102000Y230999D02*
X148500D01*
X102000Y230099D02*
X148500D01*
X122106Y229199D02*
X148500D01*
X124600Y228299D02*
X148500D01*
X125448Y227399D02*
X148500D01*
X123556Y221099D02*
X148500D01*
X102000Y220199D02*
X148500D01*
X102000Y219299D02*
X148500D01*
X102000Y218399D02*
X148500D01*
X102000Y217499D02*
X148500D01*
X102000Y216599D02*
X148500D01*
X102000Y215699D02*
X148500D01*
X102000Y214799D02*
X148500D01*
X102000Y213899D02*
X148500D01*
X102000Y212999D02*
X148500D01*
X102000Y212099D02*
X148500D01*
X102000Y211199D02*
X148500D01*
X102000Y210299D02*
X148500D01*
X125122Y209399D02*
X148500D01*
X126052Y208499D02*
X148500D01*
X126200Y207599D02*
X148500D01*
X126200Y206699D02*
X148500D01*
X126200Y205799D02*
X148500D01*
X126200Y204899D02*
X148500D01*
X126200Y203999D02*
X148500D01*
X126200Y203099D02*
X148500D01*
X126086Y202199D02*
X148500D01*
X125924Y226499D02*
X148241D01*
X124938Y221999D02*
X148200D01*
X126157Y225599D02*
X148200D01*
X126189Y224699D02*
X148200D01*
X126025Y223799D02*
X148200D01*
X125637Y222899D02*
X148200D01*
X118299Y135599D02*
X134063D01*
X116956Y124799D02*
X133164D01*
X118247Y134699D02*
X132392D01*
X116078Y125699D02*
X131926D01*
X102000Y177899D02*
X131613D01*
X118059Y133799D02*
X131454D01*
X102000Y185099D02*
X131214D01*
X114641Y126599D02*
X131149D01*
X102000Y178799D02*
X130952D01*
X102000Y184199D02*
X130915D01*
X102000Y183299D02*
X130915D01*
X102000Y182399D02*
X130915D01*
X102000Y181499D02*
X130915D01*
X102000Y180599D02*
X130915D01*
X102000Y179699D02*
X130915D01*
X117723Y132899D02*
X130833D01*
X102000Y127499D02*
X130629D01*
X117210Y131999D02*
X130423D01*
X102000Y128399D02*
X130296D01*
X116456Y131099D02*
X130178D01*
X102000Y129299D02*
X130117D01*
X115298Y130199D02*
X130079D01*
X102000Y229199D02*
X121894D01*
X102000Y221099D02*
X120444D01*
X102000Y228299D02*
X119400D01*
X102000Y221999D02*
X119062D01*
X102000Y209399D02*
X118878D01*
X102000Y201299D02*
X118756D01*
X102000Y227399D02*
X118552D01*
X102000Y222899D02*
X118363D01*
X102000Y226499D02*
X118076D01*
X102000Y223799D02*
X117975D01*
X102000Y208499D02*
X117948D01*
X102000Y202199D02*
X117914D01*
X102000Y225599D02*
X117843D01*
X102000Y224699D02*
X117811D01*
X102000Y207599D02*
X117800D01*
X102000Y206699D02*
X117800D01*
X102000Y205799D02*
X117800D01*
X102000Y204899D02*
X117800D01*
X102000Y203999D02*
X117800D01*
X102000Y203099D02*
X117800D01*
X102000Y306599D02*
X115378D01*
X102000Y295799D02*
X114479D01*
X102000Y305699D02*
X113706D01*
X102000Y296699D02*
X113241D01*
X102000Y304799D02*
X112769D01*
X102000Y297599D02*
X112464D01*
X102000Y303899D02*
X112148D01*
X102000Y298499D02*
X111944D01*
X102000Y302999D02*
X111738D01*
X102000Y299399D02*
X111611D01*
X102000Y302099D02*
X111493D01*
X102000Y158999D02*
X111448D01*
X102000Y300299D02*
X111432D01*
X102000Y301199D02*
X111394D01*
X102000Y114899D02*
X110721D01*
X102000Y173399D02*
X110533D01*
X102000Y161699D02*
X109664D01*
X102000Y126599D02*
X109559D01*
X102000Y147299D02*
X109305D01*
X102000Y140999D02*
X109216D01*
X102000Y130199D02*
X108902D01*
X102000Y158099D02*
X108827D01*
X102000Y115799D02*
X108640D01*
X102000Y172499D02*
X108572D01*
X102000Y162599D02*
X108177D01*
X102000Y125699D02*
X108122D01*
X102000Y148199D02*
X107981D01*
X102000Y140099D02*
X107930D01*
X102000Y131099D02*
X107744D01*
X102000Y157199D02*
X107698D01*
X102000Y116699D02*
X107581D01*
X102000Y171599D02*
X107538D01*
X102000Y163499D02*
X107281D01*
X102000Y124799D02*
X107244D01*
X102000Y149099D02*
X107151D01*
X102000Y139199D02*
X107116D01*
X102000Y131999D02*
X106990D01*
X102000Y156299D02*
X106959D01*
X102000Y117599D02*
X106879D01*
X102000Y170699D02*
X106850D01*
X102000Y164399D02*
X106675D01*
X102000Y123899D02*
X106650D01*
X102000Y149999D02*
X106586D01*
X102000Y138299D02*
X106562D01*
X102000Y132899D02*
X106477D01*
X102000Y155399D02*
X106456D01*
X102000Y118499D02*
X106402D01*
X102000Y169799D02*
X106383D01*
X102000Y165299D02*
X106267D01*
X102000Y122999D02*
X106251D01*
X102000Y150899D02*
X106209D01*
X102000Y137399D02*
X106195D01*
X102000Y133799D02*
X106141D01*
X102000Y154499D02*
X106128D01*
X102000Y119399D02*
X106095D01*
X102000Y168899D02*
X106084D01*
X102000Y166199D02*
X106017D01*
X102000Y122099D02*
X106009D01*
X102000Y151799D02*
X105987D01*
X102000Y136499D02*
X105979D01*
X102000Y134699D02*
X105953D01*
X102000Y153599D02*
X105947D01*
X102000Y120299D02*
X105934D01*
X102000Y167999D02*
X105929D01*
X102000Y167099D02*
X105907D01*
X102000Y121199D02*
X105905D01*
X102000Y152699D02*
X105901D01*
X102000Y135599D02*
X105901D01*
X266257Y206000D02*
X267457D01*
X268457Y208950D02*
Y207750D01*
X270657Y206000D02*
X269457D01*
X268457Y203050D02*
Y204250D01*
X362126Y216800D02*
Y218000D01*
X359176Y219000D02*
X360376D01*
X362126Y221200D02*
Y220000D01*
X365076Y219000D02*
X363876D01*
X362126Y179800D02*
Y181000D01*
X359176Y182000D02*
X360376D01*
X362126Y184200D02*
Y183000D01*
X365076Y182000D02*
X363876D01*
X215900Y128300D02*
Y129500D01*
X212800Y131000D02*
X214000D01*
X215900Y133700D02*
Y132500D01*
X361126Y124800D02*
Y126000D01*
X358176Y127000D02*
X359376D01*
X361126Y129200D02*
Y128000D01*
X364076Y127000D02*
X362876D01*
X363626Y255900D02*
Y257100D01*
X360676Y258100D02*
X361876D01*
X363626Y260300D02*
Y259100D01*
X366576Y258100D02*
X365376D01*
X292000Y207900D02*
X290800D01*
X288900Y205200D02*
Y206400D01*
X363626Y271900D02*
Y273100D01*
X360676Y274100D02*
X361876D01*
X363626Y276300D02*
Y275100D01*
X366576Y274100D02*
X365376D01*
X180900Y146300D02*
Y147500D01*
X177800Y149000D02*
X179000D01*
X180900Y151700D02*
Y150500D01*
X255126Y114800D02*
Y116000D01*
X252176Y117000D02*
X253376D01*
X255126Y119200D02*
Y118000D01*
X258076Y117000D02*
X256876D01*
X255126Y138800D02*
Y140000D01*
X252176Y141000D02*
X253376D01*
X255126Y143200D02*
Y142000D01*
X258076Y141000D02*
X256876D01*
G54D23*
X155000Y272000D03*
Y258220D03*
G54D28*
X379000Y123000D03*
Y130874D03*
Y138748D03*
X271000Y113000D03*
Y120874D03*
Y128748D03*
Y136622D03*
Y144496D03*
X379000Y162000D03*
Y169874D03*
Y177748D03*
Y185622D03*
Y207000D03*
Y214874D03*
Y222748D03*
Y230622D03*
X379500Y254100D03*
Y261974D03*
Y269848D03*
Y277722D03*
Y285596D03*
G54D29*
X112100Y167400D03*
Y152833D03*
Y135510D03*
Y120943D03*
X137000Y301000D02*
X156135D01*
X156318Y301183*
G54D32*
X137000Y301000D03*
X117315D03*
X136000Y130000D03*
X155685D03*
G54D37*
X215700Y116000D03*
Y121000D03*
X356900Y113400D03*
X227000Y131000D03*
X215800Y136000D03*
X356900Y142000D03*
X231900Y149100D03*
X307700Y155000D03*
X312400Y155100D03*
X365900Y165600D03*
X270700Y178600D03*
X267700Y181100D03*
X277900Y174200D03*
X280800Y171400D03*
X285000Y172000D03*
X353700Y181100D03*
X353100Y176100D03*
Y186000D03*
X226000Y196000D03*
X219000Y198000D03*
X236000Y192000D03*
X252000D03*
X243000Y196000D03*
X272000Y202500D03*
X285000Y191000D03*
X309600Y204900D03*
X307300Y201700D03*
X309700Y198600D03*
X328400Y203500D03*
X321700Y191200D03*
X320800Y187300D03*
X347200Y194900D03*
X365900Y197100D03*
X160000Y225000D03*
X210600Y219900D03*
X219000Y215000D03*
X228000Y220000D03*
Y212000D03*
X239000Y219100D03*
Y213000D03*
X245000Y226000D03*
X244000Y216000D03*
X250000Y221000D03*
X263000Y211000D03*
X278000Y217500D03*
X275000Y225000D03*
X307300Y208000D03*
X309400Y220600D03*
X307200Y223700D03*
X295500Y211100D03*
X326300Y206700D03*
X326600Y220600D03*
X323300Y223700D03*
X315100Y210100D03*
X362400Y226100D03*
X354900Y214400D03*
X156400Y235000D03*
X170000Y241100D03*
X183000Y245000D03*
X193000D03*
X220078Y230550D03*
X226000Y236000D03*
X242652Y235900D03*
X286000Y245000D03*
X307300Y228100D03*
X323300D03*
X193000Y255000D03*
X188000Y250000D03*
Y260000D03*
X178000Y250000D03*
X201600Y264100D03*
X198000Y250000D03*
X197100Y264000D03*
X198000Y260000D03*
X349300D03*
X385500Y262100D03*
X167000Y285000D03*
X157000Y280000D03*
X173000D03*
X192900Y285400D03*
X206100Y284000D03*
X197000Y270000D03*
X201600Y270200D03*
X195000Y275000D03*
X252000Y273000D03*
X317000Y278000D03*
X348000Y268100D03*
X351100Y276400D03*
X167000Y295000D03*
X161000Y290000D03*
X173000D03*
X178000Y295000D03*
X193000Y290000D03*
X188000Y295000D03*
X199000Y287000D03*
X255100Y300600D03*
X273200Y305200D03*
X351600Y287900D03*
X156000Y323000D03*
X162000Y316000D03*
X167000Y323000D03*
Y310000D03*
G54D41*
X271000Y113000D02*
Y113457D01*
X263000*
Y120543D02*
X271000D01*
Y120874*
X379000Y123000D02*
Y123457D01*
X369000*
X271000Y144496D02*
Y144543D01*
X263000*
X271000Y136622D02*
Y137457D01*
X263000*
X369000Y130543D02*
X379000D01*
Y130874*
X370000Y185543D02*
X379000D01*
Y185622*
Y178000D02*
Y178457D01*
X370000*
X379000Y177748D02*
Y178000D01*
X370000Y222543D02*
X378795D01*
X379000Y222748*
Y214874D02*
Y215457D01*
X370000*
X371500Y261643D02*
X379500D01*
Y261974*
Y254100D02*
Y254557D01*
X371500*
Y277643D02*
X379500D01*
Y277722*
X379421Y277643D02*
X379500Y277722D01*
Y269848D02*
Y270557D01*
X371500*
G54D46*
X154800Y185900D02*
Y184700D01*
X150600Y181700D02*
X151800D01*
X154800Y177500D02*
Y178700D01*
X159000Y181700D02*
X157800D01*
X117800Y225000D02*
X119000D01*
X122000Y220800D02*
Y222000D01*
X126200Y225000D02*
X125000D01*
X122000Y229200D02*
Y228000D01*
X379500Y289749D02*
Y288549D01*
X375347Y285596D02*
X376547D01*
X383653D02*
X382453D01*
X379000Y234775D02*
Y233575D01*
X374847Y230622D02*
X376047D01*
X383153D02*
X381953D01*
X383153Y169874D02*
X381953D01*
X266847Y128748D02*
X268047D01*
X275153D02*
X273953D01*
X379000Y142901D02*
Y141701D01*
X374847Y138748D02*
X376047D01*
X383153D02*
X381953D01*
X155000Y254461D02*
Y255661D01*
X158759Y258220D02*
X157559D01*
X155000Y261980D02*
Y260780D01*
X182000Y205200D02*
Y204000D01*
X177800Y201000D02*
X179000D01*
X182000Y196800D02*
Y198000D01*
X186200Y201000D02*
X185000D01*
X191671Y172657D02*
X190471D01*
X187221Y177107D02*
Y175907D01*
X283200Y301050D02*
Y299850D01*
X278750Y296600D02*
X279950D01*
X283200Y292150D02*
Y293350D01*
X287650Y296600D02*
X286450D01*
X215000Y320450D02*
Y319250D01*
X210550Y316000D02*
X211750D01*
X215000Y311550D02*
Y312750D01*
X219450Y316000D02*
X218250D01*
G74*
X0Y0D02*
M02*
