*
*
G04 PADS 9.3.1 Build Number: 456998 generated Gerber (RS-274-X) file*
G04 PC Version=2.1*
*
%IN "bogiectl_rev2_1.pcb"*%
*
%MOIN*%
*
%FSLAX35Y35*%
*
*
*
*
G04 PC Standard Apertures*
*
*
G04 Thermal Relief Aperture macro.*
%AMTER*
1,1,$1,0,0*
1,0,$1-$2,0,0*
21,0,$3,$4,0,0,45*
21,0,$3,$4,0,0,135*
%
*
*
G04 Annular Aperture macro.*
%AMANN*
1,1,$1,0,0*
1,0,$2,0,0*
%
*
*
G04 Odd Aperture macro.*
%AMODD*
1,1,$1,0,0*
1,0,$1-0.005,0,0*
%
*
*
G04 PC Custom Aperture Macros*
*
*
*
*
*
*
G04 PC Aperture Table*
*
%ADD010C,0.001*%
%ADD015C,0.00787*%
%ADD019C,0.01*%
%ADD070C,0.005*%
*
*
*
*
G04 PC Circuitry*
G04 Layer Name bogiectl_rev2_1.pcb - circuitry*
%LPD*%
*
*
G04 PC Custom Flashes*
G04 Layer Name bogiectl_rev2_1.pcb - flashes*
%LPD*%
*
*
G04 PC Circuitry*
G04 Layer Name bogiectl_rev2_1.pcb - circuitry*
%LPD*%
*
G54D10*
G54D15*
G01X236796Y216039D02*
X233765D01*
X261819Y139031D02*
Y142969D01*
X256307Y142575D02*
Y146906D01*
X261819*
Y146118*
X256307Y139425D02*
Y134701D01*
X261819*
Y135882*
Y115031D02*
Y118969D01*
X256307Y118575D02*
Y122906D01*
X261819*
Y122118*
X256307Y115425D02*
Y110701D01*
X261819*
Y111882*
X183961Y150496D02*
Y147465D01*
X270031Y207181D02*
X273969D01*
X273575Y212693D02*
X277906D01*
Y207181*
X277118*
X270425Y212693D02*
X265701D01*
Y207181*
X266882*
X285761Y214396D02*
Y211365D01*
X370319Y272131D02*
Y276069D01*
X364807Y275675D02*
Y280006D01*
X370319*
Y279218*
X364807Y272525D02*
Y267801D01*
X370319*
Y268982*
X285839Y206404D02*
Y209435D01*
X370319Y256131D02*
Y260069D01*
X364807Y259675D02*
Y264006D01*
X370319*
Y263218*
X364807Y256525D02*
Y251801D01*
X370319*
Y252982*
X367819Y125031D02*
Y128969D01*
X362307Y128575D02*
Y132906D01*
X367819*
Y132118*
X362307Y125425D02*
Y120701D01*
X367819*
Y121882*
X218961Y132496D02*
Y129465D01*
X368819Y180031D02*
Y183969D01*
X363307Y183575D02*
Y187906D01*
X368819*
Y187118*
X363307Y180425D02*
Y175701D01*
X368819*
Y176882*
X369039Y190504D02*
Y193535D01*
Y169504D02*
Y172535D01*
X368819Y217031D02*
Y220969D01*
X363307Y220575D02*
Y224906D01*
X368819*
Y224118*
X363307Y217425D02*
Y212701D01*
X368819*
Y213882*
X390496Y272039D02*
X387465D01*
X387504Y258961D02*
X390535D01*
G54D19*
X264287Y147299D02*
G75*
G03X264287I-500J0D01*
G01Y123299D02*
G03X264287I-500J0D01*
G01X278799Y205213D02*
G03X278799I-500J0D01*
G01X372787Y280399D02*
G03X372787I-500J0D01*
G01Y264399D02*
G03X372787I-500J0D01*
G01X370287Y133299D02*
G03X370287I-500J0D01*
G01X371287Y188299D02*
G03X371287I-500J0D01*
G01Y225299D02*
G03X371287I-500J0D01*
G54D70*
G01X230019Y220841D02*
X233300D01*
X230019D02*
Y219818D01*
X230175Y219477*
X230331Y219364*
X230644Y219250*
X230956*
X231269Y219364*
X231425Y219477*
X231581Y219818*
Y220841*
Y220045D02*
X233300Y219250D01*
X230644Y218227D02*
X230487Y218000D01*
X230487D02*
X230019Y217659D01*
X233300*
X230019Y215955D02*
X230175Y216295D01*
X230644Y216523*
X231425Y216636*
X231894*
X232675Y216523*
X233144Y216295*
X233300Y215955*
Y215727*
X233144Y215386*
X232675Y215159*
X231894Y215045*
X231425*
X230644Y215159*
X230175Y215386*
X230019Y215727*
Y215955*
X230644Y214023D02*
X230487Y213795D01*
X230487D02*
X230019Y213455D01*
X233300*
X257750Y132339D02*
X261031D01*
X257750D02*
Y131543D01*
X257906Y131202*
X258219Y130975*
X258531Y130861*
X259000Y130748*
X259781*
X260250Y130861*
X260563Y130975*
X260875Y131202*
X261031Y131543*
Y132339*
X258531Y129611D02*
X258375D01*
X258063Y129498*
X257906Y129384*
X257750Y129157*
Y128702*
X257906Y128475*
X258063Y128361*
X258375Y128248*
X258688*
X259000Y128361*
X259469Y128589*
X261031Y129725*
Y128134*
X257750Y126429D02*
X257906Y126770D01*
X258375Y126998*
X259156Y127111*
X259625*
X260406Y126998*
X260875Y126770*
X261031Y126429*
Y126202*
X260875Y125861*
X260406Y125634*
X259625Y125520*
X259156*
X258375Y125634*
X257906Y125861*
X257750Y126202*
Y126429*
Y123816D02*
X257906Y124157D01*
X258375Y124384*
X259156Y124498*
X259625*
X260406Y124384*
X260875Y124157*
X261031Y123816*
Y123589*
X260875Y123248*
X260406Y123020*
X259625Y122907*
X259156*
X258375Y123020*
X257906Y123248*
X257750Y123589*
Y123816*
Y108339D02*
X261031D01*
X257750D02*
Y107543D01*
X257906Y107202*
X258219Y106975*
X258531Y106861*
X259000Y106748*
X259781*
X260250Y106861*
X260563Y106975*
X260875Y107202*
X261031Y107543*
Y108339*
X258531Y105611D02*
X258375D01*
X258063Y105498*
X257906Y105384*
X257750Y105157*
Y104702*
X257906Y104475*
X258063Y104361*
X258375Y104248*
X258688*
X259000Y104361*
X259469Y104589*
X261031Y105725*
Y104134*
X257750Y102429D02*
X257906Y102770D01*
X258375Y102998*
X259156Y103111*
X259625*
X260406Y102998*
X260875Y102770*
X261031Y102429*
Y102202*
X260875Y101861*
X260406Y101634*
X259625Y101520*
X259156*
X258375Y101634*
X257906Y101861*
X257750Y102202*
Y102429*
X258375Y100498D02*
X258219Y100270D01*
X257750Y99929*
X261031*
X190614Y147500D02*
X190500Y147187D01*
X190273Y146875*
X190045Y146719*
X189591*
X189364Y146875*
X189136Y147187*
X189023Y147500*
X188909Y147969*
Y148750*
X189023Y149219*
X189136Y149531*
X189364Y149844*
X189591Y150000*
X190045*
X190273Y149844*
X190500Y149531*
X190614Y149219*
X191636Y147344D02*
X191864Y147187D01*
X192205Y146719*
Y150000*
X193909Y146719D02*
X193568Y146875D01*
X193341Y147344*
X193227Y148125*
Y148594*
X193341Y149375*
X193568Y149844*
X193909Y150000*
X194136*
X194477Y149844*
X194705Y149375*
X194818Y148594*
Y148125*
X194705Y147344*
X194477Y146875*
X194136Y146719*
X193909*
X197318D02*
X196182D01*
X196068Y148125*
X196182Y147969*
X196523Y147812*
X196864*
X197205Y147969*
X197432Y148281*
X197545Y148750*
X197432Y149062*
X197318Y149531*
X197091Y149844*
X196750Y150000*
X196409*
X196068Y149844*
X195955Y149687*
X195841Y149375*
X261748Y211250D02*
X263339Y207969D01*
Y211250D02*
X261748D01*
X263339Y207969D02*
X261748D01*
X260725Y210625D02*
X260498Y210781D01*
X260157Y211250*
Y207969*
X258452Y211250D02*
X258793Y211094D01*
X259020Y210625*
X259134Y209844*
Y209375*
X259020Y208594*
X258793Y208125*
X258452Y207969*
X258225*
X257884Y208125*
X257657Y208594*
X257543Y209375*
Y209844*
X257657Y210625*
X257884Y211094*
X258225Y211250*
X258452*
X255839D02*
X256179Y211094D01*
X256407Y210625*
X256520Y209844*
Y209375*
X256407Y208594*
X256179Y208125*
X255839Y207969*
X255611*
X255270Y208125*
X255043Y208594*
X254929Y209375*
Y209844*
X255043Y210625*
X255270Y211094*
X255611Y211250*
X255839*
X270050Y210619D02*
Y213900D01*
Y210619D02*
X271073D01*
X271414Y210775*
X271527Y210931*
X271641Y211244*
Y211556*
X271527Y211869*
X271414Y212025*
X271073Y212181*
X270050*
X270845D02*
X271641Y213900D01*
X272664Y211244D02*
X272891Y211087D01*
X272891D02*
X273232Y210619D01*
Y213900*
X274936Y210619D02*
X274595Y210775D01*
X274368Y211244*
X274255Y212025*
Y212494*
X274368Y213275*
X274595Y213744*
X274936Y213900*
X275164*
X275505Y213744*
X275732Y213275*
X275845Y212494*
Y212025*
X275732Y211244*
X275505Y210775*
X275164Y210619*
X274936*
X278232Y211087D02*
X278118Y210775D01*
X277777Y210619*
X277550*
X277209Y210775*
X276982Y211244*
X276868Y212025*
Y212806*
X276982Y213431*
X277209Y213744*
X277550Y213900*
X277664*
X278005Y213744*
X278232Y213431*
X278345Y212962*
X278345D02*
Y212806D01*
X278232Y212337*
X278232D02*
X278005Y212025D01*
X277664Y211869*
X277550*
X277209Y212025*
X276982Y212337*
X276982D02*
X276868Y212806D01*
X366719Y290000D02*
X370000D01*
X366719D02*
Y289205D01*
X366875Y288864*
X367188Y288636*
X367188D02*
X367500Y288523D01*
X367969Y288409*
X368750*
X369219Y288523*
X369531Y288636*
X369844Y288864*
X370000Y289205*
Y290000*
X367500Y287273D02*
X367344D01*
X367031Y287159*
X366875Y287045*
X366719Y286818*
Y286364*
X366875Y286136*
X367031Y286023*
X367344Y285909*
X367656*
X367969Y286023*
X368438Y286250*
X368438D02*
X370000Y287386D01*
Y285795*
X366719Y284091D02*
X366875Y284432D01*
X367344Y284659*
X368125Y284773*
X368594*
X369375Y284659*
X369844Y284432*
X370000Y284091*
Y283864*
X369844Y283523*
X369375Y283295*
X368594Y283182*
X368125*
X367344Y283295*
X366875Y283523*
X366719Y283864*
Y284091*
Y281932D02*
Y280682D01*
X367969Y281364*
Y281023*
X368125Y280795*
X368281Y280682*
X368750Y280568*
X369063*
X369063D02*
X369531Y280682D01*
X369844Y280909*
X370000Y281250*
Y281591*
X369844Y281932*
X369688Y282045*
X369688D02*
X369375Y282159D01*
X272927Y206400D02*
X272814Y206087D01*
X272814D02*
X272586Y205775D01*
X272359Y205619*
X271905*
X271677Y205775*
X271450Y206087*
X271450D02*
X271336Y206400D01*
X271223Y206869*
Y207650*
X271336Y208119*
X271450Y208431*
X271677Y208744*
X271905Y208900*
X272359*
X272586Y208744*
X272814Y208431*
X272927Y208119*
X273950Y206244D02*
X274177Y206087D01*
X274177D02*
X274518Y205619D01*
Y208900*
X276223Y205619D02*
X275882Y205775D01*
X275655Y206244*
X275541Y207025*
Y207494*
X275655Y208275*
X275882Y208744*
X276223Y208900*
X276450*
X276791Y208744*
X277018Y208275*
X277132Y207494*
Y207025*
X277018Y206244*
X276791Y205775*
X276450Y205619*
X276223*
X278723D02*
X278382Y205775D01*
X278268Y206087*
X278268D02*
Y206400D01*
X278382Y206712*
X278382D02*
X278609Y206869D01*
X279064Y207025*
X279405Y207181*
X279632Y207494*
X279745Y207806*
Y208275*
X279632Y208587*
X279632D02*
X279518Y208744D01*
X279177Y208900*
X278723*
X278382Y208744*
X278268Y208587*
X278268D02*
X278155Y208275D01*
Y207806*
X278268Y207494*
X278495Y207181*
X278836Y207025*
X279291Y206869*
X279518Y206712*
X279518D02*
X279632Y206400D01*
Y206087*
X279632D02*
X279518Y205775D01*
X279177Y205619*
X278723*
X365719Y250000D02*
X369000D01*
X365719D02*
Y249205D01*
X365875Y248864*
X366187Y248636*
X366187D02*
X366500Y248523D01*
X366969Y248409*
X367750*
X368219Y248523*
X368531Y248636*
X368844Y248864*
X369000Y249205*
Y250000*
X366500Y247273D02*
X366344D01*
X366031Y247159*
X365875Y247045*
X365719Y246818*
Y246364*
X365875Y246136*
X366031Y246023*
X366344Y245909*
X366656*
X366969Y246023*
X367437Y246250*
X367437D02*
X369000Y247386D01*
Y245795*
X365719Y244091D02*
X365875Y244432D01*
X366344Y244659*
X367125Y244773*
X367594*
X368375Y244659*
X368844Y244432*
X369000Y244091*
Y243864*
X368844Y243523*
X368375Y243295*
X367594Y243182*
X367125*
X366344Y243295*
X365875Y243523*
X365719Y243864*
Y244091*
Y241023D02*
X367906Y242159D01*
Y240455*
X365719Y241023D02*
X369000D01*
X363750Y118339D02*
X367031D01*
X363750D02*
Y117543D01*
X363906Y117202*
X364219Y116975*
X364531Y116861*
X365000Y116748*
X365781*
X366250Y116861*
X366563Y116975*
X366875Y117202*
X367031Y117543*
Y118339*
X364531Y115611D02*
X364375D01*
X364063Y115498*
X363906Y115384*
X363750Y115157*
Y114702*
X363906Y114475*
X364063Y114361*
X364375Y114248*
X364688*
X365000Y114361*
X365469Y114589*
X367031Y115725*
Y114134*
X363750Y112429D02*
X363906Y112770D01*
X364375Y112998*
X365156Y113111*
X365625*
X366406Y112998*
X366875Y112770*
X367031Y112429*
Y112202*
X366875Y111861*
X366406Y111634*
X365625Y111520*
X365156*
X364375Y111634*
X363906Y111861*
X363750Y112202*
Y112429*
X364531Y110384D02*
X364375D01*
X364063Y110270*
X363906Y110157*
X363750Y109929*
Y109475*
X363906Y109248*
X364063Y109134*
X364375Y109020*
X364688*
X365000Y109134*
X365469Y109361*
X367031Y110498*
Y108907*
X212886Y132281D02*
Y129000D01*
Y132281D02*
X211864D01*
X211523Y132125*
X211409Y131969*
X211295Y131656*
Y131344*
X211409Y131031*
X211523Y130875*
X211864Y130719*
X212886*
X212091D02*
X211295Y129000D01*
X210159Y131500D02*
Y131656D01*
X210045Y131969*
X209932Y132125*
X209705Y132281*
X209250*
X209023Y132125*
X208909Y131969*
X208795Y131656*
Y131344*
X208909Y131031*
X209136Y130563*
X209136D02*
X210273Y129000D01*
X208682*
X206977Y132281D02*
X207318Y132125D01*
X207545Y131656*
X207659Y130875*
Y130406*
X207545Y129625*
X207318Y129156*
X206977Y129000*
X206750*
X206409Y129156*
X206182Y129625*
X206068Y130406*
Y130875*
X206182Y131656*
X206409Y132125*
X206750Y132281*
X206977*
X204932Y131500D02*
Y131656D01*
X204818Y131969*
X204705Y132125*
X204477Y132281*
X204023*
X203795Y132125*
X203682Y131969*
X203568Y131656*
Y131344*
X203682Y131031*
X203909Y130563*
X203909D02*
X205045Y129000D01*
X203455*
X355719Y186000D02*
X359000D01*
X355719D02*
Y185205D01*
X355875Y184864*
X356188Y184636*
X356188D02*
X356500Y184523D01*
X356969Y184409*
X357750*
X358219Y184523*
X358531Y184636*
X358844Y184864*
X359000Y185205*
Y186000*
X355719Y182250D02*
X357906Y183386D01*
Y181682*
X355719Y182250D02*
X359000D01*
X355719Y179977D02*
X355875Y180318D01*
X356344Y180545*
X357125Y180659*
X357594*
X358375Y180545*
X358844Y180318*
X359000Y179977*
Y179750*
X358844Y179409*
X358375Y179182*
X357594Y179068*
X357125*
X356344Y179182*
X355875Y179409*
X355719Y179750*
Y179977*
Y177364D02*
X355875Y177705D01*
X356344Y177932*
X357125Y178045*
X357594*
X358375Y177932*
X358844Y177705*
X359000Y177364*
Y177136*
X358844Y176795*
X358375Y176568*
X357594Y176455*
X357125*
X356344Y176568*
X355875Y176795*
X355719Y177136*
Y177364*
X374977Y197281D02*
Y194000D01*
Y197281D02*
X373955D01*
X373614Y197125*
X373500Y196969*
X373386Y196656*
Y196344*
X373500Y196031*
X373614Y195875*
X373955Y195719*
X374977*
X374182D02*
X373386Y194000D01*
X371227Y197281D02*
X372364Y195094D01*
X370659*
X371227Y197281D02*
Y194000D01*
X368955Y197281D02*
X369295Y197125D01*
X369523Y196656*
X369636Y195875*
Y195406*
X369523Y194625*
X369295Y194156*
X368955Y194000*
X368727*
X368386Y194156*
X368159Y194625*
X368045Y195406*
Y195875*
X368159Y196656*
X368386Y197125*
X368727Y197281*
X368955*
X367023Y196656D02*
X366795Y196813D01*
X366795D02*
X366455Y197281D01*
Y194000*
X375000Y169281D02*
Y166000D01*
Y169281D02*
X373977D01*
X373636Y169125*
X373523Y168969*
X373409Y168656*
Y168344*
X373523Y168031*
X373636Y167875*
X373977Y167719*
X375000*
X374205D02*
X373409Y166000D01*
X371250Y169281D02*
X372386Y167094D01*
X370682*
X371250Y169281D02*
Y166000D01*
X368977Y169281D02*
X369318Y169125D01*
X369545Y168656*
X369659Y167875*
Y167406*
X369545Y166625*
X369318Y166156*
X368977Y166000*
X368750*
X368409Y166156*
X368182Y166625*
X368068Y167406*
Y167875*
X368182Y168656*
X368409Y169125*
X368750Y169281*
X368977*
X366364D02*
X366705Y169125D01*
X366932Y168656*
X367045Y167875*
Y167406*
X366932Y166625*
X366705Y166156*
X366364Y166000*
X366136*
X365795Y166156*
X365568Y166625*
X365455Y167406*
Y167875*
X365568Y168656*
X365795Y169125*
X366136Y169281*
X366364*
X364719Y233000D02*
X368000D01*
X364719D02*
Y232205D01*
X364875Y231864*
X365188Y231636*
X365188D02*
X365500Y231523D01*
X365969Y231409*
X366750*
X367219Y231523*
X367531Y231636*
X367844Y231864*
X368000Y232205*
Y233000*
X364719Y229250D02*
X366906Y230386D01*
Y228682*
X364719Y229250D02*
X368000D01*
X364719Y226977D02*
X364875Y227318D01*
X365344Y227545*
X366125Y227659*
X366594*
X367375Y227545*
X367844Y227318*
X368000Y226977*
Y226750*
X367844Y226409*
X367375Y226182*
X366594Y226068*
X366125*
X365344Y226182*
X364875Y226409*
X364719Y226750*
Y226977*
X365344Y225045D02*
X365188Y224818D01*
X365188D02*
X364719Y224477D01*
X368000*
X394281Y267114D02*
X391000D01*
X394281D02*
Y268136D01*
X394125Y268477*
X393969Y268591*
X393656Y268705*
X393344*
X393031Y268591*
X392875Y268477*
X392719Y268136*
Y267114*
Y267909D02*
X391000Y268705D01*
X393500Y269841D02*
X393656D01*
X393969Y269955*
X394125Y270068*
X394281Y270295*
Y270750*
X394125Y270977*
X393969Y271091*
X393656Y271205*
X393344*
X393031Y271091*
X392563Y270864*
X392563D02*
X391000Y269727D01*
Y271318*
X394281Y273023D02*
X394125Y272682D01*
X393656Y272455*
X392875Y272341*
X392406*
X391625Y272455*
X391156Y272682*
X391000Y273023*
Y273250*
X391156Y273591*
X391625Y273818*
X392406Y273932*
X392875*
X393656Y273818*
X394125Y273591*
X394281Y273250*
Y273023*
Y275636D02*
X394125Y275295D01*
X393656Y275068*
X392875Y274955*
X392406*
X391625Y275068*
X391156Y275295*
X391000Y275636*
Y275864*
X391156Y276205*
X391625Y276432*
X392406Y276545*
X392875*
X393656Y276432*
X394125Y276205*
X394281Y275864*
Y275636*
Y254136D02*
X391000D01*
X394281D02*
Y255159D01*
X394125Y255500*
X393969Y255614*
X393656Y255727*
X393344*
X393031Y255614*
X392875Y255500*
X392719Y255159*
Y254136*
Y254932D02*
X391000Y255727D01*
X393500Y256864D02*
X393656D01*
X393969Y256977*
X394125Y257091*
X394281Y257318*
Y257773*
X394125Y258000*
X393969Y258114*
X393656Y258227*
X393344*
X393031Y258114*
X392563Y257886*
X392563D02*
X391000Y256750D01*
Y258341*
X394281Y260045D02*
X394125Y259705D01*
X393656Y259477*
X392875Y259364*
X392406*
X391625Y259477*
X391156Y259705*
X391000Y260045*
Y260273*
X391156Y260614*
X391625Y260841*
X392406Y260955*
X392875*
X393656Y260841*
X394125Y260614*
X394281Y260273*
Y260045*
X393656Y261977D02*
X393813Y262205D01*
X393813D02*
X394281Y262545D01*
X391000*
G74*
X0Y0D02*
M02*
