*
*
G04 PADS 9.3.1 Build Number: 456998 generated Gerber (RS-274-X) file*
G04 PC Version=2.1*
*
%IN "bogiectl_rev2_1.pcb"*%
*
%MOIN*%
*
%FSLAX35Y35*%
*
*
*
*
G04 PC Standard Apertures*
*
*
G04 Thermal Relief Aperture macro.*
%AMTER*
1,1,$1,0,0*
1,0,$1-$2,0,0*
21,0,$3,$4,0,0,45*
21,0,$3,$4,0,0,135*
%
*
*
G04 Annular Aperture macro.*
%AMANN*
1,1,$1,0,0*
1,0,$2,0,0*
%
*
*
G04 Odd Aperture macro.*
%AMODD*
1,1,$1,0,0*
1,0,$1-0.005,0,0*
%
*
*
G04 PC Custom Aperture Macros*
*
*
*
*
*
*
G04 PC Aperture Table*
*
%ADD010C,0.001*%
%ADD015C,0.00787*%
%ADD019C,0.01*%
%ADD066C,0.01024*%
%ADD067C,0.01969*%
%ADD068C,0.00984*%
%ADD069C,0.00787*%
%ADD070C,0.005*%
%ADD071C,0.00394*%
%ADD072C,0.00591*%
*
*
*
*
G04 PC Circuitry*
G04 Layer Name bogiectl_rev2_1.pcb - circuitry*
%LPD*%
*
*
G04 PC Custom Flashes*
G04 Layer Name bogiectl_rev2_1.pcb - flashes*
%LPD*%
*
*
G04 PC Circuitry*
G04 Layer Name bogiectl_rev2_1.pcb - circuitry*
%LPD*%
*
G54D10*
G54D15*
G01X228600Y200200D02*
X228000D01*
X226400Y201800*
Y230200*
X228000Y231800*
X228700*
X242000Y200200D02*
X242600D01*
X244200Y201800*
Y230300*
X242600Y231900*
X242000*
X223796Y207961D02*
X220765D01*
X220804Y223039D02*
X223835D01*
X290496Y174961D02*
X287465D01*
X274339Y238496D02*
Y235465D01*
X312039Y215496D02*
Y212465D01*
X313539Y284296D02*
Y281265D01*
X298804Y189496D02*
X261796D01*
Y226504*
X298804*
Y189496*
X141685Y215157D02*
G75*
G03X141685I-19685J0D01*
G01X132630Y231693D02*
X111764D01*
X112551Y232087D02*
X131449D01*
X113339Y232480D02*
X130268D01*
X114520Y232874D02*
X129480D01*
X115307Y233268D02*
X128693D01*
X116488Y233661D02*
X127512D01*
X117669Y234055D02*
X125937D01*
X111370Y231299D02*
X132630D01*
X109402Y229724D02*
X134992D01*
X109795Y230118D02*
X134205D01*
X110189Y230512D02*
X133811D01*
X110583Y230906D02*
X133417D01*
X135780Y228937D02*
X108220D01*
X135386Y229331D02*
X109008D01*
X217700Y301900D02*
X218700Y302900D01*
Y319000*
X217700Y320000*
X212150*
X211150Y319000*
Y302900*
X212150Y301900*
X217700*
X285900Y282500D02*
X286900Y283500D01*
Y299600*
X285900Y300600*
X280350*
X279350Y299600*
Y283500*
X280350Y282500*
X285900*
X313539Y292296D02*
Y289265D01*
X300539Y284296D02*
Y281265D01*
Y292296D02*
Y289265D01*
X164643Y181700D02*
G03X164643I-19686J0D01*
G01X161493Y171070D02*
Y191936D01*
X161887Y191149D02*
Y172251D01*
X162280Y190361D02*
Y173432D01*
X162674Y189180D02*
Y174220D01*
X163068Y188393D02*
Y175007D01*
X163461Y187212D02*
Y176188D01*
X163855Y186031D02*
Y177763D01*
X161099Y192330D02*
Y171070D01*
X159524Y194298D02*
Y168708D01*
X159918Y193905D02*
Y169495D01*
X160312Y193511D02*
Y169889D01*
X160706Y193117D02*
Y170283D01*
X158737Y167920D02*
Y195480D01*
X159131Y168314D02*
Y194692D01*
X209496Y208961D02*
X206465D01*
X192100Y160700D02*
X191100Y161700D01*
X175000*
X174000Y160700*
Y155150*
X175000Y154150*
X191100*
X192100Y155150*
Y160700*
X275000Y248000D02*
Y242000D01*
X224701Y113874D02*
X237299D01*
Y148126*
X224701*
Y113874*
X234961Y151504D02*
Y154535D01*
X252039Y145696D02*
Y142665D01*
X143976Y252315D02*
X166417D01*
X144764Y251921D02*
X165236D01*
X145551Y251134D02*
X164449D01*
X146732Y250346D02*
X163268D01*
X148307Y249559D02*
X161693D01*
X150276Y249165D02*
X159331D01*
X151850Y248772D02*
X157756D01*
X242874Y283606D02*
X246811D01*
Y307228*
X242874*
X227126Y283606D02*
X223189Y287543D01*
Y303291*
X227126Y307228*
X195260Y271921D02*
X202740D01*
Y262079*
X195260*
Y271921*
X188170Y272512D02*
G03X188170I-194J0D01*
G01X199193Y271331D02*
G03X199193I-193J0D01*
G01X359961Y115504D02*
Y118535D01*
X360039Y124496D02*
Y121465D01*
X358961Y286504D02*
Y289535D01*
X354961Y266504D02*
Y269535D01*
X359961Y136504D02*
Y139535D01*
X253496Y200961D02*
X250465D01*
X360039Y132496D02*
Y129465D01*
X298039Y253196D02*
Y250165D01*
X310961Y242204D02*
Y245235D01*
X298039Y245196D02*
Y242165D01*
X188504Y279039D02*
X191535D01*
X243496Y264961D02*
X240465D01*
X234504Y265039D02*
X237535D01*
X215504D02*
X218535D01*
X227504D02*
X230535D01*
X221504D02*
X224535D01*
X103045Y173306D02*
Y115431D01*
X121549*
Y173306*
X103045*
X154000Y232500D02*
X166000D01*
Y237500*
X154000*
Y232500*
X168504Y234039D02*
X171535D01*
X184496Y258961D02*
X181465D01*
X177496Y260961D02*
X174465D01*
X267200Y291100D02*
X255200D01*
Y286100*
X267200*
Y291100*
X262161Y299104D02*
Y302135D01*
X253496Y281961D02*
X250465D01*
X157296Y302461D02*
X154265D01*
X157296Y315461D02*
X154265D01*
X358496Y188961D02*
X355465D01*
X355504Y173039D02*
X358535D01*
X361504Y189039D02*
X364535D01*
X364496Y172961D02*
X361465D01*
X344039Y192496D02*
Y189465D01*
X355039Y227496D02*
Y224465D01*
X252039Y139496D02*
Y136465D01*
X273961Y250504D02*
Y253535D01*
X146843Y318717D02*
X107472D01*
Y283283*
X146843*
Y318717*
X127157D02*
Y301236D01*
X243961Y190504D02*
Y193535D01*
X126157Y112283D02*
X165528D01*
Y147717*
X126157*
Y112283*
X145843D02*
Y129764D01*
X347756Y184543D02*
Y185331D01*
X342244*
Y184543*
Y177457D02*
Y176669D01*
X347756*
Y177457*
X346768Y177850D02*
G03X346768I-193J0D01*
G01X351886Y177063D02*
G03X351886I-193J0D01*
G01X357756Y221543D02*
Y222331D01*
X352244*
Y221543*
Y214457D02*
Y213669D01*
X357756*
Y214457*
X356768Y214850D02*
G03X356768I-193J0D01*
G01X361886Y214063D02*
G03X361886I-193J0D01*
G01X310961Y250204D02*
Y253235D01*
X355244Y256457D02*
Y255669D01*
X360756*
Y256457*
Y263543D02*
Y264331D01*
X355244*
Y263543*
X356618Y263150D02*
G03X356618I-193J0D01*
G01X351500Y263937D02*
G03X351500I-193J0D01*
G54D19*
G01X322268Y284375D02*
G03X322268I-500J0D01*
G01X122317Y187485D02*
Y193110D01*
X124362Y190298D02*
X120271D01*
X220900Y303500D02*
G03X220900I-500J0D01*
G01X289100Y284100D02*
G03X289100I-500J0D01*
G01X322268Y292375D02*
G03X322268I-500J0D01*
G01X117285Y181383D02*
X122910D01*
X120098Y179338D02*
Y183429D01*
X211010Y187536D02*
G03X211010I-500J0D01*
G01X191000Y163400D02*
G03X191000I-500J0D01*
G01X171929Y264913D02*
G03X171929I-16929J0D01*
G01X205000Y292000D02*
Y298000D01*
X207868Y285709D02*
Y274291D01*
X216726Y281500D02*
Y279000D01*
X197238Y283937D02*
Y285906D01*
X214561*
Y283937*
Y275866D02*
Y274291D01*
X197238*
Y276063*
X206883Y285709D02*
Y274291D01*
X366114Y119457D02*
G03X366114I-500J0D01*
G01X303232Y242125D02*
G03X303232I-500J0D01*
G01X258305Y105409D02*
G03X258305I-447J0D01*
G01X121261Y174880D02*
G03X121261I-500J0D01*
G01X118000Y258000D02*
X107500D01*
X154500Y228000D02*
G03X154500I-500J0D01*
G01X176669Y279000D02*
X185331D01*
X267700Y295600D02*
G03X267700I-500J0D01*
G01X270200Y291600D02*
X276200D01*
X157875Y294232D02*
G03X157875I-500J0D01*
G01X366305Y159134D02*
G03X366305I-447J0D01*
G01Y204134D02*
G03X366305I-447J0D01*
G01X366805Y246509D02*
G03X366805I-447J0D01*
G01X353988Y283724D02*
G03X353988I-500J0D01*
G01X303232Y250125D02*
G03X303232I-500J0D01*
G01X152409Y108000D02*
X152182Y108625D01*
X151727Y109250*
X151273Y109563*
X151273D02*
X150364D01*
X150364D02*
X149909Y109250D01*
X149455Y108625*
X149227Y108000*
X149000Y107063*
X149000D02*
Y105500D01*
X149227Y104563*
X149227D02*
X149455Y103938D01*
X149455D02*
X149909Y103313D01*
X149909D02*
X150364Y103000D01*
X151273*
X151727Y103313*
X151727D02*
X152182Y103938D01*
X152182D02*
X152409Y104563D01*
X152409D02*
Y105500D01*
X151273D02*
X152409D01*
X154455Y109563D02*
Y103000D01*
Y109563D02*
X157636Y103000D01*
Y109563D02*
Y103000D01*
X159682Y109563D02*
Y103000D01*
Y109563D02*
X161273D01*
X161273D02*
X161955Y109250D01*
X162409Y108625*
X162636Y108000*
X162864Y107063*
X162864D02*
Y105500D01*
X162636Y104563*
X162636D02*
X162409Y103938D01*
X162409D02*
X161955Y103313D01*
X161955D02*
X161273Y103000D01*
X159682*
X132000Y109563D02*
X133818Y103000D01*
X135636Y109563D02*
X133818Y103000D01*
X139727Y108625D02*
Y103000D01*
X137682Y105813D02*
X141773D01*
X282437Y110000D02*
X289000D01*
X282437D02*
Y112045D01*
X282437D02*
X282750Y112727D01*
X283062Y112955*
X283062D02*
X283687Y113182D01*
X283687D02*
X284312D01*
X284312D02*
X284937Y112955D01*
X284937D02*
X285250Y112727D01*
X285562Y112045*
X285562D02*
Y110000D01*
Y111591D02*
X289000Y113182D01*
X282437Y116591D02*
X282750Y116136D01*
X283375Y115682*
X284000Y115455*
X284937Y115227*
X284937D02*
X286500D01*
X287437Y115455*
X287437D02*
X288062Y115682D01*
X288062D02*
X288687Y116136D01*
X288687D02*
X289000Y116591D01*
Y117500*
X288687Y117955*
X288687D02*
X288062Y118409D01*
X288062D02*
X287437Y118636D01*
X287437D02*
X286500Y118864D01*
X284937*
X284937D02*
X284000Y118636D01*
X283375Y118409*
X282750Y117955*
X282437Y117500*
X282437D02*
Y116591D01*
Y120909D02*
X289000Y122727D01*
X282437Y124545D02*
X289000Y122727D01*
X282437Y126591D02*
X289000D01*
X282437D02*
Y129545D01*
X285562Y126591D02*
Y128409D01*
X289000Y126591D02*
Y129545D01*
X282437Y131591D02*
X289000D01*
X282437D02*
Y133636D01*
X282437D02*
X282750Y134318D01*
X283062Y134545*
X283062D02*
X283687Y134773D01*
X283687D02*
X284312D01*
X284312D02*
X284937Y134545D01*
X284937D02*
X285250Y134318D01*
X285562Y133636*
X285562D02*
Y131591D01*
Y133182D02*
X289000Y134773D01*
X282437Y136818D02*
X289000D01*
X282437D02*
Y138864D01*
X282437D02*
X282750Y139545D01*
X283062Y139773*
X283062D02*
X283687Y140000D01*
X283687D02*
X284312D01*
X284312D02*
X284937Y139773D01*
X284937D02*
X285250Y139545D01*
X285562Y138864*
Y136818D02*
Y138864D01*
X285562D02*
X285875Y139545D01*
X286187Y139773*
X286187D02*
X286812Y140000D01*
X286812D02*
X287750D01*
X288375Y139773*
X288687Y139545*
X288687D02*
X289000Y138864D01*
Y136818*
X282437Y142045D02*
X287125D01*
X288062Y142273*
X288062D02*
X288687Y142727D01*
X288687D02*
X289000Y143409D01*
Y143864*
X288687Y144545*
X288687D02*
X288062Y145000D01*
X288062D02*
X287125Y145227D01*
X282437*
X283375Y150455D02*
X282750Y150000D01*
X282437Y149318*
X282437D02*
Y148409D01*
X282437D02*
X282750Y147727D01*
X283375Y147273*
X284000*
X284625Y147500*
X284937Y147727*
X284937D02*
X285250Y148182D01*
X285875Y149545*
X286187Y150000*
X286187D02*
X286500Y150227D01*
X287125Y150455*
X288062*
X288062D02*
X288687Y150000D01*
X288687D02*
X289000Y149318D01*
Y148409*
X288687Y147727*
X288687D02*
X288062Y147273D01*
X390437Y161000D02*
X397000Y162136D01*
X390437Y163273D02*
X397000Y162136D01*
X390437Y163273D02*
X397000Y164409D01*
X390437Y165545D02*
X397000Y164409D01*
X396375Y167818D02*
X396687Y167591D01*
X396687D02*
X397000Y167818D01*
X396687Y168045*
X396687D02*
X396375Y167818D01*
X390437Y170091D02*
X397000D01*
X390437D02*
Y173045D01*
X393562Y170091D02*
Y171909D01*
X397000Y170091D02*
Y173045D01*
X390437Y175091D02*
X397000D01*
X390437D02*
X397000Y178273D01*
X390437D02*
X397000D01*
X392000Y183727D02*
X391375Y183500D01*
X390750Y183045*
X390437Y182591*
X390437D02*
Y181682D01*
X390437D02*
X390750Y181227D01*
X391375Y180773*
X392000Y180545*
X392937Y180318*
X392937D02*
X394500D01*
X395437Y180545*
X395437D02*
X396062Y180773D01*
X396062D02*
X396687Y181227D01*
X396687D02*
X397000Y181682D01*
Y182591*
X396687Y183045*
X396687D02*
X396062Y183500D01*
X396062D02*
X395437Y183727D01*
X390437Y209591D02*
X397000D01*
X390437Y208000D02*
Y211182D01*
X396375Y213455D02*
X396687Y213227D01*
X396687D02*
X397000Y213455D01*
X396687Y213682*
X396687D02*
X396375Y213455D01*
X390437Y215727D02*
X397000D01*
X390437D02*
Y218682D01*
X393562Y215727D02*
Y217545D01*
X397000Y215727D02*
Y218682D01*
X390437Y220727D02*
X397000D01*
X390437D02*
X397000Y223909D01*
X390437D02*
X397000D01*
X392000Y229364D02*
X391375Y229136D01*
X390750Y228682*
X390437Y228227*
X390437D02*
Y227318D01*
X390437D02*
X390750Y226864D01*
X391375Y226409*
X392000Y226182*
X392937Y225955*
X392937D02*
X394500D01*
X395437Y226182*
X395437D02*
X396062Y226409D01*
X396062D02*
X396687Y226864D01*
X396687D02*
X397000Y227318D01*
Y228227*
X396687Y228682*
X396687D02*
X396062Y229136D01*
X396062D02*
X395437Y229364D01*
X390437Y126000D02*
X397000D01*
Y128727*
X390437Y130773D02*
X397000D01*
X390437Y132818D02*
X397000D01*
X390437D02*
X397000Y134636D01*
X390437Y136455D02*
X397000Y134636D01*
X390437Y136455D02*
X397000D01*
X115955Y322375D02*
Y328000D01*
X118000Y325187D02*
X113909D01*
X140000D02*
X135909D01*
X113000Y281563D02*
Y275000D01*
Y281563D02*
X115045D01*
X115045D02*
X115727Y281250D01*
X115955Y280938*
X115955D02*
X116182Y280313D01*
X116182D02*
Y279375D01*
X115955Y278750*
X115727Y278438*
X115727D02*
X115045Y278125D01*
X113000*
X118227Y281563D02*
X119364Y275000D01*
X120500Y281563D02*
X119364Y275000D01*
X120500Y281563D02*
X121636Y275000D01*
X122773Y281563D02*
X121636Y275000D01*
X124818Y281563D02*
Y275000D01*
Y281563D02*
X126864D01*
X126864D02*
X127545Y281250D01*
X127773Y280938*
X127773D02*
X128000Y280313D01*
X128000D02*
Y279688D01*
X128000D02*
X127773Y279063D01*
X127773D02*
X127545Y278750D01*
X126864Y278438*
X126864D02*
X124818D01*
X126409D02*
X128000Y275000D01*
X135273Y281563D02*
Y275000D01*
X137318Y281563D02*
Y275000D01*
Y281563D02*
X140500Y275000D01*
Y281563D02*
Y275000D01*
X127000Y156563D02*
Y150000D01*
Y156563D02*
X128818Y150000D01*
X130636Y156563D02*
X128818Y150000D01*
X130636Y156563D02*
Y150000D01*
X134273Y156563D02*
Y150000D01*
X132682Y156563D02*
X135864D01*
X137909D02*
Y150000D01*
Y156563D02*
X139955D01*
X139955D02*
X140636Y156250D01*
X140864Y155938*
X140864D02*
X141091Y155313D01*
X141091D02*
Y154688D01*
X141091D02*
X140864Y154063D01*
X140864D02*
X140636Y153750D01*
X139955Y153438*
X139955D02*
X137909D01*
X139500D02*
X141091Y150000D01*
X148364Y156563D02*
Y150000D01*
Y156563D02*
X150409D01*
X150409D02*
X151091Y156250D01*
X151318Y155938*
X151318D02*
X151545Y155313D01*
X151545D02*
Y154375D01*
X151318Y153750*
X151091Y153438*
X151091D02*
X150409Y153125D01*
X148364*
X153591Y156563D02*
X154727Y150000D01*
X155864Y156563D02*
X154727Y150000D01*
X155864Y156563D02*
X157000Y150000D01*
X158136Y156563D02*
X157000Y150000D01*
X160182Y156563D02*
Y150000D01*
Y156563D02*
X162227D01*
X162227D02*
X162909Y156250D01*
X163136Y155938*
X163136D02*
X163364Y155313D01*
X163364D02*
Y154688D01*
X163364D02*
X163136Y154063D01*
X163136D02*
X162909Y153750D01*
X162227Y153438*
X162227D02*
X160182D01*
X161773D02*
X163364Y150000D01*
X159227Y304000D02*
Y304313D01*
X159227D02*
X159455Y304938D01*
X159455D02*
X159682Y305250D01*
X160136Y305563*
X160136D02*
X161045D01*
X161045D02*
X161500Y305250D01*
X161727Y304938*
X161727D02*
X161955Y304313D01*
X161955D02*
Y303688D01*
X161955D02*
X161727Y303063D01*
X161727D02*
X161273Y302125D01*
X159000Y299000*
X162182*
X166500Y305563D02*
X164227Y301188D01*
X164227D02*
X167636D01*
X166500Y305563D02*
Y299000D01*
X169682Y305563D02*
X171500Y299000D01*
X173318Y305563D02*
X171500Y299000D01*
X326455Y293363D02*
X324182D01*
X324182D02*
X323955Y290550D01*
X324182Y290863*
X324182D02*
X324864Y291175D01*
X325545*
X326227Y290863*
X326227D02*
X326682Y290238D01*
X326682D02*
X326909Y289300D01*
X326682Y288675*
X326455Y287738*
X326455D02*
X326000Y287113D01*
X326000D02*
X325318Y286800D01*
X324636*
X323955Y287113*
X323955D02*
X323727Y287425D01*
X323500Y288050*
X328955Y293363D02*
X330773Y286800D01*
X332591Y293363D02*
X330773Y286800D01*
X323955Y284363D02*
X326455D01*
X326455D02*
X325091Y281863D01*
X325091D02*
X325773D01*
X325773D02*
X326227Y281550D01*
X326455Y281238*
X326455D02*
X326682Y280300D01*
Y279675*
X326455Y278738*
X326455D02*
X326000Y278113D01*
X326000D02*
X325318Y277800D01*
X324636*
X323955Y278113*
X323955D02*
X323727Y278425D01*
X323500Y279050*
X328955Y278425D02*
X328727Y278113D01*
X328727D02*
X328955Y277800D01*
X329182Y278113*
X329182D02*
X328955Y278425D01*
X331682Y284363D02*
X334182D01*
X334182D02*
X332818Y281863D01*
X332818D02*
X333500D01*
X333500D02*
X333955Y281550D01*
X334182Y281238*
X334182D02*
X334409Y280300D01*
Y279675*
X334182Y278738*
X334182D02*
X333727Y278113D01*
X333727D02*
X333045Y277800D01*
X332364*
X331682Y278113*
X331682D02*
X331455Y278425D01*
X331227Y279050*
X336455Y284363D02*
X338273Y277800D01*
X340091Y284363D02*
X338273Y277800D01*
X184000Y237563D02*
Y231000D01*
Y237563D02*
X186045D01*
X186045D02*
X186727Y237250D01*
X186955Y236938*
X186955D02*
X187182Y236313D01*
X187182D02*
Y235688D01*
X187182D02*
X186955Y235063D01*
X186955D02*
X186727Y234750D01*
X186045Y234438*
X186045D02*
X184000D01*
X185591D02*
X187182Y231000D01*
X192409Y236625D02*
X191955Y237250D01*
X191273Y237563*
X191273D02*
X190364D01*
X190364D02*
X189682Y237250D01*
X189227Y236625*
Y236000*
X189455Y235375*
X189682Y235063*
X189682D02*
X190136Y234750D01*
X191500Y234125*
X191955Y233813*
X191955D02*
X192182Y233500D01*
X192409Y232875*
Y231938*
X192409D02*
X191955Y231313D01*
X191955D02*
X191273Y231000D01*
X190364*
X189682Y231313*
X189682D02*
X189227Y231938D01*
X196045Y237563D02*
Y231000D01*
X194455Y237563D02*
X197636D01*
X216000Y180563D02*
Y174000D01*
Y180563D02*
X218045D01*
X218045D02*
X218727Y180250D01*
X218955Y179938*
X218955D02*
X219182Y179313D01*
X219182D02*
Y178375D01*
X218955Y177750*
X218727Y177438*
X218727D02*
X218045Y177125D01*
X216000*
X221227Y180563D02*
Y174000D01*
Y180563D02*
X222818D01*
X222818D02*
X223500Y180250D01*
X223955Y179625*
X224182Y179000*
X224409Y178063*
X224409D02*
Y176500D01*
X224182Y175563*
X224182D02*
X223955Y174938D01*
X223955D02*
X223500Y174313D01*
X223500D02*
X222818Y174000D01*
X221227*
X226455Y180563D02*
Y174000D01*
X196000Y160563D02*
Y154000D01*
Y160563D02*
X198045D01*
X198045D02*
X198727Y160250D01*
X198955Y159938*
X198955D02*
X199182Y159313D01*
X199182D02*
Y158375D01*
X198955Y157750*
X198727Y157438*
X198727D02*
X198045Y157125D01*
X196000*
X201227Y160563D02*
Y154000D01*
Y160563D02*
X203273D01*
X203273D02*
X203955Y160250D01*
X204182Y159938*
X204182D02*
X204409Y159313D01*
X204409D02*
Y158688D01*
X204409D02*
X204182Y158063D01*
X204182D02*
X203955Y157750D01*
X203273Y157438*
X203273D02*
X201227D01*
X202818D02*
X204409Y154000D01*
X209864Y159000D02*
X209636Y159625D01*
X209182Y160250*
X208727Y160563*
X208727D02*
X207818D01*
X207818D02*
X207364Y160250D01*
X206909Y159625*
X206682Y159000*
X206455Y158063*
X206455D02*
Y156500D01*
X206682Y155563*
X206682D02*
X206909Y154938D01*
X206909D02*
X207364Y154313D01*
X207364D02*
X207818Y154000D01*
X208727*
X209182Y154313*
X209182D02*
X209636Y154938D01*
X209636D02*
X209864Y155563D01*
X209864D02*
Y156500D01*
X208727D02*
X209864D01*
X391437Y254000D02*
X398000D01*
X391437D02*
X398000Y255818D01*
X391437Y257636D02*
X398000Y255818D01*
X391437Y257636D02*
X398000D01*
X391437Y261273D02*
X398000D01*
X391437Y259682D02*
Y262864D01*
Y264909D02*
X398000D01*
X391437D02*
Y266955D01*
X391437D02*
X391750Y267636D01*
X392062Y267864*
X392062D02*
X392687Y268091D01*
X392687D02*
X393312D01*
X393312D02*
X393937Y267864D01*
X393937D02*
X394250Y267636D01*
X394562Y266955*
X394562D02*
Y264909D01*
Y266500D02*
X398000Y268091D01*
X399250Y270136D02*
Y274909D01*
X393000Y279682D02*
X392375Y279455D01*
X391750Y279000*
X391437Y278545*
X391437D02*
Y277636D01*
X391437D02*
X391750Y277182D01*
X392375Y276727*
X393000Y276500*
X393937Y276273*
X393937D02*
X395500D01*
X396437Y276500*
X396437D02*
X397062Y276727D01*
X397062D02*
X397687Y277182D01*
X397687D02*
X398000Y277636D01*
Y278545*
X397687Y279000*
X397687D02*
X397062Y279455D01*
X397062D02*
X396437Y279682D01*
X391437Y283318D02*
X398000D01*
X391437Y281727D02*
Y284909D01*
Y286955D02*
X398000D01*
Y289682*
X322982Y251225D02*
X322527Y251850D01*
X321845Y252163*
X321845D02*
X320936D01*
X320936D02*
X320255Y251850D01*
X319800Y251225*
Y250600*
X320027Y249975*
X320255Y249663*
X320255D02*
X320709Y249350D01*
X322073Y248725*
X322527Y248413*
X322527D02*
X322755Y248100D01*
X322982Y247475*
Y246538*
X322982D02*
X322527Y245913D01*
X322527D02*
X321845Y245600D01*
X320936*
X320255Y245913*
X320255D02*
X319800Y246538D01*
X326618Y252163D02*
Y245600D01*
X325027Y252163D02*
X328209D01*
X332073D02*
X330255Y245600D01*
X332073Y252163D02*
X333891Y245600D01*
X330936Y247788D02*
X333209D01*
X337527Y252163D02*
Y245600D01*
X335936Y252163D02*
X339118D01*
X330000Y326563D02*
Y320000D01*
Y326563D02*
X332045D01*
X332045D02*
X332727Y326250D01*
X332955Y325938*
X332955D02*
X333182Y325313D01*
X333182D02*
Y324688D01*
X333182D02*
X332955Y324063D01*
X332955D02*
X332727Y323750D01*
X332045Y323438*
X330000D02*
X332045D01*
X332045D02*
X332727Y323125D01*
X332955Y322813*
X332955D02*
X333182Y322188D01*
X333182D02*
Y321250D01*
X332955Y320625*
X332727Y320313*
X332727D02*
X332045Y320000D01*
X330000*
X336364Y324375D02*
X335909Y324063D01*
X335909D02*
X335455Y323438D01*
X335455D02*
X335227Y322500D01*
Y321875*
X335455Y320938*
X335455D02*
X335909Y320313D01*
X335909D02*
X336364Y320000D01*
X337045*
X337500Y320313*
X337500D02*
X337955Y320938D01*
X337955D02*
X338182Y321875D01*
Y322500*
X337955Y323438*
X337955D02*
X337500Y324063D01*
X337500D02*
X337045Y324375D01*
X336364*
X342955D02*
Y319375D01*
X342727Y318437*
X342727D02*
X342500Y318125D01*
X342045Y317812*
X342045D02*
X341364D01*
X341364D02*
X340909Y318125D01*
X342955Y323438D02*
X342500Y324063D01*
X342500D02*
X342045Y324375D01*
X341364*
X340909Y324063*
X340909D02*
X340455Y323438D01*
X340455D02*
X340227Y322500D01*
Y321875*
X340455Y320938*
X340455D02*
X340909Y320313D01*
X340909D02*
X341364Y320000D01*
X342045*
X342500Y320313*
X342500D02*
X342955Y320938D01*
X345000Y326563D02*
X345227Y326250D01*
X345455Y326563*
X345455D02*
X345227Y326875D01*
X345000Y326563*
X345227Y324375D02*
Y320000D01*
X347500Y322500D02*
X350227D01*
Y323125*
X350000Y323750*
X349773Y324063*
X349773D02*
X349318Y324375D01*
X348636*
X348182Y324063*
X348182D02*
X347727Y323438D01*
X347727D02*
X347500Y322500D01*
Y321875*
X347727Y320938*
X347727D02*
X348182Y320313D01*
X348182D02*
X348636Y320000D01*
X349318*
X349773Y320313*
X349773D02*
X350227Y320938D01*
X360909Y325000D02*
X360682Y325625D01*
X360227Y326250*
X359773Y326563*
X359773D02*
X358864D01*
X358864D02*
X358409Y326250D01*
X357955Y325625*
X357727Y325000*
X357500Y324063*
X357500D02*
Y322500D01*
X357727Y321563*
X357727D02*
X357955Y320938D01*
X357955D02*
X358409Y320313D01*
X358409D02*
X358864Y320000D01*
X359773*
X360227Y320313*
X360227D02*
X360682Y320938D01*
X360682D02*
X360909Y321563D01*
X364091Y324375D02*
X363636Y324063D01*
X363636D02*
X363182Y323438D01*
X363182D02*
X362955Y322500D01*
Y321875*
X363182Y320938*
X363182D02*
X363636Y320313D01*
X363636D02*
X364091Y320000D01*
X364773*
X365227Y320313*
X365227D02*
X365682Y320938D01*
X365682D02*
X365909Y321875D01*
Y322500*
X365682Y323438*
X365682D02*
X365227Y324063D01*
X365227D02*
X364773Y324375D01*
X364091*
X367955D02*
Y320000D01*
Y323125D02*
X368636Y324063D01*
X368636D02*
X369091Y324375D01*
X369773*
X370227Y324063*
X370227D02*
X370455Y323125D01*
Y320000*
X373182Y326563D02*
Y321250D01*
X373409Y320313*
X373409D02*
X373864Y320000D01*
X374318*
X372500Y324375D02*
X374091D01*
X376364D02*
Y320000D01*
Y322500D02*
X376591Y323438D01*
X376591D02*
X377045Y324063D01*
X377045D02*
X377500Y324375D01*
X378182*
X381364D02*
X380909Y324063D01*
X380909D02*
X380455Y323438D01*
X380455D02*
X380227Y322500D01*
Y321875*
X380455Y320938*
X380455D02*
X380909Y320313D01*
X380909D02*
X381364Y320000D01*
X382045*
X382500Y320313*
X382500D02*
X382955Y320938D01*
X382955D02*
X383182Y321875D01*
Y322500*
X382955Y323438*
X382955D02*
X382500Y324063D01*
X382500D02*
X382045Y324375D01*
X381364*
X385227Y326563D02*
Y320000D01*
X387273Y326563D02*
Y320000D01*
X389318Y322500D02*
X392045D01*
Y323125*
X391818Y323750*
X391591Y324063*
X391591D02*
X391136Y324375D01*
X390455*
X390000Y324063*
X390000D02*
X389545Y323438D01*
X389545D02*
X389318Y322500D01*
Y321875*
X389545Y320938*
X389545D02*
X390000Y320313D01*
X390000D02*
X390455Y320000D01*
X391136*
X391591Y320313*
X391591D02*
X392045Y320938D01*
X394091Y324375D02*
Y320000D01*
Y322500D02*
X394318Y323438D01*
X394318D02*
X394773Y324063D01*
X394773D02*
X395227Y324375D01*
X395909*
X349000Y317563D02*
Y311000D01*
Y317563D02*
X351045D01*
X351045D02*
X351727Y317250D01*
X351955Y316938*
X351955D02*
X352182Y316313D01*
X352182D02*
Y315688D01*
X352182D02*
X351955Y315063D01*
X351955D02*
X351727Y314750D01*
X351045Y314438*
X351045D02*
X349000D01*
X350591D02*
X352182Y311000D01*
X354227Y313500D02*
X356955D01*
Y314125*
X356727Y314750*
X356500Y315063*
X356500D02*
X356045Y315375D01*
X355364*
X354909Y315063*
X354909D02*
X354455Y314438D01*
X354455D02*
X354227Y313500D01*
Y312875*
X354455Y311938*
X354455D02*
X354909Y311313D01*
X354909D02*
X355364Y311000D01*
X356045*
X356500Y311313*
X356500D02*
X356955Y311938D01*
X359000Y315375D02*
X360364Y311000D01*
X361727Y315375D02*
X360364Y311000D01*
X364000Y311625D02*
X363773Y311313D01*
X363773D02*
X364000Y311000D01*
X364227Y311313*
X364227D02*
X364000Y311625D01*
X371727Y316000D02*
Y316313D01*
X371727D02*
X371955Y316938D01*
X371955D02*
X372182Y317250D01*
X372636Y317563*
X372636D02*
X373545D01*
X373545D02*
X374000Y317250D01*
X374227Y316938*
X374227D02*
X374455Y316313D01*
X374455D02*
Y315688D01*
X374455D02*
X374227Y315063D01*
X374227D02*
X373773Y314125D01*
X371500Y311000*
X374682*
X333364Y307563D02*
X332909Y307250D01*
X332455Y306625*
X332227Y306000*
X332000Y305063*
X332000D02*
Y303500D01*
X332227Y302563*
X332227D02*
X332455Y301938D01*
X332455D02*
X332909Y301313D01*
X332909D02*
X333364Y301000D01*
X334273*
X334727Y301313*
X334727D02*
X335182Y301938D01*
X335182D02*
X335409Y302563D01*
X335409D02*
X335636Y303500D01*
Y305063*
X335636D02*
X335409Y306000D01*
X335182Y306625*
X334727Y307250*
X334273Y307563*
X334273D02*
X333364D01*
X340864Y306625D02*
X340409Y307250D01*
X339727Y307563*
X339727D02*
X338818D01*
X338818D02*
X338136Y307250D01*
X337682Y306625*
Y306000*
X337909Y305375*
X338136Y305063*
X338136D02*
X338591Y304750D01*
X339955Y304125*
X340409Y303813*
X340409D02*
X340636Y303500D01*
X340864Y302875*
Y301938*
X340864D02*
X340409Y301313D01*
X340409D02*
X339727Y301000D01*
X338818*
X338136Y301313*
X338136D02*
X337682Y301938D01*
X342909Y307563D02*
Y302875D01*
X343136Y301938*
X343136D02*
X343591Y301313D01*
X343591D02*
X344273Y301000D01*
X344727*
X345409Y301313*
X345409D02*
X345864Y301938D01*
X345864D02*
X346091Y302875D01*
Y307563*
X348136D02*
Y301000D01*
Y307563D02*
X350182D01*
X350182D02*
X350864Y307250D01*
X351091Y306938*
X351091D02*
X351318Y306313D01*
X351318D02*
Y305688D01*
X351318D02*
X351091Y305063D01*
X351091D02*
X350864Y304750D01*
X350182Y304438*
X350182D02*
X348136D01*
X349727D02*
X351318Y301000D01*
X356773Y306000D02*
X356545Y306625D01*
X356091Y307250*
X355636Y307563*
X355636D02*
X354727D01*
X354727D02*
X354273Y307250D01*
X353818Y306625*
X353591Y306000*
X353364Y305063*
X353364D02*
Y303500D01*
X353591Y302563*
X353591D02*
X353818Y301938D01*
X353818D02*
X354273Y301313D01*
X354273D02*
X354727Y301000D01*
X355636*
X356091Y301313*
X356091D02*
X356545Y301938D01*
X356545D02*
X356773Y302563D01*
X364045Y303813D02*
X368136D01*
X375636Y306000D02*
Y306313D01*
X375636D02*
X375864Y306938D01*
X375864D02*
X376091Y307250D01*
X376545Y307563*
X376545D02*
X377455D01*
X377455D02*
X377909Y307250D01*
X378136Y306938*
X378136D02*
X378364Y306313D01*
X378364D02*
Y305688D01*
X378364D02*
X378136Y305063D01*
X378136D02*
X377682Y304125D01*
X375409Y301000*
X378591*
X382000Y307563D02*
X381318Y307250D01*
X380864Y306313*
X380864D02*
X380636Y304750D01*
Y303813*
X380636D02*
X380864Y302250D01*
X381318Y301313*
X381318D02*
X382000Y301000D01*
X382455*
X383136Y301313*
X383136D02*
X383591Y302250D01*
X383818Y303813*
X383818D02*
Y304750D01*
X383591Y306313*
X383591D02*
X383136Y307250D01*
X382455Y307563*
X382455D02*
X382000D01*
X385864Y306313D02*
X386318Y306625D01*
X387000Y307563*
X387000D02*
Y301000D01*
X389273Y306000D02*
Y306313D01*
X389273D02*
X389500Y306938D01*
X389500D02*
X389727Y307250D01*
X390182Y307563*
X390182D02*
X391091D01*
X391091D02*
X391545Y307250D01*
X391773Y306938*
X391773D02*
X392000Y306313D01*
X392000D02*
Y305688D01*
X392000D02*
X391773Y305063D01*
X391773D02*
X391318Y304125D01*
X389045Y301000*
X392227*
G54D66*
X318224Y280438D02*
X319799D01*
Y285162*
X318224*
Y288438D02*
X319799D01*
Y293162*
X318224*
X306276Y246062D02*
X304701D01*
Y241338*
X306276*
X153438Y297776D02*
Y296201D01*
X158162*
Y297776*
X306276Y254062D02*
X304701D01*
Y249338*
X306276*
G54D67*
X266324Y193039D02*
G03X266324I-985J0D01*
G01X229622Y144189D02*
G03X229622I-984J0D01*
G54D68*
G01X261894Y184378D02*
G03X261894I-492J0D01*
G01X219681Y149110D02*
G03X219681I-492J0D01*
G54D69*
G01X202700Y187600D02*
X193600D01*
X202866Y202181D02*
Y225803D01*
X179244*
Y202181*
X202866*
X183181Y221866D02*
Y206512D01*
X183575Y214386D02*
X188693D01*
X193024Y210055*
X200504Y221866D02*
Y206512D01*
Y214386D02*
X194205D01*
X389039Y111780D02*
Y149969D01*
X379000*
X375063Y145244*
X367386*
Y116504*
X375063*
X379000Y111780*
X389039*
Y123787D02*
Y137173D01*
X386283*
Y123787*
X389039*
X281039Y104535D02*
Y152961D01*
X259386*
Y104535*
X281039*
Y113394D02*
Y144890D01*
X278283*
Y113394*
X281039*
X389039Y153535D02*
Y194087D01*
X367386*
Y153535*
X389039*
Y162000D02*
Y185622D01*
X386283*
Y162000*
X389039*
Y198535D02*
Y239087D01*
X367386*
Y198535*
X389039*
Y207000D02*
Y230622D01*
X386283*
Y207000*
X389039*
X389539Y245635D02*
Y294061D01*
X367886*
Y245635*
X389539*
Y254494D02*
Y285990D01*
X386783*
Y254494*
X389539*
G54D70*
X156631Y284757D02*
X153819D01*
X155225Y285780D02*
Y283734D01*
X156800Y234300D02*
G03X156800I-1000J0D01*
G01X266400Y289300D02*
G03X266400I-1000J0D01*
G01X244719Y203000D02*
X246281Y203909D01*
X248000*
X244719Y204818D02*
X246281Y203909D01*
X245344Y205841D02*
X245187Y206068D01*
X245187D02*
X244719Y206409D01*
X248000*
X244719Y208114D02*
X244875Y207773D01*
X245344Y207545*
X246125Y207432*
X246594*
X247375Y207545*
X247844Y207773*
X248000Y208114*
Y208341*
X247844Y208682*
X247375Y208909*
X246594Y209023*
X246125*
X245344Y208909*
X244875Y208682*
X244719Y208341*
Y208114*
Y210727D02*
X244875Y210386D01*
X245344Y210159*
X246125Y210045*
X246594*
X247375Y210159*
X247844Y210386*
X248000Y210727*
Y210955*
X247844Y211295*
X247375Y211523*
X246594Y211636*
X246125*
X245344Y211523*
X244875Y211295*
X244719Y210955*
Y210727*
X217800Y203841D02*
X217487Y203727D01*
X217487D02*
X217175Y203500D01*
X217019Y203273*
Y202818*
X217175Y202591*
X217487Y202364*
X217487D02*
X217800Y202250D01*
X218269Y202136*
X219050*
X219519Y202250*
X219831Y202364*
X220144Y202591*
X220300Y202818*
Y203273*
X220144Y203500*
X219831Y203727*
X219519Y203841*
X217644Y204864D02*
X217487Y205091D01*
X217487D02*
X217019Y205432D01*
X220300*
X217019Y207136D02*
X217175Y206795D01*
X217644Y206568*
X218425Y206455*
X218894*
X219675Y206568*
X220144Y206795*
X220300Y207136*
Y207364*
X220144Y207705*
X219675Y207932*
X218894Y208045*
X218425*
X217644Y207932*
X217175Y207705*
X217019Y207364*
Y207136*
X217487Y210432D02*
X217175Y210318D01*
X217019Y209977*
Y209750*
X217175Y209409*
X217644Y209182*
X218425Y209068*
X219206*
X219831Y209182*
X220144Y209409*
X220300Y209750*
Y209864*
X220144Y210205*
X219831Y210432*
X219362Y210545*
X219362D02*
X219206D01*
X218737Y210432*
X218737D02*
X218425Y210205D01*
X218269Y209864*
Y209750*
X218425Y209409*
X218737Y209182*
X218737D02*
X219206Y209068D01*
X217800Y220727D02*
X217487Y220614D01*
X217487D02*
X217175Y220386D01*
X217019Y220159*
Y219705*
X217175Y219477*
X217487Y219250*
X217487D02*
X217800Y219136D01*
X218269Y219023*
X219050*
X219519Y219136*
X219831Y219250*
X220144Y219477*
X220300Y219705*
Y220159*
X220144Y220386*
X219831Y220614*
X219519Y220727*
X217644Y221750D02*
X217487Y221977D01*
X217487D02*
X217019Y222318D01*
X220300*
X217019Y224023D02*
X217175Y223682D01*
X217644Y223455*
X218425Y223341*
X218894*
X219675Y223455*
X220144Y223682*
X220300Y224023*
Y224250*
X220144Y224591*
X219675Y224818*
X218894Y224932*
X218425*
X217644Y224818*
X217175Y224591*
X217019Y224250*
Y224023*
Y227545D02*
X220300Y226409D01*
X217019Y225955D02*
Y227545D01*
X290500Y186850D02*
X290813Y186964D01*
X290813D02*
X291125Y187191D01*
X291281Y187418*
Y187873*
X291125Y188100*
X290813Y188327*
X290813D02*
X290500Y188441D01*
X290031Y188555*
X289250*
X288781Y188441*
X288469Y188327*
X288156Y188100*
X288000Y187873*
Y187418*
X288156Y187191*
X288469Y186964*
X288781Y186850*
X290656Y185827D02*
X290813Y185600D01*
X290813D02*
X291281Y185259D01*
X288000*
X291281Y183555D02*
X291125Y183895D01*
X290656Y184123*
X289875Y184236*
X289406*
X288625Y184123*
X288156Y183895*
X288000Y183555*
Y183327*
X288156Y182986*
X288625Y182759*
X289406Y182645*
X289875*
X290656Y182759*
X291125Y182986*
X291281Y183327*
Y183555*
X290656Y181623D02*
X290813Y181395D01*
X290813D02*
X291281Y181055D01*
X288000*
X260727Y238500D02*
X260614Y238813D01*
X260614D02*
X260386Y239125D01*
X260159Y239281*
X259705*
X259477Y239125*
X259250Y238813*
X259250D02*
X259136Y238500D01*
X259023Y238031*
Y237250*
X259136Y236781*
X259250Y236469*
X259477Y236156*
X259705Y236000*
X260159*
X260386Y236156*
X260614Y236469*
X260727Y236781*
X261750Y238656D02*
X261977Y238813D01*
X261977D02*
X262318Y239281D01*
Y236000*
X264023Y239281D02*
X263682Y239125D01*
X263455Y238656*
X263341Y237875*
Y237406*
X263455Y236625*
X263682Y236156*
X264023Y236000*
X264250*
X264591Y236156*
X264818Y236625*
X264932Y237406*
Y237875*
X264818Y238656*
X264591Y239125*
X264250Y239281*
X264023*
X266068Y238500D02*
Y238656D01*
X266182Y238969*
X266295Y239125*
X266523Y239281*
X266977*
X267205Y239125*
X267318Y238969*
X267432Y238656*
Y238344*
X267318Y238031*
X267091Y237563*
X267091D02*
X265955Y236000D01*
X267545*
X309727Y218200D02*
X309614Y218513D01*
X309614D02*
X309386Y218825D01*
X309159Y218981*
X308705*
X308477Y218825*
X308250Y218513*
X308250D02*
X308136Y218200D01*
X308023Y217731*
Y216950*
X308136Y216481*
X308250Y216169*
X308477Y215856*
X308705Y215700*
X309159*
X309386Y215856*
X309614Y216169*
X309727Y216481*
X310750Y218356D02*
X310977Y218513D01*
X310977D02*
X311318Y218981D01*
Y215700*
X313023Y218981D02*
X312682Y218825D01*
X312455Y218356*
X312341Y217575*
Y217106*
X312455Y216325*
X312682Y215856*
X313023Y215700*
X313250*
X313591Y215856*
X313818Y216325*
X313932Y217106*
Y217575*
X313818Y218356*
X313591Y218825*
X313250Y218981*
X313023*
X315182D02*
X316432D01*
X315750Y217731*
X316091*
X316318Y217575*
X316432Y217419*
X316545Y216950*
Y216638*
X316545D02*
X316432Y216169D01*
X316205Y215856*
X315864Y215700*
X315523*
X315182Y215856*
X315068Y216013*
X315068D02*
X314955Y216325D01*
X305000Y280281D02*
Y277000D01*
Y280281D02*
X305795D01*
X306136Y280125*
X306364Y279813*
X306364D02*
X306477Y279500D01*
X306591Y279031*
Y278250*
X306477Y277781*
X306364Y277469*
X306136Y277156*
X305795Y277000*
X305000*
X307841Y280281D02*
X309091D01*
X308409Y279031*
X308750*
X308977Y278875*
X309091Y278719*
X309205Y278250*
Y277938*
X309205D02*
X309091Y277469D01*
X308864Y277156*
X308523Y277000*
X308182*
X307841Y277156*
X307727Y277313*
X307727D02*
X307614Y277625D01*
X310909Y280281D02*
X310568Y280125D01*
X310341Y279656*
X310227Y278875*
Y278406*
X310341Y277625*
X310568Y277156*
X310909Y277000*
X311136*
X311477Y277156*
X311705Y277625*
X311818Y278406*
Y278875*
X311705Y279656*
X311477Y280125*
X311136Y280281*
X310909*
X313068D02*
X314318D01*
X313636Y279031*
X313977*
X314205Y278875*
X314318Y278719*
X314432Y278250*
Y277938*
X314432D02*
X314318Y277469D01*
X314091Y277156*
X313750Y277000*
X313409*
X313068Y277156*
X312955Y277313*
X312955D02*
X312841Y277625D01*
X110105Y195500D02*
X109991Y195813D01*
X109991D02*
X109764Y196125D01*
X109536Y196281*
X109082*
X108855Y196125*
X108627Y195813*
X108627D02*
X108514Y195500D01*
X108400Y195031*
Y194250*
X108514Y193781*
X108627Y193469*
X108855Y193156*
X109082Y193000*
X109536*
X109764Y193156*
X109991Y193469*
X110105Y193781*
X111355Y196281D02*
X112605D01*
X111923Y195031*
X112264*
X112491Y194875*
X112605Y194719*
X112718Y194250*
Y193938*
X112718D02*
X112605Y193469D01*
X112377Y193156*
X112036Y193000*
X111695*
X111355Y193156*
X111241Y193313*
X111241D02*
X111127Y193625D01*
X114423Y196281D02*
X114082Y196125D01*
X113855Y195656*
X113741Y194875*
Y194406*
X113855Y193625*
X114082Y193156*
X114423Y193000*
X114650*
X114991Y193156*
X115218Y193625*
X115332Y194406*
Y194875*
X115218Y195656*
X114991Y196125*
X114650Y196281*
X114423*
X116355Y195656D02*
X116582Y195813D01*
X116582D02*
X116923Y196281D01*
Y193000*
X219719Y307795D02*
X223000D01*
X219719Y307000D02*
Y308591D01*
Y309841D02*
Y311091D01*
X220969Y310409*
Y310750*
X221125Y310977*
X221281Y311091*
X221750Y311205*
X222062*
X222062D02*
X222531Y311091D01*
X222844Y310864*
X223000Y310523*
Y310182*
X222844Y309841*
X222687Y309727*
X222687D02*
X222375Y309614D01*
X219719Y312909D02*
X219875Y312568D01*
X220344Y312341*
X221125Y312227*
X221594*
X222375Y312341*
X222844Y312568*
X223000Y312909*
Y313136*
X222844Y313477*
X222375Y313705*
X221594Y313818*
X221125*
X220344Y313705*
X219875Y313477*
X219719Y313136*
Y312909*
Y315523D02*
X219875Y315182D01*
X220344Y314955*
X221125Y314841*
X221594*
X222375Y314955*
X222844Y315182*
X223000Y315523*
Y315750*
X222844Y316091*
X222375Y316318*
X221594Y316432*
X221125*
X220344Y316318*
X219875Y316091*
X219719Y315750*
Y315523*
X279902Y305511D02*
Y302230D01*
X279106Y305511D02*
X280697D01*
X281947D02*
X283197D01*
X282515Y304261*
X282856*
X283084Y304105*
X283197Y303948*
X283311Y303480*
Y303167*
X283197Y302698*
X282970Y302386*
X282629Y302230*
X282288*
X281947Y302386*
X281834Y302542*
X281720Y302855*
X285015Y305511D02*
X284674Y305355D01*
X284447Y304886*
X284334Y304105*
Y303636*
X284447Y302855*
X284674Y302386*
X285015Y302230*
X285243*
X285584Y302386*
X285811Y302855*
X285924Y303636*
Y304105*
X285811Y304886*
X285584Y305355*
X285243Y305511*
X285015*
X286947Y304886D02*
X287174Y305042D01*
X287515Y305511*
Y302230*
X308500Y288081D02*
Y284800D01*
Y288081D02*
X309295D01*
X309636Y287925*
X309864Y287613*
X309864D02*
X309977Y287300D01*
X310091Y286831*
Y286050*
X309977Y285581*
X309864Y285269*
X309636Y284956*
X309295Y284800*
X308500*
X311341Y288081D02*
X312591D01*
X311909Y286831*
X312250*
X312477Y286675*
X312591Y286519*
X312705Y286050*
Y285738*
X312705D02*
X312591Y285269D01*
X312364Y284956*
X312023Y284800*
X311682*
X311341Y284956*
X311227Y285113*
X311227D02*
X311114Y285425D01*
X314409Y288081D02*
X314068Y287925D01*
X313841Y287456*
X313727Y286675*
Y286206*
X313841Y285425*
X314068Y284956*
X314409Y284800*
X314636*
X314977Y284956*
X315205Y285425*
X315318Y286206*
Y286675*
X315205Y287456*
X314977Y287925*
X314636Y288081*
X314409*
X316455Y287300D02*
Y287456D01*
X316568Y287769*
X316682Y287925*
X316909Y288081*
X317364*
X317591Y287925*
X317705Y287769*
X317818Y287456*
Y287144*
X317705Y286831*
X317477Y286363*
X317477D02*
X316341Y284800D01*
X317932*
X294114Y280281D02*
Y277000D01*
Y280281D02*
X295136D01*
X295477Y280125*
X295591Y279969*
X295705Y279656*
Y279344*
X295591Y279031*
X295477Y278875*
X295136Y278719*
X294114*
X294909D02*
X295705Y277000D01*
X296955Y280281D02*
X298205D01*
X297523Y279031*
X297864*
X298091Y278875*
X298205Y278719*
X298318Y278250*
Y277938*
X298318D02*
X298205Y277469D01*
X297977Y277156*
X297636Y277000*
X297295*
X296955Y277156*
X296841Y277313*
X296841D02*
X296727Y277625D01*
X300023Y280281D02*
X299682Y280125D01*
X299455Y279656*
X299341Y278875*
Y278406*
X299455Y277625*
X299682Y277156*
X300023Y277000*
X300250*
X300591Y277156*
X300818Y277625*
X300932Y278406*
Y278875*
X300818Y279656*
X300591Y280125*
X300250Y280281*
X300023*
X302523D02*
X302182Y280125D01*
X302068Y279813*
X302068D02*
Y279500D01*
X302182Y279188*
X302182D02*
X302409Y279031D01*
X302864Y278875*
X303205Y278719*
X303432Y278406*
X303545Y278094*
Y277625*
X303432Y277313*
X303432D02*
X303318Y277156D01*
X302977Y277000*
X302523*
X302182Y277156*
X302068Y277313*
X302068D02*
X301955Y277625D01*
Y278094*
X302068Y278406*
X302295Y278719*
X302636Y278875*
X303091Y279031*
X303318Y279188*
X303318D02*
X303432Y279500D01*
Y279813*
X303432D02*
X303318Y280125D01*
X302977Y280281*
X302523*
X295614Y288081D02*
Y284800D01*
Y288081D02*
X296636D01*
X296977Y287925*
X297091Y287769*
X297205Y287456*
Y287144*
X297091Y286831*
X296977Y286675*
X296636Y286519*
X295614*
X296409D02*
X297205Y284800D01*
X298455Y288081D02*
X299705D01*
X299023Y286831*
X299364*
X299591Y286675*
X299705Y286519*
X299818Y286050*
Y285738*
X299705Y285269*
X299477Y284956*
X299136Y284800*
X298795*
X298455Y284956*
X298341Y285113*
X298227Y285425*
X301523Y288081D02*
X301182Y287925D01*
X300955Y287456*
X300841Y286675*
Y286206*
X300955Y285425*
X301182Y284956*
X301523Y284800*
X301750*
X302091Y284956*
X302318Y285425*
X302432Y286206*
Y286675*
X302318Y287456*
X302091Y287925*
X301750Y288081*
X301523*
X305045D02*
X303909Y284800D01*
X303455Y288081D02*
X305045D01*
X124505Y164700D02*
X124391Y165013D01*
X124391D02*
X124164Y165325D01*
X123936Y165481*
X123482*
X123255Y165325*
X123027Y165013*
X123027D02*
X122914Y164700D01*
X122800Y164231*
Y163450*
X122914Y162981*
X123027Y162669*
X123255Y162356*
X123482Y162200*
X123936*
X124164Y162356*
X124391Y162669*
X124505Y162981*
X125755Y165481D02*
X127005D01*
X126323Y164231*
X126664*
X126891Y164075*
X127005Y163919*
X127118Y163450*
Y163138*
X127118D02*
X127005Y162669D01*
X126777Y162356*
X126436Y162200*
X126095*
X125755Y162356*
X125641Y162513*
X125641D02*
X125527Y162825D01*
X128823Y165481D02*
X128482Y165325D01*
X128255Y164856*
X128141Y164075*
Y163606*
X128255Y162825*
X128482Y162356*
X128823Y162200*
X129050*
X129391Y162356*
X129618Y162825*
X129732Y163606*
Y164075*
X129618Y164856*
X129391Y165325*
X129050Y165481*
X128823*
X130868Y164700D02*
Y164856D01*
X130982Y165169*
X131095Y165325*
X131323Y165481*
X131777*
X132005Y165325*
X132118Y165169*
X132232Y164856*
Y164544*
X132118Y164231*
X131891Y163763*
X131891D02*
X130755Y162200D01*
X132345*
X204136Y168281D02*
Y165781D01*
X204023Y165313*
X204023D02*
X203909Y165156D01*
X203682Y165000*
X203455*
X203227Y165156*
X203114Y165313*
X203114D02*
X203000Y165781D01*
Y166094*
X205159Y167656D02*
X205386Y167813D01*
X205386D02*
X205727Y168281D01*
Y165000*
X207432Y168281D02*
X207091Y168125D01*
X206864Y167656*
X206750Y166875*
Y166406*
X206864Y165625*
X207091Y165156*
X207432Y165000*
X207659*
X208000Y165156*
X208227Y165625*
X208341Y166406*
Y166875*
X208227Y167656*
X208000Y168125*
X207659Y168281*
X207432*
X209477Y167500D02*
Y167656D01*
X209591Y167969*
X209705Y168125*
X209932Y168281*
X210386*
X210614Y168125*
X210727Y167969*
X210841Y167656*
Y167344*
X210727Y167031*
X210500Y166563*
X210500D02*
X209364Y165000D01*
X210955*
X210281Y224864D02*
X207000D01*
X210281D02*
Y223841D01*
X210125Y223500*
X209969Y223386*
X209656Y223273*
X209344*
X209031Y223386*
X208875Y223500*
X208719Y223841*
Y224864*
Y224068D02*
X207000Y223273D01*
X209656Y222250D02*
X209813Y222023D01*
X209813D02*
X210281Y221682D01*
X207000*
X210281Y219977D02*
X210125Y220318D01*
X209656Y220545*
X208875Y220659*
X208406*
X207625Y220545*
X207156Y220318*
X207000Y219977*
Y219750*
X207156Y219409*
X207625Y219182*
X208406Y219068*
X208875*
X209656Y219182*
X210125Y219409*
X210281Y219750*
Y219977*
Y217364D02*
X210125Y217705D01*
X209656Y217932*
X208875Y218045*
X208406*
X207625Y217932*
X207156Y217705*
X207000Y217364*
Y217136*
X207156Y216795*
X207625Y216568*
X208406Y216455*
X208875*
X209656Y216568*
X210125Y216795*
X210281Y217136*
Y217364*
X173281Y160864D02*
X170781D01*
X170313Y160977*
X170313D02*
X170156Y161091D01*
X170000Y161318*
Y161545*
X170156Y161773*
X170313Y161886*
X170313D02*
X170781Y162000D01*
X171094*
X172656Y159841D02*
X172813Y159614D01*
X172813D02*
X173281Y159273D01*
X170000*
X173281Y157568D02*
X173125Y157909D01*
X172656Y158136*
X171875Y158250*
X171406*
X170625Y158136*
X170156Y157909*
X170000Y157568*
Y157341*
X170156Y157000*
X170625Y156773*
X171406Y156659*
X171875*
X172656Y156773*
X173125Y157000*
X173281Y157341*
Y157568*
Y154955D02*
X173125Y155295D01*
X172656Y155523*
X171875Y155636*
X171406*
X170625Y155523*
X170156Y155295*
X170000Y154955*
Y154727*
X170156Y154386*
X170625Y154159*
X171406Y154045*
X171875*
X172656Y154159*
X173125Y154386*
X173281Y154727*
Y154955*
X177813Y215409D02*
X178125Y215636D01*
X178281Y215977*
Y216432*
X178125Y216773*
X177813Y217000*
X177813D02*
X177500D01*
X177188Y216886*
X177188D02*
X177031Y216773D01*
X176875Y216545*
X176563Y215864*
X176563D02*
X176406Y215636D01*
X176250Y215523*
X175938Y215409*
X175938D02*
X175469D01*
X175156Y215636*
X175000Y215977*
Y216432*
X175156Y216773*
X175469Y217000*
X177656Y214386D02*
X177813Y214159D01*
X177813D02*
X178281Y213818D01*
X175000*
X178281Y212114D02*
X178125Y212455D01*
X177656Y212682*
X176875Y212795*
X176406*
X175625Y212682*
X175156Y212455*
X175000Y212114*
Y211886*
X175156Y211545*
X175625Y211318*
X176406Y211205*
X176875*
X177656Y211318*
X178125Y211545*
X178281Y211886*
Y212114*
Y209500D02*
X178125Y209841D01*
X177656Y210068*
X176875Y210182*
X176406*
X175625Y210068*
X175156Y209841*
X175000Y209500*
Y209273*
X175156Y208932*
X175625Y208705*
X176406Y208591*
X176875*
X177656Y208705*
X178125Y208932*
X178281Y209273*
Y209500*
X259705Y245500D02*
X259591Y245813D01*
X259591D02*
X259364Y246125D01*
X259136Y246281*
X258682*
X258455Y246125*
X258227Y245813*
X258227D02*
X258114Y245500D01*
X258000Y245031*
Y244250*
X258114Y243781*
X258227Y243469*
X258455Y243156*
X258682Y243000*
X259136*
X259364Y243156*
X259591Y243469*
X259705Y243781*
X260727Y245656D02*
X260955Y245813D01*
X260955D02*
X261295Y246281D01*
Y243000*
X263000Y246281D02*
X262659Y246125D01*
X262432Y245656*
X262318Y244875*
Y244406*
X262432Y243625*
X262659Y243156*
X263000Y243000*
X263227*
X263568Y243156*
X263795Y243625*
X263909Y244406*
Y244875*
X263795Y245656*
X263568Y246125*
X263227Y246281*
X263000*
X265614D02*
X265273Y246125D01*
X265045Y245656*
X264932Y244875*
Y244406*
X265045Y243625*
X265273Y243156*
X265614Y243000*
X265841*
X266182Y243156*
X266409Y243625*
X266523Y244406*
Y244875*
X266409Y245656*
X266182Y246125*
X265841Y246281*
X265614*
X219705Y154500D02*
X219591Y154813D01*
X219591D02*
X219364Y155125D01*
X219136Y155281*
X218682*
X218455Y155125*
X218227Y154813*
X218227D02*
X218114Y154500D01*
X218000Y154031*
Y153250*
X218114Y152781*
X218227Y152469*
X218455Y152156*
X218682Y152000*
X219136*
X219364Y152156*
X219591Y152469*
X219705Y152781*
X220841Y154500D02*
Y154656D01*
X220955Y154969*
X221068Y155125*
X221295Y155281*
X221750*
X221977Y155125*
X222091Y154969*
X222205Y154656*
Y154344*
X222091Y154031*
X221864Y153563*
X221864D02*
X220727Y152000D01*
X222318*
X224023Y155281D02*
X223682Y155125D01*
X223455Y154656*
X223341Y153875*
Y153406*
X223455Y152625*
X223682Y152156*
X224023Y152000*
X224250*
X224591Y152156*
X224818Y152625*
X224932Y153406*
Y153875*
X224818Y154656*
X224591Y155125*
X224250Y155281*
X224023*
X226068Y154500D02*
Y154656D01*
X226182Y154969*
X226295Y155125*
X226523Y155281*
X226977*
X227205Y155125*
X227318Y154969*
X227432Y154656*
Y154344*
X227318Y154031*
X227091Y153563*
X227091D02*
X225955Y152000D01*
X227545*
X257886Y138919D02*
Y142200D01*
Y138919D02*
X256864D01*
X256523Y139075*
X256409Y139231*
X256295Y139544*
Y139856*
X256409Y140169*
X256523Y140325*
X256864Y140481*
X257886*
X257091D02*
X256295Y142200D01*
X255159Y139700D02*
Y139544D01*
X255045Y139231*
X254932Y139075*
X254705Y138919*
X254250*
X254023Y139075*
X253909Y139231*
X253795Y139544*
Y139856*
X253909Y140169*
X254136Y140637*
X254136D02*
X255273Y142200D01*
X253682*
X251977Y138919D02*
X252318Y139075D01*
X252545Y139544*
X252659Y140325*
Y140794*
X252545Y141575*
X252318Y142044*
X251977Y142200*
X251750*
X251409Y142044*
X251182Y141575*
X251068Y140794*
Y140325*
X251182Y139544*
X251409Y139075*
X251750Y138919*
X251977*
X249818D02*
X248568D01*
X249250Y140169*
X248909*
X248682Y140325*
X248568Y140481*
X248455Y140950*
Y141262*
X248455D02*
X248568Y141731D01*
X248795Y142044*
X249136Y142200*
X249477*
X249818Y142044*
X249932Y141887*
X249932D02*
X250045Y141575D01*
X136500Y268295D02*
X136813Y268409D01*
X136813D02*
X137125Y268636D01*
X137281Y268864*
Y269318*
X137125Y269545*
X136813Y269773*
X136813D02*
X136500Y269886D01*
X136031Y270000*
X135250*
X134781Y269886*
X134469Y269773*
X134156Y269545*
X134000Y269318*
Y268864*
X134156Y268636*
X134469Y268409*
X134781Y268295*
X137281Y267045D02*
Y265795D01*
X136031Y266477*
Y266136*
X135875Y265909*
X135719Y265795*
X135250Y265682*
X134938*
X134938D02*
X134469Y265795D01*
X134156Y266023*
X134000Y266364*
Y266705*
X134156Y267045*
X134313Y267159*
X134313D02*
X134625Y267273D01*
X137281Y263977D02*
X137125Y264318D01*
X136656Y264545*
X135875Y264659*
X135406*
X134625Y264545*
X134156Y264318*
X134000Y263977*
Y263750*
X134156Y263409*
X134625Y263182*
X135406Y263068*
X135875*
X136656Y263182*
X137125Y263409*
X137281Y263750*
Y263977*
Y261818D02*
Y260568D01*
X136031Y261250*
Y260909*
X135875Y260682*
X135719Y260568*
X135250Y260455*
X134938*
X134938D02*
X134469Y260568D01*
X134156Y260795*
X134000Y261136*
Y261477*
X134156Y261818*
X134313Y261932*
X134313D02*
X134625Y262045D01*
X251281Y299000D02*
X248000D01*
Y297636*
X251281Y296386D02*
Y295136D01*
X250031Y295818*
Y295477*
X249875Y295250*
X249719Y295136*
X249250Y295023*
X248938*
X248938D02*
X248469Y295136D01*
X248156Y295364*
X248000Y295705*
Y296045*
X248156Y296386*
X248313Y296500*
X248313D02*
X248625Y296614D01*
X251281Y293318D02*
X251125Y293659D01*
X250656Y293886*
X249875Y294000*
X249406*
X248625Y293886*
X248156Y293659*
X248000Y293318*
Y293091*
X248156Y292750*
X248625Y292523*
X249406Y292409*
X249875*
X250656Y292523*
X251125Y292750*
X251281Y293091*
Y293318*
Y290705D02*
X251125Y291045D01*
X250656Y291273*
X249875Y291386*
X249406*
X248625Y291273*
X248156Y291045*
X248000Y290705*
Y290477*
X248156Y290136*
X248625Y289909*
X249406Y289795*
X249875*
X250656Y289909*
X251125Y290136*
X251281Y290477*
Y290705*
X209295Y299500D02*
X209409Y299187D01*
X209409D02*
X209636Y298875D01*
X209864Y298719*
X210318*
X210545Y298875*
X210773Y299187*
X210773D02*
X210886Y299500D01*
X211000Y299969*
Y300750*
X210886Y301219*
X210773Y301531*
X210545Y301844*
X210318Y302000*
X209864*
X209636Y301844*
X209409Y301531*
X209295Y301219*
X208045Y298719D02*
X206795D01*
X207477Y299969*
X207136*
X206909Y300125*
X206795Y300281*
X206682Y300750*
Y301062*
X206682D02*
X206795Y301531D01*
X207023Y301844*
X207364Y302000*
X207705*
X208045Y301844*
X208159Y301687*
X208159D02*
X208273Y301375D01*
X204977Y298719D02*
X205318Y298875D01*
X205545Y299344*
X205659Y300125*
Y300594*
X205545Y301375*
X205318Y301844*
X204977Y302000*
X204750*
X204409Y301844*
X204182Y301375*
X204068Y300594*
Y300125*
X204182Y299344*
X204409Y298875*
X204750Y298719*
X204977*
X201568Y299812D02*
X201682Y300281D01*
X201909Y300594*
X202250Y300750*
X202364*
X202705Y300594*
X202932Y300281*
X203045Y299812*
X203045D02*
Y299656D01*
X202932Y299187*
X202932D02*
X202705Y298875D01*
X202364Y298719*
X202250*
X201909Y298875*
X201682Y299187*
X201682D02*
X201568Y299812D01*
X201568D02*
Y300594D01*
X201682Y301375*
X201909Y301844*
X202250Y302000*
X202477*
X202818Y301844*
X202932Y301531*
X220881Y284000D02*
X217600D01*
X220881D02*
Y283205D01*
X220725Y282864*
X220413Y282636*
X220413D02*
X220100Y282523D01*
X219631Y282409*
X218850*
X218381Y282523*
X218069Y282636*
X217756Y282864*
X217600Y283205*
Y284000*
X220881Y281159D02*
Y279909D01*
X219631Y280591*
Y280250*
X219475Y280023*
X219319Y279909*
X218850Y279795*
X218538*
X218538D02*
X218069Y279909D01*
X217756Y280136*
X217600Y280477*
Y280818*
X217756Y281159*
X217913Y281273*
X217913D02*
X218225Y281386D01*
X220881Y278091D02*
X220725Y278432D01*
X220256Y278659*
X219475Y278773*
X219006*
X218225Y278659*
X217756Y278432*
X217600Y278091*
Y277864*
X217756Y277523*
X218225Y277295*
X219006Y277182*
X219475*
X220256Y277295*
X220725Y277523*
X220881Y277864*
Y278091*
Y275477D02*
X220725Y275818D01*
X220256Y276045*
X219475Y276159*
X219006*
X218225Y276045*
X217756Y275818*
X217600Y275477*
Y275250*
X217756Y274909*
X218225Y274682*
X219006Y274568*
X219475*
X220256Y274682*
X220725Y274909*
X220881Y275250*
Y275477*
X193882Y261226D02*
Y258882D01*
X193996Y258414*
X194223Y258101*
X194564Y257945*
X194791*
X195132Y258101*
X195359Y258414*
X195473Y258882*
Y261226*
X196723D02*
X197973D01*
X197291Y259976*
X197632*
X197859Y259820*
X197973Y259664*
X198086Y259195*
Y258882*
X197973Y258414*
X197746Y258101*
X197405Y257945*
X197064*
X196723Y258101*
X196609Y258257*
X196496Y258570*
X199791Y261226D02*
X199450Y261070D01*
X199223Y260601*
X199109Y259820*
Y259351*
X199223Y258570*
X199450Y258101*
X199791Y257945*
X200018*
X200359Y258101*
X200586Y258570*
X200700Y259351*
Y259820*
X200586Y260601*
X200359Y261070*
X200018Y261226*
X199791*
X201723Y260601D02*
X201950Y260757D01*
X202291Y261226*
Y257945*
X345591Y117500D02*
X345477Y117813D01*
X345477D02*
X345250Y118125D01*
X345023Y118281*
X344568*
X344341Y118125*
X344114Y117813*
X344114D02*
X344000Y117500D01*
X343886Y117031*
Y116250*
X344000Y115781*
X344114Y115469*
X344341Y115156*
X344568Y115000*
X345023*
X345250Y115156*
X345477Y115469*
X345591Y115781*
X346727Y117500D02*
Y117656D01*
X346841Y117969*
X346955Y118125*
X347182Y118281*
X347636*
X347864Y118125*
X347977Y117969*
X348091Y117656*
Y117344*
X347977Y117031*
X347750Y116563*
X347750D02*
X346614Y115000D01*
X348205*
X349909Y118281D02*
X349568Y118125D01*
X349341Y117656*
X349227Y116875*
Y116406*
X349341Y115625*
X349568Y115156*
X349909Y115000*
X350136*
X350477Y115156*
X350705Y115625*
X350818Y116406*
Y116875*
X350705Y117656*
X350477Y118125*
X350136Y118281*
X349909*
X352977D02*
X351841Y116094D01*
X353545*
X352977Y118281D02*
Y115000D01*
X344400Y125281D02*
Y122000D01*
Y125281D02*
X345423D01*
X345764Y125125*
X345877Y124969*
X345991Y124656*
Y124344*
X345877Y124031*
X345764Y123875*
X345423Y123719*
X344400*
X345195D02*
X345991Y122000D01*
X347127Y124500D02*
Y124656D01*
X347241Y124969*
X347355Y125125*
X347582Y125281*
X348036*
X348264Y125125*
X348377Y124969*
X348491Y124656*
Y124344*
X348377Y124031*
X348150Y123563*
X348150D02*
X347014Y122000D01*
X348605*
X350309Y125281D02*
X349968Y125125D01*
X349741Y124656*
X349627Y123875*
Y123406*
X349741Y122625*
X349968Y122156*
X350309Y122000*
X350536*
X350877Y122156*
X351105Y122625*
X351218Y123406*
Y123875*
X351105Y124656*
X350877Y125125*
X350536Y125281*
X350309*
X353377D02*
X352241Y123094D01*
X353945*
X353377Y125281D02*
Y122000D01*
X349705Y292500D02*
X349591Y292813D01*
X349591D02*
X349364Y293125D01*
X349136Y293281*
X348682*
X348455Y293125*
X348227Y292813*
X348227D02*
X348114Y292500D01*
X348000Y292031*
Y291250*
X348114Y290781*
X348227Y290469*
X348455Y290156*
X348682Y290000*
X349136*
X349364Y290156*
X349591Y290469*
X349705Y290781*
X350841Y292500D02*
Y292656D01*
X350955Y292969*
X351068Y293125*
X351295Y293281*
X351750*
X351977Y293125*
X352091Y292969*
X352205Y292656*
Y292344*
X352091Y292031*
X351864Y291563*
X351864D02*
X350727Y290000D01*
X352318*
X354023Y293281D02*
X353682Y293125D01*
X353455Y292656*
X353341Y291875*
Y291406*
X353455Y290625*
X353682Y290156*
X354023Y290000*
X354250*
X354591Y290156*
X354818Y290625*
X354932Y291406*
Y291875*
X354818Y292656*
X354591Y293125*
X354250Y293281*
X354023*
X356636D02*
X356295Y293125D01*
X356068Y292656*
X355955Y291875*
Y291406*
X356068Y290625*
X356295Y290156*
X356636Y290000*
X356864*
X357205Y290156*
X357432Y290625*
X357545Y291406*
Y291875*
X357432Y292656*
X357205Y293125*
X356864Y293281*
X356636*
X342727Y265500D02*
X342614Y265813D01*
X342614D02*
X342386Y266125D01*
X342159Y266281*
X341705*
X341477Y266125*
X341250Y265813*
X341250D02*
X341136Y265500D01*
X341023Y265031*
Y264250*
X341136Y263781*
X341250Y263469*
X341477Y263156*
X341705Y263000*
X342159*
X342386Y263156*
X342614Y263469*
X342727Y263781*
X343864Y265500D02*
Y265656D01*
X343977Y265969*
X344091Y266125*
X344318Y266281*
X344773*
X345000Y266125*
X345114Y265969*
X345227Y265656*
Y265344*
X345114Y265031*
X344886Y264563*
X344886D02*
X343750Y263000D01*
X345341*
X347045Y266281D02*
X346705Y266125D01*
X346477Y265656*
X346364Y264875*
Y264406*
X346477Y263625*
X346705Y263156*
X347045Y263000*
X347273*
X347614Y263156*
X347841Y263625*
X347955Y264406*
Y264875*
X347841Y265656*
X347614Y266125*
X347273Y266281*
X347045*
X348977Y265656D02*
X349205Y265813D01*
X349205D02*
X349545Y266281D01*
Y263000*
X344591Y139500D02*
X344477Y139813D01*
X344477D02*
X344250Y140125D01*
X344023Y140281*
X343568*
X343341Y140125*
X343114Y139813*
X343114D02*
X343000Y139500D01*
X342886Y139031*
Y138250*
X343000Y137781*
X343114Y137469*
X343341Y137156*
X343568Y137000*
X344023*
X344250Y137156*
X344477Y137469*
X344591Y137781*
X345727Y139500D02*
Y139656D01*
X345841Y139969*
X345955Y140125*
X346182Y140281*
X346636*
X346864Y140125*
X346977Y139969*
X347091Y139656*
Y139344*
X346977Y139031*
X346750Y138563*
X346750D02*
X345614Y137000D01*
X347205*
X348909Y140281D02*
X348568Y140125D01*
X348341Y139656*
X348227Y138875*
Y138406*
X348341Y137625*
X348568Y137156*
X348909Y137000*
X349136*
X349477Y137156*
X349705Y137625*
X349818Y138406*
Y138875*
X349705Y139656*
X349477Y140125*
X349136Y140281*
X348909*
X352318D02*
X351182D01*
X351068Y138875*
X351182Y139031*
X351523Y139188*
X351523D02*
X351864D01*
X351864D02*
X352205Y139031D01*
X352432Y138719*
X352545Y138250*
X352432Y137938*
X352432D02*
X352318Y137469D01*
X352091Y137156*
X351750Y137000*
X351409*
X351068Y137156*
X350955Y137313*
X350955D02*
X350841Y137625D01*
X248500Y205386D02*
X248813Y205500D01*
X248813D02*
X249125Y205727D01*
X249281Y205955*
Y206409*
X249125Y206636*
X248813Y206864*
X248813D02*
X248500Y206977D01*
X248031Y207091*
X247250*
X246781Y206977*
X246469Y206864*
X246156Y206636*
X246000Y206409*
Y205955*
X246156Y205727*
X246469Y205500*
X246781Y205386*
X248656Y204364D02*
X248813Y204136D01*
X248813D02*
X249281Y203795D01*
X246000*
X249281Y202091D02*
X249125Y202432D01*
X248656Y202659*
X247875Y202773*
X247406*
X246625Y202659*
X246156Y202432*
X246000Y202091*
Y201864*
X246156Y201523*
X246625Y201295*
X247406Y201182*
X247875*
X248656Y201295*
X249125Y201523*
X249281Y201864*
Y202091*
Y199023D02*
X247094Y200159D01*
Y198455*
X249281Y199023D02*
X246000D01*
X381136Y149281D02*
Y146781D01*
X381023Y146313*
X381023D02*
X380909Y146156D01*
X380682Y146000*
X380455*
X380227Y146156*
X380114Y146313*
X380114D02*
X380000Y146781D01*
Y147094*
X382273Y148500D02*
Y148656D01*
X382386Y148969*
X382500Y149125*
X382727Y149281*
X383182*
X383409Y149125*
X383523Y148969*
X383636Y148656*
Y148344*
X383523Y148031*
X383295Y147563*
X383295D02*
X382159Y146000D01*
X383750*
X385455Y149281D02*
X385114Y149125D01*
X384886Y148656*
X384773Y147875*
Y147406*
X384886Y146625*
X385114Y146156*
X385455Y146000*
X385682*
X386023Y146156*
X386250Y146625*
X386364Y147406*
Y147875*
X386250Y148656*
X386023Y149125*
X385682Y149281*
X385455*
X387386Y148656D02*
X387614Y148813D01*
X387614D02*
X387955Y149281D01*
Y146000*
X344400Y133281D02*
Y130000D01*
Y133281D02*
X345423D01*
X345764Y133125*
X345877Y132969*
X345991Y132656*
Y132344*
X345877Y132031*
X345764Y131875*
X345423Y131719*
X344400*
X345195D02*
X345991Y130000D01*
X347127Y132500D02*
Y132656D01*
X347241Y132969*
X347355Y133125*
X347582Y133281*
X348036*
X348264Y133125*
X348377Y132969*
X348491Y132656*
Y132344*
X348377Y132031*
X348150Y131563*
X348150D02*
X347014Y130000D01*
X348605*
X350309Y133281D02*
X349968Y133125D01*
X349741Y132656*
X349627Y131875*
Y131406*
X349741Y130625*
X349968Y130156*
X350309Y130000*
X350536*
X350877Y130156*
X351105Y130625*
X351218Y131406*
Y131875*
X351105Y132656*
X350877Y133125*
X350536Y133281*
X350309*
X353718D02*
X352582D01*
X352468Y131875*
X352582Y132031*
X352923Y132188*
X352923D02*
X353264D01*
X353264D02*
X353605Y132031D01*
X353832Y131719*
X353945Y131250*
X353832Y130938*
X353832D02*
X353718Y130469D01*
X353491Y130156*
X353150Y130000*
X352809*
X352468Y130156*
X352355Y130313*
X352355D02*
X352241Y130625D01*
X294136Y249981D02*
Y246700D01*
Y249981D02*
X295159D01*
X295500Y249825*
X295614Y249669*
X295727Y249356*
Y249044*
X295614Y248731*
X295500Y248575*
X295159Y248419*
X294136*
X294932D02*
X295727Y246700D01*
X296750Y249356D02*
X296977Y249513D01*
X297318Y249981*
Y246700*
X299023Y249981D02*
X298682Y249825D01*
X298455Y249356*
X298341Y248575*
Y248106*
X298455Y247325*
X298682Y246856*
X299023Y246700*
X299250*
X299591Y246856*
X299818Y247325*
X299932Y248106*
Y248575*
X299818Y249356*
X299591Y249825*
X299250Y249981*
X299023*
X301182D02*
X302432D01*
X301750Y248731*
X302091*
X302318Y248575*
X302432Y248419*
X302545Y247950*
Y247638*
X302432Y247169*
X302205Y246856*
X301864Y246700*
X301523*
X301182Y246856*
X301068Y247013*
X300955Y247325*
X307500Y241181D02*
Y237900D01*
Y241181D02*
X308295D01*
X308636Y241025*
X308864Y240713*
X308864D02*
X308977Y240400D01*
X309091Y239931*
Y239150*
X308977Y238681*
X308864Y238369*
X308636Y238056*
X308295Y237900*
X307500*
X310114Y240556D02*
X310341Y240713D01*
X310341D02*
X310682Y241181D01*
Y237900*
X312386Y241181D02*
X312045Y241025D01*
X311818Y240556*
X311705Y239775*
Y239306*
X311818Y238525*
X312045Y238056*
X312386Y237900*
X312614*
X312955Y238056*
X313182Y238525*
X313295Y239306*
Y239775*
X313182Y240556*
X312955Y241025*
X312614Y241181*
X312386*
X315000D02*
X314659Y241025D01*
X314432Y240556*
X314318Y239775*
Y239306*
X314432Y238525*
X314659Y238056*
X315000Y237900*
X315227*
X315568Y238056*
X315795Y238525*
X315909Y239306*
Y239775*
X315795Y240556*
X315568Y241025*
X315227Y241181*
X315000*
X294136Y241981D02*
Y238700D01*
Y241981D02*
X295159D01*
X295500Y241825*
X295614Y241669*
X295727Y241356*
Y241044*
X295614Y240731*
X295500Y240575*
X295159Y240419*
X294136*
X294932D02*
X295727Y238700D01*
X296750Y241356D02*
X296977Y241513D01*
X297318Y241981*
Y238700*
X299023Y241981D02*
X298682Y241825D01*
X298455Y241356*
X298341Y240575*
Y240106*
X298455Y239325*
X298682Y238856*
X299023Y238700*
X299250*
X299591Y238856*
X299818Y239325*
X299932Y240106*
Y240575*
X299818Y241356*
X299591Y241825*
X299250Y241981*
X299023*
X301068Y241200D02*
Y241356D01*
X301182Y241669*
X301295Y241825*
X301523Y241981*
X301977*
X302205Y241825*
X302318Y241669*
X302432Y241356*
Y241044*
X302318Y240731*
X302091Y240263*
X300955Y238700*
X302545*
X267136Y157281D02*
Y154781D01*
X267023Y154313*
X267023D02*
X266909Y154156D01*
X266682Y154000*
X266455*
X266227Y154156*
X266114Y154313*
X266114D02*
X266000Y154781D01*
Y155094*
X268273Y156500D02*
Y156656D01*
X268386Y156969*
X268500Y157125*
X268727Y157281*
X269182*
X269409Y157125*
X269523Y156969*
X269636Y156656*
Y156344*
X269523Y156031*
X269295Y155563*
X269295D02*
X268159Y154000D01*
X269750*
X271455Y157281D02*
X271114Y157125D01*
X270886Y156656*
X270773Y155875*
Y155406*
X270886Y154625*
X271114Y154156*
X271455Y154000*
X271682*
X272023Y154156*
X272250Y154625*
X272364Y155406*
Y155875*
X272250Y156656*
X272023Y157125*
X271682Y157281*
X271455*
X274068D02*
X273727Y157125D01*
X273500Y156656*
X273386Y155875*
Y155406*
X273500Y154625*
X273727Y154156*
X274068Y154000*
X274295*
X274636Y154156*
X274864Y154625*
X274977Y155406*
Y155875*
X274864Y156656*
X274636Y157125*
X274295Y157281*
X274068*
X194500Y283295D02*
X194813Y283409D01*
X194813D02*
X195125Y283636D01*
X195281Y283864*
Y284318*
X195125Y284545*
X194813Y284773*
X194813D02*
X194500Y284886D01*
X194031Y285000*
X193250*
X192781Y284886*
X192469Y284773*
X192156Y284545*
X192000Y284318*
Y283864*
X192156Y283636*
X192469Y283409*
X192781Y283295*
X195281Y282045D02*
Y280795D01*
X194031Y281477*
Y281136*
X193875Y280909*
X193719Y280795*
X193250Y280682*
X192938*
X192938D02*
X192469Y280795D01*
X192156Y281023*
X192000Y281364*
Y281705*
X192156Y282045*
X192313Y282159*
X192313D02*
X192625Y282273D01*
X195281Y278977D02*
X195125Y279318D01*
X194656Y279545*
X193875Y279659*
X193406*
X192625Y279545*
X192156Y279318*
X192000Y278977*
Y278750*
X192156Y278409*
X192625Y278182*
X193406Y278068*
X193875*
X194656Y278182*
X195125Y278409*
X195281Y278750*
Y278977*
Y276477D02*
X195125Y276818D01*
X194813Y276932*
X194813D02*
X194500D01*
X194188Y276818*
X194188D02*
X194031Y276591D01*
X193875Y276136*
X193719Y275795*
X193406Y275568*
X193094Y275455*
X192625*
X192313Y275568*
X192313D02*
X192156Y275682D01*
X192000Y276023*
Y276477*
X192156Y276818*
X192313Y276932*
X192313D02*
X192625Y277045D01*
X193094*
X193406Y276932*
X193719Y276705*
X193875Y276364*
X194031Y275909*
X194188Y275682*
X194188D02*
X194500Y275568D01*
X194813*
X194813D02*
X195125Y275682D01*
X195281Y276023*
Y276477*
X244281Y280600D02*
X241000D01*
X244281D02*
Y279577D01*
X244125Y279236*
X243969Y279123*
X243656Y279009*
X243344*
X243031Y279123*
X242875Y279236*
X242719Y279577*
Y280600*
Y279805D02*
X241000Y279009D01*
X244281Y277759D02*
Y276509D01*
X243031Y277191*
Y276850*
X242875Y276623*
X242719Y276509*
X242250Y276395*
X241938*
X241938D02*
X241469Y276509D01*
X241156Y276736*
X241000Y277077*
Y277418*
X241156Y277759*
X241313Y277873*
X241313D02*
X241625Y277986D01*
X244281Y274691D02*
X244125Y275032D01*
X243656Y275259*
X242875Y275373*
X242406*
X241625Y275259*
X241156Y275032*
X241000Y274691*
Y274464*
X241156Y274123*
X241625Y273895*
X242406Y273782*
X242875*
X243656Y273895*
X244125Y274123*
X244281Y274464*
Y274691*
Y271623D02*
X242094Y272759D01*
Y271055*
X244281Y271623D02*
X241000D01*
X233719Y249400D02*
X237000D01*
X233719D02*
Y250423D01*
X233875Y250764*
X234031Y250877*
X234344Y250991*
X234656*
X234969Y250877*
X235125Y250764*
X235281Y250423*
Y249400*
Y250195D02*
X237000Y250991D01*
X233719Y252241D02*
Y253491D01*
X234969Y252809*
Y253150*
X235125Y253377*
X235281Y253491*
X235750Y253605*
X236062*
X236062D02*
X236531Y253491D01*
X236844Y253264*
X237000Y252923*
Y252582*
X236844Y252241*
X236687Y252127*
X236687D02*
X236375Y252014D01*
X233719Y255309D02*
X233875Y254968D01*
X234344Y254741*
X235125Y254627*
X235594*
X236375Y254741*
X236844Y254968*
X237000Y255309*
Y255536*
X236844Y255877*
X236375Y256105*
X235594Y256218*
X235125*
X234344Y256105*
X233875Y255877*
X233719Y255536*
Y255309*
Y258718D02*
Y257582D01*
X235125Y257468*
X234969Y257582*
X234812Y257923*
X234812D02*
Y258264D01*
X234812D02*
X234969Y258605D01*
X235281Y258832*
X235750Y258945*
X236062Y258832*
X236062D02*
X236531Y258718D01*
X236844Y258491*
X237000Y258150*
Y257809*
X236844Y257468*
X236687Y257355*
X236687D02*
X236375Y257241D01*
X215500Y251105D02*
X215187Y250991D01*
X215187D02*
X214875Y250764D01*
X214719Y250536*
Y250082*
X214875Y249855*
X215187Y249627*
X215187D02*
X215500Y249514D01*
X215969Y249400*
X216750*
X217219Y249514*
X217531Y249627*
X217844Y249855*
X218000Y250082*
Y250536*
X217844Y250764*
X217531Y250991*
X217219Y251105*
X214719Y252355D02*
Y253605D01*
X215969Y252923*
Y253264*
X216125Y253491*
X216281Y253605*
X216750Y253718*
X217062*
X217062D02*
X217531Y253605D01*
X217844Y253377*
X218000Y253036*
Y252695*
X217844Y252355*
X217687Y252241*
X217687D02*
X217375Y252127D01*
X214719Y255423D02*
X214875Y255082D01*
X215344Y254855*
X216125Y254741*
X216594*
X217375Y254855*
X217844Y255082*
X218000Y255423*
Y255650*
X217844Y255991*
X217375Y256218*
X216594Y256332*
X216125*
X215344Y256218*
X214875Y255991*
X214719Y255650*
Y255423*
Y258945D02*
X218000Y257809D01*
X214719Y257355D02*
Y258945D01*
X226719Y249514D02*
X230000D01*
X226719D02*
Y250536D01*
X226875Y250877*
X227031Y250991*
X227344Y251105*
X227656*
X227969Y250991*
X228125Y250877*
X228281Y250536*
Y249514*
Y250309D02*
X230000Y251105D01*
X226719Y252355D02*
Y253605D01*
X227969Y252923*
Y253264*
X228125Y253491*
X228281Y253605*
X228750Y253718*
X229062*
X229062D02*
X229531Y253605D01*
X229844Y253377*
X230000Y253036*
Y252695*
X229844Y252355*
X229687Y252241*
X229687D02*
X229375Y252127D01*
X226719Y255423D02*
X226875Y255082D01*
X227344Y254855*
X228125Y254741*
X228594*
X229375Y254855*
X229844Y255082*
X230000Y255423*
Y255650*
X229844Y255991*
X229375Y256218*
X228594Y256332*
X228125*
X227344Y256218*
X226875Y255991*
X226719Y255650*
Y255423*
Y257582D02*
Y258832D01*
X227969Y258150*
Y258491*
X228125Y258718*
X228281Y258832*
X228750Y258945*
X229062*
X229062D02*
X229531Y258832D01*
X229844Y258605*
X230000Y258264*
Y257923*
X229844Y257582*
X229687Y257468*
X229687D02*
X229375Y257355D01*
X221500Y251218D02*
X221187Y251105D01*
X221187D02*
X220875Y250877D01*
X220719Y250650*
Y250195*
X220875Y249968*
X221187Y249741*
X221187D02*
X221500Y249627D01*
X221969Y249514*
X222750*
X223219Y249627*
X223531Y249741*
X223844Y249968*
X224000Y250195*
Y250650*
X223844Y250877*
X223531Y251105*
X223219Y251218*
X220719Y252468D02*
Y253718D01*
X221969Y253036*
Y253377*
X222125Y253605*
X222281Y253718*
X222750Y253832*
X223062*
X223062D02*
X223531Y253718D01*
X223844Y253491*
X224000Y253150*
Y252809*
X223844Y252468*
X223687Y252355*
X223687D02*
X223375Y252241D01*
X220719Y255536D02*
X220875Y255195D01*
X221344Y254968*
X222125Y254855*
X222594*
X223375Y254968*
X223844Y255195*
X224000Y255536*
Y255764*
X223844Y256105*
X223375Y256332*
X222594Y256445*
X222125*
X221344Y256332*
X220875Y256105*
X220719Y255764*
Y255536*
X221187Y258832D02*
X220875Y258718D01*
X220719Y258377*
Y258150*
X220875Y257809*
X221344Y257582*
X222125Y257468*
X222906*
X223531Y257582*
X223844Y257809*
X224000Y258150*
Y258264*
X223844Y258605*
X223531Y258832*
X223062Y258945*
X223062D02*
X222906D01*
X222437Y258832*
X222437D02*
X222125Y258605D01*
X221969Y258264*
Y258150*
X222125Y257809*
X222437Y257582*
X222437D02*
X222906Y257468D01*
X118006Y110182D02*
Y113463D01*
Y110182D02*
X116528D01*
X118006Y111744D02*
X117096D01*
X115278Y110182D02*
X114028D01*
X114710Y111432*
X114369*
X114142Y111588*
X114028Y111744*
X113915Y112213*
Y112525*
X114028Y112994*
X114256Y113307*
X114596Y113463*
X114937*
X115278Y113307*
X115392Y113150*
X115506Y112838*
X112210Y110182D02*
X112551Y110338D01*
X112778Y110807*
X112892Y111588*
Y112057*
X112778Y112838*
X112551Y113307*
X112210Y113463*
X111983*
X111642Y113307*
X111415Y112838*
X111301Y112057*
Y111588*
X111415Y110807*
X111642Y110338*
X111983Y110182*
X112210*
X109596D02*
X109937Y110338D01*
X110165Y110807*
X110278Y111588*
Y112057*
X110165Y112838*
X109937Y113307*
X109596Y113463*
X109369*
X109028Y113307*
X108801Y112838*
X108687Y112057*
Y111588*
X108801Y110807*
X109028Y110338*
X109369Y110182*
X109596*
X118300Y237919D02*
Y241200D01*
Y237919D02*
X117277D01*
X116936Y238075*
X116823Y238231*
X116709Y238544*
Y238856*
X116823Y239169*
X116936Y239325*
X117277Y239481*
X118300*
X117505D02*
X116709Y241200D01*
X115459Y237919D02*
X114209D01*
X114891Y239169*
X114550*
X114323Y239325*
X114209Y239481*
X114095Y239950*
Y240262*
X114095D02*
X114209Y240731D01*
X114436Y241044*
X114777Y241200*
X115118*
X115459Y241044*
X115573Y240887*
X115573D02*
X115686Y240575D01*
X112391Y237919D02*
X112732Y238075D01*
X112959Y238544*
X113073Y239325*
Y239794*
X112959Y240575*
X112732Y241044*
X112391Y241200*
X112164*
X111823Y241044*
X111595Y240575*
X111482Y239794*
Y239325*
X111595Y238544*
X111823Y238075*
X112164Y237919*
X112391*
X109777D02*
X110118Y238075D01*
X110345Y238544*
X110459Y239325*
Y239794*
X110345Y240575*
X110118Y241044*
X109777Y241200*
X109550*
X109209Y241044*
X108982Y240575*
X108868Y239794*
Y239325*
X108982Y238544*
X109209Y238075*
X109550Y237919*
X109777*
X153281Y240000D02*
X150938D01*
X150938D02*
X150469Y239886D01*
X150156Y239659*
X150000Y239318*
Y239091*
X150156Y238750*
X150469Y238523*
X150938Y238409*
X150938D02*
X153281D01*
Y237159D02*
Y235909D01*
X152031Y236591*
Y236250*
X151875Y236023*
X151719Y235909*
X151250Y235795*
X150938*
X150938D02*
X150469Y235909D01*
X150156Y236136*
X150000Y236477*
Y236818*
X150156Y237159*
X150313Y237273*
X150313D02*
X150625Y237386D01*
X153281Y234091D02*
X153125Y234432D01*
X152656Y234659*
X151875Y234773*
X151406*
X150625Y234659*
X150156Y234432*
X150000Y234091*
Y233864*
X150156Y233523*
X150625Y233295*
X151406Y233182*
X151875*
X152656Y233295*
X153125Y233523*
X153281Y233864*
Y234091*
Y231477D02*
X153125Y231818D01*
X152656Y232045*
X151875Y232159*
X151406*
X150625Y232045*
X150156Y231818*
X150000Y231477*
Y231250*
X150156Y230909*
X150625Y230682*
X151406Y230568*
X151875*
X152656Y230682*
X153125Y230909*
X153281Y231250*
Y231477*
X174500Y239295D02*
X174813Y239409D01*
X174813D02*
X175125Y239636D01*
X175281Y239864*
Y240318*
X175125Y240545*
X174813Y240773*
X174813D02*
X174500Y240886D01*
X174031Y241000*
X173250*
X172781Y240886*
X172469Y240773*
X172156Y240545*
X172000Y240318*
Y239864*
X172156Y239636*
X172469Y239409*
X172781Y239295*
X175281Y238045D02*
Y236795D01*
X174031Y237477*
Y237136*
X173875Y236909*
X173719Y236795*
X173250Y236682*
X172938*
X172938D02*
X172469Y236795D01*
X172156Y237023*
X172000Y237364*
Y237705*
X172156Y238045*
X172313Y238159*
X172313D02*
X172625Y238273D01*
X175281Y234977D02*
X175125Y235318D01*
X174656Y235545*
X173875Y235659*
X173406*
X172625Y235545*
X172156Y235318*
X172000Y234977*
Y234750*
X172156Y234409*
X172625Y234182*
X173406Y234068*
X173875*
X174656Y234182*
X175125Y234409*
X175281Y234750*
Y234977*
Y232364D02*
X175125Y232705D01*
X174656Y232932*
X173875Y233045*
X173406*
X172625Y232932*
X172156Y232705*
X172000Y232364*
Y232136*
X172156Y231795*
X172625Y231568*
X173406Y231455*
X173875*
X174656Y231568*
X175125Y231795*
X175281Y232136*
Y232364*
X177705Y292500D02*
X177591Y292813D01*
X177591D02*
X177364Y293125D01*
X177136Y293281*
X176682*
X176455Y293125*
X176227Y292813*
X176227D02*
X176114Y292500D01*
X176000Y292031*
Y291250*
X176114Y290781*
X176227Y290469*
X176455Y290156*
X176682Y290000*
X177136*
X177364Y290156*
X177591Y290469*
X177705Y290781*
X178955Y293281D02*
X180205D01*
X179523Y292031*
X179864*
X180091Y291875*
X180205Y291719*
X180318Y291250*
Y290938*
X180318D02*
X180205Y290469D01*
X179977Y290156*
X179636Y290000*
X179295*
X178955Y290156*
X178841Y290313*
X178841D02*
X178727Y290625D01*
X182023Y293281D02*
X181682Y293125D01*
X181455Y292656*
X181341Y291875*
Y291406*
X181455Y290625*
X181682Y290156*
X182023Y290000*
X182250*
X182591Y290156*
X182818Y290625*
X182932Y291406*
Y291875*
X182818Y292656*
X182591Y293125*
X182250Y293281*
X182023*
X185091D02*
X183955Y291094D01*
X185659*
X185091Y293281D02*
Y290000D01*
X177719Y253114D02*
X181000D01*
X177719D02*
Y254136D01*
X177875Y254477*
X178031Y254591*
X178344Y254705*
X178656*
X178969Y254591*
X179125Y254477*
X179281Y254136*
Y253114*
Y253909D02*
X181000Y254705D01*
X177719Y255955D02*
Y257205D01*
X178969Y256523*
Y256864*
X179125Y257091*
X179281Y257205*
X179750Y257318*
X180062*
X180062D02*
X180531Y257205D01*
X180844Y256977*
X181000Y256636*
Y256295*
X180844Y255955*
X180687Y255841*
X180687D02*
X180375Y255727D01*
X177719Y259023D02*
X177875Y258682D01*
X178344Y258455*
X179125Y258341*
X179594*
X180375Y258455*
X180844Y258682*
X181000Y259023*
Y259250*
X180844Y259591*
X180375Y259818*
X179594Y259932*
X179125*
X178344Y259818*
X177875Y259591*
X177719Y259250*
Y259023*
X178500Y261068D02*
X178344D01*
X178031Y261182*
X177875Y261295*
X177719Y261523*
Y261977*
X177875Y262205*
X178031Y262318*
X178344Y262432*
X178656*
X178969Y262318*
X179437Y262091*
X179437D02*
X181000Y260955D01*
Y262545*
X171500Y256591D02*
X171187Y256477D01*
X171187D02*
X170875Y256250D01*
X170719Y256023*
Y255568*
X170875Y255341*
X171187Y255114*
X171187D02*
X171500Y255000D01*
X171969Y254886*
X172750*
X173219Y255000*
X173531Y255114*
X173844Y255341*
X174000Y255568*
Y256023*
X173844Y256250*
X173531Y256477*
X173219Y256591*
X170719Y257841D02*
Y259091D01*
X171969Y258409*
Y258750*
X172125Y258977*
X172281Y259091*
X172750Y259205*
X173062*
X173062D02*
X173531Y259091D01*
X173844Y258864*
X174000Y258523*
Y258182*
X173844Y257841*
X173687Y257727*
X173687D02*
X173375Y257614D01*
X170719Y260909D02*
X170875Y260568D01*
X171344Y260341*
X172125Y260227*
X172594*
X173375Y260341*
X173844Y260568*
X174000Y260909*
Y261136*
X173844Y261477*
X173375Y261705*
X172594Y261818*
X172125*
X171344Y261705*
X170875Y261477*
X170719Y261136*
Y260909*
Y264318D02*
Y263182D01*
X172125Y263068*
X171969Y263182*
X171812Y263523*
X171812D02*
Y263864D01*
X171812D02*
X171969Y264205D01*
X172281Y264432*
X172750Y264545*
X173062Y264432*
X173062D02*
X173531Y264318D01*
X173844Y264091*
X174000Y263750*
Y263409*
X173844Y263068*
X173687Y262955*
X173687D02*
X173375Y262841D01*
X256000Y280281D02*
Y277938D01*
X256000D02*
X256114Y277469D01*
X256341Y277156*
X256682Y277000*
X256909*
X257250Y277156*
X257477Y277469*
X257591Y277938*
X257591D02*
Y280281D01*
X258841D02*
X260091D01*
X259409Y279031*
X259750*
X259977Y278875*
X260091Y278719*
X260205Y278250*
Y277938*
X260205D02*
X260091Y277469D01*
X259864Y277156*
X259523Y277000*
X259182*
X258841Y277156*
X258727Y277313*
X258727D02*
X258614Y277625D01*
X261909Y280281D02*
X261568Y280125D01*
X261341Y279656*
X261227Y278875*
Y278406*
X261341Y277625*
X261568Y277156*
X261909Y277000*
X262136*
X262477Y277156*
X262705Y277625*
X262818Y278406*
Y278875*
X262705Y279656*
X262477Y280125*
X262136Y280281*
X261909*
X263955Y279500D02*
Y279656D01*
X264068Y279969*
X264182Y280125*
X264409Y280281*
X264864*
X265091Y280125*
X265205Y279969*
X265318Y279656*
Y279344*
X265205Y279031*
X264977Y278563*
X264977D02*
X263841Y277000D01*
X265432*
X258927Y305100D02*
X258814Y305413D01*
X258814D02*
X258586Y305725D01*
X258359Y305881*
X257905*
X257677Y305725*
X257450Y305413*
X257450D02*
X257336Y305100D01*
X257223Y304631*
Y303850*
X257336Y303381*
X257450Y303069*
X257677Y302756*
X257905Y302600*
X258359*
X258586Y302756*
X258814Y303069*
X258927Y303381*
X260177Y305881D02*
X261427D01*
X260745Y304631*
X261086*
X261314Y304475*
X261427Y304319*
X261541Y303850*
Y303538*
X261541D02*
X261427Y303069D01*
X261200Y302756*
X260859Y302600*
X260518*
X260177Y302756*
X260064Y302913*
X260064D02*
X259950Y303225D01*
X262564Y305256D02*
X262791Y305413D01*
X262791D02*
X263132Y305881D01*
Y302600*
X264836Y305881D02*
X264495Y305725D01*
X264268Y305256*
X264155Y304475*
Y304006*
X264268Y303225*
X264495Y302756*
X264836Y302600*
X265064*
X265405Y302756*
X265632Y303225*
X265745Y304006*
Y304475*
X265632Y305256*
X265405Y305725*
X265064Y305881*
X264836*
X270905Y305100D02*
X270791Y305413D01*
X270791D02*
X270564Y305725D01*
X270336Y305881*
X269882*
X269655Y305725*
X269427Y305413*
X269427D02*
X269314Y305100D01*
X269200Y304631*
Y303850*
X269314Y303381*
X269427Y303069*
X269655Y302756*
X269882Y302600*
X270336*
X270564Y302756*
X270791Y303069*
X270905Y303381*
X272155Y305881D02*
X273405D01*
X272723Y304631*
X273064*
X273291Y304475*
X273405Y304319*
X273518Y303850*
Y303538*
X273518D02*
X273405Y303069D01*
X273177Y302756*
X272836Y302600*
X272495*
X272155Y302756*
X272041Y302913*
X272041D02*
X271927Y303225D01*
X274541Y305256D02*
X274768Y305413D01*
X274768D02*
X275109Y305881D01*
Y302600*
X276245Y305100D02*
Y305256D01*
X276359Y305569*
X276473Y305725*
X276700Y305881*
X277155*
X277382Y305725*
X277495Y305569*
X277609Y305256*
Y304944*
X277495Y304631*
X277268Y304163*
X277268D02*
X276132Y302600D01*
X277723*
X249100Y284050D02*
X249413Y284164D01*
X249725Y284391*
X249881Y284618*
Y285073*
X249725Y285300*
X249413Y285527*
X249100Y285641*
X248631Y285755*
X247850*
X247381Y285641*
X247069Y285527*
X246756Y285300*
X246600Y285073*
Y284618*
X246756Y284391*
X247069Y284164*
X247381Y284050*
X249881Y282800D02*
Y281550D01*
X248631Y282232*
Y281891*
X248475Y281664*
X248319Y281550*
X247850Y281436*
X247538*
X247069Y281550*
X246756Y281777*
X246600Y282118*
Y282459*
X246756Y282800*
X246913Y282914*
X247225Y283027*
X249256Y280414D02*
X249413Y280186D01*
X249881Y279845*
X246600*
X249256Y278823D02*
X249413Y278595D01*
X249881Y278255*
X246600*
X153081Y307500D02*
X149800D01*
X153081D02*
Y306705D01*
X152925Y306364*
X152613Y306136*
X152613D02*
X152300Y306023D01*
X151831Y305909*
X151050*
X150581Y306023*
X150269Y306136*
X149956Y306364*
X149800Y306705*
Y307500*
X153081Y304659D02*
Y303409D01*
X151831Y304091*
Y303750*
X151675Y303523*
X151519Y303409*
X151050Y303295*
X150738*
X150738D02*
X150269Y303409D01*
X149956Y303636*
X149800Y303977*
Y304318*
X149956Y304659*
X150113Y304773*
X150113D02*
X150425Y304886D01*
X153081Y301591D02*
X152925Y301932D01*
X152456Y302159*
X151675Y302273*
X151206*
X150425Y302159*
X149956Y301932*
X149800Y301591*
Y301364*
X149956Y301023*
X150425Y300795*
X151206Y300682*
X151675*
X152456Y300795*
X152925Y301023*
X153081Y301364*
Y301591*
X152456Y299659D02*
X152613Y299432D01*
X152613D02*
X153081Y299091D01*
X149800*
X154081Y320273D02*
X150800D01*
X154081D02*
Y319250D01*
X153925Y318909*
X153769Y318795*
X153456Y318682*
X153144*
X152831Y318795*
X152675Y318909*
X152519Y319250*
Y320273*
Y319477D02*
X150800Y318682D01*
X154081Y317432D02*
Y316182D01*
X152831Y316864*
Y316523*
X152675Y316295*
X152519Y316182*
X152050Y316068*
X151738*
X151269Y316182*
X150956Y316409*
X150800Y316750*
Y317091*
X150956Y317432*
X151113Y317545*
X151425Y317659*
X154081Y314364D02*
X153925Y314705D01*
X153456Y314932*
X152675Y315045*
X152206*
X151425Y314932*
X150956Y314705*
X150800Y314364*
Y314136*
X150956Y313795*
X151425Y313568*
X152206Y313455*
X152675*
X153456Y313568*
X153925Y313795*
X154081Y314136*
Y314364*
X153613Y311068D02*
X153925Y311182D01*
X154081Y311523*
Y311750*
X153925Y312091*
X153456Y312318*
X152675Y312432*
X151894*
X151269Y312318*
X150956Y312091*
X150800Y311750*
Y311636*
X150956Y311295*
X151269Y311068*
X151738Y310955*
X151894*
X152363Y311068*
X152675Y311295*
X152831Y311636*
Y311750*
X152675Y312091*
X152363Y312318*
X151894Y312432*
X380136Y194281D02*
Y191781D01*
X380023Y191313*
X380023D02*
X379909Y191156D01*
X379682Y191000*
X379455*
X379227Y191156*
X379114Y191313*
X379114D02*
X379000Y191781D01*
Y192094*
X382295Y194281D02*
X381159Y192094D01*
X382864*
X382295Y194281D02*
Y191000D01*
X384568Y194281D02*
X384227Y194125D01*
X384000Y193656*
X383886Y192875*
Y192406*
X384000Y191625*
X384227Y191156*
X384568Y191000*
X384795*
X385136Y191156*
X385364Y191625*
X385477Y192406*
Y192875*
X385364Y193656*
X385136Y194125*
X384795Y194281*
X384568*
X387182D02*
X386841Y194125D01*
X386614Y193656*
X386500Y192875*
Y192406*
X386614Y191625*
X386841Y191156*
X387182Y191000*
X387409*
X387750Y191156*
X387977Y191625*
X388091Y192406*
Y192875*
X387977Y193656*
X387750Y194125*
X387409Y194281*
X387182*
X358500Y203009D02*
X358813Y203123D01*
X358813D02*
X359125Y203350D01*
X359281Y203577*
Y204032*
X359125Y204259*
X358813Y204486*
X358813D02*
X358500Y204600D01*
X358031Y204714*
X357250*
X356781Y204600*
X356469Y204486*
X356156Y204259*
X356000Y204032*
Y203577*
X356156Y203350*
X356469Y203123*
X356781Y203009*
X359281Y200850D02*
X357094Y201986D01*
Y200282*
X359281Y200850D02*
X356000D01*
X359281Y198577D02*
X359125Y198918D01*
X358656Y199145*
X357875Y199259*
X357406*
X356625Y199145*
X356156Y198918*
X356000Y198577*
Y198350*
X356156Y198009*
X356625Y197782*
X357406Y197668*
X357875*
X358656Y197782*
X359125Y198009*
X359281Y198350*
Y198577*
Y195964D02*
X359125Y196305D01*
X358656Y196532*
X357875Y196645*
X357406*
X356625Y196532*
X356156Y196305*
X356000Y195964*
Y195736*
X356156Y195395*
X356625Y195168*
X357406Y195055*
X357875*
X358656Y195168*
X359125Y195395*
X359281Y195736*
Y195964*
X355500Y160014D02*
X355187Y159900D01*
X355187D02*
X354875Y159673D01*
X354719Y159445*
Y158991*
X354875Y158764*
X355187Y158536*
X355187D02*
X355500Y158423D01*
X355969Y158309*
X356750*
X357219Y158423*
X357531Y158536*
X357844Y158764*
X358000Y158991*
Y159445*
X357844Y159673*
X357531Y159900*
X357219Y160014*
X354719Y162173D02*
X356906Y161036D01*
Y162741*
X354719Y162173D02*
X358000D01*
X354719Y164445D02*
X354875Y164105D01*
X355344Y163877*
X356125Y163764*
X356594*
X357375Y163877*
X357844Y164105*
X358000Y164445*
Y164673*
X357844Y165014*
X357375Y165241*
X356594Y165355*
X356125*
X355344Y165241*
X354875Y165014*
X354719Y164673*
Y164445*
X355344Y166377D02*
X355187Y166605D01*
X355187D02*
X354719Y166945D01*
X358000*
X364281Y205000D02*
X361000D01*
X364281D02*
Y203977D01*
X364125Y203636*
X363969Y203523*
X363656Y203409*
X363344*
X363031Y203523*
X362875Y203636*
X362719Y203977*
Y205000*
Y204205D02*
X361000Y203409D01*
X364281Y201250D02*
X362094Y202386D01*
Y200682*
X364281Y201250D02*
X361000D01*
X364281Y198977D02*
X364125Y199318D01*
X363656Y199545*
X362875Y199659*
X362406*
X361625Y199545*
X361156Y199318*
X361000Y198977*
Y198750*
X361156Y198409*
X361625Y198182*
X362406Y198068*
X362875*
X363656Y198182*
X364125Y198409*
X364281Y198750*
Y198977*
Y196818D02*
Y195568D01*
X363031Y196250*
Y195909*
X362875Y195682*
X362719Y195568*
X362250Y195455*
X361938*
X361938D02*
X361469Y195568D01*
X361156Y195795*
X361000Y196136*
Y196477*
X361156Y196818*
X361313Y196932*
X361313D02*
X361625Y197045D01*
X360281Y178000D02*
X357000D01*
X360281D02*
Y176977D01*
X360125Y176636*
X359969Y176523*
X359656Y176409*
X359344*
X359031Y176523*
X358875Y176636*
X358719Y176977*
Y178000*
Y177205D02*
X357000Y176409D01*
X360281Y174250D02*
X358094Y175386D01*
Y173682*
X360281Y174250D02*
X357000D01*
X360281Y171977D02*
X360125Y172318D01*
X359656Y172545*
X358875Y172659*
X358406*
X357625Y172545*
X357156Y172318*
X357000Y171977*
Y171750*
X357156Y171409*
X357625Y171182*
X358406Y171068*
X358875*
X359656Y171182*
X360125Y171409*
X360281Y171750*
Y171977*
X359500Y169932D02*
X359656D01*
X359969Y169818*
X360125Y169705*
X360281Y169477*
Y169023*
X360125Y168795*
X359969Y168682*
X359656Y168568*
X359344*
X359031Y168682*
X358563Y168909*
X357000Y170045*
Y168455*
X335691Y196900D02*
X335577Y197213D01*
X335577D02*
X335350Y197525D01*
X335123Y197681*
X334668*
X334441Y197525*
X334214Y197213*
X334214D02*
X334100Y196900D01*
X333986Y196431*
Y195650*
X334100Y195181*
X334214Y194869*
X334441Y194556*
X334668Y194400*
X335123*
X335350Y194556*
X335577Y194869*
X335691Y195181*
X337850Y197681D02*
X336714Y195494D01*
X338418*
X337850Y197681D02*
Y194400D01*
X340123Y197681D02*
X339782Y197525D01*
X339555Y197056*
X339441Y196275*
Y195806*
X339555Y195025*
X339782Y194556*
X340123Y194400*
X340350*
X340691Y194556*
X340918Y195025*
X341032Y195806*
Y196275*
X340918Y197056*
X340691Y197525*
X340350Y197681*
X340123*
X342168Y196900D02*
Y197056D01*
X342282Y197369*
X342395Y197525*
X342623Y197681*
X343077*
X343305Y197525*
X343418Y197369*
X343532Y197056*
Y196744*
X343418Y196431*
X343191Y195963*
X343191D02*
X342055Y194400D01*
X343645*
X380136Y238281D02*
Y235781D01*
X380023Y235313*
X380023D02*
X379909Y235156D01*
X379682Y235000*
X379455*
X379227Y235156*
X379114Y235313*
X379114D02*
X379000Y235781D01*
Y236094*
X382295Y238281D02*
X381159Y236094D01*
X382864*
X382295Y238281D02*
Y235000D01*
X384568Y238281D02*
X384227Y238125D01*
X384000Y237656*
X383886Y236875*
Y236406*
X384000Y235625*
X384227Y235156*
X384568Y235000*
X384795*
X385136Y235156*
X385364Y235625*
X385477Y236406*
Y236875*
X385364Y237656*
X385136Y238125*
X384795Y238281*
X384568*
X386500Y237656D02*
X386727Y237813D01*
X386727D02*
X387068Y238281D01*
Y235000*
X350591Y231500D02*
X350477Y231813D01*
X350477D02*
X350250Y232125D01*
X350023Y232281*
X349568*
X349341Y232125*
X349114Y231813*
X349114D02*
X349000Y231500D01*
X348886Y231031*
Y230250*
X349000Y229781*
X349114Y229469*
X349341Y229156*
X349568Y229000*
X350023*
X350250Y229156*
X350477Y229469*
X350591Y229781*
X352750Y232281D02*
X351614Y230094D01*
X353318*
X352750Y232281D02*
Y229000D01*
X355023Y232281D02*
X354682Y232125D01*
X354455Y231656*
X354341Y230875*
Y230406*
X354455Y229625*
X354682Y229156*
X355023Y229000*
X355250*
X355591Y229156*
X355818Y229625*
X355932Y230406*
Y230875*
X355818Y231656*
X355591Y232125*
X355250Y232281*
X355023*
X357182D02*
X358432D01*
X357750Y231031*
X358091*
X358318Y230875*
X358432Y230719*
X358545Y230250*
Y229938*
X358545D02*
X358432Y229469D01*
X358205Y229156*
X357864Y229000*
X357523*
X357182Y229156*
X357068Y229313*
X357068D02*
X356955Y229625D01*
X247705Y134500D02*
X247591Y134813D01*
X247364Y135125*
X247136Y135281*
X246682*
X246455Y135125*
X246227Y134813*
X246114Y134500*
X246000Y134031*
Y133250*
X246114Y132781*
X246227Y132469*
X246455Y132156*
X246682Y132000*
X247136*
X247364Y132156*
X247591Y132469*
X247705Y132781*
X248841Y134500D02*
Y134656D01*
X248955Y134969*
X249068Y135125*
X249295Y135281*
X249750*
X249977Y135125*
X250091Y134969*
X250205Y134656*
Y134344*
X250091Y134031*
X249864Y133563*
X248727Y132000*
X250318*
X252023Y135281D02*
X251682Y135125D01*
X251455Y134656*
X251341Y133875*
Y133406*
X251455Y132625*
X251682Y132156*
X252023Y132000*
X252250*
X252591Y132156*
X252818Y132625*
X252932Y133406*
Y133875*
X252818Y134656*
X252591Y135125*
X252250Y135281*
X252023*
X254182D02*
X255432D01*
X254750Y134031*
X255091*
X255318Y133875*
X255432Y133719*
X255545Y133250*
Y132938*
X255432Y132469*
X255205Y132156*
X254864Y132000*
X254523*
X254182Y132156*
X254068Y132313*
X253955Y132625*
X257364Y254281D02*
Y251000D01*
X258727*
X259750Y253656D02*
X259977Y253813D01*
X259977D02*
X260318Y254281D01*
Y251000*
X262023Y254281D02*
X261682Y254125D01*
X261455Y253656*
X261341Y252875*
Y252406*
X261455Y251625*
X261682Y251156*
X262023Y251000*
X262250*
X262591Y251156*
X262818Y251625*
X262932Y252406*
Y252875*
X262818Y253656*
X262591Y254125*
X262250Y254281*
X262023*
X264636D02*
X264295Y254125D01*
X264068Y253656*
X263955Y252875*
Y252406*
X264068Y251625*
X264295Y251156*
X264636Y251000*
X264864*
X265205Y251156*
X265432Y251625*
X265545Y252406*
Y252875*
X265432Y253656*
X265205Y254125*
X264864Y254281*
X264636*
X102719Y284136D02*
X105219D01*
X105687Y284023*
X105687D02*
X105844Y283909D01*
X106000Y283682*
Y283455*
X105844Y283227*
X105687Y283114*
X105687D02*
X105219Y283000D01*
X104906*
X102719Y285386D02*
Y286636D01*
X103969Y285955*
Y286295*
X104125Y286523*
X104281Y286636*
X104750Y286750*
X105062*
X105062D02*
X105531Y286636D01*
X105844Y286409*
X106000Y286068*
Y285727*
X105844Y285386*
X105687Y285273*
X105687D02*
X105375Y285159D01*
X102719Y288455D02*
X102875Y288114D01*
X103344Y287886*
X104125Y287773*
X104594*
X105375Y287886*
X105844Y288114*
X106000Y288455*
Y288682*
X105844Y289023*
X105375Y289250*
X104594Y289364*
X104125*
X103344Y289250*
X102875Y289023*
X102719Y288682*
Y288455*
Y291068D02*
X102875Y290727D01*
X103344Y290500*
X104125Y290386*
X104594*
X105375Y290500*
X105844Y290727*
X106000Y291068*
Y291295*
X105844Y291636*
X105375Y291864*
X104594Y291977*
X104125*
X103344Y291864*
X102875Y291636*
X102719Y291295*
Y291068*
X239841Y189500D02*
X239727Y189813D01*
X239500Y190125*
X239273Y190281*
X238818*
X238591Y190125*
X238364Y189813*
X238250Y189500*
X238136Y189031*
Y188250*
X238250Y187781*
X238364Y187469*
X238591Y187156*
X238818Y187000*
X239273*
X239500Y187156*
X239727Y187469*
X239841Y187781*
X240864Y189656D02*
X241091Y189813D01*
X241432Y190281*
Y187000*
X243136Y190281D02*
X242795Y190125D01*
X242568Y189656*
X242455Y188875*
Y188406*
X242568Y187625*
X242795Y187156*
X243136Y187000*
X243364*
X243705Y187156*
X243932Y187625*
X244045Y188406*
Y188875*
X243932Y189656*
X243705Y190125*
X243364Y190281*
X243136*
X246545Y189188D02*
X246432Y188719D01*
X246205Y188406*
X245864Y188250*
X245750*
X245409Y188406*
X245182Y188719*
X245068Y189188*
Y189344*
X245182Y189813*
X245409Y190125*
X245750Y190281*
X245864*
X246205Y190125*
X246432Y189813*
X246545Y189188*
Y188406*
X246432Y187625*
X246205Y187156*
X245864Y187000*
X245636*
X245295Y187156*
X245182Y187469*
X170281Y143864D02*
X167781D01*
X167313Y143977*
X167313D02*
X167156Y144091D01*
X167000Y144318*
Y144545*
X167156Y144773*
X167313Y144886*
X167313D02*
X167781Y145000D01*
X168094*
X170281Y142614D02*
Y141364D01*
X169031Y142045*
Y141705*
X168875Y141477*
X168719Y141364*
X168250Y141250*
X167938*
X167938D02*
X167469Y141364D01*
X167156Y141591*
X167000Y141932*
Y142273*
X167156Y142614*
X167313Y142727*
X167313D02*
X167625Y142841D01*
X170281Y139545D02*
X170125Y139886D01*
X169656Y140114*
X168875Y140227*
X168406*
X167625Y140114*
X167156Y139886*
X167000Y139545*
Y139318*
X167156Y138977*
X167625Y138750*
X168406Y138636*
X168875*
X169656Y138750*
X170125Y138977*
X170281Y139318*
Y139545*
X169656Y137614D02*
X169813Y137386D01*
X169813D02*
X170281Y137045D01*
X167000*
X382136Y299281D02*
Y296781D01*
X382023Y296313*
X382023D02*
X381909Y296156D01*
X381682Y296000*
X381455*
X381227Y296156*
X381114Y296313*
X381114D02*
X381000Y296781D01*
Y297094*
X383273Y298500D02*
Y298656D01*
X383386Y298969*
X383500Y299125*
X383727Y299281*
X384182*
X384409Y299125*
X384523Y298969*
X384636Y298656*
Y298344*
X384523Y298031*
X384295Y297563*
X384295D02*
X383159Y296000D01*
X384750*
X386455Y299281D02*
X386114Y299125D01*
X385886Y298656*
X385773Y297875*
Y297406*
X385886Y296625*
X386114Y296156*
X386455Y296000*
X386682*
X387023Y296156*
X387250Y296625*
X387364Y297406*
Y297875*
X387250Y298656*
X387023Y299125*
X386682Y299281*
X386455*
X388500Y298500D02*
Y298656D01*
X388614Y298969*
X388727Y299125*
X388955Y299281*
X389409*
X389636Y299125*
X389750Y298969*
X389864Y298656*
Y298344*
X389750Y298031*
X389523Y297563*
X389523D02*
X388386Y296000D01*
X389977*
X307500Y249181D02*
Y245900D01*
Y249181D02*
X308295D01*
X308636Y249025*
X308864Y248713*
X308864D02*
X308977Y248400D01*
X309091Y247931*
Y247150*
X308977Y246681*
X308864Y246369*
X308636Y246056*
X308295Y245900*
X307500*
X310114Y248556D02*
X310341Y248713D01*
X310341D02*
X310682Y249181D01*
Y245900*
X312386Y249181D02*
X312045Y249025D01*
X311818Y248556*
X311705Y247775*
Y247306*
X311818Y246525*
X312045Y246056*
X312386Y245900*
X312614*
X312955Y246056*
X313182Y246525*
X313295Y247306*
Y247775*
X313182Y248556*
X312955Y249025*
X312614Y249181*
X312386*
X314318Y248556D02*
X314545Y248713D01*
X314545D02*
X314886Y249181D01*
Y245900*
X354000Y254281D02*
Y251938D01*
X354000D02*
X354114Y251469D01*
X354341Y251156*
X354682Y251000*
X354909*
X355250Y251156*
X355477Y251469*
X355591Y251938*
X355591D02*
Y254281D01*
X356727Y253500D02*
Y253656D01*
X356841Y253969*
X356955Y254125*
X357182Y254281*
X357636*
X357864Y254125*
X357977Y253969*
X358091Y253656*
Y253344*
X357977Y253031*
X357750Y252563*
X357750D02*
X356614Y251000D01*
X358205*
X359909Y254281D02*
X359568Y254125D01*
X359341Y253656*
X359227Y252875*
Y252406*
X359341Y251625*
X359568Y251156*
X359909Y251000*
X360136*
X360477Y251156*
X360705Y251625*
X360818Y252406*
Y252875*
X360705Y253656*
X360477Y254125*
X360136Y254281*
X359909*
X361841Y253656D02*
X362068Y253813D01*
X362068D02*
X362409Y254281D01*
Y251000*
G54D71*
X357031Y282937D02*
Y275063D01*
X360969*
Y282937*
X357031*
G54D72*
X359000Y281756D02*
G03X359000I-787J0D01*
G01X278731Y202470D02*
X281500D01*
X282053Y202605*
X282422Y202873*
X282607Y203276*
Y203544*
X282422Y203947*
X282053Y204215*
X281500Y204349*
X278731*
X279470Y205557D02*
X279285Y205826D01*
X278731Y206228*
X282607*
X278731Y208242D02*
X278916Y207839D01*
X279470Y207571*
X280392Y207436*
X280946*
X281869Y207571*
X282422Y207839*
X282607Y208242*
Y208510*
X282422Y208913*
X281869Y209181*
X280946Y209315*
X280392*
X279470Y209181*
X278916Y208913*
X278731Y208510*
Y208242*
Y211329D02*
X278916Y210926D01*
X279470Y210657*
X280392Y210523*
X280946*
X281869Y210657*
X282422Y210926*
X282607Y211329*
Y211597*
X282422Y212000*
X281869Y212268*
X280946Y212402*
X280392*
X279470Y212268*
X278916Y212000*
X278731Y211597*
Y211329*
X224162Y111569D02*
Y108800D01*
X224296Y108247*
X224564Y107878*
X224967Y107693*
X225235*
X225638Y107878*
X225906Y108247*
X226041Y108800*
Y111569*
X227383Y110646D02*
Y110830D01*
X227517Y111200*
X227651Y111384*
X227920Y111569*
X228457*
X228725Y111384*
X228859Y111200*
X228993Y110830*
Y110461*
X228859Y110092*
X228591Y109539*
X227249Y107693*
X229128*
X231141Y111569D02*
X230738Y111384D01*
X230470Y110830*
X230336Y109908*
Y109354*
X230470Y108431*
X230738Y107878*
X231141Y107693*
X231409*
X231812Y107878*
X232080Y108431*
X232215Y109354*
Y109908*
X232080Y110830*
X231812Y111384*
X231409Y111569*
X231141*
X233557Y110646D02*
Y110830D01*
X233691Y111200*
X233825Y111384*
X234094Y111569*
X234630*
X234899Y111384*
X235033Y111200*
X235167Y110830*
Y110461*
X235033Y110092*
X234765Y109539*
X233423Y107693*
X235302*
X338504Y175569D02*
Y172800D01*
X338638Y172247*
X338907Y171878*
X339309Y171693*
X339578*
X339980Y171878*
X340249Y172247*
X340383Y172800*
Y175569*
X342933D02*
X341591Y172985D01*
X343604*
X342933Y175569D02*
Y171693D01*
X345617Y175569D02*
X345215Y175384D01*
X344946Y174830*
X344812Y173908*
Y173354*
X344946Y172431*
X345215Y171878*
X345617Y171693*
X345886*
X346288Y171878*
X346557Y172431*
X346691Y173354*
Y173908*
X346557Y174830*
X346288Y175384*
X345886Y175569*
X345617*
X348704D02*
X348302Y175384D01*
X348033Y174830*
X347899Y173908*
Y173354*
X348033Y172431*
X348302Y171878*
X348704Y171693*
X348973*
X349375Y171878*
X349644Y172431*
X349778Y173354*
Y173908*
X349644Y174830*
X349375Y175384*
X348973Y175569*
X348704*
X350108Y212569D02*
Y209800D01*
X350242Y209247*
X350511Y208878*
X350913Y208693*
X351182*
X351584Y208878*
X351853Y209247*
X351987Y209800*
Y212569*
X354537D02*
X353195Y209985D01*
X355208*
X354537Y212569D02*
Y208693D01*
X357221Y212569D02*
X356819Y212384D01*
X356550Y211830*
X356416Y210908*
Y210354*
X356550Y209431*
X356819Y208878*
X357221Y208693*
X357490*
X357892Y208878*
X358161Y209431*
X358295Y210354*
Y210908*
X358161Y211830*
X357892Y212384*
X357490Y212569*
X357221*
X359503Y211830D02*
X359771Y212015D01*
X360174Y212569*
Y208693*
X352866Y274273D02*
Y271505D01*
X353001Y270952*
X353269Y270582*
X353672Y270398*
X353940*
X354343Y270582*
X354611Y270952*
X354745Y271505*
Y274273*
X356088Y273351D02*
Y273535D01*
X356222Y273904*
X356356Y274089*
X356624Y274273*
X357161*
X357430Y274089*
X357564Y273904*
X357698Y273535*
Y273166*
X357564Y272797*
X357295Y272243*
X355953Y270398*
X357832*
X359846Y274273D02*
X359443Y274089D01*
X359174Y273535*
X359040Y272612*
Y272059*
X359174Y271136*
X359443Y270582*
X359846Y270398*
X360114*
X360517Y270582*
X360785Y271136*
X360919Y272059*
Y272612*
X360785Y273535*
X360517Y274089*
X360114Y274273*
X359846*
X362933D02*
X362530Y274089D01*
X362261Y273535*
X362127Y272612*
Y272059*
X362261Y271136*
X362530Y270582*
X362933Y270398*
X363201*
X363604Y270582*
X363872Y271136*
X364006Y272059*
Y272612*
X363872Y273535*
X363604Y274089*
X363201Y274273*
X362933*
G74*
X0Y0D02*
M02*
