*
*
G04 PADS 9.3.1 Build Number: 456998 generated Gerber (RS-274-X) file*
G04 PC Version=2.1*
*
%IN "bogiectl_rev2_1.pcb"*%
*
%MOIN*%
*
%FSLAX35Y35*%
*
*
*
*
G04 PC Standard Apertures*
*
*
G04 Thermal Relief Aperture macro.*
%AMTER*
1,1,$1,0,0*
1,0,$1-$2,0,0*
21,0,$3,$4,0,0,45*
21,0,$3,$4,0,0,135*
%
*
*
G04 Annular Aperture macro.*
%AMANN*
1,1,$1,0,0*
1,0,$2,0,0*
%
*
*
G04 Odd Aperture macro.*
%AMODD*
1,1,$1,0,0*
1,0,$1-0.005,0,0*
%
*
*
G04 PC Custom Aperture Macros*
*
*
*
*
*
*
G04 PC Aperture Table*
*
%ADD010C,0.001*%
%ADD019C,0.01*%
%ADD030C,0.014*%
%ADD036C,0.02*%
%ADD048C,0.07*%
%ADD049C,0.075*%
%ADD050C,0.16*%
%ADD052C,0.06118*%
%ADD054C,0.06906*%
%ADD055C,0.11*%
%ADD057C,0.10449*%
*
*
*
*
G04 PC Circuitry*
G04 Layer Name bogiectl_rev2_1.pcb - circuitry*
%LPD*%
*
*
G04 PC Custom Flashes*
G04 Layer Name bogiectl_rev2_1.pcb - flashes*
%LPD*%
*
*
G04 PC Circuitry*
G04 Layer Name bogiectl_rev2_1.pcb - circuitry*
%LPD*%
*
G54D10*
G54D19*
G01X119000Y202709D02*
Y207921D01*
X119394Y208315*
X124606*
X125000Y207921*
Y202709*
X124606Y202315*
X119394*
X119000Y202709*
Y203000D02*
X125000D01*
X119000Y204000D02*
X125000D01*
X119000Y205000D02*
X125000D01*
X119000Y206000D02*
X125000D01*
X119000Y207000D02*
X125000D01*
X119079Y208000D02*
X124921D01*
X119000Y202709D02*
Y207921D01*
X120000Y202315D02*
Y208315D01*
X121000Y202315D02*
Y208315D01*
X122000Y202315D02*
Y208315D01*
X123000Y202315D02*
Y208315D01*
X124000Y202315D02*
Y208315D01*
X125000Y202709D02*
Y207921D01*
X132115Y179094D02*
Y184306D01*
X132509Y184700*
X137721*
X138115Y184306*
Y179094*
X137721Y178700*
X132509*
X132115Y179094*
X132209Y179000D02*
X138021D01*
X132115Y180000D02*
X138115D01*
X132115Y181000D02*
X138115D01*
X132115Y182000D02*
X138115D01*
X132115Y183000D02*
X138115D01*
X132115Y184000D02*
X138115D01*
X133000Y178700D02*
Y184700D01*
X134000Y178700D02*
Y184700D01*
X135000Y178700D02*
Y184700D01*
X136000Y178700D02*
Y184700D01*
X137000Y178700D02*
Y184700D01*
X138000Y178979D02*
Y184421D01*
G54D30*
X236600Y211200D02*
X234000D01*
Y214600*
X236600*
Y211200*
X234000Y212000D02*
X236600D01*
X234000Y213400D02*
X236600D01*
X234400Y211200D02*
Y214600D01*
X235800Y211200D02*
Y214600D01*
X236600Y217400D02*
X234000D01*
Y220800*
X236600*
Y217400*
X234000Y217600D02*
X236600D01*
X234000Y219000D02*
X236600D01*
X234000Y220400D02*
X236600D01*
X234400Y217400D02*
Y220800D01*
X235800Y217400D02*
Y220800D01*
X188800Y150300D02*
Y147700D01*
X185400*
Y150300*
X188800*
X185400Y149000D02*
X188800D01*
X185400Y147700D02*
Y150300D01*
X186800Y147700D02*
Y150300D01*
X188200Y147700D02*
Y150300D01*
X182600D02*
Y147700D01*
X179200*
Y150300*
X182600*
X179200Y149000D02*
X182600D01*
X179800Y147700D02*
Y150300D01*
X181200Y147700D02*
Y150300D01*
X182600Y147700D02*
Y150300D01*
X290600Y214200D02*
Y211600D01*
X287200*
Y214200*
X290600*
X287200Y212000D02*
X290600D01*
X287200Y213400D02*
X290600D01*
X287600Y211600D02*
Y214200D01*
X289000Y211600D02*
Y214200D01*
X290400Y211600D02*
Y214200D01*
X284400D02*
Y211600D01*
X281000*
Y214200*
X284400*
X281000Y212000D02*
X284400D01*
X281000Y213400D02*
X284400D01*
X282000Y211600D02*
Y214200D01*
X283400Y211600D02*
Y214200D01*
X281000Y206600D02*
Y209200D01*
X284400*
Y206600*
X281000*
Y207800D02*
X284400D01*
X281000Y209200D02*
X284400D01*
X282000Y206600D02*
Y209200D01*
X283400Y206600D02*
Y209200D01*
X287200Y206600D02*
Y209200D01*
X290600*
Y206600*
X287200*
Y207800D02*
X290600D01*
X287200Y209200D02*
X290600D01*
X287600Y206600D02*
Y209200D01*
X289000Y206600D02*
Y209200D01*
X290400Y206600D02*
Y209200D01*
X223800Y132300D02*
Y129700D01*
X220400*
Y132300*
X223800*
X220400Y130800D02*
X223800D01*
X220400Y132200D02*
X223800D01*
X220400Y129700D02*
Y132300D01*
X221800Y129700D02*
Y132300D01*
X223200Y129700D02*
Y132300D01*
X217600D02*
Y129700D01*
X214200*
Y132300*
X217600*
X214200Y130800D02*
X217600D01*
X214200Y132200D02*
X217600D01*
X214800Y129700D02*
Y132300D01*
X216200Y129700D02*
Y132300D01*
X217600Y129700D02*
Y132300D01*
X364200Y190700D02*
Y193300D01*
X367600*
Y190700*
X364200*
Y191000D02*
X367600D01*
X364200Y192400D02*
X367600D01*
X364600Y190700D02*
Y193300D01*
X366000Y190700D02*
Y193300D01*
X367400Y190700D02*
Y193300D01*
X370400Y190700D02*
Y193300D01*
X373800*
Y190700*
X370400*
Y191000D02*
X373800D01*
X370400Y192400D02*
X373800D01*
X371600Y190700D02*
Y193300D01*
X373000Y190700D02*
Y193300D01*
X364200Y169700D02*
Y172300D01*
X367600*
Y169700*
X364200*
Y170000D02*
X367600D01*
X364200Y171400D02*
X367600D01*
X364600Y169700D02*
Y172300D01*
X366000Y169700D02*
Y172300D01*
X367400Y169700D02*
Y172300D01*
X370400Y169700D02*
Y172300D01*
X373800*
Y169700*
X370400*
Y170000D02*
X373800D01*
X370400Y171400D02*
X373800D01*
X371600Y169700D02*
Y172300D01*
X373000Y169700D02*
Y172300D01*
X390300Y267200D02*
X387700D01*
Y270600*
X390300*
Y267200*
X387700Y268000D02*
X390300D01*
X387700Y269400D02*
X390300D01*
X388400Y267200D02*
Y270600D01*
X389800Y267200D02*
Y270600D01*
X390300Y273400D02*
X387700D01*
Y276800*
X390300*
Y273400*
X387700Y273600D02*
X390300D01*
X387700Y275000D02*
X390300D01*
X387700Y276400D02*
X390300D01*
X388400Y273400D02*
Y276800D01*
X389800Y273400D02*
Y276800D01*
X387700Y263800D02*
X390300D01*
Y260400*
X387700*
Y263800*
Y261000D02*
X390300D01*
X387700Y262400D02*
X390300D01*
X387700Y263800D02*
X390300D01*
X388400Y260400D02*
Y263800D01*
X389800Y260400D02*
Y263800D01*
X387700Y257600D02*
X390300D01*
Y254200*
X387700*
Y257600*
Y255400D02*
X390300D01*
X387700Y256800D02*
X390300D01*
X388400Y254200D02*
Y257600D01*
X389800Y254200D02*
Y257600D01*
G54D36*
X264250Y145043D02*
Y144043D01*
X261750*
Y145043*
X264250*
X262000Y144043D02*
Y145043D01*
X264000Y144043D02*
Y145043D01*
X264250Y137957D02*
Y136957D01*
X261750*
Y137957*
X264250*
X262000Y136957D02*
Y137957D01*
X264000Y136957D02*
Y137957D01*
X256376Y141500D02*
Y140500D01*
X253876*
Y141500*
X256376*
X254000Y140500D02*
Y141500D01*
X256000Y140500D02*
Y141500D01*
X264250Y121043D02*
Y120043D01*
X261750*
Y121043*
X264250*
X262000Y120043D02*
Y121043D01*
X264000Y120043D02*
Y121043D01*
X264250Y113957D02*
Y112957D01*
X261750*
Y113957*
X264250*
X262000Y112957D02*
Y113957D01*
X264000Y112957D02*
Y113957D01*
X256376Y117500D02*
Y116500D01*
X253876*
Y117500*
X256376*
X254000Y116500D02*
Y117500D01*
X256000Y116500D02*
Y117500D01*
X204550Y179750D02*
Y185250D01*
X210050*
Y179750*
X204550*
Y180000D02*
X210050D01*
X204550Y182000D02*
X210050D01*
X204550Y184000D02*
X210050D01*
X206000Y179750D02*
Y185250D01*
X208000Y179750D02*
Y185250D01*
X210000Y179750D02*
Y185250D01*
X276043Y204750D02*
X275043D01*
Y207250*
X276043*
Y204750*
X275043Y206000D02*
X276043D01*
X276000Y204750D02*
Y207250D01*
X268957Y204750D02*
X267957D01*
Y207250*
X268957*
Y204750*
X267957Y206000D02*
X268957D01*
X268000Y204750D02*
Y207250D01*
X272500Y212624D02*
X271500D01*
Y215124*
X272500*
Y212624*
X271500Y214000D02*
X272500D01*
X272000Y212624D02*
Y215124D01*
X372750Y278143D02*
Y277143D01*
X370250*
Y278143*
X372750*
X370250Y278000D02*
X372750D01*
X372000Y277143D02*
Y278143D01*
X372750Y271057D02*
Y270057D01*
X370250*
Y271057*
X372750*
X372000Y270057D02*
Y271057D01*
X364876Y274600D02*
Y273600D01*
X362376*
Y274600*
X364876*
X362376Y274000D02*
X364876D01*
X364000Y273600D02*
Y274600D01*
X372750Y262143D02*
Y261143D01*
X370250*
Y262143*
X372750*
X370250Y262000D02*
X372750D01*
X372000Y261143D02*
Y262143D01*
X372750Y255057D02*
Y254057D01*
X370250*
Y255057*
X372750*
X372000Y254057D02*
Y255057D01*
X364876Y258600D02*
Y257600D01*
X362376*
Y258600*
X364876*
X362376Y258000D02*
X364876D01*
X364000Y257600D02*
Y258600D01*
X370250Y131043D02*
Y130043D01*
X367750*
Y131043*
X370250*
X368000Y130043D02*
Y131043D01*
X370000Y130043D02*
Y131043D01*
X370250Y123957D02*
Y122957D01*
X367750*
Y123957*
X370250*
X368000Y122957D02*
Y123957D01*
X370000Y122957D02*
Y123957D01*
X362376Y127500D02*
Y126500D01*
X359876*
Y127500*
X362376*
X360000Y126500D02*
Y127500D01*
X362000Y126500D02*
Y127500D01*
X371250Y186043D02*
Y185043D01*
X368750*
Y186043*
X371250*
X368750Y186000D02*
X371250D01*
X370000Y185043D02*
Y186043D01*
X371250Y178957D02*
Y177957D01*
X368750*
Y178957*
X371250*
X368750Y178000D02*
X371250D01*
X370000Y177957D02*
Y178957D01*
X363376Y182500D02*
Y181500D01*
X360876*
Y182500*
X363376*
X360876Y182000D02*
X363376D01*
X362000Y181500D02*
Y182500D01*
X371250Y223043D02*
Y222043D01*
X368750*
Y223043*
X371250*
X370000Y222043D02*
Y223043D01*
X371250Y215957D02*
Y214957D01*
X368750*
Y215957*
X371250*
X370000Y214957D02*
Y215957D01*
X363376Y219500D02*
Y218500D01*
X360876*
Y219500*
X363376*
X362000Y218500D02*
Y219500D01*
G54D48*
X122000Y225000D03*
X154800Y181700D03*
X182000Y201000D03*
X199717D03*
X182000Y226591D03*
X199717D03*
G54D49*
X215000Y306000D03*
Y316000D03*
X283200Y286600D03*
Y296600D03*
X207300Y172657D03*
X197457Y182500D03*
Y172657D03*
X187221Y182500D03*
Y172657D03*
X188000Y158000D03*
X178000D03*
G54D50*
X188000Y115000D03*
X313000Y315000D03*
Y115000D03*
X188000Y315000D03*
G54D52*
X155000Y272000D03*
Y258220D03*
G54D54*
X379000Y123000D03*
Y130874D03*
Y138748D03*
X271000Y113000D03*
Y120874D03*
Y128748D03*
Y136622D03*
Y144496D03*
X379000Y162000D03*
Y169874D03*
Y177748D03*
Y185622D03*
Y207000D03*
Y214874D03*
Y222748D03*
Y230622D03*
X379500Y254100D03*
Y261974D03*
Y269848D03*
Y277722D03*
Y285596D03*
G54D55*
X112100Y167400D03*
Y152833D03*
Y135510D03*
Y120943D03*
G54D57*
X137000Y301000D03*
X117315D03*
X136000Y130000D03*
X155685D03*
X0Y0D02*
M02*
