%
T1C.015F0S0
X016Y0225
X01564Y0235
X0157Y028
X0161Y029
X0162Y0316
X0156Y0323
X0167Y0323
X0167Y031
X0167Y0295
X0178Y0295
X0173Y029
X0167Y0285
X0173Y028
X0178Y025
X0183Y0245
X017Y02411
X02106Y02199
X0193Y0245
X0188Y025
X0198Y025
X0193Y0255
X0188Y026
X0198Y026
X01971Y0264
X02016Y02641
X0197Y027
X02016Y02702
X0195Y0275
X02061Y0284
X01929Y02854
X0199Y0287
X0193Y029
X0188Y0295
X0226Y0236
X022008Y023055
X0228Y022
X0219Y0215
X0228Y0212
X0219Y0198
X0226Y0196
X0236Y0192
X02319Y01491
X02158Y0136
X0227Y0131
X02157Y0121
X02157Y0116
X0252Y0192
X0243Y0196
X0239Y0213
X0244Y0216
X0239Y02191
X025Y0221
X0245Y0226
X024265Y02359
X0252Y0273
X02551Y03006
X02732Y03052
X0286Y0245
X0275Y0225
X0278Y02175
X0263Y0211
X0272Y02025
X0285Y0191
X02677Y01811
X02707Y01786
X02779Y01742
X0285Y0172
X02808Y01714
X03077Y0155
X03097Y01986
X03073Y02017
X03096Y02049
X03073Y0208
X02955Y02111
X03094Y02206
X03072Y02237
X03073Y02281
X0317Y0278
X03233Y02281
X03233Y02237
X03266Y02206
X03151Y02101
X03263Y02067
X03284Y02035
X03217Y01912
X03208Y01873
X03124Y01551
X03569Y01134
X03569Y0142
X03531Y01761
X03537Y01811
X03531Y0186
X03472Y01949
X03549Y02144
X03493Y026
X0348Y02681
X03511Y02764
X03516Y02879
X03855Y02621
X03624Y02261
X03659Y01971
X03659Y01656
T2C.02756F0S0
X0155Y025822
X0155Y0272
T3C.03F0S0
X013511Y01817
X01548Y01817
X0122Y020531
X0122Y0225
T4C.0315F0S0
X0271Y0113
X0271Y012087
X0271Y012875
X0271Y013662
X0271Y01445
X03795Y02856
X03795Y027772
X03795Y026985
X03795Y026197
X03795Y02541
X0379Y023062
X0379Y022275
X0379Y021487
X0379Y0207
X0379Y018562
X0379Y017775
X0379Y016987
X0379Y0162
X0379Y013875
X0379Y013087
X0379Y0123
T5C.035F0S0
X0178Y0158
X0182Y0201
X0182Y022659
X019972Y022659
X019972Y0201
X019746Y01825
X018722Y01825
X02073Y01825
X018722Y017266
X02073Y017266
X019746Y017266
X0188Y0158
X02832Y02866
X02832Y02966
X0215Y0306
X0215Y0316
T6C.05512F0S0
X0136Y013
X015569Y013
X0137Y0301
X011731Y0301
T7C.065F0S0
X01121Y012094
X01121Y013551
X01121Y015283
X01121Y01674
T8C.116F0S0
X0188Y0115
X0188Y0315
X0313Y0315
X0313Y0115
M30
