%
T1C.015F0S0
X011904Y010876
X012611Y011583
X0129Y01215
X013318Y010876
X0157Y0131
X025339Y011583
X025339Y012997
X026046Y010876
X028875Y010876
X02915Y01545
X028875Y013704
X02785Y01545
X024632Y015118
X023218Y015118
X021097Y015825
X018975Y015118
X018268Y015825
X017561Y015118
X01544Y015825
X0153Y014
X014733Y015118
X014025Y015825
X014Y014
X013318Y015118
X012611Y015825
X011197Y017239
X011904Y016532
X011904Y017947
X012611Y017239
X013318Y016532
X014025Y017239
X014733Y016532
X01544Y017239
X016147Y016532
X016854Y017239
X017561Y016532
X019682Y017239
X021097Y017239
X0249Y0165
X026046Y017947
X027461Y017947
X027461Y016532
X028168Y017239
X028875Y017947
X02748Y02006
X025339Y018654
X024632Y019361
X02443Y02057
X023925Y020068
X023218Y020775
X021804Y019361
X021097Y020068
X0204Y01945
X0204Y01895
X0204Y01995
X020389Y020775
X0199Y01995
X0199Y01895
X0199Y01945
X018975Y019361
X01705Y01945
X01544Y020068
X0149Y0208
X011197Y020068
X011197Y022896
X0123Y0212
X0147Y023
X0148Y02155
X01775Y0213
X0215Y0224
X0219Y02325
X022511Y022896
X024632Y022189
X02638Y0226
X027461Y022189
X028168Y021482
X028875Y022189
X028168Y025725
X0273Y0237
X025339Y025725
X02405Y02375
X0232Y0244
X02185Y02445
X02075Y02355
X0207Y02455
X0206Y02408
X01995Y0246
X01995Y025
X017561Y025018
X016854Y025725
X013318Y025018
X012611Y024311
X011904Y023603
X011197Y027139
X014025Y027139
X017561Y026432
X018268Y027139
X018975Y026432
X019682Y027139
X020389Y027846
X020389Y026432
X021097Y027139
X021804Y027846
X021804Y026432
X022511Y027139
X023218Y026432
X023218Y027846
X028168Y027139
X028875Y026432
X028875Y02926
X028168Y029967
X028168Y028553
X027461Y02926
X026753Y028553
X026046Y030674
X025339Y029967
X023925Y028553
X023218Y02926
X022511Y029967
X022511Y028553
X0215Y0298
X0215Y0288
X0215Y0293
X021Y0288
X021Y0298
X021Y0293
X020389Y02926
X020389Y030674
X01995Y02995
X019682Y028553
X0181Y0293
X014025Y028553
X013318Y02926
X01261Y02856
X01135Y03015
X011197Y028553
X011197Y032796
X014025Y032796
X0168Y03225
X0168Y0328
X0181Y0311
X0188Y0321
X0259Y0316
X026753Y031382
X026753Y032796
X027461Y032089
X028168Y032796
X028168Y031382
X028875Y032089
X028875Y033503
X028875Y034917
X028168Y03421
X028168Y035624
X027461Y033503
X027461Y034917
X026753Y03421
X026753Y035624
X026046Y034917
X026046Y033503
X023925Y035624
X021804Y034917
X021804Y033503
X021097Y03421
X0181Y03465
X0168Y0356
X011904Y033503
X01117Y03423
X0198Y0364
X0198Y0369
X0198Y0374
X0206Y0377
X021804Y037746
X024632Y036331
X026046Y036331
X028875Y036331
X028875Y037746
X028875Y03916
X028875Y040574
X028168Y039867
X027461Y040574
X026753Y039867
X026046Y040574
X021804Y040574
X021097Y039867
X020389Y03916
X020389Y040574
X019682Y039867
X018975Y040574
X0181Y03885
X01765Y0393
X01395Y0416
X0163Y0411
X018268Y041281
X018268Y042695
X019682Y041281
X021097Y041281
X024632Y041988
X025339Y041281
X025339Y042695
X026753Y042695
X028168Y042695
X028875Y041988
X027461Y043402
X024632Y043402
X017561Y043402
X0154Y04435
X013318Y043402
T2C.01969F0S0
X027308Y027813
X028292Y027813
T3C.02362F0S0
X0166Y014408
X0166Y015392
X02Y014908
X02Y015892
X0238Y018208
X0238Y019192
T4C.028F0S0
X0189Y0121
T5C.0315F0S0
X0268Y0123
X027587Y0123
X028375Y0123
X028484Y0188
X026516Y0188
X01415Y026
X013362Y026
X012575Y026
X011787Y026
X011Y026
T6C.035F0S0
X020092Y042516
X021116Y042516
X0221Y042516
X0221Y0435
X021116Y0435
X020092Y0435
T7C.03543F0S0
X010916Y0191
X0119Y0191
X012884Y0191
T8C.037F0S0
X0118Y0144
X0128Y0144
X0293Y0167
X0264Y0262
X0148Y0191
X0121Y0308
X0126Y0318
X0131Y0308
X0136Y0318
X0216Y0321
X024Y0297
X0278Y038
X0278Y037
X0242Y0345
X0232Y0345
X0107Y0379
X0107Y0369
X0107Y0359
X0107Y0389
X0253Y0403
X0278Y039
T9C.03937F0S0
X026314Y04162
X028086Y04162
X028086Y04418
X026314Y04418
T10C.055F0S0
X0179Y0111
X0179Y0131
X0199Y0131
X0199Y0111
T11C.071F0S0
X02215Y0143
X02215Y01647
X0238Y01647
X0238Y0143
T12C.118F0S0
X02297Y01143
M30
