*
*
G04 PADS 9.3.1 Build Number: 456998 generated Gerber (RS-274-X) file*
G04 PC Version=2.1*
*
%IN "tripod.pcb"*%
*
%MOIN*%
*
%FSLAX35Y35*%
*
*
*
*
G04 PC Standard Apertures*
*
*
G04 Thermal Relief Aperture macro.*
%AMTER*
1,1,$1,0,0*
1,0,$1-$2,0,0*
21,0,$3,$4,0,0,45*
21,0,$3,$4,0,0,135*
%
*
*
G04 Annular Aperture macro.*
%AMANN*
1,1,$1,0,0*
1,0,$2,0,0*
%
*
*
G04 Odd Aperture macro.*
%AMODD*
1,1,$1,0,0*
1,0,$1-0.005,0,0*
%
*
*
G04 PC Custom Aperture Macros*
*
*
*
*
*
*
G04 PC Aperture Table*
*
%ADD010C,0.001*%
%ADD012C,0.01*%
%ADD018C,0.02575*%
%ADD019C,0.014*%
%ADD020C,0.018*%
%ADD021C,0.06906*%
%ADD022C,0.07*%
%ADD023C,0.02*%
%ADD024C,0.075*%
%ADD025C,0.016*%
%ADD026C,0.06*%
%ADD027C,0.096*%
%ADD028C,0.04937*%
%ADD029C,0.05724*%
%ADD030C,0.105*%
%ADD031C,0.15*%
%ADD032R,0.06118X0.06118*%
%ADD033R,0.06118X0.08874*%
%ADD034C,0.08087*%
%ADD035O,0.08677X0.02969*%
%ADD036O,0.02969X0.08677*%
%ADD037C,0.01787*%
%ADD038O,0.0789X0.0352*%
%ADD039R,0.10843X0.02575*%
%ADD040R,0.02575X0.10843*%
%ADD041R,0.0415X0.07575*%
%ADD042R,0.07575X0.0415*%
%ADD043R,0.03756X0.13205*%
%ADD044R,0.08087X0.02378*%
%ADD045O,0.06984X0.0285*%
%ADD046C,0.02181*%
*
*
*
*
G04 PC Circuitry*
G04 Layer Name tripod.pcb - circuitry*
%LPD*%
*
*
G04 PC Custom Flashes*
G04 Layer Name tripod.pcb - flashes*
%LPD*%
*
*
G04 PC Circuitry*
G04 Layer Name tripod.pcb - circuitry*
%LPD*%
*
G54D10*
G54D12*
G01X132500Y404000D02*
Y397000D01*
X181500*
Y404000*
X132500*
Y341000D02*
Y334000D01*
X181500*
Y341000*
X132500*
X122000Y344500D02*
X129000D01*
Y393500*
X122000*
Y344500*
X185000D02*
X192000D01*
Y393500*
X185000*
Y344500*
X189500Y251500D02*
X196000D01*
Y232500*
X189500*
Y251500*
X210000D02*
X216500D01*
Y232500*
X210000*
Y251500*
X255500Y244500D02*
X264500D01*
Y237500*
X255500*
Y244500*
Y222500D02*
X264500D01*
Y215000*
X255500*
Y222500*
X239500Y383500D02*
X249000D01*
Y374500*
X239500*
Y383500*
X257000D02*
X266500D01*
Y374500*
X257000*
Y383500*
X120000Y136500D02*
X154000D01*
Y125000*
X120000*
Y136500*
X132500Y403299D02*
X181500D01*
X132500Y402399D02*
X181500D01*
X132500Y401499D02*
X181500D01*
X132500Y400599D02*
X181500D01*
X132500Y399699D02*
X181500D01*
X132500Y398799D02*
X181500D01*
X132500Y397899D02*
X181500D01*
X132500Y340299D02*
X181500D01*
X132500Y339399D02*
X181500D01*
X132500Y338499D02*
X181500D01*
X132500Y337599D02*
X181500D01*
X132500Y336699D02*
X181500D01*
X132500Y335799D02*
X181500D01*
X132500Y334899D02*
X181500D01*
X122000Y393099D02*
X129000D01*
X122000Y392199D02*
X129000D01*
X122000Y391299D02*
X129000D01*
X122000Y390399D02*
X129000D01*
X122000Y389499D02*
X129000D01*
X122000Y388599D02*
X129000D01*
X122000Y387699D02*
X129000D01*
X122000Y386799D02*
X129000D01*
X122000Y385899D02*
X129000D01*
X122000Y384999D02*
X129000D01*
X122000Y384099D02*
X129000D01*
X122000Y383199D02*
X129000D01*
X122000Y382299D02*
X129000D01*
X122000Y381399D02*
X129000D01*
X122000Y380499D02*
X129000D01*
X122000Y379599D02*
X129000D01*
X122000Y378699D02*
X129000D01*
X122000Y377799D02*
X129000D01*
X122000Y376899D02*
X129000D01*
X122000Y375999D02*
X129000D01*
X122000Y375099D02*
X129000D01*
X122000Y374199D02*
X129000D01*
X122000Y373299D02*
X129000D01*
X122000Y372399D02*
X129000D01*
X122000Y371499D02*
X129000D01*
X122000Y370599D02*
X129000D01*
X122000Y369699D02*
X129000D01*
X122000Y368799D02*
X129000D01*
X122000Y367899D02*
X129000D01*
X122000Y366999D02*
X129000D01*
X122000Y366099D02*
X129000D01*
X122000Y365199D02*
X129000D01*
X122000Y364299D02*
X129000D01*
X122000Y363399D02*
X129000D01*
X122000Y362499D02*
X129000D01*
X122000Y361599D02*
X129000D01*
X122000Y360699D02*
X129000D01*
X122000Y359799D02*
X129000D01*
X122000Y358899D02*
X129000D01*
X122000Y357999D02*
X129000D01*
X122000Y357099D02*
X129000D01*
X122000Y356199D02*
X129000D01*
X122000Y355299D02*
X129000D01*
X122000Y354399D02*
X129000D01*
X122000Y353499D02*
X129000D01*
X122000Y352599D02*
X129000D01*
X122000Y351699D02*
X129000D01*
X122000Y350799D02*
X129000D01*
X122000Y349899D02*
X129000D01*
X122000Y348999D02*
X129000D01*
X122000Y348099D02*
X129000D01*
X122000Y347199D02*
X129000D01*
X122000Y346299D02*
X129000D01*
X122000Y345399D02*
X129000D01*
X185000Y393099D02*
X192000D01*
X185000Y392199D02*
X192000D01*
X185000Y391299D02*
X192000D01*
X185000Y390399D02*
X192000D01*
X185000Y389499D02*
X192000D01*
X185000Y388599D02*
X192000D01*
X185000Y387699D02*
X192000D01*
X185000Y386799D02*
X192000D01*
X185000Y385899D02*
X192000D01*
X185000Y384999D02*
X192000D01*
X185000Y384099D02*
X192000D01*
X185000Y383199D02*
X192000D01*
X185000Y382299D02*
X192000D01*
X185000Y381399D02*
X192000D01*
X185000Y380499D02*
X192000D01*
X185000Y379599D02*
X192000D01*
X185000Y378699D02*
X192000D01*
X185000Y377799D02*
X192000D01*
X185000Y376899D02*
X192000D01*
X185000Y375999D02*
X192000D01*
X185000Y375099D02*
X192000D01*
X185000Y374199D02*
X192000D01*
X185000Y373299D02*
X192000D01*
X185000Y372399D02*
X192000D01*
X185000Y371499D02*
X192000D01*
X185000Y370599D02*
X192000D01*
X185000Y369699D02*
X192000D01*
X185000Y368799D02*
X192000D01*
X185000Y367899D02*
X192000D01*
X185000Y366999D02*
X192000D01*
X185000Y366099D02*
X192000D01*
X185000Y365199D02*
X192000D01*
X185000Y364299D02*
X192000D01*
X185000Y363399D02*
X192000D01*
X185000Y362499D02*
X192000D01*
X185000Y361599D02*
X192000D01*
X185000Y360699D02*
X192000D01*
X185000Y359799D02*
X192000D01*
X185000Y358899D02*
X192000D01*
X185000Y357999D02*
X192000D01*
X185000Y357099D02*
X192000D01*
X185000Y356199D02*
X192000D01*
X185000Y355299D02*
X192000D01*
X185000Y354399D02*
X192000D01*
X185000Y353499D02*
X192000D01*
X185000Y352599D02*
X192000D01*
X185000Y351699D02*
X192000D01*
X185000Y350799D02*
X192000D01*
X185000Y349899D02*
X192000D01*
X185000Y348999D02*
X192000D01*
X185000Y348099D02*
X192000D01*
X185000Y347199D02*
X192000D01*
X185000Y346299D02*
X192000D01*
X185000Y345399D02*
X192000D01*
X189500Y251399D02*
X196000D01*
X189500Y250499D02*
X196000D01*
X189500Y249599D02*
X196000D01*
X189500Y248699D02*
X196000D01*
X189500Y247799D02*
X196000D01*
X189500Y246899D02*
X196000D01*
X189500Y245999D02*
X196000D01*
X189500Y245099D02*
X196000D01*
X189500Y244199D02*
X196000D01*
X189500Y243299D02*
X196000D01*
X189500Y242399D02*
X196000D01*
X189500Y241499D02*
X196000D01*
X189500Y240599D02*
X196000D01*
X189500Y239699D02*
X196000D01*
X189500Y238799D02*
X196000D01*
X189500Y237899D02*
X196000D01*
X189500Y236999D02*
X196000D01*
X189500Y236099D02*
X196000D01*
X189500Y235199D02*
X196000D01*
X189500Y234299D02*
X196000D01*
X189500Y233399D02*
X196000D01*
X210000Y251399D02*
X216500D01*
X210000Y250499D02*
X216500D01*
X210000Y249599D02*
X216500D01*
X210000Y248699D02*
X216500D01*
X210000Y247799D02*
X216500D01*
X210000Y246899D02*
X216500D01*
X210000Y245999D02*
X216500D01*
X210000Y245099D02*
X216500D01*
X210000Y244199D02*
X216500D01*
X210000Y243299D02*
X216500D01*
X210000Y242399D02*
X216500D01*
X210000Y241499D02*
X216500D01*
X210000Y240599D02*
X216500D01*
X210000Y239699D02*
X216500D01*
X210000Y238799D02*
X216500D01*
X210000Y237899D02*
X216500D01*
X210000Y236999D02*
X216500D01*
X210000Y236099D02*
X216500D01*
X210000Y235199D02*
X216500D01*
X210000Y234299D02*
X216500D01*
X210000Y233399D02*
X216500D01*
X255500Y243799D02*
X264500D01*
X255500Y242899D02*
X264500D01*
X255500Y241999D02*
X264500D01*
X255500Y241099D02*
X264500D01*
X255500Y240199D02*
X264500D01*
X255500Y239299D02*
X264500D01*
X255500Y238399D02*
X264500D01*
X255500Y222199D02*
X264500D01*
X255500Y221299D02*
X264500D01*
X255500Y220399D02*
X264500D01*
X255500Y219499D02*
X264500D01*
X255500Y218599D02*
X264500D01*
X255500Y217699D02*
X264500D01*
X255500Y216799D02*
X264500D01*
X255500Y215899D02*
X264500D01*
X239500Y383499D02*
X249000D01*
X239500Y382599D02*
X249000D01*
X239500Y381699D02*
X249000D01*
X239500Y380799D02*
X249000D01*
X239500Y379899D02*
X249000D01*
X239500Y378999D02*
X249000D01*
X239500Y378099D02*
X249000D01*
X239500Y377199D02*
X249000D01*
X239500Y376299D02*
X249000D01*
X239500Y375399D02*
X249000D01*
X257000Y383499D02*
X266500D01*
X257000Y382599D02*
X266500D01*
X257000Y381699D02*
X266500D01*
X257000Y380799D02*
X266500D01*
X257000Y379899D02*
X266500D01*
X257000Y378999D02*
X266500D01*
X257000Y378099D02*
X266500D01*
X257000Y377199D02*
X266500D01*
X257000Y376299D02*
X266500D01*
X257000Y375399D02*
X266500D01*
X120000Y135799D02*
X154000D01*
X120000Y134899D02*
X154000D01*
X120000Y133999D02*
X154000D01*
X120000Y133099D02*
X154000D01*
X120000Y132199D02*
X154000D01*
X120000Y131299D02*
X154000D01*
X120000Y130399D02*
X154000D01*
X120000Y129499D02*
X154000D01*
X120000Y128599D02*
X154000D01*
X120000Y127699D02*
X154000D01*
X120000Y126799D02*
X154000D01*
X120000Y125899D02*
X154000D01*
X112000Y120965D02*
X116512D01*
Y111335*
X104717*
Y118209*
X112000*
Y120965*
X161984D02*
X157472D01*
Y111335*
X169268*
Y118209*
X161984*
Y120965*
X112000Y120333D02*
X116512D01*
X112000Y119433D02*
X116512D01*
X112000Y118533D02*
X116512D01*
X104717Y117633D02*
X116512D01*
X104717Y116733D02*
X116512D01*
X104717Y115833D02*
X116512D01*
X104717Y114933D02*
X116512D01*
X104717Y114033D02*
X116512D01*
X104717Y113133D02*
X116512D01*
X104717Y112233D02*
X116512D01*
X157472Y117633D02*
X169268D01*
X157472Y116733D02*
X169268D01*
X157472Y115833D02*
X169268D01*
X157472Y114933D02*
X169268D01*
X157472Y114033D02*
X169268D01*
X157472Y113133D02*
X169268D01*
X157472Y112233D02*
X169268D01*
X157472Y120333D02*
X161984D01*
X157472Y119433D02*
X161984D01*
X157472Y118533D02*
X161984D01*
G54D18*
X170929Y424882D02*
X162661D01*
Y435118*
X170929*
Y424882*
X162661Y427000D02*
X170929D01*
X162661Y429575D02*
X170929D01*
X162661Y432150D02*
X170929D01*
X162661Y434724D02*
X170929D01*
X164370Y424882D02*
Y435118D01*
X166945Y424882D02*
Y435118D01*
X169520Y424882D02*
Y435118D01*
X145339Y424882D02*
X137071D01*
Y435118*
X145339*
Y424882*
X137071Y427000D02*
X145339D01*
X137071Y429575D02*
X145339D01*
X137071Y432150D02*
X145339D01*
X137071Y434724D02*
X145339D01*
X138622Y424882D02*
Y435118D01*
X141197Y424882D02*
Y435118D01*
X143772Y424882D02*
Y435118D01*
X184457Y302606D02*
Y303394D01*
X191543*
Y302606*
X184457*
X184969D02*
Y303394D01*
X187543Y302606D02*
Y303394D01*
X190118Y302606D02*
Y303394D01*
X184457Y297606D02*
Y298394D01*
X191543*
Y297606*
X184457*
Y298260D02*
X191543D01*
X184969Y297606D02*
Y298394D01*
X187543Y297606D02*
Y298394D01*
X190118Y297606D02*
Y298394D01*
X184457Y292606D02*
Y293394D01*
X191543*
Y292606*
X184457*
Y293110D02*
X191543D01*
X184969Y292606D02*
Y293394D01*
X187543Y292606D02*
Y293394D01*
X190118Y292606D02*
Y293394D01*
X184457Y287606D02*
Y288394D01*
X191543*
Y287606*
X184457*
Y287961D02*
X191543D01*
X184969Y287606D02*
Y288394D01*
X187543Y287606D02*
Y288394D01*
X190118Y287606D02*
Y288394D01*
X184457Y282606D02*
Y283394D01*
X191543*
Y282606*
X184457*
Y282811D02*
X191543D01*
X184969Y282606D02*
Y283394D01*
X187543Y282606D02*
Y283394D01*
X190118Y282606D02*
Y283394D01*
X208866Y299102D02*
X215953D01*
Y286898*
X208866*
Y299102*
Y287961D02*
X215953D01*
X208866Y290535D02*
X215953D01*
X208866Y293110D02*
X215953D01*
X208866Y295685D02*
X215953D01*
X208866Y298260D02*
X215953D01*
X210717Y286898D02*
Y299102D01*
X213291Y286898D02*
Y299102D01*
X215866Y286898D02*
Y299102D01*
X173457Y204106D02*
Y204894D01*
X180543*
Y204106*
X173457*
X174669D02*
Y204894D01*
X177244Y204106D02*
Y204894D01*
X179819Y204106D02*
Y204894D01*
X173457Y199106D02*
Y199894D01*
X180543*
Y199106*
X173457*
X174669D02*
Y199894D01*
X177244Y199106D02*
Y199894D01*
X179819Y199106D02*
Y199894D01*
X173457Y194106D02*
Y194894D01*
X180543*
Y194106*
X173457*
X174669D02*
Y194894D01*
X177244Y194106D02*
Y194894D01*
X179819Y194106D02*
Y194894D01*
X173457Y189106D02*
Y189894D01*
X180543*
Y189106*
X173457*
X174669D02*
Y189894D01*
X177244Y189106D02*
Y189894D01*
X179819Y189106D02*
Y189894D01*
X173457Y184106D02*
Y184894D01*
X180543*
Y184106*
X173457*
X174669D02*
Y184894D01*
X177244Y184106D02*
Y184894D01*
X179819Y184106D02*
Y184894D01*
X197866Y200602D02*
X204953D01*
Y188398*
X197866*
Y200602*
Y190118D02*
X204953D01*
X197866Y192693D02*
X204953D01*
X197866Y195268D02*
X204953D01*
X197866Y197843D02*
X204953D01*
X197866Y200417D02*
X204953D01*
X200417Y188398D02*
Y200602D01*
X202992Y188398D02*
Y200602D01*
G54D19*
X139200Y441700D02*
Y444300D01*
X142600*
Y441700*
X139200*
Y443000D02*
X142600D01*
X139200Y441700D02*
Y444300D01*
X140600Y441700D02*
Y444300D01*
X142000Y441700D02*
Y444300D01*
X145400Y441700D02*
Y444300D01*
X148800*
Y441700*
X145400*
Y443000D02*
X148800D01*
X146200Y441700D02*
Y444300D01*
X147600Y441700D02*
Y444300D01*
X166700Y417800D02*
X169300D01*
Y414400*
X166700*
Y417800*
Y415000D02*
X169300D01*
X166700Y416400D02*
X169300D01*
X166700Y417800D02*
X169300D01*
X167200Y414400D02*
Y417800D01*
X168600Y414400D02*
Y417800D01*
X166700Y411600D02*
X169300D01*
Y408200*
X166700*
Y411600*
Y409400D02*
X169300D01*
X166700Y410800D02*
X169300D01*
X167200Y408200D02*
Y411600D01*
X168600Y408200D02*
Y411600D01*
X168800Y444300D02*
Y441700D01*
X165400*
Y444300*
X168800*
X165400Y443000D02*
X168800D01*
X165800Y441700D02*
Y444300D01*
X167200Y441700D02*
Y444300D01*
X168600Y441700D02*
Y444300D01*
X162600D02*
Y441700D01*
X159200*
Y444300*
X162600*
X159200Y443000D02*
X162600D01*
X160200Y441700D02*
Y444300D01*
X161600Y441700D02*
Y444300D01*
X206300Y384300D02*
Y381700D01*
X202900*
Y384300*
X206300*
X202900Y382800D02*
X206300D01*
X202900Y384200D02*
X206300D01*
X203600Y381700D02*
Y384300D01*
X205000Y381700D02*
Y384300D01*
X200100D02*
Y381700D01*
X196700*
Y384300*
X200100*
X196700Y382800D02*
X200100D01*
X196700Y384200D02*
X200100D01*
X198000Y381700D02*
Y384300D01*
X199400Y381700D02*
Y384300D01*
X206300Y349800D02*
Y347200D01*
X202900*
Y349800*
X206300*
X202900Y347800D02*
X206300D01*
X202900Y349200D02*
X206300D01*
X203600Y347200D02*
Y349800D01*
X205000Y347200D02*
Y349800D01*
X200100D02*
Y347200D01*
X196700*
Y349800*
X200100*
X196700Y347800D02*
X200100D01*
X196700Y349200D02*
X200100D01*
X198000Y347200D02*
Y349800D01*
X199400Y347200D02*
Y349800D01*
X157200Y329300D02*
X159800D01*
Y325900*
X157200*
Y329300*
Y326800D02*
X159800D01*
X157200Y328200D02*
X159800D01*
X157400Y325900D02*
Y329300D01*
X158800Y325900D02*
Y329300D01*
X157200Y323100D02*
X159800D01*
Y319700*
X157200*
Y323100*
Y319800D02*
X159800D01*
X157200Y321200D02*
X159800D01*
X157200Y322600D02*
X159800D01*
X157400Y319700D02*
Y323100D01*
X158800Y319700D02*
Y323100D01*
X117300Y349800D02*
Y347200D01*
X113900*
Y349800*
X117300*
X113900Y347800D02*
X117300D01*
X113900Y349200D02*
X117300D01*
X114000Y347200D02*
Y349800D01*
X115400Y347200D02*
Y349800D01*
X116800Y347200D02*
Y349800D01*
X111100D02*
Y347200D01*
X107700*
Y349800*
X111100*
X107700Y347800D02*
X111100D01*
X107700Y349200D02*
X111100D01*
X108400Y347200D02*
Y349800D01*
X109800Y347200D02*
Y349800D01*
X144300Y408200D02*
X141700D01*
Y411600*
X144300*
Y408200*
X141700Y409400D02*
X144300D01*
X141700Y410800D02*
X144300D01*
X142000Y408200D02*
Y411600D01*
X143400Y408200D02*
Y411600D01*
X144300Y414400D02*
X141700D01*
Y417800*
X144300*
Y414400*
X141700Y415000D02*
X144300D01*
X141700Y416400D02*
X144300D01*
X141700Y417800D02*
X144300D01*
X142000Y414400D02*
Y417800D01*
X143400Y414400D02*
Y417800D01*
X179800Y289300D02*
Y286700D01*
X176400*
Y289300*
X179800*
X176400Y287600D02*
X179800D01*
X176400Y289000D02*
X179800D01*
X177000Y286700D02*
Y289300D01*
X178400Y286700D02*
Y289300D01*
X179800Y286700D02*
Y289300D01*
X173600D02*
Y286700D01*
X170200*
Y289300*
X173600*
X170200Y287600D02*
X173600D01*
X170200Y289000D02*
X173600D01*
X171400Y286700D02*
Y289300D01*
X172800Y286700D02*
Y289300D01*
X179800Y304300D02*
Y301700D01*
X176400*
Y304300*
X179800*
X176400Y303000D02*
X179800D01*
X177000Y301700D02*
Y304300D01*
X178400Y301700D02*
Y304300D01*
X179800Y301700D02*
Y304300D01*
X173600D02*
Y301700D01*
X170200*
Y304300*
X173600*
X170200Y303000D02*
X173600D01*
X171400Y301700D02*
Y304300D01*
X172800Y301700D02*
Y304300D01*
X195200Y311700D02*
Y314300D01*
X198600*
Y311700*
X195200*
Y312800D02*
X198600D01*
X195200Y314200D02*
X198600D01*
X195200Y311700D02*
Y314300D01*
X196600Y311700D02*
Y314300D01*
X198000Y311700D02*
Y314300D01*
X201400Y311700D02*
Y314300D01*
X204800*
Y311700*
X201400*
Y312800D02*
X204800D01*
X201400Y314200D02*
X204800D01*
X202200Y311700D02*
Y314300D01*
X203600Y311700D02*
Y314300D01*
X232800Y384300D02*
Y381700D01*
X229400*
Y384300*
X232800*
X229400Y382800D02*
X232800D01*
X229400Y384200D02*
X232800D01*
X230200Y381700D02*
Y384300D01*
X231600Y381700D02*
Y384300D01*
X226600D02*
Y381700D01*
X223200*
Y384300*
X226600*
X223200Y382800D02*
X226600D01*
X223200Y384200D02*
X226600D01*
X223200Y381700D02*
Y384300D01*
X224600Y381700D02*
Y384300D01*
X226000Y381700D02*
Y384300D01*
X251700Y359800D02*
X254300D01*
Y356400*
X251700*
Y359800*
Y357600D02*
X254300D01*
X251700Y359000D02*
X254300D01*
X252600Y356400D02*
Y359800D01*
X254000Y356400D02*
Y359800D01*
X251700Y353600D02*
X254300D01*
Y350200*
X251700*
Y353600*
Y350600D02*
X254300D01*
X251700Y352000D02*
X254300D01*
X251700Y353400D02*
X254300D01*
X252600Y350200D02*
Y353600D01*
X254000Y350200D02*
Y353600D01*
X257700Y328800D02*
X260300D01*
Y325400*
X257700*
Y328800*
Y325400D02*
X260300D01*
X257700Y326800D02*
X260300D01*
X257700Y328200D02*
X260300D01*
X258200Y325400D02*
Y328800D01*
X259600Y325400D02*
Y328800D01*
X257700Y322600D02*
X260300D01*
Y319200*
X257700*
Y322600*
Y319800D02*
X260300D01*
X257700Y321200D02*
X260300D01*
X257700Y322600D02*
X260300D01*
X258200Y319200D02*
Y322600D01*
X259600Y319200D02*
Y322600D01*
X247700Y302800D02*
X250300D01*
Y299400*
X247700*
Y302800*
Y300200D02*
X250300D01*
X247700Y301600D02*
X250300D01*
X248400Y299400D02*
Y302800D01*
X249800Y299400D02*
Y302800D01*
X247700Y296600D02*
X250300D01*
Y293200*
X247700*
Y296600*
Y293200D02*
X250300D01*
X247700Y294600D02*
X250300D01*
X247700Y296000D02*
X250300D01*
X248400Y293200D02*
Y296600D01*
X249800Y293200D02*
Y296600D01*
X168800Y190800D02*
Y188200D01*
X165400*
Y190800*
X168800*
X165400Y188200D02*
X168800D01*
X165400Y189600D02*
X168800D01*
X165800Y188200D02*
Y190800D01*
X167200Y188200D02*
Y190800D01*
X168600Y188200D02*
Y190800D01*
X162600D02*
Y188200D01*
X159200*
Y190800*
X162600*
X159200Y188200D02*
X162600D01*
X159200Y189600D02*
X162600D01*
X160200Y188200D02*
Y190800D01*
X161600Y188200D02*
Y190800D01*
X168800Y205800D02*
Y203200D01*
X165400*
Y205800*
X168800*
X165400Y203600D02*
X168800D01*
X165400Y205000D02*
X168800D01*
X165800Y203200D02*
Y205800D01*
X167200Y203200D02*
Y205800D01*
X168600Y203200D02*
Y205800D01*
X162600D02*
Y203200D01*
X159200*
Y205800*
X162600*
X159200Y203600D02*
X162600D01*
X159200Y205000D02*
X162600D01*
X160200Y203200D02*
Y205800D01*
X161600Y203200D02*
Y205800D01*
X268200Y215700D02*
Y218300D01*
X271600*
Y215700*
X268200*
Y216200D02*
X271600D01*
X268200Y217600D02*
X271600D01*
X269400Y215700D02*
Y218300D01*
X270800Y215700D02*
Y218300D01*
X274400Y215700D02*
Y218300D01*
X277800*
Y215700*
X274400*
Y216200D02*
X277800D01*
X274400Y217600D02*
X277800D01*
X275000Y215700D02*
Y218300D01*
X276400Y215700D02*
Y218300D01*
X277800Y215700D02*
Y218300D01*
X251800Y242300D02*
Y239700D01*
X248400*
Y242300*
X251800*
X248400Y240000D02*
X251800D01*
X248400Y241400D02*
X251800D01*
X248400Y239700D02*
Y242300D01*
X249800Y239700D02*
Y242300D01*
X251200Y239700D02*
Y242300D01*
X245600D02*
Y239700D01*
X242200*
Y242300*
X245600*
X242200Y240000D02*
X245600D01*
X242200Y241400D02*
X245600D01*
X242800Y239700D02*
Y242300D01*
X244200Y239700D02*
Y242300D01*
X245600Y239700D02*
Y242300D01*
X290700Y238800D02*
X293300D01*
Y235400*
X290700*
Y238800*
Y235800D02*
X293300D01*
X290700Y237200D02*
X293300D01*
X290700Y238600D02*
X293300D01*
X291800Y235400D02*
Y238800D01*
X293200Y235400D02*
Y238800D01*
X290700Y232600D02*
X293300D01*
Y229200*
X290700*
Y232600*
Y230200D02*
X293300D01*
X290700Y231600D02*
X293300D01*
X291800Y229200D02*
Y232600D01*
X293200Y229200D02*
Y232600D01*
X221200Y236700D02*
Y239300D01*
X224600*
Y236700*
X221200*
Y237200D02*
X224600D01*
X221200Y238600D02*
X224600D01*
X221800Y236700D02*
Y239300D01*
X223200Y236700D02*
Y239300D01*
X224600Y236700D02*
Y239300D01*
X227400Y236700D02*
Y239300D01*
X230800*
Y236700*
X227400*
Y237200D02*
X230800D01*
X227400Y238600D02*
X230800D01*
X227400Y236700D02*
Y239300D01*
X228800Y236700D02*
Y239300D01*
X230200Y236700D02*
Y239300D01*
X184800Y236300D02*
Y233700D01*
X181400*
Y236300*
X184800*
X181400Y234400D02*
X184800D01*
X181400Y235800D02*
X184800D01*
X182600Y233700D02*
Y236300D01*
X184000Y233700D02*
Y236300D01*
X178600D02*
Y233700D01*
X175200*
Y236300*
X178600*
X175200Y234400D02*
X178600D01*
X175200Y235800D02*
X178600D01*
X175600Y233700D02*
Y236300D01*
X177000Y233700D02*
Y236300D01*
X178400Y233700D02*
Y236300D01*
X184800Y229300D02*
Y226700D01*
X181400*
Y229300*
X184800*
X181400Y227400D02*
X184800D01*
X181400Y228800D02*
X184800D01*
X182600Y226700D02*
Y229300D01*
X184000Y226700D02*
Y229300D01*
X178600D02*
Y226700D01*
X175200*
Y229300*
X178600*
X175200Y227400D02*
X178600D01*
X175200Y228800D02*
X178600D01*
X175600Y226700D02*
Y229300D01*
X177000Y226700D02*
Y229300D01*
X178400Y226700D02*
Y229300D01*
X184800Y222300D02*
Y219700D01*
X181400*
Y222300*
X184800*
X181400Y220400D02*
X184800D01*
X181400Y221800D02*
X184800D01*
X182600Y219700D02*
Y222300D01*
X184000Y219700D02*
Y222300D01*
X178600D02*
Y219700D01*
X175200*
Y222300*
X178600*
X175200Y220400D02*
X178600D01*
X175200Y221800D02*
X178600D01*
X175600Y219700D02*
Y222300D01*
X177000Y219700D02*
Y222300D01*
X178400Y219700D02*
Y222300D01*
X283700Y238800D02*
X286300D01*
Y235400*
X283700*
Y238800*
Y235800D02*
X286300D01*
X283700Y237200D02*
X286300D01*
X283700Y238600D02*
X286300D01*
X284800Y235400D02*
Y238800D01*
X286200Y235400D02*
Y238800D01*
X283700Y232600D02*
X286300D01*
Y229200*
X283700*
Y232600*
Y230200D02*
X286300D01*
X283700Y231600D02*
X286300D01*
X284800Y229200D02*
Y232600D01*
X286200Y229200D02*
Y232600D01*
X279300Y229200D02*
X276700D01*
Y232600*
X279300*
Y229200*
X276700Y230200D02*
X279300D01*
X276700Y231600D02*
X279300D01*
X277800Y229200D02*
Y232600D01*
X279200Y229200D02*
Y232600D01*
X279300Y235400D02*
X276700D01*
Y238800*
X279300*
Y235400*
X276700Y235800D02*
X279300D01*
X276700Y237200D02*
X279300D01*
X276700Y238600D02*
X279300D01*
X277800Y235400D02*
Y238800D01*
X279200Y235400D02*
Y238800D01*
X247200Y201700D02*
Y204300D01*
X250600*
Y201700*
X247200*
Y202200D02*
X250600D01*
X247200Y203600D02*
X250600D01*
X248400Y201700D02*
Y204300D01*
X249800Y201700D02*
Y204300D01*
X253400Y201700D02*
Y204300D01*
X256800*
Y201700*
X253400*
Y202200D02*
X256800D01*
X253400Y203600D02*
X256800D01*
X254000Y201700D02*
Y204300D01*
X255400Y201700D02*
Y204300D01*
X256800Y201700D02*
Y204300D01*
X264800Y167300D02*
Y164700D01*
X261400*
Y167300*
X264800*
X261400Y165800D02*
X264800D01*
X261400Y167200D02*
X264800D01*
X262400Y164700D02*
Y167300D01*
X263800Y164700D02*
Y167300D01*
X258600D02*
Y164700D01*
X255200*
Y167300*
X258600*
X255200Y165800D02*
X258600D01*
X255200Y167200D02*
X258600D01*
X255400Y164700D02*
Y167300D01*
X256800Y164700D02*
Y167300D01*
X258200Y164700D02*
Y167300D01*
X254800Y160300D02*
Y157700D01*
X251400*
Y160300*
X254800*
X251400Y158800D02*
X254800D01*
X251400Y160200D02*
X254800D01*
X252600Y157700D02*
Y160300D01*
X254000Y157700D02*
Y160300D01*
X248600D02*
Y157700D01*
X245200*
Y160300*
X248600*
X245200Y158800D02*
X248600D01*
X245200Y160200D02*
X248600D01*
X245600Y157700D02*
Y160300D01*
X247000Y157700D02*
Y160300D01*
X248400Y157700D02*
Y160300D01*
X292700Y151800D02*
X295300D01*
Y148400*
X292700*
Y151800*
Y149000D02*
X295300D01*
X292700Y150400D02*
X295300D01*
X292700Y151800D02*
X295300D01*
X293200Y148400D02*
Y151800D01*
X294600Y148400D02*
Y151800D01*
X292700Y145600D02*
X295300D01*
Y142200*
X292700*
Y145600*
Y143400D02*
X295300D01*
X292700Y144800D02*
X295300D01*
X293200Y142200D02*
Y145600D01*
X294600Y142200D02*
Y145600D01*
X167200Y240700D02*
Y243300D01*
X170600*
Y240700*
X167200*
Y241400D02*
X170600D01*
X167200Y242800D02*
X170600D01*
X167200Y240700D02*
Y243300D01*
X168600Y240700D02*
Y243300D01*
X170000Y240700D02*
Y243300D01*
X173400Y240700D02*
Y243300D01*
X176800*
Y240700*
X173400*
Y241400D02*
X176800D01*
X173400Y242800D02*
X176800D01*
X174200Y240700D02*
Y243300D01*
X175600Y240700D02*
Y243300D01*
X252700Y151800D02*
X255300D01*
Y148400*
X252700*
Y151800*
Y149000D02*
X255300D01*
X252700Y150400D02*
X255300D01*
X252700Y151800D02*
X255300D01*
X254000Y148400D02*
Y151800D01*
X252700Y145600D02*
X255300D01*
Y142200*
X252700*
Y145600*
Y143400D02*
X255300D01*
X252700Y144800D02*
X255300D01*
X254000Y142200D02*
Y145600D01*
X135200Y206700D02*
Y209300D01*
X138600*
Y206700*
X135200*
Y207800D02*
X138600D01*
X135200Y209200D02*
X138600D01*
X136400Y206700D02*
Y209300D01*
X137800Y206700D02*
Y209300D01*
X141400Y206700D02*
Y209300D01*
X144800*
Y206700*
X141400*
Y207800D02*
X144800D01*
X141400Y209200D02*
X144800D01*
X142000Y206700D02*
Y209300D01*
X143400Y206700D02*
Y209300D01*
X144800Y206700D02*
Y209300D01*
X114200Y222700D02*
Y225300D01*
X117600*
Y222700*
X114200*
Y223200D02*
X117600D01*
X114200Y224600D02*
X117600D01*
X115400Y222700D02*
Y225300D01*
X116800Y222700D02*
Y225300D01*
X120400Y222700D02*
Y225300D01*
X123800*
Y222700*
X120400*
Y223200D02*
X123800D01*
X120400Y224600D02*
X123800D01*
X121000Y222700D02*
Y225300D01*
X122400Y222700D02*
Y225300D01*
X123800Y222700D02*
Y225300D01*
X135200Y214200D02*
Y216800D01*
X138600*
Y214200*
X135200*
Y214800D02*
X138600D01*
X135200Y216200D02*
X138600D01*
X136400Y214200D02*
Y216800D01*
X137800Y214200D02*
Y216800D01*
X141400Y214200D02*
Y216800D01*
X144800*
Y214200*
X141400*
Y214800D02*
X144800D01*
X141400Y216200D02*
X144800D01*
X142000Y214200D02*
Y216800D01*
X143400Y214200D02*
Y216800D01*
X144800Y214200D02*
Y216800D01*
X143800Y222200D02*
X141200D01*
Y225600*
X143800*
Y222200*
X141200Y223200D02*
X143800D01*
X141200Y224600D02*
X143800D01*
X142000Y222200D02*
Y225600D01*
X143400Y222200D02*
Y225600D01*
X143800Y228400D02*
X141200D01*
Y231800*
X143800*
Y228400*
X141200Y228800D02*
X143800D01*
X141200Y230200D02*
X143800D01*
X141200Y231600D02*
X143800D01*
X142000Y228400D02*
Y231800D01*
X143400Y228400D02*
Y231800D01*
X150800Y202300D02*
Y199700D01*
X147400*
Y202300*
X150800*
X147400Y200800D02*
X150800D01*
X147400Y202200D02*
X150800D01*
X147600Y199700D02*
Y202300D01*
X149000Y199700D02*
Y202300D01*
X150400Y199700D02*
Y202300D01*
X144600D02*
Y199700D01*
X141200*
Y202300*
X144600*
X141200Y200800D02*
X144600D01*
X141200Y202200D02*
X144600D01*
X142000Y199700D02*
Y202300D01*
X143400Y199700D02*
Y202300D01*
X119800Y399300D02*
Y396700D01*
X116400*
Y399300*
X119800*
X116400Y396800D02*
X119800D01*
X116400Y398200D02*
X119800D01*
X116800Y396700D02*
Y399300D01*
X118200Y396700D02*
Y399300D01*
X119600Y396700D02*
Y399300D01*
X113600D02*
Y396700D01*
X110200*
Y399300*
X113600*
X110200Y396800D02*
X113600D01*
X110200Y398200D02*
X113600D01*
X111200Y396700D02*
Y399300D01*
X112600Y396700D02*
Y399300D01*
X253200Y208700D02*
Y211300D01*
X256600*
Y208700*
X253200*
Y209200D02*
X256600D01*
X253200Y210600D02*
X256600D01*
X254000Y208700D02*
Y211300D01*
X255400Y208700D02*
Y211300D01*
X259400Y208700D02*
Y211300D01*
X262800*
Y208700*
X259400*
Y209200D02*
X262800D01*
X259400Y210600D02*
X262800D01*
X259600Y208700D02*
Y211300D01*
X261000Y208700D02*
Y211300D01*
X262400Y208700D02*
Y211300D01*
X248800D02*
Y208700D01*
X245400*
Y211300*
X248800*
X245400Y209200D02*
X248800D01*
X245400Y210600D02*
X248800D01*
X245600Y208700D02*
Y211300D01*
X247000Y208700D02*
Y211300D01*
X248400Y208700D02*
Y211300D01*
X242600D02*
Y208700D01*
X239200*
Y211300*
X242600*
X239200Y209200D02*
X242600D01*
X239200Y210600D02*
X242600D01*
X240000Y208700D02*
Y211300D01*
X241400Y208700D02*
Y211300D01*
X119800Y406300D02*
Y403700D01*
X116400*
Y406300*
X119800*
X116400Y403800D02*
X119800D01*
X116400Y405200D02*
X119800D01*
X116800Y403700D02*
Y406300D01*
X118200Y403700D02*
Y406300D01*
X119600Y403700D02*
Y406300D01*
X113600D02*
Y403700D01*
X110200*
Y406300*
X113600*
X110200Y403800D02*
X113600D01*
X110200Y405200D02*
X113600D01*
X111200Y403700D02*
Y406300D01*
X112600Y403700D02*
Y406300D01*
X119800Y413300D02*
Y410700D01*
X116400*
Y413300*
X119800*
X116400Y410800D02*
X119800D01*
X116400Y412200D02*
X119800D01*
X116800Y410700D02*
Y413300D01*
X118200Y410700D02*
Y413300D01*
X119600Y410700D02*
Y413300D01*
X113600D02*
Y410700D01*
X110200*
Y413300*
X113600*
X110200Y410800D02*
X113600D01*
X110200Y412200D02*
X113600D01*
X111200Y410700D02*
Y413300D01*
X112600Y410700D02*
Y413300D01*
G54D20*
X148400Y275650D02*
Y280850D01*
X153600*
Y275650*
X148400*
Y276400D02*
X153600D01*
X148400Y278200D02*
X153600D01*
X148400Y280000D02*
X153600D01*
X148600Y275650D02*
Y280850D01*
X150400Y275650D02*
Y280850D01*
X152200Y275650D02*
Y280850D01*
X148400Y289150D02*
Y294350D01*
X153600*
Y289150*
X148400*
Y290800D02*
X153600D01*
X148400Y292600D02*
X153600D01*
X148600Y289150D02*
Y294350D01*
X150400Y289150D02*
Y294350D01*
X152200Y289150D02*
Y294350D01*
X185150Y308400D02*
Y313600D01*
X190350*
Y308400*
X185150*
Y308800D02*
X190350D01*
X185150Y310600D02*
X190350D01*
X185150Y312400D02*
X190350D01*
X186400Y308400D02*
Y313600D01*
X188200Y308400D02*
Y313600D01*
X190000Y308400D02*
Y313600D01*
X171650Y308400D02*
Y313600D01*
X176850*
Y308400*
X171650*
Y308800D02*
X176850D01*
X171650Y310600D02*
X176850D01*
X171650Y312400D02*
X176850D01*
X172000Y308400D02*
Y313600D01*
X173800Y308400D02*
Y313600D01*
X175600Y308400D02*
Y313600D01*
X174650Y210400D02*
Y215600D01*
X179850*
Y210400*
X174650*
Y211600D02*
X179850D01*
X174650Y213400D02*
X179850D01*
X174650Y215200D02*
X179850D01*
X175600Y210400D02*
Y215600D01*
X177400Y210400D02*
Y215600D01*
X179200Y210400D02*
Y215600D01*
X188150Y210400D02*
Y215600D01*
X193350*
Y210400*
X188150*
Y211600D02*
X193350D01*
X188150Y213400D02*
X193350D01*
X188150Y215200D02*
X193350D01*
X188200Y210400D02*
Y215600D01*
X190000Y210400D02*
Y215600D01*
X191800Y210400D02*
Y215600D01*
G54D21*
X110000Y260000D03*
X117874D03*
X125748D03*
X133622D03*
X141496D03*
X268000Y123000D03*
X275874D03*
X283748D03*
X265157Y188000D03*
X284843D03*
G54D22*
X131000Y308000D03*
X126000Y318000D03*
X121000Y308000D03*
X136000Y318000D03*
X278000Y370000D03*
X253000Y403000D03*
X278000Y380000D03*
Y390000D03*
X232000Y345000D03*
X242000D03*
X216000Y321000D03*
X240000Y297000D03*
X128000Y144000D03*
X118000D03*
X148000Y191000D03*
X293000Y167000D03*
X264000Y262000D03*
X107000Y379000D03*
Y369000D03*
Y359000D03*
Y389000D03*
G54D23*
X218250Y432250D02*
Y437750D01*
X223750*
Y432250*
X218250*
Y434000D02*
X223750D01*
X218250Y436000D02*
X223750D01*
X220000Y432250D02*
Y437750D01*
X222000Y432250D02*
Y437750D01*
X129957Y222750D02*
X128957D01*
Y225250*
X129957*
Y222750*
X128957Y224000D02*
X129957D01*
X137043Y222750D02*
X136043D01*
Y225250*
X137043*
Y222750*
X136043Y224000D02*
X137043D01*
X133500Y230624D02*
X132500D01*
Y233124*
X133500*
Y230624*
X132500Y232000D02*
X133500D01*
G54D24*
X221000Y425157D03*
X211157Y435000D03*
Y425157D03*
X200921Y435000D03*
Y425157D03*
G54D25*
X184800Y318800D02*
Y323200D01*
X190200*
Y318800*
X184800*
Y319200D02*
X190200D01*
X184800Y320800D02*
X190200D01*
X184800Y322400D02*
X190200D01*
X184800Y318800D02*
Y323200D01*
X186400Y318800D02*
Y323200D01*
X188000Y318800D02*
Y323200D01*
X189600Y318800D02*
Y323200D01*
X193800Y318800D02*
Y323200D01*
X199200*
Y318800*
X193800*
Y319200D02*
X199200D01*
X193800Y320800D02*
X199200D01*
X193800Y322400D02*
X199200D01*
X194400Y318800D02*
Y323200D01*
X196000Y318800D02*
Y323200D01*
X197600Y318800D02*
Y323200D01*
X199200Y318800D02*
Y323200D01*
X195800Y222800D02*
Y227200D01*
X201200*
Y222800*
X195800*
Y223200D02*
X201200D01*
X195800Y224800D02*
X201200D01*
X195800Y226400D02*
X201200D01*
X196000Y222800D02*
Y227200D01*
X197600Y222800D02*
Y227200D01*
X199200Y222800D02*
Y227200D01*
X200800Y222800D02*
Y227200D01*
X204800Y222800D02*
Y227200D01*
X210200*
Y222800*
X204800*
Y223200D02*
X210200D01*
X204800Y224800D02*
X210200D01*
X204800Y226400D02*
X210200D01*
X205600Y222800D02*
Y227200D01*
X207200Y222800D02*
Y227200D01*
X208800Y222800D02*
Y227200D01*
X226200Y245800D02*
X221800D01*
Y251200*
X226200*
Y245800*
X221800Y247200D02*
X226200D01*
X221800Y248800D02*
X226200D01*
X221800Y250400D02*
X226200D01*
X223200Y245800D02*
Y251200D01*
X224800Y245800D02*
Y251200D01*
X226200Y254800D02*
X221800D01*
Y260200*
X226200*
Y254800*
X221800Y255200D02*
X226200D01*
X221800Y256800D02*
X226200D01*
X221800Y258400D02*
X226200D01*
X221800Y260000D02*
X226200D01*
X223200Y254800D02*
Y260200D01*
X224800Y254800D02*
Y260200D01*
X195800Y256800D02*
Y261200D01*
X201200*
Y256800*
X195800*
X201200*
X195800Y258400D02*
X201200D01*
X195800Y260000D02*
X201200D01*
X196000Y256800D02*
Y261200D01*
X197600Y256800D02*
Y261200D01*
X199200Y256800D02*
Y261200D01*
X200800Y256800D02*
Y261200D01*
X204800Y256800D02*
Y261200D01*
X210200*
Y256800*
X204800*
X210200*
X204800Y258400D02*
X210200D01*
X204800Y260000D02*
X210200D01*
X205600Y256800D02*
Y261200D01*
X207200Y256800D02*
Y261200D01*
X208800Y256800D02*
Y261200D01*
X180800Y255200D02*
X185200D01*
Y249800*
X180800*
Y255200*
Y250400D02*
X185200D01*
X180800Y252000D02*
X185200D01*
X180800Y253600D02*
X185200D01*
X180800Y255200D02*
X185200D01*
X181600Y249800D02*
Y255200D01*
X183200Y249800D02*
Y255200D01*
X184800Y249800D02*
Y255200D01*
X180800Y246200D02*
X185200D01*
Y240800*
X180800*
Y246200*
Y240800D02*
X185200D01*
X180800Y242400D02*
X185200D01*
X180800Y244000D02*
X185200D01*
X180800Y245600D02*
X185200D01*
X181600Y240800D02*
Y246200D01*
X183200Y240800D02*
Y246200D01*
X184800Y240800D02*
Y246200D01*
X171200Y219800D02*
X166800D01*
Y225200*
X171200*
Y219800*
X166800Y220000D02*
X171200D01*
X166800Y221600D02*
X171200D01*
X166800Y223200D02*
X171200D01*
X166800Y224800D02*
X171200D01*
X167200Y219800D02*
Y225200D01*
X168800Y219800D02*
Y225200D01*
X170400Y219800D02*
Y225200D01*
X171200Y228800D02*
X166800D01*
Y234200*
X171200*
Y228800*
X166800Y229600D02*
X171200D01*
X166800Y231200D02*
X171200D01*
X166800Y232800D02*
X171200D01*
X167200Y228800D02*
Y234200D01*
X168800Y228800D02*
Y234200D01*
X170400Y228800D02*
Y234200D01*
X109800Y435800D02*
Y440200D01*
X115200*
Y435800*
X109800*
Y436000D02*
X115200D01*
X109800Y437600D02*
X115200D01*
X109800Y439200D02*
X115200D01*
X111200Y435800D02*
Y440200D01*
X112800Y435800D02*
Y440200D01*
X114400Y435800D02*
Y440200D01*
X118800Y435800D02*
Y440200D01*
X124200*
Y435800*
X118800*
Y436000D02*
X124200D01*
X118800Y437600D02*
X124200D01*
X118800Y439200D02*
X124200D01*
X119200Y435800D02*
Y440200D01*
X120800Y435800D02*
Y440200D01*
X122400Y435800D02*
Y440200D01*
X124000Y435800D02*
Y440200D01*
X109800Y426800D02*
Y431200D01*
X115200*
Y426800*
X109800*
Y428000D02*
X115200D01*
X109800Y429600D02*
X115200D01*
X109800Y431200D02*
X115200D01*
X111200Y426800D02*
Y431200D01*
X112800Y426800D02*
Y431200D01*
X114400Y426800D02*
Y431200D01*
X118800Y426800D02*
Y431200D01*
X124200*
Y426800*
X118800*
Y428000D02*
X124200D01*
X118800Y429600D02*
X124200D01*
X118800Y431200D02*
X124200D01*
X119200Y426800D02*
Y431200D01*
X120800Y426800D02*
Y431200D01*
X122400Y426800D02*
Y431200D01*
X124000Y426800D02*
Y431200D01*
X109800Y417800D02*
Y422200D01*
X115200*
Y417800*
X109800*
Y418400D02*
X115200D01*
X109800Y420000D02*
X115200D01*
X109800Y421600D02*
X115200D01*
X111200Y417800D02*
Y422200D01*
X112800Y417800D02*
Y422200D01*
X114400Y417800D02*
Y422200D01*
X118800Y417800D02*
Y422200D01*
X124200*
Y417800*
X118800*
Y418400D02*
X124200D01*
X118800Y420000D02*
X124200D01*
X118800Y421600D02*
X124200D01*
X119200Y417800D02*
Y422200D01*
X120800Y417800D02*
Y422200D01*
X122400Y417800D02*
Y422200D01*
X124000Y417800D02*
Y422200D01*
G54D26*
X189000Y121000D03*
G54D27*
X199000Y131000D03*
Y111000D03*
X179000D03*
Y131000D03*
G54D28*
X273079Y278126D03*
X282921D03*
G54D29*
X166000Y144079D03*
Y153921D03*
X238000Y182079D03*
Y191921D03*
X200000Y158921D03*
Y149079D03*
G54D30*
X238000Y143000D03*
X221500D03*
X238000Y164700D03*
X221500D03*
G54D31*
X229700Y114300D03*
G54D32*
X291827Y248472D03*
Y257528D03*
G54D33*
X270173Y253000D03*
G54D34*
X109157Y191000D03*
X119000D03*
X128843D03*
X280858Y441795D03*
Y416205D03*
X263142Y441795D03*
Y416205D03*
G54D35*
X125504Y392622D03*
Y389472D03*
Y386323D03*
Y383173D03*
Y380024D03*
Y376874D03*
Y373724D03*
Y370575D03*
Y367425D03*
Y364276D03*
Y361126D03*
Y357976D03*
Y354827D03*
Y351677D03*
Y348528D03*
Y345378D03*
X188496D03*
Y348528D03*
Y351677D03*
Y354827D03*
Y357976D03*
Y361126D03*
Y364276D03*
Y367425D03*
Y370575D03*
Y373724D03*
Y376874D03*
Y380024D03*
Y383173D03*
Y386323D03*
Y389472D03*
Y392622D03*
G54D36*
X133378Y337504D03*
X136528D03*
X139677D03*
X142827D03*
X145976D03*
X149126D03*
X152276D03*
X155425D03*
X158575D03*
X161724D03*
X164874D03*
X168024D03*
X171173D03*
X174323D03*
X177472D03*
X180622D03*
Y400496D03*
X177472D03*
X174323D03*
X171173D03*
X168024D03*
X164874D03*
X161724D03*
X158575D03*
X155425D03*
X152276D03*
X149126D03*
X145976D03*
X142827D03*
X139677D03*
X136528D03*
X133378D03*
G54D37*
X140409Y299614D02*
X141591D01*
Y295795*
X140409*
Y299614*
Y296614D02*
X141591D01*
X140409Y298402D02*
X141591D01*
X141110Y295795D02*
Y299614D01*
X135409D02*
X136591D01*
Y295795*
X135409*
Y299614*
Y296614D02*
X136591D01*
X135409Y298402D02*
X136591D01*
X135748Y295795D02*
Y299614D01*
X130409D02*
X131591D01*
Y295795*
X130409*
Y299614*
Y296614D02*
X131591D01*
X130409Y298402D02*
X131591D01*
X125409Y299614D02*
X126591D01*
Y295795*
X125409*
Y299614*
Y296614D02*
X126591D01*
X125409Y298402D02*
X126591D01*
X120409Y299614D02*
X121591D01*
Y295795*
X120409*
Y299614*
Y296614D02*
X121591D01*
X120409Y298402D02*
X121591D01*
X121449Y295795D02*
Y299614D01*
X115409D02*
X116591D01*
Y295795*
X115409*
Y299614*
Y296614D02*
X116591D01*
X115409Y298402D02*
X116591D01*
X116087Y295795D02*
Y299614D01*
X110409D02*
X111591D01*
Y295795*
X110409*
Y299614*
Y296614D02*
X111591D01*
X110409Y298402D02*
X111591D01*
X110724Y295795D02*
Y299614D01*
X110409Y280205D02*
X111591D01*
Y276386*
X110409*
Y280205*
Y276953D02*
X111591D01*
X110409Y278740D02*
X111591D01*
X110724Y276386D02*
Y280205D01*
X115409D02*
X116591D01*
Y276386*
X115409*
Y280205*
Y276953D02*
X116591D01*
X115409Y278740D02*
X116591D01*
X116087Y276386D02*
Y280205D01*
X120409D02*
X121591D01*
Y276386*
X120409*
Y280205*
Y276953D02*
X121591D01*
X120409Y278740D02*
X121591D01*
X121449Y276386D02*
Y280205D01*
X125409D02*
X126591D01*
Y276386*
X125409*
Y280205*
Y276953D02*
X126591D01*
X125409Y278740D02*
X126591D01*
X130409Y280205D02*
X131591D01*
Y276386*
X130409*
Y280205*
Y276953D02*
X131591D01*
X130409Y278740D02*
X131591D01*
X135409Y280205D02*
X136591D01*
Y276386*
X135409*
Y280205*
Y276953D02*
X136591D01*
X135409Y278740D02*
X136591D01*
X135748Y276386D02*
Y280205D01*
X140409D02*
X141591D01*
Y276386*
X140409*
Y280205*
Y276953D02*
X141591D01*
X140409Y278740D02*
X141591D01*
X141110Y276386D02*
Y280205D01*
G54D38*
X285024Y144500D03*
Y149500D03*
Y154500D03*
Y159500D03*
X262976D03*
Y154500D03*
Y149500D03*
Y144500D03*
G54D39*
X244142Y382839D03*
Y380280D03*
Y377720D03*
Y375161D03*
X261858D03*
Y377720D03*
Y380280D03*
Y382839D03*
G54D40*
X253000Y371126D03*
Y386874D03*
G54D41*
X235000Y312870D03*
X240000D03*
X245000D03*
Y329130D03*
X240000D03*
X235000D03*
G54D42*
X247756Y321000D03*
X233504D03*
G54D43*
X121252Y130740D03*
X125189D03*
X129126D03*
X133063D03*
X137000D03*
X140937D03*
X144874D03*
X148811D03*
X152748D03*
G54D44*
X192764Y250750D03*
Y248250D03*
Y245750D03*
Y243250D03*
Y240750D03*
Y238250D03*
Y235750D03*
Y233250D03*
X213236D03*
Y235750D03*
Y238250D03*
Y240750D03*
Y243250D03*
Y245750D03*
Y248250D03*
Y250750D03*
G54D45*
X115996Y215740D03*
Y212000D03*
Y208260D03*
X128004D03*
Y215740D03*
G54D46*
X263839Y244370D02*
X263839D01*
Y237677*
X263839*
Y244370*
Y239591D02*
X263839D01*
Y241772D02*
X263839D01*
Y243953D02*
X263839D01*
X261280Y244370D02*
X261280D01*
Y237677*
X261280*
Y244370*
Y239591D02*
X261280D01*
Y241772D02*
X261280D01*
Y243953D02*
X261280D01*
X258720Y244370D02*
X258720D01*
Y237677*
X258720*
Y244370*
Y239591D02*
X258720D01*
Y241772D02*
X258720D01*
Y243953D02*
X258720D01*
X256161Y244370D02*
X256161D01*
Y237677*
X256161*
Y244370*
Y239591D02*
X256161D01*
Y241772D02*
X256161D01*
Y243953D02*
X256161D01*
Y222323D02*
X256161D01*
Y215630*
X256161*
Y222323*
Y217780D02*
X256161D01*
Y219961D02*
X256161D01*
Y222142D02*
X256161D01*
X258720Y222323D02*
X258720D01*
Y215630*
X258720*
Y222323*
Y217780D02*
X258720D01*
Y219961D02*
X258720D01*
Y222142D02*
X258720D01*
X261280Y222323D02*
X261280D01*
Y215630*
X261280*
Y222323*
Y217780D02*
X261280D01*
Y219961D02*
X261280D01*
Y222142D02*
X261280D01*
X263839Y222323D02*
X263839D01*
Y215630*
X263839*
Y222323*
Y217780D02*
X263839D01*
Y219961D02*
X263839D01*
Y222142D02*
X263839D01*
X0Y0D02*
M02*
