*
*
G04 PADS 9.3.1 Build Number: 456998 generated Gerber (RS-274-X) file*
G04 PC Version=2.1*
*
%IN "tripod.pcb"*%
*
%MOIN*%
*
%FSLAX35Y35*%
*
*
*
*
G04 PC Standard Apertures*
*
*
G04 Thermal Relief Aperture macro.*
%AMTER*
1,1,$1,0,0*
1,0,$1-$2,0,0*
21,0,$3,$4,0,0,45*
21,0,$3,$4,0,0,135*
%
*
*
G04 Annular Aperture macro.*
%AMANN*
1,1,$1,0,0*
1,0,$2,0,0*
%
*
*
G04 Odd Aperture macro.*
%AMODD*
1,1,$1,0,0*
1,0,$1-0.005,0,0*
%
*
*
G04 PC Custom Aperture Macros*
*
*
*
*
*
*
G04 PC Aperture Table*
*
%ADD010C,0.001*%
%ADD011C,0.00787*%
%ADD013C,0.005*%
*
*
*
*
G04 PC Circuitry*
G04 Layer Name tripod.pcb - circuitry*
%LPD*%
*
*
G04 PC Custom Flashes*
G04 Layer Name tripod.pcb - flashes*
%LPD*%
*
*
G04 PC Circuitry*
G04 Layer Name tripod.pcb - circuitry*
%LPD*%
*
G54D10*
G54D11*
G01X108504Y247961D02*
X111535D01*
X119496Y248039D02*
X116465D01*
X108961Y309496D02*
Y306465D01*
X148039Y316504D02*
Y319535D01*
X143039Y306504D02*
Y309535D01*
X113961Y319496D02*
Y316465D01*
X233039Y409504D02*
Y412535D01*
Y416504D02*
Y419535D01*
X189039Y440504D02*
Y443535D01*
X232961Y436496D02*
Y433465D01*
X233039Y423504D02*
Y426535D01*
Y440504D02*
Y443535D01*
X188961Y436496D02*
Y433465D01*
X265961Y371496D02*
Y368465D01*
X251504Y390961D02*
X254535D01*
X265961Y381496D02*
Y378465D01*
Y391496D02*
Y388465D01*
X243496Y333039D02*
X240465D01*
X233496D02*
X230465D01*
X223504Y332961D02*
X226535D01*
X247504D02*
X250535D01*
X241496Y309039D02*
X238465D01*
X228039Y319504D02*
Y322535D01*
X116504Y131961D02*
X119535D01*
X126504D02*
X129535D01*
X262039Y276504D02*
Y279535D01*
X274496Y267039D02*
X271465D01*
X262039Y269504D02*
Y272535D01*
X268039Y195504D02*
Y198535D01*
X266504Y110961D02*
X269535D01*
X274504D02*
X277535D01*
X281961Y198496D02*
Y195465D01*
X190496Y110039D02*
X187465D01*
X127504Y203461D02*
X130535D01*
X120504D02*
X123535D01*
X281961Y205496D02*
Y202465D01*
G54D13*
X113773Y241281D02*
Y238000D01*
Y241281D02*
X112750D01*
X112409Y241125*
X112295Y240969*
X112182Y240656*
Y240344*
X112295Y240031*
X112409Y239875*
X112750Y239719*
X113773*
X112977D02*
X112182Y238000D01*
X111045Y240500D02*
Y240656D01*
X110932Y240969*
X110818Y241125*
X110591Y241281*
X110136*
X109909Y241125*
X109795Y240969*
X109682Y240656*
Y240344*
X109795Y240031*
X110023Y239563*
X111159Y238000*
X109568*
X107977Y241281D02*
X108318Y241125D01*
X108432Y240813*
Y240500*
X108318Y240188*
X108091Y240031*
X107636Y239875*
X107295Y239719*
X107068Y239406*
X106955Y239094*
Y238625*
X107068Y238313*
X107182Y238156*
X107523Y238000*
X107977*
X108318Y238156*
X108432Y238313*
X108545Y238625*
Y239094*
X108432Y239406*
X108205Y239719*
X107864Y239875*
X107409Y240031*
X107182Y240188*
X107068Y240500*
Y240813*
X107182Y241125*
X107523Y241281*
X107977*
X125773Y249500D02*
X125886Y249813D01*
X125886D02*
X126114Y250125D01*
X126341Y250281*
X126795*
X127023Y250125*
X127250Y249813*
X127250D02*
X127364Y249500D01*
X127477Y249031*
Y248250*
X127364Y247781*
X127250Y247469*
X127023Y247156*
X126795Y247000*
X126341*
X126114Y247156*
X125886Y247469*
X125773Y247781*
X123273Y250281D02*
X124409D01*
X124523Y248875*
X124409Y249031*
X124068Y249188*
X124068D02*
X123727D01*
X123727D02*
X123386Y249031D01*
X123159Y248719*
X123045Y248250*
X123159Y247938*
X123159D02*
X123273Y247469D01*
X123500Y247156*
X123841Y247000*
X124182*
X124523Y247156*
X124636Y247313*
X124636D02*
X124750Y247625D01*
X122023Y249656D02*
X121795Y249813D01*
X121795D02*
X121455Y250281D01*
Y247000*
X110750Y305781D02*
Y302500D01*
Y305781D02*
X109955D01*
X109614Y305625*
X109386Y305313*
X109386D02*
X109273Y305000D01*
X109159Y304531*
Y303750*
X109273Y303281*
X109386Y302969*
X109614Y302656*
X109955Y302500*
X110750*
X108136Y305156D02*
X107909Y305313D01*
X107909D02*
X107568Y305781D01*
Y302500*
X105977Y305781D02*
X106318Y305625D01*
X106432Y305313*
X106432D02*
Y305000D01*
X106318Y304688*
X106318D02*
X106091Y304531D01*
X105636Y304375*
X105295Y304219*
X105068Y303906*
X104955Y303594*
Y303125*
X105068Y302813*
X105068D02*
X105182Y302656D01*
X105523Y302500*
X105977*
X106318Y302656*
X106432Y302813*
X106432D02*
X106545Y303125D01*
Y303594*
X106432Y303906*
X106205Y304219*
X105864Y304375*
X105409Y304531*
X105182Y304688*
X105182D02*
X105068Y305000D01*
Y305313*
X105068D02*
X105182Y305625D01*
X105523Y305781*
X105977*
X153773Y315781D02*
Y312500D01*
Y315781D02*
X152977D01*
X152636Y315625*
X152409Y315313*
X152295Y315000*
X152182Y314531*
Y313750*
X152295Y313281*
X152409Y312969*
X152636Y312656*
X152977Y312500*
X153773*
X151045Y315000D02*
Y315156D01*
X150932Y315469*
X150818Y315625*
X150591Y315781*
X150136*
X149909Y315625*
X149795Y315469*
X149682Y315156*
Y314844*
X149795Y314531*
X150023Y314063*
X151159Y312500*
X149568*
X147864Y315781D02*
X148205Y315625D01*
X148432Y315156*
X148545Y314375*
Y313906*
X148432Y313125*
X148205Y312656*
X147864Y312500*
X147636*
X147295Y312656*
X147068Y313125*
X146955Y313906*
Y314375*
X147068Y315156*
X147295Y315625*
X147636Y315781*
X147864*
X148250Y305281D02*
Y302000D01*
Y305281D02*
X147455D01*
X147114Y305125*
X146886Y304813*
X146886D02*
X146773Y304500D01*
X146659Y304031*
Y303250*
X146773Y302781*
X146886Y302469*
X147114Y302156*
X147455Y302000*
X148250*
X145523Y304500D02*
Y304656D01*
X145409Y304969*
X145295Y305125*
X145068Y305281*
X144614*
X144386Y305125*
X144273Y304969*
X144159Y304656*
Y304344*
X144273Y304031*
X144500Y303563*
X144500D02*
X145636Y302000D01*
X144045*
X143023Y304656D02*
X142795Y304813D01*
X142795D02*
X142455Y305281D01*
Y302000*
X116273Y315281D02*
Y312000D01*
Y315281D02*
X115477D01*
X115136Y315125*
X114909Y314813*
X114909D02*
X114795Y314500D01*
X114682Y314031*
Y313250*
X114795Y312781*
X114909Y312469*
X115136Y312156*
X115477Y312000*
X116273*
X113545Y314500D02*
Y314656D01*
X113432Y314969*
X113318Y315125*
X113091Y315281*
X112636*
X112409Y315125*
X112295Y314969*
X112182Y314656*
Y314344*
X112295Y314031*
X112523Y313563*
X112523D02*
X113659Y312000D01*
X112068*
X110932Y314500D02*
Y314656D01*
X110818Y314969*
X110705Y315125*
X110477Y315281*
X110023*
X109795Y315125*
X109682Y314969*
X109568Y314656*
Y314344*
X109682Y314031*
X109909Y313563*
X109909D02*
X111045Y312000D01*
X109455*
X247727Y412781D02*
Y409500D01*
Y412781D02*
X246705D01*
X246364Y412625*
X246250Y412469*
X246136Y412156*
Y411844*
X246250Y411531*
X246364Y411375*
X246705Y411219*
X247727*
X246932D02*
X246136Y409500D01*
X245114Y412156D02*
X244886Y412313D01*
X244886D02*
X244545Y412781D01*
Y409500*
X243523Y412156D02*
X243295Y412313D01*
X243295D02*
X242955Y412781D01*
Y409500*
X240455Y411688D02*
X240568Y411219D01*
X240795Y410906*
X241136Y410750*
X241250*
X241591Y410906*
X241818Y411219*
X241932Y411688*
X241932D02*
Y411844D01*
X241818Y412313*
X241818D02*
X241591Y412625D01*
X241250Y412781*
X241136*
X240795Y412625*
X240568Y412313*
X240568D02*
X240455Y411688D01*
X240455D02*
Y410906D01*
X240568Y410125*
X240795Y409656*
X241136Y409500*
X241364*
X241705Y409656*
X241818Y409969*
X246136Y419000D02*
X246250Y419313D01*
X246250D02*
X246477Y419625D01*
X246705Y419781*
X247159*
X247386Y419625*
X247614Y419313*
X247614D02*
X247727Y419000D01*
X247841Y418531*
Y417750*
X247727Y417281*
X247614Y416969*
X247386Y416656*
X247159Y416500*
X246705*
X246477Y416656*
X246250Y416969*
X246136Y417281*
X245114Y419156D02*
X244886Y419313D01*
X244886D02*
X244545Y419781D01*
Y416500*
X243523Y419156D02*
X243295Y419313D01*
X243295D02*
X242955Y419781D01*
Y416500*
X240568Y419313D02*
X240682Y419625D01*
X241023Y419781*
X241250*
X241591Y419625*
X241818Y419156*
X241932Y418375*
Y417594*
X241818Y416969*
X241591Y416656*
X241250Y416500*
X241136*
X240795Y416656*
X240568Y416969*
X240455Y417438*
X240455D02*
Y417594D01*
X240568Y418063*
X240568D02*
X240795Y418375D01*
X241136Y418531*
X241250*
X241591Y418375*
X241818Y418063*
X241818D02*
X241932Y417594D01*
X183864Y443281D02*
Y440000D01*
Y443281D02*
X182841D01*
X182500Y443125*
X182386Y442969*
X182273Y442656*
Y442344*
X182386Y442031*
X182500Y441875*
X182841Y441719*
X183864*
X183068D02*
X182273Y440000D01*
X181250Y442656D02*
X181023Y442813D01*
X180682Y443281*
Y440000*
X179545Y442500D02*
Y442656D01*
X179432Y442969*
X179318Y443125*
X179091Y443281*
X178636*
X178409Y443125*
X178295Y442969*
X178182Y442656*
Y442344*
X178295Y442031*
X178523Y441563*
X179659Y440000*
X178068*
X176364Y443281D02*
X176705Y443125D01*
X176932Y442656*
X177045Y441875*
Y441406*
X176932Y440625*
X176705Y440156*
X176364Y440000*
X176136*
X175795Y440156*
X175568Y440625*
X175455Y441406*
Y441875*
X175568Y442656*
X175795Y443125*
X176136Y443281*
X176364*
X247841Y436781D02*
Y433500D01*
Y436781D02*
X246818D01*
X246477Y436625*
X246364Y436469*
X246250Y436156*
Y435844*
X246364Y435531*
X246477Y435375*
X246818Y435219*
X247841*
X247045D02*
X246250Y433500D01*
X245227Y436156D02*
X245000Y436313D01*
X245000D02*
X244659Y436781D01*
Y433500*
X243523Y436000D02*
Y436156D01*
X243409Y436469*
X243295Y436625*
X243068Y436781*
X242614*
X242386Y436625*
X242273Y436469*
X242159Y436156*
Y435844*
X242273Y435531*
X242500Y435063*
X242500D02*
X243636Y433500D01*
X242045*
X241023Y436156D02*
X240795Y436313D01*
X240795D02*
X240455Y436781D01*
Y433500*
X246250Y426781D02*
Y423500D01*
Y426781D02*
X245455D01*
X245114Y426625*
X244886Y426313*
X244886D02*
X244773Y426000D01*
X244659Y425531*
Y424750*
X244773Y424281*
X244886Y423969*
X245114Y423656*
X245455Y423500*
X246250*
X243636Y426156D02*
X243409Y426313D01*
X243409D02*
X243068Y426781D01*
Y423500*
X241932Y426000D02*
Y426156D01*
X241818Y426469*
X241705Y426625*
X241477Y426781*
X241023*
X240795Y426625*
X240682Y426469*
X240568Y426156*
Y425844*
X240682Y425531*
X240909Y425063*
X240909D02*
X242045Y423500D01*
X240455*
X245864Y443781D02*
Y440500D01*
Y443781D02*
X245068D01*
X244727Y443625*
X244500Y443313*
X244500D02*
X244386Y443000D01*
X244273Y442531*
Y441750*
X244386Y441281*
X244500Y440969*
X244727Y440656*
X245068Y440500*
X245864*
X243250Y443156D02*
X243023Y443313D01*
X243023D02*
X242682Y443781D01*
Y440500*
X240523Y443781D02*
X241659Y441594D01*
X239955*
X240523Y443781D02*
Y440500D01*
X200964Y437281D02*
Y434000D01*
Y437281D02*
X200168D01*
X199827Y437125*
X199600Y436813*
X199600D02*
X199486Y436500D01*
X199373Y436031*
Y435250*
X199486Y434781*
X199600Y434469*
X199827Y434156*
X200168Y434000*
X200964*
X198350Y436656D02*
X198123Y436813D01*
X198123D02*
X197782Y437281D01*
Y434000*
X195282Y437281D02*
X196418D01*
X196532Y435875*
X196418Y436031*
X196077Y436188*
X196077D02*
X195736D01*
X195736D02*
X195395Y436031D01*
X195168Y435719*
X195055Y435250*
X195168Y434938*
X195168D02*
X195282Y434469D01*
X195509Y434156*
X195850Y434000*
X196191*
X196532Y434156*
X196645Y434313*
X196645D02*
X196759Y434625D01*
X270636Y375781D02*
Y372500D01*
Y375781D02*
X269841D01*
X269500Y375625*
X269273Y375313*
X269273D02*
X269159Y375000D01*
X269045Y374531*
Y373750*
X269159Y373281*
X269273Y372969*
X269500Y372656*
X269841Y372500*
X270636*
X268023Y375156D02*
X267795Y375313D01*
X267795D02*
X267455Y375781D01*
Y372500*
X251159Y389281D02*
Y386000D01*
Y389281D02*
X250364D01*
X250023Y389125*
X249795Y388813*
X249682Y388500*
X249568Y388031*
Y387250*
X249682Y386781*
X249795Y386469*
X250023Y386156*
X250364Y386000*
X251159*
X248318Y389281D02*
X247068D01*
X247750Y388031*
X247409*
X247182Y387875*
X247068Y387719*
X246955Y387250*
Y386938*
X247068Y386469*
X247295Y386156*
X247636Y386000*
X247977*
X248318Y386156*
X248432Y386313*
X248545Y386625*
X270773Y385781D02*
Y382500D01*
Y385781D02*
X269977D01*
X269636Y385625*
X269409Y385313*
X269409D02*
X269295Y385000D01*
X269182Y384531*
Y383750*
X269295Y383281*
X269409Y382969*
X269636Y382656*
X269977Y382500*
X270773*
X267023Y385781D02*
X268159Y383594D01*
X266455*
X267023Y385781D02*
Y382500D01*
X270773Y395781D02*
Y392500D01*
Y395781D02*
X269977D01*
X269636Y395625*
X269409Y395313*
X269409D02*
X269295Y395000D01*
X269182Y394531*
Y393750*
X269295Y393281*
X269409Y392969*
X269636Y392656*
X269977Y392500*
X270773*
X266682Y395781D02*
X267818D01*
X267932Y394375*
X267818Y394531*
X267477Y394688*
X267477D02*
X267136D01*
X267136D02*
X266795Y394531D01*
X266568Y394219*
X266455Y393750*
X266568Y393438*
X266568D02*
X266682Y392969D01*
X266909Y392656*
X267250Y392500*
X267591*
X267932Y392656*
X268045Y392813*
X268045D02*
X268159Y393125D01*
X245136Y327281D02*
Y324000D01*
Y327281D02*
X244114D01*
X243773Y327125*
X243659Y326969*
X243545Y326656*
Y326344*
X243659Y326031*
X243773Y325875*
X244114Y325719*
X245136*
X244341D02*
X243545Y324000D01*
X242523Y326656D02*
X242295Y326813D01*
X242295D02*
X241955Y327281D01*
Y324000*
X235159Y327281D02*
Y324000D01*
Y327281D02*
X234136D01*
X233795Y327125*
X233682Y326969*
X233568Y326656*
Y326344*
X233682Y326031*
X233795Y325875*
X234136Y325719*
X235159*
X234364D02*
X233568Y324000D01*
X232432Y326500D02*
Y326656D01*
X232318Y326969*
X232205Y327125*
X231977Y327281*
X231523*
X231295Y327125*
X231182Y326969*
X231068Y326656*
Y326344*
X231182Y326031*
X231409Y325563*
X231409D02*
X232545Y324000D01*
X230955*
X223045Y330281D02*
Y327000D01*
Y330281D02*
X222250D01*
X221909Y330125*
X221682Y329813*
X221568Y329500*
X221455Y329031*
Y328250*
X221568Y327781*
X221682Y327469*
X221909Y327156*
X222250Y327000*
X223045*
X219068Y329813D02*
X219182Y330125D01*
X219523Y330281*
X219750*
X220091Y330125*
X220318Y329656*
X220432Y328875*
Y328094*
X220318Y327469*
X220091Y327156*
X219750Y327000*
X219636*
X219295Y327156*
X219068Y327469*
X218955Y327938*
Y328094*
X219068Y328563*
X219295Y328875*
X219636Y329031*
X219750*
X220091Y328875*
X220318Y328563*
X220432Y328094*
X256159Y330781D02*
Y327500D01*
Y330781D02*
X255364D01*
X255023Y330625*
X254795Y330313*
X254795D02*
X254682Y330000D01*
X254568Y329531*
Y328750*
X254682Y328281*
X254795Y327969*
X255023Y327656*
X255364Y327500*
X256159*
X251955Y330781D02*
X253091Y327500D01*
X253545Y330781D02*
X251955D01*
X247659Y307781D02*
Y304500D01*
Y307781D02*
X246864D01*
X246523Y307625*
X246295Y307313*
X246295D02*
X246182Y307000D01*
X246068Y306531*
Y305750*
X246182Y305281*
X246295Y304969*
X246523Y304656*
X246864Y304500*
X247659*
X244477Y307781D02*
X244818Y307625D01*
X244932Y307313*
X244932D02*
Y307000D01*
X244818Y306688*
X244818D02*
X244591Y306531D01*
X244136Y306375*
X243795Y306219*
X243568Y305906*
X243455Y305594*
Y305125*
X243568Y304813*
X243568D02*
X243682Y304656D01*
X244023Y304500*
X244477*
X244818Y304656*
X244932Y304813*
X244932D02*
X245045Y305125D01*
Y305594*
X244932Y305906*
X244705Y306219*
X244364Y306375*
X243909Y306531*
X243682Y306688*
X243682D02*
X243568Y307000D01*
Y307313*
X243568D02*
X243682Y307625D01*
X244023Y307781*
X244477*
X234045Y318781D02*
Y315500D01*
Y318781D02*
X233250D01*
X232909Y318625*
X232682Y318313*
X232682D02*
X232568Y318000D01*
X232455Y317531*
Y316750*
X232568Y316281*
X232682Y315969*
X232909Y315656*
X233250Y315500*
X234045*
X229955Y317688D02*
X230068Y317219D01*
X230295Y316906*
X230636Y316750*
X230750*
X231091Y316906*
X231318Y317219*
X231432Y317688*
X231432D02*
Y317844D01*
X231318Y318313*
X231318D02*
X231091Y318625D01*
X230750Y318781*
X230636*
X230295Y318625*
X230068Y318313*
X230068D02*
X229955Y317688D01*
X229955D02*
Y316906D01*
X230068Y316125*
X230295Y315656*
X230636Y315500*
X230864*
X231205Y315656*
X231318Y315969*
X115719Y143850D02*
X119000D01*
X115719D02*
Y143055D01*
X115875Y142714*
X116187Y142486*
X116187D02*
X116500Y142373D01*
X116969Y142259*
X117750*
X118219Y142373*
X118531Y142486*
X118844Y142714*
X119000Y143055*
Y143850*
X116344Y141236D02*
X116187Y141009D01*
X116187D02*
X115719Y140668D01*
X119000*
X115719Y138964D02*
X115875Y139305D01*
X116344Y139532*
X117125Y139645*
X117594*
X118375Y139532*
X118844Y139305*
X119000Y138964*
Y138736*
X118844Y138395*
X118375Y138168*
X117594Y138055*
X117125*
X116344Y138168*
X115875Y138395*
X115719Y138736*
Y138964*
X125719Y142827D02*
X129000D01*
X125719D02*
Y142032D01*
X125875Y141691*
X126187Y141464*
X126187D02*
X126500Y141350D01*
X126969Y141236*
X127750*
X128219Y141350*
X128531Y141464*
X128844Y141691*
X129000Y142032*
Y142827*
X126344Y140214D02*
X126187Y139986D01*
X126187D02*
X125719Y139645D01*
X129000*
X126344Y138623D02*
X126187Y138395D01*
X126187D02*
X125719Y138055D01*
X129000*
X256659Y279781D02*
Y276500D01*
Y279781D02*
X255636D01*
X255295Y279625*
X255182Y279469*
X255068Y279156*
Y278844*
X255182Y278531*
X255295Y278375*
X255636Y278219*
X256659*
X255864D02*
X255068Y276500D01*
X253818Y279781D02*
X252568D01*
X253250Y278531*
X252909*
X252682Y278375*
X252568Y278219*
X252455Y277750*
Y277438*
X252568Y276969*
X252795Y276656*
X253136Y276500*
X253477*
X253818Y276656*
X253932Y276813*
X254045Y277125*
X278455Y265500D02*
X278568Y265813D01*
X278568D02*
X278795Y266125D01*
X279023Y266281*
X279477*
X279705Y266125*
X279932Y265813*
X279932D02*
X280045Y265500D01*
X280159Y265031*
Y264250*
X280045Y263781*
X279932Y263469*
X279705Y263156*
X279477Y263000*
X279023*
X278795Y263156*
X278568Y263469*
X278455Y263781*
X275955Y265188D02*
X276068Y264719D01*
X276295Y264406*
X276636Y264250*
X276750*
X277091Y264406*
X277318Y264719*
X277432Y265188*
X277432D02*
Y265344D01*
X277318Y265813*
X277318D02*
X277091Y266125D01*
X276750Y266281*
X276636*
X276295Y266125*
X276068Y265813*
X276068D02*
X275955Y265188D01*
X275955D02*
Y264406D01*
X276068Y263625*
X276295Y263156*
X276636Y263000*
X276864*
X277205Y263156*
X277318Y263469*
X255045Y272000D02*
X255159Y272313D01*
X255386Y272625*
X255614Y272781*
X256068*
X256295Y272625*
X256523Y272313*
X256636Y272000*
X256750Y271531*
Y270750*
X256636Y270281*
X256523Y269969*
X256295Y269656*
X256068Y269500*
X255614*
X255386Y269656*
X255159Y269969*
X255045Y270281*
X254023Y272156D02*
X253795Y272313D01*
X253455Y272781*
Y269500*
X250955Y271688D02*
X251068Y271219D01*
X251295Y270906*
X251636Y270750*
X251750*
X252091Y270906*
X252318Y271219*
X252432Y271688*
Y271844*
X252318Y272313*
X252091Y272625*
X251750Y272781*
X251636*
X251295Y272625*
X251068Y272313*
X250955Y271688*
Y270906*
X251068Y270125*
X251295Y269656*
X251636Y269500*
X251864*
X252205Y269656*
X252318Y269969*
X256718Y195500D02*
X256605Y195187D01*
X256605D02*
X256377Y194875D01*
X256150Y194719*
X255695*
X255468Y194875*
X255241Y195187*
X255241D02*
X255127Y195500D01*
X255014Y195969*
Y196750*
X255127Y197219*
X255241Y197531*
X255468Y197844*
X255695Y198000*
X256150*
X256377Y197844*
X256605Y197531*
X256718Y197219*
X257855Y195500D02*
Y195344D01*
X257968Y195031*
X258082Y194875*
X258309Y194719*
X258764*
X258991Y194875*
X259105Y195031*
X259218Y195344*
Y195656*
X259105Y195969*
X258877Y196437*
X258877D02*
X257741Y198000D01*
X259332*
X260468Y195500D02*
Y195344D01*
X260582Y195031*
X260695Y194875*
X260923Y194719*
X261377*
X261605Y194875*
X261718Y195031*
X261832Y195344*
Y195656*
X261718Y195969*
X261491Y196437*
X261491D02*
X260355Y198000D01*
X261945*
X265636Y109281D02*
Y106000D01*
Y109281D02*
X264841D01*
X264500Y109125*
X264273Y108813*
X264159Y108500*
X264045Y108031*
Y107250*
X264159Y106781*
X264273Y106469*
X264500Y106156*
X264841Y106000*
X265636*
X263023Y108656D02*
X262795Y108813D01*
X262455Y109281*
Y106000*
X259955Y108188D02*
X260068Y107719D01*
X260295Y107406*
X260636Y107250*
X260750*
X261091Y107406*
X261318Y107719*
X261432Y108188*
Y108344*
X261318Y108813*
X261091Y109125*
X260750Y109281*
X260636*
X260295Y109125*
X260068Y108813*
X259955Y108188*
Y107406*
X260068Y106625*
X260295Y106156*
X260636Y106000*
X260864*
X261205Y106156*
X261318Y106469*
X285773Y109281D02*
Y106000D01*
Y109281D02*
X284977D01*
X284636Y109125*
X284409Y108813*
X284409D02*
X284295Y108500D01*
X284182Y108031*
Y107250*
X284295Y106781*
X284409Y106469*
X284636Y106156*
X284977Y106000*
X285773*
X283045Y108500D02*
Y108656D01*
X282932Y108969*
X282818Y109125*
X282591Y109281*
X282136*
X281909Y109125*
X281795Y108969*
X281682Y108656*
Y108344*
X281795Y108031*
X282023Y107563*
X282023D02*
X283159Y106000D01*
X281568*
X280318Y109281D02*
X279068D01*
X279750Y108031*
X279409*
X279182Y107875*
X279068Y107719*
X278955Y107250*
Y106938*
X278955D02*
X279068Y106469D01*
X279295Y106156*
X279636Y106000*
X279977*
X280318Y106156*
X280432Y106313*
X280432D02*
X280545Y106625D01*
X293395Y198500D02*
X293509Y198813D01*
X293509D02*
X293736Y199125D01*
X293964Y199281*
X294418*
X294645Y199125*
X294873Y198813*
X294873D02*
X294986Y198500D01*
X295100Y198031*
Y197250*
X294986Y196781*
X294873Y196469*
X294645Y196156*
X294418Y196000*
X293964*
X293736Y196156*
X293509Y196469*
X293395Y196781*
X292259Y198500D02*
Y198656D01*
X292145Y198969*
X292032Y199125*
X291805Y199281*
X291350*
X291123Y199125*
X291009Y198969*
X290895Y198656*
Y198344*
X291009Y198031*
X291236Y197563*
X291236D02*
X292373Y196000D01*
X290782*
X288282Y199281D02*
X289418D01*
X289532Y197875*
X289418Y198031*
X289077Y198188*
X289077D02*
X288736D01*
X288736D02*
X288395Y198031D01*
X288168Y197719*
X288055Y197250*
X288168Y196938*
X288168D02*
X288282Y196469D01*
X288509Y196156*
X288850Y196000*
X289191*
X289532Y196156*
X289645Y196313*
X289645D02*
X289759Y196625D01*
X197636Y106281D02*
Y103000D01*
Y106281D02*
X196841D01*
X196500Y106125*
X196273Y105813*
X196273D02*
X196159Y105500D01*
X196045Y105031*
Y104250*
X196159Y103781*
X196273Y103469*
X196500Y103156*
X196841Y103000*
X197636*
X195023Y105656D02*
X194795Y105813D01*
X194795D02*
X194455Y106281D01*
Y103000*
X192068Y105813D02*
X192182Y106125D01*
X192523Y106281*
X192750*
X193091Y106125*
X193318Y105656*
X193432Y104875*
Y104094*
X193318Y103469*
X193091Y103156*
X192750Y103000*
X192636*
X192295Y103156*
X192068Y103469*
X191955Y103938*
X191955D02*
Y104094D01*
X192068Y104563*
X192068D02*
X192295Y104875D01*
X192636Y105031*
X192750*
X193091Y104875*
X193318Y104563*
X193318D02*
X193432Y104094D01*
X138886Y204781D02*
Y201500D01*
Y204781D02*
X138091D01*
X137750Y204625*
X137523Y204313*
X137523D02*
X137409Y204000D01*
X137295Y203531*
Y202750*
X137409Y202281*
X137523Y201969*
X137750Y201656*
X138091Y201500*
X138886*
X136159Y204000D02*
Y204156D01*
X136045Y204469*
X135932Y204625*
X135705Y204781*
X135250*
X135023Y204625*
X134909Y204469*
X134795Y204156*
Y203844*
X134909Y203531*
X135136Y203063*
X135136D02*
X136273Y201500D01*
X134682*
X132523Y204781D02*
X133659Y202594D01*
X131955*
X132523Y204781D02*
Y201500D01*
X119864Y204781D02*
Y201500D01*
Y204781D02*
X118841D01*
X118500Y204625*
X118386Y204469*
X118273Y204156*
Y203844*
X118386Y203531*
X118500Y203375*
X118841Y203219*
X119864*
X119068D02*
X118273Y201500D01*
X117250Y204156D02*
X117023Y204313D01*
X116682Y204781*
Y201500*
X114182Y204781D02*
X115318D01*
X115432Y203375*
X115318Y203531*
X114977Y203688*
X114636*
X114295Y203531*
X114068Y203219*
X113955Y202750*
X114068Y202438*
X114182Y201969*
X114409Y201656*
X114750Y201500*
X115091*
X115432Y201656*
X115545Y201813*
X115659Y202125*
X293850Y206281D02*
Y203000D01*
Y206281D02*
X292827D01*
X292486Y206125*
X292373Y205969*
X292259Y205656*
Y205344*
X292373Y205031*
X292486Y204875*
X292827Y204719*
X293850*
X293055D02*
X292259Y203000D01*
X291236Y205656D02*
X291009Y205813D01*
X291009D02*
X290668Y206281D01*
Y203000*
X289418Y206281D02*
X288168D01*
X288850Y205031*
X288509*
X288282Y204875*
X288168Y204719*
X288055Y204250*
Y203938*
X288055D02*
X288168Y203469D01*
X288395Y203156*
X288736Y203000*
X289077*
X289418Y203156*
X289532Y203313*
X289532D02*
X289645Y203625D01*
X0Y0D02*
M02*
