*
*
G04 PADS 9.3.1 Build Number: 456998 generated Gerber (RS-274-X) file*
G04 PC Version=2.1*
*
%IN "tripod.pcb"*%
*
%MOIN*%
*
%FSLAX35Y35*%
*
*
*
*
G04 PC Standard Apertures*
*
*
G04 Thermal Relief Aperture macro.*
%AMTER*
1,1,$1,0,0*
1,0,$1-$2,0,0*
21,0,$3,$4,0,0,45*
21,0,$3,$4,0,0,135*
%
*
*
G04 Annular Aperture macro.*
%AMANN*
1,1,$1,0,0*
1,0,$2,0,0*
%
*
*
G04 Odd Aperture macro.*
%AMODD*
1,1,$1,0,0*
1,0,$1-0.005,0,0*
%
*
*
G04 PC Custom Aperture Macros*
*
*
*
*
*
*
G04 PC Aperture Table*
*
%ADD010C,0.001*%
%ADD011C,0.00787*%
%ADD012C,0.01*%
%ADD013C,0.005*%
%ADD014C,0.00787*%
%ADD015C,0.007*%
%ADD016C,0.00492*%
%ADD017C,0.00787*%
*
*
*
*
G04 PC Circuitry*
G04 Layer Name tripod.pcb - circuitry*
%LPD*%
*
*
G04 PC Custom Flashes*
G04 Layer Name tripod.pcb - flashes*
%LPD*%
*
*
G04 PC Circuitry*
G04 Layer Name tripod.pcb - circuitry*
%LPD*%
*
G54D10*
G54D11*
G01X130819Y343819D02*
X131819Y342819D01*
X182181*
X183181Y343819*
Y394181*
X182181Y395181*
X131819*
X130819Y394181*
Y343819*
X144039Y444496D02*
Y441465D01*
X169496Y412961D02*
X166465D01*
X163961Y441504D02*
Y444535D01*
X201461Y381504D02*
Y384535D01*
Y347004D02*
Y350035D01*
X159996Y324461D02*
X156965D01*
X112461Y347004D02*
Y350035D01*
X141504Y413039D02*
X144535D01*
X143500Y293827D02*
Y288728D01*
X141313*
X141313D02*
Y287272D01*
X141313D02*
X143500D01*
Y282173*
X108500*
Y293827*
X143500*
X142414Y292000D02*
G75*
G03X142414I-1414J0D01*
G01X101535Y249961D02*
X149961D01*
Y271614*
X101535*
Y249961*
X110394D02*
X141890D01*
Y252717*
X110394*
Y249961*
X217850Y447717D02*
X241197D01*
Y412953*
X181354*
Y447795*
X204268*
X174961Y286504D02*
Y289535D01*
Y301504D02*
Y304535D01*
X200039Y314496D02*
Y311465D01*
X227961Y381504D02*
Y384535D01*
X254496Y354961D02*
X251465D01*
X260496Y323961D02*
X257465D01*
X250496Y297961D02*
X247465D01*
X163961Y188004D02*
Y191035D01*
Y203004D02*
Y206035D01*
X273039Y218496D02*
Y215465D01*
X246961Y239504D02*
Y242535D01*
X293496Y233961D02*
X290465D01*
X197685Y252000D02*
X202336D01*
Y250750*
X203664*
Y252000*
X208315*
Y232000*
X197685*
Y252000*
X226039Y239496D02*
Y236465D01*
X179961Y233504D02*
Y236535D01*
Y226504D02*
Y229535D01*
Y219504D02*
Y222535D01*
X286496Y233961D02*
X283465D01*
X276504Y234039D02*
X279535D01*
X252039Y204496D02*
Y201465D01*
X259961Y164504D02*
Y167535D01*
X249961Y157504D02*
Y160535D01*
X295496Y146961D02*
X292465D01*
X172039Y243496D02*
Y240465D01*
X255496Y146961D02*
X252465D01*
X259535Y89535D02*
X292213D01*
Y130874*
X259535*
Y89535*
X269181D02*
X282567D01*
Y92291*
X269181*
Y89535*
X140039Y209496D02*
Y206465D01*
X119039Y225496D02*
Y222465D01*
X140039Y216996D02*
Y213965D01*
X141004Y227039D02*
X144035D01*
X145961Y199504D02*
Y202535D01*
X114961Y396504D02*
Y399535D01*
X258039Y211496D02*
Y208465D01*
X243961Y208504D02*
Y211535D01*
X114961Y403504D02*
Y406535D01*
Y410504D02*
Y413535D01*
G54D12*
X136000Y391500D02*
G03X136000I-1500J0D01*
G01X120000Y395000D02*
G03X120000I-500J0D01*
G01X148000Y285000D02*
X154000D01*
X102856Y273142D02*
G03X102856I-447J0D01*
G01X126000Y313000D02*
X136000D01*
Y303000*
X126000*
Y313000*
X121000Y323000D02*
X131000D01*
Y313000*
X121000*
Y323000*
X116000Y313000D02*
X126000D01*
Y303000*
X116000*
Y313000*
X131000Y323000D02*
X141000D01*
Y313000*
X131000*
Y323000*
X239610Y450236D02*
G03X239610I-500J0D01*
G01X181000Y308000D02*
Y314000D01*
X190500Y325500D02*
X182500D01*
Y316500*
X190500*
X193500Y325500D02*
X200500D01*
X201500Y324500*
Y317500*
X200500Y316500*
X193500*
X204130Y323906D02*
G03X204130I-500J0D01*
G01X288000Y141900D02*
G03X288000I-500J0D01*
G01X279200Y144500D02*
G03X279200I-1500J0D01*
G01X273000Y375000D02*
X283000D01*
Y365000*
X273000*
Y375000*
X248000Y408000D02*
X258000D01*
Y398000*
X248000*
Y408000*
X273000Y385000D02*
X283000D01*
Y375000*
X273000*
Y385000*
Y395000D02*
X283000D01*
Y385000*
X273000*
Y395000*
X227000Y350000D02*
X237000D01*
Y340000*
X227000*
Y350000*
X237000D02*
X247000D01*
Y340000*
X237000*
Y350000*
X211000Y326000D02*
X221000D01*
Y316000*
X211000*
Y326000*
X235000Y302000D02*
X245000D01*
Y292000*
X235000*
Y302000*
X118500Y136600D02*
G03X118500I-500J0D01*
G01X109453Y109890D02*
Y107343D01*
X104276*
Y100799*
X169799*
Y107343*
X164709*
Y109890*
X109453Y119705D02*
Y127000D01*
X118890*
X155350Y126976D02*
X164528D01*
Y119705*
X123000Y149000D02*
X133000D01*
Y139000*
X123000*
Y149000*
X113000D02*
X123000D01*
Y139000*
X113000*
Y149000*
X184000Y216000D02*
Y210000D01*
X270200Y274500D02*
G03X270200I-500J0D01*
G01X164500Y225500D02*
Y217500D01*
X173500*
Y225500*
X164500Y228500D02*
Y235500D01*
X165500Y236500*
X172500*
X173500Y235500*
Y228500*
X166594Y238630D02*
G03X166594I-500J0D01*
G01X264563Y133236D02*
G03X264563I-500J0D01*
G01X112500Y218000D02*
G03X112500I-500J0D01*
G01X211000Y87000D02*
X249000D01*
Y137000*
X211000*
Y87000*
X153000Y196000D02*
Y186000D01*
X143000*
Y196000*
X153000*
X127201Y223213D02*
G03X127201I-500J0D01*
G01X115500Y442500D02*
X107500D01*
Y433500*
X115500*
X118500Y442500D02*
X125500D01*
X126500Y441500*
Y434500*
X125500Y433500*
X118500*
X129130Y440906D02*
G03X129130I-500J0D01*
G01X288000Y172000D02*
X298000D01*
Y162000*
X288000*
Y172000*
X259000Y267000D02*
X269000D01*
Y257000*
X259000*
Y267000*
X115500Y433500D02*
X107500D01*
Y424500*
X115500*
X118500Y433500D02*
X125500D01*
X126500Y432500*
Y425500*
X125500Y424500*
X118500*
X129130Y431906D02*
G03X129130I-500J0D01*
G01X115500Y424500D02*
X107500D01*
Y415500*
X115500*
X118500Y424500D02*
X125500D01*
X126500Y423500*
Y416500*
X125500Y415500*
X118500*
X129130Y422906D02*
G03X129130I-500J0D01*
G01X102000Y384000D02*
X112000D01*
Y374000*
X102000*
Y384000*
Y374000D02*
X112000D01*
Y364000*
X102000*
Y374000*
Y364000D02*
X112000D01*
Y354000*
X102000*
Y364000*
Y394000D02*
X112000D01*
Y384000*
X102000*
Y394000*
X249909Y253000D02*
X249682Y253625D01*
X249227Y254250*
X248773Y254563*
X248773D02*
X247864D01*
X247864D02*
X247409Y254250D01*
X246955Y253625*
X246727Y253000*
X246500Y252063*
X246500D02*
Y250500D01*
X246727Y249563*
X246727D02*
X246955Y248938D01*
X246955D02*
X247409Y248313D01*
X247409D02*
X247864Y248000D01*
X248773*
X249227Y248313*
X249227D02*
X249682Y248938D01*
X249682D02*
X249909Y249563D01*
X249909D02*
Y250500D01*
X248773D02*
X249909D01*
X253773Y254563D02*
X251955Y248000D01*
X253773Y254563D02*
X255591Y248000D01*
X252636Y250188D02*
X254909D01*
X257636Y254563D02*
Y248000D01*
X259682Y254563D02*
Y248000D01*
Y254563D02*
X262864Y248000D01*
Y254563D02*
Y248000D01*
X103500Y248063D02*
Y241500D01*
Y248063D02*
X105545D01*
X105545D02*
X106227Y247750D01*
X106455Y247438*
X106455D02*
X106682Y246813D01*
X106682D02*
Y246188D01*
X106682D02*
X106455Y245563D01*
X106455D02*
X106227Y245250D01*
X105545Y244938*
X105545D02*
X103500D01*
X105091D02*
X106682Y241500D01*
X111909Y247125D02*
X111455Y247750D01*
X110773Y248063*
X110773D02*
X109864D01*
X109864D02*
X109182Y247750D01*
X108727Y247125*
Y246500*
X108955Y245875*
X109182Y245563*
X109182D02*
X109636Y245250D01*
X111000Y244625*
X111455Y244313*
X111455D02*
X111682Y244000D01*
X111909Y243375*
Y242438*
X111909D02*
X111455Y241813D01*
X111455D02*
X110773Y241500D01*
X109864*
X109182Y241813*
X109182D02*
X108727Y242438D01*
X116227Y248063D02*
X113955Y243688D01*
X113955D02*
X117364D01*
X116227Y248063D02*
Y241500D01*
X120545Y248063D02*
X119864Y247750D01*
X119636Y247125*
Y246500*
X119864Y245875*
X120318Y245563*
X120318D02*
X121227Y245250D01*
X121909Y244938*
X121909D02*
X122364Y244313D01*
X122364D02*
X122591Y243688D01*
X122591D02*
Y242750D01*
X122364Y242125*
X122136Y241813*
X122136D02*
X121455Y241500D01*
X120545*
X119864Y241813*
X119864D02*
X119636Y242125D01*
X119409Y242750*
Y243688*
X119409D02*
X119636Y244313D01*
X119636D02*
X120091Y244938D01*
X120091D02*
X120773Y245250D01*
X121682Y245563*
X121682D02*
X122136Y245875D01*
X122364Y246500*
Y247125*
X122136Y247750*
X121455Y248063*
X121455D02*
X120545D01*
X127591D02*
X125318D01*
X125318D02*
X125091Y245250D01*
X125318Y245563*
X125318D02*
X126000Y245875D01*
X126682*
X127364Y245563*
X127364D02*
X127818Y244938D01*
X127818D02*
X128045Y244000D01*
X127818Y243375*
X127591Y242438*
X127591D02*
X127136Y241813D01*
X127136D02*
X126455Y241500D01*
X125773*
X125091Y241813*
X125091D02*
X124864Y242125D01*
X124636Y242750*
X103818Y178563D02*
X102000Y172000D01*
X103818Y178563D02*
X105636Y172000D01*
X102682Y174188D02*
X104955D01*
X107682Y178563D02*
X110864Y172000D01*
Y178563D02*
X107682Y172000D01*
X112909Y174813D02*
X117000D01*
X119045Y177313D02*
X119500Y177625D01*
X120182Y178563*
X120182D02*
Y172000D01*
X122455Y177000D02*
Y177313D01*
X122455D02*
X122682Y177938D01*
X122682D02*
X122909Y178250D01*
X123364Y178563*
X123364D02*
X124273D01*
X124273D02*
X124727Y178250D01*
X124955Y177938*
X124955D02*
X125182Y177313D01*
X125182D02*
Y176688D01*
X125182D02*
X124955Y176063D01*
X124955D02*
X124500Y175125D01*
X122227Y172000*
X125409*
X296063Y384409D02*
X289500D01*
X296063Y386000D02*
Y382818D01*
Y380773D02*
X289500D01*
X296063D02*
Y378727D01*
X296063D02*
X295750Y378045D01*
X295438Y377818*
X295438D02*
X294813Y377591D01*
X294813D02*
X294188D01*
X294188D02*
X293563Y377818D01*
X293563D02*
X293250Y378045D01*
X292938Y378727*
X292938D02*
Y380773D01*
Y379182D02*
X289500Y377591D01*
X296063Y375545D02*
X289500D01*
X296063Y373500D02*
X289500D01*
X296063D02*
Y371455D01*
X296063D02*
X295750Y370773D01*
X295438Y370545*
X295438D02*
X294813Y370318D01*
X294813D02*
X293875D01*
X293250Y370545*
X292938Y370773*
X292938D02*
X292625Y371455D01*
Y373500*
X296063Y366909D02*
X295750Y367364D01*
X295125Y367818*
X294500Y368045*
X293563Y368273*
X293563D02*
X292000D01*
X291063Y368045*
X291063D02*
X290438Y367818D01*
X290438D02*
X289813Y367364D01*
X289813D02*
X289500Y366909D01*
Y366000*
X289813Y365545*
X289813D02*
X290438Y365091D01*
X290438D02*
X291063Y364864D01*
X291063D02*
X292000Y364636D01*
X293563*
X293563D02*
X294500Y364864D01*
X295125Y365091*
X295750Y365545*
X296063Y366000*
X296063D02*
Y366909D01*
Y362591D02*
X289500D01*
X296063D02*
Y361000D01*
X296063D02*
X295750Y360318D01*
X295125Y359864*
X294500Y359636*
X293563Y359409*
X293563D02*
X292000D01*
X291063Y359636*
X291063D02*
X290438Y359864D01*
X290438D02*
X289813Y360318D01*
X289813D02*
X289500Y361000D01*
Y362591*
X296063Y352136D02*
X289500D01*
X296063Y350091D02*
X289500D01*
X296063D02*
X289500Y346909D01*
X296063D02*
X289500D01*
X296063Y343273D02*
X289500D01*
X296063Y344864D02*
Y341682D01*
Y339636D02*
X289500D01*
X296063D02*
Y336682D01*
X292938Y339636D02*
Y337818D01*
X289500Y339636D02*
Y336682D01*
X296063Y334636D02*
X289500D01*
X296063D02*
Y332591D01*
X296063D02*
X295750Y331909D01*
X295438Y331682*
X295438D02*
X294813Y331455D01*
X294813D02*
X294188D01*
X294188D02*
X293563Y331682D01*
X293563D02*
X293250Y331909D01*
X292938Y332591*
X292938D02*
Y334636D01*
Y333045D02*
X289500Y331455D01*
X296063Y329409D02*
X289500D01*
X296063D02*
Y326455D01*
X292938Y329409D02*
Y327591D01*
X296063Y322591D02*
X289500Y324409D01*
X296063Y322591D02*
X289500Y320773D01*
X291688Y323727D02*
Y321455D01*
X294500Y315318D02*
X295125Y315545D01*
X295750Y316000*
X296063Y316455*
X296063D02*
Y317364D01*
X296063D02*
X295750Y317818D01*
X295125Y318273*
X294500Y318500*
X293563Y318727*
X293563D02*
X292000D01*
X291063Y318500*
X291063D02*
X290438Y318273D01*
X290438D02*
X289813Y317818D01*
X289813D02*
X289500Y317364D01*
Y316455*
X289813Y316000*
X289813D02*
X290438Y315545D01*
X290438D02*
X291063Y315318D01*
X296063Y313273D02*
X289500D01*
X296063D02*
Y310318D01*
X292938Y313273D02*
Y311455D01*
X289500Y313273D02*
Y310318D01*
G54D13*
X119892Y393016D02*
X120049Y392788D01*
X120517Y392448*
X117236*
X120286Y346559D02*
X120442Y346332D01*
X120911Y345991*
X117630*
X120442Y343605D02*
X120755Y343718D01*
X120911Y344059*
Y344286*
X120755Y344627*
X120286Y344855*
X119505Y344968*
X118724*
X118099Y344855*
X117786Y344627*
X117630Y344286*
Y344173*
X117786Y343832*
X118099Y343605*
X118567Y343491*
X118724*
X119192Y343605*
X119505Y343832*
X119661Y344173*
Y344286*
X119505Y344627*
X119192Y344855*
X118724Y344968*
X131803Y332680D02*
X132030Y332836D01*
X132371Y333305*
Y330024*
X134985Y333305D02*
X133849Y330024D01*
X133394Y333305D02*
X134985D01*
X178881D02*
X180131D01*
X179449Y332055*
X179790*
X180017Y331899*
X180131Y331742*
X180244Y331274*
Y330961*
X180131Y330492*
X179904Y330180*
X179563Y330024*
X179222*
X178881Y330180*
X178767Y330336*
X178654Y330649*
X181381Y332524D02*
Y332680D01*
X181494Y332992*
X181608Y333149*
X181835Y333305*
X182290*
X182517Y333149*
X182631Y332992*
X182744Y332680*
Y332367*
X182631Y332055*
X182404Y331586*
X181267Y330024*
X182858*
X192695Y343243D02*
Y344493D01*
X193945Y343811*
Y344152*
X194101Y344379*
X194258Y344493*
X194726Y344607*
X195039*
X195508Y344493*
X195820Y344266*
X195976Y343925*
Y343584*
X195820Y343243*
X195664Y343129*
X195351Y343016*
X192695Y345857D02*
Y347107D01*
X193945Y346425*
Y346766*
X194101Y346993*
X194258Y347107*
X194726Y347220*
X195039*
X195508Y347107*
X195820Y346879*
X195976Y346538*
Y346198*
X195820Y345857*
X195664Y345743*
X195351Y345629*
X192301Y391790D02*
X194489Y390654D01*
Y392358*
X192301Y391790D02*
X195583D01*
X192301Y393949D02*
X192458Y393608D01*
X192770Y393494*
X193083*
X193395Y393608*
X193551Y393835*
X193708Y394290*
X193864Y394631*
X194176Y394858*
X194489Y394972*
X194958*
X195270Y394858*
X195426Y394744*
X195583Y394404*
Y393949*
X195426Y393608*
X195270Y393494*
X194958Y393381*
X194489*
X194176Y393494*
X193864Y393722*
X193708Y394063*
X193551Y394517*
X193395Y394744*
X193083Y394858*
X192770*
X192458Y394744*
X192301Y394404*
Y393949*
X181848Y404695D02*
X182984Y406883D01*
X181280*
X181848Y404695D02*
Y407976D01*
X178780Y405789D02*
X178893Y406258D01*
X179121Y406570*
X179462Y406726*
X179575*
X179916Y406570*
X180143Y406258*
X180257Y405789*
Y405633*
X180143Y405164*
X179916Y404851*
X179575Y404695*
X179462*
X179121Y404851*
X178893Y405164*
X178780Y405789*
Y406570*
X178893Y407351*
X179121Y407820*
X179462Y407976*
X179689*
X180030Y407820*
X180143Y407508*
X133983Y404770D02*
X134096Y404458D01*
X134437Y404301*
X134665*
X135006Y404458*
X135233Y404926*
X135346Y405708*
Y406489*
X135233Y407114*
X135006Y407426*
X134665Y407583*
X134551*
X134210Y407426*
X133983Y407114*
X133869Y406645*
Y406489*
X133983Y406020*
X134210Y405708*
X134551Y405551*
X134665*
X135006Y405708*
X135233Y406020*
X135346Y406489*
X131710Y404301D02*
X132846Y406489D01*
X131142*
X131710Y404301D02*
Y407583D01*
X262977Y269887D02*
Y272700D01*
X264000Y271294D02*
X261955D01*
X113500Y360781D02*
Y358438D01*
X113500D02*
X113614Y357969D01*
X113841Y357656*
X114182Y357500*
X114409*
X114750Y357656*
X114977Y357969*
X115091Y358438*
X115091D02*
Y360781D01*
X116341D02*
X117591D01*
X116909Y359531*
X117250*
X117477Y359375*
X117591Y359219*
X117705Y358750*
Y358438*
X117705D02*
X117591Y357969D01*
X117364Y357656*
X117023Y357500*
X116682*
X116341Y357656*
X116227Y357813*
X116227D02*
X116114Y358125D01*
X118955Y360781D02*
X120205D01*
X119523Y359531*
X119864*
X120091Y359375*
X120205Y359219*
X120318Y358750*
Y358438*
X120318D02*
X120205Y357969D01*
X119977Y357656*
X119636Y357500*
X119295*
X118955Y357656*
X118841Y357813*
X118841D02*
X118727Y358125D01*
X137000Y422781D02*
X137909Y421219D01*
Y419500*
X138818Y422781D02*
X137909Y421219D01*
X139841Y422156D02*
X140068Y422313D01*
X140068D02*
X140409Y422781D01*
Y419500*
X134932Y444000D02*
X134818Y444313D01*
X134818D02*
X134591Y444625D01*
X134364Y444781*
X133909*
X133682Y444625*
X133455Y444313*
X133455D02*
X133341Y444000D01*
X133227Y443531*
Y442750*
X133341Y442281*
X133455Y441969*
X133682Y441656*
X133909Y441500*
X134364*
X134591Y441656*
X134818Y441969*
X134932Y442281*
X136068Y444000D02*
Y444156D01*
X136182Y444469*
X136295Y444625*
X136523Y444781*
X136977*
X137205Y444625*
X137318Y444469*
X137432Y444156*
Y443844*
X137318Y443531*
X137091Y443063*
X137091D02*
X135955Y441500D01*
X137545*
X171818Y416500D02*
X171705Y416813D01*
X171705D02*
X171477Y417125D01*
X171250Y417281*
X170795*
X170568Y417125*
X170341Y416813*
X170341D02*
X170227Y416500D01*
X170114Y416031*
Y415250*
X170227Y414781*
X170341Y414469*
X170568Y414156*
X170795Y414000*
X171250*
X171477Y414156*
X171705Y414469*
X171818Y414781*
X173068Y417281D02*
X174318D01*
X173636Y416031*
X173977*
X174205Y415875*
X174318Y415719*
X174432Y415250*
Y414938*
X174432D02*
X174318Y414469D01*
X174091Y414156*
X173750Y414000*
X173409*
X173068Y414156*
X172955Y414313*
X172955D02*
X172841Y414625D01*
X175682Y417281D02*
X176932D01*
X176250Y416031*
X176591*
X176818Y415875*
X176932Y415719*
X177045Y415250*
Y414938*
X177045D02*
X176932Y414469D01*
X176705Y414156*
X176364Y414000*
X176023*
X175682Y414156*
X175568Y414313*
X175568D02*
X175455Y414625D01*
X170955Y444000D02*
X170841Y444313D01*
X170614Y444625*
X170386Y444781*
X169932*
X169705Y444625*
X169477Y444313*
X169364Y444000*
X169250Y443531*
Y442750*
X169364Y442281*
X169477Y441969*
X169705Y441656*
X169932Y441500*
X170386*
X170614Y441656*
X170841Y441969*
X170955Y442281*
X171977Y444156D02*
X172205Y444313D01*
X172545Y444781*
Y441500*
X208705Y383500D02*
X208591Y383813D01*
X208364Y384125*
X208136Y384281*
X207682*
X207455Y384125*
X207227Y383813*
X207114Y383500*
X207000Y383031*
Y382250*
X207114Y381781*
X207227Y381469*
X207455Y381156*
X207682Y381000*
X208136*
X208364Y381156*
X208591Y381469*
X208705Y381781*
X210864Y384281D02*
X209727Y382094D01*
X211432*
X210864Y384281D02*
Y381000D01*
X212682Y384281D02*
X213932D01*
X213250Y383031*
X213591*
X213818Y382875*
X213932Y382719*
X214045Y382250*
Y381938*
X213932Y381469*
X213705Y381156*
X213364Y381000*
X213023*
X212682Y381156*
X212568Y381313*
X212455Y381625*
X213009Y347000D02*
X213123Y346687D01*
X213123D02*
X213350Y346375D01*
X213577Y346219*
X214032*
X214259Y346375*
X214486Y346687*
X214486D02*
X214600Y347000D01*
X214714Y347469*
Y348250*
X214600Y348719*
X214486Y349031*
X214259Y349344*
X214032Y349500*
X213577*
X213350Y349344*
X213123Y349031*
X213009Y348719*
X210850Y346219D02*
X211986Y348406D01*
X210282*
X210850Y346219D02*
Y349500D01*
X208123Y346219D02*
X209259Y348406D01*
X207555*
X208123Y346219D02*
Y349500D01*
X160000Y336009D02*
X160313Y336123D01*
X160313D02*
X160625Y336350D01*
X160781Y336577*
Y337032*
X160625Y337259*
X160313Y337486*
X160313D02*
X160000Y337600D01*
X159531Y337714*
X158750*
X158281Y337600*
X157969Y337486*
X157656Y337259*
X157500Y337032*
Y336577*
X157656Y336350*
X157969Y336123*
X158281Y336009*
X160781Y333850D02*
X158594Y334986D01*
Y333282*
X160781Y333850D02*
X157500D01*
X160781Y330782D02*
Y331918D01*
X159375Y332032*
X159531Y331918*
X159688Y331577*
X159688D02*
Y331236D01*
X159688D02*
X159531Y330895D01*
X159219Y330668*
X158750Y330555*
X158438Y330668*
X158438D02*
X157969Y330782D01*
X157656Y331009*
X157500Y331350*
Y331691*
X157656Y332032*
X157813Y332145*
X157813D02*
X158125Y332259D01*
X104318Y345500D02*
X104205Y345813D01*
X104205D02*
X103977Y346125D01*
X103750Y346281*
X103295*
X103068Y346125*
X102841Y345813*
X102841D02*
X102727Y345500D01*
X102614Y345031*
Y344250*
X102727Y343781*
X102841Y343469*
X103068Y343156*
X103295Y343000*
X103750*
X103977Y343156*
X104205Y343469*
X104318Y343781*
X106477Y346281D02*
X105341Y344094D01*
X107045*
X106477Y346281D02*
Y343000D01*
X109432Y345813D02*
X109318Y346125D01*
X108977Y346281*
X108750*
X108409Y346125*
X108182Y345656*
X108068Y344875*
Y344094*
X108182Y343469*
X108409Y343156*
X108750Y343000*
X108864*
X109205Y343156*
X109432Y343469*
X109545Y343938*
X109545D02*
Y344094D01*
X109432Y344563*
X109432D02*
X109205Y344875D01*
X108864Y345031*
X108750*
X108409Y344875*
X108182Y344563*
X108182D02*
X108068Y344094D01*
X134205Y411500D02*
X134091Y411813D01*
X134091D02*
X133864Y412125D01*
X133636Y412281*
X133182*
X132955Y412125*
X132727Y411813*
X132727D02*
X132614Y411500D01*
X132500Y411031*
Y410250*
X132614Y409781*
X132727Y409469*
X132955Y409156*
X133182Y409000*
X133636*
X133864Y409156*
X134091Y409469*
X134205Y409781*
X136364Y412281D02*
X135227Y410094D01*
X136932*
X136364Y412281D02*
Y409000D01*
X139545Y412281D02*
X138409Y409000D01*
X137955Y412281D02*
X139545D01*
X144000Y299281D02*
Y296938D01*
X144000D02*
X144114Y296469D01*
X144341Y296156*
X144682Y296000*
X144909*
X145250Y296156*
X145477Y296469*
X145591Y296938*
X145591D02*
Y299281D01*
X146841D02*
X148091D01*
X147409Y298031*
X147750*
X147977Y297875*
X148091Y297719*
X148205Y297250*
Y296938*
X148205D02*
X148091Y296469D01*
X147864Y296156*
X147523Y296000*
X147182*
X146841Y296156*
X146727Y296313*
X146727D02*
X146614Y296625D01*
X150705Y299281D02*
X149568D01*
X149455Y297875*
X149568Y298031*
X149909Y298188*
X149909D02*
X150250D01*
X150250D02*
X150591Y298031D01*
X150818Y297719*
X150932Y297250*
X150818Y296938*
X150818D02*
X150705Y296469D01*
X150477Y296156*
X150136Y296000*
X149795*
X149455Y296156*
X149341Y296313*
X149341D02*
X149227Y296625D01*
X156705Y279000D02*
X156591Y279313D01*
X156591D02*
X156364Y279625D01*
X156136Y279781*
X155682*
X155455Y279625*
X155227Y279313*
X155227D02*
X155114Y279000D01*
X155000Y278531*
Y277750*
X155114Y277281*
X155227Y276969*
X155455Y276656*
X155682Y276500*
X156136*
X156364Y276656*
X156591Y276969*
X156705Y277281*
X157727Y279156D02*
X157955Y279313D01*
X157955D02*
X158295Y279781D01*
Y276500*
X159318Y279156D02*
X159545Y279313D01*
X159545D02*
X159886Y279781D01*
Y276500*
X161136Y279781D02*
X162386D01*
X161705Y278531*
X162045*
X162273Y278375*
X162386Y278219*
X162500Y277750*
Y277438*
X162500D02*
X162386Y276969D01*
X162159Y276656*
X161818Y276500*
X161477*
X161136Y276656*
X161023Y276813*
X161023D02*
X160909Y277125D01*
X152136Y253781D02*
Y251281D01*
X152023Y250813*
X152023D02*
X151909Y250656D01*
X151682Y250500*
X151455*
X151227Y250656*
X151114Y250813*
X151114D02*
X151000Y251281D01*
Y251594*
X153273Y253000D02*
Y253156D01*
X153386Y253469*
X153500Y253625*
X153727Y253781*
X154182*
X154409Y253625*
X154523Y253469*
X154636Y253156*
Y252844*
X154523Y252531*
X154295Y252063*
X154295D02*
X153159Y250500D01*
X154750*
X156455Y253781D02*
X156114Y253625D01*
X155886Y253156*
X155773Y252375*
Y251906*
X155886Y251125*
X156114Y250656*
X156455Y250500*
X156682*
X157023Y250656*
X157250Y251125*
X157364Y251906*
Y252375*
X157250Y253156*
X157023Y253625*
X156682Y253781*
X156455*
X159523D02*
X158386Y251594D01*
X160091*
X159523Y253781D02*
Y250500D01*
X224636Y411781D02*
Y409281D01*
X224523Y408813*
X224523D02*
X224409Y408656D01*
X224182Y408500*
X223955*
X223727Y408656*
X223614Y408813*
X223614D02*
X223500Y409281D01*
Y409594*
X225773Y411000D02*
Y411156D01*
X225886Y411469*
X226000Y411625*
X226227Y411781*
X226682*
X226909Y411625*
X227023Y411469*
X227136Y411156*
Y410844*
X227023Y410531*
X226795Y410063*
X226795D02*
X225659Y408500D01*
X227250*
X228841Y411781D02*
X228500Y411625D01*
X228386Y411313*
X228386D02*
Y411000D01*
X228500Y410688*
X228500D02*
X228727Y410531D01*
X229182Y410375*
X229523Y410219*
X229750Y409906*
X229864Y409594*
Y409125*
X229750Y408813*
X229750D02*
X229636Y408656D01*
X229295Y408500*
X228841*
X228500Y408656*
X228386Y408813*
X228386D02*
X228273Y409125D01*
Y409594*
X228386Y409906*
X228614Y410219*
X228955Y410375*
X229409Y410531*
X229636Y410688*
X229636D02*
X229750Y411000D01*
Y411313*
X229750D02*
X229636Y411625D01*
X229295Y411781*
X228841*
X161227Y288500D02*
X161114Y288813D01*
X161114D02*
X160886Y289125D01*
X160659Y289281*
X160205*
X159977Y289125*
X159750Y288813*
X159750D02*
X159636Y288500D01*
X159523Y288031*
Y287250*
X159636Y286781*
X159750Y286469*
X159977Y286156*
X160205Y286000*
X160659*
X160886Y286156*
X161114Y286469*
X161227Y286781*
X162250Y288656D02*
X162477Y288813D01*
X162477D02*
X162818Y289281D01*
Y286000*
X164523Y289281D02*
X164182Y289125D01*
X163955Y288656*
X163841Y287875*
Y287406*
X163955Y286625*
X164182Y286156*
X164523Y286000*
X164750*
X165091Y286156*
X165318Y286625*
X165432Y287406*
Y287875*
X165318Y288656*
X165091Y289125*
X164750Y289281*
X164523*
X166682D02*
X167932D01*
X167250Y288031*
X167591*
X167818Y287875*
X167932Y287719*
X168045Y287250*
Y286938*
X168045D02*
X167932Y286469D01*
X167705Y286156*
X167364Y286000*
X167023*
X166682Y286156*
X166568Y286313*
X166568D02*
X166455Y286625D01*
X172705Y306500D02*
X172591Y306813D01*
X172591D02*
X172364Y307125D01*
X172136Y307281*
X171682*
X171455Y307125*
X171227Y306813*
X171227D02*
X171114Y306500D01*
X171000Y306031*
Y305250*
X171114Y304781*
X171227Y304469*
X171455Y304156*
X171682Y304000*
X172136*
X172364Y304156*
X172591Y304469*
X172705Y304781*
X173727Y306656D02*
X173955Y306813D01*
X173955D02*
X174295Y307281D01*
Y304000*
X176000Y307281D02*
X175659Y307125D01*
X175432Y306656*
X175318Y305875*
Y305406*
X175432Y304625*
X175659Y304156*
X176000Y304000*
X176227*
X176568Y304156*
X176795Y304625*
X176909Y305406*
Y305875*
X176795Y306656*
X176568Y307125*
X176227Y307281*
X176000*
X179068D02*
X177932Y305094D01*
X179636*
X179068Y307281D02*
Y304000D01*
X176114Y299500D02*
X176000Y299813D01*
X175773Y300125*
X175545Y300281*
X175091*
X174864Y300125*
X174636Y299813*
X174523Y299500*
X174409Y299031*
Y298250*
X174523Y297781*
X174636Y297469*
X174864Y297156*
X175091Y297000*
X175545*
X175773Y297156*
X176000Y297469*
X176114Y297781*
X177136Y299656D02*
X177364Y299813D01*
X177705Y300281*
Y297000*
X179409Y300281D02*
X179068Y300125D01*
X178841Y299656*
X178727Y298875*
Y298406*
X178841Y297625*
X179068Y297156*
X179409Y297000*
X179636*
X179977Y297156*
X180205Y297625*
X180318Y298406*
Y298875*
X180205Y299656*
X179977Y300125*
X179636Y300281*
X179409*
X182818D02*
X181682D01*
X181568Y298875*
X181682Y299031*
X182023Y299188*
X182364*
X182705Y299031*
X182932Y298719*
X183045Y298250*
X182932Y297938*
X182818Y297469*
X182591Y297156*
X182250Y297000*
X181909*
X181568Y297156*
X181455Y297313*
X181341Y297625*
X175500Y322781D02*
Y319500D01*
Y322781D02*
X176295D01*
X176636Y322625*
X176864Y322313*
X176864D02*
X176977Y322000D01*
X177091Y321531*
Y320750*
X176977Y320281*
X176864Y319969*
X176636Y319656*
X176295Y319500*
X175500*
X178114Y322156D02*
X178341Y322313D01*
X178341D02*
X178682Y322781D01*
Y319500*
X179932Y322781D02*
X181182D01*
X180500Y321531*
X180841*
X181068Y321375*
X181182Y321219*
X181295Y320750*
Y320438*
X181295D02*
X181182Y319969D01*
X180955Y319656*
X180614Y319500*
X180273*
X179932Y319656*
X179818Y319813*
X179818D02*
X179705Y320125D01*
X192250Y310781D02*
Y307500D01*
Y310781D02*
X193273D01*
X193614Y310625*
X193727Y310469*
X193841Y310156*
Y309844*
X193727Y309531*
X193614Y309375*
X193273Y309219*
X192250*
X193045D02*
X193841Y307500D01*
X194864Y310156D02*
X195091Y310313D01*
X195091D02*
X195432Y310781D01*
Y307500*
X197136Y310781D02*
X196795Y310625D01*
X196568Y310156*
X196455Y309375*
Y308906*
X196568Y308125*
X196795Y307656*
X197136Y307500*
X197364*
X197705Y307656*
X197932Y308125*
X198045Y308906*
Y309375*
X197932Y310156*
X197705Y310625*
X197364Y310781*
X197136*
X200545Y309688D02*
X200432Y309219D01*
X200205Y308906*
X199864Y308750*
X199750*
X199409Y308906*
X199182Y309219*
X199068Y309688*
X199068D02*
Y309844D01*
X199182Y310313*
X199182D02*
X199409Y310625D01*
X199750Y310781*
X199864*
X200205Y310625*
X200432Y310313*
X200432D02*
X200545Y309688D01*
X200545D02*
Y308906D01*
X200432Y308125*
X200205Y307656*
X199864Y307500*
X199636*
X199295Y307656*
X199182Y307969*
X209500Y284281D02*
Y281938D01*
X209614Y281469*
X209841Y281156*
X210182Y281000*
X210409*
X210750Y281156*
X210977Y281469*
X211091Y281938*
Y284281*
X212341D02*
X213591D01*
X212909Y283031*
X213250*
X213477Y282875*
X213591Y282719*
X213705Y282250*
Y281938*
X213591Y281469*
X213364Y281156*
X213023Y281000*
X212682*
X212341Y281156*
X212227Y281313*
X212114Y281625*
X214727Y283656D02*
X214955Y283813D01*
X215295Y284281*
Y281000*
X268500Y140281D02*
Y137938D01*
X268500D02*
X268614Y137469D01*
X268841Y137156*
X269182Y137000*
X269409*
X269750Y137156*
X269977Y137469*
X270091Y137938*
X270091D02*
Y140281D01*
X272591D02*
X271455D01*
X271341Y138875*
X271455Y139031*
X271795Y139188*
X271795D02*
X272136D01*
X272136D02*
X272477Y139031D01*
X272705Y138719*
X272818Y138250*
X272705Y137938*
X272705D02*
X272591Y137469D01*
X272364Y137156*
X272023Y137000*
X271682*
X271341Y137156*
X271227Y137313*
X271227D02*
X271114Y137625D01*
X237500Y399281D02*
Y396938D01*
X237500D02*
X237614Y396469D01*
X237841Y396156*
X238182Y396000*
X238409*
X238750Y396156*
X238977Y396469*
X239091Y396938*
X239091D02*
Y399281D01*
X240227Y398500D02*
Y398656D01*
X240341Y398969*
X240455Y399125*
X240682Y399281*
X241136*
X241364Y399125*
X241477Y398969*
X241591Y398656*
Y398344*
X241477Y398031*
X241250Y397563*
X241250D02*
X240114Y396000D01*
X241705*
X229432Y380000D02*
X229318Y380313D01*
X229091Y380625*
X228864Y380781*
X228409*
X228182Y380625*
X227955Y380313*
X227841Y380000*
X227727Y379531*
Y378750*
X227841Y378281*
X227955Y377969*
X228182Y377656*
X228409Y377500*
X228864*
X229091Y377656*
X229318Y377969*
X229432Y378281*
X230682Y380781D02*
X231932D01*
X231250Y379531*
X231591*
X231818Y379375*
X231932Y379219*
X232045Y378750*
Y378438*
X231932Y377969*
X231705Y377656*
X231364Y377500*
X231023*
X230682Y377656*
X230568Y377813*
X230455Y378125*
X256818Y359000D02*
X256705Y359313D01*
X256705D02*
X256477Y359625D01*
X256250Y359781*
X255795*
X255568Y359625*
X255341Y359313*
X255341D02*
X255227Y359000D01*
X255114Y358531*
Y357750*
X255227Y357281*
X255341Y356969*
X255568Y356656*
X255795Y356500*
X256250*
X256477Y356656*
X256705Y356969*
X256818Y357281*
X258977Y359781D02*
X257841Y357594D01*
X259545*
X258977Y359781D02*
Y356500D01*
X221000Y311281D02*
Y308938D01*
X221000D02*
X221114Y308469D01*
X221341Y308156*
X221682Y308000*
X221909*
X222250Y308156*
X222477Y308469*
X222591Y308938*
X222591D02*
Y311281D01*
X223841D02*
X225091D01*
X224409Y310031*
X224750*
X224977Y309875*
X225091Y309719*
X225205Y309250*
Y308938*
X225205D02*
X225091Y308469D01*
X224864Y308156*
X224523Y308000*
X224182*
X223841Y308156*
X223727Y308313*
X223727D02*
X223614Y308625D01*
X262818Y322000D02*
X262705Y322313D01*
X262477Y322625*
X262250Y322781*
X261795*
X261568Y322625*
X261341Y322313*
X261227Y322000*
X261114Y321531*
Y320750*
X261227Y320281*
X261341Y319969*
X261568Y319656*
X261795Y319500*
X262250*
X262477Y319656*
X262705Y319969*
X262818Y320281*
X265318Y322781D02*
X264182D01*
X264068Y321375*
X264182Y321531*
X264523Y321688*
X264864*
X265205Y321531*
X265432Y321219*
X265545Y320750*
X265432Y320438*
X265318Y319969*
X265091Y319656*
X264750Y319500*
X264409*
X264068Y319656*
X263955Y319813*
X263841Y320125*
X253045Y295500D02*
X252932Y295813D01*
X252705Y296125*
X252477Y296281*
X252023*
X251795Y296125*
X251568Y295813*
X251455Y295500*
X251341Y295031*
Y294250*
X251455Y293781*
X251568Y293469*
X251795Y293156*
X252023Y293000*
X252477*
X252705Y293156*
X252932Y293469*
X253045Y293781*
X255432Y295813D02*
X255318Y296125D01*
X254977Y296281*
X254750*
X254409Y296125*
X254182Y295656*
X254068Y294875*
Y294094*
X254182Y293469*
X254409Y293156*
X254750Y293000*
X254864*
X255205Y293156*
X255432Y293469*
X255545Y293938*
Y294094*
X255432Y294563*
X255205Y294875*
X254864Y295031*
X254750*
X254409Y294875*
X254182Y294563*
X254068Y294094*
X115636Y133281D02*
Y130781D01*
X115523Y130313*
X115523D02*
X115409Y130156D01*
X115182Y130000*
X114955*
X114727Y130156*
X114614Y130313*
X114614D02*
X114500Y130781D01*
Y131094*
X116659Y132656D02*
X116886Y132813D01*
X116886D02*
X117227Y133281D01*
Y130000*
X159341Y186500D02*
X159227Y186813D01*
X159000Y187125*
X158773Y187281*
X158318*
X158091Y187125*
X157864Y186813*
X157750Y186500*
X157636Y186031*
Y185250*
X157750Y184781*
X157864Y184469*
X158091Y184156*
X158318Y184000*
X158773*
X159000Y184156*
X159227Y184469*
X159341Y184781*
X160364Y186656D02*
X160591Y186813D01*
X160932Y187281*
Y184000*
X162636Y187281D02*
X162295Y187125D01*
X162068Y186656*
X161955Y185875*
Y185406*
X162068Y184625*
X162295Y184156*
X162636Y184000*
X162864*
X163205Y184156*
X163432Y184625*
X163545Y185406*
Y185875*
X163432Y186656*
X163205Y187125*
X162864Y187281*
X162636*
X166045Y186188D02*
X165932Y185719D01*
X165705Y185406*
X165364Y185250*
X165250*
X164909Y185406*
X164682Y185719*
X164568Y186188*
Y186344*
X164682Y186813*
X164909Y187125*
X165250Y187281*
X165364*
X165705Y187125*
X165932Y186813*
X166045Y186188*
Y185406*
X165932Y184625*
X165705Y184156*
X165364Y184000*
X165136*
X164795Y184156*
X164682Y184469*
X189705Y208500D02*
X189591Y208813D01*
X189591D02*
X189364Y209125D01*
X189136Y209281*
X188682*
X188455Y209125*
X188227Y208813*
X188227D02*
X188114Y208500D01*
X188000Y208031*
Y207250*
X188114Y206781*
X188227Y206469*
X188455Y206156*
X188682Y206000*
X189136*
X189364Y206156*
X189591Y206469*
X189705Y206781*
X190727Y208656D02*
X190955Y208813D01*
X190955D02*
X191295Y209281D01*
Y206000*
X192318Y208656D02*
X192545Y208813D01*
X192545D02*
X192886Y209281D01*
Y206000*
X194591Y209281D02*
X194250Y209125D01*
X194023Y208656*
X193909Y207875*
Y207406*
X194023Y206625*
X194250Y206156*
X194591Y206000*
X194818*
X195159Y206156*
X195386Y206625*
X195500Y207406*
Y207875*
X195386Y208656*
X195159Y209125*
X194818Y209281*
X194591*
X163273Y201000D02*
X163159Y201313D01*
X162932Y201625*
X162705Y201781*
X162250*
X162023Y201625*
X161795Y201313*
X161682Y201000*
X161568Y200531*
Y199750*
X161682Y199281*
X161795Y198969*
X162023Y198656*
X162250Y198500*
X162705*
X162932Y198656*
X163159Y198969*
X163273Y199281*
X164295Y201156D02*
X164523Y201313D01*
X164864Y201781*
Y198500*
X165886Y201156D02*
X166114Y201313D01*
X166455Y201781*
Y198500*
X167477Y201156D02*
X167705Y201313D01*
X168045Y201781*
Y198500*
X187636Y140781D02*
Y138281D01*
X187523Y137813*
X187523D02*
X187409Y137656D01*
X187182Y137500*
X186955*
X186727Y137656*
X186614Y137813*
X186614D02*
X186500Y138281D01*
Y138594*
X188773Y140000D02*
Y140156D01*
X188886Y140469*
X189000Y140625*
X189227Y140781*
X189682*
X189909Y140625*
X190023Y140469*
X190136Y140156*
Y139844*
X190023Y139531*
X189795Y139063*
X189795D02*
X188659Y137500D01*
X190250*
X254500Y287781D02*
Y284500D01*
Y287781D02*
X255409Y284500D01*
X256318Y287781D02*
X255409Y284500D01*
X256318Y287781D02*
Y284500D01*
X257341Y287156D02*
X257568Y287313D01*
X257568D02*
X257909Y287781D01*
Y284500*
X273341Y214000D02*
X273227Y214313D01*
X273227D02*
X273000Y214625D01*
X272773Y214781*
X272318*
X272091Y214625*
X271864Y214313*
X271864D02*
X271750Y214000D01*
X271636Y213531*
Y212750*
X271750Y212281*
X271864Y211969*
X272091Y211656*
X272318Y211500*
X272773*
X273000Y211656*
X273227Y211969*
X273341Y212281*
X274364Y214156D02*
X274591Y214313D01*
X274591D02*
X274932Y214781D01*
Y211500*
X276636Y214781D02*
X276295Y214625D01*
X276068Y214156*
X275955Y213375*
Y212906*
X276068Y212125*
X276295Y211656*
X276636Y211500*
X276864*
X277205Y211656*
X277432Y212125*
X277545Y212906*
Y213375*
X277432Y214156*
X277205Y214625*
X276864Y214781*
X276636*
X242864Y237500D02*
X242750Y237813D01*
X242750D02*
X242523Y238125D01*
X242295Y238281*
X241841*
X241614Y238125*
X241386Y237813*
X241386D02*
X241273Y237500D01*
X241159Y237031*
Y236250*
X241273Y235781*
X241386Y235469*
X241614Y235156*
X241841Y235000*
X242295*
X242523Y235156*
X242750Y235469*
X242864Y235781*
X243886Y237656D02*
X244114Y237813D01*
X244114D02*
X244455Y238281D01*
Y235000*
X245477Y237656D02*
X245705Y237813D01*
X245705D02*
X246045Y238281D01*
Y235000*
X289727Y227281D02*
Y224000D01*
Y227281D02*
X290750D01*
X291091Y227125*
X291205Y226969*
X291318Y226656*
Y226344*
X291205Y226031*
X291091Y225875*
X290750Y225719*
X289727*
X290523D02*
X291318Y224000D01*
X293477Y227281D02*
X292341Y225094D01*
X294045*
X293477Y227281D02*
Y224000D01*
X201000Y255781D02*
Y253438D01*
X201000D02*
X201114Y252969D01*
X201341Y252656*
X201682Y252500*
X201909*
X202250Y252656*
X202477Y252969*
X202591Y253438*
X202591D02*
Y255781D01*
X205205D02*
X204068Y252500D01*
X203614Y255781D02*
X205205D01*
X206705Y220500D02*
X206591Y220813D01*
X206591D02*
X206364Y221125D01*
X206136Y221281*
X205682*
X205455Y221125*
X205227Y220813*
X205227D02*
X205114Y220500D01*
X205000Y220031*
Y219250*
X205114Y218781*
X205227Y218469*
X205455Y218156*
X205682Y218000*
X206136*
X206364Y218156*
X206591Y218469*
X206705Y218781*
X207727Y220656D02*
X207955Y220813D01*
X207955D02*
X208295Y221281D01*
Y218000*
X210909Y221281D02*
X209773Y218000D01*
X209318Y221281D02*
X210909D01*
X229705Y258500D02*
X229591Y258813D01*
X229591D02*
X229364Y259125D01*
X229136Y259281*
X228682*
X228455Y259125*
X228227Y258813*
X228227D02*
X228114Y258500D01*
X228000Y258031*
Y257250*
X228114Y256781*
X228227Y256469*
X228455Y256156*
X228682Y256000*
X229136*
X229364Y256156*
X229591Y256469*
X229705Y256781*
X230841Y258500D02*
Y258656D01*
X230955Y258969*
X231068Y259125*
X231295Y259281*
X231750*
X231977Y259125*
X232091Y258969*
X232205Y258656*
Y258344*
X232091Y258031*
X231864Y257563*
X231864D02*
X230727Y256000D01*
X232318*
X233568Y259281D02*
X234818D01*
X234136Y258031*
X234477*
X234705Y257875*
X234818Y257719*
X234932Y257250*
Y256938*
X234932D02*
X234818Y256469D01*
X234591Y256156*
X234250Y256000*
X233909*
X233568Y256156*
X233455Y256313*
X233455D02*
X233341Y256625D01*
X225705Y235000D02*
X225591Y235313D01*
X225591D02*
X225364Y235625D01*
X225136Y235781*
X224682*
X224455Y235625*
X224227Y235313*
X224227D02*
X224114Y235000D01*
X224000Y234531*
Y233750*
X224114Y233281*
X224227Y232969*
X224455Y232656*
X224682Y232500*
X225136*
X225364Y232656*
X225591Y232969*
X225705Y233281*
X226841Y235000D02*
Y235156D01*
X226955Y235469*
X227068Y235625*
X227295Y235781*
X227750*
X227977Y235625*
X228091Y235469*
X228205Y235156*
Y234844*
X228091Y234531*
X227864Y234063*
X227864D02*
X226727Y232500D01*
X228318*
X230477Y235781D02*
X229341Y233594D01*
X231045*
X230477Y235781D02*
Y232500D01*
X189205Y260000D02*
X189091Y260313D01*
X189091D02*
X188864Y260625D01*
X188636Y260781*
X188182*
X187955Y260625*
X187727Y260313*
X187727D02*
X187614Y260000D01*
X187500Y259531*
Y258750*
X187614Y258281*
X187727Y257969*
X187955Y257656*
X188182Y257500*
X188636*
X188864Y257656*
X189091Y257969*
X189205Y258281*
X190341Y260000D02*
Y260156D01*
X190455Y260469*
X190568Y260625*
X190795Y260781*
X191250*
X191477Y260625*
X191591Y260469*
X191705Y260156*
Y259844*
X191591Y259531*
X191364Y259063*
X191364D02*
X190227Y257500D01*
X191818*
X194205Y260313D02*
X194091Y260625D01*
X193750Y260781*
X193523*
X193182Y260625*
X192955Y260156*
X192841Y259375*
Y258594*
X192955Y257969*
X193182Y257656*
X193523Y257500*
X193636*
X193977Y257656*
X194205Y257969*
X194318Y258438*
X194318D02*
Y258594D01*
X194205Y259063*
X194205D02*
X193977Y259375D01*
X193636Y259531*
X193523*
X193182Y259375*
X192955Y259063*
X192955D02*
X192841Y258594D01*
X173705Y255000D02*
X173591Y255312D01*
X173591D02*
X173364Y255625D01*
X173136Y255781*
X172682*
X172455Y255625*
X172227Y255312*
X172227D02*
X172114Y255000D01*
X172000Y254531*
Y253750*
X172114Y253281*
X172227Y252969*
X172455Y252656*
X172682Y252500*
X173136*
X173364Y252656*
X173591Y252969*
X173705Y253281*
X174841Y255000D02*
Y255156D01*
X174955Y255469*
X175068Y255625*
X175295Y255781*
X175750*
X175977Y255625*
X176091Y255469*
X176205Y255156*
Y254844*
X176091Y254531*
X175864Y254062*
X175864D02*
X174727Y252500D01*
X176318*
X178932Y255781D02*
X177795Y252500D01*
X177341Y255781D02*
X178932D01*
X181841Y240281D02*
Y237000D01*
Y240281D02*
X182864D01*
X183205Y240125*
X183318Y239969*
X183432Y239656*
Y239344*
X183318Y239031*
X183205Y238875*
X182864Y238719*
X181841*
X182636D02*
X183432Y237000D01*
X186045Y240281D02*
X184909Y237000D01*
X184455Y240281D02*
X186045D01*
X185341Y229281D02*
Y226000D01*
Y229281D02*
X186364D01*
X186705Y229125*
X186818Y228969*
X186932Y228656*
Y228344*
X186818Y228031*
X186705Y227875*
X186364Y227719*
X185341*
X186136D02*
X186932Y226000D01*
X188523Y229281D02*
X188182Y229125D01*
X188068Y228813*
Y228500*
X188182Y228188*
X188409Y228031*
X188864Y227875*
X189205Y227719*
X189432Y227406*
X189545Y227094*
Y226625*
X189432Y226313*
X189318Y226156*
X188977Y226000*
X188523*
X188182Y226156*
X188068Y226313*
X187955Y226625*
Y227094*
X188068Y227406*
X188295Y227719*
X188636Y227875*
X189091Y228031*
X189318Y228188*
X189432Y228500*
Y228813*
X189318Y229125*
X188977Y229281*
X188523*
X185455Y222281D02*
Y219000D01*
Y222281D02*
X186477D01*
X186818Y222125*
X186932Y221969*
X187045Y221656*
Y221344*
X186932Y221031*
X186818Y220875*
X186477Y220719*
X185455*
X186250D02*
X187045Y219000D01*
X189545Y221188D02*
X189432Y220719D01*
X189205Y220406*
X188864Y220250*
X188750*
X188409Y220406*
X188182Y220719*
X188068Y221188*
Y221344*
X188182Y221813*
X188409Y222125*
X188750Y222281*
X188864*
X189205Y222125*
X189432Y221813*
X189545Y221188*
Y220406*
X189432Y219625*
X189205Y219156*
X188864Y219000*
X188636*
X188295Y219156*
X188182Y219469*
X281818Y226500D02*
X281705Y226813D01*
X281705D02*
X281477Y227125D01*
X281250Y227281*
X280795*
X280568Y227125*
X280341Y226813*
X280341D02*
X280227Y226500D01*
X280114Y226031*
Y225250*
X280227Y224781*
X280341Y224469*
X280568Y224156*
X280795Y224000*
X281250*
X281477Y224156*
X281705Y224469*
X281818Y224781*
X282955Y226500D02*
Y226656D01*
X283068Y226969*
X283182Y227125*
X283409Y227281*
X283864*
X284091Y227125*
X284205Y226969*
X284318Y226656*
Y226344*
X284205Y226031*
X283977Y225563*
X283977D02*
X282841Y224000D01*
X284432*
X286136Y227281D02*
X285795Y227125D01*
X285568Y226656*
X285455Y225875*
Y225406*
X285568Y224625*
X285795Y224156*
X286136Y224000*
X286364*
X286705Y224156*
X286932Y224625*
X287045Y225406*
Y225875*
X286932Y226656*
X286705Y227125*
X286364Y227281*
X286136*
X270955Y239281D02*
Y236000D01*
Y239281D02*
X271977D01*
X272318Y239125*
X272432Y238969*
X272545Y238656*
Y238344*
X272432Y238031*
X272318Y237875*
X271977Y237719*
X270955*
X271750D02*
X272545Y236000D01*
X274932Y238813D02*
X274818Y239125D01*
X274477Y239281*
X274250*
X273909Y239125*
X273682Y238656*
X273568Y237875*
Y237094*
X273682Y236469*
X273909Y236156*
X274250Y236000*
X274364*
X274705Y236156*
X274932Y236469*
X275045Y236938*
X275045D02*
Y237094D01*
X274932Y237563*
X274932D02*
X274705Y237875D01*
X274364Y238031*
X274250*
X273909Y237875*
X273682Y237563*
X273682D02*
X273568Y237094D01*
X249250Y200281D02*
Y197000D01*
Y200281D02*
X250273D01*
X250614Y200125*
X250727Y199969*
X250841Y199656*
Y199344*
X250727Y199031*
X250614Y198875*
X250273Y198719*
X249250*
X250045D02*
X250841Y197000D01*
X251864Y199656D02*
X252091Y199813D01*
X252091D02*
X252432Y200281D01*
Y197000*
X253568Y199500D02*
Y199656D01*
X253682Y199969*
X253795Y200125*
X254023Y200281*
X254477*
X254705Y200125*
X254818Y199969*
X254932Y199656*
Y199344*
X254818Y199031*
X254591Y198563*
X254591D02*
X253455Y197000D01*
X255045*
X256432Y171000D02*
X256318Y171313D01*
X256318D02*
X256091Y171625D01*
X255864Y171781*
X255409*
X255182Y171625*
X254955Y171313*
X254955D02*
X254841Y171000D01*
X254727Y170531*
Y169750*
X254841Y169281*
X254955Y168969*
X255182Y168656*
X255409Y168500*
X255864*
X256091Y168656*
X256318Y168969*
X256432Y169281*
X259045Y171781D02*
X257909Y168500D01*
X257455Y171781D02*
X259045D01*
X245932Y156000D02*
X245818Y156313D01*
X245818D02*
X245591Y156625D01*
X245364Y156781*
X244909*
X244682Y156625*
X244455Y156313*
X244455D02*
X244341Y156000D01*
X244227Y155531*
Y154750*
X244341Y154281*
X244455Y153969*
X244682Y153656*
X244909Y153500*
X245364*
X245591Y153656*
X245818Y153969*
X245932Y154281*
X247523Y156781D02*
X247182Y156625D01*
X247068Y156313*
X247068D02*
Y156000D01*
X247182Y155688*
X247182D02*
X247409Y155531D01*
X247864Y155375*
X248205Y155219*
X248432Y154906*
X248545Y154594*
Y154125*
X248432Y153813*
X248432D02*
X248318Y153656D01*
X247977Y153500*
X247523*
X247182Y153656*
X247068Y153813*
X247068D02*
X246955Y154125D01*
Y154594*
X247068Y154906*
X247295Y155219*
X247636Y155375*
X248091Y155531*
X248318Y155688*
X248318D02*
X248432Y156000D01*
Y156313*
X248432D02*
X248318Y156625D01*
X247977Y156781*
X247523*
X290841Y140000D02*
X290727Y140313D01*
X290727D02*
X290500Y140625D01*
X290273Y140781*
X289818*
X289591Y140625*
X289364Y140313*
X289364D02*
X289250Y140000D01*
X289136Y139531*
Y138750*
X289250Y138281*
X289364Y137969*
X289591Y137656*
X289818Y137500*
X290273*
X290500Y137656*
X290727Y137969*
X290841Y138281*
X291864Y140156D02*
X292091Y140313D01*
X292091D02*
X292432Y140781D01*
Y137500*
X293568Y140000D02*
Y140156D01*
X293682Y140469*
X293795Y140625*
X294023Y140781*
X294477*
X294705Y140625*
X294818Y140469*
X294932Y140156*
Y139844*
X294818Y139531*
X294591Y139063*
X294591D02*
X293455Y137500D01*
X295045*
X166000Y215781D02*
Y212500D01*
Y215781D02*
X166795D01*
X167136Y215625*
X167364Y215313*
X167364D02*
X167477Y215000D01*
X167591Y214531*
Y213750*
X167477Y213281*
X167364Y212969*
X167136Y212656*
X166795Y212500*
X166000*
X168614Y215156D02*
X168841Y215313D01*
X168841D02*
X169182Y215781D01*
Y212500*
X171795Y215781D02*
X170659Y212500D01*
X170205Y215781D02*
X171795D01*
X198000Y186281D02*
Y183938D01*
X198114Y183469*
X198341Y183156*
X198682Y183000*
X198909*
X199250Y183156*
X199477Y183469*
X199591Y183938*
Y186281*
X200841D02*
X202091D01*
X201409Y185031*
X201750*
X201977Y184875*
X202091Y184719*
X202205Y184250*
Y183938*
X202091Y183469*
X201864Y183156*
X201523Y183000*
X201182*
X200841Y183156*
X200727Y183313*
X200614Y183625*
X203341Y185500D02*
Y185656D01*
X203455Y185969*
X203568Y186125*
X203795Y186281*
X204250*
X204477Y186125*
X204591Y185969*
X204705Y185656*
Y185344*
X204591Y185031*
X204364Y184563*
X203227Y183000*
X204818*
X167045Y247281D02*
Y244000D01*
Y247281D02*
X168068D01*
X168409Y247125*
X168523Y246969*
X168636Y246656*
Y246344*
X168523Y246031*
X168409Y245875*
X168068Y245719*
X167045*
X167841D02*
X168636Y244000D01*
X169659Y246656D02*
X169886Y246813D01*
X169886D02*
X170227Y247281D01*
Y244000*
X171250Y246656D02*
X171477Y246813D01*
X171477D02*
X171818Y247281D01*
Y244000*
X174318Y247281D02*
X173182D01*
X173068Y245875*
X173182Y246031*
X173523Y246188*
X173523D02*
X173864D01*
X173864D02*
X174205Y246031D01*
X174432Y245719*
X174545Y245250*
X174432Y244938*
X174432D02*
X174318Y244469D01*
X174091Y244156*
X173750Y244000*
X173409*
X173068Y244156*
X172955Y244313*
X172955D02*
X172841Y244625D01*
X246341Y145000D02*
X246227Y145313D01*
X246227D02*
X246000Y145625D01*
X245773Y145781*
X245318*
X245091Y145625*
X244864Y145313*
X244864D02*
X244750Y145000D01*
X244636Y144531*
Y143750*
X244750Y143281*
X244864Y142969*
X245091Y142656*
X245318Y142500*
X245773*
X246000Y142656*
X246227Y142969*
X246341Y143281*
X247364Y145156D02*
X247591Y145313D01*
X247591D02*
X247932Y145781D01*
Y142500*
X249182Y145781D02*
X250432D01*
X249750Y144531*
X250091*
X250318Y144375*
X250432Y144219*
X250545Y143750*
Y143438*
X250545D02*
X250432Y142969D01*
X250205Y142656*
X249864Y142500*
X249523*
X249182Y142656*
X249068Y142813*
X249068D02*
X248955Y143125D01*
X255636Y125281D02*
Y122781D01*
X255523Y122313*
X255523D02*
X255409Y122156D01*
X255182Y122000*
X254955*
X254727Y122156*
X254614Y122313*
X254614D02*
X254500Y122781D01*
Y123094*
X256886Y125281D02*
X258136D01*
X257455Y124031*
X257795*
X258023Y123875*
X258136Y123719*
X258250Y123250*
Y122938*
X258250D02*
X258136Y122469D01*
X257909Y122156*
X257568Y122000*
X257227*
X256886Y122156*
X256773Y122313*
X256773D02*
X256659Y122625D01*
X127118Y201632D02*
Y203976D01*
X127004Y204445*
X126777Y204757*
X126436Y204913*
X126209*
X125868Y204757*
X125641Y204445*
X125527Y203976*
Y201632*
X123368D02*
X124504Y203820D01*
X122800*
X123368Y201632D02*
Y204913D01*
X147205Y149000D02*
X147091Y149313D01*
X147091D02*
X146864Y149625D01*
X146636Y149781*
X146182*
X145955Y149625*
X145727Y149313*
X145727D02*
X145614Y149000D01*
X145500Y148531*
Y147750*
X145614Y147281*
X145727Y146969*
X145955Y146656*
X146182Y146500*
X146636*
X146864Y146656*
X147091Y146969*
X147205Y147281*
X148227Y149156D02*
X148455Y149313D01*
X148455D02*
X148795Y149781D01*
Y146500*
X150955Y149781D02*
X149818Y147594D01*
X151523*
X150955Y149781D02*
Y146500D01*
X134750Y205781D02*
Y202500D01*
Y205781D02*
X135773D01*
X136114Y205625*
X136227Y205469*
X136341Y205156*
Y204844*
X136227Y204531*
X136114Y204375*
X135773Y204219*
X134750*
X135545D02*
X136341Y202500D01*
X137364Y205156D02*
X137591Y205313D01*
X137591D02*
X137932Y205781D01*
Y202500*
X139636Y205781D02*
X139295Y205625D01*
X139068Y205156*
X138955Y204375*
Y203906*
X139068Y203125*
X139295Y202656*
X139636Y202500*
X139864*
X140205Y202656*
X140432Y203125*
X140545Y203906*
Y204375*
X140432Y205156*
X140205Y205625*
X139864Y205781*
X139636*
X228636Y166781D02*
Y164281D01*
X228523Y163813*
X228523D02*
X228409Y163656D01*
X228182Y163500*
X227955*
X227727Y163656*
X227614Y163813*
X227614D02*
X227500Y164281D01*
Y164594*
X231136Y166781D02*
X230000D01*
X229886Y165375*
X230000Y165531*
X230341Y165688*
X230341D02*
X230682D01*
X230682D02*
X231023Y165531D01*
X231250Y165219*
X231364Y164750*
X231250Y164438*
X231250D02*
X231136Y163969D01*
X230909Y163656*
X230568Y163500*
X230227*
X229886Y163656*
X229773Y163813*
X229773D02*
X229659Y164125D01*
X107136Y225781D02*
Y222500D01*
Y225781D02*
X108159D01*
X108500Y225625*
X108614Y225469*
X108727Y225156*
Y224844*
X108614Y224531*
X108500Y224375*
X108159Y224219*
X107136*
X107932D02*
X108727Y222500D01*
X109750Y225156D02*
X109977Y225313D01*
X109977D02*
X110318Y225781D01*
Y222500*
X112477Y225781D02*
X111341Y223594D01*
X113045*
X112477Y225781D02*
Y222500D01*
X218705Y188000D02*
X218591Y188313D01*
X218591D02*
X218364Y188625D01*
X218136Y188781*
X217682*
X217455Y188625*
X217227Y188313*
X217227D02*
X217114Y188000D01*
X217000Y187531*
Y186750*
X217114Y186281*
X217227Y185969*
X217455Y185656*
X217682Y185500*
X218136*
X218364Y185656*
X218591Y185969*
X218705Y186281*
X219727Y188156D02*
X219955Y188313D01*
X219955D02*
X220295Y188781D01*
Y185500*
X221886Y188781D02*
X221545Y188625D01*
X221432Y188313*
X221432D02*
Y188000D01*
X221545Y187688*
X221545D02*
X221773Y187531D01*
X222227Y187375*
X222568Y187219*
X222795Y186906*
X222909Y186594*
Y186125*
X222795Y185813*
X222795D02*
X222682Y185656D01*
X222341Y185500*
X221886*
X221545Y185656*
X221432Y185813*
X221432D02*
X221318Y186125D01*
Y186594*
X221432Y186906*
X221659Y187219*
X222000Y187375*
X222455Y187531*
X222682Y187688*
X222682D02*
X222795Y188000D01*
Y188313*
X222795D02*
X222682Y188625D01*
X222341Y188781*
X221886*
X135000Y235281D02*
Y232938D01*
X135000D02*
X135114Y232469D01*
X135341Y232156*
X135682Y232000*
X135909*
X136250Y232156*
X136477Y232469*
X136591Y232938*
X136591D02*
Y235281D01*
X138182D02*
X137841Y235125D01*
X137727Y234813*
X137727D02*
Y234500D01*
X137841Y234188*
X137841D02*
X138068Y234031D01*
X138523Y233875*
X138864Y233719*
X139091Y233406*
X139205Y233094*
Y232625*
X139091Y232313*
X139091D02*
X138977Y232156D01*
X138636Y232000*
X138182*
X137841Y232156*
X137727Y232313*
X137727D02*
X137614Y232625D01*
Y233094*
X137727Y233406*
X137955Y233719*
X138295Y233875*
X138750Y234031*
X138977Y234188*
X138977D02*
X139091Y234500D01*
Y234813*
X139091D02*
X138977Y235125D01*
X138636Y235281*
X138182*
X136727Y220000D02*
X136614Y220313D01*
X136614D02*
X136386Y220625D01*
X136159Y220781*
X135705*
X135477Y220625*
X135250Y220313*
X135250D02*
X135136Y220000D01*
X135023Y219531*
Y218750*
X135136Y218281*
X135250Y217969*
X135477Y217656*
X135705Y217500*
X136159*
X136386Y217656*
X136614Y217969*
X136727Y218281*
X137750Y220156D02*
X137977Y220313D01*
X137977D02*
X138318Y220781D01*
Y217500*
X140818Y220781D02*
X139682D01*
X139568Y219375*
X139682Y219531*
X140023Y219688*
X140023D02*
X140364D01*
X140364D02*
X140705Y219531D01*
X140932Y219219*
X141045Y218750*
X140932Y218438*
X140932D02*
X140818Y217969D01*
X140591Y217656*
X140250Y217500*
X139909*
X139568Y217656*
X139455Y217813*
X139455D02*
X139341Y218125D01*
X146455Y225000D02*
X146341Y225313D01*
X146114Y225625*
X145886Y225781*
X145432*
X145205Y225625*
X144977Y225313*
X144864Y225000*
X144750Y224531*
Y223750*
X144864Y223281*
X144977Y222969*
X145205Y222656*
X145432Y222500*
X145886*
X146114Y222656*
X146341Y222969*
X146455Y223281*
X147477Y225156D02*
X147705Y225313D01*
X148045Y225781*
Y222500*
X150432Y225313D02*
X150318Y225625D01*
X149977Y225781*
X149750*
X149409Y225625*
X149182Y225156*
X149068Y224375*
Y223594*
X149182Y222969*
X149409Y222656*
X149750Y222500*
X149864*
X150205Y222656*
X150432Y222969*
X150545Y223438*
Y223594*
X150432Y224063*
X150205Y224375*
X149864Y224531*
X149750*
X149409Y224375*
X149182Y224063*
X149068Y223594*
X149364Y206281D02*
Y203000D01*
Y206281D02*
X150386D01*
X150727Y206125*
X150841Y205969*
X150955Y205656*
Y205344*
X150841Y205031*
X150727Y204875*
X150386Y204719*
X149364*
X150159D02*
X150955Y203000D01*
X151977Y205656D02*
X152205Y205813D01*
X152205D02*
X152545Y206281D01*
Y203000*
X154932Y205813D02*
X154818Y206125D01*
X154477Y206281*
X154250*
X153909Y206125*
X153682Y205656*
X153568Y204875*
Y204094*
X153682Y203469*
X153909Y203156*
X154250Y203000*
X154364*
X154705Y203156*
X154932Y203469*
X155045Y203938*
X155045D02*
Y204094D01*
X154932Y204563*
X154932D02*
X154705Y204875D01*
X154364Y205031*
X154250*
X153909Y204875*
X153682Y204563*
X153682D02*
X153568Y204094D01*
X216705Y155000D02*
X216591Y155313D01*
X216364Y155625*
X216136Y155781*
X215682*
X215455Y155625*
X215227Y155313*
X215114Y155000*
X215000Y154531*
Y153750*
X215114Y153281*
X215227Y152969*
X215455Y152656*
X215682Y152500*
X216136*
X216364Y152656*
X216591Y152969*
X216705Y153281*
X217841Y155000D02*
Y155156D01*
X217955Y155469*
X218068Y155625*
X218295Y155781*
X218750*
X218977Y155625*
X219091Y155469*
X219205Y155156*
Y154844*
X219091Y154531*
X218864Y154063*
X217727Y152500*
X219318*
X220341Y155156D02*
X220568Y155313D01*
X220909Y155781*
Y152500*
X120273Y399281D02*
Y396000D01*
Y399281D02*
X121295D01*
X121636Y399125*
X121750Y398969*
X121864Y398656*
Y398344*
X121750Y398031*
X121636Y397875*
X121295Y397719*
X120273*
X121068D02*
X121864Y396000D01*
X122886Y398656D02*
X123114Y398813D01*
X123455Y399281*
Y396000*
X124477Y398656D02*
X124705Y398813D01*
X125045Y399281*
Y396000*
X102719Y435000D02*
X106000D01*
X102719D02*
Y435795D01*
X102875Y436136*
X103187Y436364*
X103187D02*
X103500Y436477D01*
X103969Y436591*
X104750*
X105219Y436477*
X105531Y436364*
X105844Y436136*
X106000Y435795*
Y435000*
X103500Y437727D02*
X103344D01*
X103031Y437841*
X102875Y437955*
X102719Y438182*
Y438636*
X102875Y438864*
X103031Y438977*
X103344Y439091*
X103656*
X103969Y438977*
X104437Y438750*
X104437D02*
X106000Y437614D01*
Y439205*
X102719Y440795D02*
X102875Y440455D01*
X103187Y440341*
X103187D02*
X103500D01*
X103812Y440455*
X103812D02*
X103969Y440682D01*
X104125Y441136*
X104281Y441477*
X104594Y441705*
X104906Y441818*
X105375*
X105687Y441705*
X105687D02*
X105844Y441591D01*
X106000Y441250*
Y440795*
X105844Y440455*
X105687Y440341*
X105687D02*
X105375Y440227D01*
X104906*
X104594Y440341*
X104281Y440568*
X104125Y440909*
X103969Y441364*
X103812Y441591*
X103812D02*
X103500Y441705D01*
X103187*
X103187D02*
X102875Y441591D01*
X102719Y441250*
Y440795*
X267781Y213773D02*
X264500D01*
X267781D02*
Y212750D01*
X267625Y212409*
X267469Y212295*
X267156Y212182*
X266844*
X266531Y212295*
X266375Y212409*
X266219Y212750*
Y213773*
Y212977D02*
X264500Y212182D01*
X267000Y211045D02*
X267156D01*
X267469Y210932*
X267625Y210818*
X267781Y210591*
Y210136*
X267625Y209909*
X267469Y209795*
X267156Y209682*
X266844*
X266531Y209795*
X266063Y210023*
X266063D02*
X264500Y211159D01*
Y209568*
X267000Y208432D02*
X267156D01*
X267469Y208318*
X267625Y208205*
X267781Y207977*
Y207523*
X267625Y207295*
X267469Y207182*
X267156Y207068*
X266844*
X266531Y207182*
X266063Y207409*
X266063D02*
X264500Y208545D01*
Y206955*
X238227Y215781D02*
Y212500D01*
Y215781D02*
X239250D01*
X239591Y215625*
X239705Y215469*
X239818Y215156*
Y214844*
X239705Y214531*
X239591Y214375*
X239250Y214219*
X238227*
X239023D02*
X239818Y212500D01*
X240955Y215000D02*
Y215156D01*
X241068Y215469*
X241182Y215625*
X241409Y215781*
X241864*
X242091Y215625*
X242205Y215469*
X242318Y215156*
Y214844*
X242205Y214531*
X241977Y214063*
X241977D02*
X240841Y212500D01*
X242432*
X243682Y215781D02*
X244932D01*
X244250Y214531*
X244591*
X244818Y214375*
X244932Y214219*
X245045Y213750*
Y213438*
X245045D02*
X244932Y212969D01*
X244705Y212656*
X244364Y212500*
X244023*
X243682Y212656*
X243568Y212813*
X243568D02*
X243455Y213125D01*
X292500Y265781D02*
Y262500D01*
Y265781D02*
X293523D01*
X293864Y265625*
X293977Y265469*
X294091Y265156*
Y264844*
X293977Y264531*
X293864Y264375*
X293523Y264219*
X292500*
X293295D02*
X294091Y262500D01*
X296591Y265781D02*
X295455D01*
X295341Y264375*
X295455Y264531*
X295795Y264688*
X295795D02*
X296136D01*
X296136D02*
X296477Y264531D01*
X296705Y264219*
X296818Y263750*
X296705Y263438*
X296705D02*
X296591Y262969D01*
X296364Y262656*
X296023Y262500*
X295682*
X295341Y262656*
X295227Y262813*
X295227D02*
X295114Y263125D01*
X296654Y191281D02*
Y188000D01*
X298017*
X299040Y190656D02*
X299267Y190813D01*
X299267D02*
X299608Y191281D01*
Y188000*
X104136Y203781D02*
Y201281D01*
X104023Y200813*
X104023D02*
X103909Y200656D01*
X103682Y200500*
X103455*
X103227Y200656*
X103114Y200813*
X103114D02*
X103000Y201281D01*
Y201594*
X106295Y203781D02*
X105159Y201594D01*
X106864*
X106295Y203781D02*
Y200500D01*
X270091Y443313D02*
X269864Y443625D01*
X269523Y443781*
X269068*
X268727Y443625*
X268500Y443313*
X268500D02*
Y443000D01*
X268614Y442688*
X268614D02*
X268727Y442531D01*
X268955Y442375*
X269636Y442063*
X269636D02*
X269864Y441906D01*
X269977Y441750*
X270091Y441438*
X270091D02*
Y440969D01*
X269864Y440656*
X269523Y440500*
X269068*
X268727Y440656*
X268500Y440969*
X271114Y443781D02*
X271682Y440500D01*
X272250Y443781D02*
X271682Y440500D01*
X272250Y443781D02*
X272818Y440500D01*
X273386Y443781D02*
X272818Y440500D01*
X274409Y443156D02*
X274636Y443313D01*
X274636D02*
X274977Y443781D01*
Y440500*
X102719Y426000D02*
X106000D01*
X102719D02*
Y426795D01*
X102875Y427136*
X103187Y427364*
X103187D02*
X103500Y427477D01*
X103969Y427591*
X104750*
X105219Y427477*
X105531Y427364*
X105844Y427136*
X106000Y426795*
Y426000*
X103500Y428727D02*
X103344D01*
X103031Y428841*
X102875Y428955*
X102719Y429182*
Y429636*
X102875Y429864*
X103031Y429977*
X103344Y430091*
X103656*
X103969Y429977*
X104437Y429750*
X104437D02*
X106000Y428614D01*
Y430205*
X102719Y417000D02*
X106000D01*
X102719D02*
Y417795D01*
X102875Y418136*
X103187Y418364*
X103187D02*
X103500Y418477D01*
X103969Y418591*
X104750*
X105219Y418477*
X105531Y418364*
X105844Y418136*
X106000Y417795*
Y417000*
X103500Y419727D02*
X103344D01*
X103031Y419841*
X102875Y419955*
X102719Y420182*
Y420636*
X102875Y420864*
X103031Y420977*
X103344Y421091*
X103656*
X103969Y420977*
X104437Y420750*
X104437D02*
X106000Y419614D01*
Y421205*
X102719Y423705D02*
Y422568D01*
X104125Y422455*
X103969Y422568*
X103812Y422909*
X103812D02*
Y423250D01*
X103812D02*
X103969Y423591D01*
X104281Y423818*
X104750Y423932*
X105062Y423818*
X105062D02*
X105531Y423705D01*
X105844Y423477*
X106000Y423136*
Y422795*
X105844Y422455*
X105687Y422341*
X105687D02*
X105375Y422227D01*
X120250Y406281D02*
Y403000D01*
Y406281D02*
X121273D01*
X121614Y406125*
X121727Y405969*
X121841Y405656*
Y405344*
X121727Y405031*
X121614Y404875*
X121273Y404719*
X120250*
X121045D02*
X121841Y403000D01*
X122864Y405656D02*
X123091Y405813D01*
X123432Y406281*
Y403000*
X126045Y406281D02*
X124909Y403000D01*
X124455Y406281D02*
X126045D01*
X120250Y413281D02*
Y410000D01*
Y413281D02*
X121273D01*
X121614Y413125*
X121727Y412969*
X121841Y412656*
Y412344*
X121727Y412031*
X121614Y411875*
X121273Y411719*
X120250*
X121045D02*
X121841Y410000D01*
X122864Y412656D02*
X123091Y412813D01*
X123432Y413281*
Y410000*
X125023Y413281D02*
X124682Y413125D01*
X124568Y412813*
Y412500*
X124682Y412188*
X124909Y412031*
X125364Y411875*
X125705Y411719*
X125932Y411406*
X126045Y411094*
Y410625*
X125932Y410313*
X125818Y410156*
X125477Y410000*
X125023*
X124682Y410156*
X124568Y410313*
X124455Y410625*
Y411094*
X124568Y411406*
X124795Y411719*
X125136Y411875*
X125591Y412031*
X125818Y412188*
X125932Y412500*
Y412813*
X125818Y413125*
X125477Y413281*
X125023*
X266000Y231781D02*
Y229438D01*
X266114Y228969*
X266341Y228656*
X266682Y228500*
X266909*
X267250Y228656*
X267477Y228969*
X267591Y229438*
Y231781*
X268614Y231156D02*
X268841Y231313D01*
X269182Y231781*
Y228500*
G54D14*
X280142Y142000D02*
X274768D01*
Y143250*
X273232*
Y142000*
X267858*
Y162000*
X280142*
Y142000*
X237252Y393764D02*
X268748D01*
Y364236*
X237252*
Y393764*
X226614Y307614D02*
Y334386D01*
X252992*
Y307614*
X226614*
X203000Y228000D02*
Y222000D01*
X221000Y253000D02*
X227000D01*
X203000Y262000D02*
Y256000D01*
X186000Y248000D02*
X180000D01*
X120031Y218299D02*
Y206094D01*
X124362*
Y218299*
X120031*
X134969Y225181D02*
X131031D01*
X131425Y230693D02*
X127094D01*
Y225181*
X127882*
X134575Y230693D02*
X139299D01*
Y225181*
X138118*
X294685Y188000D02*
G03X294685I-19685J0D01*
G01X136717Y199858D02*
X101283D01*
Y180173*
X136717*
Y199858*
X265118Y235709D02*
Y230714D01*
X264478*
Y229286*
X265118*
Y224291*
X254882*
Y235709*
X265118*
G54D15*
X296504Y286000D02*
G03X296504I-18504J0D01*
G54D16*
G01X121769Y217118D02*
G03X121769I-556J0D01*
G54D17*
G01X271157Y247973D02*
Y243157D01*
X290843*
Y245126*
X271157Y258027D02*
Y262843D01*
X290843*
Y260874*
Y252016D02*
Y253984D01*
G74*
X0Y0D02*
M02*
