%
T1C.02F197S55
X00695Y010998
X00695Y011998
X00795Y010998
X00895Y010998
X0098Y01205
X00995Y010998
X0111Y0125
X0114Y013
X0123Y0117
X0123Y0108
X0128Y0121
X01295Y010998
X01295Y012998
X01595Y011998
X01595Y010998
X01695Y010998
X01695Y011998
X018Y0132
X019Y0128
X0204Y0128
X0232Y01225
X0242Y01225
X0253Y0126
X0263Y013
X027111Y012241
X030111Y012241
X030111Y011241
X0308Y0126
X031111Y011241
X031111Y012241
X0318Y013
X032111Y011241
X032111Y012241
X033111Y012241
X033111Y011241
X034111Y012241
X034111Y011241
X035111Y012241
X035111Y011241
X036111Y012241
X036111Y011241
X037111Y011241
X037111Y012241
X038111Y012241
X038111Y011241
X039111Y011241
X039111Y012241
X04095Y010998
X04095Y011998
X04195Y010998
X04195Y011998
X042Y0131
X04295Y010998
X04295Y011998
X04295Y014998
X04195Y013998
X04195Y014998
X04095Y013998
X039961Y014991
X03595Y014998
X034111Y015241
X0328Y0157
X0318Y0149
X0318Y0137
X0317Y0157
X0313Y0153
X0308Y0137
X0306Y0157
X030111Y015241
X0288Y0153
X0278Y0151
X027111Y015241
X0263Y0137
X026111Y015241
X0253Y0137
X025111Y015241
X024111Y014241
X0232Y0134
X0223Y0155
X0208Y0155
X0188Y0143
X018Y0143
X01795Y014998
X01695Y014998
X01595Y013998
X01595Y014998
X01295Y013998
X01295Y014998
X0118Y0135
X0115Y0145
X0109Y0133
X0109Y014
X00695Y013998
X00695Y015998
X00695Y016998
X00795Y016998
X00895Y015998
X00895Y016998
X0098Y0173
X01295Y015998
X01295Y016998
X01295Y017998
X01395Y015998
X01395Y016998
X01395Y017998
X01495Y015998
X01495Y016998
X01595Y015998
X01595Y016998
X01595Y017998
X0192Y0168
X0238Y018
X02425Y0165
X0283Y0161
X0298Y0165
X0337Y0165
X03495Y017998
X03595Y016998
X037Y0173
X0373Y0159
X03895Y015998
X0413Y0159
X04195Y015998
X04295Y015998
X04195Y018998
X04095Y018998
X03995Y018998
X03695Y0189
X0363Y0207
X03495Y018998
X03495Y019998
X0331Y0207
X032111Y019241
X0268Y0195
X0262Y0201
X026111Y019241
X0238Y0192
X0228Y0206
X022Y0206
X021111Y019241
X0211Y0199
X0193Y0207
X0192Y0198
X0186Y0205
X01695Y018998
X01595Y018998
X01495Y018998
X01395Y019998
X01395Y018998
X01295Y018998
X01295Y019998
X0117Y0187
X0111Y0196
X00695Y018998
X007Y0222
X007Y0228
X0084Y0232
X0091Y0232
X0104Y0229
X0113Y0208
X01195Y021998
X01295Y021998
X01295Y020998
X01295Y022998
X01395Y021998
X01395Y020998
X01495Y022998
X01595Y022998
X01695Y022998
X0176Y0211
X0194Y0222
X0194Y0214
X022111Y022241
X023Y0213
X023111Y022241
X0233Y0228
X0237Y0213
X0239Y0222
X0244Y0213
X025Y023248
X026Y023248
X027Y023248
X0274Y0213
X0281Y0211
X0285Y0209
X0288Y0214
X0297Y0216
X02995Y020998
X0309Y0208
X03195Y02195
X03195Y022998
X0329Y021952
X0329Y023
X0339Y021952
X0339Y023
X03495Y02115
X03495Y021998
X03595Y021998
X03595Y022998
X0389Y023
X03895Y021998
X03895Y020998
X03995Y021998
X03995Y020998
X04095Y021998
X04095Y020998
X04195Y020998
X04195Y021998
X04295Y020998
X04295Y021998
X0371Y0241
X0367Y0252
X0362Y0252
X034Y0252
X03395Y023998
X033Y0252
X03295Y023998
X0319Y0245
X03095Y023998
X03095Y024998
X01695Y024998
X01695Y023998
X01395Y023998
X0103Y0234
X0103Y0245
X01Y025
X01Y024
X0095Y025
X0095Y024
X00895Y023998
X0084Y0248
X007Y0246
X007Y024
X007Y0234
X0066Y025
X00695Y025998
X00695Y026998
X00795Y025998
X00795Y026998
X0089Y0261
X0098Y0261
X0104Y0263
X0129Y02625
X0137Y0273
X0151Y0273
X0163Y0272
X017111Y028241
X018111Y027241
X018111Y028241
X019111Y026241
X019111Y027241
X019111Y028241
X020111Y027241
X0212Y0276
X02195Y026998
X0233Y0263
X02395Y025998
X02395Y026998
X02495Y025998
X02495Y026998
X02595Y025998
X02595Y026998
X03295Y026998
X03295Y025998
X03295Y027998
X03395Y025998
X03395Y026998
X0371Y0265
X0371Y0258
X0388Y0268
X0388Y0258
X0388Y0279
X0397Y0268
X0397Y0258
X0399Y0279
X0409Y0279
X042Y0279
X043Y0279
X04295Y028998
X04295Y029998
X04195Y028998
X04195Y029998
X0409Y029
X0409Y03
X040111Y029241
X03095Y028998
X02995Y028998
X026111Y030241
X025111Y030241
X024111Y030241
X023111Y030241
X022111Y030241
X021111Y030241
X017111Y030241
X017111Y029241
X0152Y0283
X0137Y0283
X00995Y029998
X00895Y029998
X00695Y030998
X00895Y030998
X00995Y030998
X01095Y030998
X01595Y030998
X04095Y030998
X04195Y030998
X04295Y030998
T2C.0315F197S55
X00795Y013238
X00795Y01245
X00795Y0156
X00795Y014813
X00795Y014025
X01385Y0114
X014637Y0114
X015425Y0114
X04275Y0127
X04275Y013487
X04275Y014275
X0426Y017888
X0426Y0171
X0426Y02025
X0426Y019463
X0426Y018675
X03355Y0186
X032763Y0186
X031975Y0186
X031188Y0186
X0304Y0186
X0281Y0186
X027313Y0186
X026525Y0186
X025738Y0186
X02495Y0186
X02275Y0186
X021963Y0186
X021175Y0186
X020388Y0186
X0196Y0186
X00795Y019425
X00795Y018638
X00795Y01785
X00795Y020213
X00795Y021
X0194Y02425
X020187Y02425
X020975Y02425
X021762Y02425
X02255Y02425
X0245Y02425
X025287Y02425
X026075Y02425
X026862Y02425
X02765Y02425
X03155Y025288
X03525Y025288
X03525Y02765
X03525Y026863
X03525Y026075
X03155Y026075
X03155Y026863
X03155Y02765
X015612Y03
X014825Y03
X014037Y03
X01325Y03
T3C.035F197S55
X01775Y01075
X01775Y01175
X01875Y01075
X01875Y01175
X01975Y01075
X01975Y01175
X02075Y01075
X02075Y01175
X02175Y01075
X02175Y01175
X02275Y01075
X02275Y01175
X02375Y01075
X02375Y01175
X02475Y01075
X02475Y01175
X02575Y01075
X02575Y01175
X02675Y01075
X02675Y01175
X02775Y01075
X02775Y01175
X02875Y01075
X02875Y01175
X02975Y01075
X02975Y01175
X03075Y01075
X03075Y01175
X03175Y01075
X03175Y01175
X03275Y01075
X03275Y01175
X03375Y01075
X03375Y01175
X0344Y01305
X03475Y01175
X03475Y01075
X0354Y01305
X03575Y01075
X03575Y01175
X03675Y01075
X03675Y01175
X03775Y01075
X03775Y01175
X03875Y01075
X03875Y01175
X03975Y01075
X03975Y01175
X0354Y0156
X0354Y01405
X0354Y0166
X0354Y01855
X0354Y01955
X0344Y01405
X01475Y01445
X01375Y01445
X01775Y02975
X01875Y02975
X01975Y02975
X02075Y02975
X02175Y02975
X02275Y02975
X02375Y02975
X02475Y02975
X02575Y02975
X02675Y02975
X02745Y0277
X02745Y0267
X02775Y02975
X02875Y02975
X02975Y02975
X03075Y02975
X03175Y02975
X03275Y02975
X03375Y02975
X03475Y02975
X03575Y02975
X03675Y02975
X03775Y02975
X03875Y02975
X03975Y02975
X03975Y03075
X03875Y03075
X03775Y03075
X03675Y03075
X03575Y03075
X03475Y03075
X03375Y03075
X03275Y03075
X03175Y03075
X03075Y03075
X02975Y03075
X02875Y03075
X02775Y03075
X02675Y03075
X02575Y03075
X02475Y03075
X02375Y03075
X02275Y03075
X02175Y03075
X02075Y03075
X01975Y03075
X01875Y03075
X01775Y03075
T4C.03543F197S55
X008684Y0292
X010416Y0292
X0417Y025666
X0417Y023934
T5C.05512F107S55
X0167Y014285
X0167Y01645
M30
