*
*
G04 PADS 9.3.1 Build Number: 456998 generated Gerber (RS-274-X) file*
G04 PC Version=2.1*
*
%IN "cpc_rev3.pcb"*%
*
%MOIN*%
*
%FSLAX35Y35*%
*
*
*
*
G04 PC Standard Apertures*
*
*
G04 Thermal Relief Aperture macro.*
%AMTER*
1,1,$1,0,0*
1,0,$1-$2,0,0*
21,0,$3,$4,0,0,45*
21,0,$3,$4,0,0,135*
%
*
*
G04 Annular Aperture macro.*
%AMANN*
1,1,$1,0,0*
1,0,$2,0,0*
%
*
*
G04 Odd Aperture macro.*
%AMODD*
1,1,$1,0,0*
1,0,$1-0.005,0,0*
%
*
*
G04 PC Custom Aperture Macros*
*
*
*
*
*
*
G04 PC Aperture Table*
*
%ADD010C,0.001*%
%ADD019C,0.01*%
%ADD022C,0.005*%
%ADD033C,0.00787*%
%ADD047C,0.003*%
%ADD099C,0.012*%
%ADD100C,0.01969*%
%ADD101C,0.00984*%
%ADD102C,0.01024*%
%ADD103C,0.00787*%
%ADD104C,0.00591*%
*
*
*
*
G04 PC Circuitry*
G04 Layer Name cpc_rev3.pcb - circuitry*
%LPD*%
*
*
G04 PC Custom Flashes*
G04 Layer Name cpc_rev3.pcb - flashes*
%LPD*%
*
*
G04 PC Circuitry*
G04 Layer Name cpc_rev3.pcb - circuitry*
%LPD*%
*
G54D10*
G54D19*
G01X273768Y207575D02*
G75*
G03X273768I-500J0D01*
G01X328268D02*
G03X328268I-500J0D01*
G01X220268D02*
G03X220268I-500J0D01*
G01X343538Y172858D02*
G03X343538I-447J0D01*
G01X143075Y256732D02*
G03X143075I-500J0D01*
G01X144925Y273268D02*
G03X144925I-500J0D01*
G01X235538Y172858D02*
G03X235538I-447J0D01*
G01X186856Y255642D02*
G03X186856I-447J0D01*
G01X203732Y220925D02*
G03X203732I-500J0D01*
G01X122768Y109575D02*
G03X122768I-500J0D01*
G01X359900Y153500D02*
G03X359900I-500J0D01*
G01X280400Y264500D02*
G03X280400I-500J0D01*
G01X150500Y149900D02*
G03X150500I-500J0D01*
G01X339100Y143000D02*
G03X339100I-500J0D01*
G01X407925Y164268D02*
G03X407925I-500J0D01*
G01X130081Y313142D02*
G03X130081I-447J0D01*
G01X368900Y178000D02*
G03X368900I-500J0D01*
G01X372500Y187800D02*
G03X372500I-1500J0D01*
G01X359900Y183000D02*
G03X359900I-500J0D01*
G01X349100Y143000D02*
G03X349100I-500J0D01*
G01X439589Y210091D02*
G03X439589I-447J0D01*
G01X289038Y172858D02*
G03X289038I-447J0D01*
G01X122800Y251500D02*
Y253200D01*
X151200*
Y251500*
X122800Y244500D02*
Y241700D01*
X151100D02*
Y244500D01*
X122800Y234700D02*
Y232800D01*
X151200*
Y234700*
X93089Y217591D02*
G03X93089I-447J0D01*
G01Y163591D02*
G03X93089I-447J0D01*
G01X135457Y127386D02*
G03X135457I-500J0D01*
G01X237856Y255642D02*
G03X237856I-447J0D01*
G01X329089Y279366D02*
G03X329089I-447J0D01*
G01X414614Y123457D02*
G03X414614I-500J0D01*
G01X366089Y279366D02*
G03X366089I-447J0D01*
G01X174087Y133201D02*
X160307D01*
Y135563*
X174087*
Y133201*
X378213Y254799D02*
G03X378213I-500J0D01*
G01X62578Y273500D02*
X66094D01*
X66797Y273670*
X67266Y274011*
X67500Y274523*
Y274864*
X67266Y275375*
X66797Y275716*
X66094Y275886*
X62578*
X63281Y279807D02*
X62812Y279466D01*
X62812D02*
X62578Y278955D01*
Y278273*
X62812Y277761*
X62812D02*
X63281Y277420D01*
X63750*
X64219Y277591*
X64453Y277761*
X64687Y278102*
X64687D02*
X65156Y279125D01*
X65391Y279466*
X65625Y279636*
X66094Y279807*
X66797*
X67266Y279466*
X67500Y278955*
Y278273*
X67266Y277761*
X66797Y277420*
X62578Y282705D02*
X67500Y281341D01*
X62578Y282705D02*
X67500Y284068D01*
X65859Y281852D02*
Y283557D01*
X62578Y285602D02*
X67500D01*
X62578D02*
Y287136D01*
X62812Y287648*
X62812D02*
X63047Y287818D01*
X63516Y287989*
X63984*
X64453Y287818*
X64687Y287648*
X64687D02*
X64922Y287136D01*
Y285602*
Y286795D02*
X67500Y287989D01*
X62578Y290716D02*
X67500D01*
X62578Y289523D02*
Y291909D01*
Y297364D02*
X66094D01*
X66797Y297534*
X67266Y297875*
X67500Y298386*
Y298727*
X67266Y299239*
X66797Y299580*
X66094Y299750*
X62578*
X63281Y303670D02*
X62812Y303330D01*
X62812D02*
X62578Y302818D01*
Y302136*
X62812Y301625*
X62812D02*
X63281Y301284D01*
X63750*
X64219Y301455*
X64453Y301625*
X64687Y301966*
X64687D02*
X65156Y302989D01*
X65391Y303330*
X65625Y303500*
X66094Y303670*
X66797*
X67266Y303330*
X67500Y302818*
Y302136*
X67266Y301625*
X66797Y301284*
X62578Y305205D02*
X67500D01*
X62578D02*
Y306739D01*
X62812Y307250*
X62812D02*
X63047Y307420D01*
X63516Y307591*
X63984*
X64453Y307420*
X64687Y307250*
X64687D02*
X64922Y306739D01*
Y305205D02*
Y306739D01*
X65156Y307250*
X65391Y307420*
X65859Y307591*
X66562*
X66562D02*
X67031Y307420D01*
X67266Y307250*
X67500Y306739*
Y305205*
X388557Y279250D02*
X388386Y279719D01*
X388045Y280188*
X388045D02*
X387705Y280422D01*
X387023*
X386682Y280188*
X386682D02*
X386341Y279719D01*
X386170Y279250*
X386000Y278547*
Y277375*
X386170Y276672*
X386341Y276203*
X386682Y275734*
X387023Y275500*
X387705*
X388045Y275734*
X388386Y276203*
X388557Y276672*
X392136Y278781D02*
Y275500D01*
Y278078D02*
X391795Y278547D01*
X391455Y278781*
X390943*
X390602Y278547*
X390261Y278078*
X390091Y277375*
Y276906*
X390261Y276203*
X390602Y275734*
X390943Y275500*
X391455*
X391795Y275734*
X392136Y276203*
X393670Y278781D02*
Y275500D01*
Y277844D02*
X394182Y278547D01*
X394523Y278781*
X395034*
X395375Y278547*
X395545Y277844*
Y275500*
Y277844D02*
X396057Y278547D01*
X396398Y278781*
X396909*
X397250Y278547*
X397420Y277844*
Y275500*
X398955Y277375D02*
X401000D01*
Y277844*
X400830Y278313*
X400830D02*
X400659Y278547D01*
X400318Y278781*
X399807*
X399466Y278547*
X399125Y278078*
X398955Y277375*
Y276906*
X399125Y276203*
X399466Y275734*
X399807Y275500*
X400318*
X400659Y275734*
X401000Y276203*
X402534Y278781D02*
Y275500D01*
Y277375D02*
X402705Y278078D01*
X403045Y278547*
X403386Y278781*
X403898*
X407477D02*
Y275500D01*
Y278078D02*
X407136Y278547D01*
X406795Y278781*
X406284*
X405943Y278547*
X405602Y278078*
X405432Y277375*
Y276906*
X405602Y276203*
X405943Y275734*
X406284Y275500*
X406795*
X407136Y275734*
X407477Y276203*
X414125Y280422D02*
Y275500D01*
X412932Y280422D02*
X415318D01*
X416852Y278781D02*
Y275500D01*
Y277375D02*
X417023Y278078D01*
X417364Y278547*
X417705Y278781*
X418216*
X419750Y280422D02*
X419920Y280188D01*
X419920D02*
X420091Y280422D01*
X419920Y280656*
X419750Y280422*
X419920Y278781D02*
Y275500D01*
X423670Y278781D02*
Y275031D01*
X423500Y274328*
X423330Y274094*
X422989Y273859*
X422477*
X422136Y274094*
X423670Y278078D02*
X423330Y278547D01*
X422989Y278781*
X422477*
X422136Y278547*
X421795Y278078*
X421625Y277375*
Y276906*
X421795Y276203*
X422136Y275734*
X422477Y275500*
X422989*
X423330Y275734*
X423670Y276203*
X427250Y278781D02*
Y275031D01*
X427080Y274328*
X426909Y274094*
X426568Y273859*
X426057*
X425716Y274094*
X427250Y278078D02*
X426909Y278547D01*
X426568Y278781*
X426057*
X425716Y278547*
X425375Y278078*
X425205Y277375*
Y276906*
X425375Y276203*
X425716Y275734*
X426057Y275500*
X426568*
X426909Y275734*
X427250Y276203*
X428784Y277375D02*
X430830D01*
Y277844*
X430659Y278313*
X430659D02*
X430489Y278547D01*
X430148Y278781*
X429636*
X429295Y278547*
X428955Y278078*
X428784Y277375*
Y276906*
X428955Y276203*
X429295Y275734*
X429636Y275500*
X430148*
X430489Y275734*
X430830Y276203*
X432364Y278781D02*
Y275500D01*
Y277375D02*
X432534Y278078D01*
X432875Y278547*
X433216Y278781*
X433727*
X131578Y196500D02*
X136500D01*
X131578D02*
Y198716D01*
X133922Y196500D02*
Y197864D01*
X136500Y196500D02*
Y198716D01*
X131578Y200761D02*
X135562D01*
X135562D02*
X136266Y200932D01*
X136500Y201273*
Y201614*
X133219Y200250D02*
Y201443D01*
X131578Y203148D02*
X136500D01*
X134156D02*
X133453Y203659D01*
X133219Y204000*
Y204511*
X133453Y204852*
X134156Y205023*
X136500*
X134625Y206557D02*
Y208602D01*
X134156*
X133687Y208432*
X133687D02*
X133453Y208261D01*
X133219Y207920*
Y207409*
X133453Y207068*
X133922Y206727*
X134625Y206557*
X135094*
X135797Y206727*
X136266Y207068*
X136500Y207409*
Y207920*
X136266Y208261*
X135797Y208602*
X133219Y210136D02*
X136500D01*
X134625D02*
X133922Y210307D01*
X133453Y210648*
X133219Y210989*
Y211500*
Y213034D02*
X136500D01*
X134156D02*
X133453Y213545D01*
X133219Y213886*
Y214398*
X133453Y214739*
X134156Y214909*
X136500*
X134625Y216443D02*
Y218489D01*
X134156*
X133687Y218318*
X133687D02*
X133453Y218148D01*
X133219Y217807*
Y217295*
X133453Y216955*
X133922Y216614*
X134625Y216443*
X135094*
X135797Y216614*
X136266Y216955*
X136500Y217295*
Y217807*
X136266Y218148*
X135797Y218489*
X131578Y220534D02*
X135562D01*
X135562D02*
X136266Y220705D01*
X136500Y221045*
Y221386*
X133219Y220023D02*
Y221216D01*
X60578Y185693D02*
X65500D01*
X60578Y184500D02*
Y186886D01*
X62219Y188420D02*
X65500D01*
X63625D02*
X62922Y188591D01*
X62453Y188932*
X62219Y189273*
Y189784*
X60578Y191318D02*
X60812Y191489D01*
X60812D02*
X60578Y191659D01*
X60344Y191489*
X60578Y191318*
X62219Y191489D02*
X65500D01*
X62219Y193193D02*
X67141D01*
X62922D02*
X62453Y193534D01*
X62219Y193875*
Y194386*
X62453Y194727*
X62922Y195068*
X63625Y195239*
X64094*
X64797Y195068*
X65266Y194727*
X65500Y194386*
Y193875*
X65266Y193534*
X64797Y193193*
X62219Y197625D02*
X62453Y197284D01*
X62922Y196943*
X63625Y196773*
X64094*
X64797Y196943*
X65266Y197284*
X65500Y197625*
Y198136*
X65266Y198477*
X64797Y198818*
X64094Y198989*
X63625*
X62922Y198818*
X62453Y198477*
X62219Y198136*
Y197625*
X60578Y202568D02*
X65500D01*
X62922D02*
X62453Y202227D01*
X62219Y201886*
Y201375*
X62453Y201034*
X62922Y200693*
X63625Y200523*
X64094*
X64797Y200693*
X65266Y201034*
X65500Y201375*
Y201886*
X65266Y202227*
X64797Y202568*
X60578Y136500D02*
X65500D01*
X60578D02*
X65500Y137864D01*
X60578Y139227D02*
X65500Y137864D01*
X60578Y139227D02*
X65500D01*
X60578Y140761D02*
X64094D01*
X64797Y140932*
X65266Y141273*
X65500Y141784*
Y142125*
X65266Y142636*
X64797Y142977*
X64094Y143148*
X60578*
Y144682D02*
X65500Y147068D01*
X60578D02*
X65500Y144682D01*
X192500Y203422D02*
Y198500D01*
Y203422D02*
X194034D01*
X194545Y203188*
X194545D02*
X194716Y202953D01*
X194886Y202484*
Y202016*
X194716Y201547*
X194545Y201313*
X194545D02*
X194034Y201078D01*
X192500*
X193693D02*
X194886Y198500D01*
X196420Y203422D02*
X196591Y203188D01*
X196591D02*
X196761Y203422D01*
X196591Y203656*
X196420Y203422*
X196591Y201781D02*
Y198500D01*
X200341Y201781D02*
Y198031D01*
X200170Y197328*
X200000Y197094*
X199659Y196859*
X199148*
X198807Y197094*
X200341Y201078D02*
X200000Y201547D01*
X199659Y201781*
X199148*
X198807Y201547*
X198466Y201078*
X198295Y200375*
Y199906*
X198466Y199203*
X198807Y198734*
X199148Y198500*
X199659*
X200000Y198734*
X200341Y199203*
X201875Y203422D02*
Y198500D01*
Y200844D02*
X202386Y201547D01*
X202727Y201781*
X203239*
X203580Y201547*
X203750Y200844*
Y198500*
X205795Y203422D02*
Y199438D01*
X205795D02*
X205966Y198734D01*
X206307Y198500*
X206648*
X205284Y201781D02*
X206477D01*
X212102Y203422D02*
Y198500D01*
Y203422D02*
X213636D01*
X214148Y203188*
X214148D02*
X214318Y202953D01*
X214489Y202484*
Y202016*
X214318Y201547*
X214148Y201313*
X214148D02*
X213636Y201078D01*
X212102D02*
X213636D01*
X214148Y200844*
X214318Y200609*
X214489Y200141*
Y199438*
X214489D02*
X214318Y198969D01*
X214148Y198734*
X213636Y198500*
X212102*
X216875Y201781D02*
X216534Y201547D01*
X216193Y201078*
X216023Y200375*
Y199906*
X216193Y199203*
X216534Y198734*
X216875Y198500*
X217386*
X217727Y198734*
X218068Y199203*
X218239Y199906*
Y200375*
X218068Y201078*
X217727Y201547*
X217386Y201781*
X216875*
X221818D02*
Y198031D01*
X221648Y197328*
X221477Y197094*
X221136Y196859*
X220625*
X220284Y197094*
X221818Y201078D02*
X221477Y201547D01*
X221136Y201781*
X220625*
X220284Y201547*
X219943Y201078*
X219773Y200375*
Y199906*
X219943Y199203*
X220284Y198734*
X220625Y198500*
X221136*
X221477Y198734*
X221818Y199203*
X223352Y203422D02*
X223523Y203188D01*
X223523D02*
X223693Y203422D01*
X223523Y203656*
X223352Y203422*
X223523Y201781D02*
Y198500D01*
X225227Y200375D02*
X227273D01*
Y200844*
X227102Y201313*
X227102D02*
X226932Y201547D01*
X226591Y201781*
X226080*
X225739Y201547*
X225398Y201078*
X225227Y200375*
Y199906*
X225398Y199203*
X225739Y198734*
X226080Y198500*
X226591*
X226932Y198734*
X227273Y199203*
X248000Y203422D02*
Y198500D01*
X250045*
X251580Y200375D02*
X253625D01*
Y200844*
X253455Y201313*
X253455D02*
X253284Y201547D01*
X252943Y201781*
X252432*
X252091Y201547*
X251750Y201078*
X251580Y200375*
Y199906*
X251750Y199203*
X252091Y198734*
X252432Y198500*
X252943*
X253284Y198734*
X253625Y199203*
X256523Y203422D02*
X256182D01*
X255841Y203188*
X255841D02*
X255670Y202484D01*
Y198500*
X255159Y201781D02*
X256352D01*
X258568Y203422D02*
Y199438D01*
X258568D02*
X258739Y198734D01*
X259080Y198500*
X259420*
X258057Y201781D02*
X259250D01*
X264875Y203422D02*
Y198500D01*
Y203422D02*
X266409D01*
X266920Y203188*
X266920D02*
X267091Y202953D01*
X267261Y202484*
Y202016*
X267091Y201547*
X266920Y201313*
X266920D02*
X266409Y201078D01*
X264875D02*
X266409D01*
X266920Y200844*
X267091Y200609*
X267261Y200141*
Y199438*
X267261D02*
X267091Y198969D01*
X266920Y198734*
X266409Y198500*
X264875*
X269648Y201781D02*
X269307Y201547D01*
X268966Y201078*
X268795Y200375*
Y199906*
X268966Y199203*
X269307Y198734*
X269648Y198500*
X270159*
X270500Y198734*
X270841Y199203*
X271011Y199906*
Y200375*
X270841Y201078*
X270500Y201547*
X270159Y201781*
X269648*
X274591D02*
Y198031D01*
X274420Y197328*
X274250Y197094*
X273909Y196859*
X273398*
X273057Y197094*
X274591Y201078D02*
X274250Y201547D01*
X273909Y201781*
X273398*
X273057Y201547*
X272716Y201078*
X272545Y200375*
Y199906*
X272716Y199203*
X273057Y198734*
X273398Y198500*
X273909*
X274250Y198734*
X274591Y199203*
X276125Y203422D02*
X276295Y203188D01*
X276295D02*
X276466Y203422D01*
X276295Y203656*
X276125Y203422*
X276295Y201781D02*
Y198500D01*
X278000Y200375D02*
X280045D01*
Y200844*
X279875Y201313*
X279875D02*
X279705Y201547D01*
X279364Y201781*
X278852*
X278511Y201547*
X278170Y201078*
X278000Y200375*
Y199906*
X278170Y199203*
X278511Y198734*
X278852Y198500*
X279364*
X279705Y198734*
X280045Y199203*
X304500Y203422D02*
Y198500D01*
Y203422D02*
X306034D01*
X306545Y203188*
X306545D02*
X306716Y202953D01*
X306886Y202484*
Y202016*
X306716Y201547*
X306545Y201313*
X306545D02*
X306034Y201078D01*
X304500D02*
X306034D01*
X306545Y200844*
X306716Y200609*
X306886Y200141*
Y199438*
X306886D02*
X306716Y198969D01*
X306545Y198734*
X306034Y198500*
X304500*
X310466Y201781D02*
Y198500D01*
Y201078D02*
X310125Y201547D01*
X309784Y201781*
X309273*
X308932Y201547*
X308591Y201078*
X308420Y200375*
Y199906*
X308591Y199203*
X308932Y198734*
X309273Y198500*
X309784*
X310125Y198734*
X310466Y199203*
X314045Y201078D02*
X313705Y201547D01*
X313364Y201781*
X312852*
X312511Y201547*
X312170Y201078*
X312000Y200375*
Y199906*
X312170Y199203*
X312511Y198734*
X312852Y198500*
X313364*
X313705Y198734*
X314045Y199203*
X315580Y203422D02*
Y198500D01*
X317284Y201781D02*
X315580Y199438D01*
X316261Y200375D02*
X317455Y198500D01*
X322909Y203422D02*
Y198500D01*
Y203422D02*
X324443D01*
X324955Y203188*
X324955D02*
X325125Y202953D01*
X325295Y202484*
Y202016*
X325125Y201547*
X324955Y201313*
X324955D02*
X324443Y201078D01*
X322909D02*
X324443D01*
X324955Y200844*
X325125Y200609*
X325295Y200141*
Y199438*
X325295D02*
X325125Y198969D01*
X324955Y198734*
X324443Y198500*
X322909*
X327682Y201781D02*
X327341Y201547D01*
X327000Y201078*
X326830Y200375*
Y199906*
X327000Y199203*
X327341Y198734*
X327682Y198500*
X328193*
X328534Y198734*
X328875Y199203*
X329045Y199906*
Y200375*
X328875Y201078*
X328534Y201547*
X328193Y201781*
X327682*
X332625D02*
Y198031D01*
X332455Y197328*
X332284Y197094*
X331943Y196859*
X331432*
X331091Y197094*
X332625Y201078D02*
X332284Y201547D01*
X331943Y201781*
X331432*
X331091Y201547*
X330750Y201078*
X330580Y200375*
Y199906*
X330750Y199203*
X331091Y198734*
X331432Y198500*
X331943*
X332284Y198734*
X332625Y199203*
X334159Y203422D02*
X334330Y203188D01*
X334330D02*
X334500Y203422D01*
X334330Y203656*
X334159Y203422*
X334330Y201781D02*
Y198500D01*
X336034Y200375D02*
X338080D01*
Y200844*
X337909Y201313*
X337909D02*
X337739Y201547D01*
X337398Y201781*
X336886*
X336545Y201547*
X336205Y201078*
X336034Y200375*
Y199906*
X336205Y199203*
X336545Y198734*
X336886Y198500*
X337398*
X337739Y198734*
X338080Y199203*
X218864Y229422D02*
X217500Y224500D01*
X218864Y229422D02*
X220227Y224500D01*
X218011Y226141D02*
X219716D01*
X221761Y227781D02*
Y224500D01*
Y226375D02*
X221932Y227078D01*
X222273Y227547*
X222614Y227781*
X223125*
X224659D02*
Y224500D01*
Y226844D02*
X225170Y227547D01*
X225511Y227781*
X226023*
X226364Y227547*
X226534Y226844*
Y224500*
Y226844D02*
X227045Y227547D01*
X227386Y227781*
X227898*
X228239Y227547*
X228409Y226844*
Y224500*
X233864Y229422D02*
Y224500D01*
Y229422D02*
X235398D01*
X235909Y229188*
X235909D02*
X236080Y228953D01*
X236250Y228484*
Y228016*
X236080Y227547*
X235909Y227313*
X235909D02*
X235398Y227078D01*
X233864D02*
X235398D01*
X235909Y226844*
X236080Y226609*
X236250Y226141*
Y225438*
X236250D02*
X236080Y224969D01*
X235909Y224734*
X235398Y224500*
X233864*
X238636Y227781D02*
X238295Y227547D01*
X237955Y227078*
X237784Y226375*
Y225906*
X237955Y225203*
X238295Y224734*
X238636Y224500*
X239148*
X239489Y224734*
X239830Y225203*
X240000Y225906*
Y226375*
X239830Y227078*
X239489Y227547*
X239148Y227781*
X238636*
X243580D02*
Y224500D01*
Y227078D02*
X243239Y227547D01*
X242898Y227781*
X242386*
X242045Y227547*
X241705Y227078*
X241534Y226375*
Y225906*
X241705Y225203*
X242045Y224734*
X242386Y224500*
X242898*
X243239Y224734*
X243580Y225203*
X245114Y227781D02*
Y224500D01*
Y226375D02*
X245284Y227078D01*
X245625Y227547*
X245966Y227781*
X246477*
X250057Y229422D02*
Y224500D01*
Y227078D02*
X249716Y227547D01*
X249375Y227781*
X248864*
X248523Y227547*
X248182Y227078*
X248011Y226375*
Y225906*
X248182Y225203*
X248523Y224734*
X248864Y224500*
X249375*
X249716Y224734*
X250057Y225203*
X296078Y244500D02*
X301000D01*
X296078D02*
Y246716D01*
X298422Y244500D02*
Y245864D01*
X297719Y248250D02*
X301000D01*
X299125D02*
X298422Y248420D01*
X297953Y248761*
X297719Y249102*
Y249614*
Y252000D02*
X297953Y251659D01*
X298422Y251318*
X299125Y251148*
X299594*
X300297Y251318*
X300766Y251659*
X301000Y252000*
Y252511*
X300766Y252852*
X300297Y253193*
X299594Y253364*
X299125*
X298422Y253193*
X297953Y252852*
X297719Y252511*
Y252000*
Y254898D02*
X301000D01*
X298656D02*
X297953Y255409D01*
X297719Y255750*
Y256261*
X297953Y256602*
X298656Y256773*
X301000*
X296078Y258818D02*
X300062D01*
X300062D02*
X300766Y258989D01*
X301000Y259330*
Y259670*
X297719Y258307D02*
Y259500D01*
X296078Y266318D02*
X301000D01*
X296078Y265125D02*
Y267511D01*
X297719Y269045D02*
X301000D01*
X299125D02*
X298422Y269216D01*
X297953Y269557*
X297719Y269898*
Y270409*
X296078Y271943D02*
X296312Y272114D01*
X296312D02*
X296078Y272284D01*
X295844Y272114*
X296078Y271943*
X297719Y272114D02*
X301000D01*
X297719Y275864D02*
X301469D01*
X302172Y275693*
X302406Y275523*
X302641Y275182*
Y274670*
X302406Y274330*
X298422Y275864D02*
X297953Y275523D01*
X297719Y275182*
Y274670*
X297953Y274330*
X298422Y273989*
X299125Y273818*
X299594*
X300297Y273989*
X300766Y274330*
X301000Y274670*
Y275182*
X300766Y275523*
X300297Y275864*
X297719Y279443D02*
X301469D01*
X302172Y279273*
X302406Y279102*
X302641Y278761*
Y278250*
X302406Y277909*
X298422Y279443D02*
X297953Y279102D01*
X297719Y278761*
Y278250*
X297953Y277909*
X298422Y277568*
X299125Y277398*
X299594*
X300297Y277568*
X300766Y277909*
X301000Y278250*
Y278761*
X300766Y279102*
X300297Y279443*
X299125Y280977D02*
Y283023D01*
X298656*
X298187Y282852*
X298187D02*
X297953Y282682D01*
X297719Y282341*
Y281830*
X297953Y281489*
X298422Y281148*
X299125Y280977*
X299594*
X300297Y281148*
X300766Y281489*
X301000Y281830*
Y282341*
X300766Y282682*
X300297Y283023*
X297719Y284557D02*
X301000D01*
X299125D02*
X298422Y284727D01*
X297953Y285068*
X297719Y285409*
Y285920*
X367078Y245500D02*
X372000D01*
X367078D02*
Y247034D01*
X367312Y247545*
X367312D02*
X367547Y247716D01*
X368016Y247886*
X368484*
X368953Y247716*
X369187Y247545*
X369187D02*
X369422Y247034D01*
Y245500D02*
Y247034D01*
X369656Y247545*
X369891Y247716*
X370359Y247886*
X371062*
X371062D02*
X371531Y247716D01*
X371766Y247545*
X372000Y247034*
Y245500*
X368719Y251466D02*
X372000D01*
X369422D02*
X368953Y251125D01*
X368719Y250784*
Y250273*
X368953Y249932*
X369422Y249591*
X370125Y249420*
X370594*
X371297Y249591*
X371766Y249932*
X372000Y250273*
Y250784*
X371766Y251125*
X371297Y251466*
X369422Y255045D02*
X368953Y254705D01*
X368719Y254364*
Y253852*
X368953Y253511*
X369422Y253170*
X370125Y253000*
X370594*
X371297Y253170*
X371766Y253511*
X372000Y253852*
Y254364*
X371766Y254705*
X371297Y255045*
X367078Y256580D02*
X372000D01*
X368719Y258284D02*
X371062Y256580D01*
X370125Y257261D02*
X372000Y258455D01*
X367078Y265102D02*
X372000D01*
X367078Y263909D02*
Y266295D01*
X368719Y267830D02*
X372000D01*
X370125D02*
X369422Y268000D01*
X368953Y268341*
X368719Y268682*
Y269193*
X367078Y270727D02*
X367312Y270898D01*
X367312D02*
X367078Y271068D01*
X366844Y270898*
X367078Y270727*
X368719Y270898D02*
X372000D01*
X368719Y274648D02*
X372469D01*
X373172Y274477*
X373406Y274307*
X373641Y273966*
Y273455*
X373406Y273114*
X369422Y274648D02*
X368953Y274307D01*
X368719Y273966*
Y273455*
X368953Y273114*
X369422Y272773*
X370125Y272602*
X370594*
X371297Y272773*
X371766Y273114*
X372000Y273455*
Y273966*
X371766Y274307*
X371297Y274648*
X368719Y278227D02*
X372469D01*
X373172Y278057*
X373406Y277886*
X373641Y277545*
Y277034*
X373406Y276693*
X369422Y278227D02*
X368953Y277886D01*
X368719Y277545*
Y277034*
X368953Y276693*
X369422Y276352*
X370125Y276182*
X370594*
X371297Y276352*
X371766Y276693*
X372000Y277034*
Y277545*
X371766Y277886*
X371297Y278227*
X370125Y279761D02*
Y281807D01*
X369656*
X369187Y281636*
X369187D02*
X368953Y281466D01*
X368719Y281125*
Y280614*
X368953Y280273*
X369422Y279932*
X370125Y279761*
X370594*
X371297Y279932*
X371766Y280273*
X372000Y280614*
Y281125*
X371766Y281466*
X371297Y281807*
X368719Y283341D02*
X372000D01*
X370125D02*
X369422Y283511D01*
X368953Y283852*
X368719Y284193*
Y284705*
X407578Y117500D02*
X412500D01*
X407578D02*
Y119716D01*
X409922Y117500D02*
Y118864D01*
X407578Y121250D02*
X412500Y122102D01*
X407578Y122955D02*
X412500Y122102D01*
X407578Y122955D02*
X412500Y123807D01*
X407578Y124659D02*
X412500Y123807D01*
X407578Y130114D02*
X412500D01*
X407578D02*
Y131648D01*
X407812Y132159*
X407812D02*
X408047Y132330D01*
X408516Y132500*
X408984*
X409453Y132330*
X409687Y132159*
X409687D02*
X409922Y131648D01*
Y130114*
Y131307D02*
X412500Y132500D01*
X408281Y136420D02*
X407812Y136080D01*
X407812D02*
X407578Y135568D01*
Y134886*
X407812Y134375*
X407812D02*
X408281Y134034D01*
X408750*
X409219Y134205*
X409453Y134375*
X409687Y134716*
X409687D02*
X410156Y135739D01*
X410391Y136080*
X410625Y136250*
X411094Y136420*
X411797*
X412266Y136080*
X412500Y135568*
Y134886*
X412266Y134375*
X411797Y134034*
X408750Y138125D02*
X408516D01*
X408047Y138295*
X407812Y138466*
X407812D02*
X407578Y138807D01*
Y139489*
X407812Y139830*
X407812D02*
X408047Y140000D01*
X408516Y140170*
X408984*
X409453Y140000*
X410156Y139659*
X412500Y137955*
Y140341*
X407578Y142216D02*
Y144091D01*
X409453Y143068*
Y143580*
X409687Y143920*
X409687D02*
X409922Y144091D01*
X410625Y144261*
X411094*
X411797Y144091*
X412266Y143750*
X412500Y143239*
Y142727*
X412266Y142216*
X412031Y142045*
X411562Y141875*
X408750Y145966D02*
X408516D01*
X408047Y146136*
X407812Y146307*
X407812D02*
X407578Y146648D01*
Y147330*
X407812Y147670*
X407812D02*
X408047Y147841D01*
X408516Y148011*
X408984*
X409453Y147841*
X410156Y147500*
X412500Y145795*
Y148182*
X407578Y171500D02*
X412500D01*
X407578D02*
Y173716D01*
X409922Y171500D02*
Y172864D01*
X407578Y175250D02*
X412500Y176102D01*
X407578Y176955D02*
X412500Y176102D01*
X407578Y176955D02*
X412500Y177807D01*
X407578Y178659D02*
X412500Y177807D01*
X407578Y184114D02*
X412500D01*
X407578D02*
Y185648D01*
X407812Y186159*
X407812D02*
X408047Y186330D01*
X408516Y186500*
X408984*
X409453Y186330*
X409687Y186159*
X409687D02*
X409922Y185648D01*
Y184114*
Y185307D02*
X412500Y186500D01*
X408281Y190420D02*
X407812Y190080D01*
X407812D02*
X407578Y189568D01*
Y188886*
X407812Y188375*
X407812D02*
X408281Y188034D01*
X408750*
X409219Y188205*
X409453Y188375*
X409687Y188716*
X409687D02*
X410156Y189739D01*
X410391Y190080*
X410625Y190250*
X411094Y190420*
X411797*
X412266Y190080*
X412500Y189568*
Y188886*
X412266Y188375*
X411797Y188034*
X407578Y193659D02*
X410859Y191955D01*
Y194511*
X407578Y193659D02*
X412500D01*
X407578Y196898D02*
X407812Y196386D01*
X407812D02*
X408281Y196216D01*
X408750*
X409219Y196386*
X409453Y196727*
X409687Y197409*
X409687D02*
X409922Y197920D01*
X410391Y198261*
X410859Y198432*
X411562*
X411562D02*
X412031Y198261D01*
X412266Y198091*
X412500Y197580*
Y196898*
X412266Y196386*
X412031Y196216*
X411562Y196045*
X411562D02*
X410859D01*
X410391Y196216*
X409922Y196557*
X409687Y197068*
X409687D02*
X409453Y197750D01*
X409219Y198091*
X408750Y198261*
X408281*
X407812Y198091*
X407812D02*
X407578Y197580D01*
Y196898*
Y202182D02*
Y200477D01*
X409687Y200307*
X409687D02*
X409453Y200477D01*
X409219Y200989*
Y201500*
X409453Y202011*
X409922Y202352*
X410625Y202523*
X411094Y202352*
X411797Y202182*
X412266Y201841*
X412500Y201330*
Y200818*
X412266Y200307*
X412031Y200136*
X411562Y199966*
X64057Y107750D02*
X63886Y108219D01*
X63545Y108688*
X63545D02*
X63205Y108922D01*
X62523*
X62182Y108688*
X62182D02*
X61841Y108219D01*
X61670Y107750*
X61500Y107047*
Y105875*
X61670Y105172*
X61841Y104703*
X62182Y104234*
X62523Y104000*
X63205*
X63545Y104234*
X63886Y104703*
X64057Y105172*
X65591Y108922D02*
Y104000D01*
Y108922D02*
X67125D01*
X67636Y108688*
X67636D02*
X67807Y108453D01*
X67977Y107984*
Y107281*
X67807Y106813*
X67807D02*
X67636Y106578D01*
X67125Y106344*
X65591*
X69511Y108922D02*
Y104000D01*
Y108922D02*
X71045D01*
X71557Y108688*
X71557D02*
X71727Y108453D01*
X71898Y107984*
Y107516*
X71727Y107047*
X71557Y106813*
X71557D02*
X71045Y106578D01*
X69511*
X70705D02*
X71898Y104000D01*
X73602Y104469D02*
X73432Y104234D01*
X73602Y104000*
X73773Y104234*
X73602Y104469*
X79227Y108922D02*
Y104000D01*
Y108922D02*
X80761D01*
X81273Y108688*
X81273D02*
X81443Y108453D01*
X81614Y107984*
Y107516*
X81443Y107047*
X81273Y106813*
X81273D02*
X80761Y106578D01*
X79227*
X80420D02*
X81614Y104000D01*
X83148Y105875D02*
X85193D01*
Y106344*
X85023Y106813*
X85023D02*
X84852Y107047D01*
X84511Y107281*
X84000*
X83659Y107047*
X83318Y106578*
X83148Y105875*
Y105406*
X83318Y104703*
X83659Y104234*
X84000Y104000*
X84511*
X84852Y104234*
X85193Y104703*
X86727Y107281D02*
X87750Y104000D01*
X88773Y107281D02*
X87750Y104000D01*
X90477Y104469D02*
X90307Y104234D01*
X90477Y104000*
X90648Y104234*
X90477Y104469*
X97807Y108922D02*
X96102Y105641D01*
X98659*
X97807Y108922D02*
Y104000D01*
X132057Y130750D02*
X131886Y131219D01*
X131545Y131688*
X131545D02*
X131205Y131922D01*
X130523*
X130182Y131688*
X130182D02*
X129841Y131219D01*
X129670Y130750*
X129500Y130047*
Y128875*
X129670Y128172*
X129841Y127703*
X130182Y127234*
X130523Y127000*
X131205*
X131545Y127234*
X131886Y127703*
X132057Y128172*
Y128875*
X131205D02*
X132057D01*
X133591Y131922D02*
Y127000D01*
Y131922D02*
X135125D01*
X135636Y131688*
X135636D02*
X135807Y131453D01*
X135977Y130984*
Y130281*
X135807Y129813*
X135807D02*
X135636Y129578D01*
X135125Y129344*
X133591*
X139898Y131219D02*
X139557Y131688D01*
X139557D02*
X139045Y131922D01*
X138364*
X137852Y131688*
X137852D02*
X137511Y131219D01*
Y130750*
X137682Y130281*
X137852Y130047*
X138193Y129813*
X138193D02*
X139216Y129344D01*
X139557Y129109*
X139727Y128875*
X139898Y128406*
Y127703*
X139557Y127234*
X139045Y127000*
X138364*
X137852Y127234*
X137511Y127703*
X145352Y131922D02*
Y128406D01*
X145523Y127703*
X145864Y127234*
X146375Y127000*
X146716*
X147227Y127234*
X147568Y127703*
X147739Y128406*
Y131922*
X151659Y131219D02*
X151318Y131688D01*
X151318D02*
X150807Y131922D01*
X150125*
X149614Y131688*
X149614D02*
X149273Y131219D01*
Y130750*
X149443Y130281*
X149614Y130047*
X149955Y129813*
X149955D02*
X150977Y129344D01*
X151318Y129109*
X151489Y128875*
X151659Y128406*
Y127703*
X151318Y127234*
X150807Y127000*
X150125*
X149614Y127234*
X149273Y127703*
X154557Y131922D02*
X153193Y127000D01*
X154557Y131922D02*
X155920Y127000D01*
X153705Y128641D02*
X155409D01*
X157455Y131922D02*
Y127000D01*
Y131922D02*
X158989D01*
X159500Y131688*
X159500D02*
X159670Y131453D01*
X159841Y130984*
Y130516*
X159670Y130047*
X159500Y129813*
X159500D02*
X158989Y129578D01*
X157455*
X158648D02*
X159841Y127000D01*
X162568Y131922D02*
Y127000D01*
X161375Y131922D02*
X163761D01*
G54D22*
X249000Y207281D02*
Y204000D01*
Y207281D02*
X249795D01*
X250136Y207125*
X250364Y206813*
X250364D02*
X250477Y206500D01*
X250591Y206031*
Y205250*
X250477Y204781*
X250364Y204469*
X250136Y204156*
X249795Y204000*
X249000*
X251841Y207281D02*
X253091D01*
X252409Y206031*
X252750*
X252977Y205875*
X253091Y205719*
X253205Y205250*
Y204938*
X253205D02*
X253091Y204469D01*
X252864Y204156*
X252523Y204000*
X252182*
X251841Y204156*
X251727Y204313*
X251727D02*
X251614Y204625D01*
X254909Y207281D02*
X254568Y207125D01*
X254341Y206656*
X254227Y205875*
Y205406*
X254341Y204625*
X254568Y204156*
X254909Y204000*
X255136*
X255477Y204156*
X255705Y204625*
X255818Y205406*
Y205875*
X255705Y206656*
X255477Y207125*
X255136Y207281*
X254909*
X257523D02*
X257182Y207125D01*
X256955Y206656*
X256841Y205875*
Y205406*
X256955Y204625*
X257182Y204156*
X257523Y204000*
X257750*
X258091Y204156*
X258318Y204625*
X258432Y205406*
Y205875*
X258318Y206656*
X258091Y207125*
X257750Y207281*
X257523*
X303000Y207781D02*
Y204500D01*
Y207781D02*
X303795D01*
X304136Y207625*
X304364Y207313*
X304364D02*
X304477Y207000D01*
X304591Y206531*
Y205750*
X304477Y205281*
X304364Y204969*
X304136Y204656*
X303795Y204500*
X303000*
X305841Y207781D02*
X307091D01*
X306409Y206531*
X306750*
X306977Y206375*
X307091Y206219*
X307205Y205750*
Y205438*
X307205D02*
X307091Y204969D01*
X306864Y204656*
X306523Y204500*
X306182*
X305841Y204656*
X305727Y204813*
X305727D02*
X305614Y205125D01*
X308909Y207781D02*
X308568Y207625D01*
X308341Y207156*
X308227Y206375*
Y205906*
X308341Y205125*
X308568Y204656*
X308909Y204500*
X309136*
X309477Y204656*
X309705Y205125*
X309818Y205906*
Y206375*
X309705Y207156*
X309477Y207625*
X309136Y207781*
X308909*
X310841Y207156D02*
X311068Y207313D01*
X311068D02*
X311409Y207781D01*
Y204500*
X195000Y207281D02*
Y204000D01*
Y207281D02*
X195795D01*
X196136Y207125*
X196364Y206813*
X196364D02*
X196477Y206500D01*
X196591Y206031*
Y205250*
X196477Y204781*
X196364Y204469*
X196136Y204156*
X195795Y204000*
X195000*
X197841Y207281D02*
X199091D01*
X198409Y206031*
X198750*
X198977Y205875*
X199091Y205719*
X199205Y205250*
Y204938*
X199205D02*
X199091Y204469D01*
X198864Y204156*
X198523Y204000*
X198182*
X197841Y204156*
X197727Y204313*
X197727D02*
X197614Y204625D01*
X200909Y207281D02*
X200568Y207125D01*
X200341Y206656*
X200227Y205875*
Y205406*
X200341Y204625*
X200568Y204156*
X200909Y204000*
X201136*
X201477Y204156*
X201705Y204625*
X201818Y205406*
Y205875*
X201705Y206656*
X201477Y207125*
X201136Y207281*
X200909*
X202955Y206500D02*
Y206656D01*
X203068Y206969*
X203182Y207125*
X203409Y207281*
X203864*
X204091Y207125*
X204205Y206969*
X204318Y206656*
Y206344*
X204205Y206031*
X203977Y205563*
X203977D02*
X202841Y204000D01*
X204432*
X296000Y160727D02*
X295687Y160614D01*
X295375Y160386*
X295219Y160159*
Y159705*
X295375Y159477*
X295687Y159250*
X296000Y159136*
X296469Y159023*
X297250*
X297719Y159136*
X298031Y159250*
X298344Y159477*
X298500Y159705*
Y160159*
X298344Y160386*
X298031Y160614*
X297719Y160727*
X295844Y161750D02*
X295687Y161977D01*
X295219Y162318*
X298500*
X295219Y164818D02*
Y163682D01*
X296625Y163568*
X296469Y163682*
X296312Y164023*
Y164364*
X296469Y164705*
X296781Y164932*
X297250Y165045*
X297562Y164932*
X298031Y164818*
X298344Y164591*
X298500Y164250*
Y163909*
X298344Y163568*
X298187Y163455*
X297875Y163341*
X348781Y177864D02*
X346281D01*
X345813Y177977*
X345813D02*
X345656Y178091D01*
X345500Y178318*
Y178545*
X345656Y178773*
X345813Y178886*
X345813D02*
X346281Y179000D01*
X346594*
X348313Y175477D02*
X348625Y175591D01*
X348781Y175932*
Y176159*
X348625Y176500*
X348156Y176727*
X347375Y176841*
X346594*
X345969Y176727*
X345656Y176500*
X345500Y176159*
Y176045*
X345656Y175705*
X345969Y175477*
X346438Y175364*
X346438D02*
X346594D01*
X347063Y175477*
X347063D02*
X347375Y175705D01*
X347531Y176045*
Y176159*
X347375Y176500*
X347063Y176727*
X347063D02*
X346594Y176841D01*
X139329Y271334D02*
X142610D01*
X139329D02*
Y272130D01*
X139485Y272471*
X139797Y272698*
X140110Y272812*
X140579Y272925*
X141360*
X141829Y272812*
X142141Y272698*
X142454Y272471*
X142610Y272130*
Y271334*
X139954Y273948D02*
X139797Y274175D01*
X139329Y274516*
X142610*
X139329Y276221D02*
X139485Y275880D01*
X139954Y275652*
X140735Y275539*
X141204*
X141985Y275652*
X142454Y275880*
X142610Y276221*
Y276448*
X142454Y276789*
X141985Y277016*
X141204Y277130*
X140735*
X139954Y277016*
X139485Y276789*
X139329Y276448*
Y276221*
X140110Y278266D02*
X139954D01*
X139641Y278380*
X139485Y278493*
X139329Y278721*
Y279175*
X139485Y279402*
X139641Y279516*
X139954Y279630*
X140266*
X140579Y279516*
X141047Y279289*
X142610Y278152*
Y279743*
X144036Y272204D02*
X147318D01*
X144036D02*
Y273000D01*
X144193Y273341*
X144505Y273568*
X144818Y273682*
X145286Y273795*
X146068*
X146536Y273682*
X146849Y273568*
X147161Y273341*
X147318Y273000*
Y272204*
X144661Y274818D02*
X144505Y275045D01*
X144036Y275386*
X147318*
X144036Y277091D02*
X144193Y276750D01*
X144661Y276522*
X145443Y276409*
X145911*
X146693Y276522*
X147161Y276750*
X147318Y277091*
Y277318*
X147161Y277659*
X146693Y277886*
X145911Y278000*
X145443*
X144661Y277886*
X144193Y277659*
X144036Y277318*
Y277091*
X144661Y279022D02*
X144505Y279250D01*
X144036Y279591*
X147318*
X187500Y160841D02*
X187187Y160727D01*
X186875Y160500*
X186719Y160273*
Y159818*
X186875Y159591*
X187187Y159364*
X187500Y159250*
X187969Y159136*
X188750*
X189219Y159250*
X189531Y159364*
X189844Y159591*
X190000Y159818*
Y160273*
X189844Y160500*
X189531Y160727*
X189219Y160841*
X187344Y161864D02*
X187187Y162091D01*
X186719Y162432*
X190000*
X186719Y165045D02*
X190000Y163909D01*
X186719Y163455D02*
Y165045D01*
X239598Y178072D02*
X237098D01*
X236629Y178186*
X236473Y178299*
X236316Y178527*
Y178754*
X236473Y178981*
X236629Y179095*
X237098Y179208*
X237410*
X239598Y175458D02*
X236316Y176595D01*
X239598Y177049D02*
Y175458D01*
X234000Y265455D02*
X234313Y265568D01*
X234625Y265795*
X234781Y266023*
Y266477*
X234625Y266705*
X234313Y266932*
X234000Y267045*
X233531Y267159*
X232750*
X232281Y267045*
X231969Y266932*
X231656Y266705*
X231500Y266477*
Y266023*
X231656Y265795*
X231969Y265568*
X232281Y265455*
X233688Y262955D02*
X233219Y263068D01*
X232906Y263295*
X232750Y263636*
Y263750*
X232906Y264091*
X233219Y264318*
X233688Y264432*
X233844*
X234313Y264318*
X234625Y264091*
X234781Y263750*
Y263636*
X234625Y263295*
X234313Y263068*
X233688Y262955*
X232906*
X232125Y263068*
X231656Y263295*
X231500Y263636*
Y263864*
X231656Y264205*
X231969Y264318*
X184781Y244364D02*
X182281D01*
X181813Y244477*
X181813D02*
X181656Y244591D01*
X181500Y244818*
Y245045*
X181656Y245273*
X181813Y245386*
X181813D02*
X182281Y245500D01*
X182594*
X184000Y243227D02*
X184156D01*
X184469Y243114*
X184625Y243000*
X184781Y242773*
Y242318*
X184625Y242091*
X184469Y241977*
X184156Y241864*
X183844*
X183531Y241977*
X183063Y242205*
X183063D02*
X181500Y243341D01*
Y241750*
X227500Y220719D02*
Y224000D01*
Y220719D02*
X226705D01*
X226364Y220875*
X226136Y221187*
X226136D02*
X226023Y221500D01*
X225909Y221969*
Y222750*
X226023Y223219*
X226136Y223531*
X226364Y223844*
X226705Y224000*
X227500*
X224773Y221500D02*
Y221344D01*
X224659Y221031*
X224545Y220875*
X224318Y220719*
X223864*
X223636Y220875*
X223523Y221031*
X223409Y221344*
Y221656*
X223523Y221969*
X223750Y222437*
X223750D02*
X224886Y224000D01*
X223295*
X221591Y220719D02*
X221932Y220875D01*
X222159Y221344*
X222273Y222125*
Y222594*
X222159Y223375*
X221932Y223844*
X221591Y224000*
X221364*
X221023Y223844*
X220795Y223375*
X220682Y222594*
Y222125*
X220795Y221344*
X221023Y220875*
X221364Y220719*
X221591*
X218182D02*
X219318D01*
X219432Y222125*
X219318Y221969*
X218977Y221812*
X218977D02*
X218636D01*
X218636D02*
X218295Y221969D01*
X218068Y222281*
X217955Y222750*
X218068Y223062*
X218068D02*
X218182Y223531D01*
X218409Y223844*
X218750Y224000*
X219091*
X219432Y223844*
X219545Y223687*
X219545D02*
X219659Y223375D01*
X194227Y218781D02*
Y215500D01*
Y218781D02*
X195250D01*
X195591Y218625*
X195705Y218469*
X195818Y218156*
Y217844*
X195705Y217531*
X195591Y217375*
X195250Y217219*
X194227*
X195023D02*
X195818Y215500D01*
X196955Y218000D02*
Y218156D01*
X197068Y218469*
X197182Y218625*
X197409Y218781*
X197864*
X198091Y218625*
X198205Y218469*
X198318Y218156*
Y217844*
X198205Y217531*
X197977Y217063*
X197977D02*
X196841Y215500D01*
X198432*
X200136Y218781D02*
X199795Y218625D01*
X199568Y218156*
X199455Y217375*
Y216906*
X199568Y216125*
X199795Y215656*
X200136Y215500*
X200364*
X200705Y215656*
X200932Y216125*
X201045Y216906*
Y217375*
X200932Y218156*
X200705Y218625*
X200364Y218781*
X200136*
X203545Y217688D02*
X203432Y217219D01*
X203205Y216906*
X202864Y216750*
X202750*
X202409Y216906*
X202182Y217219*
X202068Y217688*
X202068D02*
Y217844D01*
X202182Y218313*
X202182D02*
X202409Y218625D01*
X202750Y218781*
X202864*
X203205Y218625*
X203432Y218313*
X203432D02*
X203545Y217688D01*
X203545D02*
Y216906D01*
X203432Y216125*
X203205Y215656*
X202864Y215500*
X202636*
X202295Y215656*
X202182Y215969*
X117500Y102219D02*
Y105500D01*
Y102219D02*
X116705D01*
X116364Y102375*
X116136Y102687*
X116136D02*
X116023Y103000D01*
X115909Y103469*
Y104250*
X116023Y104719*
X116136Y105031*
X116364Y105344*
X116705Y105500*
X117500*
X114773Y103000D02*
Y102844D01*
X114659Y102531*
X114545Y102375*
X114318Y102219*
X113864*
X113636Y102375*
X113523Y102531*
X113409Y102844*
Y103156*
X113523Y103469*
X113750Y103937*
X113750D02*
X114886Y105500D01*
X113295*
X112273Y102844D02*
X112045Y102687D01*
X112045D02*
X111705Y102219D01*
Y105500*
X110682Y102844D02*
X110455Y102687D01*
X110455D02*
X110114Y102219D01*
Y105500*
X248727Y212781D02*
Y209500D01*
Y212781D02*
X249750D01*
X250091Y212625*
X250205Y212469*
X250318Y212156*
Y211844*
X250205Y211531*
X250091Y211375*
X249750Y211219*
X248727*
X249523D02*
X250318Y209500D01*
X251568Y212781D02*
X252818D01*
X252136Y211531*
X252477*
X252705Y211375*
X252818Y211219*
X252932Y210750*
Y210438*
X252932D02*
X252818Y209969D01*
X252591Y209656*
X252250Y209500*
X251909*
X251568Y209656*
X251455Y209813*
X251455D02*
X251341Y210125D01*
X254636Y212781D02*
X254295Y212625D01*
X254068Y212156*
X253955Y211375*
Y210906*
X254068Y210125*
X254295Y209656*
X254636Y209500*
X254864*
X255205Y209656*
X255432Y210125*
X255545Y210906*
Y211375*
X255432Y212156*
X255205Y212625*
X254864Y212781*
X254636*
X257932Y212313D02*
X257818Y212625D01*
X257477Y212781*
X257250*
X256909Y212625*
X256682Y212156*
X256568Y211375*
Y210594*
X256682Y209969*
X256909Y209656*
X257250Y209500*
X257364*
X257705Y209656*
X257932Y209969*
X258045Y210438*
X258045D02*
Y210594D01*
X257932Y211063*
X257932D02*
X257705Y211375D01*
X257364Y211531*
X257250*
X256909Y211375*
X256682Y211063*
X256682D02*
X256568Y210594D01*
X303114Y213281D02*
Y210000D01*
Y213281D02*
X304136D01*
X304477Y213125*
X304591Y212969*
X304705Y212656*
Y212344*
X304591Y212031*
X304477Y211875*
X304136Y211719*
X303114*
X303909D02*
X304705Y210000D01*
X305955Y213281D02*
X307205D01*
X306523Y212031*
X306864*
X307091Y211875*
X307205Y211719*
X307318Y211250*
Y210938*
X307318D02*
X307205Y210469D01*
X306977Y210156*
X306636Y210000*
X306295*
X305955Y210156*
X305841Y210313*
X305841D02*
X305727Y210625D01*
X309023Y213281D02*
X308682Y213125D01*
X308455Y212656*
X308341Y211875*
Y211406*
X308455Y210625*
X308682Y210156*
X309023Y210000*
X309250*
X309591Y210156*
X309818Y210625*
X309932Y211406*
Y211875*
X309818Y212656*
X309591Y213125*
X309250Y213281*
X309023*
X312545D02*
X311409Y210000D01*
X310955Y213281D02*
X312545D01*
X194614D02*
Y210000D01*
Y213281D02*
X195636D01*
X195977Y213125*
X196091Y212969*
X196205Y212656*
Y212344*
X196091Y212031*
X195977Y211875*
X195636Y211719*
X194614*
X195409D02*
X196205Y210000D01*
X197455Y213281D02*
X198705D01*
X198023Y212031*
X198364*
X198591Y211875*
X198705Y211719*
X198818Y211250*
Y210938*
X198818D02*
X198705Y210469D01*
X198477Y210156*
X198136Y210000*
X197795*
X197455Y210156*
X197341Y210313*
X197341D02*
X197227Y210625D01*
X200523Y213281D02*
X200182Y213125D01*
X199955Y212656*
X199841Y211875*
Y211406*
X199955Y210625*
X200182Y210156*
X200523Y210000*
X200750*
X201091Y210156*
X201318Y210625*
X201432Y211406*
Y211875*
X201318Y212656*
X201091Y213125*
X200750Y213281*
X200523*
X203023D02*
X202682Y213125D01*
X202568Y212813*
X202568D02*
Y212500D01*
X202682Y212188*
X202682D02*
X202909Y212031D01*
X203364Y211875*
X203705Y211719*
X203932Y211406*
X204045Y211094*
Y210625*
X203932Y210313*
X203932D02*
X203818Y210156D01*
X203477Y210000*
X203023*
X202682Y210156*
X202568Y210313*
X202568D02*
X202455Y210625D01*
Y211094*
X202568Y211406*
X202795Y211719*
X203136Y211875*
X203591Y212031*
X203818Y212188*
X203818D02*
X203932Y212500D01*
Y212813*
X203932D02*
X203818Y213125D01*
X203477Y213281*
X203023*
X359219Y158636D02*
X361719D01*
X362187Y158523*
X362187D02*
X362344Y158409D01*
X362500Y158182*
Y157955*
X362344Y157727*
X362187Y157614*
X362187D02*
X361719Y157500D01*
X361406*
X359844Y159659D02*
X359687Y159886D01*
X359687D02*
X359219Y160227D01*
X362500*
X359219Y161932D02*
X359375Y161591D01*
X359844Y161364*
X360625Y161250*
X361094*
X361875Y161364*
X362344Y161591*
X362500Y161932*
Y162159*
X362344Y162500*
X361875Y162727*
X361094Y162841*
X360625*
X359844Y162727*
X359375Y162500*
X359219Y162159*
Y161932*
Y165341D02*
Y164205D01*
X360625Y164091*
X360469Y164205*
X360312Y164545*
X360312D02*
Y164886D01*
X360312D02*
X360469Y165227D01*
X360781Y165455*
X361250Y165568*
X361562Y165455*
X361562D02*
X362031Y165341D01*
X362344Y165114*
X362500Y164773*
Y164432*
X362344Y164091*
X362187Y163977*
X362187D02*
X361875Y163864D01*
X282781Y275864D02*
X280281D01*
X279812Y275977*
X279812D02*
X279656Y276091D01*
X279500Y276318*
Y276545*
X279656Y276773*
X279812Y276886*
X279812D02*
X280281Y277000D01*
X280594*
X282156Y274841D02*
X282312Y274614D01*
X282312D02*
X282781Y274273D01*
X279500*
X282781Y272568D02*
X282625Y272909D01*
X282156Y273136*
X281375Y273250*
X280906*
X280125Y273136*
X279656Y272909*
X279500Y272568*
Y272341*
X279656Y272000*
X280125Y271773*
X280906Y271659*
X281375*
X282156Y271773*
X282625Y272000*
X282781Y272341*
Y272568*
Y269045D02*
X279500Y270182D01*
X282781Y270636D02*
Y269045D01*
X145364Y136219D02*
Y138719D01*
X145477Y139187*
X145477D02*
X145591Y139344D01*
X145818Y139500*
X146045*
X146273Y139344*
X146386Y139187*
X146386D02*
X146500Y138719D01*
Y138406*
X144341Y136844D02*
X144114Y136687D01*
X144114D02*
X143773Y136219D01*
Y139500*
X142068Y136219D02*
X142409Y136375D01*
X142636Y136844*
X142750Y137625*
Y138094*
X142636Y138875*
X142409Y139344*
X142068Y139500*
X141841*
X141500Y139344*
X141273Y138875*
X141159Y138094*
Y137625*
X141273Y136844*
X141500Y136375*
X141841Y136219*
X142068*
X139568D02*
X139909Y136375D01*
X140023Y136687*
X140023D02*
Y137000D01*
X139909Y137312*
X139909D02*
X139682Y137469D01*
X139227Y137625*
X138886Y137781*
X138659Y138094*
X138545Y138406*
Y138875*
X138659Y139187*
X138659D02*
X138773Y139344D01*
X139114Y139500*
X139568*
X139909Y139344*
X140023Y139187*
X140023D02*
X140136Y138875D01*
Y138406*
X140023Y138094*
X139795Y137781*
X139455Y137625*
X139000Y137469*
X138773Y137312*
X138773D02*
X138659Y137000D01*
Y136687*
X138659D02*
X138773Y136375D01*
X139114Y136219*
X139568*
X335719Y132636D02*
X338219D01*
X338688Y132523*
X338688D02*
X338844Y132409D01*
X339000Y132182*
Y131955*
X338844Y131727*
X338688Y131614*
X338688D02*
X338219Y131500D01*
X337906*
X336344Y133659D02*
X336188Y133886D01*
X336188D02*
X335719Y134227D01*
X339000*
X335719Y135932D02*
X335875Y135591D01*
X336344Y135364*
X337125Y135250*
X337594*
X338375Y135364*
X338844Y135591*
X339000Y135932*
Y136159*
X338844Y136500*
X338375Y136727*
X337594Y136841*
X337125*
X336344Y136727*
X335875Y136500*
X335719Y136159*
Y135932*
X336813Y139341D02*
X337281Y139227D01*
X337594Y139000*
X337750Y138659*
Y138545*
X337594Y138205*
X337281Y137977*
X336813Y137864*
X336813D02*
X336656D01*
X336188Y137977*
X336188D02*
X335875Y138205D01*
X335719Y138545*
Y138659*
X335875Y139000*
X336188Y139227*
X336188D02*
X336813Y139341D01*
X336813D02*
X337594D01*
X338375Y139227*
X338844Y139000*
X339000Y138659*
Y138432*
X338844Y138091*
X338531Y137977*
X149205Y270466D02*
X152486D01*
X149205D02*
Y271488D01*
X149361Y271829*
X149517Y271943*
X149830Y272057*
X150142*
X150455Y271943*
X150611Y271829*
X150767Y271488*
Y270466*
Y271261D02*
X152486Y272057D01*
X149830Y273079D02*
X149674Y273307D01*
X149205Y273648*
X152486*
X149205Y275352D02*
X149361Y275011D01*
X149830Y274784*
X150611Y274670*
X151080*
X151861Y274784*
X152330Y275011*
X152486Y275352*
Y275579*
X152330Y275920*
X151861Y276148*
X151080Y276261*
X150611*
X149830Y276148*
X149361Y275920*
X149205Y275579*
Y275352*
Y278420D02*
X151392Y277284D01*
Y278988*
X149205Y278420D02*
X152486D01*
X134774Y270965D02*
X138055D01*
X134774D02*
Y271988D01*
X134930Y272329*
X135087Y272443*
X135399Y272556*
X135712*
X136024Y272443*
X136180Y272329*
X136337Y271988*
Y270965*
Y271761D02*
X138055Y272556D01*
X135399Y273579D02*
X135243Y273806D01*
X134774Y274147*
X138055*
X134774Y275852D02*
X134930Y275511D01*
X135399Y275284*
X136180Y275170*
X136649*
X137430Y275284*
X137899Y275511*
X138055Y275852*
Y276079*
X137899Y276420*
X137430Y276647*
X136649Y276761*
X136180*
X135399Y276647*
X134930Y276420*
X134774Y276079*
Y275852*
Y278011D02*
Y279261D01*
X136024Y278579*
Y278920*
X136180Y279147*
X136337Y279261*
X136805Y279374*
X137118*
X137587Y279261*
X137899Y279034*
X138055Y278693*
Y278352*
X137899Y278011*
X137743Y277897*
X137430Y277784*
X407219Y143000D02*
X410500D01*
X407219D02*
Y143795D01*
X407375Y144136*
X407687Y144364*
X407687D02*
X408000Y144477D01*
X408469Y144591*
X409250*
X409719Y144477*
X410031Y144364*
X410344Y144136*
X410500Y143795*
Y143000*
X408000Y145727D02*
X407844D01*
X407531Y145841*
X407375Y145955*
X407219Y146182*
Y146636*
X407375Y146864*
X407531Y146977*
X407844Y147091*
X408156*
X408469Y146977*
X408937Y146750*
X408937D02*
X410500Y145614D01*
Y147205*
X407219Y148909D02*
X407375Y148568D01*
X407844Y148341*
X408625Y148227*
X409094*
X409875Y148341*
X410344Y148568*
X410500Y148909*
Y149136*
X410344Y149477*
X409875Y149705*
X409094Y149818*
X408625*
X407844Y149705*
X407375Y149477*
X407219Y149136*
Y148909*
X165191Y294726D02*
X167691D01*
X168159Y294612*
X168316Y294499*
X168472Y294271*
Y294044*
X168316Y293817*
X168159Y293703*
X167691Y293590*
X167378*
X165972Y295862D02*
X165816D01*
X165503Y295976*
X165347Y296090*
X165191Y296317*
Y296771*
X165347Y296999*
X165503Y297112*
X165816Y297226*
X166128*
X166441Y297112*
X166909Y296885*
X168472Y295749*
Y297340*
X165191Y299044D02*
X165347Y298703D01*
X165816Y298476*
X166597Y298362*
X167066*
X167847Y298476*
X168316Y298703*
X168472Y299044*
Y299271*
X168316Y299612*
X167847Y299840*
X167066Y299953*
X166597*
X165816Y299840*
X165347Y299612*
X165191Y299271*
Y299044*
Y302453D02*
Y301317D01*
X166597Y301203*
X166441Y301317*
X166284Y301658*
Y301999*
X166441Y302340*
X166753Y302567*
X167222Y302681*
X167534Y302567*
X168003Y302453*
X168316Y302226*
X168472Y301885*
Y301544*
X168316Y301203*
X168159Y301090*
X167847Y300976*
X390719Y189000D02*
X393062D01*
X393062D02*
X393531Y189114D01*
X393844Y189341*
X394000Y189682*
Y189909*
X393844Y190250*
X393531Y190477*
X393062Y190591*
X393062D02*
X390719D01*
Y192182D02*
X390875Y191841D01*
X391187Y191727*
X391187D02*
X391500D01*
X391812Y191841*
X391812D02*
X391969Y192068D01*
X392125Y192523*
X392281Y192864*
X392594Y193091*
X392906Y193205*
X393375*
X393687Y193091*
X393687D02*
X393844Y192977D01*
X394000Y192636*
Y192182*
X393844Y191841*
X393687Y191727*
X393687D02*
X393375Y191614D01*
X392906*
X392594Y191727*
X392281Y191955*
X392125Y192295*
X391969Y192750*
X391812Y192977*
X391812D02*
X391500Y193091D01*
X391187*
X391187D02*
X390875Y192977D01*
X390719Y192636*
Y192182*
X352636Y203781D02*
Y201281D01*
X352523Y200813*
X352523D02*
X352409Y200656D01*
X352182Y200500*
X351955*
X351727Y200656*
X351614Y200813*
X351614D02*
X351500Y201281D01*
Y201594*
X353659Y203156D02*
X353886Y203313D01*
X353886D02*
X354227Y203781D01*
Y200500*
X355250Y203156D02*
X355477Y203313D01*
X355477D02*
X355818Y203781D01*
Y200500*
X355763Y126317D02*
Y123817D01*
X355650Y123348*
X355536Y123192*
X355309Y123036*
X355081*
X354854Y123192*
X354741Y123348*
X354627Y123817*
Y124129*
X356786Y125692D02*
X357013Y125848D01*
X357354Y126317*
Y123036*
X240153Y159552D02*
X239841Y159438D01*
X239528Y159211*
X239372Y158983*
Y158529*
X239528Y158302*
X239841Y158074*
X240153Y157961*
X240622Y157847*
X241403*
X241872Y157961*
X242185Y158074*
X242497Y158302*
X242653Y158529*
Y158983*
X242497Y159211*
X242185Y159438*
X241872Y159552*
X240153Y160688D02*
X239997D01*
X239685Y160802*
X239528Y160915*
X239372Y161143*
X239372D02*
Y161597D01*
X239528Y161824*
X239685Y161938*
X239997Y162052*
X240310*
X240622Y161938*
X241091Y161711*
X242653Y160574*
Y162165*
X239997Y163188D02*
X239841Y163415D01*
X239372Y163756*
X242653*
X357719Y204364D02*
X361000D01*
X357719D02*
Y205386D01*
X357875Y205727*
X358031Y205841*
X358344Y205955*
X358656*
X358969Y205841*
X359125Y205727*
X359281Y205386*
Y204364*
Y205159D02*
X361000Y205955D01*
X358344Y206977D02*
X358187Y207205D01*
X358187D02*
X357719Y207545D01*
X361000*
X379341Y219281D02*
Y216000D01*
Y219281D02*
X380364D01*
X380705Y219125*
X380818Y218969*
X380932Y218656*
Y218344*
X380818Y218031*
X380705Y217875*
X380364Y217719*
X379341*
X380136D02*
X380932Y216000D01*
X382068Y218500D02*
Y218656D01*
X382182Y218969*
X382295Y219125*
X382523Y219281*
X382977*
X383205Y219125*
X383318Y218969*
X383432Y218656*
Y218344*
X383318Y218031*
X383091Y217563*
X381955Y216000*
X383545*
X426864Y213219D02*
Y215719D01*
X426977Y216187*
X426977D02*
X427091Y216344D01*
X427318Y216500*
X427545*
X427773Y216344*
X427886Y216187*
X427886D02*
X428000Y215719D01*
Y215406*
X425614Y213219D02*
X424364D01*
X425045Y214469*
X424705*
X424477Y214625*
X424364Y214781*
X424250Y215250*
Y215562*
X424250D02*
X424364Y216031D01*
X424591Y216344*
X424932Y216500*
X425273*
X425614Y216344*
X425727Y216187*
X425727D02*
X425841Y215875D01*
X293491Y178616D02*
X290991D01*
X290523Y178730*
X290366Y178843*
X290210Y179071*
Y179298*
X290366Y179525*
X290523Y179639*
X290991Y179752*
X291304*
X292866Y177593D02*
X293023Y177366D01*
X293491Y177025*
X290210*
X292710Y175889D02*
X292866D01*
X293179Y175775*
X293335Y175662*
X293491Y175434*
Y174980*
X293335Y174752*
X293179Y174639*
X292866Y174525*
X292554*
X292241Y174639*
X291773Y174866*
X290210Y176002*
Y174412*
X361500Y176159D02*
X361813Y176273D01*
X362125Y176500*
X362281Y176727*
Y177182*
X362125Y177409*
X361813Y177636*
X361500Y177750*
X361031Y177864*
X360250*
X359781Y177750*
X359469Y177636*
X359156Y177409*
X359000Y177182*
Y176727*
X359156Y176500*
X359469Y176273*
X359781Y176159*
X361656Y175136D02*
X361813Y174909D01*
X362281Y174568*
X359000*
X362281Y172977D02*
X362125Y173318D01*
X361813Y173432*
X361500*
X361188Y173318*
X361031Y173091*
X360875Y172636*
X360719Y172295*
X360406Y172068*
X360094Y171955*
X359625*
X359313Y172068*
X359156Y172182*
X359000Y172523*
Y172977*
X359156Y173318*
X359313Y173432*
X359625Y173545*
X360094*
X360406Y173432*
X360719Y173205*
X360875Y172864*
X361031Y172409*
X361188Y172182*
X361500Y172068*
X361813*
X362125Y172182*
X362281Y172523*
Y172977*
X380000Y213781D02*
Y210500D01*
Y213781D02*
X381023D01*
X381364Y213625*
X381477Y213469*
X381591Y213156*
Y212844*
X381477Y212531*
X381364Y212375*
X381023Y212219*
X380000*
X380795D02*
X381591Y210500D01*
X383750Y213781D02*
X382614Y211594D01*
X384318*
X383750Y213781D02*
Y210500D01*
X386818Y213781D02*
X385682D01*
X385568Y212375*
X385682Y212531*
X386023Y212688*
X386364*
X386705Y212531*
X386932Y212219*
X387045Y211750*
X386932Y211438*
X386818Y210969*
X386591Y210656*
X386250Y210500*
X385909*
X385568Y210656*
X385455Y210813*
X385341Y211125*
X118781Y258500D02*
X116437D01*
X116437D02*
X115969Y258386D01*
X115656Y258159*
X115500Y257818*
Y257591*
X115656Y257250*
X115969Y257023*
X116437Y256909*
X116437D02*
X118781D01*
Y254750D02*
X116594Y255886D01*
Y254182*
X118781Y254750D02*
X115500D01*
X120818Y272500D02*
X120705Y272813D01*
X120477Y273125*
X120250Y273281*
X119795*
X119568Y273125*
X119341Y272813*
X119227Y272500*
X119114Y272031*
Y271250*
X119227Y270781*
X119341Y270469*
X119568Y270156*
X119795Y270000*
X120250*
X120477Y270156*
X120705Y270469*
X120818Y270781*
X122068Y273281D02*
X123318D01*
X122636Y272031*
X122977*
X123205Y271875*
X123318Y271719*
X123432Y271250*
Y270938*
X123318Y270469*
X123091Y270156*
X122750Y270000*
X122409*
X122068Y270156*
X121955Y270313*
X121841Y270625*
X124568Y272500D02*
Y272656D01*
X124682Y272969*
X124795Y273125*
X125023Y273281*
X125477*
X125705Y273125*
X125818Y272969*
X125932Y272656*
Y272344*
X125818Y272031*
X125591Y271563*
X124455Y270000*
X126045*
X119841Y267281D02*
Y264000D01*
Y267281D02*
X120864D01*
X121205Y267125*
X121318Y266969*
X121432Y266656*
Y266344*
X121318Y266031*
X121205Y265875*
X120864Y265719*
X119841*
X120636D02*
X121432Y264000D01*
X122682Y267281D02*
X123932D01*
X123250Y266031*
X123591*
X123818Y265875*
X123932Y265719*
X124045Y265250*
Y264938*
X124045D02*
X123932Y264469D01*
X123705Y264156*
X123364Y264000*
X123023*
X122682Y264156*
X122568Y264313*
X122568D02*
X122455Y264625D01*
X118000Y222636D02*
X118313Y222750D01*
X118625Y222977*
X118781Y223205*
Y223659*
X118625Y223886*
X118313Y224114*
X118000Y224227*
X117531Y224341*
X116750*
X116281Y224227*
X115969Y224114*
X115656Y223886*
X115500Y223659*
Y223205*
X115656Y222977*
X115969Y222750*
X116281Y222636*
X118156Y221614D02*
X118313Y221386D01*
X118781Y221045*
X115500*
X118156Y220023D02*
X118313Y219795D01*
X118781Y219455*
X115500*
X76281Y273364D02*
X73781D01*
X73313Y273477*
X73156Y273591*
X73000Y273818*
Y274045*
X73156Y274273*
X73313Y274386*
X73781Y274500*
X74094*
X75656Y272341D02*
X75813Y272114D01*
X76281Y271773*
X73000*
X76281Y270068D02*
X76125Y270409D01*
X75656Y270636*
X74875Y270750*
X74406*
X73625Y270636*
X73156Y270409*
X73000Y270068*
Y269841*
X73156Y269500*
X73625Y269273*
X74406Y269159*
X74875*
X75656Y269273*
X76125Y269500*
X76281Y269841*
Y270068*
X105281Y271273D02*
X102000D01*
X105281D02*
Y270250D01*
X105125Y269909*
X104969Y269795*
X104656Y269682*
X104344*
X104031Y269795*
X103875Y269909*
X103719Y270250*
Y271273*
Y270477D02*
X102000Y269682D01*
X105281Y267523D02*
X103094Y268659D01*
Y266955*
X105281Y267523D02*
X102000D01*
X93781Y272273D02*
X90500D01*
X93781D02*
Y271250D01*
X93625Y270909*
X93469Y270795*
X93156Y270682*
X92844*
X92531Y270795*
X92375Y270909*
X92219Y271250*
Y272273*
Y271477D02*
X90500Y270682D01*
X93781Y268523D02*
X91594Y269659D01*
Y267955*
X93781Y268523D02*
X90500D01*
X92688Y265455D02*
X92219Y265568D01*
X91906Y265795*
X91750Y266136*
Y266250*
X91906Y266591*
X92219Y266818*
X92688Y266932*
X92844*
X93313Y266818*
X93625Y266591*
X93781Y266250*
Y266136*
X93625Y265795*
X93313Y265568*
X92688Y265455*
X91906*
X91125Y265568*
X90656Y265795*
X90500Y266136*
Y266364*
X90656Y266705*
X90969Y266818*
X86781Y272886D02*
X83500D01*
X86781D02*
Y271864D01*
X86625Y271523*
X86469Y271409*
X86156Y271295*
X85844*
X85531Y271409*
X85375Y271523*
X85219Y271864*
Y272886*
Y272091D02*
X83500Y271295D01*
X86781Y268795D02*
Y269932D01*
X85375Y270045*
X85531Y269932*
X85688Y269591*
Y269250*
X85531Y268909*
X85219Y268682*
X84750Y268568*
X84438Y268682*
X83969Y268795*
X83656Y269023*
X83500Y269364*
Y269705*
X83656Y270045*
X83813Y270159*
X84125Y270273*
X86781Y266864D02*
X86625Y267205D01*
X86156Y267432*
X85375Y267545*
X84906*
X84125Y267432*
X83656Y267205*
X83500Y266864*
Y266636*
X83656Y266295*
X84125Y266068*
X84906Y265955*
X85375*
X86156Y266068*
X86625Y266295*
X86781Y266636*
Y266864*
X123500Y257781D02*
X125091Y254500D01*
Y257781D02*
X123500Y254500D01*
X126114Y257156D02*
X126341Y257313D01*
X126341D02*
X126682Y257781D01*
Y254500*
X161000Y235545D02*
X161313Y235659D01*
X161625Y235886*
X161781Y236114*
Y236568*
X161625Y236795*
X161313Y237023*
X161000Y237136*
X160531Y237250*
X159750*
X159281Y237136*
X158969Y237023*
X158656Y236795*
X158500Y236568*
Y236114*
X158656Y235886*
X158969Y235659*
X159281Y235545*
X161156Y234523D02*
X161313Y234295D01*
X161781Y233955*
X158500*
X160688Y231455D02*
X160219Y231568D01*
X159906Y231795*
X159750Y232136*
Y232250*
X159906Y232591*
X160219Y232818*
X160688Y232932*
X160844*
X161313Y232818*
X161625Y232591*
X161781Y232250*
Y232136*
X161625Y231795*
X161313Y231568*
X160688Y231455*
X159906*
X159125Y231568*
X158656Y231795*
X158500Y232136*
Y232364*
X158656Y232705*
X158969Y232818*
X125168Y171000D02*
X125282Y170687D01*
X125282D02*
X125509Y170375D01*
X125736Y170219*
X126191*
X126418Y170375*
X126645Y170687*
X126645D02*
X126759Y171000D01*
X126873Y171469*
Y172250*
X126759Y172719*
X126645Y173031*
X126418Y173344*
X126191Y173500*
X125736*
X125509Y173344*
X125282Y173031*
X125168Y172719*
X124032Y171000D02*
Y170844D01*
X123918Y170531*
X123805Y170375*
X123577Y170219*
X123123*
X122895Y170375*
X122782Y170531*
X122668Y170844*
Y171156*
X122782Y171469*
X123009Y171937*
X123009D02*
X124145Y173500D01*
X122555*
X120055Y171312D02*
X120168Y171781D01*
X120395Y172094*
X120736Y172250*
X120850*
X121191Y172094*
X121418Y171781*
X121532Y171312*
X121532D02*
Y171156D01*
X121418Y170687*
X121418D02*
X121191Y170375D01*
X120850Y170219*
X120736*
X120395Y170375*
X120168Y170687*
X120168D02*
X120055Y171312D01*
X120055D02*
Y172094D01*
X120168Y172875*
X120395Y173344*
X120736Y173500*
X120964*
X121305Y173344*
X121418Y173031*
X77970Y166168D02*
Y168668D01*
X78084Y169136*
X78197Y169293*
X78424Y169449*
X78652*
X78879Y169293*
X78993Y169136*
X79106Y168668*
Y168355*
X76379Y166168D02*
X76720Y166324D01*
X76834Y166636*
Y166949*
X76720Y167261*
X76493Y167418*
X76038Y167574*
X75697Y167730*
X75470Y168043*
X75356Y168355*
Y168824*
X75470Y169136*
X75584Y169293*
X75924Y169449*
X76379*
X76720Y169293*
X76834Y169136*
X76947Y168824*
Y168355*
X76834Y168043*
X76606Y167730*
X76265Y167574*
X75811Y167418*
X75584Y167261*
X75470Y166949*
Y166636*
X75584Y166324*
X75924Y166168*
X76379*
X124159Y117500D02*
X124273Y117187D01*
X124273D02*
X124500Y116875D01*
X124727Y116719*
X125182*
X125409Y116875*
X125636Y117187*
X125636D02*
X125750Y117500D01*
X125864Y117969*
Y118750*
X125750Y119219*
X125636Y119531*
X125409Y119844*
X125182Y120000*
X124727*
X124500Y119844*
X124273Y119531*
X124159Y119219*
X122909Y116719D02*
X121659D01*
X122341Y117969*
X122000*
X121773Y118125*
X121659Y118281*
X121545Y118750*
Y119062*
X121545D02*
X121659Y119531D01*
X121886Y119844*
X122227Y120000*
X122568*
X122909Y119844*
X123023Y119687*
X123023D02*
X123136Y119375D01*
X120523Y117344D02*
X120295Y117187D01*
X120295D02*
X119955Y116719D01*
Y120000*
X81364Y111219D02*
Y113719D01*
X81477Y114187*
X81477D02*
X81591Y114344D01*
X81818Y114500*
X82045*
X82273Y114344*
X82386Y114187*
X82386D02*
X82500Y113719D01*
Y113406*
X78864Y112312D02*
X78977Y112781D01*
X79205Y113094*
X79545Y113250*
X79659*
X80000Y113094*
X80227Y112781*
X80341Y112312*
X80341D02*
Y112156D01*
X80227Y111687*
X80227D02*
X80000Y111375D01*
X79659Y111219*
X79545*
X79205Y111375*
X78977Y111687*
X78977D02*
X78864Y112312D01*
X78864D02*
Y113094D01*
X78977Y113875*
X79205Y114344*
X79545Y114500*
X79773*
X80114Y114344*
X80227Y114031*
X127318Y229000D02*
X127205Y229313D01*
X127205D02*
X126977Y229625D01*
X126750Y229781*
X126295*
X126068Y229625*
X125841Y229313*
X125841D02*
X125727Y229000D01*
X125614Y228531*
Y227750*
X125727Y227281*
X125841Y226969*
X126068Y226656*
X126295Y226500*
X126750*
X126977Y226656*
X127205Y226969*
X127318Y227281*
X128455Y229000D02*
Y229156D01*
X128568Y229469*
X128682Y229625*
X128909Y229781*
X129364*
X129591Y229625*
X129705Y229469*
X129818Y229156*
Y228844*
X129705Y228531*
X129477Y228063*
X129477D02*
X128341Y226500D01*
X129932*
X131068Y229000D02*
Y229156D01*
X131182Y229469*
X131295Y229625*
X131523Y229781*
X131977*
X132205Y229625*
X132318Y229469*
X132432Y229156*
Y228844*
X132318Y228531*
X132091Y228063*
X132091D02*
X130955Y226500D01*
X132545*
X166281Y121864D02*
X163781D01*
X163313Y121977*
X163313D02*
X163156Y122091D01*
X163000Y122318*
Y122545*
X163156Y122773*
X163313Y122886*
X163313D02*
X163781Y123000D01*
X164094*
X166281Y119705D02*
X164094Y120841D01*
Y119136*
X166281Y119705D02*
X163000D01*
X141919Y206600D02*
X144262D01*
X144262D02*
X144731Y206714D01*
X145044Y206941*
X145200Y207282*
Y207509*
X145044Y207850*
X144731Y208077*
X144262Y208191*
X144262D02*
X141919D01*
X142700Y209327D02*
X142544D01*
X142231Y209441*
X142075Y209555*
X141919Y209782*
Y210236*
X142075Y210464*
X142231Y210577*
X142544Y210691*
X142856*
X143169Y210577*
X143637Y210350*
X143637D02*
X145200Y209214D01*
Y210805*
X288832Y240970D02*
X286332D01*
X285864Y241084*
X285707Y241197*
X285551Y241424*
Y241652*
X285707Y241879*
X285864Y241993*
X286332Y242106*
X286645*
X288832Y238470D02*
Y239606D01*
X287426Y239720*
X287582Y239606*
X287739Y239265*
Y238924*
X287582Y238584*
X287270Y238356*
X286801Y238243*
X286489Y238356*
X286020Y238470*
X285707Y238697*
X285551Y239038*
Y239379*
X285707Y239720*
X285864Y239834*
X286176Y239947*
X301411Y239340D02*
X303911D01*
X304380Y239226*
X304536Y239113*
X304692Y238885*
Y238658*
X304536Y238431*
X304380Y238317*
X303911Y238204*
X303598*
X302036Y240363D02*
X301880Y240590D01*
X301411Y240931*
X304692*
X301411Y243544D02*
X304692Y242408D01*
X301411Y241954D02*
Y243544D01*
X428636Y158234D02*
Y155734D01*
X428523Y155265*
X428409Y155109*
X428182Y154953*
X427955*
X427727Y155109*
X427614Y155265*
X427500Y155734*
Y156047*
X429659Y157609D02*
X429886Y157765D01*
X430227Y158234*
Y154953*
X431818Y158234D02*
X431477Y158078D01*
X431364Y157765*
Y157453*
X431477Y157140*
X431705Y156984*
X432159Y156828*
X432500Y156672*
X432727Y156359*
X432841Y156047*
Y155578*
X432727Y155265*
X432614Y155109*
X432273Y154953*
X431818*
X431477Y155109*
X431364Y155265*
X431250Y155578*
Y156047*
X431364Y156359*
X431591Y156672*
X431932Y156828*
X432386Y156984*
X432614Y157140*
X432727Y157453*
Y157765*
X432614Y158078*
X432273Y158234*
X431818*
X351364Y240148D02*
Y242648D01*
X351477Y243117*
X351591Y243273*
X351818Y243429*
X352045*
X352273Y243273*
X352386Y243117*
X352500Y242648*
Y242335*
X350341Y240773D02*
X350114Y240617D01*
X349773Y240148*
Y243429*
X347386Y240617D02*
X347500Y240304D01*
X347841Y240148*
X348068*
X348409Y240304*
X348636Y240773*
X348750Y241554*
Y242335*
X348636Y242960*
X348409Y243273*
X348068Y243429*
X347955*
X347614Y243273*
X347386Y242960*
X347273Y242492*
Y242335*
X347386Y241867*
X347614Y241554*
X347955Y241398*
X348068*
X348409Y241554*
X348636Y241867*
X348750Y242335*
X393864Y265719D02*
Y268219D01*
X393977Y268687*
X394091Y268844*
X394318Y269000*
X394545*
X394773Y268844*
X394886Y268687*
X395000Y268219*
Y267906*
X392841Y266344D02*
X392614Y266187D01*
X392273Y265719*
Y269000*
X389773Y265719D02*
X390909D01*
X391023Y267125*
X390909Y266969*
X390568Y266812*
X390227*
X389886Y266969*
X389659Y267281*
X389545Y267750*
X389659Y268062*
X389773Y268531*
X390000Y268844*
X390341Y269000*
X390682*
X391023Y268844*
X391136Y268687*
X391250Y268375*
X389781Y254318D02*
X389625Y254545D01*
X389312Y254773*
X389312D02*
X389000Y254886D01*
X388531Y255000*
X387750*
X387281Y254886*
X386969Y254773*
X386656Y254545*
X386500Y254318*
Y253864*
X386656Y253636*
X386969Y253409*
X387281Y253295*
X387750Y253182*
X388531*
X389000Y253295*
X389312Y253409*
X389312D02*
X389625Y253636D01*
X389781Y253864*
Y254318*
X387125Y253977D02*
X386187Y253295D01*
X389156Y252159D02*
X389312Y251932D01*
X389312D02*
X389781Y251591D01*
X386500*
X384281Y266636D02*
X381000D01*
X384281D02*
Y265614D01*
X384125Y265273*
X383969Y265159*
X383656Y265045*
X383344*
X383031Y265159*
X382875Y265273*
X382719Y265614*
Y266636*
Y265841D02*
X381000Y265045D01*
X383656Y264023D02*
X383813Y263795D01*
X383813D02*
X384281Y263455D01*
X381000*
X383188Y260955D02*
X382719Y261068D01*
X382406Y261295*
X382250Y261636*
Y261750*
X382406Y262091*
X382719Y262318*
X383188Y262432*
X383188D02*
X383344D01*
X383813Y262318*
X383813D02*
X384125Y262091D01*
X384281Y261750*
Y261636*
X384125Y261295*
X383813Y261068*
X383813D02*
X383188Y260955D01*
X383188D02*
X382406D01*
X381625Y261068*
X381156Y261295*
X381000Y261636*
Y261864*
X381156Y262205*
X381469Y262318*
X384781Y235273D02*
X381500D01*
X384781D02*
Y234250D01*
X384625Y233909*
X384469Y233795*
X384156Y233682*
X383844*
X383531Y233795*
X383375Y233909*
X383219Y234250*
Y235273*
Y234477D02*
X381500Y233682D01*
X384000Y232545D02*
X384156D01*
X384469Y232432*
X384625Y232318*
X384781Y232091*
Y231636*
X384625Y231409*
X384469Y231295*
X384156Y231182*
X383844*
X383531Y231295*
X383063Y231523*
X383063D02*
X381500Y232659D01*
Y231068*
X384781Y229364D02*
X384625Y229705D01*
X384156Y229932*
X383375Y230045*
X382906*
X382125Y229932*
X381656Y229705*
X381500Y229364*
Y229136*
X381656Y228795*
X382125Y228568*
X382906Y228455*
X383375*
X384156Y228568*
X384625Y228795*
X384781Y229136*
Y229364*
X289219Y149682D02*
X289375Y149341D01*
X289844Y149114*
X290625Y149000*
X291094*
X291875Y149114*
X292344Y149341*
X292500Y149682*
Y149909*
X292344Y150250*
X291875Y150477*
X291094Y150591*
X290625*
X289844Y150477*
X289375Y150250*
X289219Y149909*
Y149682*
X292187Y151727D02*
X292344Y151614D01*
X292500Y151727*
X292344Y151841*
X292187Y151727*
X289844Y152864D02*
X289687Y153091D01*
X289687D02*
X289219Y153432D01*
X292500*
X290312Y154455D02*
X291875D01*
X292344Y154568*
X292500Y154795*
Y155136*
X292344Y155364*
X291875Y155705*
X290312D02*
X292500D01*
X289219Y156727D02*
X292500D01*
X289219D02*
Y158205D01*
X290781Y156727D02*
Y157636D01*
X182219Y150182D02*
X182375Y149841D01*
X182844Y149614*
X183625Y149500*
X184094*
X184875Y149614*
X185344Y149841*
X185500Y150182*
Y150409*
X185344Y150750*
X184875Y150977*
X184094Y151091*
X183625*
X182844Y150977*
X182375Y150750*
X182219Y150409*
Y150182*
X185187Y152227D02*
X185344Y152114D01*
X185500Y152227*
X185344Y152341*
X185187Y152227*
X182844Y153364D02*
X182687Y153591D01*
X182687D02*
X182219Y153932D01*
X185500*
X183312Y154955D02*
X184875D01*
X185344Y155068*
X185500Y155295*
Y155636*
X185344Y155864*
X184875Y156205*
X183312D02*
X185500D01*
X182219Y157227D02*
X185500D01*
X182219D02*
Y158705D01*
X183781Y157227D02*
Y158136D01*
X218227Y218781D02*
X219477D01*
X218795Y217531*
X219136*
X219364Y217375*
X219477Y217219*
X219591Y216750*
Y216438*
X219477Y215969*
X219250Y215656*
X218909Y215500*
X218568*
X218227Y215656*
X218114Y215813*
X218000Y216125*
X222091Y217688D02*
X221977Y217219D01*
X221750Y216906*
X221409Y216750*
X221295*
X220955Y216906*
X220727Y217219*
X220614Y217688*
Y217844*
X220727Y218313*
X220955Y218625*
X221295Y218781*
X221409*
X221750Y218625*
X221977Y218313*
X222091Y217688*
Y216906*
X221977Y216125*
X221750Y215656*
X221409Y215500*
X221182*
X220841Y215656*
X220727Y215969*
X223795Y218781D02*
X223455Y218625D01*
X223227Y218156*
X223114Y217375*
Y216906*
X223227Y216125*
X223455Y215656*
X223795Y215500*
X224023*
X224364Y215656*
X224591Y216125*
X224705Y216906*
Y217375*
X224591Y218156*
X224364Y218625*
X224023Y218781*
X223795*
X271727Y213281D02*
X272977D01*
X272295Y212031*
X272636*
X272864Y211875*
X272977Y211719*
X273091Y211250*
Y210938*
X273091D02*
X272977Y210469D01*
X272750Y210156*
X272409Y210000*
X272068*
X271727Y210156*
X271614Y210313*
X271614D02*
X271500Y210625D01*
X275591Y212188D02*
X275477Y211719D01*
X275250Y211406*
X274909Y211250*
X274795*
X274455Y211406*
X274227Y211719*
X274114Y212188*
X274114D02*
Y212344D01*
X274227Y212813*
X274227D02*
X274455Y213125D01*
X274795Y213281*
X274909*
X275250Y213125*
X275477Y212813*
X275477D02*
X275591Y212188D01*
X275591D02*
Y211406D01*
X275477Y210625*
X275250Y210156*
X274909Y210000*
X274682*
X274341Y210156*
X274227Y210469*
X277295Y213281D02*
X276955Y213125D01*
X276727Y212656*
X276614Y211875*
Y211406*
X276727Y210625*
X276955Y210156*
X277295Y210000*
X277523*
X277864Y210156*
X278091Y210625*
X278205Y211406*
Y211875*
X278091Y212656*
X277864Y213125*
X277523Y213281*
X277295*
X326227D02*
X327477D01*
X326795Y212031*
X327136*
X327364Y211875*
X327477Y211719*
X327591Y211250*
Y210938*
X327591D02*
X327477Y210469D01*
X327250Y210156*
X326909Y210000*
X326568*
X326227Y210156*
X326114Y210313*
X326114D02*
X326000Y210625D01*
X330091Y212188D02*
X329977Y211719D01*
X329750Y211406*
X329409Y211250*
X329295*
X328955Y211406*
X328727Y211719*
X328614Y212188*
X328614D02*
Y212344D01*
X328727Y212813*
X328727D02*
X328955Y213125D01*
X329295Y213281*
X329409*
X329750Y213125*
X329977Y212813*
X329977D02*
X330091Y212188D01*
X330091D02*
Y211406D01*
X329977Y210625*
X329750Y210156*
X329409Y210000*
X329182*
X328841Y210156*
X328727Y210469*
X331795Y213281D02*
X331455Y213125D01*
X331227Y212656*
X331114Y211875*
Y211406*
X331227Y210625*
X331455Y210156*
X331795Y210000*
X332023*
X332364Y210156*
X332591Y210625*
X332705Y211406*
Y211875*
X332591Y212656*
X332364Y213125*
X332023Y213281*
X331795*
X217727D02*
X218977D01*
X218295Y212031*
X218636*
X218864Y211875*
X218977Y211719*
X219091Y211250*
Y210938*
X219091D02*
X218977Y210469D01*
X218750Y210156*
X218409Y210000*
X218068*
X217727Y210156*
X217614Y210313*
X217614D02*
X217500Y210625D01*
X221591Y212188D02*
X221477Y211719D01*
X221250Y211406*
X220909Y211250*
X220795*
X220455Y211406*
X220227Y211719*
X220114Y212188*
X220114D02*
Y212344D01*
X220227Y212813*
X220227D02*
X220455Y213125D01*
X220795Y213281*
X220909*
X221250Y213125*
X221477Y212813*
X221477D02*
X221591Y212188D01*
X221591D02*
Y211406D01*
X221477Y210625*
X221250Y210156*
X220909Y210000*
X220682*
X220341Y210156*
X220227Y210469*
X223295Y213281D02*
X222955Y213125D01*
X222727Y212656*
X222614Y211875*
Y211406*
X222727Y210625*
X222955Y210156*
X223295Y210000*
X223523*
X223864Y210156*
X224091Y210625*
X224205Y211406*
Y211875*
X224091Y212656*
X223864Y213125*
X223523Y213281*
X223295*
X153719Y261227D02*
Y262477D01*
X154969Y261795*
Y262136*
X155125Y262364*
X155281Y262477*
X155750Y262591*
X156062*
X156062D02*
X156531Y262477D01*
X156844Y262250*
X157000Y261909*
Y261568*
X156844Y261227*
X156687Y261114*
X156687D02*
X156375Y261000D01*
X154812Y265091D02*
X155281Y264977D01*
X155594Y264750*
X155750Y264409*
Y264295*
X155594Y263955*
X155281Y263727*
X154812Y263614*
X154812D02*
X154656D01*
X154187Y263727*
X154187D02*
X153875Y263955D01*
X153719Y264295*
Y264409*
X153875Y264750*
X154187Y264977*
X154187D02*
X154812Y265091D01*
X154812D02*
X155594D01*
X156375Y264977*
X156844Y264750*
X157000Y264409*
Y264182*
X156844Y263841*
X156531Y263727*
X153719Y266795D02*
X153875Y266455D01*
X154344Y266227*
X155125Y266114*
X155594*
X156375Y266227*
X156844Y266455*
X157000Y266795*
Y267023*
X156844Y267364*
X156375Y267591*
X155594Y267705*
X155125*
X154344Y267591*
X153875Y267364*
X153719Y267023*
Y266795*
X129719Y262227D02*
Y263477D01*
X130969Y262795*
Y263136*
X131125Y263364*
X131281Y263477*
X131750Y263591*
X132062*
X132062D02*
X132531Y263477D01*
X132844Y263250*
X133000Y262909*
Y262568*
X132844Y262227*
X132687Y262114*
X132687D02*
X132375Y262000D01*
X130812Y266091D02*
X131281Y265977D01*
X131594Y265750*
X131750Y265409*
Y265295*
X131594Y264955*
X131281Y264727*
X130812Y264614*
X130812D02*
X130656D01*
X130187Y264727*
X130187D02*
X129875Y264955D01*
X129719Y265295*
Y265409*
X129875Y265750*
X130187Y265977*
X130187D02*
X130812Y266091D01*
X130812D02*
X131594D01*
X132375Y265977*
X132844Y265750*
X133000Y265409*
Y265182*
X132844Y264841*
X132531Y264727*
X129719Y267795D02*
X129875Y267455D01*
X130344Y267227*
X131125Y267114*
X131594*
X132375Y267227*
X132844Y267455*
X133000Y267795*
Y268023*
X132844Y268364*
X132375Y268591*
X131594Y268705*
X131125*
X130344Y268591*
X129875Y268364*
X129719Y268023*
Y267795*
X234219Y149182D02*
X234375Y148841D01*
X234844Y148614*
X235625Y148500*
X236094*
X236875Y148614*
X237344Y148841*
X237500Y149182*
Y149409*
X237344Y149750*
X236875Y149977*
X236094Y150091*
X235625*
X234844Y149977*
X234375Y149750*
X234219Y149409*
Y149182*
X237187Y151227D02*
X237344Y151114D01*
X237500Y151227*
X237344Y151341*
X237187Y151227*
X234844Y152364D02*
X234687Y152591D01*
X234687D02*
X234219Y152932D01*
X237500*
X235312Y153955D02*
X236875D01*
X237344Y154068*
X237500Y154295*
Y154636*
X237344Y154864*
X236875Y155205*
X235312D02*
X237500D01*
X234219Y156227D02*
X237500D01*
X234219D02*
Y157705D01*
X235781Y156227D02*
Y157136D01*
X366781Y176818D02*
X366625Y177159D01*
X366156Y177386*
X365375Y177500*
X364906*
X364125Y177386*
X363656Y177159*
X363500Y176818*
Y176591*
X363656Y176250*
X364125Y176023*
X364906Y175909*
X365375*
X366156Y176023*
X366625Y176250*
X366781Y176591*
Y176818*
X363813Y174773D02*
X363656Y174886D01*
X363500Y174773*
X363656Y174659*
X363813Y174773*
X366156Y173636D02*
X366313Y173409D01*
X366313D02*
X366781Y173068D01*
X363500*
X365688Y172045D02*
X364125D01*
X363656Y171932*
X363500Y171705*
Y171364*
X363656Y171136*
X364125Y170795*
X365688D02*
X363500D01*
X366781Y169773D02*
X363500D01*
X366781D02*
Y168295D01*
X365219Y169773D02*
Y168864D01*
X120182Y276781D02*
X119841Y276625D01*
X119614Y276156*
X119500Y275375*
Y274906*
X119614Y274125*
X119841Y273656*
X120182Y273500*
X120409*
X120750Y273656*
X120977Y274125*
X121091Y274906*
Y275375*
X120977Y276156*
X120750Y276625*
X120409Y276781*
X120182*
X122227Y273813D02*
X122114Y273656D01*
X122227Y273500*
X122341Y273656*
X122227Y273813*
X123364Y276156D02*
X123591Y276313D01*
X123591D02*
X123932Y276781D01*
Y273500*
X124955Y275688D02*
Y274125D01*
X125068Y273656*
X125295Y273500*
X125636*
X125864Y273656*
X126205Y274125*
Y275688D02*
Y273500D01*
X127227Y276781D02*
Y273500D01*
Y276781D02*
X128705D01*
X127227Y275219D02*
X128136D01*
X121136Y263781D02*
X120000Y261594D01*
X121705*
X121136Y263781D02*
Y260500D01*
X124318Y263781D02*
X123182Y260500D01*
X122727Y263781D02*
X124318D01*
X126023D02*
X125682Y263625D01*
X125455Y263156*
X125341Y262375*
Y261906*
X125455Y261125*
X125682Y260656*
X126023Y260500*
X126250*
X126591Y260656*
X126818Y261125*
X126932Y261906*
Y262375*
X126818Y263156*
X126591Y263625*
X126250Y263781*
X126023*
X123281Y230318D02*
X123125Y230659D01*
X122656Y230886*
X121875Y231000*
X121406*
X120625Y230886*
X120156Y230659*
X120000Y230318*
Y230091*
X120156Y229750*
X120625Y229523*
X121406Y229409*
X121875*
X122656Y229523*
X123125Y229750*
X123281Y230091*
Y230318*
X120313Y228273D02*
X120156Y228386D01*
X120000Y228273*
X120156Y228159*
X120313Y228273*
X122656Y227136D02*
X122813Y226909D01*
X122813D02*
X123281Y226568D01*
X120000*
X122188Y225545D02*
X120625D01*
X120156Y225432*
X120000Y225205*
Y224864*
X120156Y224636*
X120625Y224295*
X122188D02*
X120000D01*
X123281Y223273D02*
X120000D01*
X123281D02*
Y221795D01*
X121719Y223273D02*
Y222364D01*
X166156Y247000D02*
X166312Y246773D01*
X166312D02*
X166781Y246432D01*
X163500*
X166781Y244841D02*
X166625Y245182D01*
X166312Y245295*
X166312D02*
X166000D01*
X165687Y245182*
X165687D02*
X165531Y244955D01*
X165375Y244500*
X165219Y244159*
X164906Y243932*
X164594Y243818*
X164125*
X163812Y243932*
X163812D02*
X163656Y244045D01*
X163500Y244386*
Y244841*
X163656Y245182*
X163812Y245295*
X163812D02*
X164125Y245409D01*
X164594*
X164906Y245295*
X165219Y245068*
X165375Y244727*
X165531Y244273*
X165687Y244045*
X165687D02*
X166000Y243932D01*
X166312*
X166312D02*
X166625Y244045D01*
X166781Y244386*
Y244841*
X165687Y242795D02*
X162406D01*
X165219D02*
X165531Y242568D01*
X165687Y242341*
X165687D02*
Y242000D01*
X165687D02*
X165531Y241773D01*
X165219Y241545*
X164750Y241432*
X164437*
X164437D02*
X163969Y241545D01*
X163656Y241773*
X163500Y242000*
Y242341*
X163656Y242568*
X163969Y242795*
X166781Y240409D02*
X163500D01*
X166781D02*
Y238932D01*
X165219Y240409D02*
Y239500D01*
X134500Y225156D02*
X134727Y225313D01*
X134727D02*
X135068Y225781D01*
Y222500*
X136659Y225781D02*
X136318Y225625D01*
X136205Y225313*
X136205D02*
Y225000D01*
X136318Y224688*
X136318D02*
X136545Y224531D01*
X137000Y224375*
X137341Y224219*
X137568Y223906*
X137682Y223594*
Y223125*
X137568Y222813*
X137568D02*
X137455Y222656D01*
X137114Y222500*
X136659*
X136318Y222656*
X136205Y222813*
X136205D02*
X136091Y223125D01*
Y223594*
X136205Y223906*
X136432Y224219*
X136773Y224375*
X137227Y224531*
X137455Y224688*
X137455D02*
X137568Y225000D01*
Y225313*
X137568D02*
X137455Y225625D01*
X137114Y225781*
X136659*
X138705Y224688D02*
Y221406D01*
Y224219D02*
X138932Y224531D01*
X139159Y224688*
X139159D02*
X139500D01*
X139500D02*
X139727Y224531D01*
X139955Y224219*
X140068Y223750*
Y223438*
X140068D02*
X139955Y222969D01*
X139727Y222656*
X139500Y222500*
X139159*
X138932Y222656*
X138705Y222969*
X141091Y225781D02*
Y222500D01*
Y225781D02*
X142568D01*
X141091Y224219D02*
X142000D01*
X375000Y266886D02*
X375156D01*
X375469Y266773*
X375625Y266659*
X375781Y266432*
Y265977*
X375625Y265750*
X375469Y265636*
X375156Y265523*
X374844*
X374531Y265636*
X374063Y265864*
X374063D02*
X372500Y267000D01*
Y265409*
X375000Y264273D02*
X375156D01*
X375469Y264159*
X375625Y264045*
X375781Y263818*
Y263364*
X375625Y263136*
X375469Y263023*
X375156Y262909*
X374844*
X374531Y263023*
X374063Y263250*
X374063D02*
X372500Y264386D01*
Y262795*
X375781Y261091D02*
X375625Y261432D01*
X375156Y261659*
X374375Y261773*
X373906*
X373125Y261659*
X372656Y261432*
X372500Y261091*
Y260864*
X372656Y260523*
X373125Y260295*
X373906Y260182*
X374375*
X375156Y260295*
X375625Y260523*
X375781Y260864*
Y261091*
X374656Y233500D02*
X374813Y233273D01*
X374813D02*
X375281Y232932D01*
X372000*
X375281Y231909D02*
X372000D01*
X375281Y230318D02*
X373094Y231909D01*
X373875Y231341D02*
X372000Y230318D01*
X359719Y128636D02*
X362219D01*
X362687Y128523*
X362687D02*
X362844Y128409D01*
X363000Y128182*
Y127955*
X362844Y127727*
X362687Y127614*
X362687D02*
X362219Y127500D01*
X361906*
X359719Y129659D02*
X363000D01*
X359719D02*
X363000Y130568D01*
X359719Y131477D02*
X363000Y130568D01*
X359719Y131477D02*
X363000D01*
X359719Y132500D02*
X363000D01*
X359719D02*
Y133523D01*
X359875Y133864*
X360031Y133977*
X360344Y134091*
X360812*
X360812D02*
X361125Y133977D01*
X361281Y133864*
X361437Y133523*
X361437D02*
Y132500D01*
X360500Y137841D02*
X360344D01*
X360031Y137955*
X359875Y138068*
X359719Y138295*
Y138750*
X359875Y138977*
X360031Y139091*
X360344Y139205*
X360656*
X360969Y139091*
X361437Y138864*
X361437D02*
X363000Y137727D01*
Y139318*
X359719Y140568D02*
Y141818D01*
X360969Y141136*
Y141477*
X361125Y141705*
X361281Y141818*
X361750Y141932*
X362062*
X362062D02*
X362531Y141818D01*
X362844Y141591*
X363000Y141250*
Y140909*
X362844Y140568*
X362687Y140455*
X362687D02*
X362375Y140341D01*
X360500Y143068D02*
X360344D01*
X360031Y143182*
X359875Y143295*
X359719Y143523*
Y143977*
X359875Y144205*
X360031Y144318*
X360344Y144432*
X360656*
X360969Y144318*
X361437Y144091*
X361437D02*
X363000Y142955D01*
Y144545*
X344219Y183136D02*
X346719D01*
X347187Y183023*
X347187D02*
X347344Y182909D01*
X347500Y182682*
Y182455*
X347344Y182227*
X347187Y182114*
X347187D02*
X346719Y182000D01*
X346406*
X344219Y184159D02*
X347500D01*
X344219D02*
X347500Y185068D01*
X344219Y185977D02*
X347500Y185068D01*
X344219Y185977D02*
X347500D01*
X344219Y187000D02*
X347500D01*
X344219D02*
Y188023D01*
X344375Y188364*
X344531Y188477*
X344844Y188591*
X345312*
X345312D02*
X345625Y188477D01*
X345781Y188364*
X345937Y188023*
X345937D02*
Y187000D01*
X344219Y193364D02*
X346406Y192227D01*
Y193932*
X344219Y193364D02*
X347500D01*
X344219Y195523D02*
X344375Y195182D01*
X344687Y195068*
X344687D02*
X345000D01*
X345312Y195182*
X345312D02*
X345469Y195409D01*
X345625Y195864*
X345781Y196205*
X346094Y196432*
X346406Y196545*
X346875*
X347187Y196432*
X347187D02*
X347344Y196318D01*
X347500Y195977*
Y195523*
X347344Y195182*
X347187Y195068*
X347187D02*
X346875Y194955D01*
X346406*
X346094Y195068*
X345781Y195295*
X345625Y195636*
X345469Y196091*
X345312Y196318*
X345312D02*
X345000Y196432D01*
X344687*
X344687D02*
X344375Y196318D01*
X344219Y195977*
Y195523*
Y199045D02*
Y197909D01*
X345625Y197795*
X345469Y197909*
X345312Y198250*
X345312D02*
Y198591D01*
X345312D02*
X345469Y198932D01*
X345781Y199159*
X346250Y199273*
X346562Y199159*
X346562D02*
X347031Y199045D01*
X347344Y198818*
X347500Y198477*
Y198136*
X347344Y197795*
X347187Y197682*
X347187D02*
X346875Y197568D01*
G54D33*
X194874Y278799D02*
Y266201D01*
X229126*
Y278799*
X194874*
X334626Y146201D02*
Y158799D01*
X300374*
Y146201*
X334626*
X265039Y207496D02*
Y204465D01*
X319539Y207496D02*
Y204465D01*
X211539Y207496D02*
Y204465D01*
X294504Y153039D02*
X297535D01*
X227126Y146201D02*
Y158799D01*
X192874*
Y146201*
X227126*
X142496Y264961D02*
X139465D01*
X144504Y265039D02*
X147535D01*
X187004Y153039D02*
X190035D01*
X234496Y272961D02*
X231465D01*
X211461Y221004D02*
Y224035D01*
Y215504D02*
Y218535D01*
X114039Y109496D02*
Y106465D01*
X265039Y212996D02*
Y209965D01*
X319539Y212996D02*
Y209965D01*
X211539Y212996D02*
Y209965D01*
X356700Y151900D02*
X357700Y152900D01*
Y169000*
X356700Y170000*
X351150*
X350150Y169000*
Y152900*
X351150Y151900*
X356700*
X277200Y262900D02*
X278200Y263900D01*
Y280000*
X277200Y281000*
X271650*
X270650Y280000*
Y263900*
X271650Y262900*
X277200*
X151600Y147200D02*
X150600Y148200D01*
X134500*
X133500Y147200*
Y141650*
X134500Y140650*
X150600*
X151600Y141650*
Y147200*
X341300Y144600D02*
X340300Y143600D01*
Y127500*
X341300Y126500*
X346850*
X347850Y127500*
Y143600*
X346850Y144600*
X341300*
X152496Y264961D02*
X149465D01*
X134504Y265039D02*
X137535D01*
X407504Y156039D02*
X410535D01*
X368500Y185358D02*
Y190732D01*
X369750*
Y192268*
X368500*
Y197642*
X388500*
Y185358*
X368500*
X356700Y181400D02*
X357700Y182400D01*
Y198500*
X356700Y199500*
X351150*
X350150Y198500*
Y182400*
X351150Y181400*
X356700*
X279626Y146201D02*
Y158799D01*
X245374*
Y146201*
X279626*
X351300Y144600D02*
X350300Y143600D01*
Y127500*
X351300Y126500*
X356850*
X357850Y127500*
Y143600*
X356850Y144600*
X351300*
X239504Y152539D02*
X242535D01*
X361504Y199039D02*
X364535D01*
X373461Y216004D02*
Y219035D01*
X361504Y183539D02*
X364535D01*
X373539Y213996D02*
Y210965D01*
X82098Y251402D02*
Y226598D01*
X106902*
Y251402*
X82098*
X112961Y270004D02*
Y273035D01*
X113039Y267496D02*
Y264465D01*
X118496Y230961D02*
X115465D01*
X101496Y269461D02*
X98465D01*
X96996D02*
X93965D01*
X90496D02*
X87465D01*
X161496Y243461D02*
X158465D01*
X119299Y210626D02*
X106701D01*
Y176374*
X119299*
Y210626*
X113961Y171004D02*
Y174035D01*
X119299Y156626D02*
X106701D01*
Y122374*
X119299*
Y156626*
X113461Y117004D02*
Y120035D01*
X138539Y229996D02*
Y226965D01*
X379681Y246531D02*
Y250469D01*
X385193Y250075D02*
Y254406D01*
X379681*
Y253618*
X385193Y246925D02*
Y242201D01*
X379681*
Y243382*
X379996Y263961D02*
X376965D01*
X379996Y231961D02*
X376965D01*
G54D47*
X158634Y174480D02*
Y175905D01*
X158706Y176172*
X158777Y176261*
X158921Y176350*
X159064*
X159207Y176261*
X159278Y176172*
X159350Y175905*
Y175727*
X157990Y174836D02*
X157847Y174747D01*
X157632Y174480*
Y176350*
X156057Y175103D02*
X156129Y175370D01*
X156272Y175549*
X156487Y175638*
X156558*
X156773Y175549*
X156916Y175370*
X156988Y175103*
Y175014*
X156916Y174747*
X156773Y174569*
X156558Y174480*
X156487*
X156272Y174569*
X156129Y174747*
X156057Y175103*
Y175549*
X156129Y175994*
X156272Y176261*
X156487Y176350*
X156630*
X156845Y176261*
X156916Y176083*
G54D99*
X172500Y312500D02*
X402500D01*
Y292500*
X175500*
X172500Y295500*
Y312500*
Y122500D02*
X402500D01*
Y102500*
X175500*
X172500Y105500*
Y122500*
G54D100*
X226173Y274862D02*
G03X226173I-984J0D01*
G01X305295Y150138D02*
G03X305295I-984J0D01*
G01X197795D02*
G03X197795I-984J0D01*
G01X250295D02*
G03X250295I-984J0D01*
G01X116346Y180311D02*
G03X116346I-984J0D01*
G01Y126311D02*
G03X116346I-984J0D01*
G54D101*
G01X230602Y284311D02*
G03X230602I-492J0D01*
G01X299882Y140689D02*
G03X299882I-492J0D01*
G01X192382D02*
G03X192382I-492J0D01*
G01X244882D02*
G03X244882I-492J0D01*
G01X125303Y175390D02*
G03X125303I-492J0D01*
G01Y121390D02*
G03X125303I-492J0D01*
G54D102*
G01X269724Y203638D02*
X271299D01*
Y208362*
X269724*
X324224Y203638D02*
X325799D01*
Y208362*
X324224*
X216224Y203638D02*
X217799D01*
Y208362*
X216224*
X138638Y260276D02*
Y258701D01*
X143362*
Y260276*
X148362Y269724D02*
Y271299D01*
X143638*
Y269724*
X206776Y224862D02*
X205201D01*
Y220138*
X206776*
X118724Y105638D02*
X120299D01*
Y110362*
X118724*
X411362Y160724D02*
Y162299D01*
X406638*
Y160724*
G54D103*
X343965Y196039D02*
X295539D01*
Y174386*
X343965*
Y196039*
X335106D02*
X303610D01*
Y193283*
X335106*
Y196039*
X235965D02*
X187539D01*
Y174386*
X235965*
Y196039*
X227106D02*
X195610D01*
Y193283*
X227106*
Y196039*
X185535Y232461D02*
X233961D01*
Y254114*
X185535*
Y232461*
X194394D02*
X225890D01*
Y235217*
X194394*
Y232461*
X124035Y289961D02*
X164587D01*
Y311614*
X124035*
Y289961*
X132500D02*
X156122D01*
Y292717*
X132500*
Y289961*
X415961Y210965D02*
Y162539D01*
X437614*
Y210965*
X415961*
Y202106D02*
Y170610D01*
X418717*
Y202106*
X415961*
X289465Y196039D02*
X241039D01*
Y174386*
X289465*
Y196039*
X280606D02*
X249110D01*
Y193283*
X280606*
Y196039*
X69461Y218465D02*
Y170039D01*
X91114*
Y218465*
X69461*
Y209606D02*
Y178110D01*
X72217*
Y209606*
X69461*
Y164465D02*
Y116039D01*
X91114*
Y164465*
X69461*
Y155606D02*
Y124110D01*
X72217*
Y155606*
X69461*
X127280Y103961D02*
X165469D01*
Y114000*
X160744Y117937*
Y125614*
X132004*
Y117937*
X127280Y114000*
Y103961*
X139287D02*
X152673D01*
Y106717*
X139287*
Y103961*
X236535Y232461D02*
X284961D01*
Y254114*
X236535*
Y232461*
X245394D02*
X276890D01*
Y235217*
X245394*
Y232461*
X305461Y284965D02*
Y244413D01*
X327114*
Y284965*
X305461*
Y276500D02*
Y252878D01*
X308217*
Y276500*
X305461*
X437539Y115780D02*
Y153969D01*
X427500*
X423563Y149244*
X415886*
Y120504*
X423563*
X427500Y115780*
X437539*
Y127787D02*
Y141173D01*
X434783*
Y127787*
X437539*
X342461Y284965D02*
Y244413D01*
X364114*
Y284965*
X342461*
Y276500D02*
Y252878D01*
X345217*
Y276500*
X342461*
G54D104*
X231453Y284773D02*
Y282005D01*
X231588Y281452*
X231856Y281082*
X232259Y280898*
X232527*
X232930Y281082*
X233198Y281452*
X233332Y282005*
Y284773*
X234809D02*
X236285D01*
X235480Y283297*
X235882*
X236151Y283112*
X236285Y282928*
X236419Y282374*
Y282005*
X236285Y281452*
X236017Y281082*
X235614Y280898*
X235211*
X234809Y281082*
X234674Y281267*
X234540Y281636*
X293931Y139816D02*
X296700D01*
X297253Y139950*
X297622Y140218*
X297807Y140621*
Y140889*
X297622Y141292*
X297253Y141560*
X296700Y141695*
X293931*
X294485Y144513D02*
X294116Y144379D01*
X293931Y143976*
Y143708*
X294116Y143305*
X294670Y143037*
X295592Y142903*
X296515*
X297253Y143037*
X297622Y143305*
X297807Y143708*
Y143842*
X297622Y144245*
X297253Y144513*
X296700Y144647*
X296515*
X295961Y144513*
X295592Y144245*
X295408Y143842*
Y143708*
X295592Y143305*
X295961Y143037*
X296515Y142903*
X184931Y140249D02*
X187700D01*
X188253Y140383*
X188622Y140651*
X188807Y141054*
Y141322*
X188622Y141725*
X188253Y141993*
X187700Y142128*
X184931*
Y145215D02*
X188807Y143872D01*
X184931Y143336D02*
Y145215D01*
X238931Y139309D02*
X241700D01*
X242253Y139443*
X242622Y139712*
X242807Y140114*
Y140383*
X242622Y140785*
X242253Y141054*
X241700Y141188*
X238931*
X239670Y142396D02*
X239485Y142664D01*
X238931Y143067*
X242807*
X238931Y145080D02*
X239116Y144678D01*
X239670Y144409*
X240592Y144275*
X241146*
X242069Y144409*
X242622Y144678*
X242807Y145080*
Y145349*
X242622Y145751*
X242069Y146020*
X241146Y146154*
X240592*
X239670Y146020*
X239116Y145751*
X238931Y145349*
Y145080*
X111431Y190520D02*
X114200D01*
X114753Y190655*
X115122Y190923*
X115307Y191326*
Y191594*
X115122Y191997*
X114753Y192265*
X114200Y192399*
X111431*
X112723Y195352D02*
X113277Y195218D01*
X113646Y194950*
X113830Y194547*
Y194413*
X113646Y194010*
X113277Y193742*
X112723Y193607*
X112539*
X111985Y193742*
X111616Y194010*
X111431Y194413*
Y194547*
X111616Y194950*
X111985Y195218*
X112723Y195352*
X113646*
X114569Y195218*
X115122Y194950*
X115307Y194547*
Y194278*
X115122Y193876*
X114753Y193742*
X111431Y136118D02*
X114200D01*
X114753Y136252*
X115122Y136520*
X115307Y136923*
Y137191*
X115122Y137594*
X114753Y137863*
X114200Y137997*
X111431*
X112170Y139205D02*
X111985Y139473D01*
X111431Y139876*
X115307*
X112170Y141084D02*
X111985Y141352D01*
X111431Y141755*
X115307*
G74*
X0Y0D02*
M02*
