*
*
G04 PADS 9.3.1 Build Number: 456998 generated Gerber (RS-274-X) file*
G04 PC Version=2.1*
*
%IN "cpc_rev3.pcb"*%
*
%MOIN*%
*
%FSLAX35Y35*%
*
*
*
*
G04 PC Standard Apertures*
*
*
G04 Thermal Relief Aperture macro.*
%AMTER*
1,1,$1,0,0*
1,0,$1-$2,0,0*
21,0,$3,$4,0,0,45*
21,0,$3,$4,0,0,135*
%
*
*
G04 Annular Aperture macro.*
%AMANN*
1,1,$1,0,0*
1,0,$2,0,0*
%
*
*
G04 Odd Aperture macro.*
%AMODD*
1,1,$1,0,0*
1,0,$1-0.005,0,0*
%
*
*
G04 PC Custom Aperture Macros*
*
*
*
*
*
*
G04 PC Aperture Table*
*
%ADD010C,0.001*%
%ADD019C,0.01*%
%ADD022C,0.005*%
%ADD033C,0.00787*%
%ADD100C,0.01969*%
%ADD101C,0.00984*%
%ADD104C,0.00591*%
*
*
*
*
G04 PC Circuitry*
G04 Layer Name cpc_rev3.pcb - circuitry*
%LPD*%
*
*
G04 PC Custom Flashes*
G04 Layer Name cpc_rev3.pcb - flashes*
%LPD*%
*
*
G04 PC Circuitry*
G04 Layer Name cpc_rev3.pcb - circuitry*
%LPD*%
*
G54D10*
G54D19*
G01X204299Y226713D02*
G75*
G03X204299I-500J0D01*
G01X302201Y201787D02*
G03X302201I-500J0D01*
G01X325701D02*
G03X325701I-500J0D01*
G01X228299Y226713D02*
G03X228299I-500J0D01*
G01X346287Y270799D02*
G03X346287I-500J0D01*
G01Y286299D02*
G03X346287I-500J0D01*
G01X309287D02*
G03X309287I-500J0D01*
G01Y270799D02*
G03X309287I-500J0D01*
G01X151299Y284213D02*
G03X151299I-500J0D01*
G01X136701Y132787D02*
G03X136701I-500J0D01*
G01X404713Y192201D02*
G03X404713I-500J0D01*
G01Y168701D02*
G03X404713I-500J0D01*
G01X247701Y201787D02*
G03X247701I-500J0D01*
G01X271201D02*
G03X271201I-500J0D01*
G01X194201D02*
G03X194201I-500J0D01*
G01X217701D02*
G03X217701I-500J0D01*
G01X64213Y176201D02*
G03X64213I-500J0D01*
G01Y199701D02*
G03X64213I-500J0D01*
G01Y122201D02*
G03X64213I-500J0D01*
G01Y145701D02*
G03X64213I-500J0D01*
G01X405713Y124701D02*
G03X405713I-500J0D01*
G01X177273Y283937D02*
Y288937D01*
X177273D02*
X177045Y289875D01*
X176818Y290187*
X176818D02*
X176364Y290500D01*
X175909*
X175455Y290187*
X175455D02*
X175227Y289875D01*
X175000Y288937*
X175000D02*
Y288312D01*
X179318Y285187D02*
X179773Y284875D01*
X180455Y283937*
X180455D02*
Y290500D01*
X182955Y283937D02*
X185455D01*
X185455D02*
X184091Y286437D01*
X184091D02*
X184773D01*
X184773D02*
X185227Y286750D01*
X185455Y287062*
X185455D02*
X185682Y288000D01*
Y288625*
X185455Y289562*
X185455D02*
X185000Y290187D01*
X185000D02*
X184318Y290500D01*
X183636*
X182955Y290187*
X182955D02*
X182727Y289875D01*
X182500Y289250*
X182727Y131563D02*
Y126563D01*
X182727D02*
X182955Y125625D01*
X183182Y125313*
X183182D02*
X183636Y125000D01*
X184091*
X184545Y125313*
X184545D02*
X184773Y125625D01*
X185000Y126563*
X185000D02*
Y127188D01*
X180682Y130313D02*
X180227Y130625D01*
X179545Y131563*
X179545D02*
Y125000D01*
X175227Y131563D02*
X177500Y127188D01*
X177500D02*
X174091D01*
X175227Y131563D02*
Y125000D01*
G54D22*
X222719Y265159D02*
X226000D01*
X222719D02*
Y264136D01*
X222875Y263795*
X223031Y263682*
X223344Y263568*
X223656*
X223969Y263682*
X224125Y263795*
X224281Y264136*
Y265159*
Y264364D02*
X226000Y263568D01*
X222719Y260955D02*
X226000Y262091D01*
X222719Y262545D02*
Y260955D01*
X217500Y263568D02*
X217187Y263682D01*
X217187D02*
X216875Y263909D01*
X216719Y264136*
Y264591*
X216875Y264818*
X217187Y265045*
X217187D02*
X217500Y265159D01*
X217969Y265273*
X218750*
X219219Y265159*
X219531Y265045*
X219844Y264818*
X220000Y264591*
Y264136*
X219844Y263909*
X219531Y263682*
X219219Y263568*
X216719Y261977D02*
X216875Y262318D01*
X217187Y262432*
X217187D02*
X217500D01*
X217812Y262318*
X217812D02*
X217969Y262091D01*
X218125Y261636*
X218281Y261295*
X218594Y261068*
X218906Y260955*
X219375*
X219687Y261068*
X219687D02*
X219844Y261182D01*
X220000Y261523*
Y261977*
X219844Y262318*
X219687Y262432*
X219687D02*
X219375Y262545D01*
X218906*
X218594Y262432*
X218281Y262205*
X218125Y261864*
X217969Y261409*
X217812Y261182*
X217812D02*
X217500Y261068D01*
X217187*
X217187D02*
X216875Y261182D01*
X216719Y261523*
Y261977*
X211219Y265159D02*
X214500D01*
X211219D02*
Y264136D01*
X211375Y263795*
X211531Y263682*
X211844Y263568*
X212156*
X212469Y263682*
X212625Y263795*
X212781Y264136*
Y265159*
Y264364D02*
X214500Y263568D01*
X211219Y261977D02*
X211375Y262318D01*
X211687Y262432*
X211687D02*
X212000D01*
X212312Y262318*
X212312D02*
X212469Y262091D01*
X212625Y261636*
X212781Y261295*
X213094Y261068*
X213406Y260955*
X213875*
X214187Y261068*
X214187D02*
X214344Y261182D01*
X214500Y261523*
Y261977*
X214344Y262318*
X214187Y262432*
X214187D02*
X213875Y262545D01*
X213406*
X213094Y262432*
X212781Y262205*
X212625Y261864*
X212469Y261409*
X212312Y261182*
X212312D02*
X212000Y261068D01*
X211687*
X211687D02*
X211375Y261182D01*
X211219Y261523*
Y261977*
X227719Y265045D02*
X231000D01*
X227719D02*
Y264023D01*
X227875Y263682*
X228031Y263568*
X228344Y263455*
X228656*
X228969Y263568*
X229125Y263682*
X229281Y264023*
Y265045*
Y264250D02*
X231000Y263455D01*
X228812Y260955D02*
X229281Y261068D01*
X229594Y261295*
X229750Y261636*
Y261750*
X229594Y262091*
X229281Y262318*
X228812Y262432*
X228812D02*
X228656D01*
X228187Y262318*
X228187D02*
X227875Y262091D01*
X227719Y261750*
Y261636*
X227875Y261295*
X228187Y261068*
X228187D02*
X228812Y260955D01*
X228812D02*
X229594D01*
X230375Y261068*
X230844Y261295*
X231000Y261636*
Y261864*
X230844Y262205*
X230531Y262318*
X191750Y259719D02*
Y263000D01*
Y259719D02*
X192773D01*
X193114Y259875*
X193227Y260031*
X193341Y260344*
Y260656*
X193227Y260969*
X193114Y261125*
X192773Y261281*
X191750*
X192545D02*
X193341Y263000D01*
X194364Y260344D02*
X194591Y260187D01*
X194591D02*
X194932Y259719D01*
Y263000*
X196636Y259719D02*
X196295Y259875D01*
X196068Y260344*
X195955Y261125*
Y261594*
X196068Y262375*
X196295Y262844*
X196636Y263000*
X196864*
X197205Y262844*
X197432Y262375*
X197545Y261594*
Y261125*
X197432Y260344*
X197205Y259875*
X196864Y259719*
X196636*
X192773Y254219D02*
Y257500D01*
Y254219D02*
X193795D01*
X194136Y254375*
X194250Y254531*
X194364Y254844*
Y255156*
X194250Y255469*
X194136Y255625*
X193795Y255781*
X192773*
X193568D02*
X194364Y257500D01*
X195386Y254844D02*
X195614Y254687D01*
X195614D02*
X195955Y254219D01*
Y257500*
X196977Y254844D02*
X197205Y254687D01*
X197205D02*
X197545Y254219D01*
Y257500*
X204719Y233500D02*
X208000D01*
X204719D02*
Y232705D01*
X204875Y232364*
X205187Y232136*
X205187D02*
X205500Y232023D01*
X205969Y231909*
X206750*
X207219Y232023*
X207531Y232136*
X207844Y232364*
X208000Y232705*
Y233500*
X204719Y229409D02*
Y230545D01*
X206125Y230659*
X205969Y230545*
X205812Y230205*
X205812D02*
Y229864D01*
X205812D02*
X205969Y229523D01*
X206281Y229295*
X206750Y229182*
X207062Y229295*
X207062D02*
X207531Y229409D01*
X207844Y229636*
X208000Y229977*
Y230318*
X207844Y230659*
X207687Y230773*
X207687D02*
X207375Y230886D01*
X306781Y161341D02*
X303500D01*
X306781D02*
Y162364D01*
X306625Y162705*
X306469Y162818*
X306156Y162932*
X305844*
X305531Y162818*
X305375Y162705*
X305219Y162364*
Y161341*
Y162136D02*
X303500Y162932D01*
X306000Y164068D02*
X306156D01*
X306469Y164182*
X306625Y164295*
X306781Y164523*
Y164977*
X306625Y165205*
X306469Y165318*
X306156Y165432*
X305844*
X305531Y165318*
X305063Y165091*
X305063D02*
X303500Y163955D01*
Y165545*
X306313Y167932D02*
X306625Y167818D01*
X306781Y167477*
Y167250*
X306625Y166909*
X306156Y166682*
X305375Y166568*
X304594*
X303969Y166682*
X303656Y166909*
X303500Y167250*
Y167364*
X303656Y167705*
X303969Y167932*
X304438Y168045*
X304438D02*
X304594D01*
X305063Y167932*
X305063D02*
X305375Y167705D01*
X305531Y167364*
Y167250*
X305375Y166909*
X305063Y166682*
X305063D02*
X304594Y166568D01*
X311000Y164227D02*
X311313Y164114D01*
X311313D02*
X311625Y163886D01*
X311781Y163659*
Y163205*
X311625Y162977*
X311313Y162750*
X311313D02*
X311000Y162636D01*
X310531Y162523*
X309750*
X309281Y162636*
X308969Y162750*
X308656Y162977*
X308500Y163205*
Y163659*
X308656Y163886*
X308969Y164114*
X309281Y164227*
X311156Y165250D02*
X311313Y165477D01*
X311313D02*
X311781Y165818D01*
X308500*
X311781Y167977D02*
X309594Y166841D01*
Y168545*
X311781Y167977D02*
X308500D01*
X316681Y161660D02*
X313400D01*
X316681D02*
Y162683D01*
X316525Y163024*
X316369Y163137*
X316056Y163251*
X315744*
X315431Y163137*
X315275Y163024*
X315119Y162683*
Y161660*
Y162456D02*
X313400Y163251D01*
X315900Y164387D02*
X316056D01*
X316369Y164501*
X316525Y164615*
X316681Y164842*
Y165297*
X316525Y165524*
X316369Y165637*
X316056Y165751*
X315744*
X315431Y165637*
X314963Y165410*
X313400Y164274*
Y165865*
X316681Y168478D02*
X313400Y167342D01*
X316681Y166887D02*
Y168478D01*
X301781Y161727D02*
X298500D01*
X301781D02*
Y162750D01*
X301625Y163091*
X301469Y163205*
X301156Y163318*
X300844*
X300531Y163205*
X300375Y163091*
X300219Y162750*
Y161727*
Y162523D02*
X298500Y163318D01*
X301000Y164455D02*
X301156D01*
X301469Y164568*
X301625Y164682*
X301781Y164909*
Y165364*
X301625Y165591*
X301469Y165705*
X301156Y165818*
X300844*
X300531Y165705*
X300063Y165477*
X300063D02*
X298500Y164341D01*
Y165932*
X301781Y167523D02*
X301625Y167182D01*
X301313Y167068*
X301313D02*
X301000D01*
X300688Y167182*
X300688D02*
X300531Y167409D01*
X300375Y167864*
X300219Y168205*
X299906Y168432*
X299594Y168545*
X299125*
X298813Y168432*
X298813D02*
X298656Y168318D01*
X298500Y167977*
Y167523*
X298656Y167182*
X298813Y167068*
X298813D02*
X299125Y166955D01*
X299594*
X299906Y167068*
X300219Y167295*
X300375Y167636*
X300531Y168091*
X300688Y168318*
X300688D02*
X301000Y168432D01*
X301313*
X301313D02*
X301625Y168318D01*
X301781Y167977*
Y167523*
X338659Y170281D02*
Y167000D01*
Y170281D02*
X337636D01*
X337295Y170125*
X337182Y169969*
X337068Y169656*
Y169344*
X337182Y169031*
X337295Y168875*
X337636Y168719*
X338659*
X337864D02*
X337068Y167000D01*
X335818Y170281D02*
X334568D01*
X335250Y169031*
X334909*
X334682Y168875*
X334568Y168719*
X334455Y168250*
Y167938*
X334455D02*
X334568Y167469D01*
X334795Y167156*
X335136Y167000*
X335477*
X335818Y167156*
X335932Y167313*
X335932D02*
X336045Y167625D01*
X332068Y169813D02*
X332182Y170125D01*
X332523Y170281*
X332750*
X333091Y170125*
X333318Y169656*
X333432Y168875*
Y168094*
X333318Y167469*
X333091Y167156*
X332750Y167000*
X332636*
X332295Y167156*
X332068Y167469*
X331955Y167938*
X331955D02*
Y168094D01*
X332068Y168563*
X332068D02*
X332295Y168875D01*
X332636Y169031*
X332750*
X333091Y168875*
X333318Y168563*
X333318D02*
X333432Y168094D01*
X338273Y175281D02*
Y172000D01*
Y175281D02*
X337250D01*
X336909Y175125*
X336795Y174969*
X336682Y174656*
Y174344*
X336795Y174031*
X336909Y173875*
X337250Y173719*
X338273*
X337477D02*
X336682Y172000D01*
X335432Y175281D02*
X334182D01*
X334864Y174031*
X334523*
X334295Y173875*
X334182Y173719*
X334068Y173250*
Y172938*
X334068D02*
X334182Y172469D01*
X334409Y172156*
X334750Y172000*
X335091*
X335432Y172156*
X335545Y172313*
X335545D02*
X335659Y172625D01*
X331455Y175281D02*
X332591Y172000D01*
X333045Y175281D02*
X331455D01*
X345273Y180281D02*
Y177000D01*
Y180281D02*
X344250D01*
X343909Y180125*
X343795Y179969*
X343682Y179656*
Y179344*
X343795Y179031*
X343909Y178875*
X344250Y178719*
X345273*
X344477D02*
X343682Y177000D01*
X342432Y180281D02*
X341182D01*
X341864Y179031*
X341523*
X341295Y178875*
X341182Y178719*
X341068Y178250*
Y177938*
X341068D02*
X341182Y177469D01*
X341409Y177156*
X341750Y177000*
X342091*
X342432Y177156*
X342545Y177313*
X342545D02*
X342659Y177625D01*
X339477Y180281D02*
X339818Y180125D01*
X339932Y179813*
X339932D02*
Y179500D01*
X339818Y179188*
X339818D02*
X339591Y179031D01*
X339136Y178875*
X338795Y178719*
X338568Y178406*
X338455Y178094*
Y177625*
X338568Y177313*
X338568D02*
X338682Y177156D01*
X339023Y177000*
X339477*
X339818Y177156*
X339932Y177313*
X339932D02*
X340045Y177625D01*
Y178094*
X339932Y178406*
X339705Y178719*
X339364Y178875*
X338909Y179031*
X338682Y179188*
X338682D02*
X338568Y179500D01*
Y179813*
X338568D02*
X338682Y180125D01*
X339023Y180281*
X339477*
X301494Y195230D02*
X298213D01*
X301494D02*
Y196026D01*
X301338Y196367*
X301025Y196594*
X300713Y196708*
X300244Y196821*
X299463*
X298994Y196708*
X298681Y196594*
X298369Y196367*
X298213Y196026*
Y195230*
X301025Y199208D02*
X301338Y199094D01*
X301494Y198753*
Y198526*
X301338Y198185*
X300869Y197958*
X300088Y197844*
X299306*
X298681Y197958*
X298369Y198185*
X298213Y198526*
Y198639*
X298369Y198980*
X298681Y199208*
X299150Y199321*
X299306*
X299775Y199208*
X300088Y198980*
X300244Y198639*
Y198526*
X300088Y198185*
X299775Y197958*
X299306Y197844*
X324781Y194500D02*
X321500D01*
X324781D02*
Y195295D01*
X324625Y195636*
X324313Y195864*
X324313D02*
X324000Y195977D01*
X323531Y196091*
X322750*
X322281Y195977*
X321969Y195864*
X321656Y195636*
X321500Y195295*
Y194500*
X324156Y197114D02*
X324313Y197341D01*
X324313D02*
X324781Y197682D01*
X321500*
X324156Y198705D02*
X324313Y198932D01*
X324313D02*
X324781Y199273D01*
X321500*
X199281Y162341D02*
X196000D01*
X199281D02*
Y163364D01*
X199125Y163705*
X198969Y163818*
X198656Y163932*
X198344*
X198031Y163818*
X197875Y163705*
X197719Y163364*
Y162341*
Y163136D02*
X196000Y163932D01*
X199281Y165182D02*
Y166432D01*
X198031Y165750*
Y166091*
X197875Y166318*
X197719Y166432*
X197250Y166545*
X196938*
X196938D02*
X196469Y166432D01*
X196156Y166205*
X196000Y165864*
Y165523*
X196156Y165182*
X196313Y165068*
X196313D02*
X196625Y164955D01*
X198188Y169045D02*
X197719Y168932D01*
X197406Y168705*
X197250Y168364*
Y168250*
X197406Y167909*
X197719Y167682*
X198188Y167568*
X198188D02*
X198344D01*
X198813Y167682*
X198813D02*
X199125Y167909D01*
X199281Y168250*
Y168364*
X199125Y168705*
X198813Y168932*
X198813D02*
X198188Y169045D01*
X198188D02*
X197406D01*
X196625Y168932*
X196156Y168705*
X196000Y168364*
Y168136*
X196156Y167795*
X196469Y167682*
X228719Y234000D02*
X232000D01*
X228719D02*
Y233205D01*
X228875Y232864*
X229187Y232636*
X229187D02*
X229500Y232523D01*
X229969Y232409*
X230750*
X231219Y232523*
X231531Y232636*
X231844Y232864*
X232000Y233205*
Y234000*
X228719Y231159D02*
Y229909D01*
X229969Y230591*
Y230250*
X230125Y230023*
X230281Y229909*
X230750Y229795*
X231062*
X231062D02*
X231531Y229909D01*
X231844Y230136*
X232000Y230477*
Y230818*
X231844Y231159*
X231687Y231273*
X231687D02*
X231375Y231386D01*
X203500Y164955D02*
X203813Y164841D01*
X203813D02*
X204125Y164614D01*
X204281Y164386*
Y163932*
X204125Y163705*
X203813Y163477*
X203813D02*
X203500Y163364D01*
X203031Y163250*
X202250*
X201781Y163364*
X201469Y163477*
X201156Y163705*
X201000Y163932*
Y164386*
X201156Y164614*
X201469Y164841*
X201781Y164955*
X203656Y165977D02*
X203813Y166205D01*
X203813D02*
X204281Y166545D01*
X201000*
X203813Y168932D02*
X204125Y168818D01*
X204281Y168477*
Y168250*
X204125Y167909*
X203656Y167682*
X202875Y167568*
X202094*
X201469Y167682*
X201156Y167909*
X201000Y168250*
Y168364*
X201156Y168705*
X201469Y168932*
X201938Y169045*
X201938D02*
X202094D01*
X202563Y168932*
X202563D02*
X202875Y168705D01*
X203031Y168364*
Y168250*
X202875Y167909*
X202563Y167682*
X202563D02*
X202094Y167568D01*
X209281Y162114D02*
X206000D01*
X209281D02*
Y163136D01*
X209125Y163477*
X208969Y163591*
X208656Y163705*
X208344*
X208031Y163591*
X207875Y163477*
X207719Y163136*
Y162114*
Y162909D02*
X206000Y163705D01*
X209281Y165864D02*
X207094Y164727D01*
Y166432*
X209281Y165864D02*
X206000D01*
X209281Y168136D02*
X209125Y167795D01*
X208656Y167568*
X207875Y167455*
X207406*
X206625Y167568*
X206156Y167795*
X206000Y168136*
Y168364*
X206156Y168705*
X206625Y168932*
X207406Y169045*
X207875*
X208656Y168932*
X209125Y168705*
X209281Y168364*
Y168136*
X194281Y163136D02*
X191000D01*
X194281D02*
Y164159D01*
X194125Y164500*
X193969Y164614*
X193656Y164727*
X193344*
X193031Y164614*
X192875Y164500*
X192719Y164159*
Y163136*
Y163932D02*
X191000Y164727D01*
X194281Y166886D02*
X192094Y165750D01*
Y167455*
X194281Y166886D02*
X191000D01*
X193656Y168477D02*
X193813Y168705D01*
X193813D02*
X194281Y169045D01*
X191000*
X338000Y253719D02*
Y257000D01*
Y253719D02*
X338795D01*
X339136Y253875*
X339364Y254188*
X339364D02*
X339477Y254500D01*
X339591Y254969*
Y255750*
X339477Y256219*
X339364Y256531*
X339136Y256844*
X338795Y257000*
X338000*
X340614Y254344D02*
X340841Y254188D01*
X340841D02*
X341182Y253719D01*
Y257000*
X342318Y254500D02*
Y254344D01*
X342432Y254031*
X342545Y253875*
X342773Y253719*
X343227*
X343455Y253875*
X343568Y254031*
X343682Y254344*
Y254656*
X343568Y254969*
X343341Y255438*
X343341D02*
X342205Y257000D01*
X343795*
X344000Y290281D02*
Y287000D01*
Y290281D02*
X343205D01*
X342864Y290125*
X342636Y289813*
X342636D02*
X342523Y289500D01*
X342409Y289031*
Y288250*
X342523Y287781*
X342636Y287469*
X342864Y287156*
X343205Y287000*
X344000*
X341386Y289656D02*
X341159Y289813D01*
X341159D02*
X340818Y290281D01*
Y287000*
X339568Y290281D02*
X338318D01*
X339000Y289031*
X338659*
X338432Y288875*
X338318Y288719*
X338205Y288250*
Y287938*
X338205D02*
X338318Y287469D01*
X338545Y287156*
X338886Y287000*
X339227*
X339568Y287156*
X339682Y287313*
X339682D02*
X339795Y287625D01*
X223114Y166719D02*
Y170000D01*
Y166719D02*
X224136D01*
X224477Y166875*
X224591Y167031*
X224705Y167344*
Y167656*
X224591Y167969*
X224477Y168125*
X224136Y168281*
X223114*
X223909D02*
X224705Y170000D01*
X226864Y166719D02*
X225727Y168906D01*
X227432*
X226864Y166719D02*
Y170000D01*
X228568Y167500D02*
Y167344D01*
X228682Y167031*
X228795Y166875*
X229023Y166719*
X229477*
X229705Y166875*
X229818Y167031*
X229932Y167344*
Y167656*
X229818Y167969*
X229591Y168437*
X228455Y170000*
X230045*
X223114Y171719D02*
Y175000D01*
Y171719D02*
X224136D01*
X224477Y171875*
X224591Y172031*
X224705Y172344*
Y172656*
X224591Y172969*
X224477Y173125*
X224136Y173281*
X223114*
X223909D02*
X224705Y175000D01*
X226864Y171719D02*
X225727Y173906D01*
X227432*
X226864Y171719D02*
Y175000D01*
X228682Y171719D02*
X229932D01*
X229250Y172969*
X229591*
X229818Y173125*
X229932Y173281*
X230045Y173750*
Y174062*
X230045D02*
X229932Y174531D01*
X229705Y174844*
X229364Y175000*
X229023*
X228682Y174844*
X228568Y174687*
X228568D02*
X228455Y174375D01*
X306500Y290281D02*
Y287000D01*
Y290281D02*
X305705D01*
X305364Y290125*
X305136Y289813*
X305136D02*
X305023Y289500D01*
X304909Y289031*
Y288250*
X305023Y287781*
X305136Y287469*
X305364Y287156*
X305705Y287000*
X306500*
X303886Y289656D02*
X303659Y289813D01*
X303659D02*
X303318Y290281D01*
Y287000*
X301159Y290281D02*
X302295Y288094D01*
X300591*
X301159Y290281D02*
Y287000D01*
X307000Y257281D02*
Y254000D01*
Y257281D02*
X306205D01*
X305864Y257125*
X305636Y256813*
X305636D02*
X305523Y256500D01*
X305409Y256031*
Y255250*
X305523Y254781*
X305636Y254469*
X305864Y254156*
X306205Y254000*
X307000*
X304386Y256656D02*
X304159Y256813D01*
X304159D02*
X303818Y257281D01*
Y254000*
X301318Y257281D02*
X302455D01*
X302568Y255875*
X302455Y256031*
X302114Y256188*
X302114D02*
X301773D01*
X301773D02*
X301432Y256031D01*
X301205Y255719*
X301091Y255250*
X301205Y254938*
X301205D02*
X301318Y254469D01*
X301545Y254156*
X301886Y254000*
X302227*
X302568Y254156*
X302682Y254313*
X302682D02*
X302795Y254625D01*
X129364Y109781D02*
Y106500D01*
Y109781D02*
X128341D01*
X128000Y109625*
X127886Y109469*
X127773Y109156*
Y108844*
X127886Y108531*
X128000Y108375*
X128341Y108219*
X129364*
X128568D02*
X127773Y106500D01*
X126636Y109000D02*
Y109156D01*
X126523Y109469*
X126409Y109625*
X126182Y109781*
X125727*
X125500Y109625*
X125386Y109469*
X125273Y109156*
Y108844*
X125386Y108531*
X125614Y108063*
X125614D02*
X126750Y106500D01*
X125159*
X124136Y109156D02*
X123909Y109313D01*
X123909D02*
X123568Y109781D01*
Y106500*
X120955Y109781D02*
X122091Y106500D01*
X122545Y109781D02*
X120955D01*
X151341Y312781D02*
Y309500D01*
Y312781D02*
X150318D01*
X149977Y312625*
X149864Y312469*
X149750Y312156*
Y311844*
X149864Y311531*
X149977Y311375*
X150318Y311219*
X151341*
X150545D02*
X149750Y309500D01*
X148727Y312156D02*
X148500Y312313D01*
X148500D02*
X148159Y312781D01*
Y309500*
X146455Y312781D02*
X146795Y312625D01*
X147023Y312156*
X147136Y311375*
Y310906*
X147023Y310125*
X146795Y309656*
X146455Y309500*
X146227*
X145886Y309656*
X145659Y310125*
X145545Y310906*
Y311375*
X145659Y312156*
X145886Y312625*
X146227Y312781*
X146455*
X144523Y312156D02*
X144295Y312313D01*
X144295D02*
X143955Y312781D01*
Y309500*
X151864Y308281D02*
Y305000D01*
Y308281D02*
X150841D01*
X150500Y308125*
X150386Y307969*
X150273Y307656*
Y307344*
X150386Y307031*
X150500Y306875*
X150841Y306719*
X151864*
X151068D02*
X150273Y305000D01*
X149250Y307656D02*
X149023Y307813D01*
X149023D02*
X148682Y308281D01*
Y305000*
X146977Y308281D02*
X147318Y308125D01*
X147545Y307656*
X147659Y306875*
Y306406*
X147545Y305625*
X147318Y305156*
X146977Y305000*
X146750*
X146409Y305156*
X146182Y305625*
X146068Y306406*
Y306875*
X146182Y307656*
X146409Y308125*
X146750Y308281*
X146977*
X144932Y307500D02*
Y307656D01*
X144818Y307969*
X144705Y308125*
X144477Y308281*
X144023*
X143795Y308125*
X143682Y307969*
X143568Y307656*
Y307344*
X143682Y307031*
X143909Y306563*
X143909D02*
X145045Y305000D01*
X143455*
X406281Y151841D02*
X403000D01*
X406281D02*
Y152864D01*
X406125Y153205*
X405969Y153318*
X405656Y153432*
X405344*
X405031Y153318*
X404875Y153205*
X404719Y152864*
Y151841*
Y152636D02*
X403000Y153432D01*
X405500Y154568D02*
X405656D01*
X405969Y154682*
X406125Y154795*
X406281Y155023*
Y155477*
X406125Y155705*
X405969Y155818*
X405656Y155932*
X405344*
X405031Y155818*
X404563Y155591*
X403000Y154455*
Y156045*
X405188Y158545D02*
X404719Y158432D01*
X404406Y158205*
X404250Y157864*
Y157750*
X404406Y157409*
X404719Y157182*
X405188Y157068*
X405344*
X405813Y157182*
X406125Y157409*
X406281Y157750*
Y157864*
X406125Y158205*
X405813Y158432*
X405188Y158545*
X404406*
X403625Y158432*
X403156Y158205*
X403000Y157864*
Y157636*
X403156Y157295*
X403469Y157182*
X155281Y284500D02*
X152000D01*
X155281D02*
Y285295D01*
X155125Y285636*
X154813Y285864*
X154813D02*
X154500Y285977D01*
X154031Y286091*
X153250*
X152781Y285977*
X152469Y285864*
X152156Y285636*
X152000Y285295*
Y284500*
X154500Y287227D02*
X154656D01*
X154969Y287341*
X155125Y287455*
X155281Y287682*
Y288136*
X155125Y288364*
X154969Y288477*
X154656Y288591*
X154344*
X154031Y288477*
X153563Y288250*
X153563D02*
X152000Y287114D01*
Y288705*
X154656Y289727D02*
X154813Y289955D01*
X154813D02*
X155281Y290295D01*
X152000*
X154500Y291432D02*
X154656D01*
X154969Y291545*
X155125Y291659*
X155281Y291886*
Y292341*
X155125Y292568*
X154969Y292682*
X154656Y292795*
X154344*
X154031Y292682*
X153563Y292455*
X153563D02*
X152000Y291318D01*
Y292909*
X149600Y129753D02*
X152881D01*
X149600D02*
Y128957D01*
X149756Y128617*
X150069Y128389*
X150381Y128276*
X150850Y128162*
X151631*
X152100Y128276*
X152413Y128389*
X152725Y128617*
X152881Y128957*
Y129753*
X149600Y125548D02*
X152881Y126685D01*
X149600Y127139D02*
Y125548D01*
X252832Y162638D02*
X249551D01*
X252832D02*
Y163660D01*
X252676Y164001*
X252519Y164115*
X252207Y164229*
X251894*
X251582Y164115*
X251426Y164001*
X251269Y163660*
Y162638*
Y163433D02*
X249551Y164229D01*
X252832Y165479D02*
Y166729D01*
X251582Y166047*
Y166388*
X251426Y166615*
X251269Y166729*
X250801Y166842*
X250488*
X250019Y166729*
X249707Y166501*
X249551Y166160*
Y165820*
X249707Y165479*
X249863Y165365*
X250176Y165251*
X252832Y168547D02*
X252676Y168206D01*
X252207Y167979*
X251426Y167865*
X250957*
X250176Y167979*
X249707Y168206*
X249551Y168547*
Y168774*
X249707Y169115*
X250176Y169342*
X250957Y169456*
X251426*
X252207Y169342*
X252676Y169115*
X252832Y168774*
Y168547*
X257000Y164318D02*
X257313Y164205D01*
X257313D02*
X257625Y163977D01*
X257781Y163750*
Y163295*
X257625Y163068*
X257313Y162841*
X257313D02*
X257000Y162727D01*
X256531Y162614*
X255750*
X255281Y162727*
X254969Y162841*
X254656Y163068*
X254500Y163295*
Y163750*
X254656Y163977*
X254969Y164205*
X255281Y164318*
X257000Y165455D02*
X257156D01*
X257469Y165568*
X257625Y165682*
X257781Y165909*
Y166364*
X257625Y166591*
X257469Y166705*
X257156Y166818*
X256844*
X256531Y166705*
X256063Y166477*
X256063D02*
X254500Y165341D01*
Y166932*
X257781Y168636D02*
X257625Y168295D01*
X257156Y168068*
X256375Y167955*
X255906*
X255125Y168068*
X254656Y168295*
X254500Y168636*
Y168864*
X254656Y169205*
X255125Y169432*
X255906Y169545*
X256375*
X257156Y169432*
X257625Y169205*
X257781Y168864*
Y168636*
X262781Y163250D02*
X259500D01*
X262781D02*
Y164273D01*
X262625Y164614*
X262469Y164727*
X262156Y164841*
X261844*
X261531Y164727*
X261375Y164614*
X261219Y164273*
Y163250*
Y164045D02*
X259500Y164841D01*
X262781Y166091D02*
Y167341D01*
X261531Y166659*
Y167000*
X261375Y167227*
X261219Y167341*
X260750Y167455*
X260438*
X260438D02*
X259969Y167341D01*
X259656Y167114*
X259500Y166773*
Y166432*
X259656Y166091*
X259813Y165977*
X259813D02*
X260125Y165864D01*
X262156Y168477D02*
X262313Y168705D01*
X262313D02*
X262781Y169045D01*
X259500*
X247781Y162727D02*
X244500D01*
X247781D02*
Y163750D01*
X247625Y164091*
X247469Y164205*
X247156Y164318*
X246844*
X246531Y164205*
X246375Y164091*
X246219Y163750*
Y162727*
Y163523D02*
X244500Y164318D01*
X247781Y165568D02*
Y166818D01*
X246531Y166136*
Y166477*
X246375Y166705*
X246219Y166818*
X245750Y166932*
X245438*
X245438D02*
X244969Y166818D01*
X244656Y166591*
X244500Y166250*
Y165909*
X244656Y165568*
X244813Y165455*
X244813D02*
X245125Y165341D01*
X247000Y168068D02*
X247156D01*
X247469Y168182*
X247625Y168295*
X247781Y168523*
Y168977*
X247625Y169205*
X247469Y169318*
X247156Y169432*
X246844*
X246531Y169318*
X246063Y169091*
X246063D02*
X244500Y167955D01*
Y169545*
X185750Y248719D02*
Y252000D01*
Y248719D02*
X186773D01*
X187114Y248875*
X187227Y249031*
X187341Y249344*
Y249656*
X187227Y249969*
X187114Y250125*
X186773Y250281*
X185750*
X186545D02*
X187341Y252000D01*
X188364Y249344D02*
X188591Y249187D01*
X188591D02*
X188932Y248719D01*
Y252000*
X190068Y249500D02*
Y249344D01*
X190182Y249031*
X190295Y248875*
X190523Y248719*
X190977*
X191205Y248875*
X191318Y249031*
X191432Y249344*
Y249656*
X191318Y249969*
X191091Y250437*
X191091D02*
X189955Y252000D01*
X191545*
X284273Y170281D02*
Y167000D01*
Y170281D02*
X283250D01*
X282909Y170125*
X282795Y169969*
X282682Y169656*
Y169344*
X282795Y169031*
X282909Y168875*
X283250Y168719*
X284273*
X283477D02*
X282682Y167000D01*
X281432Y170281D02*
X280182D01*
X280864Y169031*
X280523*
X280295Y168875*
X280182Y168719*
X280068Y168250*
Y167938*
X280068D02*
X280182Y167469D01*
X280409Y167156*
X280750Y167000*
X281091*
X281432Y167156*
X281545Y167313*
X281545D02*
X281659Y167625D01*
X278818Y170281D02*
X277568D01*
X278250Y169031*
X277909*
X277682Y168875*
X277568Y168719*
X277455Y168250*
Y167938*
X277455D02*
X277568Y167469D01*
X277795Y167156*
X278136Y167000*
X278477*
X278818Y167156*
X278932Y167313*
X278932D02*
X279045Y167625D01*
X284386Y175281D02*
Y172000D01*
Y175281D02*
X283364D01*
X283023Y175125*
X282909Y174969*
X282795Y174656*
Y174344*
X282909Y174031*
X283023Y173875*
X283364Y173719*
X284386*
X283591D02*
X282795Y172000D01*
X281545Y175281D02*
X280295D01*
X280977Y174031*
X280636*
X280409Y173875*
X280295Y173719*
X280182Y173250*
Y172938*
X280182D02*
X280295Y172469D01*
X280523Y172156*
X280864Y172000*
X281205*
X281545Y172156*
X281659Y172313*
X281659D02*
X281773Y172625D01*
X278023Y175281D02*
X279159Y173094D01*
X277455*
X278023Y175281D02*
Y172000D01*
X388955Y173500D02*
X388841Y173187D01*
X388614Y172875*
X388386Y172719*
X387932*
X387705Y172875*
X387477Y173187*
X387364Y173500*
X387250Y173969*
Y174750*
X387364Y175219*
X387477Y175531*
X387705Y175844*
X387932Y176000*
X388386*
X388614Y175844*
X388841Y175531*
X388955Y175219*
X389977Y173344D02*
X390205Y173187D01*
X390545Y172719*
Y176000*
X387932Y128500D02*
X387818Y128187D01*
X387591Y127875*
X387364Y127719*
X386909*
X386682Y127875*
X386455Y128187*
X386341Y128500*
X386227Y128969*
Y129750*
X386341Y130219*
X386455Y130531*
X386682Y130844*
X386909Y131000*
X387364*
X387591Y130844*
X387818Y130531*
X387932Y130219*
X389068Y128500D02*
Y128344D01*
X389182Y128031*
X389295Y127875*
X389523Y127719*
X389977*
X390205Y127875*
X390318Y128031*
X390432Y128344*
Y128656*
X390318Y128969*
X390091Y129437*
X388955Y131000*
X390545*
X391568Y135500D02*
X391682Y135813D01*
X391682D02*
X391909Y136125D01*
X392136Y136281*
X392591*
X392818Y136125*
X393045Y135813*
X393045D02*
X393159Y135500D01*
X393273Y135031*
Y134250*
X393159Y133781*
X393045Y133469*
X392818Y133156*
X392591Y133000*
X392136*
X391909Y133156*
X391682Y133469*
X391568Y133781*
X390318Y136281D02*
X389068D01*
X389750Y135031*
X389409*
X389182Y134875*
X389068Y134719*
X388955Y134250*
Y133938*
X388955D02*
X389068Y133469D01*
X389295Y133156*
X389636Y133000*
X389977*
X390318Y133156*
X390432Y133313*
X390432D02*
X390545Y133625D01*
X363000Y137818D02*
X363313Y137705D01*
X363625Y137477*
X363781Y137250*
Y136795*
X363625Y136568*
X363313Y136341*
X363000Y136227*
X362531Y136114*
X361750*
X361281Y136227*
X360969Y136341*
X360656Y136568*
X360500Y136795*
Y137250*
X360656Y137477*
X360969Y137705*
X361281Y137818*
X363781Y140318D02*
Y139182D01*
X362375Y139068*
X362531Y139182*
X362688Y139523*
Y139864*
X362531Y140205*
X362219Y140432*
X361750Y140545*
X361438Y140432*
X360969Y140318*
X360656Y140091*
X360500Y139750*
Y139409*
X360656Y139068*
X360813Y138955*
X361125Y138841*
X370318Y129500D02*
X370205Y129187D01*
X370205D02*
X369977Y128875D01*
X369750Y128719*
X369295*
X369068Y128875*
X368841Y129187*
X368841D02*
X368727Y129500D01*
X368614Y129969*
Y130750*
X368727Y131219*
X368841Y131531*
X369068Y131844*
X369295Y132000*
X369750*
X369977Y131844*
X370205Y131531*
X370318Y131219*
X372477Y128719D02*
X371341Y130906D01*
X373045*
X372477Y128719D02*
Y132000D01*
X407000Y188219D02*
Y191500D01*
Y188219D02*
X407795D01*
X408136Y188375*
X408364Y188687*
X408364D02*
X408477Y189000D01*
X408591Y189469*
Y190250*
X408477Y190719*
X408364Y191031*
X408136Y191344*
X407795Y191500*
X407000*
X409614Y188844D02*
X409841Y188687D01*
X409841D02*
X410182Y188219D01*
Y191500*
X406000Y164719D02*
Y168000D01*
Y164719D02*
X406795D01*
X407136Y164875*
X407364Y165187*
X407364D02*
X407477Y165500D01*
X407591Y165969*
Y166750*
X407477Y167219*
X407364Y167531*
X407136Y167844*
X406795Y168000*
X406000*
X408614Y165344D02*
X408841Y165187D01*
X408841D02*
X409182Y164719D01*
Y168000*
X410773Y164719D02*
X410432Y164875D01*
X410318Y165187*
X410318D02*
Y165500D01*
X410432Y165812*
X410432D02*
X410659Y165969D01*
X411114Y166125*
X411455Y166281*
X411682Y166594*
X411795Y166906*
Y167375*
X411682Y167687*
X411682D02*
X411568Y167844D01*
X411227Y168000*
X410773*
X410432Y167844*
X410318Y167687*
X410318D02*
X410205Y167375D01*
Y166906*
X410318Y166594*
X410545Y166281*
X410886Y166125*
X411341Y165969*
X411568Y165812*
X411568D02*
X411682Y165500D01*
Y165187*
X411682D02*
X411568Y164875D01*
X411227Y164719*
X410773*
X289886Y180281D02*
Y177000D01*
Y180281D02*
X288864D01*
X288523Y180125*
X288409Y179969*
X288295Y179656*
Y179344*
X288409Y179031*
X288523Y178875*
X288864Y178719*
X289886*
X289091D02*
X288295Y177000D01*
X287045Y180281D02*
X285795D01*
X286477Y179031*
X286136*
X285909Y178875*
X285795Y178719*
X285682Y178250*
Y177938*
X285682D02*
X285795Y177469D01*
X286023Y177156*
X286364Y177000*
X286705*
X287045Y177156*
X287159Y177313*
X287159D02*
X287273Y177625D01*
X283182Y180281D02*
X284318D01*
X284432Y178875*
X284318Y179031*
X283977Y179188*
X283977D02*
X283636D01*
X283636D02*
X283295Y179031D01*
X283068Y178719*
X282955Y178250*
X283068Y177938*
X283068D02*
X283182Y177469D01*
X283409Y177156*
X283750Y177000*
X284091*
X284432Y177156*
X284545Y177313*
X284545D02*
X284659Y177625D01*
X246281Y194000D02*
X243000D01*
X246281D02*
Y194795D01*
X246125Y195136*
X245813Y195364*
X245813D02*
X245500Y195477D01*
X245031Y195591*
X244250*
X243781Y195477*
X243469Y195364*
X243156Y195136*
X243000Y194795*
Y194000*
X245500Y196727D02*
X245656D01*
X245969Y196841*
X246125Y196955*
X246281Y197182*
Y197636*
X246125Y197864*
X245969Y197977*
X245656Y198091*
X245344*
X245031Y197977*
X244563Y197750*
X244563D02*
X243000Y196614D01*
Y198205*
X245656Y199227D02*
X245813Y199455D01*
X245813D02*
X246281Y199795D01*
X243000*
X269781Y193500D02*
X266500D01*
X269781D02*
Y194295D01*
X269625Y194636*
X269313Y194864*
X269313D02*
X269000Y194977D01*
X268531Y195091*
X267750*
X267281Y194977*
X266969Y194864*
X266656Y194636*
X266500Y194295*
Y193500*
X269000Y196227D02*
X269156D01*
X269469Y196341*
X269625Y196455*
X269781Y196682*
Y197136*
X269625Y197364*
X269469Y197477*
X269156Y197591*
X268844*
X268531Y197477*
X268063Y197250*
X268063D02*
X266500Y196114D01*
Y197705*
X269000Y198841D02*
X269156D01*
X269469Y198955*
X269625Y199068*
X269781Y199295*
Y199750*
X269625Y199977*
X269469Y200091*
X269156Y200205*
X268844*
X268531Y200091*
X268063Y199864*
X268063D02*
X266500Y198727D01*
Y200318*
X236000Y180281D02*
Y177000D01*
Y180281D02*
X234977D01*
X234636Y180125*
X234523Y179969*
X234409Y179656*
Y179344*
X234523Y179031*
X234636Y178875*
X234977Y178719*
X236000*
X235205D02*
X234409Y177000D01*
X232250Y180281D02*
X233386Y178094D01*
X231682*
X232250Y180281D02*
Y177000D01*
X229523Y180281D02*
X230659Y178094D01*
X228955*
X229523Y180281D02*
Y177000D01*
X193281Y194500D02*
X190000D01*
X193281D02*
Y195295D01*
X193125Y195636*
X192813Y195864*
X192813D02*
X192500Y195977D01*
X192031Y196091*
X191250*
X190781Y195977*
X190469Y195864*
X190156Y195636*
X190000Y195295*
Y194500*
X192656Y197114D02*
X192813Y197341D01*
X192813D02*
X193281Y197682D01*
X190000*
X192813Y200068D02*
X193125Y199955D01*
X193281Y199614*
Y199386*
X193125Y199045*
X192656Y198818*
X191875Y198705*
X191094*
X190469Y198818*
X190156Y199045*
X190000Y199386*
Y199500*
X190156Y199841*
X190469Y200068*
X190938Y200182*
X190938D02*
X191094D01*
X191563Y200068*
X191563D02*
X191875Y199841D01*
X192031Y199500*
Y199386*
X191875Y199045*
X191563Y198818*
X191563D02*
X191094Y198705D01*
X216281Y194500D02*
X213000D01*
X216281D02*
Y195295D01*
X216125Y195636*
X215813Y195864*
X215813D02*
X215500Y195977D01*
X215031Y196091*
X214250*
X213781Y195977*
X213469Y195864*
X213156Y195636*
X213000Y195295*
Y194500*
X215656Y197114D02*
X215813Y197341D01*
X215813D02*
X216281Y197682D01*
X213000*
X216281Y200295D02*
X213000Y199159D01*
X216281Y198705D02*
Y200295D01*
X83945Y243500D02*
X83832Y243187D01*
X83832D02*
X83605Y242875D01*
X83377Y242719*
X82923*
X82695Y242875*
X82468Y243187*
X82468D02*
X82355Y243500D01*
X82241Y243969*
Y244750*
X82355Y245219*
X82468Y245531*
X82695Y245844*
X82923Y246000*
X83377*
X83605Y245844*
X83832Y245531*
X83945Y245219*
X86332Y243187D02*
X86218Y242875D01*
X85877Y242719*
X85650*
X85309Y242875*
X85082Y243344*
X84968Y244125*
Y244906*
X85082Y245531*
X85309Y245844*
X85650Y246000*
X85764*
X86105Y245844*
X86332Y245531*
X86445Y245062*
X86445D02*
Y244906D01*
X86332Y244437*
X86332D02*
X86105Y244125D01*
X85764Y243969*
X85650*
X85309Y244125*
X85082Y244437*
X85082D02*
X84968Y244906D01*
X76500Y253668D02*
X76187Y253782D01*
X76187D02*
X75875Y254009D01*
X75719Y254236*
Y254691*
X75875Y254918*
X76187Y255145*
X76187D02*
X76500Y255259D01*
X76969Y255373*
X77750*
X78219Y255259*
X78531Y255145*
X78844Y254918*
X79000Y254691*
Y254236*
X78844Y254009*
X78531Y253782*
X78219Y253668*
X75719Y251055D02*
X79000Y252191D01*
X75719Y252645D02*
Y251055D01*
X95741Y254000D02*
X95627Y253687D01*
X95627D02*
X95400Y253375D01*
X95173Y253219*
X94718*
X94491Y253375*
X94264Y253687*
X94264D02*
X94150Y254000D01*
X94036Y254469*
Y255250*
X94150Y255719*
X94264Y256031*
X94491Y256344*
X94718Y256500*
X95173*
X95400Y256344*
X95627Y256031*
X95741Y255719*
X96764Y253844D02*
X96991Y253687D01*
X96991D02*
X97332Y253219D01*
Y256500*
X99036Y253219D02*
X98695Y253375D01*
X98468Y253844*
X98355Y254625*
Y255094*
X98468Y255875*
X98695Y256344*
X99036Y256500*
X99264*
X99605Y256344*
X99832Y255875*
X99945Y255094*
Y254625*
X99832Y253844*
X99605Y253375*
X99264Y253219*
X99036*
X125682Y264000D02*
X125795Y264313D01*
X125795D02*
X126023Y264625D01*
X126250Y264781*
X126705*
X126932Y264625*
X127159Y264313*
X127159D02*
X127273Y264000D01*
X127386Y263531*
Y262750*
X127273Y262281*
X127159Y261969*
X126932Y261656*
X126705Y261500*
X126250*
X126023Y261656*
X125795Y261969*
X125682Y262281*
X124545Y264000D02*
Y264156D01*
X124432Y264469*
X124318Y264625*
X124091Y264781*
X123636*
X123409Y264625*
X123295Y264469*
X123182Y264156*
Y263844*
X123295Y263531*
X123523Y263063*
X123523D02*
X124659Y261500D01*
X123068*
X121818Y264781D02*
X120568D01*
X121250Y263531*
X120909*
X120682Y263375*
X120568Y263219*
X120455Y262750*
Y262438*
X120455D02*
X120568Y261969D01*
X120795Y261656*
X121136Y261500*
X121477*
X121818Y261656*
X121932Y261813*
X121932D02*
X122045Y262125D01*
X100773Y181781D02*
Y178500D01*
Y181781D02*
X99750D01*
X99409Y181625*
X99295Y181469*
X99182Y181156*
Y180844*
X99295Y180531*
X99409Y180375*
X99750Y180219*
X100773*
X99977D02*
X99182Y178500D01*
X96682Y181781D02*
X97818D01*
X97932Y180375*
X97818Y180531*
X97477Y180688*
X97477D02*
X97136D01*
X97136D02*
X96795Y180531D01*
X96568Y180219*
X96455Y179750*
X96568Y179438*
X96568D02*
X96682Y178969D01*
X96909Y178656*
X97250Y178500*
X97591*
X97932Y178656*
X98045Y178813*
X98045D02*
X98159Y179125D01*
X101182Y186000D02*
X101295Y186313D01*
X101295D02*
X101523Y186625D01*
X101750Y186781*
X102205*
X102432Y186625*
X102659Y186313*
X102659D02*
X102773Y186000D01*
X102886Y185531*
Y184750*
X102773Y184281*
X102659Y183969*
X102432Y183656*
X102205Y183500*
X101750*
X101523Y183656*
X101295Y183969*
X101182Y184281*
X100045Y186000D02*
Y186156D01*
X99932Y186469*
X99818Y186625*
X99591Y186781*
X99136*
X98909Y186625*
X98795Y186469*
X98682Y186156*
Y185844*
X98795Y185531*
X99023Y185063*
X99023D02*
X100159Y183500D01*
X98568*
X96977Y186781D02*
X97318Y186625D01*
X97432Y186313*
X97432D02*
Y186000D01*
X97318Y185688*
X97318D02*
X97091Y185531D01*
X96636Y185375*
X96295Y185219*
X96068Y184906*
X95955Y184594*
Y184125*
X96068Y183813*
X96068D02*
X96182Y183656D01*
X96523Y183500*
X96977*
X97318Y183656*
X97432Y183813*
X97432D02*
X97545Y184125D01*
Y184594*
X97432Y184906*
X97205Y185219*
X96864Y185375*
X96409Y185531*
X96182Y185688*
X96182D02*
X96068Y186000D01*
Y186313*
X96068D02*
X96182Y186625D01*
X96523Y186781*
X96977*
X101045Y191781D02*
Y188500D01*
Y191781D02*
X100023D01*
X99682Y191625*
X99568Y191469*
X99455Y191156*
Y190844*
X99568Y190531*
X99682Y190375*
X100023Y190219*
X101045*
X100250D02*
X99455Y188500D01*
X97068Y191313D02*
X97182Y191625D01*
X97523Y191781*
X97750*
X98091Y191625*
X98318Y191156*
X98432Y190375*
Y189594*
X98318Y188969*
X98091Y188656*
X97750Y188500*
X97636*
X97295Y188656*
X97068Y188969*
X96955Y189438*
X96955D02*
Y189594D01*
X97068Y190063*
X97068D02*
X97295Y190375D01*
X97636Y190531*
X97750*
X98091Y190375*
X98318Y190063*
X98318D02*
X98432Y189594D01*
X92750Y172781D02*
Y169500D01*
Y172781D02*
X91727D01*
X91386Y172625*
X91273Y172469*
X91159Y172156*
Y171844*
X91273Y171531*
X91386Y171375*
X91727Y171219*
X92750*
X91955D02*
X91159Y169500D01*
X90136Y172156D02*
X89909Y172313D01*
X89909D02*
X89568Y172781D01*
Y169500*
X88318Y172781D02*
X87068D01*
X87750Y171531*
X87409*
X87182Y171375*
X87068Y171219*
X86955Y170750*
Y170438*
X86955D02*
X87068Y169969D01*
X87295Y169656*
X87636Y169500*
X87977*
X88318Y169656*
X88432Y169813*
X88432D02*
X88545Y170125D01*
X95219Y213364D02*
X98500D01*
X95219D02*
Y212341D01*
X95375Y212000*
X95531Y211886*
X95844Y211773*
X96156*
X96469Y211886*
X96625Y212000*
X96781Y212341*
Y213364*
Y212568D02*
X98500Y211773D01*
X95844Y210750D02*
X95687Y210523D01*
X95687D02*
X95219Y210182D01*
X98500*
X95219Y208023D02*
X97406Y209159D01*
Y207455*
X95219Y208023D02*
X98500D01*
X89719Y212964D02*
X93000D01*
X89719D02*
Y211941D01*
X89875Y211600*
X90031Y211486*
X90344Y211373*
X90656*
X90969Y211486*
X91125Y211600*
X91281Y211941*
Y212964*
Y212168D02*
X93000Y211373D01*
X90344Y210350D02*
X90187Y210123D01*
X90187D02*
X89719Y209782D01*
X93000*
X89719Y207282D02*
Y208418D01*
X91125Y208532*
X90969Y208418*
X90812Y208077*
X90812D02*
Y207736D01*
X90812D02*
X90969Y207395D01*
X91281Y207168*
X91750Y207055*
X92062Y207168*
X92062D02*
X92531Y207282D01*
X92844Y207509*
X93000Y207850*
Y208191*
X92844Y208532*
X92687Y208645*
X92687D02*
X92375Y208759D01*
X85219Y218636D02*
X88500D01*
X85219D02*
Y217614D01*
X85375Y217273*
X85531Y217159*
X85844Y217045*
X86156*
X86469Y217159*
X86625Y217273*
X86781Y217614*
Y218636*
Y217841D02*
X88500Y217045D01*
X85844Y216023D02*
X85687Y215795D01*
X85687D02*
X85219Y215455D01*
X88500*
X85687Y213068D02*
X85375Y213182D01*
X85219Y213523*
Y213750*
X85375Y214091*
X85844Y214318*
X86625Y214432*
X87406*
X88031Y214318*
X88344Y214091*
X88500Y213750*
Y213636*
X88344Y213295*
X88031Y213068*
X87562Y212955*
X87562D02*
X87406D01*
X86937Y213068*
X86937D02*
X86625Y213295D01*
X86469Y213636*
Y213750*
X86625Y214091*
X86937Y214318*
X86937D02*
X87406Y214432D01*
X69750Y191161D02*
X66469D01*
X69750D02*
Y191957D01*
X69594Y192298*
X69281Y192525*
X68969Y192639*
X68500Y192752*
X67719*
X67250Y192639*
X66937Y192525*
X66625Y192298*
X66469Y191957*
Y191161*
X68969Y193889D02*
X69125D01*
X69437Y194002*
X69594Y194116*
X69750Y194343*
Y194798*
X69594Y195025*
X69437Y195139*
X69125Y195252*
X68812*
X68500Y195139*
X68031Y194911*
X66469Y193775*
Y195366*
X69750Y214661D02*
X66469D01*
X69750D02*
Y215457D01*
X69594Y215798*
X69281Y216025*
X68969Y216139*
X68500Y216252*
X67719*
X67250Y216139*
X66937Y216025*
X66625Y215798*
X66469Y215457*
Y214661*
X69750Y218411D02*
X67562Y217275D01*
Y218980*
X69750Y218411D02*
X66469D01*
X102250Y127781D02*
Y124500D01*
Y127781D02*
X101227D01*
X100886Y127625*
X100773Y127469*
X100659Y127156*
Y126844*
X100773Y126531*
X100886Y126375*
X101227Y126219*
X102250*
X101455D02*
X100659Y124500D01*
X99636Y127156D02*
X99409Y127313D01*
X99409D02*
X99068Y127781D01*
Y124500*
X96455Y127781D02*
X97591Y124500D01*
X98045Y127781D02*
X96455D01*
X101182Y132000D02*
X101295Y132313D01*
X101295D02*
X101523Y132625D01*
X101750Y132781*
X102205*
X102432Y132625*
X102659Y132313*
X102659D02*
X102773Y132000D01*
X102886Y131531*
Y130750*
X102773Y130281*
X102659Y129969*
X102432Y129656*
X102205Y129500*
X101750*
X101523Y129656*
X101295Y129969*
X101182Y130281*
X99932Y132781D02*
X98682D01*
X99364Y131531*
X99023*
X98795Y131375*
X98682Y131219*
X98568Y130750*
Y130438*
X98568D02*
X98682Y129969D01*
X98909Y129656*
X99250Y129500*
X99591*
X99932Y129656*
X100045Y129813*
X100045D02*
X100159Y130125D01*
X96864Y132781D02*
X97205Y132625D01*
X97432Y132156*
X97545Y131375*
Y130906*
X97432Y130125*
X97205Y129656*
X96864Y129500*
X96636*
X96295Y129656*
X96068Y130125*
X95955Y130906*
Y131375*
X96068Y132156*
X96295Y132625*
X96636Y132781*
X96864*
X102750Y137281D02*
Y134000D01*
Y137281D02*
X101727D01*
X101386Y137125*
X101273Y136969*
X101159Y136656*
Y136344*
X101273Y136031*
X101386Y135875*
X101727Y135719*
X102750*
X101955D02*
X101159Y134000D01*
X100136Y136656D02*
X99909Y136813D01*
X99909D02*
X99568Y137281D01*
Y134000*
X97977Y137281D02*
X98318Y137125D01*
X98432Y136813*
X98432D02*
Y136500D01*
X98318Y136188*
X98318D02*
X98091Y136031D01*
X97636Y135875*
X97295Y135719*
X97068Y135406*
X96955Y135094*
Y134625*
X97068Y134313*
X97068D02*
X97182Y134156D01*
X97523Y134000*
X97977*
X98318Y134156*
X98432Y134313*
X98432D02*
X98545Y134625D01*
Y135094*
X98432Y135406*
X98205Y135719*
X97864Y135875*
X97409Y136031*
X97182Y136188*
X97182D02*
X97068Y136500D01*
Y136813*
X97068D02*
X97182Y137125D01*
X97523Y137281*
X97977*
X92886Y118781D02*
Y115500D01*
Y118781D02*
X91864D01*
X91523Y118625*
X91409Y118469*
X91295Y118156*
Y117844*
X91409Y117531*
X91523Y117375*
X91864Y117219*
X92886*
X92091D02*
X91295Y115500D01*
X90159Y118000D02*
Y118156D01*
X90045Y118469*
X89932Y118625*
X89705Y118781*
X89250*
X89023Y118625*
X88909Y118469*
X88795Y118156*
Y117844*
X88909Y117531*
X89136Y117063*
X89136D02*
X90273Y115500D01*
X88682*
X86182Y118781D02*
X87318D01*
X87432Y117375*
X87318Y117531*
X86977Y117688*
X86977D02*
X86636D01*
X86636D02*
X86295Y117531D01*
X86068Y117219*
X85955Y116750*
X86068Y116438*
X86068D02*
X86182Y115969D01*
X86409Y115656*
X86750Y115500*
X87091*
X87432Y115656*
X87545Y115813*
X87545D02*
X87659Y116125D01*
X95219Y160273D02*
X98500D01*
X95219D02*
Y159250D01*
X95375Y158909*
X95531Y158795*
X95844Y158682*
X96156*
X96469Y158795*
X96625Y158909*
X96781Y159250*
Y160273*
Y159477D02*
X98500Y158682D01*
X95219Y156523D02*
X97406Y157659D01*
Y155955*
X95219Y156523D02*
X98500D01*
X95687Y153568D02*
X95375Y153682D01*
X95219Y154023*
Y154250*
X95375Y154591*
X95844Y154818*
X96625Y154932*
X97406*
X98031Y154818*
X98344Y154591*
X98500Y154250*
Y154136*
X98344Y153795*
X98031Y153568*
X97562Y153455*
X97562D02*
X97406D01*
X96937Y153568*
X96937D02*
X96625Y153795D01*
X96469Y154136*
Y154250*
X96625Y154591*
X96937Y154818*
X96937D02*
X97406Y154932D01*
X89719Y159986D02*
X93000D01*
X89719D02*
Y158964D01*
X89875Y158623*
X90031Y158509*
X90344Y158395*
X90656*
X90969Y158509*
X91125Y158623*
X91281Y158964*
Y159986*
Y159191D02*
X93000Y158395D01*
X89719Y156236D02*
X91906Y157373D01*
Y155668*
X89719Y156236D02*
X93000D01*
X89719Y153055D02*
X93000Y154191D01*
X89719Y154645D02*
Y153055D01*
X85219Y165886D02*
X88500D01*
X85219D02*
Y164864D01*
X85375Y164523*
X85531Y164409*
X85844Y164295*
X86156*
X86469Y164409*
X86625Y164523*
X86781Y164864*
Y165886*
Y165091D02*
X88500Y164295D01*
X85219Y162136D02*
X87406Y163273D01*
Y161568*
X85219Y162136D02*
X88500D01*
X85219Y159977D02*
X85375Y160318D01*
X85687Y160432*
X85687D02*
X86000D01*
X86312Y160318*
X86312D02*
X86469Y160091D01*
X86625Y159636*
X86781Y159295*
X87094Y159068*
X87406Y158955*
X87875*
X88187Y159068*
X88187D02*
X88344Y159182D01*
X88500Y159523*
Y159977*
X88344Y160318*
X88187Y160432*
X88187D02*
X87875Y160545D01*
X87406*
X87094Y160432*
X86781Y160205*
X86625Y159864*
X86469Y159409*
X86312Y159182*
X86312D02*
X86000Y159068D01*
X85687*
X85687D02*
X85375Y159182D01*
X85219Y159523*
Y159977*
X69750Y137161D02*
X66469D01*
X69750D02*
Y137957D01*
X69594Y138298*
X69281Y138525*
X68969Y138639*
X68500Y138752*
X67719*
X67250Y138639*
X66937Y138525*
X66625Y138298*
X66469Y137957*
Y137161*
X68656Y141252D02*
X68187Y141139D01*
X67875Y140911*
X67719Y140571*
Y140457*
X67875Y140116*
X68187Y139889*
X68656Y139775*
X68812*
X69281Y139889*
X69594Y140116*
X69750Y140457*
Y140571*
X69594Y140911*
X69281Y141139*
X68656Y141252*
X67875*
X67094Y141139*
X66625Y140911*
X66469Y140571*
Y140343*
X66625Y140002*
X66937Y139889*
X69750Y160661D02*
X66469D01*
X69750D02*
Y161457D01*
X69594Y161798*
X69281Y162025*
X68969Y162139*
X68500Y162252*
X67719*
X67250Y162139*
X66937Y162025*
X66625Y161798*
X66469Y161457*
Y160661*
X69125Y163275D02*
X69281Y163502D01*
X69750Y163843*
X66469*
X69750Y165548D02*
X69594Y165207D01*
X69125Y164980*
X68344Y164866*
X67875*
X67094Y164980*
X66625Y165207*
X66469Y165548*
Y165775*
X66625Y166116*
X67094Y166343*
X67875Y166457*
X68344*
X69125Y166343*
X69594Y166116*
X69750Y165775*
Y165548*
X411250Y139661D02*
X407969D01*
X411250D02*
Y140457D01*
X411094Y140798*
X410781Y141025*
X410469Y141139*
X410000Y141252*
X409219*
X408750Y141139*
X408437Y141025*
X408125Y140798*
X407969Y140457*
Y139661*
X411250Y142843D02*
X411094Y142502D01*
X410781Y142389*
X410469*
X410156Y142502*
X410000Y142730*
X409844Y143184*
X409687Y143525*
X409375Y143752*
X409062Y143866*
X408594*
X408281Y143752*
X408125Y143639*
X407969Y143298*
Y142843*
X408125Y142502*
X408281Y142389*
X408594Y142275*
X409062*
X409375Y142389*
X409687Y142616*
X409844Y142957*
X410000Y143411*
X410156Y143639*
X410469Y143752*
X410781*
X411094Y143639*
X411250Y143298*
Y142843*
X107773Y109281D02*
X106523D01*
X107205Y108031*
X106864*
X106636Y107875*
X106523Y107719*
X106409Y107250*
Y106938*
X106523Y106469*
X106750Y106156*
X107091Y106000*
X107432*
X107773Y106156*
X107886Y106313*
X108000Y106625*
X103909Y108188D02*
X104023Y107719D01*
X104250Y107406*
X104591Y107250*
X104705*
X105045Y107406*
X105273Y107719*
X105386Y108188*
Y108344*
X105273Y108813*
X105045Y109125*
X104705Y109281*
X104591*
X104250Y109125*
X104023Y108813*
X103909Y108188*
Y107406*
X104023Y106625*
X104250Y106156*
X104591Y106000*
X104818*
X105159Y106156*
X105273Y106469*
X102205Y109281D02*
X102545Y109125D01*
X102773Y108656*
X102886Y107875*
Y107406*
X102773Y106625*
X102545Y106156*
X102205Y106000*
X101977*
X101636Y106156*
X101409Y106625*
X101295Y107406*
Y107875*
X101409Y108656*
X101636Y109125*
X101977Y109281*
X102205*
X126219Y311864D02*
X128406Y313000D01*
Y311295*
X126219Y311864D02*
X129500D01*
X129187Y310159D02*
X129344Y310273D01*
X129500Y310159*
X129344Y310045*
X129187Y310159*
X126219Y307432D02*
X129500Y308568D01*
X126219Y309023D02*
Y307432D01*
Y306409D02*
X129500D01*
X127312Y305273D02*
X128875Y306409D01*
X128250Y305955D02*
X129500Y305159D01*
X414781Y152227D02*
Y153477D01*
X413531Y152795*
Y153136*
X413375Y153364*
X413219Y153477*
X412750Y153591*
X412437*
X412437D02*
X411969Y153477D01*
X411656Y153250*
X411500Y152909*
Y152568*
X411656Y152227*
X411812Y152114*
X411812D02*
X412125Y152000D01*
X413687Y156091D02*
X413219Y155977D01*
X412906Y155750*
X412750Y155409*
Y155295*
X412906Y154955*
X413219Y154727*
X413687Y154614*
X413687D02*
X413844D01*
X414312Y154727*
X414312D02*
X414625Y154955D01*
X414781Y155295*
Y155409*
X414625Y155750*
X414312Y155977*
X414312D02*
X413687Y156091D01*
X413687D02*
X412906D01*
X412125Y155977*
X411656Y155750*
X411500Y155409*
Y155182*
X411656Y154841*
X411969Y154727*
X414781Y157795D02*
X414625Y157455D01*
X414156Y157227*
X413375Y157114*
X412906*
X412125Y157227*
X411656Y157455*
X411500Y157795*
Y158023*
X411656Y158364*
X412125Y158591*
X412906Y158705*
X413375*
X414156Y158591*
X414625Y158364*
X414781Y158023*
Y157795*
X377182Y176719D02*
X376841Y176875D01*
X376614Y177344*
X376500Y178125*
Y178594*
X376614Y179375*
X376841Y179844*
X377182Y180000*
X377409*
X377750Y179844*
X377977Y179375*
X378091Y178594*
Y178125*
X377977Y177344*
X377750Y176875*
X377409Y176719*
X377182*
X379227Y179687D02*
X379114Y179844D01*
X379227Y180000*
X379341Y179844*
X379227Y179687*
X380364Y177344D02*
X380591Y177187D01*
X380591D02*
X380932Y176719D01*
Y180000*
X381955Y177812D02*
Y179375D01*
X382068Y179844*
X382295Y180000*
X382636*
X382864Y179844*
X383205Y179375*
Y177812D02*
Y180000D01*
X384227Y176719D02*
Y180000D01*
Y176719D02*
X385705D01*
X384227Y178281D02*
X385136D01*
X376182Y123719D02*
X375841Y123875D01*
X375614Y124344*
X375500Y125125*
Y125594*
X375614Y126375*
X375841Y126844*
X376182Y127000*
X376409*
X376750Y126844*
X376977Y126375*
X377091Y125594*
Y125125*
X376977Y124344*
X376750Y123875*
X376409Y123719*
X376182*
X378227Y126688D02*
X378114Y126844D01*
X378227Y127000*
X378341Y126844*
X378227Y126688*
X379364Y124344D02*
X379591Y124188D01*
X379591D02*
X379932Y123719D01*
Y127000*
X380955Y124813D02*
Y126375D01*
X381068Y126844*
X381295Y127000*
X381636*
X381864Y126844*
X382205Y126375*
Y124813D02*
Y127000D01*
X383227Y123719D02*
Y127000D01*
Y123719D02*
X384705D01*
X383227Y125281D02*
X384136D01*
X386318Y140281D02*
X386659Y140125D01*
X386886Y139656*
X387000Y138875*
Y138406*
X386886Y137625*
X386659Y137156*
X386318Y137000*
X386091*
X385750Y137156*
X385523Y137625*
X385409Y138406*
Y138875*
X385523Y139656*
X385750Y140125*
X386091Y140281*
X386318*
X384273Y137312D02*
X384386Y137156D01*
X384273Y137000*
X384159Y137156*
X384273Y137312*
X383136Y139656D02*
X382909Y139812D01*
X382909D02*
X382568Y140281D01*
Y137000*
X381545Y139187D02*
Y137625D01*
X381432Y137156*
X381205Y137000*
X380864*
X380636Y137156*
X380295Y137625*
Y139187D02*
Y137000D01*
X379273Y140281D02*
Y137000D01*
Y140281D02*
X377795D01*
X379273Y138719D02*
X378364D01*
X368281Y123682D02*
X368125Y123341D01*
X367656Y123114*
X366875Y123000*
X366406*
X365625Y123114*
X365156Y123341*
X365000Y123682*
Y123909*
X365156Y124250*
X365625Y124477*
X366406Y124591*
X366875*
X367656Y124477*
X368125Y124250*
X368281Y123909*
Y123682*
X365312Y125727D02*
X365156Y125614D01*
X365000Y125727*
X365156Y125841*
X365312Y125727*
X367656Y126864D02*
X367812Y127091D01*
X367812D02*
X368281Y127432D01*
X365000*
X367187Y128455D02*
X365625D01*
X365156Y128568*
X365000Y128795*
Y129136*
X365156Y129364*
X365625Y129705*
X367187D02*
X365000D01*
X368281Y130727D02*
X365000D01*
X368281D02*
Y132205D01*
X366719Y130727D02*
Y131636D01*
X374318Y140281D02*
X374659Y140125D01*
X374886Y139656*
X375000Y138875*
Y138406*
X374886Y137625*
X374659Y137156*
X374318Y137000*
X374091*
X373750Y137156*
X373523Y137625*
X373409Y138406*
Y138875*
X373523Y139656*
X373750Y140125*
X374091Y140281*
X374318*
X372273Y137312D02*
X372386Y137156D01*
X372273Y137000*
X372159Y137156*
X372273Y137312*
X371136Y139656D02*
X370909Y139812D01*
X370909D02*
X370568Y140281D01*
Y137000*
X369545Y139187D02*
Y137625D01*
X369432Y137156*
X369205Y137000*
X368864*
X368636Y137156*
X368295Y137625*
Y139187D02*
Y137000D01*
X367273Y140281D02*
Y137000D01*
Y140281D02*
X365795D01*
X367273Y138719D02*
X366364D01*
X88727Y239719D02*
X89977D01*
X89295Y240969*
X89636*
X89864Y241125*
X89977Y241281*
X90091Y241750*
Y242063*
X90091D02*
X89977Y242531D01*
X89750Y242844*
X89409Y243000*
X89068*
X88727Y242844*
X88614Y242688*
X88614D02*
X88500Y242375D01*
X91341Y239719D02*
X92591D01*
X91909Y240969*
X92250*
X92477Y241125*
X92591Y241281*
X92705Y241750*
Y242063*
X92705D02*
X92591Y242531D01*
X92364Y242844*
X92023Y243000*
X91682*
X91341Y242844*
X91227Y242688*
X91227D02*
X91114Y242375D01*
X93727Y240813D02*
Y243000D01*
Y241438D02*
X94068Y240969D01*
X94295Y240813*
X94295D02*
X94636D01*
X94636D02*
X94864Y240969D01*
X94977Y241438*
X94977D02*
Y243000D01*
X96000Y239719D02*
Y243000D01*
Y239719D02*
X97477D01*
X96000Y241281D02*
X96909D01*
X102682Y249219D02*
X102341Y249375D01*
X102114Y249844*
X102000Y250625*
Y251094*
X102114Y251875*
X102341Y252344*
X102682Y252500*
X102909*
X103250Y252344*
X103477Y251875*
X103591Y251094*
Y250625*
X103477Y249844*
X103250Y249375*
X102909Y249219*
X102682*
X104727Y252188D02*
X104614Y252344D01*
X104727Y252500*
X104841Y252344*
X104727Y252188*
X105864Y249844D02*
X106091Y249688D01*
X106091D02*
X106432Y249219D01*
Y252500*
X107455Y250313D02*
Y251875D01*
X107568Y252344*
X107795Y252500*
X108136*
X108364Y252344*
X108705Y251875*
Y250313D02*
Y252500D01*
X109727Y249219D02*
Y252500D01*
Y249219D02*
X111205D01*
X109727Y250781D02*
X110636D01*
X116500Y268156D02*
X116273Y268312D01*
X116273D02*
X115932Y268781D01*
Y265500*
X114227Y268781D02*
X114568Y268625D01*
X114795Y268156*
X114909Y267375*
Y266906*
X114795Y266125*
X114568Y265656*
X114227Y265500*
X114000*
X113659Y265656*
X113432Y266125*
X113318Y266906*
Y267375*
X113432Y268156*
X113659Y268625*
X114000Y268781*
X114227*
X112295Y267687D02*
Y266125D01*
X112182Y265656*
X111955Y265500*
X111614*
X111386Y265656*
X111045Y266125*
Y267687D02*
Y265500D01*
X110023Y268781D02*
Y265500D01*
Y268781D02*
X108545D01*
X110023Y267219D02*
X109114D01*
G54D33*
X225496Y254039D02*
X222465D01*
X217004Y253961D02*
X220035D01*
X214496Y254039D02*
X211465D01*
X228004Y253961D02*
X231035D01*
X204461Y262996D02*
Y259965D01*
X204539Y254504D02*
Y257535D01*
X195531Y228681D02*
X199469D01*
X199075Y234193D02*
X203406D01*
Y228681*
X202618*
X195925Y234193D02*
X191201D01*
Y228681*
X192382*
X303504Y174961D02*
X306535D01*
X311496Y175039D02*
X308465D01*
X313504Y174961D02*
X316535D01*
X301496Y175039D02*
X298465D01*
X325039Y167004D02*
Y170035D01*
X324961Y174996D02*
Y171965D01*
X331039Y177004D02*
Y180035D01*
X309969Y199819D02*
X306031D01*
X306425Y194307D02*
X302094D01*
Y199819*
X302882*
X309575Y194307D02*
X314299D01*
Y199819*
X313118*
X333469D02*
X329531D01*
X329925Y194307D02*
X325594D01*
Y199819*
X326382*
X333075Y194307D02*
X337799D01*
Y199819*
X336618*
X196004Y175961D02*
X199035D01*
X219531Y228681D02*
X223469D01*
X223075Y234193D02*
X227406D01*
Y228681*
X226618*
X219925Y234193D02*
X215201D01*
Y228681*
X216382*
X203996Y176039D02*
X200965D01*
X206004Y175961D02*
X209035D01*
X193996Y176039D02*
X190965D01*
X343819Y262531D02*
Y266469D01*
X338307Y266075D02*
Y270406D01*
X343819*
Y269618*
X338307Y262925D02*
Y258201D01*
X343819*
Y259382*
Y278031D02*
Y281969D01*
X338307Y281575D02*
Y285906D01*
X343819*
Y285118*
X338307Y278425D02*
Y273701D01*
X343819*
Y274882*
X217539Y167004D02*
Y170035D01*
X217461Y174996D02*
Y171965D01*
X306819Y278031D02*
Y281969D01*
X301307Y281575D02*
Y285906D01*
X306819*
Y285118*
X301307Y278425D02*
Y273701D01*
X306819*
Y274882*
Y262531D02*
Y266469D01*
X301307Y266075D02*
Y270406D01*
X306819*
Y269618*
X301307Y262925D02*
Y258201D01*
X306819*
Y259382*
X114039Y106504D02*
Y109535D01*
X136039Y310004D02*
Y313035D01*
Y305004D02*
Y308035D01*
X407504Y155961D02*
X410535D01*
X142531Y286181D02*
X146469D01*
X146075Y291693D02*
X150406D01*
Y286181*
X149618*
X142925Y291693D02*
X138201D01*
Y286181*
X139382*
X144469Y130819D02*
X140531D01*
X140925Y125307D02*
X136594D01*
Y130819*
X137382*
X144075Y125307D02*
X148799D01*
Y130819*
X147618*
X249504Y175961D02*
X252535D01*
X257496Y176039D02*
X254465D01*
X259504Y175961D02*
X262535D01*
X247496Y176039D02*
X244465D01*
X198461Y251996D02*
Y248965D01*
X270539Y167004D02*
Y170035D01*
X270461Y174996D02*
Y171965D01*
X369157Y147520D02*
Y162480D01*
X388843*
Y147520*
X369157*
X381039Y172504D02*
Y175535D01*
X379539Y128004D02*
Y131035D01*
X382461Y135996D02*
Y132965D01*
X361004Y130961D02*
X364035D01*
X371039Y133004D02*
Y136035D01*
X406181Y200469D02*
Y196531D01*
X411693Y196925D02*
Y192594D01*
X406181*
Y193382*
X411693Y200075D02*
Y204799D01*
X406181*
Y203618*
Y176969D02*
Y173031D01*
X411693Y173425D02*
Y169094D01*
X406181*
Y169882*
X411693Y176575D02*
Y181299D01*
X406181*
Y180118*
X276039Y177004D02*
Y180035D01*
X255469Y199819D02*
X251531D01*
X251925Y194307D02*
X247594D01*
Y199819*
X248382*
X255075Y194307D02*
X259799D01*
Y199819*
X258618*
X278969D02*
X275031D01*
X275425Y194307D02*
X271094D01*
Y199819*
X271882*
X278575Y194307D02*
X283299D01*
Y199819*
X282118*
X222539Y177004D02*
Y180035D01*
X201969Y199819D02*
X198031D01*
X198425Y194307D02*
X194094D01*
Y199819*
X194882*
X201575Y194307D02*
X206299D01*
Y199819*
X205118*
X225469D02*
X221531D01*
X221925Y194307D02*
X217594D01*
Y199819*
X218382*
X225075Y194307D02*
X229799D01*
Y199819*
X228618*
X92539Y243504D02*
Y246535D01*
X76504Y244961D02*
X79535D01*
X106039Y254004D02*
Y257035D01*
X113039Y261504D02*
Y264535D01*
X89539Y178504D02*
Y181535D01*
X89461Y186496D02*
Y183465D01*
X89539Y188504D02*
Y191535D01*
X89461Y176496D02*
Y173465D01*
X98496Y201039D02*
X95465D01*
X90504Y200961D02*
X93535D01*
X88496Y206039D02*
X85465D01*
X65681Y184469D02*
Y180531D01*
X71193Y180925D02*
Y176594D01*
X65681*
Y177382*
X71193Y184075D02*
Y188799D01*
X65681*
Y187618*
Y207969D02*
Y204031D01*
X71193Y204425D02*
Y200094D01*
X65681*
Y200882*
X71193Y207575D02*
Y212299D01*
X65681*
Y211118*
X89539Y124504D02*
Y127535D01*
X89461Y132496D02*
Y129465D01*
X89539Y134504D02*
Y137535D01*
X89461Y122496D02*
Y119465D01*
X98496Y147039D02*
X95465D01*
X90504Y146961D02*
X93535D01*
X88496Y152039D02*
X85465D01*
X65681Y130469D02*
Y126531D01*
X71193Y126925D02*
Y122594D01*
X65681*
Y123382*
X71193Y130075D02*
Y134799D01*
X65681*
Y133618*
Y153969D02*
Y150031D01*
X71193Y150425D02*
Y146094D01*
X65681*
Y146882*
X71193Y153575D02*
Y158299D01*
X65681*
Y157118*
X407181Y132969D02*
Y129031D01*
X412693Y129425D02*
Y125094D01*
X407181*
Y125882*
X412693Y132575D02*
Y137299D01*
X407181*
Y136118*
G54D100*
X385890Y151457D02*
G03X385890I-984J0D01*
G54D101*
G01X391303Y142402D02*
G03X391303I-492J0D01*
G54D104*
G01X394069Y153353D02*
X391300D01*
X390747Y153487*
X390378Y153755*
X390193Y154158*
Y154426*
X390378Y154829*
X390747Y155097*
X391300Y155232*
X394069*
X393330Y156440D02*
X393515Y156708D01*
X394069Y157111*
X390193*
G74*
X0Y0D02*
M02*
