*
*
G04 PADS 9.3.1 Build Number: 456998 generated Gerber (RS-274-X) file*
G04 PC Version=2.1*
*
%IN "cpc_rev3.pcb"*%
*
%MOIN*%
*
%FSLAX35Y35*%
*
*
*
*
G04 PC Standard Apertures*
*
*
G04 Thermal Relief Aperture macro.*
%AMTER*
1,1,$1,0,0*
1,0,$1-$2,0,0*
21,0,$3,$4,0,0,45*
21,0,$3,$4,0,0,135*
%
*
*
G04 Annular Aperture macro.*
%AMANN*
1,1,$1,0,0*
1,0,$2,0,0*
%
*
*
G04 Odd Aperture macro.*
%AMODD*
1,1,$1,0,0*
1,0,$1-0.005,0,0*
%
*
*
G04 PC Custom Aperture Macros*
*
*
*
*
*
*
G04 PC Aperture Table*
*
%ADD010C,0.001*%
%ADD019C,0.01*%
%ADD074C,0.02*%
%ADD077R,0.07X0.07*%
%ADD078C,0.07*%
%ADD079C,0.014*%
%ADD080C,0.06906*%
%ADD081C,0.075*%
%ADD082R,0.02969X0.09858*%
%ADD083R,0.09071X0.16748*%
%ADD084R,0.09071X0.1478*%
%ADD085C,0.04543*%
%ADD086R,0.10449X0.06512*%
%ADD087R,0.05724X0.08874*%
%ADD088R,0.23047X0.23047*%
%ADD089C,0.09858*%
%ADD090R,0.09858X0.02969*%
%ADD091R,0.16748X0.09071*%
%ADD092R,0.1478X0.09071*%
%ADD093R,0.03165X0.06315*%
%ADD094O,0.0352X0.0789*%
%ADD095R,0.01984X0.06512*%
%ADD096O,0.01984X0.06512*%
%ADD097O,0.06512X0.01984*%
%ADD098R,0.06315X0.03165*%
*
*
*
*
G04 PC Circuitry*
G04 Layer Name cpc_rev3.pcb - circuitry*
%LPD*%
*
*
G04 PC Custom Flashes*
G04 Layer Name cpc_rev3.pcb - flashes*
%LPD*%
*
*
G04 PC Circuitry*
G04 Layer Name cpc_rev3.pcb - circuitry*
%LPD*%
*
G54D10*
G54D19*
G01X119874Y236071D02*
Y239929D01*
X120701Y240756*
X128496*
X129323Y239929*
Y236071*
X128496Y235244*
X120701*
X119874Y236071*
X119945Y236000D02*
X129252D01*
X119874Y237000D02*
X129323D01*
X119874Y238000D02*
X129323D01*
X119874Y239000D02*
X129323D01*
X119945Y240000D02*
X129252D01*
X120000Y235945D02*
Y240055D01*
X121000Y235244D02*
Y240756D01*
X122000Y235244D02*
Y240756D01*
X123000Y235244D02*
Y240756D01*
X124000Y235244D02*
Y240756D01*
X125000Y235244D02*
Y240756D01*
X126000Y235244D02*
Y240756D01*
X127000Y235244D02*
Y240756D01*
X128000Y235244D02*
Y240756D01*
X129000Y235748D02*
Y240252D01*
G54D74*
X377250Y251543D02*
Y252543D01*
X379750*
Y251543*
X377250*
Y252000D02*
X379750D01*
X378000Y251543D02*
Y252543D01*
X377250Y244457D02*
Y245457D01*
X379750*
Y244457*
X377250*
X378000D02*
Y245457D01*
X385124Y248000D02*
Y249000D01*
X387624*
Y248000*
X385124*
X387624*
X386000D02*
Y249000D01*
G54D77*
X177500Y297500D03*
Y107500D03*
G54D78*
Y307500D03*
X187500Y297500D03*
Y307500D03*
X197500Y297500D03*
Y307500D03*
X207500Y297500D03*
Y307500D03*
X217500Y297500D03*
Y307500D03*
X227500Y297500D03*
Y307500D03*
X237500Y297500D03*
Y307500D03*
X247500Y297500D03*
Y307500D03*
X257500Y297500D03*
Y307500D03*
X267500Y297500D03*
Y307500D03*
X277500Y297500D03*
Y307500D03*
X287500Y297500D03*
Y307500D03*
X297500Y297500D03*
Y307500D03*
X307500Y297500D03*
Y307500D03*
X317500Y297500D03*
Y307500D03*
X327500Y297500D03*
Y307500D03*
X337500Y297500D03*
Y307500D03*
X347500Y297500D03*
Y307500D03*
X357500Y297500D03*
Y307500D03*
X367500Y297500D03*
Y307500D03*
X377500Y297500D03*
Y307500D03*
X387500Y297500D03*
Y307500D03*
X397500Y297500D03*
Y307500D03*
X177500Y117500D03*
X187500Y107500D03*
Y117500D03*
X197500Y107500D03*
Y117500D03*
X207500Y107500D03*
Y117500D03*
X217500Y107500D03*
Y117500D03*
X227500Y107500D03*
Y117500D03*
X237500Y107500D03*
Y117500D03*
X247500Y107500D03*
Y117500D03*
X257500Y107500D03*
Y117500D03*
X267500Y107500D03*
Y117500D03*
X277500Y107500D03*
Y117500D03*
X287500Y107500D03*
Y117500D03*
X297500Y107500D03*
Y117500D03*
X307500Y107500D03*
Y117500D03*
X317500Y107500D03*
Y117500D03*
X327500Y107500D03*
Y117500D03*
X337500Y107500D03*
Y117500D03*
X347500Y107500D03*
Y117500D03*
X357500Y107500D03*
Y117500D03*
X367500Y107500D03*
Y117500D03*
X377500Y107500D03*
Y117500D03*
X387500Y107500D03*
Y117500D03*
X397500Y107500D03*
Y117500D03*
G54D79*
X260200Y204700D02*
Y207300D01*
X263600*
Y204700*
X260200*
Y205000D02*
X263600D01*
X260200Y206400D02*
X263600D01*
X261000Y204700D02*
Y207300D01*
X262400Y204700D02*
Y207300D01*
X266400Y204700D02*
Y207300D01*
X269800*
Y204700*
X266400*
Y205000D02*
X269800D01*
X266400Y206400D02*
X269800D01*
X266600Y204700D02*
Y207300D01*
X268000Y204700D02*
Y207300D01*
X269400Y204700D02*
Y207300D01*
X314700Y204700D02*
Y207300D01*
X318100*
Y204700*
X314700*
Y205000D02*
X318100D01*
X314700Y206400D02*
X318100D01*
X315600Y204700D02*
Y207300D01*
X317000Y204700D02*
Y207300D01*
X320900Y204700D02*
Y207300D01*
X324300*
Y204700*
X320900*
Y205000D02*
X324300D01*
X320900Y206400D02*
X324300D01*
X321200Y204700D02*
Y207300D01*
X322600Y204700D02*
Y207300D01*
X324000Y204700D02*
Y207300D01*
X206700Y204700D02*
Y207300D01*
X210100*
Y204700*
X206700*
Y205000D02*
X210100D01*
X206700Y206400D02*
X210100D01*
X207800Y204700D02*
Y207300D01*
X209200Y204700D02*
Y207300D01*
X212900Y204700D02*
Y207300D01*
X216300*
Y204700*
X212900*
Y205000D02*
X216300D01*
X212900Y206400D02*
X216300D01*
X213400Y204700D02*
Y207300D01*
X214800Y204700D02*
Y207300D01*
X216200Y204700D02*
Y207300D01*
X297300Y148200D02*
X294700D01*
Y151600*
X297300*
Y148200*
X294700Y149000D02*
X297300D01*
X294700Y150400D02*
X297300D01*
X296000Y148200D02*
Y151600D01*
X297300Y154400D02*
X294700D01*
Y157800*
X297300*
Y154400*
X294700Y154600D02*
X297300D01*
X294700Y156000D02*
X297300D01*
X294700Y157400D02*
X297300D01*
X296000Y154400D02*
Y157800D01*
X139700Y269800D02*
X142300D01*
Y266400*
X139700*
Y269800*
Y266600D02*
X142300D01*
X139700Y268000D02*
X142300D01*
X139700Y269400D02*
X142300D01*
X140600Y266400D02*
Y269800D01*
X142000Y266400D02*
Y269800D01*
X139700Y263600D02*
X142300D01*
Y260200*
X139700*
Y263600*
Y261000D02*
X142300D01*
X139700Y262400D02*
X142300D01*
X140600Y260200D02*
Y263600D01*
X142000Y260200D02*
Y263600D01*
X147300Y260200D02*
X144700D01*
Y263600*
X147300*
Y260200*
X144700Y261000D02*
X147300D01*
X144700Y262400D02*
X147300D01*
X144800Y260200D02*
Y263600D01*
X146200Y260200D02*
Y263600D01*
X147300Y266400D02*
X144700D01*
Y269800*
X147300*
Y266400*
X144700Y266600D02*
X147300D01*
X144700Y268000D02*
X147300D01*
X144700Y269400D02*
X147300D01*
X144800Y266400D02*
Y269800D01*
X146200Y266400D02*
Y269800D01*
X189800Y148200D02*
X187200D01*
Y151600*
X189800*
Y148200*
X187200Y149000D02*
X189800D01*
X187200Y150400D02*
X189800D01*
X188200Y148200D02*
Y151600D01*
X189600Y148200D02*
Y151600D01*
X189800Y154400D02*
X187200D01*
Y157800*
X189800*
Y154400*
X187200Y154600D02*
X189800D01*
X187200Y156000D02*
X189800D01*
X187200Y157400D02*
X189800D01*
X188200Y154400D02*
Y157800D01*
X189600Y154400D02*
Y157800D01*
X231700Y277800D02*
X234300D01*
Y274400*
X231700*
Y277800*
Y275000D02*
X234300D01*
X231700Y276400D02*
X234300D01*
X231700Y277800D02*
X234300D01*
X233000Y274400D02*
Y277800D01*
X231700Y271600D02*
X234300D01*
Y268200*
X231700*
Y271600*
Y269400D02*
X234300D01*
X231700Y270800D02*
X234300D01*
X233000Y268200D02*
Y271600D01*
X216300Y223800D02*
Y221200D01*
X212900*
Y223800*
X216300*
X212900Y221800D02*
X216300D01*
X212900Y223200D02*
X216300D01*
X213400Y221200D02*
Y223800D01*
X214800Y221200D02*
Y223800D01*
X216200Y221200D02*
Y223800D01*
X210100D02*
Y221200D01*
X206700*
Y223800*
X210100*
X206700Y221800D02*
X210100D01*
X206700Y223200D02*
X210100D01*
X207800Y221200D02*
Y223800D01*
X209200Y221200D02*
Y223800D01*
X216300Y218300D02*
Y215700D01*
X212900*
Y218300*
X216300*
X212900Y216200D02*
X216300D01*
X212900Y217600D02*
X216300D01*
X213400Y215700D02*
Y218300D01*
X214800Y215700D02*
Y218300D01*
X216200Y215700D02*
Y218300D01*
X210100D02*
Y215700D01*
X206700*
Y218300*
X210100*
X206700Y216200D02*
X210100D01*
X206700Y217600D02*
X210100D01*
X207800Y215700D02*
Y218300D01*
X209200Y215700D02*
Y218300D01*
X109200Y106700D02*
Y109300D01*
X112600*
Y106700*
X109200*
Y107000D02*
X112600D01*
X109200Y108400D02*
X112600D01*
X109800Y106700D02*
Y109300D01*
X111200Y106700D02*
Y109300D01*
X112600Y106700D02*
Y109300D01*
X115400Y106700D02*
Y109300D01*
X118800*
Y106700*
X115400*
Y107000D02*
X118800D01*
X115400Y108400D02*
X118800D01*
X115400Y106700D02*
Y109300D01*
X116800Y106700D02*
Y109300D01*
X118200Y106700D02*
Y109300D01*
X260200Y210200D02*
Y212800D01*
X263600*
Y210200*
X260200*
Y210600D02*
X263600D01*
X260200Y212000D02*
X263600D01*
X261000Y210200D02*
Y212800D01*
X262400Y210200D02*
Y212800D01*
X266400Y210200D02*
Y212800D01*
X269800*
Y210200*
X266400*
Y210600D02*
X269800D01*
X266400Y212000D02*
X269800D01*
X266600Y210200D02*
Y212800D01*
X268000Y210200D02*
Y212800D01*
X269400Y210200D02*
Y212800D01*
X314700Y210200D02*
Y212800D01*
X318100*
Y210200*
X314700*
Y210600D02*
X318100D01*
X314700Y212000D02*
X318100D01*
X315600Y210200D02*
Y212800D01*
X317000Y210200D02*
Y212800D01*
X320900Y210200D02*
Y212800D01*
X324300*
Y210200*
X320900*
Y210600D02*
X324300D01*
X320900Y212000D02*
X324300D01*
X321200Y210200D02*
Y212800D01*
X322600Y210200D02*
Y212800D01*
X324000Y210200D02*
Y212800D01*
X206700Y210200D02*
Y212800D01*
X210100*
Y210200*
X206700*
Y210600D02*
X210100D01*
X206700Y212000D02*
X210100D01*
X207800Y210200D02*
Y212800D01*
X209200Y210200D02*
Y212800D01*
X212900Y210200D02*
Y212800D01*
X216300*
Y210200*
X212900*
Y210600D02*
X216300D01*
X212900Y212000D02*
X216300D01*
X213400Y210200D02*
Y212800D01*
X214800Y210200D02*
Y212800D01*
X216200Y210200D02*
Y212800D01*
X149700Y269800D02*
X152300D01*
Y266400*
X149700*
Y269800*
Y266600D02*
X152300D01*
X149700Y268000D02*
X152300D01*
X149700Y269400D02*
X152300D01*
X150400Y266400D02*
Y269800D01*
X151800Y266400D02*
Y269800D01*
X149700Y263600D02*
X152300D01*
Y260200*
X149700*
Y263600*
Y261000D02*
X152300D01*
X149700Y262400D02*
X152300D01*
X150400Y260200D02*
Y263600D01*
X151800Y260200D02*
Y263600D01*
X137300Y260200D02*
X134700D01*
Y263600*
X137300*
Y260200*
X134700Y261000D02*
X137300D01*
X134700Y262400D02*
X137300D01*
X135000Y260200D02*
Y263600D01*
X136400Y260200D02*
Y263600D01*
X137300Y266400D02*
X134700D01*
Y269800*
X137300*
Y266400*
X134700Y266600D02*
X137300D01*
X134700Y268000D02*
X137300D01*
X134700Y269400D02*
X137300D01*
X135000Y266400D02*
Y269800D01*
X136400Y266400D02*
Y269800D01*
X410300Y151200D02*
X407700D01*
Y154600*
X410300*
Y151200*
X407700Y151800D02*
X410300D01*
X407700Y153200D02*
X410300D01*
X407700Y154600D02*
X410300D01*
X408000Y151200D02*
Y154600D01*
X409400Y151200D02*
Y154600D01*
X410300Y157400D02*
X407700D01*
Y160800*
X410300*
Y157400*
X407700D02*
X410300D01*
X407700Y158800D02*
X410300D01*
X407700Y160200D02*
X410300D01*
X408000Y157400D02*
Y160800D01*
X409400Y157400D02*
Y160800D01*
X242300Y147700D02*
X239700D01*
Y151100*
X242300*
Y147700*
X239700Y149000D02*
X242300D01*
X239700Y150400D02*
X242300D01*
X240000Y147700D02*
Y151100D01*
X241400Y147700D02*
Y151100D01*
X242300Y153900D02*
X239700D01*
Y157300*
X242300*
Y153900*
X239700Y154600D02*
X242300D01*
X239700Y156000D02*
X242300D01*
X240000Y153900D02*
Y157300D01*
X241400Y153900D02*
Y157300D01*
X364300Y194200D02*
X361700D01*
Y197600*
X364300*
Y194200*
X361700Y195200D02*
X364300D01*
X361700Y196600D02*
X364300D01*
X361800Y194200D02*
Y197600D01*
X363200Y194200D02*
Y197600D01*
X364300Y200400D02*
X361700D01*
Y203800*
X364300*
Y200400*
X361700Y200800D02*
X364300D01*
X361700Y202200D02*
X364300D01*
X361700Y203600D02*
X364300D01*
X361800Y200400D02*
Y203800D01*
X363200Y200400D02*
Y203800D01*
X378300Y218800D02*
Y216200D01*
X374900*
Y218800*
X378300*
X374900Y216200D02*
X378300D01*
X374900Y217600D02*
X378300D01*
X375800Y216200D02*
Y218800D01*
X377200Y216200D02*
Y218800D01*
X372100D02*
Y216200D01*
X368700*
Y218800*
X372100*
X368700Y216200D02*
X372100D01*
X368700Y217600D02*
X372100D01*
X368800Y216200D02*
Y218800D01*
X370200Y216200D02*
Y218800D01*
X371600Y216200D02*
Y218800D01*
X364300Y178700D02*
X361700D01*
Y182100*
X364300*
Y178700*
X361700Y179800D02*
X364300D01*
X361700Y181200D02*
X364300D01*
X361800Y178700D02*
Y182100D01*
X363200Y178700D02*
Y182100D01*
X364300Y184900D02*
X361700D01*
Y188300*
X364300*
Y184900*
X361700Y185400D02*
X364300D01*
X361700Y186800D02*
X364300D01*
X361700Y188200D02*
X364300D01*
X361800Y184900D02*
Y188300D01*
X363200Y184900D02*
Y188300D01*
X368700Y211200D02*
Y213800D01*
X372100*
Y211200*
X368700*
Y212000D02*
X372100D01*
X368700Y213400D02*
X372100D01*
X368800Y211200D02*
Y213800D01*
X370200Y211200D02*
Y213800D01*
X371600Y211200D02*
Y213800D01*
X374900Y211200D02*
Y213800D01*
X378300*
Y211200*
X374900*
Y212000D02*
X378300D01*
X374900Y213400D02*
X378300D01*
X375800Y211200D02*
Y213800D01*
X377200Y211200D02*
Y213800D01*
X117800Y272800D02*
Y270200D01*
X114400*
Y272800*
X117800*
X114400Y270800D02*
X117800D01*
X114400Y272200D02*
X117800D01*
X115400Y270200D02*
Y272800D01*
X116800Y270200D02*
Y272800D01*
X111600D02*
Y270200D01*
X108200*
Y272800*
X111600*
X108200Y270800D02*
X111600D01*
X108200Y272200D02*
X111600D01*
X108400Y270200D02*
Y272800D01*
X109800Y270200D02*
Y272800D01*
X111200Y270200D02*
Y272800D01*
X108200Y264700D02*
Y267300D01*
X111600*
Y264700*
X108200*
Y265200D02*
X111600D01*
X108200Y266600D02*
X111600D01*
X108400Y264700D02*
Y267300D01*
X109800Y264700D02*
Y267300D01*
X111200Y264700D02*
Y267300D01*
X114400Y264700D02*
Y267300D01*
X117800*
Y264700*
X114400*
Y265200D02*
X117800D01*
X114400Y266600D02*
X117800D01*
X115400Y264700D02*
Y267300D01*
X116800Y264700D02*
Y267300D01*
X115700Y235800D02*
X118300D01*
Y232400*
X115700*
Y235800*
Y233000D02*
X118300D01*
X115700Y234400D02*
X118300D01*
X115700Y235800D02*
X118300D01*
X116800Y232400D02*
Y235800D01*
X118200Y232400D02*
Y235800D01*
X115700Y229600D02*
X118300D01*
Y226200*
X115700*
Y229600*
Y227400D02*
X118300D01*
X115700Y228800D02*
X118300D01*
X116800Y226200D02*
Y229600D01*
X118200Y226200D02*
Y229600D01*
X98700Y274300D02*
X101300D01*
Y270900*
X98700*
Y274300*
Y272200D02*
X101300D01*
X98700Y273600D02*
X101300D01*
X98700Y270900D02*
Y274300D01*
X100100Y270900D02*
Y274300D01*
X98700Y268100D02*
X101300D01*
Y264700*
X98700*
Y268100*
Y265200D02*
X101300D01*
X98700Y266600D02*
X101300D01*
X98700Y268000D02*
X101300D01*
X98700Y264700D02*
Y268100D01*
X100100Y264700D02*
Y268100D01*
X94200Y274300D02*
X96800D01*
Y270900*
X94200*
Y274300*
Y272200D02*
X96800D01*
X94200Y273600D02*
X96800D01*
X94200Y270900D02*
Y274300D01*
X95600Y270900D02*
Y274300D01*
X94200Y268100D02*
X96800D01*
Y264700*
X94200*
Y268100*
Y265200D02*
X96800D01*
X94200Y266600D02*
X96800D01*
X94200Y268000D02*
X96800D01*
X94200Y264700D02*
Y268100D01*
X95600Y264700D02*
Y268100D01*
X87700Y274300D02*
X90300D01*
Y270900*
X87700*
Y274300*
Y272200D02*
X90300D01*
X87700Y273600D02*
X90300D01*
X87700Y270900D02*
Y274300D01*
X89100Y270900D02*
Y274300D01*
X87700Y268100D02*
X90300D01*
Y264700*
X87700*
Y268100*
Y265200D02*
X90300D01*
X87700Y266600D02*
X90300D01*
X87700Y268000D02*
X90300D01*
X87700Y264700D02*
Y268100D01*
X89100Y264700D02*
Y268100D01*
X158700Y248300D02*
X161300D01*
Y244900*
X158700*
Y248300*
Y245600D02*
X161300D01*
X158700Y247000D02*
X161300D01*
X158800Y244900D02*
Y248300D01*
X160200Y244900D02*
Y248300D01*
X158700Y242100D02*
X161300D01*
Y238700*
X158700*
Y242100*
Y240000D02*
X161300D01*
X158700Y241400D02*
X161300D01*
X158800Y238700D02*
Y242100D01*
X160200Y238700D02*
Y242100D01*
X118800Y173800D02*
Y171200D01*
X115400*
Y173800*
X118800*
X115400Y171400D02*
X118800D01*
X115400Y172800D02*
X118800D01*
X115400Y171200D02*
Y173800D01*
X116800Y171200D02*
Y173800D01*
X118200Y171200D02*
Y173800D01*
X112600D02*
Y171200D01*
X109200*
Y173800*
X112600*
X109200Y171400D02*
X112600D01*
X109200Y172800D02*
X112600D01*
X109800Y171200D02*
Y173800D01*
X111200Y171200D02*
Y173800D01*
X112600Y171200D02*
Y173800D01*
X118300Y119800D02*
Y117200D01*
X114900*
Y119800*
X118300*
X114900Y118200D02*
X118300D01*
X114900Y119600D02*
X118300D01*
X115400Y117200D02*
Y119800D01*
X116800Y117200D02*
Y119800D01*
X118200Y117200D02*
Y119800D01*
X112100D02*
Y117200D01*
X108700*
Y119800*
X112100*
X108700Y118200D02*
X112100D01*
X108700Y119600D02*
X112100D01*
X109800Y117200D02*
Y119800D01*
X111200Y117200D02*
Y119800D01*
X133700Y227200D02*
Y229800D01*
X137100*
Y227200*
X133700*
Y227400D02*
X137100D01*
X133700Y228800D02*
X137100D01*
X135000Y227200D02*
Y229800D01*
X136400Y227200D02*
Y229800D01*
X139900Y227200D02*
Y229800D01*
X143300*
Y227200*
X139900*
Y227400D02*
X143300D01*
X139900Y228800D02*
X143300D01*
X140600Y227200D02*
Y229800D01*
X142000Y227200D02*
Y229800D01*
X377200Y268800D02*
X379800D01*
Y265400*
X377200*
Y268800*
Y266600D02*
X379800D01*
X377200Y268000D02*
X379800D01*
X377200Y265400D02*
Y268800D01*
X378600Y265400D02*
Y268800D01*
X377200Y262600D02*
X379800D01*
Y259200*
X377200*
Y262600*
Y259600D02*
X379800D01*
X377200Y261000D02*
X379800D01*
X377200Y262400D02*
X379800D01*
X377200Y259200D02*
Y262600D01*
X378600Y259200D02*
Y262600D01*
X377200Y236800D02*
X379800D01*
Y233400*
X377200*
Y236800*
Y234400D02*
X379800D01*
X377200Y235800D02*
X379800D01*
X377200Y233400D02*
Y236800D01*
X378600Y233400D02*
Y236800D01*
X377200Y230600D02*
X379800D01*
Y227200*
X377200*
Y230600*
Y227400D02*
X379800D01*
X377200Y228800D02*
X379800D01*
X377200Y230200D02*
X379800D01*
X377200Y227200D02*
Y230600D01*
X378600Y227200D02*
Y230600D01*
G54D80*
X335500Y186000D03*
X327626D03*
X319752D03*
X311878D03*
X304004D03*
X227500D03*
X219626D03*
X211752D03*
X203878D03*
X196004D03*
X194000Y242500D03*
X201874D03*
X209748D03*
X217622D03*
X225496D03*
X132500Y300000D03*
X140374D03*
X148248D03*
X156122D03*
X426000Y202500D03*
Y194626D03*
Y186752D03*
Y178878D03*
Y171004D03*
X281000Y186000D03*
X273126D03*
X265252D03*
X257378D03*
X249504D03*
X79500Y210000D03*
Y202126D03*
Y194252D03*
Y186378D03*
Y178504D03*
Y156000D03*
Y148126D03*
Y140252D03*
Y132378D03*
Y124504D03*
X138500Y114000D03*
X146374D03*
X154248D03*
X245000Y242500D03*
X252874D03*
X260748D03*
X268622D03*
X276496D03*
X315500Y276500D03*
Y268626D03*
Y260752D03*
Y252878D03*
X427500Y127000D03*
Y134874D03*
Y142748D03*
X352500Y276500D03*
Y268626D03*
Y260752D03*
Y252878D03*
G54D81*
X354000Y156000D03*
Y166000D03*
X274500Y267000D03*
Y277000D03*
X147500Y144500D03*
X137500D03*
X344000Y140500D03*
Y130500D03*
X354000Y185500D03*
Y195500D03*
Y140500D03*
Y130500D03*
G54D82*
X101799Y282945D03*
X98650D03*
X95500D03*
X92350D03*
X89201D03*
G54D83*
X114890Y299677D03*
X76110D03*
G54D84*
X114890Y283634D03*
X76110D03*
G54D85*
X104161Y292000D03*
X86839D03*
X417000Y239339D03*
Y256661D03*
G54D86*
X124598Y248000D03*
X149402D03*
Y238000D03*
G54D87*
X149142Y181972D03*
X166858D03*
G54D88*
X157900Y211700D03*
G54D89*
X167000Y164500D03*
Y142846D03*
G54D90*
X407945Y241701D03*
Y244850D03*
Y248000D03*
Y251150D03*
Y254299D03*
G54D91*
X424677Y228610D03*
Y267390D03*
G54D92*
X408634Y228610D03*
Y267390D03*
G54D93*
X227000Y282736D03*
X222000D03*
X217000D03*
X212000D03*
X207000D03*
X202000D03*
X197000D03*
Y262264D03*
X202000D03*
X207000D03*
X212000D03*
X217000D03*
X222000D03*
X227000D03*
X302500Y142264D03*
X307500D03*
X312500D03*
X317500D03*
X322500D03*
X327500D03*
X332500D03*
Y162736D03*
X327500D03*
X322500D03*
X317500D03*
X312500D03*
X307500D03*
X302500D03*
X195000Y142264D03*
X200000D03*
X205000D03*
X210000D03*
X215000D03*
X220000D03*
X225000D03*
Y162736D03*
X220000D03*
X215000D03*
X210000D03*
X205000D03*
X200000D03*
X195000D03*
X247500Y142264D03*
X252500D03*
X257500D03*
X262500D03*
X267500D03*
X272500D03*
X277500D03*
Y162736D03*
X272500D03*
X267500D03*
X262500D03*
X257500D03*
X252500D03*
X247500D03*
G54D94*
X371000Y180476D03*
X376000D03*
X381000D03*
X386000D03*
Y202524D03*
X381000D03*
X376000D03*
X371000D03*
G54D95*
X105327Y255535D03*
G54D96*
X103358D03*
X101390D03*
X99421D03*
X97453D03*
X95484D03*
X93516D03*
X91547D03*
X89579D03*
X87610D03*
X85642D03*
X83673D03*
Y222465D03*
X85642D03*
X87610D03*
X89579D03*
X91547D03*
X93516D03*
X95484D03*
X97453D03*
X99421D03*
X101390D03*
X103358D03*
X105327D03*
G54D97*
X77965Y249827D03*
Y247858D03*
Y245890D03*
Y243921D03*
Y241953D03*
Y239984D03*
Y238016D03*
Y236047D03*
Y234079D03*
Y232110D03*
Y230142D03*
Y228173D03*
X111035D03*
Y230142D03*
Y232110D03*
Y234079D03*
Y236047D03*
Y238016D03*
Y239984D03*
Y241953D03*
Y243921D03*
Y245890D03*
Y247858D03*
Y249827D03*
G54D98*
X123236Y178500D03*
Y183500D03*
Y188500D03*
Y193500D03*
Y198500D03*
Y203500D03*
Y208500D03*
X102764D03*
Y203500D03*
Y198500D03*
Y193500D03*
Y188500D03*
Y183500D03*
Y178500D03*
X123236Y124500D03*
Y129500D03*
Y134500D03*
Y139500D03*
Y144500D03*
Y149500D03*
Y154500D03*
X102764D03*
Y149500D03*
Y144500D03*
Y139500D03*
Y134500D03*
Y129500D03*
Y124500D03*
X0Y0D02*
M02*
