%
T1C.01F0S0
X010816Y0117
X011186Y012469
X011186Y01093
X012019Y01266
X012019Y01074
X012687Y012127
X012687Y011273
X014783Y012016
X017611Y012016
X020439Y012016
X023268Y012016
X026096Y012016
X03239Y01151
X03255Y01252
X036Y0113
X036Y0126
X03655Y0113
X03655Y0126
X0371Y0126
X0371Y0113
X0416Y0131
X0416Y0115
X04325Y0128
X04325Y01315
X048724Y012016
X050138Y01343
X0446Y01415
X0436Y0145
X0414Y0141
X0413Y01486
X0411Y01515
X03795Y01405
X03555Y01515
X03255Y0143
X03075Y0148
X0281Y0145
X0261Y0145
X0241Y01455
X0214Y01555
X01845Y01445
X016197Y01343
X013368Y01343
X014783Y017672
X016197Y016258
X01765Y0177
X01955Y016
X0222Y0166
X0223Y0182
X0241Y01745
X0261Y01745
X0281Y01745
X03025Y01725
X0308Y01725
X0322Y0173
X036Y01795
X03655Y01605
X03735Y01665
X0386Y01725
X0388Y0179
X0412Y01795
X04145Y0173
X0418Y0173
X0418Y01765
X04189Y0182
X04325Y01685
X04325Y01615
X04325Y0165
X0439Y01685
X0439Y01615
X0446Y0175
X0496Y0182
X0509Y0182
X0509Y0193
X0509Y01875
X0496Y01875
X0496Y0193
X04705Y0205
X04625Y0205
X04615Y01875
X044481Y019087
X0432Y02
X0415Y01955
X0412Y0183
X04045Y02045
X03905Y02045
X03905Y02005
X03645Y02045
X03065Y02015
X026096Y020501
X024682Y019087
X023268Y020501
X02124Y01895
X020439Y020501
X01845Y02045
X016197Y019087
X0194Y02195
X02185Y02255
X021854Y021915
X02875Y0226
X03015Y02105
X03184Y02115
X03235Y02115
X03273Y02255
X0343Y0222
X0366Y0222
X03775Y0224
X03835Y02175
X039183Y0224
X0397Y02235
X04075Y02195
X0416Y0224
X0426Y0224
X0449Y02235
X0467Y02235
X0485Y02235
X047587Y025673
X046919Y02514
X046086Y02533
X0437Y0238
X0436Y02565
X04305Y0251
X04225Y02425
X0416Y02475
X04035Y02375
X0397Y02465
X03835Y0242
X033167Y024743
X0322Y0234
X0318Y0236
X03055Y02355
X0283Y02385
X027511Y024743
X0271Y0257
X024682Y024743
X023268Y023329
X0223Y0237
X0208Y02395
X01765Y02365
X016197Y024743
X01845Y02645
X0194Y02795
X020439Y026158
X02185Y02765
X02345Y0276
X0273Y0268
X0294Y0268
X0307Y02585
X0314Y0268
X03325Y02645
X0376Y0262
X0376Y0275
X0391Y0272
X041Y0263
X045716Y0261
X046086Y026869
X046919Y02706
X047587Y026527
X043067Y028986
X041Y0307
X04025Y02905
X03965Y02855
X03965Y03045
X03915Y03045
X03865Y03045
X0379Y03
X0369Y02925
X03255Y03015
X03155Y02915
X0302Y02915
X027511Y0304
X0271Y02825
X0245Y0296
X0238Y0303
X0223Y0292
X021854Y0304
X0208Y02945
X0208Y02995
X0199Y03035
X01765Y0297
X016197Y0304
X014783Y031815
X01765Y0357
X01845Y03245
X0194Y03395
X020439Y031815
X021854Y033229
X0223Y0357
X024682Y033229
X026Y0353
X028Y0323
X02839Y03125
X02864Y03332
X02864Y03269
X0307Y035
X03455Y0336
X034582Y031815
X03741Y03155
X03741Y034643
X040238Y031815
X0444Y03185
X0457Y0328
X04875Y0325
X0488Y0348
X051932Y040475
X04875Y0374
X03825Y0377
X03555Y03685
X0342Y0378
X0335Y0389
X03305Y03615
X0291Y03885
X0291Y0398
X024682Y036057
X021854Y038886
X0208Y03595
X020439Y037471
X01955Y03915
X01845Y03845
X016197Y038886
X016197Y036057
X010816Y0453
X011186Y04453
X012019Y04434
X012687Y045727
X012687Y044873
X016197Y041714
X016197Y044542
X017611Y043128
X01765Y04165
X019025Y044542
X020439Y043128
X0208Y04195
X021854Y044542
X0223Y0417
X0243Y04165
X02437Y04302
X0264Y045
X0273Y0416
X038916Y0453
X039286Y04453
X040119Y04434
X040787Y045727
X040787Y044873
X04274Y041182
X04274Y045425
X0428Y0423
X04335Y0446
X044Y04435
X0454Y04185
X045568Y044011
X045568Y045425
X046276Y044718
X046983Y044011
X046983Y045425
X04769Y044718
X0479Y04255
X048397Y045425
X049104Y044718
X04955Y0422
X049811Y044011
X049811Y045425
X0505Y0415
X050518Y044718
X050518Y043304
X051932Y041889
X051932Y044718
X050518Y046132
X049104Y046132
X04769Y046132
X046276Y046132
X043447Y046132
X040119Y04626
X039286Y046069
X020439Y045957
X017611Y045957
X012019Y04626
X011186Y046069
T2C.02756F0S0
X045222Y0155
X0466Y0155
T3C.028F0S0
X01195Y01695
X01195Y02295
X0509Y02325
X01195Y02895
X01195Y03495
X01195Y04095
T4C.0315F0S0
X051Y032
X051Y032787
X051Y033575
X051Y036
X051Y036787
X051Y037575
X028Y04555
X027213Y04555
X026425Y04555
X025638Y04555
X02485Y04555
T5C.035F0S0
X0351Y02435
X0361Y02435
X0411Y01185
X0421Y01185
X0349Y0283
X0339Y0283
X0329Y0283
X0319Y0283
X0309Y0283
X0299Y0283
X0289Y0283
X0279Y0283
X03025Y04015
X03025Y04115
X03025Y04265
X036Y0431
X037Y0431
X0368Y04615
X0358Y04615
X0348Y04615
X0338Y04615
X0328Y04615
X0318Y04615
X0308Y04615
X03025Y04365
X0298Y04615
T6C.037F0S0
X0458Y02215
X0509Y0256
X0278Y0402
X0268Y0402
X0258Y0402
X0248Y0402
T7C.03937F0S0
X03815Y03315
X03915Y03315
X04015Y03315
X0509Y0402
X0499Y0402
X0489Y0402
X0474Y0402
X0464Y0402
X0454Y0402
X03828Y038914
X03828Y040686
X03572Y040686
X03572Y038914
X02565Y0366
X02565Y0376
X02565Y0386
T8C.04F0S0
X0425Y03405
X0425Y03505
X0435Y03505
X0435Y03405
X0435Y03605
X0425Y03605
T9C.055F0S0
X01095Y01595
X01095Y01795
X01095Y02195
X01295Y01595
X01295Y02195
X01295Y01795
X0499Y02225
X0519Y02225
X0519Y02425
X0499Y02425
X01295Y02395
X01295Y02795
X01295Y02995
X01095Y02795
X01095Y02395
X01095Y02995
X01095Y03395
X01095Y03595
X01095Y03995
X01295Y03395
X01295Y03595
X01295Y03995
X01295Y04195
X01095Y04195
T10C.071F0S0
X04548Y01205
X04765Y01205
T11C.118F0S0
X05052Y01205
T12C.14567F0S0
X0118Y0117
X0467Y0261
X0399Y0453
X0118Y0453
M30
