*
*
G04 PADS 9.3.1 Build Number: 456998 generated Gerber (RS-274-X) file*
G04 PC Version=2.1*
*
%IN "videoMux.pcb"*%
*
%MOIN*%
*
%FSLAX35Y35*%
*
*
*
*
G04 PC Standard Apertures*
*
*
G04 Thermal Relief Aperture macro.*
%AMTER*
1,1,$1,0,0*
1,0,$1-$2,0,0*
21,0,$3,$4,0,0,45*
21,0,$3,$4,0,0,135*
%
*
*
G04 Annular Aperture macro.*
%AMANN*
1,1,$1,0,0*
1,0,$2,0,0*
%
*
*
G04 Odd Aperture macro.*
%AMODD*
1,1,$1,0,0*
1,0,$1-0.005,0,0*
%
*
*
G04 PC Custom Aperture Macros*
*
*
*
*
*
*
G04 PC Aperture Table*
*
%ADD010C,0.001*%
%ADD020C,0.01*%
%ADD057C,0.00787*%
%ADD058C,0.005*%
%ADD059C,0.00787*%
%ADD060C,0.01969*%
*
*
*
*
G04 PC Circuitry*
G04 Layer Name videoMux.pcb - circuitry*
%LPD*%
*
*
G04 PC Custom Flashes*
G04 Layer Name videoMux.pcb - flashes*
%LPD*%
*
*
G04 PC Circuitry*
G04 Layer Name videoMux.pcb - circuitry*
%LPD*%
*
G54D10*
G54D20*
G01X287900Y214400D02*
G75*
G03X287900I-500J0D01*
G01X292400Y227400D02*
G03X292400I-1500J0D01*
G01X532500Y110000D02*
Y131000D01*
X482500*
Y110000*
X532500*
X523400Y123000D02*
Y117700D01*
X309000Y169500D02*
Y175500D01*
X335000Y113000D02*
Y107000D01*
X288038Y442358D02*
G03X288038I-447J0D01*
G01X463500Y202000D02*
Y208000D01*
X407287Y271201D02*
G03X407287I-500J0D01*
G01X481150Y210929D02*
X499850D01*
Y202071*
X481150*
Y210929*
X394929Y124850D02*
Y106150D01*
X386071*
Y124850*
X394929*
X359071Y331650D02*
Y350350D01*
X367929*
Y331650*
X359071*
X372500Y467500D02*
G03X372500I-500J0D01*
G01X331500Y373000D02*
G03X331500I-1500J0D01*
G01X334000Y388000D02*
G03X334000I-500J0D01*
G01X240500Y423500D02*
X234500D01*
X475843Y155000D02*
G03X475843I-16930J0D01*
G01X374787Y289201D02*
G03X374787I-500J0D01*
G01X275500Y277000D02*
G03X275500I-500J0D01*
G01X253000Y407000D02*
X263000D01*
Y397000*
X253000*
Y407000*
X263000D02*
X273000D01*
Y397000*
X263000*
Y407000*
X273000D02*
X283000D01*
Y397000*
X273000*
Y407000*
X243000D02*
X253000D01*
Y397000*
X243000*
Y407000*
X475000Y377000D02*
Y371000D01*
X485000Y348000D02*
X491000D01*
X497114Y316457D02*
G03X497114I-500J0D01*
G01Y356457D02*
G03X497114I-500J0D01*
G01X461400Y338500D02*
G03X461400I-500J0D01*
G01X465000Y348300D02*
G03X465000I-1500J0D01*
G01X453000Y226500D02*
X463000D01*
Y216500*
X453000*
Y226500*
X504000Y261000D02*
X514000D01*
Y251000*
X504000*
Y261000*
X146364Y123563D02*
X145909Y123250D01*
X145455Y122625*
X145227Y122000*
X145000Y121063*
X145000D02*
Y119500D01*
X145227Y118563*
X145227D02*
X145455Y117938D01*
X145455D02*
X145909Y117313D01*
X145909D02*
X146364Y117000D01*
X147273*
X147727Y117313*
X147727D02*
X148182Y117938D01*
X148182D02*
X148409Y118563D01*
X148409D02*
X148636Y119500D01*
Y121063*
X148636D02*
X148409Y122000D01*
X148182Y122625*
X147727Y123250*
X147273Y123563*
X147273D02*
X146364D01*
X153864Y122625D02*
X153409Y123250D01*
X152727Y123563*
X152727D02*
X151818D01*
X151818D02*
X151136Y123250D01*
X150682Y122625*
Y122000*
X150909Y121375*
X151136Y121063*
X151136D02*
X151591Y120750D01*
X152955Y120125*
X153409Y119813*
X153409D02*
X153636Y119500D01*
X153864Y118875*
Y117938*
X153864D02*
X153409Y117313D01*
X153409D02*
X152727Y117000D01*
X151818*
X151136Y117313*
X151136D02*
X150682Y117938D01*
X155909Y123563D02*
Y118875D01*
X156136Y117938*
X156136D02*
X156591Y117313D01*
X156591D02*
X157273Y117000D01*
X157727*
X158409Y117313*
X158409D02*
X158864Y117938D01*
X158864D02*
X159091Y118875D01*
Y123563*
X166591Y122000D02*
Y122313D01*
X166591D02*
X166818Y122938D01*
X166818D02*
X167045Y123250D01*
X167500Y123563*
X167500D02*
X168409D01*
X168409D02*
X168864Y123250D01*
X169091Y122938*
X169091D02*
X169318Y122313D01*
X169318D02*
Y121688D01*
X169318D02*
X169091Y121063D01*
X169091D02*
X168636Y120125D01*
X166364Y117000*
X169545*
X172955Y123563D02*
X172273Y123250D01*
X171818Y122313*
X171818D02*
X171591Y120750D01*
Y119813*
X171591D02*
X171818Y118250D01*
X172273Y117313*
X172273D02*
X172955Y117000D01*
X173409*
X174091Y117313*
X174091D02*
X174545Y118250D01*
X174773Y119813*
X174773D02*
Y120750D01*
X174545Y122313*
X174545D02*
X174091Y123250D01*
X173409Y123563*
X173409D02*
X172955D01*
X176818Y122313D02*
X177273Y122625D01*
X177955Y123563*
X177955D02*
Y117000D01*
X180227Y122000D02*
Y122313D01*
X180227D02*
X180455Y122938D01*
X180455D02*
X180682Y123250D01*
X181136Y123563*
X181136D02*
X182045D01*
X182045D02*
X182500Y123250D01*
X182727Y122938*
X182727D02*
X182955Y122313D01*
X182955D02*
Y121688D01*
X182955D02*
X182727Y121063D01*
X182727D02*
X182273Y120125D01*
X180000Y117000*
X183182*
X190455Y123563D02*
Y117000D01*
Y123563D02*
X192273Y117000D01*
X194091Y123563D02*
X192273Y117000D01*
X194091Y123563D02*
Y117000D01*
X198864Y121375D02*
Y117000D01*
Y120438D02*
X198409Y121063D01*
X198409D02*
X197955Y121375D01*
X197273*
X196818Y121063*
X196818D02*
X196364Y120438D01*
X196364D02*
X196136Y119500D01*
Y118875*
X196364Y117938*
X196364D02*
X196818Y117313D01*
X196818D02*
X197273Y117000D01*
X197955*
X198409Y117313*
X198409D02*
X198864Y117938D01*
X200909Y121375D02*
Y117000D01*
Y119500D02*
X201136Y120438D01*
X201136D02*
X201591Y121063D01*
X201591D02*
X202045Y121375D01*
X202727*
X207273Y120438D02*
X207045Y121063D01*
X207045D02*
X206364Y121375D01*
X205682*
X205000Y121063*
X205000D02*
X204773Y120438D01*
X204773D02*
X205000Y119813D01*
X205000D02*
X205455Y119500D01*
X206591Y119188*
X206591D02*
X207045Y118875D01*
X207273Y118250*
Y117938*
X207273D02*
X207045Y117313D01*
X207045D02*
X206364Y117000D01*
X205682*
X205000Y117313*
X205000D02*
X204773Y117938D01*
X214545Y123563D02*
Y117000D01*
Y123563D02*
X216591D01*
X216591D02*
X217273Y123250D01*
X217500Y122938*
X217500D02*
X217727Y122313D01*
X217727D02*
Y121688D01*
X217727D02*
X217500Y121063D01*
X217500D02*
X217273Y120750D01*
X216591Y120438*
X216591D02*
X214545D01*
X216136D02*
X217727Y117000D01*
X220909Y121375D02*
X220455Y121063D01*
X220455D02*
X220000Y120438D01*
X220000D02*
X219773Y119500D01*
Y118875*
X220000Y117938*
X220000D02*
X220455Y117313D01*
X220455D02*
X220909Y117000D01*
X221591*
X222045Y117313*
X222045D02*
X222500Y117938D01*
X222500D02*
X222727Y118875D01*
Y119500*
X222500Y120438*
X222500D02*
X222045Y121063D01*
X222045D02*
X221591Y121375D01*
X220909*
X224773D02*
X226136Y117000D01*
X227500Y121375D02*
X226136Y117000D01*
X229545Y119500D02*
X232273D01*
Y120125*
X232045Y120750*
X231818Y121063*
X231818D02*
X231364Y121375D01*
X230682*
X230227Y121063*
X230227D02*
X229773Y120438D01*
X229773D02*
X229545Y119500D01*
Y118875*
X229773Y117938*
X229773D02*
X230227Y117313D01*
X230227D02*
X230682Y117000D01*
X231364*
X231818Y117313*
X231818D02*
X232273Y117938D01*
X234318Y121375D02*
Y117000D01*
Y119500D02*
X234545Y120438D01*
X234545D02*
X235000Y121063D01*
X235000D02*
X235455Y121375D01*
X236136*
X145000Y112563D02*
X146818Y106000D01*
X148636Y112563D02*
X146818Y106000D01*
X150682Y112563D02*
X150909Y112250D01*
X151136Y112563*
X151136D02*
X150909Y112875D01*
X150682Y112563*
X150909Y110375D02*
Y106000D01*
X155909Y112563D02*
Y106000D01*
Y109438D02*
X155455Y110063D01*
X155455D02*
X155000Y110375D01*
X154318*
X153864Y110063*
X153864D02*
X153409Y109438D01*
X153409D02*
X153182Y108500D01*
Y107875*
X153409Y106938*
X153409D02*
X153864Y106313D01*
X153864D02*
X154318Y106000D01*
X155000*
X155455Y106313*
X155455D02*
X155909Y106938D01*
X157955Y108500D02*
X160682D01*
Y109125*
X160455Y109750*
X160227Y110063*
X160227D02*
X159773Y110375D01*
X159091*
X158636Y110063*
X158636D02*
X158182Y109438D01*
X158182D02*
X157955Y108500D01*
Y107875*
X158182Y106938*
X158182D02*
X158636Y106313D01*
X158636D02*
X159091Y106000D01*
X159773*
X160227Y106313*
X160227D02*
X160682Y106938D01*
X163864Y110375D02*
X163409Y110063D01*
X163409D02*
X162955Y109438D01*
X162955D02*
X162727Y108500D01*
Y107875*
X162955Y106938*
X162955D02*
X163409Y106313D01*
X163409D02*
X163864Y106000D01*
X164545*
X165000Y106313*
X165000D02*
X165455Y106938D01*
X165455D02*
X165682Y107875D01*
Y108500*
X165455Y109438*
X165455D02*
X165000Y110063D01*
X165000D02*
X164545Y110375D01*
X163864*
X172955Y112563D02*
Y106000D01*
Y112563D02*
X174773Y106000D01*
X176591Y112563D02*
X174773Y106000D01*
X176591Y112563D02*
Y106000D01*
X178636Y110375D02*
Y107250D01*
X178864Y106313*
X178864D02*
X179318Y106000D01*
X180000*
X180455Y106313*
X180455D02*
X181136Y107250D01*
Y110375D02*
Y106000D01*
X183182Y112563D02*
Y106000D01*
X185909Y112563D02*
Y107250D01*
X186136Y106313*
X186136D02*
X186591Y106000D01*
X187045*
X185227Y110375D02*
X186818D01*
X189091Y112563D02*
X189318Y112250D01*
X189545Y112563*
X189545D02*
X189318Y112875D01*
X189091Y112563*
X189318Y110375D02*
Y106000D01*
X191591Y110375D02*
Y103812D01*
Y109438D02*
X192045Y110063D01*
X192045D02*
X192500Y110375D01*
X193182*
X193636Y110063*
X193636D02*
X194091Y109438D01*
X194091D02*
X194318Y108500D01*
Y107875*
X194091Y106938*
X194091D02*
X193636Y106313D01*
X193636D02*
X193182Y106000D01*
X192500*
X192045Y106313*
X192045D02*
X191591Y106938D01*
X196364Y112563D02*
Y106000D01*
X198409Y108500D02*
X201136D01*
Y109125*
X200909Y109750*
X200682Y110063*
X200682D02*
X200227Y110375D01*
X199545*
X199091Y110063*
X199091D02*
X198636Y109438D01*
X198636D02*
X198409Y108500D01*
Y107875*
X198636Y106938*
X198636D02*
X199091Y106313D01*
X199091D02*
X199545Y106000D01*
X200227*
X200682Y106313*
X200682D02*
X201136Y106938D01*
X203182Y110375D02*
X205682Y106000D01*
Y110375D02*
X203182Y106000D01*
X207727Y108500D02*
X210455D01*
Y109125*
X210227Y109750*
X210000Y110063*
X210000D02*
X209545Y110375D01*
X208864*
X208409Y110063*
X208409D02*
X207955Y109438D01*
X207955D02*
X207727Y108500D01*
Y107875*
X207955Y106938*
X207955D02*
X208409Y106313D01*
X208409D02*
X208864Y106000D01*
X209545*
X210000Y106313*
X210000D02*
X210455Y106938D01*
X212500Y110375D02*
Y106000D01*
Y108500D02*
X212727Y109438D01*
X212727D02*
X213182Y110063D01*
X213182D02*
X213636Y110375D01*
X214318*
X323783Y189343D02*
X359217D01*
Y169657*
X323783*
Y189343*
X362169D02*
Y169657D01*
X407299Y331500D02*
G03X407299I-681J0D01*
G01X257181Y391118D02*
G03X257181I-681J0D01*
G01X514799Y402000D02*
G03X514799I-681J0D01*
G01X479799D02*
G03X479799I-681J0D01*
G01X188063Y420858D02*
X195937D01*
Y403142*
X188063*
Y420858*
X190031D02*
Y418890D01*
X193969*
Y420858*
X188063Y360858D02*
X195937D01*
Y343142*
X188063*
Y360858*
X190031D02*
Y358890D01*
X193969*
Y360858*
X188063Y300858D02*
X195937D01*
Y283142*
X188063*
Y300858*
X190031D02*
Y298890D01*
X193969*
Y300858*
X188063Y240858D02*
X195937D01*
Y223142*
X188063*
Y240858*
X190031D02*
Y238890D01*
X193969*
Y240858*
X188063Y180858D02*
X195937D01*
Y163142*
X188063*
Y180858*
X190031D02*
Y178890D01*
X193969*
Y180858*
X402563Y243858D02*
X410437D01*
Y226142*
X402563*
Y243858*
X404531D02*
Y241890D01*
X408469*
Y243858*
X402563Y220858D02*
X410437D01*
Y203142*
X402563*
Y220858*
X404531D02*
Y218890D01*
X408469*
Y220858*
X402563Y266858D02*
X410437D01*
Y249142*
X402563*
Y266858*
X404531D02*
Y264890D01*
X408469*
Y266858*
X478689Y210929D02*
Y202071D01*
X394929Y127311D02*
X386071D01*
X380142Y297563D02*
Y305437D01*
X397858*
Y297563*
X380142*
Y299531D02*
X382110D01*
Y303469*
X380142*
X407299Y331500D02*
G03X407299I-681J0D01*
G01X359071Y329189D02*
X367929D01*
X257181Y391118D02*
G03X257181I-681J0D01*
G01X447600Y320500D02*
X412400D01*
Y380500*
X447600*
Y320500*
Y340500D02*
X443600D01*
Y360500*
X447600*
X481126Y167311D02*
Y141720D01*
X496874*
Y169280*
X481126*
Y167311*
Y158453D02*
X496874D01*
X514799Y402000D02*
G03X514799I-681J0D01*
G01X479799D02*
G03X479799I-681J0D01*
G01X484437Y414642D02*
X476563D01*
Y432358*
X484437*
Y414642*
X482469D02*
Y416610D01*
X478531*
Y414642*
X405973Y331718D02*
X407264D01*
X255855Y391336D02*
X257145D01*
X513473Y402218D02*
X514764D01*
X478473D02*
X479764D01*
G54D57*
X288000Y224878D02*
Y230235D01*
X290500*
Y231765*
X288000*
Y237122*
X328000*
Y224878*
X288000*
X215461Y348004D02*
Y351035D01*
Y284004D02*
Y287035D01*
Y228004D02*
Y231035D01*
X288504Y141039D02*
X291535D01*
X215461Y168004D02*
Y171035D01*
X350496Y151961D02*
X347465D01*
X215461Y408004D02*
Y411035D01*
X171004Y412539D02*
X174035D01*
X171004Y352539D02*
X174035D01*
X171004Y292539D02*
X174035D01*
X171004Y232539D02*
X174035D01*
X171004Y172539D02*
X174035D01*
X279504Y167039D02*
X282535D01*
X298496Y140961D02*
X295465D01*
X315961Y108504D02*
Y111535D01*
X192539Y396996D02*
Y393965D01*
X215539Y415996D02*
Y412965D01*
Y355996D02*
Y352965D01*
X192539Y336996D02*
Y333965D01*
Y276996D02*
Y273965D01*
X215539Y295996D02*
Y292965D01*
X192539Y216996D02*
Y213965D01*
X215539Y235996D02*
Y232965D01*
Y175996D02*
Y172965D01*
X192539Y156996D02*
Y153965D01*
X215539Y420996D02*
Y417965D01*
Y360996D02*
Y357965D01*
Y300996D02*
Y297965D01*
Y240996D02*
Y237965D01*
Y180996D02*
Y177965D01*
X386004Y217039D02*
X389035D01*
X288465Y465539D02*
X240039D01*
Y443886*
X288465*
Y465539*
X279606D02*
X248110D01*
Y462783*
X279606*
Y465539*
X464461Y181004D02*
Y184035D01*
X383461Y264004D02*
Y267035D01*
Y259004D02*
Y262035D01*
X404819Y279469D02*
Y275531D01*
X399307Y275925D02*
Y271594D01*
X404819*
Y272382*
X399307Y279075D02*
Y283799D01*
X404819*
Y282618*
X464461Y176004D02*
Y179035D01*
X383461Y276004D02*
Y279035D01*
Y271004D02*
Y274035D01*
X429039Y238996D02*
Y235965D01*
X383961Y226004D02*
Y229035D01*
X383461Y249004D02*
Y252035D01*
X429039Y261996D02*
Y258965D01*
X507039Y207996D02*
Y204965D01*
X350496Y139961D02*
X347465D01*
X359004Y157539D02*
X362035D01*
X336039Y226996D02*
Y223965D01*
Y219996D02*
Y216965D01*
X279961Y242004D02*
Y245035D01*
X378504Y114039D02*
X381535D01*
X215539Y185996D02*
Y182965D01*
X428961Y231004D02*
Y234035D01*
X449787Y230000D02*
X448213D01*
X458000Y233287D02*
Y231713D01*
X476000Y233287D02*
Y231713D01*
X407039Y312496D02*
Y309465D01*
X467787Y230000D02*
X466213D01*
X485787D02*
X484213D01*
X370961Y309504D02*
Y312535D01*
X458000Y239287D02*
Y237713D01*
X476000Y239287D02*
Y237713D01*
X370539Y285496D02*
Y282465D01*
X410685Y150000D02*
X415336D01*
Y148750*
X416664*
Y150000*
X421315*
Y130000*
X410685*
Y150000*
Y183500D02*
X415336D01*
Y182250*
X416664*
Y183500*
X421315*
Y163500*
X410685*
Y183500*
X441500Y183000D02*
Y177000D01*
X390500Y169500D02*
Y175500D01*
X439039Y173496D02*
Y170465D01*
Y139996D02*
Y136965D01*
X416000Y159500D02*
Y153500D01*
X398500D02*
X392500D01*
Y186500D02*
X398500D01*
X416000Y187000D02*
Y193000D01*
X392961Y140504D02*
Y143535D01*
Y135504D02*
Y138535D01*
Y130504D02*
Y133535D01*
X381961Y165004D02*
Y168035D01*
X153496Y406461D02*
X150465D01*
X153496Y346461D02*
X150465D01*
X153496Y286461D02*
X150465D01*
X153496Y226461D02*
X150465D01*
X153496Y166461D02*
X150465D01*
X120996Y266961D02*
X117965D01*
X120996Y386961D02*
X117965D01*
X120996Y206961D02*
X117965D01*
X120996Y146961D02*
X117965D01*
X120996Y326961D02*
X117965D01*
X381961Y160004D02*
Y163035D01*
Y155004D02*
Y158035D01*
X288504Y306039D02*
X291535D01*
X351961Y363004D02*
Y366035D01*
Y338004D02*
Y341035D01*
X322996Y305961D02*
X319965D01*
X262961Y347504D02*
Y350535D01*
X321039Y205996D02*
Y202965D01*
X282496Y152961D02*
X279465D01*
X285504Y395039D02*
X288535D01*
X324004Y257539D02*
X327035D01*
X319004D02*
X322035D01*
X314004D02*
X317035D01*
X373039Y378496D02*
Y375465D01*
X391961Y375504D02*
Y378535D01*
X351961Y344004D02*
Y347035D01*
X373000Y465500D02*
X294000D01*
Y457500*
X373000*
Y465500*
X355961Y231004D02*
Y234035D01*
X367496Y229461D02*
X364465D01*
X239504Y167039D02*
X242535D01*
X242496Y152961D02*
X239465D01*
X259504Y167039D02*
X262535D01*
X371504Y229539D02*
X374535D01*
X384039Y233996D02*
Y230965D01*
X262496Y152961D02*
X259465D01*
X428961Y208004D02*
Y211035D01*
X335961Y231004D02*
Y234035D01*
X347496Y229461D02*
X344465D01*
X282319Y376681D02*
X281319Y375681D01*
Y325319*
X282319Y324319*
X332681*
X333681Y325319*
Y375681*
X332681Y376681*
X282319*
X372319Y297469D02*
Y293531D01*
X366807Y293925D02*
Y289594D01*
X372319*
Y290382*
X366807Y297075D02*
Y301799D01*
X372319*
Y300618*
X274000Y279000D02*
X353000D01*
Y287000*
X274000*
Y279000*
X506496Y422961D02*
X503465D01*
X429504Y438539D02*
X432535D01*
X434504D02*
X437535D01*
X479961Y438504D02*
Y441535D01*
X456961Y419504D02*
Y422535D01*
Y414504D02*
Y417535D01*
X501496Y422961D02*
X498465D01*
X513539Y427496D02*
Y424465D01*
X457039Y427496D02*
Y424465D01*
Y432496D02*
Y429465D01*
X520039Y308780D02*
Y346969D01*
X510000*
X506063Y342244*
X498386*
Y313504*
X506063*
X510000Y308780*
X520039*
Y320787D02*
Y334173D01*
X517283*
Y320787*
X520039*
Y348780D02*
Y386969D01*
X510000*
X506063Y382244*
X498386*
Y353504*
X506063*
X510000Y348780*
X520039*
Y360787D02*
Y374173D01*
X517283*
Y360787*
X520039*
X480039Y326496D02*
Y323465D01*
X465961Y323504D02*
Y326535D01*
X459961Y330504D02*
Y333535D01*
X303000Y125178D02*
Y139022D01*
X305500*
Y142978*
X303000*
Y156822*
X343000*
Y125178*
X303000*
X429039Y220996D02*
Y217965D01*
Y205996D02*
Y202965D01*
G54D58*
X331516Y387608D02*
X331289Y387451D01*
X331289D02*
X330948Y386983D01*
Y390264*
X285059Y387214D02*
X284832Y387057D01*
X284832D02*
X284491Y386589D01*
Y389870*
X282104Y387057D02*
X282218Y386745D01*
X282559Y386589*
X282786*
X283127Y386745*
X283354Y387214*
X283468Y387995*
Y388776*
X283354Y389401*
X283127Y389714*
X282786Y389870*
X282673*
X282332Y389714*
X282104Y389401*
X281991Y388932*
X281991D02*
Y388776D01*
X282104Y388307*
X282104D02*
X282332Y387995D01*
X282673Y387839*
X282786*
X283127Y387995*
X283354Y388307*
X283354D02*
X283468Y388776D01*
X271180Y375697D02*
X271337Y375470D01*
X271337D02*
X271805Y375129D01*
X268524*
X271805Y372515D02*
X268524Y373652D01*
X271805Y374106D02*
Y372515D01*
Y328619D02*
Y327369D01*
X270555Y328051*
Y327710*
X270399Y327482*
X270243Y327369*
X269774Y327255*
X269462*
X269462D02*
X268993Y327369D01*
X268680Y327596*
X268524Y327937*
Y328278*
X268680Y328619*
X268837Y328732*
X268837D02*
X269149Y328846D01*
X271024Y326119D02*
X271180D01*
X271493Y326005*
X271649Y325891*
X271805Y325664*
Y325210*
X271649Y324982*
X271493Y324869*
X271180Y324755*
X270868*
X270555Y324869*
X270087Y325096*
X270087D02*
X268524Y326232D01*
Y324641*
X281743Y314805D02*
X282993D01*
X282311Y313555*
X282652*
X282880Y313399*
X282993Y313243*
X283107Y312774*
Y312462*
X283107D02*
X282993Y311993D01*
X282766Y311680*
X282425Y311524*
X282084*
X281743Y311680*
X281630Y311837*
X281630D02*
X281516Y312149D01*
X284357Y314805D02*
X285607D01*
X284925Y313555*
X285266*
X285493Y313399*
X285607Y313243*
X285721Y312774*
Y312462*
X285721D02*
X285607Y311993D01*
X285380Y311680*
X285039Y311524*
X284698*
X284357Y311680*
X284243Y311837*
X284243D02*
X284130Y312149D01*
X330290Y315198D02*
X329154Y313011D01*
X330859*
X330290Y315198D02*
Y311917D01*
X332449Y315198D02*
X332109Y315042D01*
X331995Y314730*
X331995D02*
Y314417D01*
X332109Y314105*
X332109D02*
X332336Y313948D01*
X332790Y313792*
X333131Y313636*
X333359Y313323*
X333472Y313011*
Y312542*
X333359Y312230*
X333359D02*
X333245Y312073D01*
X332904Y311917*
X332449*
X332109Y312073*
X331995Y312230*
X331995D02*
X331881Y312542D01*
Y313011*
X331995Y313323*
X332222Y313636*
X332563Y313792*
X333018Y313948*
X333245Y314105*
X333245D02*
X333359Y314417D01*
Y314730*
X333359D02*
X333245Y315042D01*
X332904Y315198*
X332449*
X343195Y325652D02*
X345382Y324516D01*
Y326221*
X343195Y325652D02*
X346476D01*
X344288Y328721D02*
X344757Y328607D01*
X345070Y328380*
X345226Y328039*
Y327925*
X345070Y327584*
X344757Y327357*
X344288Y327243*
X344288D02*
X344132D01*
X343663Y327357*
X343663D02*
X343351Y327584D01*
X343195Y327925*
Y328039*
X343351Y328380*
X343663Y328607*
X343663D02*
X344288Y328721D01*
X344288D02*
X345070D01*
X345851Y328607*
X346320Y328380*
X346476Y328039*
Y327811*
X346320Y327471*
X346007Y327357*
X343270Y373518D02*
X342958Y373404D01*
X342802Y373063*
Y372836*
X342958Y372495*
X343427Y372268*
X344208Y372154*
X344989*
X345614Y372268*
X345927Y372495*
X346083Y372836*
Y372949*
X345927Y373290*
X345614Y373518*
X345145Y373631*
X345145D02*
X344989D01*
X344520Y373518*
X344520D02*
X344208Y373290D01*
X344052Y372949*
Y372836*
X344208Y372495*
X344520Y372268*
X344520D02*
X344989Y372154D01*
X342802Y375790D02*
X344989Y374654D01*
Y376359*
X342802Y375790D02*
X346083D01*
X478757Y153369D02*
Y156181D01*
X479780Y154775D02*
X477734D01*
X284000Y235281D02*
Y232937D01*
X284000D02*
X284114Y232469D01*
X284341Y232156*
X284682Y232000*
X284909*
X285250Y232156*
X285477Y232469*
X285591Y232937*
X285591D02*
Y235281D01*
X286614Y234656D02*
X286841Y234812D01*
X286841D02*
X287182Y235281D01*
Y232000*
X498136Y252281D02*
Y249781D01*
X498023Y249313*
X498023D02*
X497909Y249156D01*
X497682Y249000*
X497455*
X497227Y249156*
X497114Y249313*
X497114D02*
X497000Y249781D01*
Y250094*
X500750Y252281D02*
X499614Y249000D01*
X499159Y252281D02*
X500750D01*
X190000Y426281D02*
Y423938D01*
X190000D02*
X190114Y423469D01*
X190341Y423156*
X190682Y423000*
X190909*
X191250Y423156*
X191477Y423469*
X191591Y423938*
X191591D02*
Y426281D01*
X192841D02*
X194091D01*
X193409Y425031*
X193750*
X193977Y424875*
X194091Y424719*
X194205Y424250*
Y423938*
X194205D02*
X194091Y423469D01*
X193864Y423156*
X193523Y423000*
X193182*
X192841Y423156*
X192727Y423313*
X192727D02*
X192614Y423625D01*
X191000Y365281D02*
Y362938D01*
X191000D02*
X191114Y362469D01*
X191341Y362156*
X191682Y362000*
X191909*
X192250Y362156*
X192477Y362469*
X192591Y362938*
X192591D02*
Y365281D01*
X194750D02*
X193614Y363094D01*
X195318*
X194750Y365281D02*
Y362000D01*
X191000Y305281D02*
Y302938D01*
X191000D02*
X191114Y302469D01*
X191341Y302156*
X191682Y302000*
X191909*
X192250Y302156*
X192477Y302469*
X192591Y302938*
X192591D02*
Y305281D01*
X195091D02*
X193955D01*
X193841Y303875*
X193955Y304031*
X194295Y304188*
X194295D02*
X194636D01*
X194636D02*
X194977Y304031D01*
X195205Y303719*
X195318Y303250*
X195205Y302938*
X195205D02*
X195091Y302469D01*
X194864Y302156*
X194523Y302000*
X194182*
X193841Y302156*
X193727Y302313*
X193727D02*
X193614Y302625D01*
X191000Y245281D02*
Y242938D01*
X191000D02*
X191114Y242469D01*
X191341Y242156*
X191682Y242000*
X191909*
X192250Y242156*
X192477Y242469*
X192591Y242938*
X192591D02*
Y245281D01*
X194977Y244813D02*
X194864Y245125D01*
X194523Y245281*
X194295*
X193955Y245125*
X193727Y244656*
X193614Y243875*
Y243094*
X193727Y242469*
X193955Y242156*
X194295Y242000*
X194409*
X194750Y242156*
X194977Y242469*
X195091Y242938*
X195091D02*
Y243094D01*
X194977Y243563*
X194977D02*
X194750Y243875D01*
X194409Y244031*
X194295*
X193955Y243875*
X193727Y243563*
X193727D02*
X193614Y243094D01*
X191000Y185281D02*
Y182938D01*
X191000D02*
X191114Y182469D01*
X191341Y182156*
X191682Y182000*
X191909*
X192250Y182156*
X192477Y182469*
X192591Y182938*
X192591D02*
Y185281D01*
X195205D02*
X194068Y182000D01*
X193614Y185281D02*
X195205D01*
X483136Y108281D02*
Y105781D01*
X483023Y105313*
X483023D02*
X482909Y105156D01*
X482682Y105000*
X482455*
X482227Y105156*
X482114Y105313*
X482114D02*
X482000Y105781D01*
Y106094*
X484273Y107500D02*
Y107656D01*
X484386Y107969*
X484500Y108125*
X484727Y108281*
X485182*
X485409Y108125*
X485523Y107969*
X485636Y107656*
Y107344*
X485523Y107031*
X485295Y106563*
X485295D02*
X484159Y105000D01*
X485750*
X486886Y107500D02*
Y107656D01*
X487000Y107969*
X487114Y108125*
X487341Y108281*
X487795*
X488023Y108125*
X488136Y107969*
X488250Y107656*
Y107344*
X488136Y107031*
X487909Y106563*
X487909D02*
X486773Y105000D01*
X488364*
X211000Y346281D02*
Y343000D01*
Y346281D02*
X212023D01*
X212364Y346125*
X212477Y345969*
X212591Y345656*
Y345344*
X212477Y345031*
X212364Y344875*
X212023Y344719*
X211000*
X211795D02*
X212591Y343000D01*
X213727Y345500D02*
Y345656D01*
X213841Y345969*
X213955Y346125*
X214182Y346281*
X214636*
X214864Y346125*
X214977Y345969*
X215091Y345656*
Y345344*
X214977Y345031*
X214750Y344563*
X214750D02*
X213614Y343000D01*
X215205*
X211000Y282281D02*
Y279000D01*
Y282281D02*
X212023D01*
X212364Y282125*
X212477Y281969*
X212591Y281656*
Y281344*
X212477Y281031*
X212364Y280875*
X212023Y280719*
X211000*
X211795D02*
X212591Y279000D01*
X214750Y282281D02*
X213614Y280094D01*
X215318*
X214750Y282281D02*
Y279000D01*
X300500Y162705D02*
X300188Y162591D01*
X300188D02*
X299875Y162364D01*
X299719Y162136*
Y161682*
X299875Y161455*
X300188Y161227*
X300188D02*
X300500Y161114D01*
X300969Y161000*
X301750*
X302219Y161114*
X302531Y161227*
X302844Y161455*
X303000Y161682*
Y162136*
X302844Y162364*
X302531Y162591*
X302219Y162705*
X300813Y165205D02*
X301281Y165091D01*
X301594Y164864*
X301750Y164523*
Y164409*
X301594Y164068*
X301281Y163841*
X300813Y163727*
X300813D02*
X300656D01*
X300188Y163841*
X300188D02*
X299875Y164068D01*
X299719Y164409*
Y164523*
X299875Y164864*
X300188Y165091*
X300188D02*
X300813Y165205D01*
X300813D02*
X301594D01*
X302375Y165091*
X302844Y164864*
X303000Y164523*
Y164295*
X302844Y163955*
X302531Y163841*
X299719Y166795D02*
X299875Y166455D01*
X300188Y166341*
X300188D02*
X300500D01*
X300813Y166455*
X300813D02*
X300969Y166682D01*
X301125Y167136*
X301281Y167477*
X301594Y167705*
X301906Y167818*
X302375*
X302688Y167705*
X302688D02*
X302844Y167591D01*
X303000Y167250*
Y166795*
X302844Y166455*
X302688Y166341*
X302688D02*
X302375Y166227D01*
X301906*
X301594Y166341*
X301281Y166568*
X301125Y166909*
X300969Y167364*
X300813Y167591*
X300813D02*
X300500Y167705D01*
X300188*
X300188D02*
X299875Y167591D01*
X299719Y167250*
Y166795*
X211000Y226281D02*
Y223000D01*
Y226281D02*
X212023D01*
X212364Y226125*
X212477Y225969*
X212591Y225656*
Y225344*
X212477Y225031*
X212364Y224875*
X212023Y224719*
X211000*
X211795D02*
X212591Y223000D01*
X214977Y225813D02*
X214864Y226125D01*
X214523Y226281*
X214295*
X213955Y226125*
X213727Y225656*
X213614Y224875*
Y224094*
X213727Y223469*
X213955Y223156*
X214295Y223000*
X214409*
X214750Y223156*
X214977Y223469*
X215091Y223938*
X215091D02*
Y224094D01*
X214977Y224563*
X214977D02*
X214750Y224875D01*
X214409Y225031*
X214295*
X213955Y224875*
X213727Y224563*
X213727D02*
X213614Y224094D01*
X292281Y134000D02*
X289000D01*
X292281D02*
Y132977D01*
X292125Y132636*
X291969Y132523*
X291656Y132409*
X291344*
X291031Y132523*
X290875Y132636*
X290719Y132977*
Y134000*
Y133205D02*
X289000Y132409D01*
X291656Y131386D02*
X291813Y131159D01*
X292281Y130818*
X289000*
X292281Y129114D02*
X292125Y129455D01*
X291656Y129682*
X290875Y129795*
X290406*
X289625Y129682*
X289156Y129455*
X289000Y129114*
Y128886*
X289156Y128545*
X289625Y128318*
X290406Y128205*
X290875*
X291656Y128318*
X292125Y128545*
X292281Y128886*
Y129114*
Y125591D02*
X289000Y126727D01*
X292281Y127182D02*
Y125591D01*
X200000Y185281D02*
Y182000D01*
Y185281D02*
X201023D01*
X201364Y185125*
X201477Y184969*
X201591Y184656*
Y184344*
X201477Y184031*
X201364Y183875*
X201023Y183719*
X200000*
X200795D02*
X201591Y182000D01*
X203182Y185281D02*
X202841Y185125D01*
X202727Y184812*
X202727D02*
Y184500D01*
X202841Y184187*
X202841D02*
X203068Y184031D01*
X203523Y183875*
X203864Y183719*
X204091Y183406*
X204205Y183094*
Y182625*
X204091Y182312*
X204091D02*
X203977Y182156D01*
X203636Y182000*
X203182*
X202841Y182156*
X202727Y182312*
X202727D02*
X202614Y182625D01*
Y183094*
X202727Y183406*
X202955Y183719*
X203295Y183875*
X203750Y184031*
X203977Y184187*
X203977D02*
X204091Y184500D01*
Y184812*
X204091D02*
X203977Y185125D01*
X203636Y185281*
X203182*
X345000Y161281D02*
Y158000D01*
Y161281D02*
X346023D01*
X346364Y161125*
X346477Y160969*
X346591Y160656*
Y160344*
X346477Y160031*
X346364Y159875*
X346023Y159719*
X345000*
X345795D02*
X346591Y158000D01*
X347614Y160656D02*
X347841Y160812D01*
X347841D02*
X348182Y161281D01*
Y158000*
X349886Y161281D02*
X349545Y161125D01*
X349318Y160656*
X349205Y159875*
Y159406*
X349318Y158625*
X349545Y158156*
X349886Y158000*
X350114*
X350455Y158156*
X350682Y158625*
X350795Y159406*
Y159875*
X350682Y160656*
X350455Y161125*
X350114Y161281*
X349886*
X353182Y160812D02*
X353068Y161125D01*
X352727Y161281*
X352500*
X352159Y161125*
X351932Y160656*
X351818Y159875*
Y159094*
X351932Y158469*
X352159Y158156*
X352500Y158000*
X352614*
X352955Y158156*
X353182Y158469*
X353295Y158937*
X353295D02*
Y159094D01*
X353182Y159562*
X353182D02*
X352955Y159875D01*
X352614Y160031*
X352500*
X352159Y159875*
X351932Y159562*
X351932D02*
X351818Y159094D01*
X211000Y406281D02*
Y403000D01*
Y406281D02*
X212023D01*
X212364Y406125*
X212477Y405969*
X212591Y405656*
Y405344*
X212477Y405031*
X212364Y404875*
X212023Y404719*
X211000*
X211795D02*
X212591Y403000D01*
X213614Y405656D02*
X213841Y405813D01*
X213841D02*
X214182Y406281D01*
Y403000*
X215886Y406281D02*
X215545Y406125D01*
X215318Y405656*
X215205Y404875*
Y404406*
X215318Y403625*
X215545Y403156*
X215886Y403000*
X216114*
X216455Y403156*
X216682Y403625*
X216795Y404406*
Y404875*
X216682Y405656*
X216455Y406125*
X216114Y406281*
X215886*
X170000D02*
Y403000D01*
Y406281D02*
X171023D01*
X171364Y406125*
X171477Y405969*
X171591Y405656*
Y405344*
X171477Y405031*
X171364Y404875*
X171023Y404719*
X170000*
X170795D02*
X171591Y403000D01*
X172614Y405656D02*
X172841Y405813D01*
X172841D02*
X173182Y406281D01*
Y403000*
X174205Y405656D02*
X174432Y405813D01*
X174432D02*
X174773Y406281D01*
Y403000*
X170000Y346281D02*
Y343000D01*
Y346281D02*
X171023D01*
X171364Y346125*
X171477Y345969*
X171591Y345656*
Y345344*
X171477Y345031*
X171364Y344875*
X171023Y344719*
X170000*
X170795D02*
X171591Y343000D01*
X172614Y345656D02*
X172841Y345813D01*
X172841D02*
X173182Y346281D01*
Y343000*
X174318Y345500D02*
Y345656D01*
X174432Y345969*
X174545Y346125*
X174773Y346281*
X175227*
X175455Y346125*
X175568Y345969*
X175682Y345656*
Y345344*
X175568Y345031*
X175341Y344563*
X175341D02*
X174205Y343000D01*
X175795*
X170000Y286281D02*
Y283000D01*
Y286281D02*
X171023D01*
X171364Y286125*
X171477Y285969*
X171591Y285656*
Y285344*
X171477Y285031*
X171364Y284875*
X171023Y284719*
X170000*
X170795D02*
X171591Y283000D01*
X172614Y285656D02*
X172841Y285813D01*
X172841D02*
X173182Y286281D01*
Y283000*
X174432Y286281D02*
X175682D01*
X175000Y285031*
X175341*
X175568Y284875*
X175682Y284719*
X175795Y284250*
Y283938*
X175795D02*
X175682Y283469D01*
X175455Y283156*
X175114Y283000*
X174773*
X174432Y283156*
X174318Y283313*
X174318D02*
X174205Y283625D01*
X170419Y217200D02*
X173700D01*
X170419D02*
Y218223D01*
X170575Y218564*
X170731Y218677*
X171044Y218791*
X171356*
X171669Y218677*
X171825Y218564*
X171981Y218223*
Y217200*
Y217995D02*
X173700Y218791D01*
X171044Y219814D02*
X170887Y220041D01*
X170887D02*
X170419Y220382D01*
X173700*
X170419Y222541D02*
X172606Y221405D01*
Y223109*
X170419Y222541D02*
X173700D01*
X170000Y166281D02*
Y163000D01*
Y166281D02*
X171023D01*
X171364Y166125*
X171477Y165969*
X171591Y165656*
Y165344*
X171477Y165031*
X171364Y164875*
X171023Y164719*
X170000*
X170795D02*
X171591Y163000D01*
X172614Y165656D02*
X172841Y165813D01*
X172841D02*
X173182Y166281D01*
Y163000*
X175682Y166281D02*
X174545D01*
X174432Y164875*
X174545Y165031*
X174886Y165188*
X174886D02*
X175227D01*
X175227D02*
X175568Y165031D01*
X175795Y164719*
X175909Y164250*
X175795Y163938*
X175795D02*
X175682Y163469D01*
X175455Y163156*
X175114Y163000*
X174773*
X174432Y163156*
X174318Y163313*
X174318D02*
X174205Y163625D01*
X281000Y177281D02*
Y174000D01*
Y177281D02*
X282023D01*
X282364Y177125*
X282477Y176969*
X282591Y176656*
Y176344*
X282477Y176031*
X282364Y175875*
X282023Y175719*
X281000*
X281795D02*
X282591Y174000D01*
X283614Y176656D02*
X283841Y176813D01*
X283841D02*
X284182Y177281D01*
Y174000*
X286568Y176813D02*
X286455Y177125D01*
X286114Y177281*
X285886*
X285545Y177125*
X285318Y176656*
X285205Y175875*
Y175094*
X285318Y174469*
X285545Y174156*
X285886Y174000*
X286000*
X286341Y174156*
X286568Y174469*
X286682Y174938*
X286682D02*
Y175094D01*
X286568Y175563*
X286568D02*
X286341Y175875D01*
X286000Y176031*
X285886*
X285545Y175875*
X285318Y175563*
X285318D02*
X285205Y175094D01*
X388000Y242281D02*
Y239938D01*
X388000D02*
X388114Y239469D01*
X388341Y239156*
X388682Y239000*
X388909*
X389250Y239156*
X389477Y239469*
X389591Y239938*
X389591D02*
Y242281D01*
X391182D02*
X390841Y242125D01*
X390727Y241813*
X390727D02*
Y241500D01*
X390841Y241188*
X390841D02*
X391068Y241031D01*
X391523Y240875*
X391864Y240719*
X392091Y240406*
X392205Y240094*
Y239625*
X392091Y239313*
X392091D02*
X391977Y239156D01*
X391636Y239000*
X391182*
X390841Y239156*
X390727Y239313*
X390727D02*
X390614Y239625D01*
Y240094*
X390727Y240406*
X390955Y240719*
X391295Y240875*
X391750Y241031*
X391977Y241188*
X391977D02*
X392091Y241500D01*
Y241813*
X392091D02*
X391977Y242125D01*
X391636Y242281*
X391182*
X347705Y110500D02*
X347591Y110813D01*
X347591D02*
X347364Y111125D01*
X347136Y111281*
X346682*
X346455Y111125*
X346227Y110813*
X346227D02*
X346114Y110500D01*
X346000Y110031*
Y109250*
X346114Y108781*
X346227Y108469*
X346455Y108156*
X346682Y108000*
X347136*
X347364Y108156*
X347591Y108469*
X347705Y108781*
X350205Y110188D02*
X350091Y109719D01*
X349864Y109406*
X349523Y109250*
X349409*
X349068Y109406*
X348841Y109719*
X348727Y110188*
X348727D02*
Y110344D01*
X348841Y110813*
X348841D02*
X349068Y111125D01*
X349409Y111281*
X349523*
X349864Y111125*
X350091Y110813*
X350091D02*
X350205Y110188D01*
X350205D02*
Y109406D01*
X350091Y108625*
X349864Y108156*
X349523Y108000*
X349295*
X348955Y108156*
X348841Y108469*
X352705Y110188D02*
X352591Y109719D01*
X352364Y109406*
X352023Y109250*
X351909*
X351568Y109406*
X351341Y109719*
X351227Y110188*
X351227D02*
Y110344D01*
X351341Y110813*
X351341D02*
X351568Y111125D01*
X351909Y111281*
X352023*
X352364Y111125*
X352591Y110813*
X352591D02*
X352705Y110188D01*
X352705D02*
Y109406D01*
X352591Y108625*
X352364Y108156*
X352023Y108000*
X351795*
X351455Y108156*
X351341Y108469*
X298500Y132295D02*
X298813Y132409D01*
X299125Y132636*
X299281Y132864*
Y133318*
X299125Y133545*
X298813Y133773*
X298500Y133886*
X298031Y134000*
X297250*
X296781Y133886*
X296469Y133773*
X296156Y133545*
X296000Y133318*
Y132864*
X296156Y132636*
X296469Y132409*
X296781Y132295*
X298656Y131273D02*
X298813Y131045D01*
X299281Y130705*
X296000*
X299281Y129000D02*
X299125Y129341D01*
X298656Y129568*
X297875Y129682*
X297406*
X296625Y129568*
X296156Y129341*
X296000Y129000*
Y128773*
X296156Y128432*
X296625Y128205*
X297406Y128091*
X297875*
X298656Y128205*
X299125Y128432*
X299281Y128773*
Y129000*
Y126386D02*
X299125Y126727D01*
X298656Y126955*
X297875Y127068*
X297406*
X296625Y126955*
X296156Y126727*
X296000Y126386*
Y126159*
X296156Y125818*
X296625Y125591*
X297406Y125477*
X297875*
X298656Y125591*
X299125Y125818*
X299281Y126159*
Y126386*
X404000Y201281D02*
Y198938D01*
X404000D02*
X404114Y198469D01*
X404341Y198156*
X404682Y198000*
X404909*
X405250Y198156*
X405477Y198469*
X405591Y198938*
X405591D02*
Y201281D01*
X406614Y200656D02*
X406841Y200813D01*
X406841D02*
X407182Y201281D01*
Y198000*
X408886Y201281D02*
X408545Y201125D01*
X408318Y200656*
X408205Y199875*
Y199406*
X408318Y198625*
X408545Y198156*
X408886Y198000*
X409114*
X409455Y198156*
X409682Y198625*
X409795Y199406*
Y199875*
X409682Y200656*
X409455Y201125*
X409114Y201281*
X408886*
X301000Y111281D02*
Y108000D01*
Y111281D02*
X302023D01*
X302364Y111125*
X302477Y110969*
X302591Y110656*
Y110344*
X302477Y110031*
X302364Y109875*
X302023Y109719*
X301000*
X301795D02*
X302591Y108000D01*
X303614Y110656D02*
X303841Y110813D01*
X303841D02*
X304182Y111281D01*
Y108000*
X305886Y111281D02*
X305545Y111125D01*
X305318Y110656*
X305205Y109875*
Y109406*
X305318Y108625*
X305545Y108156*
X305886Y108000*
X306114*
X306455Y108156*
X306682Y108625*
X306795Y109406*
Y109875*
X306682Y110656*
X306455Y111125*
X306114Y111281*
X305886*
X308386D02*
X308045Y111125D01*
X307932Y110813*
X307932D02*
Y110500D01*
X308045Y110188*
X308045D02*
X308273Y110031D01*
X308727Y109875*
X309068Y109719*
X309295Y109406*
X309409Y109094*
Y108625*
X309295Y108313*
X309295D02*
X309182Y108156D01*
X308841Y108000*
X308386*
X308045Y108156*
X307932Y108313*
X307932D02*
X307818Y108625D01*
Y109094*
X307932Y109406*
X308159Y109719*
X308500Y109875*
X308955Y110031*
X309182Y110188*
X309182D02*
X309295Y110500D01*
Y110813*
X309295D02*
X309182Y111125D01*
X308841Y111281*
X308386*
X194705Y391500D02*
X194591Y391813D01*
X194591D02*
X194364Y392125D01*
X194136Y392281*
X193682*
X193455Y392125*
X193227Y391813*
X193227D02*
X193114Y391500D01*
X193000Y391031*
Y390250*
X193114Y389781*
X193227Y389469*
X193455Y389156*
X193682Y389000*
X194136*
X194364Y389156*
X194591Y389469*
X194705Y389781*
X195727Y391656D02*
X195955Y391813D01*
X195955D02*
X196295Y392281D01*
Y389000*
X223705Y415500D02*
X223591Y415813D01*
X223591D02*
X223364Y416125D01*
X223136Y416281*
X222682*
X222455Y416125*
X222227Y415813*
X222227D02*
X222114Y415500D01*
X222000Y415031*
Y414250*
X222114Y413781*
X222227Y413469*
X222455Y413156*
X222682Y413000*
X223136*
X223364Y413156*
X223591Y413469*
X223705Y413781*
X224841Y415500D02*
Y415656D01*
X224955Y415969*
X225068Y416125*
X225295Y416281*
X225750*
X225977Y416125*
X226091Y415969*
X226205Y415656*
Y415344*
X226091Y415031*
X225864Y414563*
X225864D02*
X224727Y413000D01*
X226318*
X223705Y355500D02*
X223591Y355813D01*
X223591D02*
X223364Y356125D01*
X223136Y356281*
X222682*
X222455Y356125*
X222227Y355813*
X222227D02*
X222114Y355500D01*
X222000Y355031*
Y354250*
X222114Y353781*
X222227Y353469*
X222455Y353156*
X222682Y353000*
X223136*
X223364Y353156*
X223591Y353469*
X223705Y353781*
X224955Y356281D02*
X226205D01*
X225523Y355031*
X225864*
X226091Y354875*
X226205Y354719*
X226318Y354250*
Y353938*
X226318D02*
X226205Y353469D01*
X225977Y353156*
X225636Y353000*
X225295*
X224955Y353156*
X224841Y353313*
X224841D02*
X224727Y353625D01*
X194705Y331500D02*
X194591Y331813D01*
X194591D02*
X194364Y332125D01*
X194136Y332281*
X193682*
X193455Y332125*
X193227Y331813*
X193227D02*
X193114Y331500D01*
X193000Y331031*
Y330250*
X193114Y329781*
X193227Y329469*
X193455Y329156*
X193682Y329000*
X194136*
X194364Y329156*
X194591Y329469*
X194705Y329781*
X196864Y332281D02*
X195727Y330094D01*
X197432*
X196864Y332281D02*
Y329000D01*
X194705Y271500D02*
X194591Y271813D01*
X194591D02*
X194364Y272125D01*
X194136Y272281*
X193682*
X193455Y272125*
X193227Y271813*
X193227D02*
X193114Y271500D01*
X193000Y271031*
Y270250*
X193114Y269781*
X193227Y269469*
X193455Y269156*
X193682Y269000*
X194136*
X194364Y269156*
X194591Y269469*
X194705Y269781*
X197205Y272281D02*
X196068D01*
X195955Y270875*
X196068Y271031*
X196409Y271188*
X196409D02*
X196750D01*
X196750D02*
X197091Y271031D01*
X197318Y270719*
X197432Y270250*
X197318Y269938*
X197318D02*
X197205Y269469D01*
X196977Y269156*
X196636Y269000*
X196295*
X195955Y269156*
X195841Y269313*
X195841D02*
X195727Y269625D01*
X223705Y295500D02*
X223591Y295813D01*
X223591D02*
X223364Y296125D01*
X223136Y296281*
X222682*
X222455Y296125*
X222227Y295813*
X222227D02*
X222114Y295500D01*
X222000Y295031*
Y294250*
X222114Y293781*
X222227Y293469*
X222455Y293156*
X222682Y293000*
X223136*
X223364Y293156*
X223591Y293469*
X223705Y293781*
X226091Y295813D02*
X225977Y296125D01*
X225636Y296281*
X225409*
X225068Y296125*
X224841Y295656*
X224727Y294875*
Y294094*
X224841Y293469*
X225068Y293156*
X225409Y293000*
X225523*
X225864Y293156*
X226091Y293469*
X226205Y293938*
X226205D02*
Y294094D01*
X226091Y294563*
X226091D02*
X225864Y294875D01*
X225523Y295031*
X225409*
X225068Y294875*
X224841Y294563*
X224841D02*
X224727Y294094D01*
X194705Y211500D02*
X194591Y211813D01*
X194591D02*
X194364Y212125D01*
X194136Y212281*
X193682*
X193455Y212125*
X193227Y211813*
X193227D02*
X193114Y211500D01*
X193000Y211031*
Y210250*
X193114Y209781*
X193227Y209469*
X193455Y209156*
X193682Y209000*
X194136*
X194364Y209156*
X194591Y209469*
X194705Y209781*
X197318Y212281D02*
X196182Y209000D01*
X195727Y212281D02*
X197318D01*
X223705Y235500D02*
X223591Y235813D01*
X223591D02*
X223364Y236125D01*
X223136Y236281*
X222682*
X222455Y236125*
X222227Y235813*
X222227D02*
X222114Y235500D01*
X222000Y235031*
Y234250*
X222114Y233781*
X222227Y233469*
X222455Y233156*
X222682Y233000*
X223136*
X223364Y233156*
X223591Y233469*
X223705Y233781*
X225295Y236281D02*
X224955Y236125D01*
X224841Y235813*
X224841D02*
Y235500D01*
X224955Y235188*
X224955D02*
X225182Y235031D01*
X225636Y234875*
X225977Y234719*
X226205Y234406*
X226318Y234094*
Y233625*
X226205Y233313*
X226205D02*
X226091Y233156D01*
X225750Y233000*
X225295*
X224955Y233156*
X224841Y233313*
X224841D02*
X224727Y233625D01*
Y234094*
X224841Y234406*
X225068Y234719*
X225409Y234875*
X225864Y235031*
X226091Y235188*
X226091D02*
X226205Y235500D01*
Y235813*
X226205D02*
X226091Y236125D01*
X225750Y236281*
X225295*
X201705Y188500D02*
X201591Y188813D01*
X201591D02*
X201364Y189125D01*
X201136Y189281*
X200682*
X200455Y189125*
X200227Y188813*
X200227D02*
X200114Y188500D01*
X200000Y188031*
Y187250*
X200114Y186781*
X200227Y186469*
X200455Y186156*
X200682Y186000*
X201136*
X201364Y186156*
X201591Y186469*
X201705Y186781*
X204205Y188188D02*
X204091Y187719D01*
X203864Y187406*
X203523Y187250*
X203409*
X203068Y187406*
X202841Y187719*
X202727Y188188*
X202727D02*
Y188344D01*
X202841Y188813*
X202841D02*
X203068Y189125D01*
X203409Y189281*
X203523*
X203864Y189125*
X204091Y188813*
X204091D02*
X204205Y188188D01*
X204205D02*
Y187406D01*
X204091Y186625*
X203864Y186156*
X203523Y186000*
X203295*
X202955Y186156*
X202841Y186469*
X200705Y156500D02*
X200591Y156813D01*
X200591D02*
X200364Y157125D01*
X200136Y157281*
X199682*
X199455Y157125*
X199227Y156813*
X199227D02*
X199114Y156500D01*
X199000Y156031*
Y155250*
X199114Y154781*
X199227Y154469*
X199455Y154156*
X199682Y154000*
X200136*
X200364Y154156*
X200591Y154469*
X200705Y154781*
X201727Y156656D02*
X201955Y156813D01*
X201955D02*
X202295Y157281D01*
Y154000*
X204000Y157281D02*
X203659Y157125D01*
X203432Y156656*
X203318Y155875*
Y155406*
X203432Y154625*
X203659Y154156*
X204000Y154000*
X204227*
X204568Y154156*
X204795Y154625*
X204909Y155406*
Y155875*
X204795Y156656*
X204568Y157125*
X204227Y157281*
X204000*
X223705Y420500D02*
X223591Y420813D01*
X223591D02*
X223364Y421125D01*
X223136Y421281*
X222682*
X222455Y421125*
X222227Y420813*
X222227D02*
X222114Y420500D01*
X222000Y420031*
Y419250*
X222114Y418781*
X222227Y418469*
X222455Y418156*
X222682Y418000*
X223136*
X223364Y418156*
X223591Y418469*
X223705Y418781*
X224727Y420656D02*
X224955Y420813D01*
X224955D02*
X225295Y421281D01*
Y418000*
X226318Y420656D02*
X226545Y420813D01*
X226545D02*
X226886Y421281D01*
Y418000*
X223705Y360500D02*
X223591Y360813D01*
X223591D02*
X223364Y361125D01*
X223136Y361281*
X222682*
X222455Y361125*
X222227Y360813*
X222227D02*
X222114Y360500D01*
X222000Y360031*
Y359250*
X222114Y358781*
X222227Y358469*
X222455Y358156*
X222682Y358000*
X223136*
X223364Y358156*
X223591Y358469*
X223705Y358781*
X224727Y360656D02*
X224955Y360813D01*
X224955D02*
X225295Y361281D01*
Y358000*
X226432Y360500D02*
Y360656D01*
X226545Y360969*
X226659Y361125*
X226886Y361281*
X227341*
X227568Y361125*
X227682Y360969*
X227795Y360656*
Y360344*
X227682Y360031*
X227455Y359563*
X227455D02*
X226318Y358000D01*
X227909*
X223705Y300500D02*
X223591Y300813D01*
X223591D02*
X223364Y301125D01*
X223136Y301281*
X222682*
X222455Y301125*
X222227Y300813*
X222227D02*
X222114Y300500D01*
X222000Y300031*
Y299250*
X222114Y298781*
X222227Y298469*
X222455Y298156*
X222682Y298000*
X223136*
X223364Y298156*
X223591Y298469*
X223705Y298781*
X224727Y300656D02*
X224955Y300813D01*
X224955D02*
X225295Y301281D01*
Y298000*
X226545Y301281D02*
X227795D01*
X227114Y300031*
X227455*
X227682Y299875*
X227795Y299719*
X227909Y299250*
Y298938*
X227909D02*
X227795Y298469D01*
X227568Y298156*
X227227Y298000*
X226886*
X226545Y298156*
X226432Y298313*
X226432D02*
X226318Y298625D01*
X223705Y240500D02*
X223591Y240813D01*
X223591D02*
X223364Y241125D01*
X223136Y241281*
X222682*
X222455Y241125*
X222227Y240813*
X222227D02*
X222114Y240500D01*
X222000Y240031*
Y239250*
X222114Y238781*
X222227Y238469*
X222455Y238156*
X222682Y238000*
X223136*
X223364Y238156*
X223591Y238469*
X223705Y238781*
X224727Y240656D02*
X224955Y240813D01*
X224955D02*
X225295Y241281D01*
Y238000*
X227455Y241281D02*
X226318Y239094D01*
X228023*
X227455Y241281D02*
Y238000D01*
X201705Y192500D02*
X201591Y192813D01*
X201591D02*
X201364Y193125D01*
X201136Y193281*
X200682*
X200455Y193125*
X200227Y192813*
X200227D02*
X200114Y192500D01*
X200000Y192031*
Y191250*
X200114Y190781*
X200227Y190469*
X200455Y190156*
X200682Y190000*
X201136*
X201364Y190156*
X201591Y190469*
X201705Y190781*
X202727Y192656D02*
X202955Y192813D01*
X202955D02*
X203295Y193281D01*
Y190000*
X205795Y193281D02*
X204659D01*
X204545Y191875*
X204659Y192031*
X205000Y192188*
X205000D02*
X205341D01*
X205341D02*
X205682Y192031D01*
X205909Y191719*
X206023Y191250*
X205909Y190938*
X205909D02*
X205795Y190469D01*
X205568Y190156*
X205227Y190000*
X204886*
X204545Y190156*
X204432Y190313*
X204432D02*
X204318Y190625D01*
X387705Y209500D02*
X387591Y209813D01*
X387591D02*
X387364Y210125D01*
X387136Y210281*
X386682*
X386455Y210125*
X386227Y209813*
X386227D02*
X386114Y209500D01*
X386000Y209031*
Y208250*
X386114Y207781*
X386227Y207469*
X386455Y207156*
X386682Y207000*
X387136*
X387364Y207156*
X387591Y207469*
X387705Y207781*
X388727Y209656D02*
X388955Y209813D01*
X388955D02*
X389295Y210281D01*
Y207000*
X391682Y209813D02*
X391568Y210125D01*
X391227Y210281*
X391000*
X390659Y210125*
X390432Y209656*
X390318Y208875*
Y208094*
X390432Y207469*
X390659Y207156*
X391000Y207000*
X391114*
X391455Y207156*
X391682Y207469*
X391795Y207938*
X391795D02*
Y208094D01*
X391682Y208563*
X391682D02*
X391455Y208875D01*
X391114Y209031*
X391000*
X390659Y208875*
X390432Y208563*
X390432D02*
X390318Y208094D01*
X291136Y447281D02*
Y444781D01*
X291023Y444313*
X290909Y444156*
X290682Y444000*
X290455*
X290227Y444156*
X290114Y444313*
X290000Y444781*
Y445094*
X292273Y446500D02*
Y446656D01*
X292386Y446969*
X292500Y447125*
X292727Y447281*
X293182*
X293409Y447125*
X293523Y446969*
X293636Y446656*
Y446344*
X293523Y446031*
X293295Y445563*
X292159Y444000*
X293750*
X295455Y447281D02*
X295114Y447125D01*
X294886Y446656*
X294773Y445875*
Y445406*
X294886Y444625*
X295114Y444156*
X295455Y444000*
X295682*
X296023Y444156*
X296250Y444625*
X296364Y445406*
Y445875*
X296250Y446656*
X296023Y447125*
X295682Y447281*
X295455*
X298523D02*
X297386Y445094D01*
X299091*
X298523Y447281D02*
Y444000D01*
X461705Y188500D02*
X461591Y188812D01*
X461591D02*
X461364Y189125D01*
X461136Y189281*
X460682*
X460455Y189125*
X460227Y188812*
X460227D02*
X460114Y188500D01*
X460000Y188031*
Y187250*
X460114Y186781*
X460227Y186469*
X460455Y186156*
X460682Y186000*
X461136*
X461364Y186156*
X461591Y186469*
X461705Y186781*
X462727Y188656D02*
X462955Y188812D01*
X462955D02*
X463295Y189281D01*
Y186000*
X465000Y189281D02*
X464659Y189125D01*
X464432Y188656*
X464318Y187875*
Y187406*
X464432Y186625*
X464659Y186156*
X465000Y186000*
X465227*
X465568Y186156*
X465795Y186625*
X465909Y187406*
Y187875*
X465795Y188656*
X465568Y189125*
X465227Y189281*
X465000*
X467159D02*
X468409D01*
X467727Y188031*
X468068*
X468295Y187875*
X468409Y187719*
X468523Y187250*
Y186937*
X468523D02*
X468409Y186469D01*
X468182Y186156*
X467841Y186000*
X467500*
X467159Y186156*
X467045Y186312*
X467045D02*
X466932Y186625D01*
X410000Y272281D02*
Y269938D01*
X410000D02*
X410114Y269469D01*
X410341Y269156*
X410682Y269000*
X410909*
X411250Y269156*
X411477Y269469*
X411591Y269938*
X411591D02*
Y272281D01*
X412614Y271656D02*
X412841Y271813D01*
X412841D02*
X413182Y272281D01*
Y269000*
X414318Y271500D02*
Y271656D01*
X414432Y271969*
X414545Y272125*
X414773Y272281*
X415227*
X415455Y272125*
X415568Y271969*
X415682Y271656*
Y271344*
X415568Y271031*
X415341Y270563*
X415341D02*
X414205Y269000D01*
X415795*
X460705Y212500D02*
X460591Y212812D01*
X460591D02*
X460364Y213125D01*
X460136Y213281*
X459682*
X459455Y213125*
X459227Y212812*
X459227D02*
X459114Y212500D01*
X459000Y212031*
Y211250*
X459114Y210781*
X459227Y210469*
X459455Y210156*
X459682Y210000*
X460136*
X460364Y210156*
X460591Y210469*
X460705Y210781*
X461727Y212656D02*
X461955Y212812D01*
X461955D02*
X462295Y213281D01*
Y210000*
X464000Y213281D02*
X463659Y213125D01*
X463432Y212656*
X463318Y211875*
Y211406*
X463432Y210625*
X463659Y210156*
X464000Y210000*
X464227*
X464568Y210156*
X464795Y210625*
X464909Y211406*
Y211875*
X464795Y212656*
X464568Y213125*
X464227Y213281*
X464000*
X467068D02*
X465932Y211094D01*
X467636*
X467068Y213281D02*
Y210000D01*
X370000Y267281D02*
Y264000D01*
Y267281D02*
X371023D01*
X371364Y267125*
X371477Y266969*
X371591Y266656*
Y266344*
X371477Y266031*
X371364Y265875*
X371023Y265719*
X370000*
X370795D02*
X371591Y264000D01*
X372727Y266500D02*
Y266656D01*
X372841Y266969*
X372955Y267125*
X373182Y267281*
X373636*
X373864Y267125*
X373977Y266969*
X374091Y266656*
Y266344*
X373977Y266031*
X373750Y265563*
X373750D02*
X372614Y264000D01*
X374205*
X375909Y267281D02*
X375568Y267125D01*
X375341Y266656*
X375227Y265875*
Y265406*
X375341Y264625*
X375568Y264156*
X375909Y264000*
X376136*
X376477Y264156*
X376705Y264625*
X376818Y265406*
Y265875*
X376705Y266656*
X376477Y267125*
X376136Y267281*
X375909*
X370000Y262281D02*
Y259000D01*
Y262281D02*
X371023D01*
X371364Y262125*
X371477Y261969*
X371591Y261656*
Y261344*
X371477Y261031*
X371364Y260875*
X371023Y260719*
X370000*
X370795D02*
X371591Y259000D01*
X372727Y261500D02*
Y261656D01*
X372841Y261969*
X372955Y262125*
X373182Y262281*
X373636*
X373864Y262125*
X373977Y261969*
X374091Y261656*
Y261344*
X373977Y261031*
X373750Y260563*
X373750D02*
X372614Y259000D01*
X374205*
X375227Y261656D02*
X375455Y261813D01*
X375455D02*
X375795Y262281D01*
Y259000*
X395000Y283281D02*
Y280000D01*
Y283281D02*
X395795D01*
X396136Y283125*
X396364Y282812*
X396364D02*
X396477Y282500D01*
X396591Y282031*
Y281250*
X396477Y280781*
X396364Y280469*
X396136Y280156*
X395795Y280000*
X395000*
X397614Y282656D02*
X397841Y282812D01*
X397841D02*
X398182Y283281D01*
Y280000*
X467705Y173500D02*
X467591Y173813D01*
X467591D02*
X467364Y174125D01*
X467136Y174281*
X466682*
X466455Y174125*
X466227Y173813*
X466227D02*
X466114Y173500D01*
X466000Y173031*
Y172250*
X466114Y171781*
X466227Y171469*
X466455Y171156*
X466682Y171000*
X467136*
X467364Y171156*
X467591Y171469*
X467705Y171781*
X468727Y173656D02*
X468955Y173813D01*
X468955D02*
X469295Y174281D01*
Y171000*
X471000Y174281D02*
X470659Y174125D01*
X470432Y173656*
X470318Y172875*
Y172406*
X470432Y171625*
X470659Y171156*
X471000Y171000*
X471227*
X471568Y171156*
X471795Y171625*
X471909Y172406*
Y172875*
X471795Y173656*
X471568Y174125*
X471227Y174281*
X471000*
X474409D02*
X473273D01*
X473159Y172875*
X473273Y173031*
X473614Y173188*
X473614D02*
X473955D01*
X473955D02*
X474295Y173031D01*
X474523Y172719*
X474636Y172250*
X474523Y171938*
X474523D02*
X474409Y171469D01*
X474182Y171156*
X473841Y171000*
X473500*
X473159Y171156*
X473045Y171313*
X473045D02*
X472932Y171625D01*
X370000Y279281D02*
Y276000D01*
Y279281D02*
X371023D01*
X371364Y279125*
X371477Y278969*
X371591Y278656*
Y278344*
X371477Y278031*
X371364Y277875*
X371023Y277719*
X370000*
X370795D02*
X371591Y276000D01*
X372727Y278500D02*
Y278656D01*
X372841Y278969*
X372955Y279125*
X373182Y279281*
X373636*
X373864Y279125*
X373977Y278969*
X374091Y278656*
Y278344*
X373977Y278031*
X373750Y277563*
X373750D02*
X372614Y276000D01*
X374205*
X375341Y278500D02*
Y278656D01*
X375455Y278969*
X375568Y279125*
X375795Y279281*
X376250*
X376477Y279125*
X376591Y278969*
X376705Y278656*
Y278344*
X376591Y278031*
X376364Y277563*
X376364D02*
X375227Y276000D01*
X376818*
X371705Y273500D02*
X371591Y273813D01*
X371591D02*
X371364Y274125D01*
X371136Y274281*
X370682*
X370455Y274125*
X370227Y273813*
X370227D02*
X370114Y273500D01*
X370000Y273031*
Y272250*
X370114Y271781*
X370227Y271469*
X370455Y271156*
X370682Y271000*
X371136*
X371364Y271156*
X371591Y271469*
X371705Y271781*
X372727Y273656D02*
X372955Y273813D01*
X372955D02*
X373295Y274281D01*
Y271000*
X374886Y274281D02*
X374545Y274125D01*
X374432Y273813*
X374432D02*
Y273500D01*
X374545Y273188*
X374545D02*
X374773Y273031D01*
X375227Y272875*
X375568Y272719*
X375795Y272406*
X375909Y272094*
Y271625*
X375795Y271313*
X375795D02*
X375682Y271156D01*
X375341Y271000*
X374886*
X374545Y271156*
X374432Y271313*
X374432D02*
X374318Y271625D01*
Y272094*
X374432Y272406*
X374659Y272719*
X375000Y272875*
X375455Y273031*
X375682Y273188*
X375682D02*
X375795Y273500D01*
Y273813*
X375795D02*
X375682Y274125D01*
X375341Y274281*
X374886*
X437705Y238500D02*
X437591Y238813D01*
X437591D02*
X437364Y239125D01*
X437136Y239281*
X436682*
X436455Y239125*
X436227Y238813*
X436227D02*
X436114Y238500D01*
X436000Y238031*
Y237250*
X436114Y236781*
X436227Y236469*
X436455Y236156*
X436682Y236000*
X437136*
X437364Y236156*
X437591Y236469*
X437705Y236781*
X438727Y238656D02*
X438955Y238813D01*
X438955D02*
X439295Y239281D01*
Y236000*
X441795Y238188D02*
X441682Y237719D01*
X441455Y237406*
X441114Y237250*
X441000*
X440659Y237406*
X440432Y237719*
X440318Y238188*
X440318D02*
Y238344D01*
X440432Y238813*
X440432D02*
X440659Y239125D01*
X441000Y239281*
X441114*
X441455Y239125*
X441682Y238813*
X441682D02*
X441795Y238188D01*
X441795D02*
Y237406D01*
X441682Y236625*
X441455Y236156*
X441114Y236000*
X440886*
X440545Y236156*
X440432Y236469*
X378705Y223500D02*
X378591Y223813D01*
X378591D02*
X378364Y224125D01*
X378136Y224281*
X377682*
X377455Y224125*
X377227Y223813*
X377227D02*
X377114Y223500D01*
X377000Y223031*
Y222250*
X377114Y221781*
X377227Y221469*
X377455Y221156*
X377682Y221000*
X378136*
X378364Y221156*
X378591Y221469*
X378705Y221781*
X379841Y223500D02*
Y223656D01*
X379955Y223969*
X380068Y224125*
X380295Y224281*
X380750*
X380977Y224125*
X381091Y223969*
X381205Y223656*
Y223344*
X381091Y223031*
X380864Y222563*
X380864D02*
X379727Y221000D01*
X381318*
X383023Y224281D02*
X382682Y224125D01*
X382455Y223656*
X382341Y222875*
Y222406*
X382455Y221625*
X382682Y221156*
X383023Y221000*
X383250*
X383591Y221156*
X383818Y221625*
X383932Y222406*
Y222875*
X383818Y223656*
X383591Y224125*
X383250Y224281*
X383023*
X384705Y256500D02*
X384591Y256813D01*
X384591D02*
X384364Y257125D01*
X384136Y257281*
X383682*
X383455Y257125*
X383227Y256813*
X383227D02*
X383114Y256500D01*
X383000Y256031*
Y255250*
X383114Y254781*
X383227Y254469*
X383455Y254156*
X383682Y254000*
X384136*
X384364Y254156*
X384591Y254469*
X384705Y254781*
X385841Y256500D02*
Y256656D01*
X385955Y256969*
X386068Y257125*
X386295Y257281*
X386750*
X386977Y257125*
X387091Y256969*
X387205Y256656*
Y256344*
X387091Y256031*
X386864Y255563*
X386864D02*
X385727Y254000D01*
X387318*
X388341Y256656D02*
X388568Y256813D01*
X388568D02*
X388909Y257281D01*
Y254000*
X436705Y264500D02*
X436591Y264813D01*
X436591D02*
X436364Y265125D01*
X436136Y265281*
X435682*
X435455Y265125*
X435227Y264813*
X435227D02*
X435114Y264500D01*
X435000Y264031*
Y263250*
X435114Y262781*
X435227Y262469*
X435455Y262156*
X435682Y262000*
X436136*
X436364Y262156*
X436591Y262469*
X436705Y262781*
X437841Y264500D02*
Y264656D01*
X437955Y264969*
X438068Y265125*
X438295Y265281*
X438750*
X438977Y265125*
X439091Y264969*
X439205Y264656*
Y264344*
X439091Y264031*
X438864Y263563*
X438864D02*
X437727Y262000D01*
X439318*
X440455Y264500D02*
Y264656D01*
X440568Y264969*
X440682Y265125*
X440909Y265281*
X441364*
X441591Y265125*
X441705Y264969*
X441818Y264656*
Y264344*
X441705Y264031*
X441477Y263563*
X441477D02*
X440341Y262000D01*
X441932*
X487000Y216281D02*
Y213000D01*
Y216281D02*
X487795D01*
X488136Y216125*
X488364Y215813*
X488364D02*
X488477Y215500D01*
X488591Y215031*
Y214250*
X488477Y213781*
X488364Y213469*
X488136Y213156*
X487795Y213000*
X487000*
X489614Y215656D02*
X489841Y215813D01*
X489841D02*
X490182Y216281D01*
Y213000*
X491432Y216281D02*
X492682D01*
X492000Y215031*
X492341*
X492568Y214875*
X492682Y214719*
X492795Y214250*
Y213938*
X492795D02*
X492682Y213469D01*
X492455Y213156*
X492114Y213000*
X491773*
X491432Y213156*
X491318Y213313*
X491318D02*
X491205Y213625D01*
X502000Y213281D02*
Y210000D01*
Y213281D02*
X503023D01*
X503364Y213125*
X503477Y212969*
X503591Y212656*
Y212344*
X503477Y212031*
X503364Y211875*
X503023Y211719*
X502000*
X502795D02*
X503591Y210000D01*
X504614Y212656D02*
X504841Y212813D01*
X504841D02*
X505182Y213281D01*
Y210000*
X506886Y213281D02*
X506545Y213125D01*
X506318Y212656*
X506205Y211875*
Y211406*
X506318Y210625*
X506545Y210156*
X506886Y210000*
X507114*
X507455Y210156*
X507682Y210625*
X507795Y211406*
Y211875*
X507682Y212656*
X507455Y213125*
X507114Y213281*
X506886*
X510295Y212188D02*
X510182Y211719D01*
X509955Y211406*
X509614Y211250*
X509500*
X509159Y211406*
X508932Y211719*
X508818Y212188*
X508818D02*
Y212344D01*
X508932Y212813*
X508932D02*
X509159Y213125D01*
X509500Y213281*
X509614*
X509955Y213125*
X510182Y212813*
X510182D02*
X510295Y212188D01*
X510295D02*
Y211406D01*
X510182Y210625*
X509955Y210156*
X509614Y210000*
X509386*
X509045Y210156*
X508932Y210469*
X347705Y132500D02*
X347591Y132813D01*
X347591D02*
X347364Y133125D01*
X347136Y133281*
X346682*
X346455Y133125*
X346227Y132813*
X346227D02*
X346114Y132500D01*
X346000Y132031*
Y131250*
X346114Y130781*
X346227Y130469*
X346455Y130156*
X346682Y130000*
X347136*
X347364Y130156*
X347591Y130469*
X347705Y130781*
X348727Y132656D02*
X348955Y132813D01*
X348955D02*
X349295Y133281D01*
Y130000*
X350318Y132656D02*
X350545Y132813D01*
X350545D02*
X350886Y133281D01*
Y130000*
X351909Y132656D02*
X352136Y132813D01*
X352136D02*
X352477Y133281D01*
Y130000*
X356705Y166500D02*
X356591Y166813D01*
X356591D02*
X356364Y167125D01*
X356136Y167281*
X355682*
X355455Y167125*
X355227Y166813*
X355227D02*
X355114Y166500D01*
X355000Y166031*
Y165250*
X355114Y164781*
X355227Y164469*
X355455Y164156*
X355682Y164000*
X356136*
X356364Y164156*
X356591Y164469*
X356705Y164781*
X357727Y166656D02*
X357955Y166813D01*
X357955D02*
X358295Y167281D01*
Y164000*
X360000Y167281D02*
X359659Y167125D01*
X359432Y166656*
X359318Y165875*
Y165406*
X359432Y164625*
X359659Y164156*
X360000Y164000*
X360227*
X360568Y164156*
X360795Y164625*
X360909Y165406*
Y165875*
X360795Y166656*
X360568Y167125*
X360227Y167281*
X360000*
X363409Y166188D02*
X363295Y165719D01*
X363068Y165406*
X362727Y165250*
X362614*
X362273Y165406*
X362045Y165719*
X361932Y166188*
X361932D02*
Y166344D01*
X362045Y166813*
X362045D02*
X362273Y167125D01*
X362614Y167281*
X362727*
X363068Y167125*
X363295Y166813*
X363295D02*
X363409Y166188D01*
X363409D02*
Y165406D01*
X363295Y164625*
X363068Y164156*
X362727Y164000*
X362500*
X362159Y164156*
X362045Y164469*
X396000Y117281D02*
Y114000D01*
Y117281D02*
X396795D01*
X397136Y117125*
X397364Y116813*
X397477Y116500*
X397591Y116031*
Y115250*
X397477Y114781*
X397364Y114469*
X397136Y114156*
X396795Y114000*
X396000*
X398614Y116656D02*
X398841Y116813D01*
X399182Y117281*
Y114000*
X401795Y117281D02*
X400659Y114000D01*
X400205Y117281D02*
X401795D01*
X345705Y221500D02*
X345591Y221813D01*
X345591D02*
X345364Y222125D01*
X345136Y222281*
X344682*
X344455Y222125*
X344227Y221813*
X344227D02*
X344114Y221500D01*
X344000Y221031*
Y220250*
X344114Y219781*
X344227Y219469*
X344455Y219156*
X344682Y219000*
X345136*
X345364Y219156*
X345591Y219469*
X345705Y219781*
X346841Y221500D02*
Y221656D01*
X346955Y221969*
X347068Y222125*
X347295Y222281*
X347750*
X347977Y222125*
X348091Y221969*
X348205Y221656*
Y221344*
X348091Y221031*
X347864Y220563*
X347864D02*
X346727Y219000D01*
X348318*
X349909Y222281D02*
X349568Y222125D01*
X349455Y221813*
X349455D02*
Y221500D01*
X349568Y221188*
X349568D02*
X349795Y221031D01*
X350250Y220875*
X350591Y220719*
X350818Y220406*
X350932Y220094*
Y219625*
X350818Y219313*
X350818D02*
X350705Y219156D01*
X350364Y219000*
X349909*
X349568Y219156*
X349455Y219313*
X349455D02*
X349341Y219625D01*
Y220094*
X349455Y220406*
X349682Y220719*
X350023Y220875*
X350477Y221031*
X350705Y221188*
X350705D02*
X350818Y221500D01*
Y221813*
X350818D02*
X350705Y222125D01*
X350364Y222281*
X349909*
X345705Y217500D02*
X345591Y217813D01*
X345591D02*
X345364Y218125D01*
X345136Y218281*
X344682*
X344455Y218125*
X344227Y217813*
X344227D02*
X344114Y217500D01*
X344000Y217031*
Y216250*
X344114Y215781*
X344227Y215469*
X344455Y215156*
X344682Y215000*
X345136*
X345364Y215156*
X345591Y215469*
X345705Y215781*
X346841Y217500D02*
Y217656D01*
X346955Y217969*
X347068Y218125*
X347295Y218281*
X347750*
X347977Y218125*
X348091Y217969*
X348205Y217656*
Y217344*
X348091Y217031*
X347864Y216563*
X347864D02*
X346727Y215000D01*
X348318*
X350818Y217188D02*
X350705Y216719D01*
X350477Y216406*
X350136Y216250*
X350023*
X349682Y216406*
X349455Y216719*
X349341Y217188*
X349341D02*
Y217344D01*
X349455Y217813*
X349455D02*
X349682Y218125D01*
X350023Y218281*
X350136*
X350477Y218125*
X350705Y217813*
X350705D02*
X350818Y217188D01*
X350818D02*
Y216406D01*
X350705Y215625*
X350477Y215156*
X350136Y215000*
X349909*
X349568Y215156*
X349455Y215469*
X268705Y244500D02*
X268591Y244813D01*
X268591D02*
X268364Y245125D01*
X268136Y245281*
X267682*
X267455Y245125*
X267227Y244813*
X267227D02*
X267114Y244500D01*
X267000Y244031*
Y243250*
X267114Y242781*
X267227Y242469*
X267455Y242156*
X267682Y242000*
X268136*
X268364Y242156*
X268591Y242469*
X268705Y242781*
X269955Y245281D02*
X271205D01*
X270523Y244031*
X270864*
X271091Y243875*
X271205Y243719*
X271318Y243250*
Y242938*
X271318D02*
X271205Y242469D01*
X270977Y242156*
X270636Y242000*
X270295*
X269955Y242156*
X269841Y242313*
X269841D02*
X269727Y242625D01*
X273023Y245281D02*
X272682Y245125D01*
X272455Y244656*
X272341Y243875*
Y243406*
X272455Y242625*
X272682Y242156*
X273023Y242000*
X273250*
X273591Y242156*
X273818Y242625*
X273932Y243406*
Y243875*
X273818Y244656*
X273591Y245125*
X273250Y245281*
X273023*
X351000Y120281D02*
Y117938D01*
X351000D02*
X351114Y117469D01*
X351341Y117156*
X351682Y117000*
X351909*
X352250Y117156*
X352477Y117469*
X352591Y117938*
X352591D02*
Y120281D01*
X353614Y119656D02*
X353841Y119813D01*
X353841D02*
X354182Y120281D01*
Y117000*
X356568Y119813D02*
X356455Y120125D01*
X356114Y120281*
X355886*
X355545Y120125*
X355318Y119656*
X355205Y118875*
Y118094*
X355318Y117469*
X355545Y117156*
X355886Y117000*
X356000*
X356341Y117156*
X356568Y117469*
X356682Y117938*
X356682D02*
Y118094D01*
X356568Y118563*
X356568D02*
X356341Y118875D01*
X356000Y119031*
X355886*
X355545Y118875*
X355318Y118563*
X355318D02*
X355205Y118094D01*
X369000Y112281D02*
Y109000D01*
Y112281D02*
X370023D01*
X370364Y112125*
X370477Y111969*
X370591Y111656*
Y111344*
X370477Y111031*
X370364Y110875*
X370023Y110719*
X369000*
X369795D02*
X370591Y109000D01*
X371614Y111656D02*
X371841Y111813D01*
X371841D02*
X372182Y112281D01*
Y109000*
X373205Y111656D02*
X373432Y111813D01*
X373432D02*
X373773Y112281D01*
Y109000*
X376273Y112281D02*
X375136D01*
X375023Y110875*
X375136Y111031*
X375477Y111188*
X375477D02*
X375818D01*
X375818D02*
X376159Y111031D01*
X376386Y110719*
X376500Y110250*
X376386Y109938*
X376386D02*
X376273Y109469D01*
X376045Y109156*
X375705Y109000*
X375364*
X375023Y109156*
X374909Y109313*
X374909D02*
X374795Y109625D01*
X500000Y199281D02*
Y196938D01*
X500000D02*
X500114Y196469D01*
X500341Y196156*
X500682Y196000*
X500909*
X501250Y196156*
X501477Y196469*
X501591Y196938*
X501591D02*
Y199281D01*
X502614Y198656D02*
X502841Y198813D01*
X502841D02*
X503182Y199281D01*
Y196000*
X505795Y199281D02*
X504659Y196000D01*
X504205Y199281D02*
X505795D01*
X200000Y197281D02*
Y194000D01*
Y197281D02*
X201023D01*
X201364Y197125*
X201477Y196969*
X201591Y196656*
Y196344*
X201477Y196031*
X201364Y195875*
X201023Y195719*
X200000*
X200795D02*
X201591Y194000D01*
X202727Y196500D02*
Y196656D01*
X202841Y196969*
X202955Y197125*
X203182Y197281*
X203636*
X203864Y197125*
X203977Y196969*
X204091Y196656*
Y196344*
X203977Y196031*
X203750Y195563*
X203750D02*
X202614Y194000D01*
X204205*
X206591Y196813D02*
X206477Y197125D01*
X206136Y197281*
X205909*
X205568Y197125*
X205341Y196656*
X205227Y195875*
Y195094*
X205341Y194469*
X205568Y194156*
X205909Y194000*
X206023*
X206364Y194156*
X206591Y194469*
X206705Y194938*
X206705D02*
Y195094D01*
X206591Y195563*
X206591D02*
X206364Y195875D01*
X206023Y196031*
X205909*
X205568Y195875*
X205341Y195563*
X205341D02*
X205227Y195094D01*
X424000Y229281D02*
Y226000D01*
Y229281D02*
X425023D01*
X425364Y229125*
X425477Y228969*
X425591Y228656*
Y228344*
X425477Y228031*
X425364Y227875*
X425023Y227719*
X424000*
X424795D02*
X425591Y226000D01*
X426614Y228656D02*
X426841Y228813D01*
X426841D02*
X427182Y229281D01*
Y226000*
X429682Y228188D02*
X429568Y227719D01*
X429341Y227406*
X429000Y227250*
X428886*
X428545Y227406*
X428318Y227719*
X428205Y228188*
X428205D02*
Y228344D01*
X428318Y228813*
X428318D02*
X428545Y229125D01*
X428886Y229281*
X429000*
X429341Y229125*
X429568Y228813*
X429568D02*
X429682Y228188D01*
X429682D02*
Y227406D01*
X429568Y226625*
X429341Y226156*
X429000Y226000*
X428773*
X428432Y226156*
X428318Y226469*
X440705Y228500D02*
X440591Y228813D01*
X440591D02*
X440364Y229125D01*
X440136Y229281*
X439682*
X439455Y229125*
X439227Y228813*
X439227D02*
X439114Y228500D01*
X439000Y228031*
Y227250*
X439114Y226781*
X439227Y226469*
X439455Y226156*
X439682Y226000*
X440136*
X440364Y226156*
X440591Y226469*
X440705Y226781*
X441955Y229281D02*
X443205D01*
X442523Y228031*
X442864*
X443091Y227875*
X443205Y227719*
X443318Y227250*
Y226938*
X443318D02*
X443205Y226469D01*
X442977Y226156*
X442636Y226000*
X442295*
X441955Y226156*
X441841Y226313*
X441841D02*
X441727Y226625D01*
X445477Y229281D02*
X444341Y227094D01*
X446045*
X445477Y229281D02*
Y226000D01*
X464705Y237500D02*
X464591Y237813D01*
X464591D02*
X464364Y238125D01*
X464136Y238281*
X463682*
X463455Y238125*
X463227Y237813*
X463227D02*
X463114Y237500D01*
X463000Y237031*
Y236250*
X463114Y235781*
X463227Y235469*
X463455Y235156*
X463682Y235000*
X464136*
X464364Y235156*
X464591Y235469*
X464705Y235781*
X465955Y238281D02*
X467205D01*
X466523Y237031*
X466864*
X467091Y236875*
X467205Y236719*
X467318Y236250*
Y235938*
X467318D02*
X467205Y235469D01*
X466977Y235156*
X466636Y235000*
X466295*
X465955Y235156*
X465841Y235313*
X465841D02*
X465727Y235625D01*
X469818Y238281D02*
X468682D01*
X468568Y236875*
X468682Y237031*
X469023Y237188*
X469023D02*
X469364D01*
X469364D02*
X469705Y237031D01*
X469932Y236719*
X470045Y236250*
X469932Y235938*
X469932D02*
X469818Y235469D01*
X469591Y235156*
X469250Y235000*
X468909*
X468568Y235156*
X468455Y235313*
X468455D02*
X468341Y235625D01*
X473705Y228500D02*
X473591Y228813D01*
X473591D02*
X473364Y229125D01*
X473136Y229281*
X472682*
X472455Y229125*
X472227Y228813*
X472227D02*
X472114Y228500D01*
X472000Y228031*
Y227250*
X472114Y226781*
X472227Y226469*
X472455Y226156*
X472682Y226000*
X473136*
X473364Y226156*
X473591Y226469*
X473705Y226781*
X474955Y229281D02*
X476205D01*
X475523Y228031*
X475864*
X476091Y227875*
X476205Y227719*
X476318Y227250*
Y226938*
X476318D02*
X476205Y226469D01*
X475977Y226156*
X475636Y226000*
X475295*
X474955Y226156*
X474841Y226313*
X474841D02*
X474727Y226625D01*
X478705Y228813D02*
X478591Y229125D01*
X478250Y229281*
X478023*
X477682Y229125*
X477455Y228656*
X477341Y227875*
Y227094*
X477455Y226469*
X477682Y226156*
X478023Y226000*
X478136*
X478477Y226156*
X478705Y226469*
X478818Y226938*
X478818D02*
Y227094D01*
X478705Y227563*
X478705D02*
X478477Y227875D01*
X478136Y228031*
X478023*
X477682Y227875*
X477455Y227563*
X477455D02*
X477341Y227094D01*
X373000Y307281D02*
Y304937D01*
X373000D02*
X373114Y304469D01*
X373341Y304156*
X373682Y304000*
X373909*
X374250Y304156*
X374477Y304469*
X374591Y304937*
X374591D02*
Y307281D01*
X375614Y306656D02*
X375841Y306812D01*
X375841D02*
X376182Y307281D01*
Y304000*
X377205Y306656D02*
X377432Y306812D01*
X377432D02*
X377773Y307281D01*
Y304000*
X393405Y312300D02*
X393291Y312613D01*
X393291D02*
X393064Y312925D01*
X392836Y313081*
X392382*
X392155Y312925*
X391927Y312613*
X391927D02*
X391814Y312300D01*
X391700Y311831*
Y311050*
X391814Y310581*
X391927Y310269*
X392155Y309956*
X392382Y309800*
X392836*
X393064Y309956*
X393291Y310269*
X393405Y310581*
X394655Y313081D02*
X395905D01*
X395223Y311831*
X395564*
X395791Y311675*
X395905Y311519*
X396018Y311050*
Y310738*
X396018D02*
X395905Y310269D01*
X395677Y309956*
X395336Y309800*
X394995*
X394655Y309956*
X394541Y310113*
X394541D02*
X394427Y310425D01*
X398632Y313081D02*
X397495Y309800D01*
X397041Y313081D02*
X398632D01*
X465705Y223500D02*
X465591Y223813D01*
X465591D02*
X465364Y224125D01*
X465136Y224281*
X464682*
X464455Y224125*
X464227Y223813*
X464227D02*
X464114Y223500D01*
X464000Y223031*
Y222250*
X464114Y221781*
X464227Y221469*
X464455Y221156*
X464682Y221000*
X465136*
X465364Y221156*
X465591Y221469*
X465705Y221781*
X466955Y224281D02*
X468205D01*
X467523Y223031*
X467864*
X468091Y222875*
X468205Y222719*
X468318Y222250*
Y221938*
X468318D02*
X468205Y221469D01*
X467977Y221156*
X467636Y221000*
X467295*
X466955Y221156*
X466841Y221313*
X466841D02*
X466727Y221625D01*
X470818Y223188D02*
X470705Y222719D01*
X470477Y222406*
X470136Y222250*
X470023*
X469682Y222406*
X469455Y222719*
X469341Y223188*
X469341D02*
Y223344D01*
X469455Y223813*
X469455D02*
X469682Y224125D01*
X470023Y224281*
X470136*
X470477Y224125*
X470705Y223813*
X470705D02*
X470818Y223188D01*
X470818D02*
Y222406D01*
X470705Y221625*
X470477Y221156*
X470136Y221000*
X469909*
X469568Y221156*
X469455Y221469*
X483705Y223500D02*
X483591Y223813D01*
X483591D02*
X483364Y224125D01*
X483136Y224281*
X482682*
X482455Y224125*
X482227Y223813*
X482227D02*
X482114Y223500D01*
X482000Y223031*
Y222250*
X482114Y221781*
X482227Y221469*
X482455Y221156*
X482682Y221000*
X483136*
X483364Y221156*
X483591Y221469*
X483705Y221781*
X485864Y224281D02*
X484727Y222094D01*
X486432*
X485864Y224281D02*
Y221000D01*
X488136Y224281D02*
X487795Y224125D01*
X487568Y223656*
X487455Y222875*
Y222406*
X487568Y221625*
X487795Y221156*
X488136Y221000*
X488364*
X488705Y221156*
X488932Y221625*
X489045Y222406*
Y222875*
X488932Y223656*
X488705Y224125*
X488364Y224281*
X488136*
X384595Y309700D02*
X384709Y309387D01*
X384709D02*
X384936Y309075D01*
X385164Y308919*
X385618*
X385845Y309075*
X386073Y309387*
X386073D02*
X386186Y309700D01*
X386300Y310169*
Y310950*
X386186Y311419*
X386073Y311731*
X385845Y312044*
X385618Y312200*
X385164*
X384936Y312044*
X384709Y311731*
X384595Y311419*
X383345Y308919D02*
X382095D01*
X382777Y310169*
X382436*
X382209Y310325*
X382095Y310481*
X381982Y310950*
Y311262*
X381982D02*
X382095Y311731D01*
X382323Y312044*
X382664Y312200*
X383005*
X383345Y312044*
X383459Y311887*
X383459D02*
X383573Y311575D01*
X380391Y308919D02*
X380732Y309075D01*
X380845Y309387*
X380845D02*
Y309700D01*
X380732Y310012*
X380732D02*
X380505Y310169D01*
X380050Y310325*
X379709Y310481*
X379482Y310794*
X379368Y311106*
Y311575*
X379482Y311887*
X379482D02*
X379595Y312044D01*
X379936Y312200*
X380391*
X380732Y312044*
X380845Y311887*
X380845D02*
X380959Y311575D01*
Y311106*
X380845Y310794*
X380618Y310481*
X380277Y310325*
X379823Y310169*
X379595Y310012*
X379595D02*
X379482Y309700D01*
Y309387*
X379482D02*
X379595Y309075D01*
X379936Y308919*
X380391*
X450000Y240281D02*
Y237000D01*
X451364*
X452386Y239656D02*
X452614Y239813D01*
X452614D02*
X452955Y240281D01*
Y237000*
X481000Y240281D02*
Y237000D01*
X482364*
X483500Y239500D02*
Y239656D01*
X483614Y239969*
X483727Y240125*
X483955Y240281*
X484409*
X484636Y240125*
X484750Y239969*
X484864Y239656*
Y239344*
X484750Y239031*
X484523Y238563*
X483386Y237000*
X484977*
X358000Y285281D02*
Y282000D01*
Y285281D02*
X359023D01*
X359364Y285125*
X359477Y284969*
X359591Y284656*
Y284344*
X359477Y284031*
X359364Y283875*
X359023Y283719*
X358000*
X358795D02*
X359591Y282000D01*
X360614Y284656D02*
X360841Y284813D01*
X360841D02*
X361182Y285281D01*
Y282000*
X362773Y285281D02*
X362432Y285125D01*
X362318Y284813*
X362318D02*
Y284500D01*
X362432Y284188*
X362432D02*
X362659Y284031D01*
X363114Y283875*
X363455Y283719*
X363682Y283406*
X363795Y283094*
Y282625*
X363682Y282313*
X363682D02*
X363568Y282156D01*
X363227Y282000*
X362773*
X362432Y282156*
X362318Y282313*
X362318D02*
X362205Y282625D01*
Y283094*
X362318Y283406*
X362545Y283719*
X362886Y283875*
X363341Y284031*
X363568Y284188*
X363568D02*
X363682Y284500D01*
Y284813*
X363682D02*
X363568Y285125D01*
X363227Y285281*
X362773*
X427000Y129281D02*
Y126938D01*
X427000D02*
X427114Y126469D01*
X427341Y126156*
X427682Y126000*
X427909*
X428250Y126156*
X428477Y126469*
X428591Y126938*
X428591D02*
Y129281D01*
X429727Y128500D02*
Y128656D01*
X429841Y128969*
X429955Y129125*
X430182Y129281*
X430636*
X430864Y129125*
X430977Y128969*
X431091Y128656*
Y128344*
X430977Y128031*
X430750Y127563*
X430750D02*
X429614Y126000D01*
X431205*
X427000Y163281D02*
Y160938D01*
X427000D02*
X427114Y160469D01*
X427341Y160156*
X427682Y160000*
X427909*
X428250Y160156*
X428477Y160469*
X428591Y160938*
X428591D02*
Y163281D01*
X431091Y162188D02*
X430977Y161719D01*
X430750Y161406*
X430409Y161250*
X430295*
X429955Y161406*
X429727Y161719*
X429614Y162188*
X429614D02*
Y162344D01*
X429727Y162813*
X429727D02*
X429955Y163125D01*
X430295Y163281*
X430409*
X430750Y163125*
X430977Y162813*
X430977D02*
X431091Y162188D01*
X431091D02*
Y161406D01*
X430977Y160625*
X430750Y160156*
X430409Y160000*
X430182*
X429841Y160156*
X429727Y160469*
X443705Y186500D02*
X443591Y186813D01*
X443591D02*
X443364Y187125D01*
X443136Y187281*
X442682*
X442455Y187125*
X442227Y186813*
X442227D02*
X442114Y186500D01*
X442000Y186031*
Y185250*
X442114Y184781*
X442227Y184469*
X442455Y184156*
X442682Y184000*
X443136*
X443364Y184156*
X443591Y184469*
X443705Y184781*
X444841Y186500D02*
Y186656D01*
X444955Y186969*
X445068Y187125*
X445295Y187281*
X445750*
X445977Y187125*
X446091Y186969*
X446205Y186656*
Y186344*
X446091Y186031*
X445864Y185563*
X445864D02*
X444727Y184000D01*
X446318*
X447568Y187281D02*
X448818D01*
X448136Y186031*
X448477*
X448705Y185875*
X448818Y185719*
X448932Y185250*
Y184938*
X448932D02*
X448818Y184469D01*
X448591Y184156*
X448250Y184000*
X447909*
X447568Y184156*
X447455Y184313*
X447455D02*
X447341Y184625D01*
X371705Y173500D02*
X371591Y173813D01*
X371591D02*
X371364Y174125D01*
X371136Y174281*
X370682*
X370455Y174125*
X370227Y173813*
X370227D02*
X370114Y173500D01*
X370000Y173031*
Y172250*
X370114Y171781*
X370227Y171469*
X370455Y171156*
X370682Y171000*
X371136*
X371364Y171156*
X371591Y171469*
X371705Y171781*
X372727Y173656D02*
X372955Y173813D01*
X372955D02*
X373295Y174281D01*
Y171000*
X375909Y174281D02*
X374773Y171000D01*
X374318Y174281D02*
X375909D01*
X439705Y168500D02*
X439591Y168813D01*
X439591D02*
X439364Y169125D01*
X439136Y169281*
X438682*
X438455Y169125*
X438227Y168813*
X438227D02*
X438114Y168500D01*
X438000Y168031*
Y167250*
X438114Y166781*
X438227Y166469*
X438455Y166156*
X438682Y166000*
X439136*
X439364Y166156*
X439591Y166469*
X439705Y166781*
X440841Y168500D02*
Y168656D01*
X440955Y168969*
X441068Y169125*
X441295Y169281*
X441750*
X441977Y169125*
X442091Y168969*
X442205Y168656*
Y168344*
X442091Y168031*
X441864Y167563*
X441864D02*
X440727Y166000D01*
X442318*
X444477Y169281D02*
X443341Y167094D01*
X445045*
X444477Y169281D02*
Y166000D01*
X435705Y134500D02*
X435591Y134813D01*
X435591D02*
X435364Y135125D01*
X435136Y135281*
X434682*
X434455Y135125*
X434227Y134813*
X434227D02*
X434114Y134500D01*
X434000Y134031*
Y133250*
X434114Y132781*
X434227Y132469*
X434455Y132156*
X434682Y132000*
X435136*
X435364Y132156*
X435591Y132469*
X435705Y132781*
X436841Y134500D02*
Y134656D01*
X436955Y134969*
X437068Y135125*
X437295Y135281*
X437750*
X437977Y135125*
X438091Y134969*
X438205Y134656*
Y134344*
X438091Y134031*
X437864Y133563*
X437864D02*
X436727Y132000D01*
X438318*
X440818Y135281D02*
X439682D01*
X439568Y133875*
X439682Y134031*
X440023Y134188*
X440023D02*
X440364D01*
X440364D02*
X440705Y134031D01*
X440932Y133719*
X441045Y133250*
X440932Y132938*
X440932D02*
X440818Y132469D01*
X440591Y132156*
X440250Y132000*
X439909*
X439568Y132156*
X439455Y132313*
X439455D02*
X439341Y132625D01*
X402705Y157500D02*
X402591Y157813D01*
X402591D02*
X402364Y158125D01*
X402136Y158281*
X401682*
X401455Y158125*
X401227Y157813*
X401227D02*
X401114Y157500D01*
X401000Y157031*
Y156250*
X401114Y155781*
X401227Y155469*
X401455Y155156*
X401682Y155000*
X402136*
X402364Y155156*
X402591Y155469*
X402705Y155781*
X403841Y157500D02*
Y157656D01*
X403955Y157969*
X404068Y158125*
X404295Y158281*
X404750*
X404977Y158125*
X405091Y157969*
X405205Y157656*
Y157344*
X405091Y157031*
X404864Y156563*
X404864D02*
X403727Y155000D01*
X405318*
X407705Y157813D02*
X407591Y158125D01*
X407250Y158281*
X407023*
X406682Y158125*
X406455Y157656*
X406341Y156875*
Y156094*
X406455Y155469*
X406682Y155156*
X407023Y155000*
X407136*
X407477Y155156*
X407705Y155469*
X407818Y155938*
X407818D02*
Y156094D01*
X407705Y156563*
X407705D02*
X407477Y156875D01*
X407136Y157031*
X407023*
X406682Y156875*
X406455Y156563*
X406455D02*
X406341Y156094D01*
X387705Y153500D02*
X387591Y153813D01*
X387591D02*
X387364Y154125D01*
X387136Y154281*
X386682*
X386455Y154125*
X386227Y153813*
X386227D02*
X386114Y153500D01*
X386000Y153031*
Y152250*
X386114Y151781*
X386227Y151469*
X386455Y151156*
X386682Y151000*
X387136*
X387364Y151156*
X387591Y151469*
X387705Y151781*
X388841Y153500D02*
Y153656D01*
X388955Y153969*
X389068Y154125*
X389295Y154281*
X389750*
X389977Y154125*
X390091Y153969*
X390205Y153656*
Y153344*
X390091Y153031*
X389864Y152563*
X389864D02*
X388727Y151000D01*
X390318*
X392932Y154281D02*
X391795Y151000D01*
X391341Y154281D02*
X392932D01*
X393705Y197500D02*
X393591Y197813D01*
X393591D02*
X393364Y198125D01*
X393136Y198281*
X392682*
X392455Y198125*
X392227Y197813*
X392227D02*
X392114Y197500D01*
X392000Y197031*
Y196250*
X392114Y195781*
X392227Y195469*
X392455Y195156*
X392682Y195000*
X393136*
X393364Y195156*
X393591Y195469*
X393705Y195781*
X394955Y198281D02*
X396205D01*
X395523Y197031*
X395864*
X396091Y196875*
X396205Y196719*
X396318Y196250*
Y195938*
X396318D02*
X396205Y195469D01*
X395977Y195156*
X395636Y195000*
X395295*
X394955Y195156*
X394841Y195313*
X394841D02*
X394727Y195625D01*
X397341Y197656D02*
X397568Y197813D01*
X397568D02*
X397909Y198281D01*
Y195000*
X426705Y191500D02*
X426591Y191813D01*
X426364Y192125*
X426136Y192281*
X425682*
X425455Y192125*
X425227Y191813*
X425114Y191500*
X425000Y191031*
Y190250*
X425114Y189781*
X425227Y189469*
X425455Y189156*
X425682Y189000*
X426136*
X426364Y189156*
X426591Y189469*
X426705Y189781*
X427955Y192281D02*
X429205D01*
X428523Y191031*
X428864*
X429091Y190875*
X429205Y190719*
X429318Y190250*
Y189938*
X429205Y189469*
X428977Y189156*
X428636Y189000*
X428295*
X427955Y189156*
X427841Y189313*
X427727Y189625*
X430455Y191500D02*
Y191656D01*
X430568Y191969*
X430682Y192125*
X430909Y192281*
X431364*
X431591Y192125*
X431705Y191969*
X431818Y191656*
Y191344*
X431705Y191031*
X431477Y190563*
X430341Y189000*
X431932*
X383000Y143281D02*
Y140000D01*
Y143281D02*
X384023D01*
X384364Y143125*
X384477Y142969*
X384591Y142656*
Y142344*
X384477Y142031*
X384364Y141875*
X384023Y141719*
X383000*
X383795D02*
X384591Y140000D01*
X385614Y142656D02*
X385841Y142813D01*
X385841D02*
X386182Y143281D01*
Y140000*
X383000Y138281D02*
Y135000D01*
Y138281D02*
X384023D01*
X384364Y138125*
X384477Y137969*
X384591Y137656*
Y137344*
X384477Y137031*
X384364Y136875*
X384023Y136719*
X383000*
X383795D02*
X384591Y135000D01*
X385841Y138281D02*
X387091D01*
X386409Y137031*
X386750*
X386977Y136875*
X387091Y136719*
X387205Y136250*
Y135938*
X387205D02*
X387091Y135469D01*
X386864Y135156*
X386523Y135000*
X386182*
X385841Y135156*
X385727Y135313*
X385727D02*
X385614Y135625D01*
X383000Y133281D02*
Y130000D01*
Y133281D02*
X384023D01*
X384364Y133125*
X384477Y132969*
X384591Y132656*
Y132344*
X384477Y132031*
X384364Y131875*
X384023Y131719*
X383000*
X383795D02*
X384591Y130000D01*
X387091Y133281D02*
X385955D01*
X385841Y131875*
X385955Y132031*
X386295Y132188*
X386295D02*
X386636D01*
X386636D02*
X386977Y132031D01*
X387205Y131719*
X387318Y131250*
X387205Y130938*
X387205D02*
X387091Y130469D01*
X386864Y130156*
X386523Y130000*
X386182*
X385841Y130156*
X385727Y130313*
X385727D02*
X385614Y130625D01*
X367000Y168281D02*
Y165000D01*
Y168281D02*
X368023D01*
X368364Y168125*
X368477Y167969*
X368591Y167656*
Y167344*
X368477Y167031*
X368364Y166875*
X368023Y166719*
X367000*
X367795D02*
X368591Y165000D01*
X371205Y168281D02*
X370068Y165000D01*
X369614Y168281D02*
X371205D01*
X109136Y429281D02*
Y426781D01*
X109023Y426313*
X109023D02*
X108909Y426156D01*
X108682Y426000*
X108455*
X108227Y426156*
X108114Y426313*
X108114D02*
X108000Y426781D01*
Y427094*
X110159Y428656D02*
X110386Y428813D01*
X110386D02*
X110727Y429281D01*
Y426000*
X109136Y369281D02*
Y366781D01*
X109023Y366313*
X109023D02*
X108909Y366156D01*
X108682Y366000*
X108455*
X108227Y366156*
X108114Y366313*
X108114D02*
X108000Y366781D01*
Y367094*
X110273Y368500D02*
Y368656D01*
X110386Y368969*
X110500Y369125*
X110727Y369281*
X111182*
X111409Y369125*
X111523Y368969*
X111636Y368656*
Y368344*
X111523Y368031*
X111295Y367563*
X111295D02*
X110159Y366000D01*
X111750*
X109136Y309281D02*
Y306781D01*
X109023Y306313*
X109023D02*
X108909Y306156D01*
X108682Y306000*
X108455*
X108227Y306156*
X108114Y306313*
X108114D02*
X108000Y306781D01*
Y307094*
X110386Y309281D02*
X111636D01*
X110955Y308031*
X111295*
X111523Y307875*
X111636Y307719*
X111750Y307250*
Y306938*
X111750D02*
X111636Y306469D01*
X111409Y306156*
X111068Y306000*
X110727*
X110386Y306156*
X110273Y306313*
X110273D02*
X110159Y306625D01*
X109136Y249281D02*
Y246781D01*
X109023Y246313*
X109023D02*
X108909Y246156D01*
X108682Y246000*
X108455*
X108227Y246156*
X108114Y246313*
X108114D02*
X108000Y246781D01*
Y247094*
X111295Y249281D02*
X110159Y247094D01*
X111864*
X111295Y249281D02*
Y246000D01*
X149000Y416281D02*
Y413000D01*
Y416281D02*
X150023D01*
X150364Y416125*
X150477Y415969*
X150591Y415656*
Y415344*
X150477Y415031*
X150364Y414875*
X150023Y414719*
X149000*
X149795D02*
X150591Y413000D01*
X151727Y415500D02*
Y415656D01*
X151841Y415969*
X151955Y416125*
X152182Y416281*
X152636*
X152864Y416125*
X152977Y415969*
X153091Y415656*
Y415344*
X152977Y415031*
X152750Y414563*
X152750D02*
X151614Y413000D01*
X153205*
X155705Y415188D02*
X155591Y414719D01*
X155364Y414406*
X155023Y414250*
X154909*
X154568Y414406*
X154341Y414719*
X154227Y415188*
X154227D02*
Y415344D01*
X154341Y415813*
X154341D02*
X154568Y416125D01*
X154909Y416281*
X155023*
X155364Y416125*
X155591Y415813*
X155591D02*
X155705Y415188D01*
X155705D02*
Y414406D01*
X155591Y413625*
X155364Y413156*
X155023Y413000*
X154795*
X154455Y413156*
X154341Y413469*
X109136Y189281D02*
Y186781D01*
X109023Y186313*
X109023D02*
X108909Y186156D01*
X108682Y186000*
X108455*
X108227Y186156*
X108114Y186313*
X108114D02*
X108000Y186781D01*
Y187094*
X111523Y188813D02*
X111409Y189125D01*
X111068Y189281*
X110841*
X110500Y189125*
X110273Y188656*
X110159Y187875*
Y187094*
X110273Y186469*
X110500Y186156*
X110841Y186000*
X110955*
X111295Y186156*
X111523Y186469*
X111636Y186938*
X111636D02*
Y187094D01*
X111523Y187563*
X111523D02*
X111295Y187875D01*
X110955Y188031*
X110841*
X110500Y187875*
X110273Y187563*
X110273D02*
X110159Y187094D01*
X149000Y356281D02*
Y353000D01*
Y356281D02*
X150023D01*
X150364Y356125*
X150477Y355969*
X150591Y355656*
Y355344*
X150477Y355031*
X150364Y354875*
X150023Y354719*
X149000*
X149795D02*
X150591Y353000D01*
X151841Y356281D02*
X153091D01*
X152409Y355031*
X152750*
X152977Y354875*
X153091Y354719*
X153205Y354250*
Y353938*
X153205D02*
X153091Y353469D01*
X152864Y353156*
X152523Y353000*
X152182*
X151841Y353156*
X151727Y353313*
X151727D02*
X151614Y353625D01*
X154909Y356281D02*
X154568Y356125D01*
X154341Y355656*
X154227Y354875*
Y354406*
X154341Y353625*
X154568Y353156*
X154909Y353000*
X155136*
X155477Y353156*
X155705Y353625*
X155818Y354406*
Y354875*
X155705Y355656*
X155477Y356125*
X155136Y356281*
X154909*
X149000Y296281D02*
Y293000D01*
Y296281D02*
X150023D01*
X150364Y296125*
X150477Y295969*
X150591Y295656*
Y295344*
X150477Y295031*
X150364Y294875*
X150023Y294719*
X149000*
X149795D02*
X150591Y293000D01*
X151841Y296281D02*
X153091D01*
X152409Y295031*
X152750*
X152977Y294875*
X153091Y294719*
X153205Y294250*
Y293938*
X153205D02*
X153091Y293469D01*
X152864Y293156*
X152523Y293000*
X152182*
X151841Y293156*
X151727Y293313*
X151727D02*
X151614Y293625D01*
X154227Y295656D02*
X154455Y295813D01*
X154455D02*
X154795Y296281D01*
Y293000*
X149000Y236281D02*
Y233000D01*
Y236281D02*
X150023D01*
X150364Y236125*
X150477Y235969*
X150591Y235656*
Y235344*
X150477Y235031*
X150364Y234875*
X150023Y234719*
X149000*
X149795D02*
X150591Y233000D01*
X151841Y236281D02*
X153091D01*
X152409Y235031*
X152750*
X152977Y234875*
X153091Y234719*
X153205Y234250*
Y233938*
X153205D02*
X153091Y233469D01*
X152864Y233156*
X152523Y233000*
X152182*
X151841Y233156*
X151727Y233313*
X151727D02*
X151614Y233625D01*
X154341Y235500D02*
Y235656D01*
X154455Y235969*
X154568Y236125*
X154795Y236281*
X155250*
X155477Y236125*
X155591Y235969*
X155705Y235656*
Y235344*
X155591Y235031*
X155364Y234563*
X155364D02*
X154227Y233000D01*
X155818*
X149000Y176281D02*
Y173000D01*
Y176281D02*
X150023D01*
X150364Y176125*
X150477Y175969*
X150591Y175656*
Y175344*
X150477Y175031*
X150364Y174875*
X150023Y174719*
X149000*
X149795D02*
X150591Y173000D01*
X151841Y176281D02*
X153091D01*
X152409Y175031*
X152750*
X152977Y174875*
X153091Y174719*
X153205Y174250*
Y173938*
X153205D02*
X153091Y173469D01*
X152864Y173156*
X152523Y173000*
X152182*
X151841Y173156*
X151727Y173313*
X151727D02*
X151614Y173625D01*
X154455Y176281D02*
X155705D01*
X155023Y175031*
X155364*
X155591Y174875*
X155705Y174719*
X155818Y174250*
Y173938*
X155818D02*
X155705Y173469D01*
X155477Y173156*
X155136Y173000*
X154795*
X154455Y173156*
X154341Y173313*
X154341D02*
X154227Y173625D01*
X123000Y265281D02*
Y262000D01*
Y265281D02*
X123795D01*
X124136Y265125*
X124364Y264813*
X124477Y264500*
X124591Y264031*
Y263250*
X124477Y262781*
X124364Y262469*
X124136Y262156*
X123795Y262000*
X123000*
X125841Y265281D02*
X127091D01*
X126409Y264031*
X126750*
X126977Y263875*
X127091Y263719*
X127205Y263250*
Y262938*
X127091Y262469*
X126864Y262156*
X126523Y262000*
X126182*
X125841Y262156*
X125727Y262313*
X125614Y262625*
X123000Y385281D02*
Y382000D01*
Y385281D02*
X123795D01*
X124136Y385125*
X124364Y384813*
X124477Y384500*
X124591Y384031*
Y383250*
X124477Y382781*
X124364Y382469*
X124136Y382156*
X123795Y382000*
X123000*
X126750Y385281D02*
X125614Y383094D01*
X127318*
X126750Y385281D02*
Y382000D01*
X123000Y205281D02*
Y202000D01*
Y205281D02*
X123795D01*
X124136Y205125*
X124364Y204813*
X124477Y204500*
X124591Y204031*
Y203250*
X124477Y202781*
X124364Y202469*
X124136Y202156*
X123795Y202000*
X123000*
X127091Y205281D02*
X125955D01*
X125841Y203875*
X125955Y204031*
X126295Y204188*
X126636*
X126977Y204031*
X127205Y203719*
X127318Y203250*
X127205Y202938*
X127091Y202469*
X126864Y202156*
X126523Y202000*
X126182*
X125841Y202156*
X125727Y202313*
X125614Y202625*
X123000Y145281D02*
Y142000D01*
Y145281D02*
X123795D01*
X124136Y145125*
X124364Y144813*
X124477Y144500*
X124591Y144031*
Y143250*
X124477Y142781*
X124364Y142469*
X124136Y142156*
X123795Y142000*
X123000*
X126977Y144813D02*
X126864Y145125D01*
X126523Y145281*
X126295*
X125955Y145125*
X125727Y144656*
X125614Y143875*
Y143094*
X125727Y142469*
X125955Y142156*
X126295Y142000*
X126409*
X126750Y142156*
X126977Y142469*
X127091Y142938*
Y143094*
X126977Y143563*
X126750Y143875*
X126409Y144031*
X126295*
X125955Y143875*
X125727Y143563*
X125614Y143094*
X123000Y325281D02*
Y322000D01*
Y325281D02*
X123795D01*
X124136Y325125*
X124364Y324813*
X124477Y324500*
X124591Y324031*
Y323250*
X124477Y322781*
X124364Y322469*
X124136Y322156*
X123795Y322000*
X123000*
X127205Y325281D02*
X126068Y322000D01*
X125614Y325281D02*
X127205D01*
X370000Y163281D02*
Y160000D01*
Y163281D02*
X371023D01*
X371364Y163125*
X371477Y162969*
X371591Y162656*
Y162344*
X371477Y162031*
X371364Y161875*
X371023Y161719*
X370000*
X370795D02*
X371591Y160000D01*
X374091Y162188D02*
X373977Y161719D01*
X373750Y161406*
X373409Y161250*
X373295*
X372955Y161406*
X372727Y161719*
X372614Y162188*
X372614D02*
Y162344D01*
X372727Y162813*
X372727D02*
X372955Y163125D01*
X373295Y163281*
X373409*
X373750Y163125*
X373977Y162813*
X373977D02*
X374091Y162188D01*
X374091D02*
Y161406D01*
X373977Y160625*
X373750Y160156*
X373409Y160000*
X373182*
X372841Y160156*
X372727Y160469*
X370000Y158281D02*
Y155000D01*
Y158281D02*
X371023D01*
X371364Y158125*
X371477Y157969*
X371591Y157656*
Y157344*
X371477Y157031*
X371364Y156875*
X371023Y156719*
X370000*
X370795D02*
X371591Y155000D01*
X372614Y157656D02*
X372841Y157813D01*
X372841D02*
X373182Y158281D01*
Y155000*
X375795Y158281D02*
X374659Y155000D01*
X374205Y158281D02*
X375795D01*
X281705Y303500D02*
X281591Y303813D01*
X281591D02*
X281364Y304125D01*
X281136Y304281*
X280682*
X280455Y304125*
X280227Y303813*
X280227D02*
X280114Y303500D01*
X280000Y303031*
Y302250*
X280114Y301781*
X280227Y301469*
X280455Y301156*
X280682Y301000*
X281136*
X281364Y301156*
X281591Y301469*
X281705Y301781*
X282955Y304281D02*
X284205D01*
X283523Y303031*
X283864*
X284091Y302875*
X284205Y302719*
X284318Y302250*
Y301938*
X284318D02*
X284205Y301469D01*
X283977Y301156*
X283636Y301000*
X283295*
X282955Y301156*
X282841Y301313*
X282841D02*
X282727Y301625D01*
X285568Y304281D02*
X286818D01*
X286136Y303031*
X286477*
X286705Y302875*
X286818Y302719*
X286932Y302250*
Y301938*
X286932D02*
X286818Y301469D01*
X286591Y301156*
X286250Y301000*
X285909*
X285568Y301156*
X285455Y301313*
X285455D02*
X285341Y301625D01*
X351705Y370500D02*
X351591Y370813D01*
X351591D02*
X351364Y371125D01*
X351136Y371281*
X350682*
X350455Y371125*
X350227Y370813*
X350227D02*
X350114Y370500D01*
X350000Y370031*
Y369250*
X350114Y368781*
X350227Y368469*
X350455Y368156*
X350682Y368000*
X351136*
X351364Y368156*
X351591Y368469*
X351705Y368781*
X353864Y371281D02*
X352727Y369094D01*
X354432*
X353864Y371281D02*
Y368000D01*
X355682Y371281D02*
X356932D01*
X356250Y370031*
X356591*
X356818Y369875*
X356932Y369719*
X357045Y369250*
Y368938*
X357045D02*
X356932Y368469D01*
X356705Y368156*
X356364Y368000*
X356023*
X355682Y368156*
X355568Y368313*
X355568D02*
X355455Y368625D01*
X350705Y331500D02*
X350591Y331813D01*
X350591D02*
X350364Y332125D01*
X350136Y332281*
X349682*
X349455Y332125*
X349227Y331813*
X349227D02*
X349114Y331500D01*
X349000Y331031*
Y330250*
X349114Y329781*
X349227Y329469*
X349455Y329156*
X349682Y329000*
X350136*
X350364Y329156*
X350591Y329469*
X350705Y329781*
X352864Y332281D02*
X351727Y330094D01*
X353432*
X352864Y332281D02*
Y329000D01*
X355591Y332281D02*
X354455Y330094D01*
X356159*
X355591Y332281D02*
Y329000D01*
X325705Y306500D02*
X325591Y306813D01*
X325364Y307125*
X325136Y307281*
X324682*
X324455Y307125*
X324227Y306813*
X324114Y306500*
X324000Y306031*
Y305250*
X324114Y304781*
X324227Y304469*
X324455Y304156*
X324682Y304000*
X325136*
X325364Y304156*
X325591Y304469*
X325705Y304781*
X327864Y307281D02*
X326727Y305094D01*
X328432*
X327864Y307281D02*
Y304000D01*
X330932Y307281D02*
X329795D01*
X329682Y305875*
X329795Y306031*
X330136Y306188*
X330477*
X330818Y306031*
X331045Y305719*
X331159Y305250*
X331045Y304938*
X330932Y304469*
X330705Y304156*
X330364Y304000*
X330023*
X329682Y304156*
X329568Y304313*
X329455Y304625*
X259705Y354500D02*
X259591Y354812D01*
X259591D02*
X259364Y355125D01*
X259136Y355281*
X258682*
X258455Y355125*
X258227Y354812*
X258227D02*
X258114Y354500D01*
X258000Y354031*
Y353250*
X258114Y352781*
X258227Y352469*
X258455Y352156*
X258682Y352000*
X259136*
X259364Y352156*
X259591Y352469*
X259705Y352781*
X261864Y355281D02*
X260727Y353094D01*
X262432*
X261864Y355281D02*
Y352000D01*
X264818Y354812D02*
X264705Y355125D01*
X264364Y355281*
X264136*
X263795Y355125*
X263568Y354656*
X263455Y353875*
Y353094*
X263568Y352469*
X263795Y352156*
X264136Y352000*
X264250*
X264591Y352156*
X264818Y352469*
X264932Y352937*
X264932D02*
Y353094D01*
X264818Y353562*
X264818D02*
X264591Y353875D01*
X264250Y354031*
X264136*
X263795Y353875*
X263568Y353562*
X263568D02*
X263455Y353094D01*
X318000Y202281D02*
Y199000D01*
Y202281D02*
X319023D01*
X319364Y202125*
X319477Y201969*
X319591Y201656*
Y201344*
X319477Y201031*
X319364Y200875*
X319023Y200719*
X318000*
X318795D02*
X319591Y199000D01*
X320841Y202281D02*
X322091D01*
X321409Y201031*
X321750*
X321977Y200875*
X322091Y200719*
X322205Y200250*
Y199938*
X322205D02*
X322091Y199469D01*
X321864Y199156*
X321523Y199000*
X321182*
X320841Y199156*
X320727Y199313*
X320727D02*
X320614Y199625D01*
X323795Y202281D02*
X323455Y202125D01*
X323341Y201813*
X323341D02*
Y201500D01*
X323455Y201188*
X323455D02*
X323682Y201031D01*
X324136Y200875*
X324477Y200719*
X324705Y200406*
X324818Y200094*
Y199625*
X324705Y199313*
X324705D02*
X324591Y199156D01*
X324250Y199000*
X323795*
X323455Y199156*
X323341Y199313*
X323341D02*
X323227Y199625D01*
Y200094*
X323341Y200406*
X323568Y200719*
X323909Y200875*
X324364Y201031*
X324591Y201188*
X324591D02*
X324705Y201500D01*
Y201813*
X324705D02*
X324591Y202125D01*
X324250Y202281*
X323795*
X274000Y151281D02*
Y148000D01*
Y151281D02*
X274795D01*
X275136Y151125*
X275364Y150813*
X275364D02*
X275477Y150500D01*
X275591Y150031*
Y149250*
X275477Y148781*
X275364Y148469*
X275136Y148156*
X274795Y148000*
X274000*
X277182Y151281D02*
X276841Y151125D01*
X276727Y150813*
X276727D02*
Y150500D01*
X276841Y150188*
X276841D02*
X277068Y150031D01*
X277523Y149875*
X277864Y149719*
X278091Y149406*
X278205Y149094*
Y148625*
X278091Y148313*
X278091D02*
X277977Y148156D01*
X277636Y148000*
X277182*
X276841Y148156*
X276727Y148313*
X276727D02*
X276614Y148625D01*
Y149094*
X276727Y149406*
X276955Y149719*
X277295Y149875*
X277750Y150031*
X277977Y150188*
X277977D02*
X278091Y150500D01*
Y150813*
X278091D02*
X277977Y151125D01*
X277636Y151281*
X277182*
X286500Y403705D02*
X286187Y403591D01*
X285875Y403364*
X285719Y403136*
Y402682*
X285875Y402455*
X286187Y402227*
X286500Y402114*
X286969Y402000*
X287750*
X288219Y402114*
X288531Y402227*
X288844Y402455*
X289000Y402682*
Y403136*
X288844Y403364*
X288531Y403591*
X288219Y403705*
X285719Y405864D02*
X287906Y404727D01*
Y406432*
X285719Y405864D02*
X289000D01*
X285719Y409045D02*
X289000Y407909D01*
X285719Y407455D02*
Y409045D01*
X329000Y255281D02*
Y252000D01*
Y255281D02*
X330023D01*
X330364Y255125*
X330477Y254969*
X330591Y254656*
Y254344*
X330477Y254031*
X330364Y253875*
X330023Y253719*
X329000*
X329795D02*
X330591Y252000D01*
X332750Y255281D02*
X331614Y253094D01*
X333318*
X332750Y255281D02*
Y252000D01*
X334341Y254656D02*
X334568Y254813D01*
X334568D02*
X334909Y255281D01*
Y252000*
X314719Y264000D02*
X318000D01*
X314719D02*
Y265023D01*
X314875Y265364*
X315031Y265477*
X315344Y265591*
X315656*
X315969Y265477*
X316125Y265364*
X316281Y265023*
Y264000*
Y264795D02*
X318000Y265591D01*
X314719Y267750D02*
X316906Y266614D01*
Y268318*
X314719Y267750D02*
X318000D01*
X315500Y269455D02*
X315344D01*
X315031Y269568*
X314875Y269682*
X314719Y269909*
Y270364*
X314875Y270591*
X315031Y270705*
X315344Y270818*
X315656*
X315969Y270705*
X316437Y270477*
X316437D02*
X318000Y269341D01*
Y270932*
X309719Y264000D02*
X313000D01*
X309719D02*
Y265023D01*
X309875Y265364*
X310031Y265477*
X310344Y265591*
X310656*
X310969Y265477*
X311125Y265364*
X311281Y265023*
Y264000*
Y264795D02*
X313000Y265591D01*
X309719Y267750D02*
X311906Y266614D01*
Y268318*
X309719Y267750D02*
X313000D01*
X309719Y269568D02*
Y270818D01*
X310969Y270136*
Y270477*
X311125Y270705*
X311281Y270818*
X311750Y270932*
X312062*
X312062D02*
X312531Y270818D01*
X312844Y270591*
X313000Y270250*
Y269909*
X312844Y269568*
X312687Y269455*
X312687D02*
X312375Y269341D01*
X369705Y382500D02*
X369591Y382813D01*
X369591D02*
X369364Y383125D01*
X369136Y383281*
X368682*
X368455Y383125*
X368227Y382813*
X368227D02*
X368114Y382500D01*
X368000Y382031*
Y381250*
X368114Y380781*
X368227Y380469*
X368455Y380156*
X368682Y380000*
X369136*
X369364Y380156*
X369591Y380469*
X369705Y380781*
X371864Y383281D02*
X370727Y381094D01*
X372432*
X371864Y383281D02*
Y380000D01*
X374932Y382188D02*
X374818Y381719D01*
X374591Y381406*
X374250Y381250*
X374136*
X373795Y381406*
X373568Y381719*
X373455Y382188*
X373455D02*
Y382344D01*
X373568Y382813*
X373568D02*
X373795Y383125D01*
X374136Y383281*
X374250*
X374591Y383125*
X374818Y382813*
X374818D02*
X374932Y382188D01*
X374932D02*
Y381406D01*
X374818Y380625*
X374591Y380156*
X374250Y380000*
X374023*
X373682Y380156*
X373568Y380469*
X403000Y365281D02*
X403909Y363719D01*
Y362000*
X404818Y365281D02*
X403909Y363719D01*
X405841Y364656D02*
X406068Y364813D01*
X406068D02*
X406409Y365281D01*
Y362000*
X388705Y382500D02*
X388591Y382812D01*
X388591D02*
X388364Y383125D01*
X388136Y383281*
X387682*
X387455Y383125*
X387227Y382812*
X387227D02*
X387114Y382500D01*
X387000Y382031*
Y381250*
X387114Y380781*
X387227Y380469*
X387455Y380156*
X387682Y380000*
X388136*
X388364Y380156*
X388591Y380469*
X388705Y380781*
X391205Y383281D02*
X390068D01*
X389955Y381875*
X390068Y382031*
X390409Y382187*
X390409D02*
X390750D01*
X390750D02*
X391091Y382031D01*
X391318Y381719*
X391432Y381250*
X391318Y380937*
X391318D02*
X391205Y380469D01*
X390977Y380156*
X390636Y380000*
X390295*
X389955Y380156*
X389841Y380312*
X389841D02*
X389727Y380625D01*
X393136Y383281D02*
X392795Y383125D01*
X392568Y382656*
X392455Y381875*
Y381406*
X392568Y380625*
X392795Y380156*
X393136Y380000*
X393364*
X393705Y380156*
X393932Y380625*
X394045Y381406*
Y381875*
X393932Y382656*
X393705Y383125*
X393364Y383281*
X393136*
X349000Y336281D02*
Y333000D01*
Y336281D02*
X350023D01*
X350364Y336125*
X350477Y335969*
X350591Y335656*
Y335344*
X350477Y335031*
X350364Y334875*
X350023Y334719*
X349000*
X349795D02*
X350591Y333000D01*
X351614Y335656D02*
X351841Y335813D01*
X351841D02*
X352182Y336281D01*
Y333000*
X353205Y335656D02*
X353432Y335813D01*
X353432D02*
X353773Y336281D01*
Y333000*
X356159Y335813D02*
X356045Y336125D01*
X355705Y336281*
X355477*
X355136Y336125*
X354909Y335656*
X354795Y334875*
Y334094*
X354909Y333469*
X355136Y333156*
X355477Y333000*
X355591*
X355932Y333156*
X356159Y333469*
X356273Y333938*
X356273D02*
Y334094D01*
X356159Y334563*
X356159D02*
X355932Y334875D01*
X355591Y335031*
X355477*
X355136Y334875*
X354909Y334563*
X354909D02*
X354795Y334094D01*
X369000Y342281D02*
Y339000D01*
Y342281D02*
X369795D01*
X370136Y342125*
X370364Y341813*
X370477Y341500*
X370591Y341031*
Y340250*
X370477Y339781*
X370364Y339469*
X370136Y339156*
X369795Y339000*
X369000*
X371614Y341656D02*
X371841Y341813D01*
X372182Y342281*
Y339000*
X374682Y341188D02*
X374568Y340719D01*
X374341Y340406*
X374000Y340250*
X373886*
X373545Y340406*
X373318Y340719*
X373205Y341188*
Y341344*
X373318Y341813*
X373545Y342125*
X373886Y342281*
X374000*
X374341Y342125*
X374568Y341813*
X374682Y341188*
Y340406*
X374568Y339625*
X374341Y339156*
X374000Y339000*
X373773*
X373432Y339156*
X373318Y339469*
X369136Y456281D02*
Y453781D01*
X369023Y453313*
X369023D02*
X368909Y453156D01*
X368682Y453000*
X368455*
X368227Y453156*
X368114Y453313*
X368114D02*
X368000Y453781D01*
Y454094*
X370159Y455656D02*
X370386Y455813D01*
X370386D02*
X370727Y456281D01*
Y453000*
X372886Y456281D02*
X371750Y454094D01*
X373455*
X372886Y456281D02*
Y453000D01*
X353000Y229281D02*
Y226000D01*
Y229281D02*
X354023D01*
X354364Y229125*
X354477Y228969*
X354591Y228656*
Y228344*
X354477Y228031*
X354364Y227875*
X354023Y227719*
X353000*
X353795D02*
X354591Y226000D01*
X355841Y229281D02*
X357091D01*
X356409Y228031*
X356750*
X356977Y227875*
X357091Y227719*
X357205Y227250*
Y226938*
X357205D02*
X357091Y226469D01*
X356864Y226156*
X356523Y226000*
X356182*
X355841Y226156*
X355727Y226313*
X355727D02*
X355614Y226625D01*
X359364Y229281D02*
X358227Y227094D01*
X359932*
X359364Y229281D02*
Y226000D01*
X363000Y239281D02*
Y236000D01*
Y239281D02*
X364023D01*
X364364Y239125*
X364477Y238969*
X364591Y238656*
Y238344*
X364477Y238031*
X364364Y237875*
X364023Y237719*
X363000*
X363795D02*
X364591Y236000D01*
X365841Y239281D02*
X367091D01*
X366409Y238031*
X366750*
X366977Y237875*
X367091Y237719*
X367205Y237250*
Y236938*
X367205D02*
X367091Y236469D01*
X366864Y236156*
X366523Y236000*
X366182*
X365841Y236156*
X365727Y236313*
X365727D02*
X365614Y236625D01*
X369705Y239281D02*
X368568D01*
X368455Y237875*
X368568Y238031*
X368909Y238188*
X368909D02*
X369250D01*
X369250D02*
X369591Y238031D01*
X369818Y237719*
X369932Y237250*
X369818Y236938*
X369818D02*
X369705Y236469D01*
X369477Y236156*
X369136Y236000*
X368795*
X368455Y236156*
X368341Y236313*
X368341D02*
X368227Y236625D01*
X241000Y177281D02*
Y174000D01*
Y177281D02*
X242023D01*
X242364Y177125*
X242477Y176969*
X242591Y176656*
Y176344*
X242477Y176031*
X242364Y175875*
X242023Y175719*
X241000*
X241795D02*
X242591Y174000D01*
X243841Y177281D02*
X245091D01*
X244409Y176031*
X244750*
X244977Y175875*
X245091Y175719*
X245205Y175250*
Y174938*
X245205D02*
X245091Y174469D01*
X244864Y174156*
X244523Y174000*
X244182*
X243841Y174156*
X243727Y174313*
X243727D02*
X243614Y174625D01*
X247705Y176188D02*
X247591Y175719D01*
X247364Y175406*
X247023Y175250*
X246909*
X246568Y175406*
X246341Y175719*
X246227Y176188*
X246227D02*
Y176344D01*
X246341Y176813*
X246341D02*
X246568Y177125D01*
X246909Y177281*
X247023*
X247364Y177125*
X247591Y176813*
X247591D02*
X247705Y176188D01*
X247705D02*
Y175406D01*
X247591Y174625*
X247364Y174156*
X247023Y174000*
X246795*
X246455Y174156*
X246341Y174469*
X231000Y151281D02*
Y148000D01*
Y151281D02*
X231795D01*
X232136Y151125*
X232364Y150813*
X232364D02*
X232477Y150500D01*
X232591Y150031*
Y149250*
X232477Y148781*
X232364Y148469*
X232136Y148156*
X231795Y148000*
X231000*
X233727Y150500D02*
Y150656D01*
X233841Y150969*
X233955Y151125*
X234182Y151281*
X234636*
X234864Y151125*
X234977Y150969*
X235091Y150656*
Y150344*
X234977Y150031*
X234750Y149563*
X234750D02*
X233614Y148000D01*
X235205*
X237591Y150813D02*
X237477Y151125D01*
X237136Y151281*
X236909*
X236568Y151125*
X236341Y150656*
X236227Y149875*
Y149094*
X236341Y148469*
X236568Y148156*
X236909Y148000*
X237023*
X237364Y148156*
X237591Y148469*
X237705Y148938*
X237705D02*
Y149094D01*
X237591Y149563*
X237591D02*
X237364Y149875D01*
X237023Y150031*
X236909*
X236568Y149875*
X236341Y149563*
X236341D02*
X236227Y149094D01*
X261000Y177281D02*
Y174000D01*
Y177281D02*
X262023D01*
X262364Y177125*
X262477Y176969*
X262591Y176656*
Y176344*
X262477Y176031*
X262364Y175875*
X262023Y175719*
X261000*
X261795D02*
X262591Y174000D01*
X264750Y177281D02*
X263614Y175094D01*
X265318*
X264750Y177281D02*
Y174000D01*
X267023Y177281D02*
X266682Y177125D01*
X266455Y176656*
X266341Y175875*
Y175406*
X266455Y174625*
X266682Y174156*
X267023Y174000*
X267250*
X267591Y174156*
X267818Y174625*
X267932Y175406*
Y175875*
X267818Y176656*
X267591Y177125*
X267250Y177281*
X267023*
X389591Y398813D02*
X389364Y399125D01*
X389023Y399281*
X388568*
X388227Y399125*
X388000Y398813*
X388000D02*
Y398500D01*
X388114Y398188*
X388114D02*
X388227Y398031D01*
X388455Y397875*
X389136Y397563*
X389136D02*
X389364Y397406D01*
X389477Y397250*
X389591Y396938*
X389591D02*
Y396469D01*
X389364Y396156*
X389023Y396000*
X388568*
X388227Y396156*
X388000Y396469*
X390614Y399281D02*
X391182Y396000D01*
X391750Y399281D02*
X391182Y396000D01*
X391750Y399281D02*
X392318Y396000D01*
X392886Y399281D02*
X392318Y396000D01*
X393909Y398656D02*
X394136Y398813D01*
X394136D02*
X394477Y399281D01*
Y396000*
X371719Y236000D02*
X375000D01*
X371719D02*
Y237023D01*
X371875Y237364*
X372031Y237477*
X372344Y237591*
X372656*
X372969Y237477*
X373125Y237364*
X373281Y237023*
Y236000*
Y236795D02*
X375000Y237591D01*
X371719Y238841D02*
Y240091D01*
X372969Y239409*
Y239750*
X373125Y239977*
X373281Y240091*
X373750Y240205*
X374062*
X374531Y240091*
X374844Y239864*
X375000Y239523*
Y239182*
X374844Y238841*
X374687Y238727*
X374375Y238614*
X372187Y242591D02*
X371875Y242477D01*
X371719Y242136*
Y241909*
X371875Y241568*
X372344Y241341*
X373125Y241227*
X373906*
X374531Y241341*
X374844Y241568*
X375000Y241909*
Y242023*
X374844Y242364*
X374531Y242591*
X374062Y242705*
X373906*
X373437Y242591*
X373125Y242364*
X372969Y242023*
Y241909*
X373125Y241568*
X373437Y241341*
X373906Y241227*
X379000Y239281D02*
Y236000D01*
Y239281D02*
X380023D01*
X380364Y239125*
X380477Y238969*
X380591Y238656*
Y238344*
X380477Y238031*
X380364Y237875*
X380023Y237719*
X379000*
X379795D02*
X380591Y236000D01*
X381841Y239281D02*
X383091D01*
X382409Y238031*
X382750*
X382977Y237875*
X383091Y237719*
X383205Y237250*
Y236938*
X383205D02*
X383091Y236469D01*
X382864Y236156*
X382523Y236000*
X382182*
X381841Y236156*
X381727Y236313*
X381727D02*
X381614Y236625D01*
X385818Y239281D02*
X384682Y236000D01*
X384227Y239281D02*
X385818D01*
X251000Y151281D02*
Y148000D01*
Y151281D02*
X251795D01*
X252136Y151125*
X252364Y150813*
X252364D02*
X252477Y150500D01*
X252591Y150031*
Y149250*
X252477Y148781*
X252364Y148469*
X252136Y148156*
X251795Y148000*
X251000*
X253727Y150500D02*
Y150656D01*
X253841Y150969*
X253955Y151125*
X254182Y151281*
X254636*
X254864Y151125*
X254977Y150969*
X255091Y150656*
Y150344*
X254977Y150031*
X254750Y149563*
X254750D02*
X253614Y148000D01*
X255205*
X257818Y151281D02*
X256682Y148000D01*
X256227Y151281D02*
X257818D01*
X436000Y211281D02*
Y208000D01*
Y211281D02*
X437023D01*
X437364Y211125*
X437477Y210969*
X437591Y210656*
Y210344*
X437477Y210031*
X437364Y209875*
X437023Y209719*
X436000*
X436795D02*
X437591Y208000D01*
X440091Y210188D02*
X439977Y209719D01*
X439750Y209406*
X439409Y209250*
X439295*
X438955Y209406*
X438727Y209719*
X438614Y210188*
Y210344*
X438727Y210813*
X438955Y211125*
X439295Y211281*
X439409*
X439750Y211125*
X439977Y210813*
X440091Y210188*
Y209406*
X439977Y208625*
X439750Y208156*
X439409Y208000*
X439182*
X438841Y208156*
X438727Y208469*
X441682Y211281D02*
X441341Y211125D01*
X441227Y210813*
Y210500*
X441341Y210188*
X441568Y210031*
X442023Y209875*
X442364Y209719*
X442591Y209406*
X442705Y209094*
Y208625*
X442591Y208313*
X442477Y208156*
X442136Y208000*
X441682*
X441341Y208156*
X441227Y208313*
X441114Y208625*
Y209094*
X441227Y209406*
X441455Y209719*
X441795Y209875*
X442250Y210031*
X442477Y210188*
X442591Y210500*
Y210813*
X442477Y211125*
X442136Y211281*
X441682*
X331000Y239281D02*
Y236000D01*
Y239281D02*
X332023D01*
X332364Y239125*
X332477Y238969*
X332591Y238656*
Y238344*
X332477Y238031*
X332364Y237875*
X332023Y237719*
X331000*
X331795D02*
X332591Y236000D01*
X333614Y238656D02*
X333841Y238812D01*
X333841D02*
X334182Y239281D01*
Y236000*
X335886Y239281D02*
X335545Y239125D01*
X335318Y238656*
X335205Y237875*
Y237406*
X335318Y236625*
X335545Y236156*
X335886Y236000*
X336114*
X336455Y236156*
X336682Y236625*
X336795Y237406*
Y237875*
X336682Y238656*
X336455Y239125*
X336114Y239281*
X335886*
X338500D02*
X338159Y239125D01*
X337932Y238656*
X337818Y237875*
Y237406*
X337932Y236625*
X338159Y236156*
X338500Y236000*
X338727*
X339068Y236156*
X339295Y236625*
X339409Y237406*
Y237875*
X339295Y238656*
X339068Y239125*
X338727Y239281*
X338500*
X342000D02*
Y236000D01*
Y239281D02*
X343023D01*
X343364Y239125*
X343477Y238969*
X343591Y238656*
Y238344*
X343477Y238031*
X343364Y237875*
X343023Y237719*
X342000*
X342795D02*
X343591Y236000D01*
X344614Y238656D02*
X344841Y238812D01*
X344841D02*
X345182Y239281D01*
Y236000*
X346886Y239281D02*
X346545Y239125D01*
X346318Y238656*
X346205Y237875*
Y237406*
X346318Y236625*
X346545Y236156*
X346886Y236000*
X347114*
X347455Y236156*
X347682Y236625*
X347795Y237406*
Y237875*
X347682Y238656*
X347455Y239125*
X347114Y239281*
X346886*
X348932Y238500D02*
Y238656D01*
X349045Y238969*
X349159Y239125*
X349386Y239281*
X349841*
X350068Y239125*
X350182Y238969*
X350295Y238656*
Y238344*
X350182Y238031*
X349955Y237562*
X349955D02*
X348818Y236000D01*
X350409*
X309000Y391281D02*
Y388938D01*
X309000D02*
X309114Y388469D01*
X309341Y388156*
X309682Y388000*
X309909*
X310250Y388156*
X310477Y388469*
X310591Y388938*
X310591D02*
Y391281D01*
X311841D02*
X313091D01*
X312409Y390031*
X312750*
X312977Y389875*
X313091Y389719*
X313205Y389250*
Y388938*
X313205D02*
X313091Y388469D01*
X312864Y388156*
X312523Y388000*
X312182*
X311841Y388156*
X311727Y388313*
X311727D02*
X311614Y388625D01*
X314455Y391281D02*
X315705D01*
X315023Y390031*
X315364*
X315591Y389875*
X315705Y389719*
X315818Y389250*
Y388938*
X315818D02*
X315705Y388469D01*
X315477Y388156*
X315136Y388000*
X314795*
X314455Y388156*
X314341Y388313*
X314341D02*
X314227Y388625D01*
X238000Y411281D02*
Y408938D01*
X238000D02*
X238114Y408469D01*
X238341Y408156*
X238682Y408000*
X238909*
X239250Y408156*
X239477Y408469*
X239591Y408938*
X239591D02*
Y411281D01*
X240841D02*
X242091D01*
X241409Y410031*
X241750*
X241977Y409875*
X242091Y409719*
X242205Y409250*
Y408938*
X242205D02*
X242091Y408469D01*
X241864Y408156*
X241523Y408000*
X241182*
X240841Y408156*
X240727Y408313*
X240727D02*
X240614Y408625D01*
X244705Y411281D02*
X243568D01*
X243455Y409875*
X243568Y410031*
X243909Y410188*
X243909D02*
X244250D01*
X244250D02*
X244591Y410031D01*
X244818Y409719*
X244932Y409250*
X244818Y408938*
X244818D02*
X244705Y408469D01*
X244477Y408156*
X244136Y408000*
X243795*
X243455Y408156*
X243341Y408313*
X243341D02*
X243227Y408625D01*
X308136Y413281D02*
Y410781D01*
X308023Y410313*
X307909Y410156*
X307682Y410000*
X307455*
X307227Y410156*
X307114Y410313*
X307000Y410781*
Y411094*
X309273Y412500D02*
Y412656D01*
X309386Y412969*
X309500Y413125*
X309727Y413281*
X310182*
X310409Y413125*
X310523Y412969*
X310636Y412656*
Y412344*
X310523Y412031*
X310295Y411563*
X309159Y410000*
X310750*
X312909Y413281D02*
X311773Y411094D01*
X313477*
X312909Y413281D02*
Y410000D01*
X308136Y438281D02*
Y435781D01*
X308023Y435313*
X308023D02*
X307909Y435156D01*
X307682Y435000*
X307455*
X307227Y435156*
X307114Y435313*
X307114D02*
X307000Y435781D01*
Y436094*
X309273Y437500D02*
Y437656D01*
X309386Y437969*
X309500Y438125*
X309727Y438281*
X310182*
X310409Y438125*
X310523Y437969*
X310636Y437656*
Y437344*
X310523Y437031*
X310295Y436563*
X310295D02*
X309159Y435000D01*
X310750*
X313250Y438281D02*
X312114D01*
X312000Y436875*
X312114Y437031*
X312455Y437188*
X312455D02*
X312795D01*
X312795D02*
X313136Y437031D01*
X313364Y436719*
X313477Y436250*
X313364Y435938*
X313364D02*
X313250Y435469D01*
X313023Y435156*
X312682Y435000*
X312341*
X312000Y435156*
X311886Y435313*
X311886D02*
X311773Y435625D01*
X227705Y431500D02*
X227591Y431812D01*
X227591D02*
X227364Y432125D01*
X227136Y432281*
X226682*
X226455Y432125*
X226227Y431812*
X226227D02*
X226114Y431500D01*
X226000Y431031*
Y430250*
X226114Y429781*
X226227Y429469*
X226455Y429156*
X226682Y429000*
X227136*
X227364Y429156*
X227591Y429469*
X227705Y429781*
X228727Y431656D02*
X228955Y431812D01*
X228955D02*
X229295Y432281D01*
Y429000*
X230318Y431656D02*
X230545Y431812D01*
X230545D02*
X230886Y432281D01*
Y429000*
X232136Y432281D02*
X233386D01*
X232705Y431031*
X233045*
X233273Y430875*
X233386Y430719*
X233500Y430250*
Y429937*
X233500D02*
X233386Y429469D01*
X233159Y429156*
X232818Y429000*
X232477*
X232136Y429156*
X232023Y429312*
X232023D02*
X231909Y429625D01*
X415136Y352281D02*
Y349781D01*
X415023Y349312*
X415023D02*
X414909Y349156D01*
X414682Y349000*
X414455*
X414227Y349156*
X414114Y349312*
X414114D02*
X414000Y349781D01*
Y350094*
X416273Y351500D02*
Y351656D01*
X416386Y351969*
X416500Y352125*
X416727Y352281*
X417182*
X417409Y352125*
X417523Y351969*
X417636Y351656*
Y351344*
X417523Y351031*
X417295Y350562*
X417295D02*
X416159Y349000D01*
X417750*
X419341Y352281D02*
X419000Y352125D01*
X418886Y351812*
X418886D02*
Y351500D01*
X419000Y351187*
X419000D02*
X419227Y351031D01*
X419682Y350875*
X420023Y350719*
X420250Y350406*
X420364Y350094*
Y349625*
X420250Y349312*
X420250D02*
X420136Y349156D01*
X419795Y349000*
X419341*
X419000Y349156*
X418886Y349312*
X418886D02*
X418773Y349625D01*
Y350094*
X418886Y350406*
X419114Y350719*
X419455Y350875*
X419909Y351031*
X420136Y351187*
X420136D02*
X420250Y351500D01*
Y351812*
X420250D02*
X420136Y352125D01*
X419795Y352281*
X419341*
X486000Y174281D02*
Y171000D01*
Y174281D02*
X486795D01*
X487136Y174125*
X487364Y173813*
X487364D02*
X487477Y173500D01*
X487591Y173031*
Y172250*
X487477Y171781*
X487364Y171469*
X487136Y171156*
X486795Y171000*
X486000*
X488727Y173500D02*
Y173656D01*
X488841Y173969*
X488955Y174125*
X489182Y174281*
X489636*
X489864Y174125*
X489977Y173969*
X490091Y173656*
Y173344*
X489977Y173031*
X489750Y172563*
X489750D02*
X488614Y171000D01*
X490205*
X491795Y174281D02*
X491455Y174125D01*
X491341Y173813*
X491341D02*
Y173500D01*
X491455Y173188*
X491455D02*
X491682Y173031D01*
X492136Y172875*
X492477Y172719*
X492705Y172406*
X492818Y172094*
Y171625*
X492705Y171313*
X492705D02*
X492591Y171156D01*
X492250Y171000*
X491795*
X491455Y171156*
X491341Y171313*
X491341D02*
X491227Y171625D01*
Y172094*
X491341Y172406*
X491568Y172719*
X491909Y172875*
X492364Y173031*
X492591Y173188*
X492591D02*
X492705Y173500D01*
Y173813*
X492705D02*
X492591Y174125D01*
X492250Y174281*
X491795*
X457705Y136500D02*
X457591Y136813D01*
X457591D02*
X457364Y137125D01*
X457136Y137281*
X456682*
X456455Y137125*
X456227Y136813*
X456227D02*
X456114Y136500D01*
X456000Y136031*
Y135250*
X456114Y134781*
X456227Y134469*
X456455Y134156*
X456682Y134000*
X457136*
X457364Y134156*
X457591Y134469*
X457705Y134781*
X459864Y137281D02*
X458727Y135094D01*
X460432*
X459864Y137281D02*
Y134000D01*
X461455Y136656D02*
X461682Y136813D01*
X461682D02*
X462023Y137281D01*
Y134000*
X360000Y292281D02*
Y289938D01*
X360000D02*
X360114Y289469D01*
X360341Y289156*
X360682Y289000*
X360909*
X361250Y289156*
X361477Y289469*
X361591Y289938*
X361591D02*
Y292281D01*
X362614Y291656D02*
X362841Y291813D01*
X362841D02*
X363182Y292281D01*
Y289000*
X364432Y292281D02*
X365682D01*
X365000Y291031*
X365341*
X365568Y290875*
X365682Y290719*
X365795Y290250*
Y289938*
X365795D02*
X365682Y289469D01*
X365455Y289156*
X365114Y289000*
X364773*
X364432Y289156*
X364318Y289313*
X364318D02*
X364205Y289625D01*
X338705Y193500D02*
X338591Y193813D01*
X338591D02*
X338364Y194125D01*
X338136Y194281*
X337682*
X337455Y194125*
X337227Y193813*
X337227D02*
X337114Y193500D01*
X337000Y193031*
Y192250*
X337114Y191781*
X337227Y191469*
X337455Y191156*
X337682Y191000*
X338136*
X338364Y191156*
X338591Y191469*
X338705Y191781*
X339727Y193656D02*
X339955Y193813D01*
X339955D02*
X340295Y194281D01*
Y191000*
X342000Y194281D02*
X341659Y194125D01*
X341432Y193656*
X341318Y192875*
Y192406*
X341432Y191625*
X341659Y191156*
X342000Y191000*
X342227*
X342568Y191156*
X342795Y191625*
X342909Y192406*
Y192875*
X342795Y193656*
X342568Y194125*
X342227Y194281*
X342000*
X344045Y193500D02*
Y193656D01*
X344159Y193969*
X344273Y194125*
X344500Y194281*
X344955*
X345182Y194125*
X345295Y193969*
X345409Y193656*
Y193344*
X345295Y193031*
X345068Y192563*
X345068D02*
X343932Y191000D01*
X345523*
X275936Y291181D02*
Y288681D01*
X275823Y288213*
X275823D02*
X275709Y288056D01*
X275482Y287900*
X275255*
X275027Y288056*
X274914Y288213*
X274914D02*
X274800Y288681D01*
Y288994*
X277073Y290400D02*
Y290556D01*
X277186Y290869*
X277300Y291025*
X277527Y291181*
X277982*
X278209Y291025*
X278323Y290869*
X278436Y290556*
Y290244*
X278323Y289931*
X278095Y289463*
X278095D02*
X276959Y287900D01*
X278550*
X281164Y291181D02*
X280027Y287900D01*
X279573Y291181D02*
X281164D01*
X504000Y416281D02*
Y413000D01*
Y416281D02*
X504795D01*
X505136Y416125*
X505364Y415813*
X505364D02*
X505477Y415500D01*
X505591Y415031*
Y414250*
X505477Y413781*
X505364Y413469*
X505136Y413156*
X504795Y413000*
X504000*
X507750Y416281D02*
X506614Y414094D01*
X508318*
X507750Y416281D02*
Y413000D01*
X509455Y415500D02*
Y415656D01*
X509568Y415969*
X509682Y416125*
X509909Y416281*
X510364*
X510591Y416125*
X510705Y415969*
X510818Y415656*
Y415344*
X510705Y415031*
X510477Y414563*
X510477D02*
X509341Y413000D01*
X510932*
X421000Y443281D02*
Y440000D01*
Y443281D02*
X421795D01*
X422136Y443125*
X422364Y442812*
X422364D02*
X422477Y442500D01*
X422591Y442031*
Y441250*
X422477Y440781*
X422364Y440469*
X422136Y440156*
X421795Y440000*
X421000*
X424750Y443281D02*
X423614Y441094D01*
X425318*
X424750Y443281D02*
Y440000D01*
X426568Y443281D02*
X427818D01*
X427136Y442031*
X427477*
X427705Y441875*
X427818Y441719*
X427932Y441250*
Y440937*
X427932D02*
X427818Y440469D01*
X427591Y440156*
X427250Y440000*
X426909*
X426568Y440156*
X426455Y440312*
X426455D02*
X426341Y440625D01*
X439000Y443281D02*
Y440000D01*
Y443281D02*
X439795D01*
X440136Y443125*
X440364Y442813*
X440364D02*
X440477Y442500D01*
X440591Y442031*
Y441250*
X440477Y440781*
X440364Y440469*
X440136Y440156*
X439795Y440000*
X439000*
X442750Y443281D02*
X441614Y441094D01*
X443318*
X442750Y443281D02*
Y440000D01*
X445477Y443281D02*
X444341Y441094D01*
X446045*
X445477Y443281D02*
Y440000D01*
X476705Y445500D02*
X476591Y445812D01*
X476591D02*
X476364Y446125D01*
X476136Y446281*
X475682*
X475455Y446125*
X475227Y445812*
X475227D02*
X475114Y445500D01*
X475000Y445031*
Y444250*
X475114Y443781*
X475227Y443469*
X475455Y443156*
X475682Y443000*
X476136*
X476364Y443156*
X476591Y443469*
X476705Y443781*
X478864Y446281D02*
X477727Y444094D01*
X479432*
X478864Y446281D02*
Y443000D01*
X480568Y445500D02*
Y445656D01*
X480682Y445969*
X480795Y446125*
X481023Y446281*
X481477*
X481705Y446125*
X481818Y445969*
X481932Y445656*
Y445344*
X481818Y445031*
X481591Y444562*
X481591D02*
X480455Y443000D01*
X482045*
X445705Y412500D02*
X445591Y412813D01*
X445591D02*
X445364Y413125D01*
X445136Y413281*
X444682*
X444455Y413125*
X444227Y412813*
X444227D02*
X444114Y412500D01*
X444000Y412031*
Y411250*
X444114Y410781*
X444227Y410469*
X444455Y410156*
X444682Y410000*
X445136*
X445364Y410156*
X445591Y410469*
X445705Y410781*
X447864Y413281D02*
X446727Y411094D01*
X448432*
X447864Y413281D02*
Y410000D01*
X450023Y413281D02*
X449682Y413125D01*
X449568Y412813*
X449568D02*
Y412500D01*
X449682Y412188*
X449682D02*
X449909Y412031D01*
X450364Y411875*
X450705Y411719*
X450932Y411406*
X451045Y411094*
Y410625*
X450932Y410313*
X450932D02*
X450818Y410156D01*
X450477Y410000*
X450023*
X449682Y410156*
X449568Y410313*
X449568D02*
X449455Y410625D01*
Y411094*
X449568Y411406*
X449795Y411719*
X450136Y411875*
X450591Y412031*
X450818Y412188*
X450818D02*
X450932Y412500D01*
Y412813*
X450932D02*
X450818Y413125D01*
X450477Y413281*
X450023*
X445705Y408500D02*
X445591Y408813D01*
X445591D02*
X445364Y409125D01*
X445136Y409281*
X444682*
X444455Y409125*
X444227Y408813*
X444227D02*
X444114Y408500D01*
X444000Y408031*
Y407250*
X444114Y406781*
X444227Y406469*
X444455Y406156*
X444682Y406000*
X445136*
X445364Y406156*
X445591Y406469*
X445705Y406781*
X448205Y409281D02*
X447068D01*
X446955Y407875*
X447068Y408031*
X447409Y408188*
X447409D02*
X447750D01*
X447750D02*
X448091Y408031D01*
X448318Y407719*
X448432Y407250*
X448318Y406938*
X448318D02*
X448205Y406469D01*
X447977Y406156*
X447636Y406000*
X447295*
X446955Y406156*
X446841Y406313*
X446841D02*
X446727Y406625D01*
X449568Y408500D02*
Y408656D01*
X449682Y408969*
X449795Y409125*
X450023Y409281*
X450477*
X450705Y409125*
X450818Y408969*
X450932Y408656*
Y408344*
X450818Y408031*
X450591Y407563*
X450591D02*
X449455Y406000D01*
X451045*
X474000Y437281D02*
Y434937D01*
X474000D02*
X474114Y434469D01*
X474341Y434156*
X474682Y434000*
X474909*
X475250Y434156*
X475477Y434469*
X475591Y434937*
X475591D02*
Y437281D01*
X476614Y436656D02*
X476841Y436812D01*
X476841D02*
X477182Y437281D01*
Y434000*
X479341Y437281D02*
X478205Y435094D01*
X479909*
X479341Y437281D02*
Y434000D01*
X496000Y433281D02*
Y430000D01*
Y433281D02*
X497023D01*
X497364Y433125*
X497477Y432969*
X497591Y432656*
Y432344*
X497477Y432031*
X497364Y431875*
X497023Y431719*
X496000*
X496795D02*
X497591Y430000D01*
X498727Y432500D02*
Y432656D01*
X498841Y432969*
X498955Y433125*
X499182Y433281*
X499636*
X499864Y433125*
X499977Y432969*
X500091Y432656*
Y432344*
X499977Y432031*
X499750Y431562*
X499750D02*
X498614Y430000D01*
X500205*
X501455Y433281D02*
X502705D01*
X502023Y432031*
X502364*
X502591Y431875*
X502705Y431719*
X502818Y431250*
Y430937*
X502818D02*
X502705Y430469D01*
X502477Y430156*
X502136Y430000*
X501795*
X501455Y430156*
X501341Y430312*
X501341D02*
X501227Y430625D01*
X512000Y423281D02*
Y420000D01*
Y423281D02*
X513023D01*
X513364Y423125*
X513477Y422969*
X513591Y422656*
Y422344*
X513477Y422031*
X513364Y421875*
X513023Y421719*
X512000*
X512795D02*
X513591Y420000D01*
X514727Y422500D02*
Y422656D01*
X514841Y422969*
X514955Y423125*
X515182Y423281*
X515636*
X515864Y423125*
X515977Y422969*
X516091Y422656*
Y422344*
X515977Y422031*
X515750Y421563*
X515750D02*
X514614Y420000D01*
X516205*
X518364Y423281D02*
X517227Y421094D01*
X518932*
X518364Y423281D02*
Y420000D01*
X444000Y417281D02*
Y414000D01*
Y417281D02*
X445023D01*
X445364Y417125*
X445477Y416969*
X445591Y416656*
Y416344*
X445477Y416031*
X445364Y415875*
X445023Y415719*
X444000*
X444795D02*
X445591Y414000D01*
X446727Y416500D02*
Y416656D01*
X446841Y416969*
X446955Y417125*
X447182Y417281*
X447636*
X447864Y417125*
X447977Y416969*
X448091Y416656*
Y416344*
X447977Y416031*
X447750Y415563*
X447750D02*
X446614Y414000D01*
X448205*
X450705Y417281D02*
X449568D01*
X449455Y415875*
X449568Y416031*
X449909Y416188*
X449909D02*
X450250D01*
X450250D02*
X450591Y416031D01*
X450818Y415719*
X450932Y415250*
X450818Y414938*
X450818D02*
X450705Y414469D01*
X450477Y414156*
X450136Y414000*
X449795*
X449455Y414156*
X449341Y414313*
X449341D02*
X449227Y414625D01*
X452000Y437281D02*
Y434000D01*
Y437281D02*
X453023D01*
X453364Y437125*
X453477Y436969*
X453591Y436656*
Y436344*
X453477Y436031*
X453364Y435875*
X453023Y435719*
X452000*
X452795D02*
X453591Y434000D01*
X454727Y436500D02*
Y436656D01*
X454841Y436969*
X454955Y437125*
X455182Y437281*
X455636*
X455864Y437125*
X455977Y436969*
X456091Y436656*
Y436344*
X455977Y436031*
X455750Y435563*
X455750D02*
X454614Y434000D01*
X456205*
X458818Y437281D02*
X457682Y434000D01*
X457227Y437281D02*
X458818D01*
X466705Y381500D02*
X466591Y381813D01*
X466591D02*
X466364Y382125D01*
X466136Y382281*
X465682*
X465455Y382125*
X465227Y381813*
X465227D02*
X465114Y381500D01*
X465000Y381031*
Y380250*
X465114Y379781*
X465227Y379469*
X465455Y379156*
X465682Y379000*
X466136*
X466364Y379156*
X466591Y379469*
X466705Y379781*
X469205Y382281D02*
X468068D01*
X467955Y380875*
X468068Y381031*
X468409Y381188*
X468409D02*
X468750D01*
X468750D02*
X469091Y381031D01*
X469318Y380719*
X469432Y380250*
X469318Y379938*
X469318D02*
X469205Y379469D01*
X468977Y379156*
X468636Y379000*
X468295*
X467955Y379156*
X467841Y379313*
X467841D02*
X467727Y379625D01*
X470682Y382281D02*
X471932D01*
X471250Y381031*
X471591*
X471818Y380875*
X471932Y380719*
X472045Y380250*
Y379938*
X472045D02*
X471932Y379469D01*
X471705Y379156*
X471364Y379000*
X471023*
X470682Y379156*
X470568Y379313*
X470568D02*
X470455Y379625D01*
X493705Y349500D02*
X493591Y349813D01*
X493364Y350125*
X493136Y350281*
X492682*
X492455Y350125*
X492227Y349813*
X492114Y349500*
X492000Y349031*
Y348250*
X492114Y347781*
X492227Y347469*
X492455Y347156*
X492682Y347000*
X493136*
X493364Y347156*
X493591Y347469*
X493705Y347781*
X496205Y350281D02*
X495068D01*
X494955Y348875*
X495068Y349031*
X495409Y349188*
X495750*
X496091Y349031*
X496318Y348719*
X496432Y348250*
X496318Y347938*
X496205Y347469*
X495977Y347156*
X495636Y347000*
X495295*
X494955Y347156*
X494841Y347313*
X494727Y347625*
X498591Y350281D02*
X497455Y348094D01*
X499159*
X498591Y350281D02*
Y347000D01*
X499136Y312281D02*
Y309781D01*
X499023Y309313*
X499023D02*
X498909Y309156D01*
X498682Y309000*
X498455*
X498227Y309156*
X498114Y309313*
X498114D02*
X498000Y309781D01*
Y310094*
X500159Y311656D02*
X500386Y311813D01*
X500386D02*
X500727Y312281D01*
Y309000*
X503114Y311813D02*
X503000Y312125D01*
X502659Y312281*
X502432*
X502091Y312125*
X501864Y311656*
X501750Y310875*
Y310094*
X501864Y309469*
X502091Y309156*
X502432Y309000*
X502545*
X502886Y309156*
X503114Y309469*
X503227Y309938*
X503227D02*
Y310094D01*
X503114Y310563*
X503114D02*
X502886Y310875D01*
X502545Y311031*
X502432*
X502091Y310875*
X501864Y310563*
X501864D02*
X501750Y310094D01*
X499136Y386281D02*
Y383781D01*
X499023Y383313*
X499023D02*
X498909Y383156D01*
X498682Y383000*
X498455*
X498227Y383156*
X498114Y383313*
X498114D02*
X498000Y383781D01*
Y384094*
X500273Y385500D02*
Y385656D01*
X500386Y385969*
X500500Y386125*
X500727Y386281*
X501182*
X501409Y386125*
X501523Y385969*
X501636Y385656*
Y385344*
X501523Y385031*
X501295Y384563*
X501295D02*
X500159Y383000D01*
X501750*
X503000Y386281D02*
X504250D01*
X503568Y385031*
X503909*
X504136Y384875*
X504250Y384719*
X504364Y384250*
Y383938*
X504364D02*
X504250Y383469D01*
X504023Y383156*
X503682Y383000*
X503341*
X503000Y383156*
X502886Y383313*
X502886D02*
X502773Y383625D01*
X454000Y353281D02*
Y350938D01*
X454000D02*
X454114Y350469D01*
X454341Y350156*
X454682Y350000*
X454909*
X455250Y350156*
X455477Y350469*
X455591Y350938*
X455591D02*
Y353281D01*
X456614Y352656D02*
X456841Y352813D01*
X456841D02*
X457182Y353281D01*
Y350000*
X459682Y353281D02*
X458545D01*
X458432Y351875*
X458545Y352031*
X458886Y352188*
X458886D02*
X459227D01*
X459227D02*
X459568Y352031D01*
X459795Y351719*
X459909Y351250*
X459795Y350938*
X459795D02*
X459682Y350469D01*
X459455Y350156*
X459114Y350000*
X458773*
X458432Y350156*
X458318Y350313*
X458318D02*
X458205Y350625D01*
X487000Y326281D02*
Y323000D01*
Y326281D02*
X488023D01*
X488364Y326125*
X488477Y325969*
X488591Y325656*
Y325344*
X488477Y325031*
X488364Y324875*
X488023Y324719*
X487000*
X487795D02*
X488591Y323000D01*
X490750Y326281D02*
X489614Y324094D01*
X491318*
X490750Y326281D02*
Y323000D01*
X493818Y326281D02*
X492682D01*
X492568Y324875*
X492682Y325031*
X493023Y325188*
X493023D02*
X493364D01*
X493364D02*
X493705Y325031D01*
X493932Y324719*
X494045Y324250*
X493932Y323938*
X493932D02*
X493818Y323469D01*
X493591Y323156*
X493250Y323000*
X492909*
X492568Y323156*
X492455Y323313*
X492455D02*
X492341Y323625D01*
X461000Y322281D02*
Y319000D01*
Y322281D02*
X462023D01*
X462364Y322125*
X462477Y321969*
X462591Y321656*
Y321344*
X462477Y321031*
X462364Y320875*
X462023Y320719*
X461000*
X461795D02*
X462591Y319000D01*
X464750Y322281D02*
X463614Y320094D01*
X465318*
X464750Y322281D02*
Y319000D01*
X467705Y321813D02*
X467591Y322125D01*
X467250Y322281*
X467023*
X466682Y322125*
X466455Y321656*
X466341Y320875*
Y320094*
X466455Y319469*
X466682Y319156*
X467023Y319000*
X467136*
X467477Y319156*
X467705Y319469*
X467818Y319938*
X467818D02*
Y320094D01*
X467705Y320563*
X467705D02*
X467477Y320875D01*
X467136Y321031*
X467023*
X466682Y320875*
X466455Y320563*
X466455D02*
X466341Y320094D01*
X446000Y334281D02*
Y331000D01*
Y334281D02*
X447023D01*
X447364Y334125*
X447477Y333969*
X447591Y333656*
Y333344*
X447477Y333031*
X447364Y332875*
X447023Y332719*
X446000*
X446795D02*
X447591Y331000D01*
X449750Y334281D02*
X448614Y332094D01*
X450318*
X449750Y334281D02*
Y331000D01*
X452932Y334281D02*
X451795Y331000D01*
X451341Y334281D02*
X452932D01*
X296000Y121281D02*
Y118938D01*
X296000D02*
X296114Y118469D01*
X296341Y118156*
X296682Y118000*
X296909*
X297250Y118156*
X297477Y118469*
X297591Y118938*
X297591D02*
Y121281D01*
X298727Y120500D02*
Y120656D01*
X298841Y120969*
X298955Y121125*
X299182Y121281*
X299636*
X299864Y121125*
X299977Y120969*
X300091Y120656*
Y120344*
X299977Y120031*
X299750Y119563*
X299750D02*
X298614Y118000D01*
X300205*
X302705Y120188D02*
X302591Y119719D01*
X302364Y119406*
X302023Y119250*
X301909*
X301568Y119406*
X301341Y119719*
X301227Y120188*
X301227D02*
Y120344D01*
X301341Y120813*
X301341D02*
X301568Y121125D01*
X301909Y121281*
X302023*
X302364Y121125*
X302591Y120813*
X302591D02*
X302705Y120188D01*
X302705D02*
Y119406D01*
X302591Y118625*
X302364Y118156*
X302023Y118000*
X301795*
X301455Y118156*
X301341Y118469*
X436000Y221281D02*
Y218000D01*
Y221281D02*
X437023D01*
X437364Y221125*
X437477Y220969*
X437591Y220656*
Y220344*
X437477Y220031*
X437364Y219875*
X437023Y219719*
X436000*
X436795D02*
X437591Y218000D01*
X439750Y221281D02*
X438614Y219094D01*
X440318*
X439750Y221281D02*
Y218000D01*
X441909Y221281D02*
X441568Y221125D01*
X441455Y220813*
X441455D02*
Y220500D01*
X441568Y220188*
X441568D02*
X441795Y220031D01*
X442250Y219875*
X442591Y219719*
X442818Y219406*
X442932Y219094*
Y218625*
X442818Y218313*
X442818D02*
X442705Y218156D01*
X442364Y218000*
X441909*
X441568Y218156*
X441455Y218313*
X441455D02*
X441341Y218625D01*
Y219094*
X441455Y219406*
X441682Y219719*
X442023Y219875*
X442477Y220031*
X442705Y220188*
X442705D02*
X442818Y220500D01*
Y220813*
X442818D02*
X442705Y221125D01*
X442364Y221281*
X441909*
X436000Y206281D02*
Y203000D01*
Y206281D02*
X437023D01*
X437364Y206125*
X437477Y205969*
X437591Y205656*
Y205344*
X437477Y205031*
X437364Y204875*
X437023Y204719*
X436000*
X436795D02*
X437591Y203000D01*
X439750Y206281D02*
X438614Y204094D01*
X440318*
X439750Y206281D02*
Y203000D01*
X442818Y205188D02*
X442705Y204719D01*
X442477Y204406*
X442136Y204250*
X442023*
X441682Y204406*
X441455Y204719*
X441341Y205188*
X441341D02*
Y205344D01*
X441455Y205813*
X441455D02*
X441682Y206125D01*
X442023Y206281*
X442136*
X442477Y206125*
X442705Y205813*
X442705D02*
X442818Y205188D01*
X442818D02*
Y204406D01*
X442705Y203625*
X442477Y203156*
X442136Y203000*
X441909*
X441568Y203156*
X441455Y203469*
G54D59*
X245500Y414673D02*
Y419772D01*
X247687*
Y421228*
X245500*
Y426327*
X280500*
Y414673*
X245500*
X249414Y416500D02*
G03X249414I-1414J0D01*
G01X446315Y166024D02*
Y143583D01*
X445921Y165236D02*
Y144764D01*
X445134Y164449D02*
Y145551D01*
X444346Y163268D02*
Y146732D01*
X443559Y161693D02*
Y148307D01*
X443165Y159724D02*
Y150669D01*
X442772Y158150D02*
Y152244D01*
X461000Y345858D02*
Y351232D01*
X462250*
Y352768*
X461000*
Y358142*
X481000*
Y345858*
X461000*
G54D60*
X362126Y404890D02*
X377874D01*
Y391110*
X362126*
Y404890*
Y400953D02*
X366063Y404890D01*
X362126Y402921D02*
X364094Y404890D01*
G74*
X0Y0D02*
M02*
