*
*
G04 PADS 9.3.1 Build Number: 456998 generated Gerber (RS-274-X) file*
G04 PC Version=2.1*
*
%IN "videoMux.pcb"*%
*
%MOIN*%
*
%FSLAX35Y35*%
*
*
*
*
G04 PC Standard Apertures*
*
*
G04 Thermal Relief Aperture macro.*
%AMTER*
1,1,$1,0,0*
1,0,$1-$2,0,0*
21,0,$3,$4,0,0,45*
21,0,$3,$4,0,0,135*
%
*
*
G04 Annular Aperture macro.*
%AMANN*
1,1,$1,0,0*
1,0,$2,0,0*
%
*
*
G04 Odd Aperture macro.*
%AMODD*
1,1,$1,0,0*
1,0,$1-0.005,0,0*
%
*
*
G04 PC Custom Aperture Macros*
*
*
*
*
*
*
G04 PC Aperture Table*
*
%ADD010C,0.001*%
%ADD032C,0.06*%
%ADD034C,0.03*%
%ADD036C,0.096*%
%ADD038C,0.105*%
%ADD039C,0.014*%
%ADD040C,0.018*%
%ADD041C,0.06906*%
%ADD044C,0.075*%
%ADD045C,0.08087*%
%ADD046C,0.034*%
%ADD047C,0.06118*%
%ADD048C,0.07*%
%ADD054C,0.25016*%
*
*
*
*
G04 PC Circuitry*
G04 Layer Name videoMux.pcb - circuitry*
%LPD*%
*
*
G04 PC Custom Flashes*
G04 Layer Name videoMux.pcb - flashes*
%LPD*%
*
*
G04 PC Circuitry*
G04 Layer Name videoMux.pcb - circuitry*
%LPD*%
*
G54D10*
G54D32*
G01X509000Y232500D03*
X119500Y409500D03*
Y349500D03*
Y289500D03*
Y229500D03*
Y169500D03*
X509000Y611500D03*
X119500Y788500D03*
Y728500D03*
Y668500D03*
Y608500D03*
Y548500D03*
G54D34*
X389157Y453000D03*
X392863Y445305D03*
X401190Y443404D03*
X407868Y448730D03*
Y457271D03*
X401190Y462596D03*
X392863Y460695D03*
X457157Y261000D03*
X460863Y253305D03*
X469190Y251404D03*
X475868Y256730D03*
Y265271D03*
X469190Y270596D03*
X460863Y268695D03*
X108157Y117000D03*
X111863Y109305D03*
X120190Y107404D03*
X126868Y112730D03*
Y121271D03*
X120190Y126596D03*
X111863Y124695D03*
X108157Y453000D03*
X111863Y445305D03*
X120190Y443404D03*
X126868Y448730D03*
Y457271D03*
X120190Y462596D03*
X111863Y460695D03*
X389157Y832000D03*
X392863Y824305D03*
X401190Y822404D03*
X407868Y827730D03*
Y836271D03*
X401190Y841596D03*
X392863Y839695D03*
X457157Y640000D03*
X460863Y632305D03*
X469190Y630404D03*
X475868Y635730D03*
Y644271D03*
X469190Y649596D03*
X460863Y647695D03*
X108157Y496000D03*
X111863Y488305D03*
X120190Y486404D03*
X126868Y491730D03*
Y500271D03*
X120190Y505596D03*
X111863Y503695D03*
X108157Y832000D03*
X111863Y824305D03*
X120190Y822404D03*
X126868Y827730D03*
Y836271D03*
X120190Y841596D03*
X111863Y839695D03*
G54D36*
X519000Y242500D03*
Y222500D03*
X499000D03*
Y242500D03*
X129500Y419500D03*
Y399500D03*
X109500D03*
Y419500D03*
X129500Y359500D03*
Y339500D03*
X109500D03*
Y359500D03*
X129500Y299500D03*
Y279500D03*
X109500D03*
Y299500D03*
X129500Y239500D03*
Y219500D03*
X109500D03*
Y239500D03*
X129500Y179500D03*
Y159500D03*
X109500D03*
Y179500D03*
X519000Y621500D03*
Y601500D03*
X499000D03*
Y621500D03*
X129500Y798500D03*
Y778500D03*
X109500D03*
Y798500D03*
X129500Y738500D03*
Y718500D03*
X109500D03*
Y738500D03*
X129500Y678500D03*
Y658500D03*
X109500D03*
Y678500D03*
X129500Y618500D03*
Y598500D03*
X109500D03*
Y618500D03*
X129500Y558500D03*
Y538500D03*
X109500D03*
Y558500D03*
G54D38*
X476500Y120500D03*
X454800D03*
X476500Y499500D03*
X454800D03*
G54D39*
X273300Y438700D02*
X270700D01*
Y442100*
X273300*
Y438700*
X270700Y438800D02*
X273300D01*
X270700Y440200D02*
X273300D01*
X270700Y441600D02*
X273300D01*
X270800Y438700D02*
Y442100D01*
X272200Y438700D02*
Y442100D01*
X273300Y444900D02*
X270700D01*
Y448300*
X273300*
Y444900*
X270700Y445800D02*
X273300D01*
X270700Y447200D02*
X273300D01*
X270800Y444900D02*
Y448300D01*
X272200Y444900D02*
Y448300D01*
X278700D02*
X281300D01*
Y444900*
X278700*
Y448300*
Y445800D02*
X281300D01*
X278700Y447200D02*
X281300D01*
X279200Y444900D02*
Y448300D01*
X280600Y444900D02*
Y448300D01*
X278700Y442100D02*
X281300D01*
Y438700*
X278700*
Y442100*
Y438800D02*
X281300D01*
X278700Y440200D02*
X281300D01*
X278700Y441600D02*
X281300D01*
X279200Y438700D02*
Y442100D01*
X280600Y438700D02*
Y442100D01*
X402800Y339200D02*
X400200D01*
Y342600*
X402800*
Y339200*
X400200Y339400D02*
X402800D01*
X400200Y340800D02*
X402800D01*
X400200Y342200D02*
X402800D01*
X401000Y339200D02*
Y342600D01*
X402400Y339200D02*
Y342600D01*
X402800Y345400D02*
X400200D01*
Y348800*
X402800*
Y345400*
X400200Y346400D02*
X402800D01*
X400200Y347800D02*
X402800D01*
X401000Y345400D02*
Y348800D01*
X402400Y345400D02*
Y348800D01*
X392800Y339200D02*
X390200D01*
Y342600*
X392800*
Y339200*
X390200Y339400D02*
X392800D01*
X390200Y340800D02*
X392800D01*
X390200Y342200D02*
X392800D01*
X391200Y339200D02*
Y342600D01*
X392600Y339200D02*
Y342600D01*
X392800Y345400D02*
X390200D01*
Y348800*
X392800*
Y345400*
X390200Y346400D02*
X392800D01*
X390200Y347800D02*
X392800D01*
X391200Y345400D02*
Y348800D01*
X392600Y345400D02*
Y348800D01*
X382800Y339200D02*
X380200D01*
Y342600*
X382800*
Y339200*
X380200Y339400D02*
X382800D01*
X380200Y340800D02*
X382800D01*
X380200Y342200D02*
X382800D01*
X381400Y339200D02*
Y342600D01*
X382800Y339200D02*
Y342600D01*
Y345400D02*
X380200D01*
Y348800*
X382800*
Y345400*
X380200Y346400D02*
X382800D01*
X380200Y347800D02*
X382800D01*
X381400Y345400D02*
Y348800D01*
X382800Y345400D02*
Y348800D01*
X279300Y407200D02*
X276700D01*
Y410600*
X279300*
Y407200*
X276700Y408000D02*
X279300D01*
X276700Y409400D02*
X279300D01*
X277800Y407200D02*
Y410600D01*
X279200Y407200D02*
Y410600D01*
X279300Y413400D02*
X276700D01*
Y416800*
X279300*
Y413400*
X276700Y413600D02*
X279300D01*
X276700Y415000D02*
X279300D01*
X276700Y416400D02*
X279300D01*
X277800Y413400D02*
Y416800D01*
X279200Y413400D02*
Y416800D01*
X418700Y332800D02*
X421300D01*
Y329400*
X418700*
Y332800*
Y329600D02*
X421300D01*
X418700Y331000D02*
X421300D01*
X418700Y332400D02*
X421300D01*
X419200Y329400D02*
Y332800D01*
X420600Y329400D02*
Y332800D01*
X418700Y326600D02*
X421300D01*
Y323200*
X418700*
Y326600*
Y324000D02*
X421300D01*
X418700Y325400D02*
X421300D01*
X419200Y323200D02*
Y326600D01*
X420600Y323200D02*
Y326600D01*
X438700Y332800D02*
X441300D01*
Y329400*
X438700*
Y332800*
Y329600D02*
X441300D01*
X438700Y331000D02*
X441300D01*
X438700Y332400D02*
X441300D01*
X438800Y329400D02*
Y332800D01*
X440200Y329400D02*
Y332800D01*
X438700Y326600D02*
X441300D01*
Y323200*
X438700*
Y326600*
Y324000D02*
X441300D01*
X438700Y325400D02*
X441300D01*
X438800Y323200D02*
Y326600D01*
X440200Y323200D02*
Y326600D01*
X441300Y368200D02*
X438700D01*
Y371600*
X441300*
Y368200*
X438700Y368800D02*
X441300D01*
X438700Y370200D02*
X441300D01*
X438700Y371600D02*
X441300D01*
X438800Y368200D02*
Y371600D01*
X440200Y368200D02*
Y371600D01*
X441300Y374400D02*
X438700D01*
Y377800*
X441300*
Y374400*
X438700D02*
X441300D01*
X438700Y375800D02*
X441300D01*
X438700Y377200D02*
X441300D01*
X438800Y374400D02*
Y377800D01*
X440200Y374400D02*
Y377800D01*
X249300Y407200D02*
X246700D01*
Y410600*
X249300*
Y407200*
X246700Y408000D02*
X249300D01*
X246700Y409400D02*
X249300D01*
X247000Y407200D02*
Y410600D01*
X248400Y407200D02*
Y410600D01*
X249300Y413400D02*
X246700D01*
Y416800*
X249300*
Y413400*
X246700Y413600D02*
X249300D01*
X246700Y415000D02*
X249300D01*
X246700Y416400D02*
X249300D01*
X247000Y413400D02*
Y416800D01*
X248400Y413400D02*
Y416800D01*
X259300Y407200D02*
X256700D01*
Y410600*
X259300*
Y407200*
X256700Y408000D02*
X259300D01*
X256700Y409400D02*
X259300D01*
X256800Y407200D02*
Y410600D01*
X258200Y407200D02*
Y410600D01*
X259300Y413400D02*
X256700D01*
Y416800*
X259300*
Y413400*
X256700Y413600D02*
X259300D01*
X256700Y415000D02*
X259300D01*
X256700Y416400D02*
X259300D01*
X256800Y413400D02*
Y416800D01*
X258200Y413400D02*
Y416800D01*
X269300Y407200D02*
X266700D01*
Y410600*
X269300*
Y407200*
X266700Y408000D02*
X269300D01*
X266700Y409400D02*
X269300D01*
X268000Y407200D02*
Y410600D01*
X269300Y413400D02*
X266700D01*
Y416800*
X269300*
Y413400*
X266700Y413600D02*
X269300D01*
X266700Y415000D02*
X269300D01*
X266700Y416400D02*
X269300D01*
X268000Y413400D02*
Y416800D01*
X428700Y332800D02*
X431300D01*
Y329400*
X428700*
Y332800*
Y329600D02*
X431300D01*
X428700Y331000D02*
X431300D01*
X428700Y332400D02*
X431300D01*
X429000Y329400D02*
Y332800D01*
X430400Y329400D02*
Y332800D01*
X428700Y326600D02*
X431300D01*
Y323200*
X428700*
Y326600*
Y324000D02*
X431300D01*
X428700Y325400D02*
X431300D01*
X429000Y323200D02*
Y326600D01*
X430400Y323200D02*
Y326600D01*
X423700Y332800D02*
X426300D01*
Y329400*
X423700*
Y332800*
Y329600D02*
X426300D01*
X423700Y331000D02*
X426300D01*
X423700Y332400D02*
X426300D01*
X424800Y329400D02*
Y332800D01*
X426200Y329400D02*
Y332800D01*
X423700Y326600D02*
X426300D01*
Y323200*
X423700*
Y326600*
Y324000D02*
X426300D01*
X423700Y325400D02*
X426300D01*
X424800Y323200D02*
Y326600D01*
X426200Y323200D02*
Y326600D01*
X433700Y377800D02*
X436300D01*
Y374400*
X433700*
Y377800*
Y374400D02*
X436300D01*
X433700Y375800D02*
X436300D01*
X433700Y377200D02*
X436300D01*
X434600Y374400D02*
Y377800D01*
X436000Y374400D02*
Y377800D01*
X433700Y371600D02*
X436300D01*
Y368200*
X433700*
Y371600*
Y368800D02*
X436300D01*
X433700Y370200D02*
X436300D01*
X433700Y371600D02*
X436300D01*
X434600Y368200D02*
Y371600D01*
X436000Y368200D02*
Y371600D01*
X436300Y323200D02*
X433700D01*
Y326600*
X436300*
Y323200*
X433700Y324000D02*
X436300D01*
X433700Y325400D02*
X436300D01*
X434600Y323200D02*
Y326600D01*
X436000Y323200D02*
Y326600D01*
X436300Y329400D02*
X433700D01*
Y332800*
X436300*
Y329400*
X433700Y329600D02*
X436300D01*
X433700Y331000D02*
X436300D01*
X433700Y332400D02*
X436300D01*
X434600Y329400D02*
Y332800D01*
X436000Y329400D02*
Y332800D01*
X317700Y275800D02*
X320300D01*
Y272400*
X317700*
Y275800*
Y273600D02*
X320300D01*
X317700Y275000D02*
X320300D01*
X318400Y272400D02*
Y275800D01*
X319800Y272400D02*
Y275800D01*
X317700Y269600D02*
X320300D01*
Y266200*
X317700*
Y269600*
Y266600D02*
X320300D01*
X317700Y268000D02*
X320300D01*
X317700Y269400D02*
X320300D01*
X318400Y266200D02*
Y269600D01*
X319800Y266200D02*
Y269600D01*
X307700Y275800D02*
X310300D01*
Y272400*
X307700*
Y275800*
Y273600D02*
X310300D01*
X307700Y275000D02*
X310300D01*
X308600Y272400D02*
Y275800D01*
X310000Y272400D02*
Y275800D01*
X307700Y269600D02*
X310300D01*
Y266200*
X307700*
Y269600*
Y266600D02*
X310300D01*
X307700Y268000D02*
X310300D01*
X307700Y269400D02*
X310300D01*
X308600Y266200D02*
Y269600D01*
X310000Y266200D02*
Y269600D01*
X337700Y275800D02*
X340300D01*
Y272400*
X337700*
Y275800*
Y273600D02*
X340300D01*
X337700Y275000D02*
X340300D01*
X338000Y272400D02*
Y275800D01*
X339400Y272400D02*
Y275800D01*
X337700Y269600D02*
X340300D01*
Y266200*
X337700*
Y269600*
Y266600D02*
X340300D01*
X337700Y268000D02*
X340300D01*
X337700Y269400D02*
X340300D01*
X338000Y266200D02*
Y269600D01*
X339400Y266200D02*
Y269600D01*
X297700Y275800D02*
X300300D01*
Y272400*
X297700*
Y275800*
Y273600D02*
X300300D01*
X297700Y275000D02*
X300300D01*
X298800Y272400D02*
Y275800D01*
X300200Y272400D02*
Y275800D01*
X297700Y269600D02*
X300300D01*
Y266200*
X297700*
Y269600*
Y266600D02*
X300300D01*
X297700Y268000D02*
X300300D01*
X297700Y269400D02*
X300300D01*
X298800Y266200D02*
Y269600D01*
X300200Y266200D02*
Y269600D01*
X287700Y275800D02*
X290300D01*
Y272400*
X287700*
Y275800*
Y273600D02*
X290300D01*
X287700Y275000D02*
X290300D01*
X289000Y272400D02*
Y275800D01*
X287700Y269600D02*
X290300D01*
Y266200*
X287700*
Y269600*
Y266600D02*
X290300D01*
X287700Y268000D02*
X290300D01*
X287700Y269400D02*
X290300D01*
X289000Y266200D02*
Y269600D01*
X277700Y275800D02*
X280300D01*
Y272400*
X277700*
Y275800*
Y273600D02*
X280300D01*
X277700Y275000D02*
X280300D01*
X277800Y272400D02*
Y275800D01*
X279200Y272400D02*
Y275800D01*
X277700Y269600D02*
X280300D01*
Y266200*
X277700*
Y269600*
Y266600D02*
X280300D01*
X277700Y268000D02*
X280300D01*
X277700Y269400D02*
X280300D01*
X277800Y266200D02*
Y269600D01*
X279200Y266200D02*
Y269600D01*
X248800Y377300D02*
Y374700D01*
X245400*
Y377300*
X248800*
X245400Y375800D02*
X248800D01*
X245400Y377200D02*
X248800D01*
X245600Y374700D02*
Y377300D01*
X247000Y374700D02*
Y377300D01*
X248400Y374700D02*
Y377300D01*
X242600D02*
Y374700D01*
X239200*
Y377300*
X242600*
X239200Y375800D02*
X242600D01*
X239200Y377200D02*
X242600D01*
X240000Y374700D02*
Y377300D01*
X241400Y374700D02*
Y377300D01*
X248800Y387300D02*
Y384700D01*
X245400*
Y387300*
X248800*
X245400Y385600D02*
X248800D01*
X245400Y387000D02*
X248800D01*
X245600Y384700D02*
Y387300D01*
X247000Y384700D02*
Y387300D01*
X248400Y384700D02*
Y387300D01*
X242600D02*
Y384700D01*
X239200*
Y387300*
X242600*
X239200Y385600D02*
X242600D01*
X239200Y387000D02*
X242600D01*
X240000Y384700D02*
Y387300D01*
X241400Y384700D02*
Y387300D01*
X316700Y453800D02*
X319300D01*
Y450400*
X316700*
Y453800*
Y451400D02*
X319300D01*
X316700Y452800D02*
X319300D01*
X317000Y450400D02*
Y453800D01*
X318400Y450400D02*
Y453800D01*
X316700Y447600D02*
X319300D01*
Y444200*
X316700*
Y447600*
Y444400D02*
X319300D01*
X316700Y445800D02*
X319300D01*
X316700Y447200D02*
X319300D01*
X317000Y444200D02*
Y447600D01*
X318400Y444200D02*
Y447600D01*
X326700Y453800D02*
X329300D01*
Y450400*
X326700*
Y453800*
Y451400D02*
X329300D01*
X326700Y452800D02*
X329300D01*
X326800Y450400D02*
Y453800D01*
X328200Y450400D02*
Y453800D01*
X326700Y447600D02*
X329300D01*
Y444200*
X326700*
Y447600*
Y444400D02*
X329300D01*
X326700Y445800D02*
X329300D01*
X326700Y447200D02*
X329300D01*
X326800Y444200D02*
Y447600D01*
X328200Y444200D02*
Y447600D01*
X296700Y453800D02*
X299300D01*
Y450400*
X296700*
Y453800*
Y451400D02*
X299300D01*
X296700Y452800D02*
X299300D01*
X297400Y450400D02*
Y453800D01*
X298800Y450400D02*
Y453800D01*
X296700Y447600D02*
X299300D01*
Y444200*
X296700*
Y447600*
Y444400D02*
X299300D01*
X296700Y445800D02*
X299300D01*
X296700Y447200D02*
X299300D01*
X297400Y444200D02*
Y447600D01*
X298800Y444200D02*
Y447600D01*
X306700Y453800D02*
X309300D01*
Y450400*
X306700*
Y453800*
Y451400D02*
X309300D01*
X306700Y452800D02*
X309300D01*
X307200Y450400D02*
Y453800D01*
X308600Y450400D02*
Y453800D01*
X306700Y447600D02*
X309300D01*
Y444200*
X306700*
Y447600*
Y444400D02*
X309300D01*
X306700Y445800D02*
X309300D01*
X306700Y447200D02*
X309300D01*
X307200Y444200D02*
Y447600D01*
X308600Y444200D02*
Y447600D01*
X356700Y453800D02*
X359300D01*
Y450400*
X356700*
Y453800*
Y451400D02*
X359300D01*
X356700Y452800D02*
X359300D01*
X357600Y450400D02*
Y453800D01*
X359000Y450400D02*
Y453800D01*
X356700Y447600D02*
X359300D01*
Y444200*
X356700*
Y447600*
Y444400D02*
X359300D01*
X356700Y445800D02*
X359300D01*
X356700Y447200D02*
X359300D01*
X357600Y444200D02*
Y447600D01*
X359000Y444200D02*
Y447600D01*
X366700Y453800D02*
X369300D01*
Y450400*
X366700*
Y453800*
Y451400D02*
X369300D01*
X366700Y452800D02*
X369300D01*
X367400Y450400D02*
Y453800D01*
X368800Y450400D02*
Y453800D01*
X366700Y447600D02*
X369300D01*
Y444200*
X366700*
Y447600*
Y444400D02*
X369300D01*
X366700Y445800D02*
X369300D01*
X366700Y447200D02*
X369300D01*
X367400Y444200D02*
Y447600D01*
X368800Y444200D02*
Y447600D01*
X336700Y453800D02*
X339300D01*
Y450400*
X336700*
Y453800*
Y451400D02*
X339300D01*
X336700Y452800D02*
X339300D01*
X338000Y450400D02*
Y453800D01*
X336700Y447600D02*
X339300D01*
Y444200*
X336700*
Y447600*
Y444400D02*
X339300D01*
X336700Y445800D02*
X339300D01*
X336700Y447200D02*
X339300D01*
X338000Y444200D02*
Y447600D01*
X346700Y453800D02*
X349300D01*
Y450400*
X346700*
Y453800*
Y451400D02*
X349300D01*
X346700Y452800D02*
X349300D01*
X347800Y450400D02*
Y453800D01*
X349200Y450400D02*
Y453800D01*
X346700Y447600D02*
X349300D01*
Y444200*
X346700*
Y447600*
Y444400D02*
X349300D01*
X346700Y445800D02*
X349300D01*
X346700Y447200D02*
X349300D01*
X347800Y444200D02*
Y447600D01*
X349200Y444200D02*
Y447600D01*
X327700Y275800D02*
X330300D01*
Y272400*
X327700*
Y275800*
Y273600D02*
X330300D01*
X327700Y275000D02*
X330300D01*
X328200Y272400D02*
Y275800D01*
X329600Y272400D02*
Y275800D01*
X327700Y269600D02*
X330300D01*
Y266200*
X327700*
Y269600*
Y266600D02*
X330300D01*
X327700Y268000D02*
X330300D01*
X327700Y269400D02*
X330300D01*
X328200Y266200D02*
Y269600D01*
X329600Y266200D02*
Y269600D01*
X455300Y409700D02*
X452700D01*
Y413100*
X455300*
Y409700*
X452700Y410800D02*
X455300D01*
X452700Y412200D02*
X455300D01*
X452800Y409700D02*
Y413100D01*
X454200Y409700D02*
Y413100D01*
X455300Y415900D02*
X452700D01*
Y419300*
X455300*
Y415900*
X452700Y416400D02*
X455300D01*
X452700Y417800D02*
X455300D01*
X452700Y419200D02*
X455300D01*
X452800Y415900D02*
Y419300D01*
X454200Y415900D02*
Y419300D01*
X500300Y409700D02*
X497700D01*
Y413100*
X500300*
Y409700*
X497700Y410800D02*
X500300D01*
X497700Y412200D02*
X500300D01*
X499000Y409700D02*
Y413100D01*
X500300Y415900D02*
X497700D01*
Y419300*
X500300*
Y415900*
X497700Y416400D02*
X500300D01*
X497700Y417800D02*
X500300D01*
X497700Y419200D02*
X500300D01*
X499000Y415900D02*
Y419300D01*
X490300Y409700D02*
X487700D01*
Y413100*
X490300*
Y409700*
X487700Y410800D02*
X490300D01*
X487700Y412200D02*
X490300D01*
X487800Y409700D02*
Y413100D01*
X489200Y409700D02*
Y413100D01*
X490300Y415900D02*
X487700D01*
Y419300*
X490300*
Y415900*
X487700Y416400D02*
X490300D01*
X487700Y417800D02*
X490300D01*
X487700Y419200D02*
X490300D01*
X487800Y415900D02*
Y419300D01*
X489200Y415900D02*
Y419300D01*
X502800Y321300D02*
Y318700D01*
X499400*
Y321300*
X502800*
X499400Y319800D02*
X502800D01*
X499400Y321200D02*
X502800D01*
X500400Y318700D02*
Y321300D01*
X501800Y318700D02*
Y321300D01*
X496600D02*
Y318700D01*
X493200*
Y321300*
X496600*
X493200Y319800D02*
X496600D01*
X493200Y321200D02*
X496600D01*
X493400Y318700D02*
Y321300D01*
X494800Y318700D02*
Y321300D01*
X496200Y318700D02*
Y321300D01*
X502800Y329300D02*
Y326700D01*
X499400*
Y329300*
X502800*
X499400Y326800D02*
X502800D01*
X499400Y328200D02*
X502800D01*
X500400Y326700D02*
Y329300D01*
X501800Y326700D02*
Y329300D01*
X496600D02*
Y326700D01*
X493200*
Y329300*
X496600*
X493200Y326800D02*
X496600D01*
X493200Y328200D02*
X496600D01*
X493400Y326700D02*
Y329300D01*
X494800Y326700D02*
Y329300D01*
X496200Y326700D02*
Y329300D01*
X502800Y337300D02*
Y334700D01*
X499400*
Y337300*
X502800*
X499400Y335200D02*
X502800D01*
X499400Y336600D02*
X502800D01*
X500400Y334700D02*
Y337300D01*
X501800Y334700D02*
Y337300D01*
X496600D02*
Y334700D01*
X493200*
Y337300*
X496600*
X493200Y335200D02*
X496600D01*
X493200Y336600D02*
X496600D01*
X493400Y334700D02*
Y337300D01*
X494800Y334700D02*
Y337300D01*
X496200Y334700D02*
Y337300D01*
X502800Y369300D02*
Y366700D01*
X499400*
Y369300*
X502800*
X499400Y367400D02*
X502800D01*
X499400Y368800D02*
X502800D01*
X500400Y366700D02*
Y369300D01*
X501800Y366700D02*
Y369300D01*
X496600D02*
Y366700D01*
X493200*
Y369300*
X496600*
X493200Y367400D02*
X496600D01*
X493200Y368800D02*
X496600D01*
X493400Y366700D02*
Y369300D01*
X494800Y366700D02*
Y369300D01*
X496200Y366700D02*
Y369300D01*
X520300Y327200D02*
X517700D01*
Y330600*
X520300*
Y327200*
X517700Y328200D02*
X520300D01*
X517700Y329600D02*
X520300D01*
X518600Y327200D02*
Y330600D01*
X520000Y327200D02*
Y330600D01*
X520300Y333400D02*
X517700D01*
Y336800*
X520300*
Y333400*
X517700Y333800D02*
X520300D01*
X517700Y335200D02*
X520300D01*
X517700Y336600D02*
X520300D01*
X518600Y333400D02*
Y336800D01*
X520000Y333400D02*
Y336800D01*
X273300Y817700D02*
X270700D01*
Y821100*
X273300*
Y817700*
X270700Y818200D02*
X273300D01*
X270700Y819600D02*
X273300D01*
X270700Y821000D02*
X273300D01*
X270800Y817700D02*
Y821100D01*
X272200Y817700D02*
Y821100D01*
X273300Y823900D02*
X270700D01*
Y827300*
X273300*
Y823900*
X270700Y825200D02*
X273300D01*
X270700Y826600D02*
X273300D01*
X270800Y823900D02*
Y827300D01*
X272200Y823900D02*
Y827300D01*
X278700D02*
X281300D01*
Y823900*
X278700*
Y827300*
Y825200D02*
X281300D01*
X278700Y826600D02*
X281300D01*
X279200Y823900D02*
Y827300D01*
X280600Y823900D02*
Y827300D01*
X278700Y821100D02*
X281300D01*
Y817700*
X278700*
Y821100*
Y818200D02*
X281300D01*
X278700Y819600D02*
X281300D01*
X278700Y821000D02*
X281300D01*
X279200Y817700D02*
Y821100D01*
X280600Y817700D02*
Y821100D01*
X402800Y718200D02*
X400200D01*
Y721600*
X402800*
Y718200*
X400200Y718800D02*
X402800D01*
X400200Y720200D02*
X402800D01*
X400200Y721600D02*
X402800D01*
X401000Y718200D02*
Y721600D01*
X402400Y718200D02*
Y721600D01*
X402800Y724400D02*
X400200D01*
Y727800*
X402800*
Y724400*
X400200D02*
X402800D01*
X400200Y725800D02*
X402800D01*
X400200Y727200D02*
X402800D01*
X401000Y724400D02*
Y727800D01*
X402400Y724400D02*
Y727800D01*
X392800Y718200D02*
X390200D01*
Y721600*
X392800*
Y718200*
X390200Y718800D02*
X392800D01*
X390200Y720200D02*
X392800D01*
X390200Y721600D02*
X392800D01*
X391200Y718200D02*
Y721600D01*
X392600Y718200D02*
Y721600D01*
X392800Y724400D02*
X390200D01*
Y727800*
X392800*
Y724400*
X390200D02*
X392800D01*
X390200Y725800D02*
X392800D01*
X390200Y727200D02*
X392800D01*
X391200Y724400D02*
Y727800D01*
X392600Y724400D02*
Y727800D01*
X382800Y718200D02*
X380200D01*
Y721600*
X382800*
Y718200*
X380200Y718800D02*
X382800D01*
X380200Y720200D02*
X382800D01*
X380200Y721600D02*
X382800D01*
X381400Y718200D02*
Y721600D01*
X382800Y718200D02*
Y721600D01*
Y724400D02*
X380200D01*
Y727800*
X382800*
Y724400*
X380200D02*
X382800D01*
X380200Y725800D02*
X382800D01*
X380200Y727200D02*
X382800D01*
X381400Y724400D02*
Y727800D01*
X382800Y724400D02*
Y727800D01*
X279300Y786200D02*
X276700D01*
Y789600*
X279300*
Y786200*
X276700Y787400D02*
X279300D01*
X276700Y788800D02*
X279300D01*
X277800Y786200D02*
Y789600D01*
X279200Y786200D02*
Y789600D01*
X279300Y792400D02*
X276700D01*
Y795800*
X279300*
Y792400*
X276700Y793000D02*
X279300D01*
X276700Y794400D02*
X279300D01*
X276700Y795800D02*
X279300D01*
X277800Y792400D02*
Y795800D01*
X279200Y792400D02*
Y795800D01*
X418700Y711800D02*
X421300D01*
Y708400*
X418700*
Y711800*
Y709000D02*
X421300D01*
X418700Y710400D02*
X421300D01*
X418700Y711800D02*
X421300D01*
X419200Y708400D02*
Y711800D01*
X420600Y708400D02*
Y711800D01*
X418700Y705600D02*
X421300D01*
Y702200*
X418700*
Y705600*
Y703400D02*
X421300D01*
X418700Y704800D02*
X421300D01*
X419200Y702200D02*
Y705600D01*
X420600Y702200D02*
Y705600D01*
X438700Y711800D02*
X441300D01*
Y708400*
X438700*
Y711800*
Y709000D02*
X441300D01*
X438700Y710400D02*
X441300D01*
X438700Y711800D02*
X441300D01*
X438800Y708400D02*
Y711800D01*
X440200Y708400D02*
Y711800D01*
X438700Y705600D02*
X441300D01*
Y702200*
X438700*
Y705600*
Y703400D02*
X441300D01*
X438700Y704800D02*
X441300D01*
X438800Y702200D02*
Y705600D01*
X440200Y702200D02*
Y705600D01*
X441300Y747200D02*
X438700D01*
Y750600*
X441300*
Y747200*
X438700Y748200D02*
X441300D01*
X438700Y749600D02*
X441300D01*
X438800Y747200D02*
Y750600D01*
X440200Y747200D02*
Y750600D01*
X441300Y753400D02*
X438700D01*
Y756800*
X441300*
Y753400*
X438700Y753800D02*
X441300D01*
X438700Y755200D02*
X441300D01*
X438700Y756600D02*
X441300D01*
X438800Y753400D02*
Y756800D01*
X440200Y753400D02*
Y756800D01*
X249300Y786200D02*
X246700D01*
Y789600*
X249300*
Y786200*
X246700Y787400D02*
X249300D01*
X246700Y788800D02*
X249300D01*
X247000Y786200D02*
Y789600D01*
X248400Y786200D02*
Y789600D01*
X249300Y792400D02*
X246700D01*
Y795800*
X249300*
Y792400*
X246700Y793000D02*
X249300D01*
X246700Y794400D02*
X249300D01*
X246700Y795800D02*
X249300D01*
X247000Y792400D02*
Y795800D01*
X248400Y792400D02*
Y795800D01*
X259300Y786200D02*
X256700D01*
Y789600*
X259300*
Y786200*
X256700Y787400D02*
X259300D01*
X256700Y788800D02*
X259300D01*
X256800Y786200D02*
Y789600D01*
X258200Y786200D02*
Y789600D01*
X259300Y792400D02*
X256700D01*
Y795800*
X259300*
Y792400*
X256700Y793000D02*
X259300D01*
X256700Y794400D02*
X259300D01*
X256700Y795800D02*
X259300D01*
X256800Y792400D02*
Y795800D01*
X258200Y792400D02*
Y795800D01*
X269300Y786200D02*
X266700D01*
Y789600*
X269300*
Y786200*
X266700Y787400D02*
X269300D01*
X266700Y788800D02*
X269300D01*
X268000Y786200D02*
Y789600D01*
X269300Y792400D02*
X266700D01*
Y795800*
X269300*
Y792400*
X266700Y793000D02*
X269300D01*
X266700Y794400D02*
X269300D01*
X266700Y795800D02*
X269300D01*
X268000Y792400D02*
Y795800D01*
X428700Y711800D02*
X431300D01*
Y708400*
X428700*
Y711800*
Y709000D02*
X431300D01*
X428700Y710400D02*
X431300D01*
X428700Y711800D02*
X431300D01*
X429000Y708400D02*
Y711800D01*
X430400Y708400D02*
Y711800D01*
X428700Y705600D02*
X431300D01*
Y702200*
X428700*
Y705600*
Y703400D02*
X431300D01*
X428700Y704800D02*
X431300D01*
X429000Y702200D02*
Y705600D01*
X430400Y702200D02*
Y705600D01*
X423700Y711800D02*
X426300D01*
Y708400*
X423700*
Y711800*
Y709000D02*
X426300D01*
X423700Y710400D02*
X426300D01*
X423700Y711800D02*
X426300D01*
X424800Y708400D02*
Y711800D01*
X426200Y708400D02*
Y711800D01*
X423700Y705600D02*
X426300D01*
Y702200*
X423700*
Y705600*
Y703400D02*
X426300D01*
X423700Y704800D02*
X426300D01*
X424800Y702200D02*
Y705600D01*
X426200Y702200D02*
Y705600D01*
X433700Y756800D02*
X436300D01*
Y753400*
X433700*
Y756800*
Y753800D02*
X436300D01*
X433700Y755200D02*
X436300D01*
X433700Y756600D02*
X436300D01*
X434600Y753400D02*
Y756800D01*
X436000Y753400D02*
Y756800D01*
X433700Y750600D02*
X436300D01*
Y747200*
X433700*
Y750600*
Y748200D02*
X436300D01*
X433700Y749600D02*
X436300D01*
X434600Y747200D02*
Y750600D01*
X436000Y747200D02*
Y750600D01*
X436300Y702200D02*
X433700D01*
Y705600*
X436300*
Y702200*
X433700Y703400D02*
X436300D01*
X433700Y704800D02*
X436300D01*
X434600Y702200D02*
Y705600D01*
X436000Y702200D02*
Y705600D01*
X436300Y708400D02*
X433700D01*
Y711800*
X436300*
Y708400*
X433700Y709000D02*
X436300D01*
X433700Y710400D02*
X436300D01*
X433700Y711800D02*
X436300D01*
X434600Y708400D02*
Y711800D01*
X436000Y708400D02*
Y711800D01*
X317700Y654800D02*
X320300D01*
Y651400*
X317700*
Y654800*
Y651600D02*
X320300D01*
X317700Y653000D02*
X320300D01*
X317700Y654400D02*
X320300D01*
X318400Y651400D02*
Y654800D01*
X319800Y651400D02*
Y654800D01*
X317700Y648600D02*
X320300D01*
Y645200*
X317700*
Y648600*
Y646000D02*
X320300D01*
X317700Y647400D02*
X320300D01*
X318400Y645200D02*
Y648600D01*
X319800Y645200D02*
Y648600D01*
X307700Y654800D02*
X310300D01*
Y651400*
X307700*
Y654800*
Y651600D02*
X310300D01*
X307700Y653000D02*
X310300D01*
X307700Y654400D02*
X310300D01*
X308600Y651400D02*
Y654800D01*
X310000Y651400D02*
Y654800D01*
X307700Y648600D02*
X310300D01*
Y645200*
X307700*
Y648600*
Y646000D02*
X310300D01*
X307700Y647400D02*
X310300D01*
X308600Y645200D02*
Y648600D01*
X310000Y645200D02*
Y648600D01*
X337700Y654800D02*
X340300D01*
Y651400*
X337700*
Y654800*
Y651600D02*
X340300D01*
X337700Y653000D02*
X340300D01*
X337700Y654400D02*
X340300D01*
X338000Y651400D02*
Y654800D01*
X339400Y651400D02*
Y654800D01*
X337700Y648600D02*
X340300D01*
Y645200*
X337700*
Y648600*
Y646000D02*
X340300D01*
X337700Y647400D02*
X340300D01*
X338000Y645200D02*
Y648600D01*
X339400Y645200D02*
Y648600D01*
X297700Y654800D02*
X300300D01*
Y651400*
X297700*
Y654800*
Y651600D02*
X300300D01*
X297700Y653000D02*
X300300D01*
X297700Y654400D02*
X300300D01*
X298800Y651400D02*
Y654800D01*
X300200Y651400D02*
Y654800D01*
X297700Y648600D02*
X300300D01*
Y645200*
X297700*
Y648600*
Y646000D02*
X300300D01*
X297700Y647400D02*
X300300D01*
X298800Y645200D02*
Y648600D01*
X300200Y645200D02*
Y648600D01*
X287700Y654800D02*
X290300D01*
Y651400*
X287700*
Y654800*
Y651600D02*
X290300D01*
X287700Y653000D02*
X290300D01*
X287700Y654400D02*
X290300D01*
X289000Y651400D02*
Y654800D01*
X287700Y648600D02*
X290300D01*
Y645200*
X287700*
Y648600*
Y646000D02*
X290300D01*
X287700Y647400D02*
X290300D01*
X289000Y645200D02*
Y648600D01*
X277700Y654800D02*
X280300D01*
Y651400*
X277700*
Y654800*
Y651600D02*
X280300D01*
X277700Y653000D02*
X280300D01*
X277700Y654400D02*
X280300D01*
X277800Y651400D02*
Y654800D01*
X279200Y651400D02*
Y654800D01*
X277700Y648600D02*
X280300D01*
Y645200*
X277700*
Y648600*
Y646000D02*
X280300D01*
X277700Y647400D02*
X280300D01*
X277800Y645200D02*
Y648600D01*
X279200Y645200D02*
Y648600D01*
X248800Y756300D02*
Y753700D01*
X245400*
Y756300*
X248800*
X245400Y753800D02*
X248800D01*
X245400Y755200D02*
X248800D01*
X245600Y753700D02*
Y756300D01*
X247000Y753700D02*
Y756300D01*
X248400Y753700D02*
Y756300D01*
X242600D02*
Y753700D01*
X239200*
Y756300*
X242600*
X239200Y753800D02*
X242600D01*
X239200Y755200D02*
X242600D01*
X240000Y753700D02*
Y756300D01*
X241400Y753700D02*
Y756300D01*
X248800Y766300D02*
Y763700D01*
X245400*
Y766300*
X248800*
X245400Y765000D02*
X248800D01*
X245600Y763700D02*
Y766300D01*
X247000Y763700D02*
Y766300D01*
X248400Y763700D02*
Y766300D01*
X242600D02*
Y763700D01*
X239200*
Y766300*
X242600*
X239200Y765000D02*
X242600D01*
X240000Y763700D02*
Y766300D01*
X241400Y763700D02*
Y766300D01*
X316700Y832800D02*
X319300D01*
Y829400*
X316700*
Y832800*
Y829400D02*
X319300D01*
X316700Y830800D02*
X319300D01*
X316700Y832200D02*
X319300D01*
X317000Y829400D02*
Y832800D01*
X318400Y829400D02*
Y832800D01*
X316700Y826600D02*
X319300D01*
Y823200*
X316700*
Y826600*
Y823800D02*
X319300D01*
X316700Y825200D02*
X319300D01*
X316700Y826600D02*
X319300D01*
X317000Y823200D02*
Y826600D01*
X318400Y823200D02*
Y826600D01*
X326700Y832800D02*
X329300D01*
Y829400*
X326700*
Y832800*
Y829400D02*
X329300D01*
X326700Y830800D02*
X329300D01*
X326700Y832200D02*
X329300D01*
X326800Y829400D02*
Y832800D01*
X328200Y829400D02*
Y832800D01*
X326700Y826600D02*
X329300D01*
Y823200*
X326700*
Y826600*
Y823800D02*
X329300D01*
X326700Y825200D02*
X329300D01*
X326700Y826600D02*
X329300D01*
X326800Y823200D02*
Y826600D01*
X328200Y823200D02*
Y826600D01*
X296700Y832800D02*
X299300D01*
Y829400*
X296700*
Y832800*
Y829400D02*
X299300D01*
X296700Y830800D02*
X299300D01*
X296700Y832200D02*
X299300D01*
X297400Y829400D02*
Y832800D01*
X298800Y829400D02*
Y832800D01*
X296700Y826600D02*
X299300D01*
Y823200*
X296700*
Y826600*
Y823800D02*
X299300D01*
X296700Y825200D02*
X299300D01*
X296700Y826600D02*
X299300D01*
X297400Y823200D02*
Y826600D01*
X298800Y823200D02*
Y826600D01*
X306700Y832800D02*
X309300D01*
Y829400*
X306700*
Y832800*
Y829400D02*
X309300D01*
X306700Y830800D02*
X309300D01*
X306700Y832200D02*
X309300D01*
X307200Y829400D02*
Y832800D01*
X308600Y829400D02*
Y832800D01*
X306700Y826600D02*
X309300D01*
Y823200*
X306700*
Y826600*
Y823800D02*
X309300D01*
X306700Y825200D02*
X309300D01*
X306700Y826600D02*
X309300D01*
X307200Y823200D02*
Y826600D01*
X308600Y823200D02*
Y826600D01*
X356700Y832800D02*
X359300D01*
Y829400*
X356700*
Y832800*
Y829400D02*
X359300D01*
X356700Y830800D02*
X359300D01*
X356700Y832200D02*
X359300D01*
X357600Y829400D02*
Y832800D01*
X359000Y829400D02*
Y832800D01*
X356700Y826600D02*
X359300D01*
Y823200*
X356700*
Y826600*
Y823800D02*
X359300D01*
X356700Y825200D02*
X359300D01*
X356700Y826600D02*
X359300D01*
X357600Y823200D02*
Y826600D01*
X359000Y823200D02*
Y826600D01*
X366700Y832800D02*
X369300D01*
Y829400*
X366700*
Y832800*
Y829400D02*
X369300D01*
X366700Y830800D02*
X369300D01*
X366700Y832200D02*
X369300D01*
X367400Y829400D02*
Y832800D01*
X368800Y829400D02*
Y832800D01*
X366700Y826600D02*
X369300D01*
Y823200*
X366700*
Y826600*
Y823800D02*
X369300D01*
X366700Y825200D02*
X369300D01*
X366700Y826600D02*
X369300D01*
X367400Y823200D02*
Y826600D01*
X368800Y823200D02*
Y826600D01*
X336700Y832800D02*
X339300D01*
Y829400*
X336700*
Y832800*
Y829400D02*
X339300D01*
X336700Y830800D02*
X339300D01*
X336700Y832200D02*
X339300D01*
X338000Y829400D02*
Y832800D01*
X336700Y826600D02*
X339300D01*
Y823200*
X336700*
Y826600*
Y823800D02*
X339300D01*
X336700Y825200D02*
X339300D01*
X336700Y826600D02*
X339300D01*
X338000Y823200D02*
Y826600D01*
X346700Y832800D02*
X349300D01*
Y829400*
X346700*
Y832800*
Y829400D02*
X349300D01*
X346700Y830800D02*
X349300D01*
X346700Y832200D02*
X349300D01*
X347800Y829400D02*
Y832800D01*
X349200Y829400D02*
Y832800D01*
X346700Y826600D02*
X349300D01*
Y823200*
X346700*
Y826600*
Y823800D02*
X349300D01*
X346700Y825200D02*
X349300D01*
X346700Y826600D02*
X349300D01*
X347800Y823200D02*
Y826600D01*
X349200Y823200D02*
Y826600D01*
X327700Y654800D02*
X330300D01*
Y651400*
X327700*
Y654800*
Y651600D02*
X330300D01*
X327700Y653000D02*
X330300D01*
X327700Y654400D02*
X330300D01*
X328200Y651400D02*
Y654800D01*
X329600Y651400D02*
Y654800D01*
X327700Y648600D02*
X330300D01*
Y645200*
X327700*
Y648600*
Y646000D02*
X330300D01*
X327700Y647400D02*
X330300D01*
X328200Y645200D02*
Y648600D01*
X329600Y645200D02*
Y648600D01*
X455300Y788700D02*
X452700D01*
Y792100*
X455300*
Y788700*
X452700Y788800D02*
X455300D01*
X452700Y790200D02*
X455300D01*
X452700Y791600D02*
X455300D01*
X452800Y788700D02*
Y792100D01*
X454200Y788700D02*
Y792100D01*
X455300Y794900D02*
X452700D01*
Y798300*
X455300*
Y794900*
X452700Y795800D02*
X455300D01*
X452700Y797200D02*
X455300D01*
X452800Y794900D02*
Y798300D01*
X454200Y794900D02*
Y798300D01*
X500300Y788700D02*
X497700D01*
Y792100*
X500300*
Y788700*
X497700Y788800D02*
X500300D01*
X497700Y790200D02*
X500300D01*
X497700Y791600D02*
X500300D01*
X499000Y788700D02*
Y792100D01*
X500300Y794900D02*
X497700D01*
Y798300*
X500300*
Y794900*
X497700Y795800D02*
X500300D01*
X497700Y797200D02*
X500300D01*
X499000Y794900D02*
Y798300D01*
X490300Y788700D02*
X487700D01*
Y792100*
X490300*
Y788700*
X487700Y788800D02*
X490300D01*
X487700Y790200D02*
X490300D01*
X487700Y791600D02*
X490300D01*
X487800Y788700D02*
Y792100D01*
X489200Y788700D02*
Y792100D01*
X490300Y794900D02*
X487700D01*
Y798300*
X490300*
Y794900*
X487700Y795800D02*
X490300D01*
X487700Y797200D02*
X490300D01*
X487800Y794900D02*
Y798300D01*
X489200Y794900D02*
Y798300D01*
X502800Y700300D02*
Y697700D01*
X499400*
Y700300*
X502800*
X499400Y697800D02*
X502800D01*
X499400Y699200D02*
X502800D01*
X500400Y697700D02*
Y700300D01*
X501800Y697700D02*
Y700300D01*
X496600D02*
Y697700D01*
X493200*
Y700300*
X496600*
X493200Y697800D02*
X496600D01*
X493200Y699200D02*
X496600D01*
X493400Y697700D02*
Y700300D01*
X494800Y697700D02*
Y700300D01*
X496200Y697700D02*
Y700300D01*
X502800Y708300D02*
Y705700D01*
X499400*
Y708300*
X502800*
X499400Y706200D02*
X502800D01*
X499400Y707600D02*
X502800D01*
X500400Y705700D02*
Y708300D01*
X501800Y705700D02*
Y708300D01*
X496600D02*
Y705700D01*
X493200*
Y708300*
X496600*
X493200Y706200D02*
X496600D01*
X493200Y707600D02*
X496600D01*
X493400Y705700D02*
Y708300D01*
X494800Y705700D02*
Y708300D01*
X496200Y705700D02*
Y708300D01*
X502800Y716300D02*
Y713700D01*
X499400*
Y716300*
X502800*
X499400Y714600D02*
X502800D01*
X499400Y716000D02*
X502800D01*
X500400Y713700D02*
Y716300D01*
X501800Y713700D02*
Y716300D01*
X496600D02*
Y713700D01*
X493200*
Y716300*
X496600*
X493200Y714600D02*
X496600D01*
X493200Y716000D02*
X496600D01*
X493400Y713700D02*
Y716300D01*
X494800Y713700D02*
Y716300D01*
X496200Y713700D02*
Y716300D01*
X502800Y748300D02*
Y745700D01*
X499400*
Y748300*
X502800*
X499400Y746800D02*
X502800D01*
X499400Y748200D02*
X502800D01*
X500400Y745700D02*
Y748300D01*
X501800Y745700D02*
Y748300D01*
X496600D02*
Y745700D01*
X493200*
Y748300*
X496600*
X493200Y746800D02*
X496600D01*
X493200Y748200D02*
X496600D01*
X493400Y745700D02*
Y748300D01*
X494800Y745700D02*
Y748300D01*
X496200Y745700D02*
Y748300D01*
X520300Y706200D02*
X517700D01*
Y709600*
X520300*
Y706200*
X517700D02*
X520300D01*
X517700Y707600D02*
X520300D01*
X517700Y709000D02*
X520300D01*
X518600Y706200D02*
Y709600D01*
X520000Y706200D02*
Y709600D01*
X520300Y712400D02*
X517700D01*
Y715800*
X520300*
Y712400*
X517700Y713200D02*
X520300D01*
X517700Y714600D02*
X520300D01*
X518600Y712400D02*
Y715800D01*
X520000Y712400D02*
Y715800D01*
G54D40*
X377150Y163900D02*
Y169100D01*
X382350*
Y163900*
X377150*
Y164800D02*
X382350D01*
X377150Y166600D02*
X382350D01*
X377150Y168400D02*
X382350D01*
X377200Y163900D02*
Y169100D01*
X379000Y163900D02*
Y169100D01*
X380800Y163900D02*
Y169100D01*
X390650Y163900D02*
Y169100D01*
X395850*
Y163900*
X390650*
Y164800D02*
X395850D01*
X390650Y166600D02*
X395850D01*
X390650Y168400D02*
X395850D01*
X391600Y163900D02*
Y169100D01*
X393400Y163900D02*
Y169100D01*
X395200Y163900D02*
Y169100D01*
X377150Y542900D02*
Y548100D01*
X382350*
Y542900*
X377150*
Y544600D02*
X382350D01*
X377150Y546400D02*
X382350D01*
X377200Y542900D02*
Y548100D01*
X379000Y542900D02*
Y548100D01*
X380800Y542900D02*
Y548100D01*
X390650Y542900D02*
Y548100D01*
X395850*
Y542900*
X390650*
Y544600D02*
X395850D01*
X390650Y546400D02*
X395850D01*
X391600Y542900D02*
Y548100D01*
X393400Y542900D02*
Y548100D01*
X395200Y542900D02*
Y548100D01*
G54D41*
X280000Y455500D03*
X272126D03*
X264252D03*
X256378D03*
X248504D03*
X510000Y320000D03*
Y327874D03*
Y335748D03*
Y360000D03*
Y367874D03*
Y375748D03*
X280000Y834500D03*
X272126D03*
X264252D03*
X256378D03*
X248504D03*
X510000Y699000D03*
Y706874D03*
Y714748D03*
Y739000D03*
Y746874D03*
Y754748D03*
G54D44*
X401500Y331500D03*
X391500D03*
X381500D03*
X368000Y461500D03*
X358000D03*
X348000D03*
X338000D03*
X328000D03*
X318000D03*
X308000D03*
X298000D03*
X421000Y118500D03*
X411000D03*
X360000Y431000D03*
X370000D03*
X361000Y243500D03*
X351000D03*
X256500Y386000D03*
Y376000D03*
Y366000D03*
X302500Y411500D03*
Y401500D03*
Y426500D03*
Y436500D03*
X425000Y340500D03*
X435000Y350500D03*
X425000D03*
X435000Y360500D03*
X425000D03*
X279000Y283000D03*
X289000D03*
X299000D03*
X309000D03*
X319000D03*
X329000D03*
X339000D03*
X349000D03*
X509000Y402000D03*
X499000D03*
X489000D03*
X474000D03*
X464000D03*
X454000D03*
X401500Y710500D03*
X391500D03*
X381500D03*
X368000Y840500D03*
X358000D03*
X348000D03*
X338000D03*
X328000D03*
X318000D03*
X308000D03*
X298000D03*
X421000Y497500D03*
X411000D03*
X360000Y810000D03*
X370000D03*
X361000Y622500D03*
X351000D03*
X256500Y765000D03*
Y755000D03*
Y745000D03*
X302500Y790500D03*
Y780500D03*
Y805500D03*
Y815500D03*
X425000Y719500D03*
X435000Y729500D03*
X425000D03*
X435000Y739500D03*
X425000D03*
X279000Y662000D03*
X289000D03*
X299000D03*
X309000D03*
X319000D03*
X329000D03*
X339000D03*
X349000D03*
X509000Y781000D03*
X499000D03*
X489000D03*
X474000D03*
X464000D03*
X454000D03*
G54D45*
X357205Y406858D03*
X382795D03*
X357205Y389142D03*
X382795D03*
X357205Y785858D03*
X382795D03*
X357205Y768142D03*
X382795D03*
G54D46*
X432950Y338450D02*
Y342550D01*
X437050*
Y338450*
X432950*
Y341400D02*
X437050D01*
X433200Y338450D02*
Y342550D01*
X436600Y338450D02*
Y342550D01*
X432950Y717450D02*
Y721550D01*
X437050*
Y717450*
X432950*
Y718800D02*
X437050D01*
X433200Y717450D02*
Y721550D01*
X436600Y717450D02*
Y721550D01*
G54D47*
X466000Y155000D03*
X452220D03*
X466000Y534000D03*
X452220D03*
G54D48*
X258000Y402000D03*
X268000D03*
X278000D03*
X248000D03*
X458000Y221500D03*
X509000Y256000D03*
X258000Y781000D03*
X268000D03*
X278000D03*
X248000D03*
X458000Y600500D03*
X509000Y635000D03*
G54D54*
X399000Y453000D03*
X467000Y261000D03*
X118000Y117000D03*
Y453000D03*
X399000Y832000D03*
X467000Y640000D03*
X118000Y496000D03*
Y832000D03*
X0Y0D02*
M02*
