*
*
G04 PADS 9.3.1 Build Number: 456998 generated Gerber (RS-274-X) file*
G04 PC Version=2.1*
*
%IN "videoMux.pcb"*%
*
%MOIN*%
*
%FSLAX35Y35*%
*
*
*
*
G04 PC Standard Apertures*
*
*
G04 Thermal Relief Aperture macro.*
%AMTER*
1,1,$1,0,0*
1,0,$1-$2,0,0*
21,0,$3,$4,0,0,45*
21,0,$3,$4,0,0,135*
%
*
*
G04 Annular Aperture macro.*
%AMANN*
1,1,$1,0,0*
1,0,$2,0,0*
%
*
*
G04 Odd Aperture macro.*
%AMODD*
1,1,$1,0,0*
1,0,$1-0.005,0,0*
%
*
*
G04 PC Custom Aperture Macros*
*
*
*
*
*
*
G04 PC Aperture Table*
*
%ADD010C,0.001*%
%ADD020C,0.01*%
%ADD057C,0.00787*%
%ADD058C,0.005*%
*
*
*
*
G04 PC Circuitry*
G04 Layer Name videoMux.pcb - circuitry*
%LPD*%
*
*
G04 PC Custom Flashes*
G04 Layer Name videoMux.pcb - flashes*
%LPD*%
*
*
G04 PC Circuitry*
G04 Layer Name videoMux.pcb - circuitry*
%LPD*%
*
G54D10*
G54D20*
G01X386500Y163500D02*
Y169500D01*
Y542500D02*
Y548500D01*
G54D57*
X273496Y443539D02*
X270465D01*
X278504Y443461D02*
X281535D01*
X402996Y344039D02*
X399965D01*
X392996D02*
X389965D01*
X382996D02*
X379965D01*
X279496Y412039D02*
X276465D01*
X418504Y327961D02*
X421535D01*
X438504D02*
X441535D01*
X441496Y373039D02*
X438465D01*
X249496Y412039D02*
X246465D01*
X259496D02*
X256465D01*
X269496D02*
X266465D01*
X428504Y327961D02*
X431535D01*
X423504D02*
X426535D01*
X433504Y372961D02*
X436535D01*
X436496Y328039D02*
X433465D01*
X317504Y270961D02*
X320535D01*
X307504D02*
X310535D01*
X337504D02*
X340535D01*
X297504D02*
X300535D01*
X287504D02*
X290535D01*
X277504D02*
X280535D01*
X243961Y377496D02*
Y374465D01*
Y387496D02*
Y384465D01*
X316504Y448961D02*
X319535D01*
X326504D02*
X329535D01*
X296504D02*
X299535D01*
X306504D02*
X309535D01*
X356504D02*
X359535D01*
X366504D02*
X369535D01*
X336504D02*
X339535D01*
X346504D02*
X349535D01*
X327504Y270961D02*
X330535D01*
X455496Y414539D02*
X452465D01*
X500496D02*
X497465D01*
X490496D02*
X487465D01*
X497961Y321496D02*
Y318465D01*
Y329496D02*
Y326465D01*
Y337496D02*
Y334465D01*
Y369496D02*
Y366465D01*
X520496Y332039D02*
X517465D01*
X273496Y822539D02*
X270465D01*
X278504Y822461D02*
X281535D01*
X402996Y723039D02*
X399965D01*
X392996D02*
X389965D01*
X382996D02*
X379965D01*
X279496Y791039D02*
X276465D01*
X418504Y706961D02*
X421535D01*
X438504D02*
X441535D01*
X441496Y752039D02*
X438465D01*
X249496Y791039D02*
X246465D01*
X259496D02*
X256465D01*
X269496D02*
X266465D01*
X428504Y706961D02*
X431535D01*
X423504D02*
X426535D01*
X433504Y751961D02*
X436535D01*
X436496Y707039D02*
X433465D01*
X317504Y649961D02*
X320535D01*
X307504D02*
X310535D01*
X337504D02*
X340535D01*
X297504D02*
X300535D01*
X287504D02*
X290535D01*
X277504D02*
X280535D01*
X243961Y756496D02*
Y753465D01*
Y766496D02*
Y763465D01*
X316504Y827961D02*
X319535D01*
X326504D02*
X329535D01*
X296504D02*
X299535D01*
X306504D02*
X309535D01*
X356504D02*
X359535D01*
X366504D02*
X369535D01*
X336504D02*
X339535D01*
X346504D02*
X349535D01*
X327504Y649961D02*
X330535D01*
X455496Y793539D02*
X452465D01*
X500496D02*
X497465D01*
X490496D02*
X487465D01*
X497961Y700496D02*
Y697465D01*
Y708496D02*
Y705465D01*
Y716496D02*
Y713465D01*
Y748496D02*
Y745465D01*
X520496Y711039D02*
X517465D01*
G54D58*
X368105Y165100D02*
X367991Y164787D01*
X367991D02*
X367764Y164475D01*
X367536Y164319*
X367082*
X366855Y164475*
X366627Y164787*
X366627D02*
X366514Y165100D01*
X366400Y165569*
Y166350*
X366514Y166819*
X366627Y167131*
X366855Y167444*
X367082Y167600*
X367536*
X367764Y167444*
X367991Y167131*
X368105Y166819*
X369127Y164944D02*
X369355Y164787D01*
X369355D02*
X369695Y164319D01*
Y167600*
X370718Y164944D02*
X370945Y164787D01*
X370945D02*
X371286Y164319D01*
Y167600*
X372991Y164319D02*
X372650Y164475D01*
X372423Y164944*
X372309Y165725*
Y166194*
X372423Y166975*
X372650Y167444*
X372991Y167600*
X373218*
X373559Y167444*
X373786Y166975*
X373900Y166194*
Y165725*
X373786Y164944*
X373559Y164475*
X373218Y164319*
X372991*
X267295Y440500D02*
X267409Y440813D01*
X267409D02*
X267636Y441125D01*
X267864Y441281*
X268318*
X268545Y441125*
X268773Y440813*
X268773D02*
X268886Y440500D01*
X269000Y440031*
Y439250*
X268886Y438781*
X268773Y438469*
X268545Y438156*
X268318Y438000*
X267864*
X267636Y438156*
X267409Y438469*
X267295Y438781*
X264795Y441281D02*
X265932D01*
X266045Y439875*
X265932Y440031*
X265591Y440188*
X265591D02*
X265250D01*
X265250D02*
X264909Y440031D01*
X264682Y439719*
X264568Y439250*
X264682Y438938*
X264682D02*
X264795Y438469D01*
X265023Y438156*
X265364Y438000*
X265705*
X266045Y438156*
X266159Y438313*
X266159D02*
X266273Y438625D01*
X263545Y440656D02*
X263318Y440813D01*
X263318D02*
X262977Y441281D01*
Y438000*
X290000Y441281D02*
Y438000D01*
Y441281D02*
X288977D01*
X288636Y441125*
X288523Y440969*
X288409Y440656*
Y440344*
X288523Y440031*
X288636Y439875*
X288977Y439719*
X290000*
X289205D02*
X288409Y438000D01*
X287273Y440500D02*
Y440656D01*
X287159Y440969*
X287045Y441125*
X286818Y441281*
X286364*
X286136Y441125*
X286023Y440969*
X285909Y440656*
Y440344*
X286023Y440031*
X286250Y439563*
X286250D02*
X287386Y438000D01*
X285795*
X284205Y441281D02*
X284545Y441125D01*
X284659Y440813*
X284659D02*
Y440500D01*
X284545Y440188*
X284545D02*
X284318Y440031D01*
X283864Y439875*
X283523Y439719*
X283295Y439406*
X283182Y439094*
Y438625*
X283295Y438313*
X283295D02*
X283409Y438156D01*
X283750Y438000*
X284205*
X284545Y438156*
X284659Y438313*
X284659D02*
X284773Y438625D01*
Y439094*
X284659Y439406*
X284432Y439719*
X284091Y439875*
X283636Y440031*
X283409Y440188*
X283409D02*
X283295Y440500D01*
Y440813*
X283295D02*
X283409Y441125D01*
X283750Y441281*
X284205*
X405000Y353281D02*
Y350000D01*
Y353281D02*
X404205D01*
X403864Y353125*
X403636Y352813*
X403636D02*
X403523Y352500D01*
X403409Y352031*
Y351250*
X403523Y350781*
X403636Y350469*
X403864Y350156*
X404205Y350000*
X405000*
X402273Y352500D02*
Y352656D01*
X402159Y352969*
X402045Y353125*
X401818Y353281*
X401364*
X401136Y353125*
X401023Y352969*
X400909Y352656*
Y352344*
X401023Y352031*
X401250Y351563*
X401250D02*
X402386Y350000D01*
X400795*
X399545Y353281D02*
X398295D01*
X398977Y352031*
X398636*
X398409Y351875*
X398295Y351719*
X398182Y351250*
Y350938*
X398182D02*
X398295Y350469D01*
X398523Y350156*
X398864Y350000*
X399205*
X399545Y350156*
X399659Y350313*
X399659D02*
X399773Y350625D01*
X395000Y353281D02*
Y350000D01*
Y353281D02*
X394205D01*
X393864Y353125*
X393636Y352813*
X393636D02*
X393523Y352500D01*
X393409Y352031*
Y351250*
X393523Y350781*
X393636Y350469*
X393864Y350156*
X394205Y350000*
X395000*
X392273Y352500D02*
Y352656D01*
X392159Y352969*
X392045Y353125*
X391818Y353281*
X391364*
X391136Y353125*
X391023Y352969*
X390909Y352656*
Y352344*
X391023Y352031*
X391250Y351563*
X391250D02*
X392386Y350000D01*
X390795*
X388636Y353281D02*
X389773Y351094D01*
X388068*
X388636Y353281D02*
Y350000D01*
X385000Y353281D02*
Y350000D01*
Y353281D02*
X384205D01*
X383864Y353125*
X383636Y352813*
X383636D02*
X383523Y352500D01*
X383409Y352031*
Y351250*
X383523Y350781*
X383636Y350469*
X383864Y350156*
X384205Y350000*
X385000*
X382273Y352500D02*
Y352656D01*
X382159Y352969*
X382045Y353125*
X381818Y353281*
X381364*
X381136Y353125*
X381023Y352969*
X380909Y352656*
Y352344*
X381023Y352031*
X381250Y351563*
X381250D02*
X382386Y350000D01*
X380795*
X378295Y353281D02*
X379432D01*
X379545Y351875*
X379432Y352031*
X379091Y352188*
X379091D02*
X378750D01*
X378750D02*
X378409Y352031D01*
X378182Y351719*
X378068Y351250*
X378182Y350938*
X378182D02*
X378295Y350469D01*
X378523Y350156*
X378864Y350000*
X379205*
X379545Y350156*
X379659Y350313*
X379659D02*
X379773Y350625D01*
X280000Y421281D02*
Y418000D01*
Y421281D02*
X279205D01*
X278864Y421125*
X278636Y420813*
X278636D02*
X278523Y420500D01*
X278409Y420031*
Y419250*
X278523Y418781*
X278636Y418469*
X278864Y418156*
X279205Y418000*
X280000*
X277386Y420656D02*
X277159Y420813D01*
X277159D02*
X276818Y421281D01*
Y418000*
X275227Y421281D02*
X275568Y421125D01*
X275682Y420813*
X275682D02*
Y420500D01*
X275568Y420188*
X275568D02*
X275341Y420031D01*
X274886Y419875*
X274545Y419719*
X274318Y419406*
X274205Y419094*
Y418625*
X274318Y418313*
X274318D02*
X274432Y418156D01*
X274773Y418000*
X275227*
X275568Y418156*
X275682Y418313*
X275682D02*
X275795Y418625D01*
Y419094*
X275682Y419406*
X275455Y419719*
X275114Y419875*
X274659Y420031*
X274432Y420188*
X274432D02*
X274318Y420500D01*
Y420813*
X274318D02*
X274432Y421125D01*
X274773Y421281*
X275227*
X421281Y314000D02*
X418000D01*
X421281D02*
Y314795D01*
X421125Y315136*
X420813Y315364*
X420813D02*
X420500Y315477D01*
X420031Y315591*
X419250*
X418781Y315477*
X418469Y315364*
X418156Y315136*
X418000Y314795*
Y314000*
X420656Y316614D02*
X420813Y316841D01*
X420813D02*
X421281Y317182D01*
X418000*
X420500Y318318D02*
X420656D01*
X420969Y318432*
X421125Y318545*
X421281Y318773*
Y319227*
X421125Y319455*
X420969Y319568*
X420656Y319682*
X420344*
X420031Y319568*
X419563Y319341*
X419563D02*
X418000Y318205D01*
Y319795*
X441281Y314000D02*
X438000D01*
X441281D02*
Y314795D01*
X441125Y315136*
X440813Y315364*
X440813D02*
X440500Y315477D01*
X440031Y315591*
X439250*
X438781Y315477*
X438469Y315364*
X438156Y315136*
X438000Y314795*
Y314000*
X440656Y316614D02*
X440813Y316841D01*
X440813D02*
X441281Y317182D01*
X438000*
X441281Y319341D02*
X439094Y318205D01*
Y319909*
X441281Y319341D02*
X438000D01*
X449000Y374281D02*
Y371000D01*
Y374281D02*
X448205D01*
X447864Y374125*
X447636Y373813*
X447636D02*
X447523Y373500D01*
X447409Y373031*
Y372250*
X447523Y371781*
X447636Y371469*
X447864Y371156*
X448205Y371000*
X449000*
X446386Y373656D02*
X446159Y373813D01*
X446159D02*
X445818Y374281D01*
Y371000*
X443318Y374281D02*
X444455D01*
X444568Y372875*
X444455Y373031*
X444114Y373188*
X444114D02*
X443773D01*
X443773D02*
X443432Y373031D01*
X443205Y372719*
X443091Y372250*
X443205Y371938*
X443205D02*
X443318Y371469D01*
X443545Y371156*
X443886Y371000*
X444227*
X444568Y371156*
X444682Y371313*
X444682D02*
X444795Y371625D01*
X251000Y421281D02*
Y418000D01*
Y421281D02*
X250205D01*
X249864Y421125*
X249636Y420813*
X249636D02*
X249523Y420500D01*
X249409Y420031*
Y419250*
X249523Y418781*
X249636Y418469*
X249864Y418156*
X250205Y418000*
X251000*
X248273Y420500D02*
Y420656D01*
X248159Y420969*
X248045Y421125*
X247818Y421281*
X247364*
X247136Y421125*
X247023Y420969*
X246909Y420656*
Y420344*
X247023Y420031*
X247250Y419563*
X247250D02*
X248386Y418000D01*
X246795*
X245091Y421281D02*
X245432Y421125D01*
X245659Y420656*
X245773Y419875*
Y419406*
X245659Y418625*
X245432Y418156*
X245091Y418000*
X244864*
X244523Y418156*
X244295Y418625*
X244182Y419406*
Y419875*
X244295Y420656*
X244523Y421125*
X244864Y421281*
X245091*
X261000D02*
Y418000D01*
Y421281D02*
X260205D01*
X259864Y421125*
X259636Y420813*
X259636D02*
X259523Y420500D01*
X259409Y420031*
Y419250*
X259523Y418781*
X259636Y418469*
X259864Y418156*
X260205Y418000*
X261000*
X258273Y420500D02*
Y420656D01*
X258159Y420969*
X258045Y421125*
X257818Y421281*
X257364*
X257136Y421125*
X257023Y420969*
X256909Y420656*
Y420344*
X257023Y420031*
X257250Y419563*
X257250D02*
X258386Y418000D01*
X256795*
X255773Y420656D02*
X255545Y420813D01*
X255545D02*
X255205Y421281D01*
Y418000*
X271000Y421281D02*
Y418000D01*
Y421281D02*
X270205D01*
X269864Y421125*
X269636Y420813*
X269636D02*
X269523Y420500D01*
X269409Y420031*
Y419250*
X269523Y418781*
X269636Y418469*
X269864Y418156*
X270205Y418000*
X271000*
X268273Y420500D02*
Y420656D01*
X268159Y420969*
X268045Y421125*
X267818Y421281*
X267364*
X267136Y421125*
X267023Y420969*
X266909Y420656*
Y420344*
X267023Y420031*
X267250Y419563*
X267250D02*
X268386Y418000D01*
X266795*
X265659Y420500D02*
Y420656D01*
X265545Y420969*
X265432Y421125*
X265205Y421281*
X264750*
X264523Y421125*
X264409Y420969*
X264295Y420656*
Y420344*
X264409Y420031*
X264636Y419563*
X264636D02*
X265773Y418000D01*
X264182*
X431281Y314000D02*
X428000D01*
X431281D02*
Y315023D01*
X431125Y315364*
X430969Y315477*
X430656Y315591*
X430344*
X430031Y315477*
X429875Y315364*
X429719Y315023*
Y314000*
Y314795D02*
X428000Y315591D01*
X430656Y316614D02*
X430813Y316841D01*
X430813D02*
X431281Y317182D01*
X428000*
X430656Y318205D02*
X430813Y318432D01*
X430813D02*
X431281Y318773D01*
X428000*
X430188Y321273D02*
X429719Y321159D01*
X429406Y320932*
X429250Y320591*
Y320477*
X429406Y320136*
X429719Y319909*
X430188Y319795*
X430188D02*
X430344D01*
X430813Y319909*
X430813D02*
X431125Y320136D01*
X431281Y320477*
Y320591*
X431125Y320932*
X430813Y321159*
X430813D02*
X430188Y321273D01*
X430188D02*
X429406D01*
X428625Y321159*
X428156Y320932*
X428000Y320591*
Y320364*
X428156Y320023*
X428469Y319909*
X425500Y315705D02*
X425813Y315591D01*
X425813D02*
X426125Y315364D01*
X426281Y315136*
Y314682*
X426125Y314455*
X425813Y314227*
X425813D02*
X425500Y314114D01*
X425031Y314000*
X424250*
X423781Y314114*
X423469Y314227*
X423156Y314455*
X423000Y314682*
Y315136*
X423156Y315364*
X423469Y315591*
X423781Y315705*
X425656Y316727D02*
X425813Y316955D01*
X425813D02*
X426281Y317295D01*
X423000*
X425656Y318318D02*
X425813Y318545D01*
X425813D02*
X426281Y318886D01*
X423000*
X425813Y321273D02*
X426125Y321159D01*
X426281Y320818*
Y320591*
X426125Y320250*
X425656Y320023*
X424875Y319909*
X424094*
X423469Y320023*
X423156Y320250*
X423000Y320591*
Y320705*
X423156Y321045*
X423469Y321273*
X423938Y321386*
X423938D02*
X424094D01*
X424563Y321273*
X424563D02*
X424875Y321045D01*
X425031Y320705*
Y320591*
X424875Y320250*
X424563Y320023*
X424563D02*
X424094Y319909D01*
X432000Y374281D02*
Y371000D01*
Y374281D02*
X430977D01*
X430636Y374125*
X430523Y373969*
X430409Y373656*
Y373344*
X430523Y373031*
X430636Y372875*
X430977Y372719*
X432000*
X431205D02*
X430409Y371000D01*
X429386Y373656D02*
X429159Y373813D01*
X428818Y374281*
Y371000*
X427682Y373500D02*
Y373656D01*
X427568Y373969*
X427455Y374125*
X427227Y374281*
X426773*
X426545Y374125*
X426432Y373969*
X426318Y373656*
Y373344*
X426432Y373031*
X426659Y372563*
X427795Y371000*
X426205*
X424500Y374281D02*
X424841Y374125D01*
X425068Y373656*
X425182Y372875*
Y372406*
X425068Y371625*
X424841Y371156*
X424500Y371000*
X424273*
X423932Y371156*
X423705Y371625*
X423591Y372406*
Y372875*
X423705Y373656*
X423932Y374125*
X424273Y374281*
X424500*
X436281Y314000D02*
X433000D01*
X436281D02*
Y315023D01*
X436125Y315364*
X435969Y315477*
X435656Y315591*
X435344*
X435031Y315477*
X434875Y315364*
X434719Y315023*
Y314000*
Y314795D02*
X433000Y315591D01*
X435656Y316614D02*
X435813Y316841D01*
X435813D02*
X436281Y317182D01*
X433000*
X435500Y318318D02*
X435656D01*
X435969Y318432*
X436125Y318545*
X436281Y318773*
Y319227*
X436125Y319455*
X435969Y319568*
X435656Y319682*
X435344*
X435031Y319568*
X434563Y319341*
X434563D02*
X433000Y318205D01*
Y319795*
X435656Y320818D02*
X435813Y321045D01*
X435813D02*
X436281Y321386D01*
X433000*
X322000Y265281D02*
Y262000D01*
Y265281D02*
X321205D01*
X320864Y265125*
X320636Y264813*
X320636D02*
X320523Y264500D01*
X320409Y264031*
Y263250*
X320523Y262781*
X320636Y262469*
X320864Y262156*
X321205Y262000*
X322000*
X319386Y264656D02*
X319159Y264813D01*
X319159D02*
X318818Y265281D01*
Y262000*
X317114Y265281D02*
X317455Y265125D01*
X317682Y264656*
X317795Y263875*
Y263406*
X317682Y262625*
X317455Y262156*
X317114Y262000*
X316886*
X316545Y262156*
X316318Y262625*
X316205Y263406*
Y263875*
X316318Y264656*
X316545Y265125*
X316886Y265281*
X317114*
X312000D02*
Y262000D01*
Y265281D02*
X311205D01*
X310864Y265125*
X310636Y264813*
X310636D02*
X310523Y264500D01*
X310409Y264031*
Y263250*
X310523Y262781*
X310636Y262469*
X310864Y262156*
X311205Y262000*
X312000*
X309386Y264656D02*
X309159Y264813D01*
X309159D02*
X308818Y265281D01*
Y262000*
X307795Y264656D02*
X307568Y264813D01*
X307568D02*
X307227Y265281D01*
Y262000*
X341000Y265281D02*
Y262000D01*
Y265281D02*
X340205D01*
X339864Y265125*
X339636Y264813*
X339636D02*
X339523Y264500D01*
X339409Y264031*
Y263250*
X339523Y262781*
X339636Y262469*
X339864Y262156*
X340205Y262000*
X341000*
X338273Y264500D02*
Y264656D01*
X338159Y264969*
X338045Y265125*
X337818Y265281*
X337364*
X337136Y265125*
X337023Y264969*
X336909Y264656*
Y264344*
X337023Y264031*
X337250Y263563*
X337250D02*
X338386Y262000D01*
X336795*
X302000Y265281D02*
Y262000D01*
Y265281D02*
X301205D01*
X300864Y265125*
X300636Y264813*
X300636D02*
X300523Y264500D01*
X300409Y264031*
Y263250*
X300523Y262781*
X300636Y262469*
X300864Y262156*
X301205Y262000*
X302000*
X299273Y264500D02*
Y264656D01*
X299159Y264969*
X299045Y265125*
X298818Y265281*
X298364*
X298136Y265125*
X298023Y264969*
X297909Y264656*
Y264344*
X298023Y264031*
X298250Y263563*
X298250D02*
X299386Y262000D01*
X297795*
X295295Y264188D02*
X295409Y263719D01*
X295636Y263406*
X295977Y263250*
X296091*
X296432Y263406*
X296659Y263719*
X296773Y264188*
X296773D02*
Y264344D01*
X296659Y264813*
X296659D02*
X296432Y265125D01*
X296091Y265281*
X295977*
X295636Y265125*
X295409Y264813*
X295409D02*
X295295Y264188D01*
X295295D02*
Y263406D01*
X295409Y262625*
X295636Y262156*
X295977Y262000*
X296205*
X296545Y262156*
X296659Y262469*
X292000Y265281D02*
Y262000D01*
Y265281D02*
X291205D01*
X290864Y265125*
X290636Y264813*
X290636D02*
X290523Y264500D01*
X290409Y264031*
Y263250*
X290523Y262781*
X290636Y262469*
X290864Y262156*
X291205Y262000*
X292000*
X289159Y265281D02*
X287909D01*
X288591Y264031*
X288250*
X288023Y263875*
X287909Y263719*
X287795Y263250*
Y262938*
X287795D02*
X287909Y262469D01*
X288136Y262156*
X288477Y262000*
X288818*
X289159Y262156*
X289273Y262313*
X289273D02*
X289386Y262625D01*
X286091Y265281D02*
X286432Y265125D01*
X286659Y264656*
X286773Y263875*
Y263406*
X286659Y262625*
X286432Y262156*
X286091Y262000*
X285864*
X285523Y262156*
X285295Y262625*
X285182Y263406*
Y263875*
X285295Y264656*
X285523Y265125*
X285864Y265281*
X286091*
X282000D02*
Y262000D01*
Y265281D02*
X281205D01*
X280864Y265125*
X280636Y264813*
X280636D02*
X280523Y264500D01*
X280409Y264031*
Y263250*
X280523Y262781*
X280636Y262469*
X280864Y262156*
X281205Y262000*
X282000*
X279159Y265281D02*
X277909D01*
X278591Y264031*
X278250*
X278023Y263875*
X277909Y263719*
X277795Y263250*
Y262938*
X277795D02*
X277909Y262469D01*
X278136Y262156*
X278477Y262000*
X278818*
X279159Y262156*
X279273Y262313*
X279273D02*
X279386Y262625D01*
X276773Y264656D02*
X276545Y264813D01*
X276545D02*
X276205Y265281D01*
Y262000*
X247000Y382281D02*
Y379000D01*
Y382281D02*
X246205D01*
X245864Y382125*
X245636Y381813*
X245636D02*
X245523Y381500D01*
X245409Y381031*
Y380250*
X245523Y379781*
X245636Y379469*
X245864Y379156*
X246205Y379000*
X247000*
X244159Y382281D02*
X242909D01*
X243591Y381031*
X243250*
X243023Y380875*
X242909Y380719*
X242795Y380250*
Y379938*
X242795D02*
X242909Y379469D01*
X243136Y379156*
X243477Y379000*
X243818*
X244159Y379156*
X244273Y379313*
X244273D02*
X244386Y379625D01*
X241659Y381500D02*
Y381656D01*
X241545Y381969*
X241432Y382125*
X241205Y382281*
X240750*
X240523Y382125*
X240409Y381969*
X240295Y381656*
Y381344*
X240409Y381031*
X240636Y380563*
X240636D02*
X241773Y379000D01*
X240182*
X247000Y392281D02*
Y389000D01*
Y392281D02*
X246205D01*
X245864Y392125*
X245636Y391813*
X245636D02*
X245523Y391500D01*
X245409Y391031*
Y390250*
X245523Y389781*
X245636Y389469*
X245864Y389156*
X246205Y389000*
X247000*
X244159Y392281D02*
X242909D01*
X243591Y391031*
X243250*
X243023Y390875*
X242909Y390719*
X242795Y390250*
Y389938*
X242795D02*
X242909Y389469D01*
X243136Y389156*
X243477Y389000*
X243818*
X244159Y389156*
X244273Y389313*
X244273D02*
X244386Y389625D01*
X241545Y392281D02*
X240295D01*
X240977Y391031*
X240636*
X240409Y390875*
X240295Y390719*
X240182Y390250*
Y389938*
X240182D02*
X240295Y389469D01*
X240523Y389156*
X240864Y389000*
X241205*
X241545Y389156*
X241659Y389313*
X241659D02*
X241773Y389625D01*
X321000Y443281D02*
Y440000D01*
Y443281D02*
X320205D01*
X319864Y443125*
X319636Y442813*
X319636D02*
X319523Y442500D01*
X319409Y442031*
Y441250*
X319523Y440781*
X319636Y440469*
X319864Y440156*
X320205Y440000*
X321000*
X318159Y443281D02*
X316909D01*
X317591Y442031*
X317250*
X317023Y441875*
X316909Y441719*
X316795Y441250*
Y440938*
X316795D02*
X316909Y440469D01*
X317136Y440156*
X317477Y440000*
X317818*
X318159Y440156*
X318273Y440313*
X318273D02*
X318386Y440625D01*
X314636Y443281D02*
X315773Y441094D01*
X314068*
X314636Y443281D02*
Y440000D01*
X331000Y443281D02*
Y440000D01*
Y443281D02*
X330205D01*
X329864Y443125*
X329636Y442813*
X329636D02*
X329523Y442500D01*
X329409Y442031*
Y441250*
X329523Y440781*
X329636Y440469*
X329864Y440156*
X330205Y440000*
X331000*
X328159Y443281D02*
X326909D01*
X327591Y442031*
X327250*
X327023Y441875*
X326909Y441719*
X326795Y441250*
Y440938*
X326795D02*
X326909Y440469D01*
X327136Y440156*
X327477Y440000*
X327818*
X328159Y440156*
X328273Y440313*
X328273D02*
X328386Y440625D01*
X324295Y443281D02*
X325432D01*
X325545Y441875*
X325432Y442031*
X325091Y442188*
X325091D02*
X324750D01*
X324750D02*
X324409Y442031D01*
X324182Y441719*
X324068Y441250*
X324182Y440938*
X324182D02*
X324295Y440469D01*
X324523Y440156*
X324864Y440000*
X325205*
X325545Y440156*
X325659Y440313*
X325659D02*
X325773Y440625D01*
X301000Y443281D02*
Y440000D01*
Y443281D02*
X300205D01*
X299864Y443125*
X299636Y442813*
X299636D02*
X299523Y442500D01*
X299409Y442031*
Y441250*
X299523Y440781*
X299636Y440469*
X299864Y440156*
X300205Y440000*
X301000*
X298159Y443281D02*
X296909D01*
X297591Y442031*
X297250*
X297023Y441875*
X296909Y441719*
X296795Y441250*
Y440938*
X296795D02*
X296909Y440469D01*
X297136Y440156*
X297477Y440000*
X297818*
X298159Y440156*
X298273Y440313*
X298273D02*
X298386Y440625D01*
X294409Y442813D02*
X294523Y443125D01*
X294864Y443281*
X295091*
X295432Y443125*
X295659Y442656*
X295773Y441875*
Y441094*
X295659Y440469*
X295432Y440156*
X295091Y440000*
X294977*
X294636Y440156*
X294409Y440469*
X294295Y440938*
X294295D02*
Y441094D01*
X294409Y441563*
X294409D02*
X294636Y441875D01*
X294977Y442031*
X295091*
X295432Y441875*
X295659Y441563*
X295659D02*
X295773Y441094D01*
X311000Y443281D02*
Y440000D01*
Y443281D02*
X310205D01*
X309864Y443125*
X309636Y442813*
X309636D02*
X309523Y442500D01*
X309409Y442031*
Y441250*
X309523Y440781*
X309636Y440469*
X309864Y440156*
X310205Y440000*
X311000*
X308159Y443281D02*
X306909D01*
X307591Y442031*
X307250*
X307023Y441875*
X306909Y441719*
X306795Y441250*
Y440938*
X306795D02*
X306909Y440469D01*
X307136Y440156*
X307477Y440000*
X307818*
X308159Y440156*
X308273Y440313*
X308273D02*
X308386Y440625D01*
X304182Y443281D02*
X305318Y440000D01*
X305773Y443281D02*
X304182D01*
X361000D02*
Y440000D01*
Y443281D02*
X360205D01*
X359864Y443125*
X359636Y442813*
X359636D02*
X359523Y442500D01*
X359409Y442031*
Y441250*
X359523Y440781*
X359636Y440469*
X359864Y440156*
X360205Y440000*
X361000*
X358159Y443281D02*
X356909D01*
X357591Y442031*
X357250*
X357023Y441875*
X356909Y441719*
X356795Y441250*
Y440938*
X356795D02*
X356909Y440469D01*
X357136Y440156*
X357477Y440000*
X357818*
X358159Y440156*
X358273Y440313*
X358273D02*
X358386Y440625D01*
X355205Y443281D02*
X355545Y443125D01*
X355659Y442813*
X355659D02*
Y442500D01*
X355545Y442188*
X355545D02*
X355318Y442031D01*
X354864Y441875*
X354523Y441719*
X354295Y441406*
X354182Y441094*
Y440625*
X354295Y440313*
X354295D02*
X354409Y440156D01*
X354750Y440000*
X355205*
X355545Y440156*
X355659Y440313*
X355659D02*
X355773Y440625D01*
Y441094*
X355659Y441406*
X355432Y441719*
X355091Y441875*
X354636Y442031*
X354409Y442188*
X354409D02*
X354295Y442500D01*
Y442813*
X354295D02*
X354409Y443125D01*
X354750Y443281*
X355205*
X371000D02*
Y440000D01*
Y443281D02*
X370205D01*
X369864Y443125*
X369636Y442813*
X369636D02*
X369523Y442500D01*
X369409Y442031*
Y441250*
X369523Y440781*
X369636Y440469*
X369864Y440156*
X370205Y440000*
X371000*
X368159Y443281D02*
X366909D01*
X367591Y442031*
X367250*
X367023Y441875*
X366909Y441719*
X366795Y441250*
Y440938*
X366795D02*
X366909Y440469D01*
X367136Y440156*
X367477Y440000*
X367818*
X368159Y440156*
X368273Y440313*
X368273D02*
X368386Y440625D01*
X364295Y442188D02*
X364409Y441719D01*
X364636Y441406*
X364977Y441250*
X365091*
X365432Y441406*
X365659Y441719*
X365773Y442188*
X365773D02*
Y442344D01*
X365659Y442813*
X365659D02*
X365432Y443125D01*
X365091Y443281*
X364977*
X364636Y443125*
X364409Y442813*
X364409D02*
X364295Y442188D01*
X364295D02*
Y441406D01*
X364409Y440625*
X364636Y440156*
X364977Y440000*
X365205*
X365545Y440156*
X365659Y440469*
X341000Y443281D02*
Y440000D01*
Y443281D02*
X340205D01*
X339864Y443125*
X339636Y442813*
X339636D02*
X339523Y442500D01*
X339409Y442031*
Y441250*
X339523Y440781*
X339636Y440469*
X339864Y440156*
X340205Y440000*
X341000*
X337250Y443281D02*
X338386Y441094D01*
X336682*
X337250Y443281D02*
Y440000D01*
X334977Y443281D02*
X335318Y443125D01*
X335545Y442656*
X335659Y441875*
Y441406*
X335545Y440625*
X335318Y440156*
X334977Y440000*
X334750*
X334409Y440156*
X334182Y440625*
X334068Y441406*
Y441875*
X334182Y442656*
X334409Y443125*
X334750Y443281*
X334977*
X351000D02*
Y440000D01*
Y443281D02*
X350205D01*
X349864Y443125*
X349636Y442813*
X349636D02*
X349523Y442500D01*
X349409Y442031*
Y441250*
X349523Y440781*
X349636Y440469*
X349864Y440156*
X350205Y440000*
X351000*
X347250Y443281D02*
X348386Y441094D01*
X346682*
X347250Y443281D02*
Y440000D01*
X345659Y442656D02*
X345432Y442813D01*
X345432D02*
X345091Y443281D01*
Y440000*
X331000Y265281D02*
Y262000D01*
Y265281D02*
X330205D01*
X329864Y265125*
X329636Y264813*
X329636D02*
X329523Y264500D01*
X329409Y264031*
Y263250*
X329523Y262781*
X329636Y262469*
X329864Y262156*
X330205Y262000*
X331000*
X326909Y264188D02*
X327023Y263719D01*
X327250Y263406*
X327591Y263250*
X327705*
X328045Y263406*
X328273Y263719*
X328386Y264188*
X328386D02*
Y264344D01*
X328273Y264813*
X328273D02*
X328045Y265125D01*
X327705Y265281*
X327591*
X327250Y265125*
X327023Y264813*
X327023D02*
X326909Y264188D01*
X326909D02*
Y263406D01*
X327023Y262625*
X327250Y262156*
X327591Y262000*
X327818*
X328159Y262156*
X328273Y262469*
X457000Y424281D02*
Y421000D01*
Y424281D02*
X456205D01*
X455864Y424125*
X455636Y423813*
X455636D02*
X455523Y423500D01*
X455409Y423031*
Y422250*
X455523Y421781*
X455636Y421469*
X455864Y421156*
X456205Y421000*
X457000*
X453250Y424281D02*
X454386Y422094D01*
X452682*
X453250Y424281D02*
Y421000D01*
X450182Y424281D02*
X451318D01*
X451432Y422875*
X451318Y423031*
X450977Y423188*
X450977D02*
X450636D01*
X450636D02*
X450295Y423031D01*
X450068Y422719*
X449955Y422250*
X450068Y421938*
X450068D02*
X450182Y421469D01*
X450409Y421156*
X450750Y421000*
X451091*
X451432Y421156*
X451545Y421313*
X451545D02*
X451659Y421625D01*
X502000Y424281D02*
Y421000D01*
Y424281D02*
X501205D01*
X500864Y424125*
X500636Y423813*
X500636D02*
X500523Y423500D01*
X500409Y423031*
Y422250*
X500523Y421781*
X500636Y421469*
X500864Y421156*
X501205Y421000*
X502000*
X498250Y424281D02*
X499386Y422094D01*
X497682*
X498250Y424281D02*
Y421000D01*
X495295Y423813D02*
X495409Y424125D01*
X495750Y424281*
X495977*
X496318Y424125*
X496545Y423656*
X496659Y422875*
Y422094*
X496545Y421469*
X496318Y421156*
X495977Y421000*
X495864*
X495523Y421156*
X495295Y421469*
X495182Y421938*
X495182D02*
Y422094D01*
X495295Y422563*
X495295D02*
X495523Y422875D01*
X495864Y423031*
X495977*
X496318Y422875*
X496545Y422563*
X496545D02*
X496659Y422094D01*
X492000Y424281D02*
Y421000D01*
Y424281D02*
X491205D01*
X490864Y424125*
X490636Y423813*
X490636D02*
X490523Y423500D01*
X490409Y423031*
Y422250*
X490523Y421781*
X490636Y421469*
X490864Y421156*
X491205Y421000*
X492000*
X488250Y424281D02*
X489386Y422094D01*
X487682*
X488250Y424281D02*
Y421000D01*
X485068Y424281D02*
X486205Y421000D01*
X486659Y424281D02*
X485068D01*
X492000Y321281D02*
Y318000D01*
Y321281D02*
X491205D01*
X490864Y321125*
X490636Y320813*
X490636D02*
X490523Y320500D01*
X490409Y320031*
Y319250*
X490523Y318781*
X490636Y318469*
X490864Y318156*
X491205Y318000*
X492000*
X488250Y321281D02*
X489386Y319094D01*
X487682*
X488250Y321281D02*
Y318000D01*
X486091Y321281D02*
X486432Y321125D01*
X486545Y320813*
X486545D02*
Y320500D01*
X486432Y320188*
X486432D02*
X486205Y320031D01*
X485750Y319875*
X485409Y319719*
X485182Y319406*
X485068Y319094*
Y318625*
X485182Y318313*
X485182D02*
X485295Y318156D01*
X485636Y318000*
X486091*
X486432Y318156*
X486545Y318313*
X486545D02*
X486659Y318625D01*
Y319094*
X486545Y319406*
X486318Y319719*
X485977Y319875*
X485523Y320031*
X485295Y320188*
X485295D02*
X485182Y320500D01*
Y320813*
X485182D02*
X485295Y321125D01*
X485636Y321281*
X486091*
X492000Y329281D02*
Y326000D01*
Y329281D02*
X491205D01*
X490864Y329125*
X490636Y328813*
X490636D02*
X490523Y328500D01*
X490409Y328031*
Y327250*
X490523Y326781*
X490636Y326469*
X490864Y326156*
X491205Y326000*
X492000*
X488250Y329281D02*
X489386Y327094D01*
X487682*
X488250Y329281D02*
Y326000D01*
X485182Y328188D02*
X485295Y327719D01*
X485523Y327406*
X485864Y327250*
X485977*
X486318Y327406*
X486545Y327719*
X486659Y328188*
X486659D02*
Y328344D01*
X486545Y328813*
X486545D02*
X486318Y329125D01*
X485977Y329281*
X485864*
X485523Y329125*
X485295Y328813*
X485295D02*
X485182Y328188D01*
X485182D02*
Y327406D01*
X485295Y326625*
X485523Y326156*
X485864Y326000*
X486091*
X486432Y326156*
X486545Y326469*
X492000Y337281D02*
Y334000D01*
Y337281D02*
X491205D01*
X490864Y337125*
X490636Y336813*
X490636D02*
X490523Y336500D01*
X490409Y336031*
Y335250*
X490523Y334781*
X490636Y334469*
X490864Y334156*
X491205Y334000*
X492000*
X487909Y337281D02*
X489045D01*
X489159Y335875*
X489045Y336031*
X488705Y336188*
X488705D02*
X488364D01*
X488364D02*
X488023Y336031D01*
X487795Y335719*
X487682Y335250*
X487795Y334938*
X487795D02*
X487909Y334469D01*
X488136Y334156*
X488477Y334000*
X488818*
X489159Y334156*
X489273Y334313*
X489273D02*
X489386Y334625D01*
X485977Y337281D02*
X486318Y337125D01*
X486545Y336656*
X486659Y335875*
Y335406*
X486545Y334625*
X486318Y334156*
X485977Y334000*
X485750*
X485409Y334156*
X485182Y334625*
X485068Y335406*
Y335875*
X485182Y336656*
X485409Y337125*
X485750Y337281*
X485977*
X492000Y369281D02*
Y366000D01*
Y369281D02*
X491205D01*
X490864Y369125*
X490636Y368813*
X490636D02*
X490523Y368500D01*
X490409Y368031*
Y367250*
X490523Y366781*
X490636Y366469*
X490864Y366156*
X491205Y366000*
X492000*
X487909Y369281D02*
X489045D01*
X489159Y367875*
X489045Y368031*
X488705Y368188*
X488705D02*
X488364D01*
X488364D02*
X488023Y368031D01*
X487795Y367719*
X487682Y367250*
X487795Y366938*
X487795D02*
X487909Y366469D01*
X488136Y366156*
X488477Y366000*
X488818*
X489159Y366156*
X489273Y366313*
X489273D02*
X489386Y366625D01*
X486659Y368656D02*
X486432Y368813D01*
X486432D02*
X486091Y369281D01*
Y366000*
X522000Y326281D02*
Y323000D01*
Y326281D02*
X520977D01*
X520636Y326125*
X520523Y325969*
X520409Y325656*
Y325344*
X520523Y325031*
X520636Y324875*
X520977Y324719*
X522000*
X521205D02*
X520409Y323000D01*
X518250Y326281D02*
X519386Y324094D01*
X517682*
X518250Y326281D02*
Y323000D01*
X515523Y326281D02*
X516659Y324094D01*
X514955*
X515523Y326281D02*
Y323000D01*
X368105Y544100D02*
X367991Y543787D01*
X367991D02*
X367764Y543475D01*
X367536Y543319*
X367082*
X366855Y543475*
X366627Y543787*
X366627D02*
X366514Y544100D01*
X366400Y544569*
Y545350*
X366514Y545819*
X366627Y546131*
X366855Y546444*
X367082Y546600*
X367536*
X367764Y546444*
X367991Y546131*
X368105Y545819*
X369127Y543944D02*
X369355Y543787D01*
X369355D02*
X369695Y543319D01*
Y546600*
X370832Y544100D02*
Y543944D01*
X370945Y543631*
X371059Y543475*
X371286Y543319*
X371741*
X371968Y543475*
X372082Y543631*
X372195Y543944*
Y544256*
X372082Y544569*
X371855Y545037*
X371855D02*
X370718Y546600D01*
X372309*
X374809Y544412D02*
X374695Y544881D01*
X374468Y545194*
X374127Y545350*
X374014*
X373673Y545194*
X373445Y544881*
X373332Y544412*
X373332D02*
Y544256D01*
X373445Y543787*
X373445D02*
X373673Y543475D01*
X374014Y543319*
X374127*
X374468Y543475*
X374695Y543787*
X374695D02*
X374809Y544412D01*
X374809D02*
Y545194D01*
X374695Y545975*
X374468Y546444*
X374127Y546600*
X373900*
X373559Y546444*
X373445Y546131*
X267295Y819500D02*
X267409Y819813D01*
X267409D02*
X267636Y820125D01*
X267864Y820281*
X268318*
X268545Y820125*
X268773Y819813*
X268773D02*
X268886Y819500D01*
X269000Y819031*
Y818250*
X268886Y817781*
X268773Y817469*
X268545Y817156*
X268318Y817000*
X267864*
X267636Y817156*
X267409Y817469*
X267295Y817781*
X266273Y819656D02*
X266045Y819813D01*
X266045D02*
X265705Y820281D01*
Y817000*
X264682Y819656D02*
X264455Y819813D01*
X264455D02*
X264114Y820281D01*
Y817000*
X261500Y820281D02*
X262636Y817000D01*
X263091Y820281D02*
X261500D01*
X290000D02*
Y817000D01*
Y820281D02*
X288977D01*
X288636Y820125*
X288523Y819969*
X288409Y819656*
Y819344*
X288523Y819031*
X288636Y818875*
X288977Y818719*
X290000*
X289205D02*
X288409Y817000D01*
X285795Y820281D02*
X286932Y817000D01*
X287386Y820281D02*
X285795D01*
X283182D02*
X284318Y817000D01*
X284773Y820281D02*
X283182D01*
X405000Y732281D02*
Y729000D01*
Y732281D02*
X404205D01*
X403864Y732125*
X403636Y731813*
X403636D02*
X403523Y731500D01*
X403409Y731031*
Y730250*
X403523Y729781*
X403636Y729469*
X403864Y729156*
X404205Y729000*
X405000*
X400795Y732281D02*
X401932Y729000D01*
X402386Y732281D02*
X400795D01*
X399659Y731500D02*
Y731656D01*
X399545Y731969*
X399432Y732125*
X399205Y732281*
X398750*
X398523Y732125*
X398409Y731969*
X398295Y731656*
Y731344*
X398409Y731031*
X398636Y730563*
X398636D02*
X399773Y729000D01*
X398182*
X395000Y732281D02*
Y729000D01*
Y732281D02*
X394205D01*
X393864Y732125*
X393636Y731813*
X393636D02*
X393523Y731500D01*
X393409Y731031*
Y730250*
X393523Y729781*
X393636Y729469*
X393864Y729156*
X394205Y729000*
X395000*
X390795Y732281D02*
X391932Y729000D01*
X392386Y732281D02*
X390795D01*
X389545D02*
X388295D01*
X388977Y731031*
X388636*
X388409Y730875*
X388295Y730719*
X388182Y730250*
Y729938*
X388182D02*
X388295Y729469D01*
X388523Y729156*
X388864Y729000*
X389205*
X389545Y729156*
X389659Y729313*
X389659D02*
X389773Y729625D01*
X385000Y732281D02*
Y729000D01*
Y732281D02*
X384205D01*
X383864Y732125*
X383636Y731813*
X383636D02*
X383523Y731500D01*
X383409Y731031*
Y730250*
X383523Y729781*
X383636Y729469*
X383864Y729156*
X384205Y729000*
X385000*
X380795Y732281D02*
X381932Y729000D01*
X382386Y732281D02*
X380795D01*
X378636D02*
X379773Y730094D01*
X378068*
X378636Y732281D02*
Y729000D01*
X280000Y800281D02*
Y797000D01*
Y800281D02*
X279205D01*
X278864Y800125*
X278636Y799813*
X278636D02*
X278523Y799500D01*
X278409Y799031*
Y798250*
X278523Y797781*
X278636Y797469*
X278864Y797156*
X279205Y797000*
X280000*
X276023Y799813D02*
X276136Y800125D01*
X276477Y800281*
X276705*
X277045Y800125*
X277273Y799656*
X277386Y798875*
Y798094*
X277273Y797469*
X277045Y797156*
X276705Y797000*
X276591*
X276250Y797156*
X276023Y797469*
X275909Y797938*
X275909D02*
Y798094D01*
X276023Y798563*
X276023D02*
X276250Y798875D01*
X276591Y799031*
X276705*
X277045Y798875*
X277273Y798563*
X277273D02*
X277386Y798094D01*
X273295Y800281D02*
X274432Y797000D01*
X274886Y800281D02*
X273295D01*
X421281Y693000D02*
X418000D01*
X421281D02*
Y693795D01*
X421125Y694136*
X420813Y694364*
X420813D02*
X420500Y694477D01*
X420031Y694591*
X419250*
X418781Y694477*
X418469Y694364*
X418156Y694136*
X418000Y693795*
Y693000*
X420813Y696977D02*
X421125Y696864D01*
X421281Y696523*
Y696295*
X421125Y695955*
X420656Y695727*
X419875Y695614*
X419094*
X418469Y695727*
X418156Y695955*
X418000Y696295*
Y696409*
X418156Y696750*
X418469Y696977*
X418938Y697091*
X418938D02*
X419094D01*
X419563Y696977*
X419563D02*
X419875Y696750D01*
X420031Y696409*
Y696295*
X419875Y695955*
X419563Y695727*
X419563D02*
X419094Y695614D01*
X420500Y698227D02*
X420656D01*
X420969Y698341*
X421125Y698455*
X421281Y698682*
Y699136*
X421125Y699364*
X420969Y699477*
X420656Y699591*
X420344*
X420031Y699477*
X419563Y699250*
X419563D02*
X418000Y698114D01*
Y699705*
X441281Y693000D02*
X438000D01*
X441281D02*
Y693795D01*
X441125Y694136*
X440813Y694364*
X440813D02*
X440500Y694477D01*
X440031Y694591*
X439250*
X438781Y694477*
X438469Y694364*
X438156Y694136*
X438000Y693795*
Y693000*
X440813Y696977D02*
X441125Y696864D01*
X441281Y696523*
Y696295*
X441125Y695955*
X440656Y695727*
X439875Y695614*
X439094*
X438469Y695727*
X438156Y695955*
X438000Y696295*
Y696409*
X438156Y696750*
X438469Y696977*
X438938Y697091*
X438938D02*
X439094D01*
X439563Y696977*
X439563D02*
X439875Y696750D01*
X440031Y696409*
Y696295*
X439875Y695955*
X439563Y695727*
X439563D02*
X439094Y695614D01*
X441281Y699250D02*
X439094Y698114D01*
Y699818*
X441281Y699250D02*
X438000D01*
X449000Y753281D02*
Y750000D01*
Y753281D02*
X448205D01*
X447864Y753125*
X447636Y752813*
X447636D02*
X447523Y752500D01*
X447409Y752031*
Y751250*
X447523Y750781*
X447636Y750469*
X447864Y750156*
X448205Y750000*
X449000*
X445023Y752813D02*
X445136Y753125D01*
X445477Y753281*
X445705*
X446045Y753125*
X446273Y752656*
X446386Y751875*
Y751094*
X446273Y750469*
X446045Y750156*
X445705Y750000*
X445591*
X445250Y750156*
X445023Y750469*
X444909Y750938*
X444909D02*
Y751094D01*
X445023Y751563*
X445023D02*
X445250Y751875D01*
X445591Y752031*
X445705*
X446045Y751875*
X446273Y751563*
X446273D02*
X446386Y751094D01*
X442409Y753281D02*
X443545D01*
X443659Y751875*
X443545Y752031*
X443205Y752188*
X443205D02*
X442864D01*
X442864D02*
X442523Y752031D01*
X442295Y751719*
X442182Y751250*
X442295Y750938*
X442295D02*
X442409Y750469D01*
X442636Y750156*
X442977Y750000*
X443318*
X443659Y750156*
X443773Y750313*
X443773D02*
X443886Y750625D01*
X251000Y800281D02*
Y797000D01*
Y800281D02*
X250205D01*
X249864Y800125*
X249636Y799813*
X249636D02*
X249523Y799500D01*
X249409Y799031*
Y798250*
X249523Y797781*
X249636Y797469*
X249864Y797156*
X250205Y797000*
X251000*
X247023Y799813D02*
X247136Y800125D01*
X247477Y800281*
X247705*
X248045Y800125*
X248273Y799656*
X248386Y798875*
Y798094*
X248273Y797469*
X248045Y797156*
X247705Y797000*
X247591*
X247250Y797156*
X247023Y797469*
X246909Y797938*
X246909D02*
Y798094D01*
X247023Y798563*
X247023D02*
X247250Y798875D01*
X247591Y799031*
X247705*
X248045Y798875*
X248273Y798563*
X248273D02*
X248386Y798094D01*
X244409Y799188D02*
X244523Y798719D01*
X244750Y798406*
X245091Y798250*
X245205*
X245545Y798406*
X245773Y798719*
X245886Y799188*
X245886D02*
Y799344D01*
X245773Y799813*
X245773D02*
X245545Y800125D01*
X245205Y800281*
X245091*
X244750Y800125*
X244523Y799813*
X244523D02*
X244409Y799188D01*
X244409D02*
Y798406D01*
X244523Y797625*
X244750Y797156*
X245091Y797000*
X245318*
X245659Y797156*
X245773Y797469*
X261000Y800281D02*
Y797000D01*
Y800281D02*
X260205D01*
X259864Y800125*
X259636Y799813*
X259636D02*
X259523Y799500D01*
X259409Y799031*
Y798250*
X259523Y797781*
X259636Y797469*
X259864Y797156*
X260205Y797000*
X261000*
X256795Y800281D02*
X257932Y797000D01*
X258386Y800281D02*
X256795D01*
X255091D02*
X255432Y800125D01*
X255659Y799656*
X255773Y798875*
Y798406*
X255659Y797625*
X255432Y797156*
X255091Y797000*
X254864*
X254523Y797156*
X254295Y797625*
X254182Y798406*
Y798875*
X254295Y799656*
X254523Y800125*
X254864Y800281*
X255091*
X271000D02*
Y797000D01*
Y800281D02*
X270205D01*
X269864Y800125*
X269636Y799813*
X269636D02*
X269523Y799500D01*
X269409Y799031*
Y798250*
X269523Y797781*
X269636Y797469*
X269864Y797156*
X270205Y797000*
X271000*
X266795Y800281D02*
X267932Y797000D01*
X268386Y800281D02*
X266795D01*
X265773Y799656D02*
X265545Y799813D01*
X265545D02*
X265205Y800281D01*
Y797000*
X431281Y693000D02*
X428000D01*
X431281D02*
Y694023D01*
X431125Y694364*
X430969Y694477*
X430656Y694591*
X430344*
X430031Y694477*
X429875Y694364*
X429719Y694023*
Y693000*
Y693795D02*
X428000Y694591D01*
X430656Y695614D02*
X430813Y695841D01*
X430813D02*
X431281Y696182D01*
X428000*
X430500Y697318D02*
X430656D01*
X430969Y697432*
X431125Y697545*
X431281Y697773*
Y698227*
X431125Y698455*
X430969Y698568*
X430656Y698682*
X430344*
X430031Y698568*
X429563Y698341*
X429563D02*
X428000Y697205D01*
Y698795*
X430500Y699932D02*
X430656D01*
X430969Y700045*
X431125Y700159*
X431281Y700386*
Y700841*
X431125Y701068*
X430969Y701182*
X430656Y701295*
X430344*
X430031Y701182*
X429563Y700955*
X429563D02*
X428000Y699818D01*
Y701409*
X425500Y694705D02*
X425813Y694591D01*
X425813D02*
X426125Y694364D01*
X426281Y694136*
Y693682*
X426125Y693455*
X425813Y693227*
X425813D02*
X425500Y693114D01*
X425031Y693000*
X424250*
X423781Y693114*
X423469Y693227*
X423156Y693455*
X423000Y693682*
Y694136*
X423156Y694364*
X423469Y694591*
X423781Y694705*
X425656Y695727D02*
X425813Y695955D01*
X425813D02*
X426281Y696295D01*
X423000*
X426281Y697545D02*
Y698795D01*
X425031Y698114*
Y698455*
X424875Y698682*
X424719Y698795*
X424250Y698909*
X423938*
X423938D02*
X423469Y698795D01*
X423156Y698568*
X423000Y698227*
Y697886*
X423156Y697545*
X423313Y697432*
X423313D02*
X423625Y697318D01*
X425500Y700045D02*
X425656D01*
X425969Y700159*
X426125Y700273*
X426281Y700500*
Y700955*
X426125Y701182*
X425969Y701295*
X425656Y701409*
X425344*
X425031Y701295*
X424563Y701068*
X424563D02*
X423000Y699932D01*
Y701523*
X432000Y753281D02*
Y750000D01*
Y753281D02*
X430977D01*
X430636Y753125*
X430523Y752969*
X430409Y752656*
Y752344*
X430523Y752031*
X430636Y751875*
X430977Y751719*
X432000*
X431205D02*
X430409Y750000D01*
X429386Y752656D02*
X429159Y752813D01*
X428818Y753281*
Y750000*
X427682Y752500D02*
Y752656D01*
X427568Y752969*
X427455Y753125*
X427227Y753281*
X426773*
X426545Y753125*
X426432Y752969*
X426318Y752656*
Y752344*
X426432Y752031*
X426659Y751563*
X427795Y750000*
X426205*
X424955Y753281D02*
X423705D01*
X424386Y752031*
X424045*
X423818Y751875*
X423705Y751719*
X423591Y751250*
Y750938*
X423705Y750469*
X423932Y750156*
X424273Y750000*
X424614*
X424955Y750156*
X425068Y750313*
X425182Y750625*
X436281Y693000D02*
X433000D01*
X436281D02*
Y694023D01*
X436125Y694364*
X435969Y694477*
X435656Y694591*
X435344*
X435031Y694477*
X434875Y694364*
X434719Y694023*
Y693000*
Y693795D02*
X433000Y694591D01*
X435656Y695614D02*
X435813Y695841D01*
X435813D02*
X436281Y696182D01*
X433000*
X435500Y697318D02*
X435656D01*
X435969Y697432*
X436125Y697545*
X436281Y697773*
Y698227*
X436125Y698455*
X435969Y698568*
X435656Y698682*
X435344*
X435031Y698568*
X434563Y698341*
X434563D02*
X433000Y697205D01*
Y698795*
X436281Y700955D02*
X434094Y699818D01*
Y701523*
X436281Y700955D02*
X433000D01*
X322000Y644281D02*
Y641000D01*
Y644281D02*
X321205D01*
X320864Y644125*
X320636Y643813*
X320636D02*
X320523Y643500D01*
X320409Y643031*
Y642250*
X320523Y641781*
X320636Y641469*
X320864Y641156*
X321205Y641000*
X322000*
X318023Y643813D02*
X318136Y644125D01*
X318477Y644281*
X318705*
X319045Y644125*
X319273Y643656*
X319386Y642875*
Y642094*
X319273Y641469*
X319045Y641156*
X318705Y641000*
X318591*
X318250Y641156*
X318023Y641469*
X317909Y641938*
X317909D02*
Y642094D01*
X318023Y642563*
X318023D02*
X318250Y642875D01*
X318591Y643031*
X318705*
X319045Y642875*
X319273Y642563*
X319273D02*
X319386Y642094D01*
X316205Y644281D02*
X316545Y644125D01*
X316773Y643656*
X316886Y642875*
Y642406*
X316773Y641625*
X316545Y641156*
X316205Y641000*
X315977*
X315636Y641156*
X315409Y641625*
X315295Y642406*
Y642875*
X315409Y643656*
X315636Y644125*
X315977Y644281*
X316205*
X312000D02*
Y641000D01*
Y644281D02*
X311205D01*
X310864Y644125*
X310636Y643813*
X310636D02*
X310523Y643500D01*
X310409Y643031*
Y642250*
X310523Y641781*
X310636Y641469*
X310864Y641156*
X311205Y641000*
X312000*
X308023Y643813D02*
X308136Y644125D01*
X308477Y644281*
X308705*
X309045Y644125*
X309273Y643656*
X309386Y642875*
Y642094*
X309273Y641469*
X309045Y641156*
X308705Y641000*
X308591*
X308250Y641156*
X308023Y641469*
X307909Y641938*
X307909D02*
Y642094D01*
X308023Y642563*
X308023D02*
X308250Y642875D01*
X308591Y643031*
X308705*
X309045Y642875*
X309273Y642563*
X309273D02*
X309386Y642094D01*
X306886Y643656D02*
X306659Y643813D01*
X306659D02*
X306318Y644281D01*
Y641000*
X341000Y644281D02*
Y641000D01*
Y644281D02*
X340205D01*
X339864Y644125*
X339636Y643813*
X339636D02*
X339523Y643500D01*
X339409Y643031*
Y642250*
X339523Y641781*
X339636Y641469*
X339864Y641156*
X340205Y641000*
X341000*
X336909Y644281D02*
X338045D01*
X338159Y642875*
X338045Y643031*
X337705Y643188*
X337705D02*
X337364D01*
X337364D02*
X337023Y643031D01*
X336795Y642719*
X336682Y642250*
X336795Y641938*
X336795D02*
X336909Y641469D01*
X337136Y641156*
X337477Y641000*
X337818*
X338159Y641156*
X338273Y641313*
X338273D02*
X338386Y641625D01*
X335545Y643500D02*
Y643656D01*
X335432Y643969*
X335318Y644125*
X335091Y644281*
X334636*
X334409Y644125*
X334295Y643969*
X334182Y643656*
Y643344*
X334295Y643031*
X334523Y642563*
X334523D02*
X335659Y641000D01*
X334068*
X302000Y644281D02*
Y641000D01*
Y644281D02*
X301205D01*
X300864Y644125*
X300636Y643813*
X300636D02*
X300523Y643500D01*
X300409Y643031*
Y642250*
X300523Y641781*
X300636Y641469*
X300864Y641156*
X301205Y641000*
X302000*
X297795Y644281D02*
X298932Y641000D01*
X299386Y644281D02*
X297795D01*
X296205D02*
X296545Y644125D01*
X296659Y643813*
X296659D02*
Y643500D01*
X296545Y643188*
X296545D02*
X296318Y643031D01*
X295864Y642875*
X295523Y642719*
X295295Y642406*
X295182Y642094*
Y641625*
X295295Y641313*
X295295D02*
X295409Y641156D01*
X295750Y641000*
X296205*
X296545Y641156*
X296659Y641313*
X296659D02*
X296773Y641625D01*
Y642094*
X296659Y642406*
X296432Y642719*
X296091Y642875*
X295636Y643031*
X295409Y643188*
X295409D02*
X295295Y643500D01*
Y643813*
X295295D02*
X295409Y644125D01*
X295750Y644281*
X296205*
X292000D02*
Y641000D01*
Y644281D02*
X291205D01*
X290864Y644125*
X290636Y643813*
X290636D02*
X290523Y643500D01*
X290409Y643031*
Y642250*
X290523Y641781*
X290636Y641469*
X290864Y641156*
X291205Y641000*
X292000*
X287795Y644281D02*
X288932Y641000D01*
X289386Y644281D02*
X287795D01*
X285295Y643188D02*
X285409Y642719D01*
X285636Y642406*
X285977Y642250*
X286091*
X286432Y642406*
X286659Y642719*
X286773Y643188*
X286773D02*
Y643344D01*
X286659Y643813*
X286659D02*
X286432Y644125D01*
X286091Y644281*
X285977*
X285636Y644125*
X285409Y643813*
X285409D02*
X285295Y643188D01*
X285295D02*
Y642406D01*
X285409Y641625*
X285636Y641156*
X285977Y641000*
X286205*
X286545Y641156*
X286659Y641469*
X282000Y644281D02*
Y641000D01*
Y644281D02*
X281205D01*
X280864Y644125*
X280636Y643813*
X280636D02*
X280523Y643500D01*
X280409Y643031*
Y642250*
X280523Y641781*
X280636Y641469*
X280864Y641156*
X281205Y641000*
X282000*
X278818Y644281D02*
X279159Y644125D01*
X279273Y643813*
X279273D02*
Y643500D01*
X279159Y643188*
X279159D02*
X278932Y643031D01*
X278477Y642875*
X278136Y642719*
X277909Y642406*
X277795Y642094*
Y641625*
X277909Y641313*
X277909D02*
X278023Y641156D01*
X278364Y641000*
X278818*
X279159Y641156*
X279273Y641313*
X279273D02*
X279386Y641625D01*
Y642094*
X279273Y642406*
X279045Y642719*
X278705Y642875*
X278250Y643031*
X278023Y643188*
X278023D02*
X277909Y643500D01*
Y643813*
X277909D02*
X278023Y644125D01*
X278364Y644281*
X278818*
X276091D02*
X276432Y644125D01*
X276659Y643656*
X276773Y642875*
Y642406*
X276659Y641625*
X276432Y641156*
X276091Y641000*
X275864*
X275523Y641156*
X275295Y641625*
X275182Y642406*
Y642875*
X275295Y643656*
X275523Y644125*
X275864Y644281*
X276091*
X247000Y761281D02*
Y758000D01*
Y761281D02*
X246205D01*
X245864Y761125*
X245636Y760813*
X245636D02*
X245523Y760500D01*
X245409Y760031*
Y759250*
X245523Y758781*
X245636Y758469*
X245864Y758156*
X246205Y758000*
X247000*
X243818Y761281D02*
X244159Y761125D01*
X244273Y760813*
X244273D02*
Y760500D01*
X244159Y760188*
X244159D02*
X243932Y760031D01*
X243477Y759875*
X243136Y759719*
X242909Y759406*
X242795Y759094*
Y758625*
X242909Y758313*
X242909D02*
X243023Y758156D01*
X243364Y758000*
X243818*
X244159Y758156*
X244273Y758313*
X244273D02*
X244386Y758625D01*
Y759094*
X244273Y759406*
X244045Y759719*
X243705Y759875*
X243250Y760031*
X243023Y760188*
X243023D02*
X242909Y760500D01*
Y760813*
X242909D02*
X243023Y761125D01*
X243364Y761281*
X243818*
X241773Y760656D02*
X241545Y760813D01*
X241545D02*
X241205Y761281D01*
Y758000*
X247000Y771281D02*
Y768000D01*
Y771281D02*
X246205D01*
X245864Y771125*
X245636Y770813*
X245636D02*
X245523Y770500D01*
X245409Y770031*
Y769250*
X245523Y768781*
X245636Y768469*
X245864Y768156*
X246205Y768000*
X247000*
X243818Y771281D02*
X244159Y771125D01*
X244273Y770813*
X244273D02*
Y770500D01*
X244159Y770188*
X244159D02*
X243932Y770031D01*
X243477Y769875*
X243136Y769719*
X242909Y769406*
X242795Y769094*
Y768625*
X242909Y768313*
X242909D02*
X243023Y768156D01*
X243364Y768000*
X243818*
X244159Y768156*
X244273Y768313*
X244273D02*
X244386Y768625D01*
Y769094*
X244273Y769406*
X244045Y769719*
X243705Y769875*
X243250Y770031*
X243023Y770188*
X243023D02*
X242909Y770500D01*
Y770813*
X242909D02*
X243023Y771125D01*
X243364Y771281*
X243818*
X241659Y770500D02*
Y770656D01*
X241545Y770969*
X241432Y771125*
X241205Y771281*
X240750*
X240523Y771125*
X240409Y770969*
X240295Y770656*
Y770344*
X240409Y770031*
X240636Y769563*
X240636D02*
X241773Y768000D01*
X240182*
X321000Y822281D02*
Y819000D01*
Y822281D02*
X320205D01*
X319864Y822125*
X319636Y821813*
X319636D02*
X319523Y821500D01*
X319409Y821031*
Y820250*
X319523Y819781*
X319636Y819469*
X319864Y819156*
X320205Y819000*
X321000*
X317818Y822281D02*
X318159Y822125D01*
X318273Y821813*
X318273D02*
Y821500D01*
X318159Y821188*
X318159D02*
X317932Y821031D01*
X317477Y820875*
X317136Y820719*
X316909Y820406*
X316795Y820094*
Y819625*
X316909Y819313*
X316909D02*
X317023Y819156D01*
X317364Y819000*
X317818*
X318159Y819156*
X318273Y819313*
X318273D02*
X318386Y819625D01*
Y820094*
X318273Y820406*
X318045Y820719*
X317705Y820875*
X317250Y821031*
X317023Y821188*
X317023D02*
X316909Y821500D01*
Y821813*
X316909D02*
X317023Y822125D01*
X317364Y822281*
X317818*
X315545D02*
X314295D01*
X314977Y821031*
X314636*
X314409Y820875*
X314295Y820719*
X314182Y820250*
Y819938*
X314182D02*
X314295Y819469D01*
X314523Y819156*
X314864Y819000*
X315205*
X315545Y819156*
X315659Y819313*
X315659D02*
X315773Y819625D01*
X331000Y822281D02*
Y819000D01*
Y822281D02*
X330205D01*
X329864Y822125*
X329636Y821813*
X329636D02*
X329523Y821500D01*
X329409Y821031*
Y820250*
X329523Y819781*
X329636Y819469*
X329864Y819156*
X330205Y819000*
X331000*
X327818Y822281D02*
X328159Y822125D01*
X328273Y821813*
X328273D02*
Y821500D01*
X328159Y821188*
X328159D02*
X327932Y821031D01*
X327477Y820875*
X327136Y820719*
X326909Y820406*
X326795Y820094*
Y819625*
X326909Y819313*
X326909D02*
X327023Y819156D01*
X327364Y819000*
X327818*
X328159Y819156*
X328273Y819313*
X328273D02*
X328386Y819625D01*
Y820094*
X328273Y820406*
X328045Y820719*
X327705Y820875*
X327250Y821031*
X327023Y821188*
X327023D02*
X326909Y821500D01*
Y821813*
X326909D02*
X327023Y822125D01*
X327364Y822281*
X327818*
X324636D02*
X325773Y820094D01*
X324068*
X324636Y822281D02*
Y819000D01*
X301000Y822281D02*
Y819000D01*
Y822281D02*
X300205D01*
X299864Y822125*
X299636Y821813*
X299636D02*
X299523Y821500D01*
X299409Y821031*
Y820250*
X299523Y819781*
X299636Y819469*
X299864Y819156*
X300205Y819000*
X301000*
X297818Y822281D02*
X298159Y822125D01*
X298273Y821813*
X298273D02*
Y821500D01*
X298159Y821188*
X298159D02*
X297932Y821031D01*
X297477Y820875*
X297136Y820719*
X296909Y820406*
X296795Y820094*
Y819625*
X296909Y819313*
X296909D02*
X297023Y819156D01*
X297364Y819000*
X297818*
X298159Y819156*
X298273Y819313*
X298273D02*
X298386Y819625D01*
Y820094*
X298273Y820406*
X298045Y820719*
X297705Y820875*
X297250Y821031*
X297023Y821188*
X297023D02*
X296909Y821500D01*
Y821813*
X296909D02*
X297023Y822125D01*
X297364Y822281*
X297818*
X294295D02*
X295432D01*
X295545Y820875*
X295432Y821031*
X295091Y821188*
X295091D02*
X294750D01*
X294750D02*
X294409Y821031D01*
X294182Y820719*
X294068Y820250*
X294182Y819938*
X294182D02*
X294295Y819469D01*
X294523Y819156*
X294864Y819000*
X295205*
X295545Y819156*
X295659Y819313*
X295659D02*
X295773Y819625D01*
X311000Y822281D02*
Y819000D01*
Y822281D02*
X310205D01*
X309864Y822125*
X309636Y821813*
X309636D02*
X309523Y821500D01*
X309409Y821031*
Y820250*
X309523Y819781*
X309636Y819469*
X309864Y819156*
X310205Y819000*
X311000*
X307818Y822281D02*
X308159Y822125D01*
X308273Y821813*
X308273D02*
Y821500D01*
X308159Y821188*
X308159D02*
X307932Y821031D01*
X307477Y820875*
X307136Y820719*
X306909Y820406*
X306795Y820094*
Y819625*
X306909Y819313*
X306909D02*
X307023Y819156D01*
X307364Y819000*
X307818*
X308159Y819156*
X308273Y819313*
X308273D02*
X308386Y819625D01*
Y820094*
X308273Y820406*
X308045Y820719*
X307705Y820875*
X307250Y821031*
X307023Y821188*
X307023D02*
X306909Y821500D01*
Y821813*
X306909D02*
X307023Y822125D01*
X307364Y822281*
X307818*
X304409Y821813D02*
X304523Y822125D01*
X304864Y822281*
X305091*
X305432Y822125*
X305659Y821656*
X305773Y820875*
Y820094*
X305659Y819469*
X305432Y819156*
X305091Y819000*
X304977*
X304636Y819156*
X304409Y819469*
X304295Y819938*
X304295D02*
Y820094D01*
X304409Y820563*
X304409D02*
X304636Y820875D01*
X304977Y821031*
X305091*
X305432Y820875*
X305659Y820563*
X305659D02*
X305773Y820094D01*
X361000Y822281D02*
Y819000D01*
Y822281D02*
X360205D01*
X359864Y822125*
X359636Y821813*
X359636D02*
X359523Y821500D01*
X359409Y821031*
Y820250*
X359523Y819781*
X359636Y819469*
X359864Y819156*
X360205Y819000*
X361000*
X357818Y822281D02*
X358159Y822125D01*
X358273Y821813*
X358273D02*
Y821500D01*
X358159Y821188*
X358159D02*
X357932Y821031D01*
X357477Y820875*
X357136Y820719*
X356909Y820406*
X356795Y820094*
Y819625*
X356909Y819313*
X356909D02*
X357023Y819156D01*
X357364Y819000*
X357818*
X358159Y819156*
X358273Y819313*
X358273D02*
X358386Y819625D01*
Y820094*
X358273Y820406*
X358045Y820719*
X357705Y820875*
X357250Y821031*
X357023Y821188*
X357023D02*
X356909Y821500D01*
Y821813*
X356909D02*
X357023Y822125D01*
X357364Y822281*
X357818*
X354182D02*
X355318Y819000D01*
X355773Y822281D02*
X354182D01*
X371000D02*
Y819000D01*
Y822281D02*
X370205D01*
X369864Y822125*
X369636Y821813*
X369636D02*
X369523Y821500D01*
X369409Y821031*
Y820250*
X369523Y819781*
X369636Y819469*
X369864Y819156*
X370205Y819000*
X371000*
X367818Y822281D02*
X368159Y822125D01*
X368273Y821813*
X368273D02*
Y821500D01*
X368159Y821188*
X368159D02*
X367932Y821031D01*
X367477Y820875*
X367136Y820719*
X366909Y820406*
X366795Y820094*
Y819625*
X366909Y819313*
X366909D02*
X367023Y819156D01*
X367364Y819000*
X367818*
X368159Y819156*
X368273Y819313*
X368273D02*
X368386Y819625D01*
Y820094*
X368273Y820406*
X368045Y820719*
X367705Y820875*
X367250Y821031*
X367023Y821188*
X367023D02*
X366909Y821500D01*
Y821813*
X366909D02*
X367023Y822125D01*
X367364Y822281*
X367818*
X365205D02*
X365545Y822125D01*
X365659Y821813*
X365659D02*
Y821500D01*
X365545Y821188*
X365545D02*
X365318Y821031D01*
X364864Y820875*
X364523Y820719*
X364295Y820406*
X364182Y820094*
Y819625*
X364295Y819313*
X364295D02*
X364409Y819156D01*
X364750Y819000*
X365205*
X365545Y819156*
X365659Y819313*
X365659D02*
X365773Y819625D01*
Y820094*
X365659Y820406*
X365432Y820719*
X365091Y820875*
X364636Y821031*
X364409Y821188*
X364409D02*
X364295Y821500D01*
Y821813*
X364295D02*
X364409Y822125D01*
X364750Y822281*
X365205*
X341000D02*
Y819000D01*
Y822281D02*
X340205D01*
X339864Y822125*
X339636Y821813*
X339636D02*
X339523Y821500D01*
X339409Y821031*
Y820250*
X339523Y819781*
X339636Y819469*
X339864Y819156*
X340205Y819000*
X341000*
X337818Y822281D02*
X338159Y822125D01*
X338273Y821813*
X338273D02*
Y821500D01*
X338159Y821188*
X338159D02*
X337932Y821031D01*
X337477Y820875*
X337136Y820719*
X336909Y820406*
X336795Y820094*
Y819625*
X336909Y819313*
X336909D02*
X337023Y819156D01*
X337364Y819000*
X337818*
X338159Y819156*
X338273Y819313*
X338273D02*
X338386Y819625D01*
Y820094*
X338273Y820406*
X338045Y820719*
X337705Y820875*
X337250Y821031*
X337023Y821188*
X337023D02*
X336909Y821500D01*
Y821813*
X336909D02*
X337023Y822125D01*
X337364Y822281*
X337818*
X334295Y821188D02*
X334409Y820719D01*
X334636Y820406*
X334977Y820250*
X335091*
X335432Y820406*
X335659Y820719*
X335773Y821188*
X335773D02*
Y821344D01*
X335659Y821813*
X335659D02*
X335432Y822125D01*
X335091Y822281*
X334977*
X334636Y822125*
X334409Y821813*
X334409D02*
X334295Y821188D01*
X334295D02*
Y820406D01*
X334409Y819625*
X334636Y819156*
X334977Y819000*
X335205*
X335545Y819156*
X335659Y819469*
X351000Y822281D02*
Y819000D01*
Y822281D02*
X350205D01*
X349864Y822125*
X349636Y821813*
X349636D02*
X349523Y821500D01*
X349409Y821031*
Y820250*
X349523Y819781*
X349636Y819469*
X349864Y819156*
X350205Y819000*
X351000*
X346909Y821188D02*
X347023Y820719D01*
X347250Y820406*
X347591Y820250*
X347705*
X348045Y820406*
X348273Y820719*
X348386Y821188*
X348386D02*
Y821344D01*
X348273Y821813*
X348273D02*
X348045Y822125D01*
X347705Y822281*
X347591*
X347250Y822125*
X347023Y821813*
X347023D02*
X346909Y821188D01*
X346909D02*
Y820406D01*
X347023Y819625*
X347250Y819156*
X347591Y819000*
X347818*
X348159Y819156*
X348273Y819469*
X345205Y822281D02*
X345545Y822125D01*
X345773Y821656*
X345886Y820875*
Y820406*
X345773Y819625*
X345545Y819156*
X345205Y819000*
X344977*
X344636Y819156*
X344409Y819625*
X344295Y820406*
Y820875*
X344409Y821656*
X344636Y822125*
X344977Y822281*
X345205*
X331000Y644281D02*
Y641000D01*
Y644281D02*
X330205D01*
X329864Y644125*
X329636Y643813*
X329636D02*
X329523Y643500D01*
X329409Y643031*
Y642250*
X329523Y641781*
X329636Y641469*
X329864Y641156*
X330205Y641000*
X331000*
X326909Y644281D02*
X328045D01*
X328159Y642875*
X328045Y643031*
X327705Y643188*
X327705D02*
X327364D01*
X327364D02*
X327023Y643031D01*
X326795Y642719*
X326682Y642250*
X326795Y641938*
X326795D02*
X326909Y641469D01*
X327136Y641156*
X327477Y641000*
X327818*
X328159Y641156*
X328273Y641313*
X328273D02*
X328386Y641625D01*
X324182Y643188D02*
X324295Y642719D01*
X324523Y642406*
X324864Y642250*
X324977*
X325318Y642406*
X325545Y642719*
X325659Y643188*
X325659D02*
Y643344D01*
X325545Y643813*
X325545D02*
X325318Y644125D01*
X324977Y644281*
X324864*
X324523Y644125*
X324295Y643813*
X324295D02*
X324182Y643188D01*
X324182D02*
Y642406D01*
X324295Y641625*
X324523Y641156*
X324864Y641000*
X325091*
X325432Y641156*
X325545Y641469*
X457000Y803281D02*
Y800000D01*
Y803281D02*
X456205D01*
X455864Y803125*
X455636Y802813*
X455636D02*
X455523Y802500D01*
X455409Y802031*
Y801250*
X455523Y800781*
X455636Y800469*
X455864Y800156*
X456205Y800000*
X457000*
X452909Y802188D02*
X453023Y801719D01*
X453250Y801406*
X453591Y801250*
X453705*
X454045Y801406*
X454273Y801719*
X454386Y802188*
X454386D02*
Y802344D01*
X454273Y802813*
X454273D02*
X454045Y803125D01*
X453705Y803281*
X453591*
X453250Y803125*
X453023Y802813*
X453023D02*
X452909Y802188D01*
X452909D02*
Y801406D01*
X453023Y800625*
X453250Y800156*
X453591Y800000*
X453818*
X454159Y800156*
X454273Y800469*
X450750Y803281D02*
X451886Y801094D01*
X450182*
X450750Y803281D02*
Y800000D01*
X502000Y803281D02*
Y800000D01*
Y803281D02*
X501205D01*
X500864Y803125*
X500636Y802813*
X500636D02*
X500523Y802500D01*
X500409Y802031*
Y801250*
X500523Y800781*
X500636Y800469*
X500864Y800156*
X501205Y800000*
X502000*
X497909Y802188D02*
X498023Y801719D01*
X498250Y801406*
X498591Y801250*
X498705*
X499045Y801406*
X499273Y801719*
X499386Y802188*
X499386D02*
Y802344D01*
X499273Y802813*
X499273D02*
X499045Y803125D01*
X498705Y803281*
X498591*
X498250Y803125*
X498023Y802813*
X498023D02*
X497909Y802188D01*
X497909D02*
Y801406D01*
X498023Y800625*
X498250Y800156*
X498591Y800000*
X498818*
X499159Y800156*
X499273Y800469*
X495409Y803281D02*
X496545D01*
X496659Y801875*
X496545Y802031*
X496205Y802188*
X496205D02*
X495864D01*
X495864D02*
X495523Y802031D01*
X495295Y801719*
X495182Y801250*
X495295Y800938*
X495295D02*
X495409Y800469D01*
X495636Y800156*
X495977Y800000*
X496318*
X496659Y800156*
X496773Y800313*
X496773D02*
X496886Y800625D01*
X492000Y803281D02*
Y800000D01*
Y803281D02*
X491205D01*
X490864Y803125*
X490636Y802813*
X490636D02*
X490523Y802500D01*
X490409Y802031*
Y801250*
X490523Y800781*
X490636Y800469*
X490864Y800156*
X491205Y800000*
X492000*
X487909Y802188D02*
X488023Y801719D01*
X488250Y801406*
X488591Y801250*
X488705*
X489045Y801406*
X489273Y801719*
X489386Y802188*
X489386D02*
Y802344D01*
X489273Y802813*
X489273D02*
X489045Y803125D01*
X488705Y803281*
X488591*
X488250Y803125*
X488023Y802813*
X488023D02*
X487909Y802188D01*
X487909D02*
Y801406D01*
X488023Y800625*
X488250Y800156*
X488591Y800000*
X488818*
X489159Y800156*
X489273Y800469*
X485523Y802813D02*
X485636Y803125D01*
X485977Y803281*
X486205*
X486545Y803125*
X486773Y802656*
X486886Y801875*
Y801094*
X486773Y800469*
X486545Y800156*
X486205Y800000*
X486091*
X485750Y800156*
X485523Y800469*
X485409Y800938*
X485409D02*
Y801094D01*
X485523Y801563*
X485523D02*
X485750Y801875D01*
X486091Y802031*
X486205*
X486545Y801875*
X486773Y801563*
X486773D02*
X486886Y801094D01*
X492000Y700281D02*
Y697000D01*
Y700281D02*
X491205D01*
X490864Y700125*
X490636Y699813*
X490636D02*
X490523Y699500D01*
X490409Y699031*
Y698250*
X490523Y697781*
X490636Y697469*
X490864Y697156*
X491205Y697000*
X492000*
X487909Y699188D02*
X488023Y698719D01*
X488250Y698406*
X488591Y698250*
X488705*
X489045Y698406*
X489273Y698719*
X489386Y699188*
X489386D02*
Y699344D01*
X489273Y699813*
X489273D02*
X489045Y700125D01*
X488705Y700281*
X488591*
X488250Y700125*
X488023Y699813*
X488023D02*
X487909Y699188D01*
X487909D02*
Y698406D01*
X488023Y697625*
X488250Y697156*
X488591Y697000*
X488818*
X489159Y697156*
X489273Y697469*
X485295Y700281D02*
X486432Y697000D01*
X486886Y700281D02*
X485295D01*
X492000Y708281D02*
Y705000D01*
Y708281D02*
X491205D01*
X490864Y708125*
X490636Y707813*
X490636D02*
X490523Y707500D01*
X490409Y707031*
Y706250*
X490523Y705781*
X490636Y705469*
X490864Y705156*
X491205Y705000*
X492000*
X487909Y707188D02*
X488023Y706719D01*
X488250Y706406*
X488591Y706250*
X488705*
X489045Y706406*
X489273Y706719*
X489386Y707188*
X489386D02*
Y707344D01*
X489273Y707813*
X489273D02*
X489045Y708125D01*
X488705Y708281*
X488591*
X488250Y708125*
X488023Y707813*
X488023D02*
X487909Y707188D01*
X487909D02*
Y706406D01*
X488023Y705625*
X488250Y705156*
X488591Y705000*
X488818*
X489159Y705156*
X489273Y705469*
X486318Y708281D02*
X486659Y708125D01*
X486773Y707813*
X486773D02*
Y707500D01*
X486659Y707188*
X486659D02*
X486432Y707031D01*
X485977Y706875*
X485636Y706719*
X485409Y706406*
X485295Y706094*
Y705625*
X485409Y705313*
X485409D02*
X485523Y705156D01*
X485864Y705000*
X486318*
X486659Y705156*
X486773Y705313*
X486773D02*
X486886Y705625D01*
Y706094*
X486773Y706406*
X486545Y706719*
X486205Y706875*
X485750Y707031*
X485523Y707188*
X485523D02*
X485409Y707500D01*
Y707813*
X485409D02*
X485523Y708125D01*
X485864Y708281*
X486318*
X492000Y716281D02*
Y713000D01*
Y716281D02*
X491205D01*
X490864Y716125*
X490636Y715813*
X490636D02*
X490523Y715500D01*
X490409Y715031*
Y714250*
X490523Y713781*
X490636Y713469*
X490864Y713156*
X491205Y713000*
X492000*
X487909Y715188D02*
X488023Y714719D01*
X488250Y714406*
X488591Y714250*
X488705*
X489045Y714406*
X489273Y714719*
X489386Y715188*
X489386D02*
Y715344D01*
X489273Y715813*
X489273D02*
X489045Y716125D01*
X488705Y716281*
X488591*
X488250Y716125*
X488023Y715813*
X488023D02*
X487909Y715188D01*
X487909D02*
Y714406D01*
X488023Y713625*
X488250Y713156*
X488591Y713000*
X488818*
X489159Y713156*
X489273Y713469*
X485409Y715188D02*
X485523Y714719D01*
X485750Y714406*
X486091Y714250*
X486205*
X486545Y714406*
X486773Y714719*
X486886Y715188*
X486886D02*
Y715344D01*
X486773Y715813*
X486773D02*
X486545Y716125D01*
X486205Y716281*
X486091*
X485750Y716125*
X485523Y715813*
X485523D02*
X485409Y715188D01*
X485409D02*
Y714406D01*
X485523Y713625*
X485750Y713156*
X486091Y713000*
X486318*
X486659Y713156*
X486773Y713469*
X492000Y748281D02*
Y745000D01*
Y748281D02*
X491205D01*
X490864Y748125*
X490636Y747813*
X490636D02*
X490523Y747500D01*
X490409Y747031*
Y746250*
X490523Y745781*
X490636Y745469*
X490864Y745156*
X491205Y745000*
X492000*
X489386Y747656D02*
X489159Y747813D01*
X489159D02*
X488818Y748281D01*
Y745000*
X487114Y748281D02*
X487455Y748125D01*
X487682Y747656*
X487795Y746875*
Y746406*
X487682Y745625*
X487455Y745156*
X487114Y745000*
X486886*
X486545Y745156*
X486318Y745625*
X486205Y746406*
Y746875*
X486318Y747656*
X486545Y748125*
X486886Y748281*
X487114*
X484500D02*
X484841Y748125D01*
X485068Y747656*
X485182Y746875*
Y746406*
X485068Y745625*
X484841Y745156*
X484500Y745000*
X484273*
X483932Y745156*
X483705Y745625*
X483591Y746406*
Y746875*
X483705Y747656*
X483932Y748125*
X484273Y748281*
X484500*
X522000Y705281D02*
Y702000D01*
Y705281D02*
X520977D01*
X520636Y705125*
X520523Y704969*
X520409Y704656*
Y704344*
X520523Y704031*
X520636Y703875*
X520977Y703719*
X522000*
X521205D02*
X520409Y702000D01*
X517909Y704188D02*
X518023Y703719D01*
X518250Y703406*
X518591Y703250*
X518705*
X519045Y703406*
X519273Y703719*
X519386Y704188*
X519386D02*
Y704344D01*
X519273Y704813*
X519273D02*
X519045Y705125D01*
X518705Y705281*
X518591*
X518250Y705125*
X518023Y704813*
X518023D02*
X517909Y704188D01*
X517909D02*
Y703406D01*
X518023Y702625*
X518250Y702156*
X518591Y702000*
X518818*
X519159Y702156*
X519273Y702469*
X516659Y705281D02*
X515409D01*
X516091Y704031*
X515750*
X515523Y703875*
X515409Y703719*
X515295Y703250*
Y702938*
X515295D02*
X515409Y702469D01*
X515636Y702156*
X515977Y702000*
X516318*
X516659Y702156*
X516773Y702313*
X516773D02*
X516886Y702625D01*
X0Y0D02*
M02*
