*
*
G04 PADS 9.3.1 Build Number: 456998 generated Gerber (RS-274-X) file*
G04 PC Version=2.1*
*
%IN "wrist.pcb"*%
*
%MOIN*%
*
%FSLAX35Y35*%
*
*
*
*
G04 PC Standard Apertures*
*
*
G04 Thermal Relief Aperture macro.*
%AMTER*
1,1,$1,0,0*
1,0,$1-$2,0,0*
21,0,$3,$4,0,0,45*
21,0,$3,$4,0,0,135*
%
*
*
G04 Annular Aperture macro.*
%AMANN*
1,1,$1,0,0*
1,0,$2,0,0*
%
*
*
G04 Odd Aperture macro.*
%AMODD*
1,1,$1,0,0*
1,0,$1-0.005,0,0*
%
*
*
G04 PC Custom Aperture Macros*
*
*
*
*
*
*
G04 PC Aperture Table*
*
%ADD010C,0.001*%
%ADD019C,0.01*%
%ADD023C,0.015*%
%ADD024C,0.07087*%
%ADD053C,0.004*%
%ADD054C,0.048*%
%ADD055C,0.05906*%
%ADD056C,0.065*%
%ADD059C,0.08858*%
%ADD061C,0.15*%
%ADD062C,0.02*%
%ADD063C,0.043*%
%ADD064C,0.03*%
*
*
*
*
G04 PC Circuitry*
G04 Layer Name wrist.pcb - circuitry*
%LPD*%
*
*
G04 PC Custom Flashes*
G04 Layer Name wrist.pcb - flashes*
%LPD*%
*
*
G04 PC Circuitry*
G04 Layer Name wrist.pcb - circuitry*
%LPD*%
*
G54D10*
G54D19*
G01X281250Y312250D02*
Y317750D01*
X286750*
Y312250*
X281250*
Y313000D02*
X286750D01*
X281250Y314000D02*
X286750D01*
X281250Y315000D02*
X286750D01*
X281250Y316000D02*
X286750D01*
X281250Y317000D02*
X286750D01*
X282000Y312250D02*
Y317750D01*
X283000Y312250D02*
Y317750D01*
X284000Y312250D02*
Y317750D01*
X285000Y312250D02*
Y317750D01*
X286000Y312250D02*
Y317750D01*
X205000Y112000D02*
Y119900D01*
X212874Y112000D02*
Y119900D01*
X213000*
X236496Y112000D02*
X236142D01*
Y119900*
X236000*
X228622Y112000D02*
X228178D01*
Y119900*
X228000*
X285748Y112000D02*
X285928D01*
Y119900*
X286000*
X277874Y112000D02*
Y119900D01*
X278000*
X328000Y148000D02*
X320100D01*
X320000*
Y151000*
X318000Y153000*
X309000*
X298000Y164000*
Y176000*
X258000Y157000D02*
X288000D01*
X293000Y162000*
X328000Y155874D02*
X320100D01*
Y156000*
X253000Y162000D02*
X258000D01*
X283000*
X191000Y179000D02*
X199000Y187000D01*
X280000*
X311000Y218000*
X327000*
X293121Y176000D02*
X311121Y194000D01*
X327000*
X293121Y176000D02*
X255000D01*
X249000Y182000*
X173000Y186000D02*
X181000D01*
Y187300*
X186000*
X181000Y185900D02*
Y186000D01*
X186000Y185900D02*
Y187300D01*
X261000Y182000D02*
X282000D01*
X304000Y204000*
X327000*
X333000Y184000D02*
Y189000D01*
X333100*
X191000Y192100D02*
Y190700D01*
X186000*
Y192100*
X212000Y196000D02*
X268000D01*
X273000*
X277000Y192000D02*
X233725D01*
X233625Y192100*
X191000*
X333000Y194000D02*
Y199000D01*
X333100*
X201000Y200000D02*
X212000D01*
X268000*
X333000Y204000D02*
Y209000D01*
X333100*
X333000Y218000D02*
Y223000D01*
X333100*
X245000Y228000D02*
X290000D01*
X311900Y249900*
Y276000*
X333000Y228000D02*
Y233000D01*
X333100*
X313300Y290000D02*
X311900D01*
X333000Y253000D02*
Y258000D01*
X333100*
X333000Y243000D02*
Y248000D01*
X333100*
X328000Y283874D02*
X322587D01*
X322461Y284000*
X318100*
X316700*
Y290000*
X318100*
X311900Y284000D02*
X313300D01*
Y290000*
X311900Y276000D02*
Y284000D01*
X318100Y276000D02*
X328000D01*
X201205Y314858D02*
X226795D01*
X292000Y308000D02*
Y321000D01*
X289000Y324000*
X277100*
X226795Y314858D02*
X245434D01*
X245576Y315000*
X263921*
Y321921*
X266000Y324000*
X270900*
X284000Y305157D02*
X289157D01*
X292000Y308000*
X317050Y126400D02*
G75*
G03X317050I-3450J0D01*
G01X302342Y118750D02*
G03X302342I-3450J0D01*
G01X257342D02*
G03X257342I-3450J0D01*
G01Y133750D02*
G03X257342I-3450J0D01*
G01Y148750D02*
G03X257342I-3450J0D01*
G01X236650Y173800D02*
G03X236650I-3450J0D01*
G01X227342Y163750D02*
G03X227342I-3450J0D01*
G01X212342Y148750D02*
G03X212342I-3450J0D01*
G01Y178750D02*
G03X212342I-3450J0D01*
G01X197342Y133750D02*
G03X197342I-3450J0D01*
G01Y148750D02*
G03X197342I-3450J0D01*
G01X182342D02*
G03X182342I-3450J0D01*
G01Y163750D02*
G03X182342I-3450J0D01*
G01X317342D02*
G03X317342I-3450J0D01*
G01X321450Y184000D02*
G03X321450I-3450J0D01*
G01X323650Y227800D02*
G03X323650I-3450J0D01*
G01X332342Y298750D02*
G03X332342I-3450J0D01*
G01X317342D02*
G03X317342I-3450J0D01*
G01X302342Y253750D02*
G03X302342I-3450J0D01*
G01Y268750D02*
G03X302342I-3450J0D01*
G01Y283750D02*
G03X302342I-3450J0D01*
G01Y298750D02*
G03X302342I-3450J0D01*
G01Y313750D02*
G03X302342I-3450J0D01*
G01X178076Y224000D02*
G03X178076I-5730J0D01*
G01X182342Y238750D02*
G03X182342I-3450J0D01*
G01Y298750D02*
G03X182342I-3450J0D01*
G01X184300Y315000D02*
G03X184300I-8800J0D01*
G01X272900Y268000D02*
G03X272900I-3700J0D01*
G01X278708Y305157D02*
G03X278708I-4551J0D01*
G01Y315000D02*
G03X278708I-4551J0D01*
G01X268471Y305157D02*
G03X268471I-4550J0D01*
G01X255250Y257200D02*
G03X255250I-3450J0D01*
G01X253700Y268000D02*
G03X253700I-3700J0D01*
G01X257342Y298750D02*
G03X257342I-3450J0D01*
G01X242342Y253750D02*
G03X242342I-3450J0D01*
G01Y268750D02*
G03X242342I-3450J0D01*
G01X238450Y283600D02*
G03X238450I-3450J0D01*
G01X242342Y298750D02*
G03X242342I-3450J0D01*
G01X227342Y208750D02*
G03X227342I-3450J0D01*
G01Y223750D02*
G03X227342I-3450J0D01*
G01Y238750D02*
G03X227342I-3450J0D01*
G01Y253750D02*
G03X227342I-3450J0D01*
G01Y268750D02*
G03X227342I-3450J0D01*
G01Y283750D02*
G03X227342I-3450J0D01*
G01X231639Y297142D02*
G03X231639I-4844J0D01*
G01X212342Y208750D02*
G03X212342I-3450J0D01*
G01Y238750D02*
G03X212342I-3450J0D01*
G01Y253750D02*
G03X212342I-3450J0D01*
G01X212650Y265600D02*
G03X212650I-3450J0D01*
G01X212342Y283750D02*
G03X212342I-3450J0D01*
G01X197342Y208750D02*
G03X197342I-3450J0D01*
G01Y268750D02*
G03X197342I-3450J0D01*
G01X287342Y208750D02*
G03X287342I-3450J0D01*
G01X272342D02*
G03X272342I-3450J0D01*
G01X257342D02*
G03X257342I-3450J0D01*
G01X339000Y101500D02*
Y328500D01*
X162500*
Y101500*
X176276*
X176525Y106260D02*
G03X176276Y101500I2367J-2510D01*
G01X179477Y107150D02*
G03X176525Y106260I-3977J7850D01*
G01X181507Y101500D02*
G03X179477Y107150I-2615J2250D01*
G01X181507Y101500D02*
X266276D01*
X265451Y103492D02*
G03X266276Y101500I3441J258D01*
G01X265451Y103492D02*
X264980Y103020D01*
X263000Y102200D02*
G03X264980Y103020I0J2800D01*
G01X263000Y102200D02*
X198000D01*
X196020Y103020D02*
G03X198000Y102200I1980J1980D01*
G01X196020Y103020D02*
X188020Y111020D01*
X187200Y113000D02*
G03X188020Y111020I2800J0D01*
G01X187200Y113000D02*
Y120840D01*
X164020Y144020*
X163200Y146000D02*
G03X164020Y144020I2800J0D01*
G01X163200Y146000D02*
Y178126D01*
Y196000*
X164020Y197980D02*
G03X163200Y196000I1980J-1980D01*
G01X164020Y197980D02*
X188486Y222446D01*
X192446Y218486D02*
G03X188486Y222446I1554J5514D01*
G01X192446Y218486D02*
X168800Y194840D01*
Y186668*
X176853Y187800D02*
G03X168800Y186668I-3853J-1800D01*
G01X176853Y187800D02*
X178213D01*
X179161Y189000D02*
G03X178213Y187800I539J-1400D01*
G01X178200Y190400D02*
G03X179161Y189000I1500J0D01*
G01X178200Y190400D02*
Y193800D01*
X179700Y195300D02*
G03X178200Y193800I0J-1500D01*
G01X179700Y195300D02*
X182300D01*
X183500Y194700D02*
G03X182300Y195300I-1200J-900D01*
G01X184700D02*
G03X183500Y194700I0J-1500D01*
G01X184700Y195300D02*
X187300D01*
X188500Y194700D02*
G03X187300Y195300I-1200J-900D01*
G01X189700D02*
G03X188500Y194700I0J-1500D01*
G01X189700Y195300D02*
X192300D01*
X193797Y193900D02*
G03X192300Y195300I-1497J-100D01*
G01X193797Y193900D02*
X209263D01*
X209342Y198200D02*
G03X209263Y193900I2658J-2200D01*
G01X209342Y198200D02*
X203943D01*
Y201800D02*
G03Y198200I-2943J-1800D01*
G01Y201800D02*
X212000D01*
X265057*
X271303Y199004D02*
G03X265057Y201800I-3303J996D01*
G01X276397Y195397D02*
G03X271303Y199004I-3397J603D01*
G01X278289Y188800D02*
G03X276397Y195397I-1289J3200D01*
G01X278289Y188800D02*
X279254D01*
X309727Y219273*
X311000Y219800D02*
G03X309727Y219273I0J-1800D01*
G01X311000Y219800D02*
X324057D01*
X324497Y220375D02*
G03X324057Y219800I2503J-2375D01*
G01X323700Y221700D02*
G03X324497Y220375I1500J0D01*
G01X323700Y221700D02*
Y224300D01*
X325200Y225800D02*
G03X323700Y224300I0J-1500D01*
G01X325200Y225800D02*
X328600D01*
X330000Y224839D02*
G03X328600Y225800I-1400J-539D01*
G01X330571Y225550D02*
G03X330000Y224839I829J-1250D01*
G01X330571Y230450D02*
G03Y225550I2429J-2450D01*
G01X330000Y231161D02*
G03X330571Y230450I1400J539D01*
G01X328600Y230200D02*
G03X330000Y231161I0J1500D01*
G01X328600Y230200D02*
X325200D01*
X323700Y231700D02*
G03X325200Y230200I1500J0D01*
G01X323700Y231700D02*
Y234300D01*
X325200Y235800D02*
G03X323700Y234300I0J-1500D01*
G01X325200Y235800D02*
X328600D01*
X330000Y234839D02*
G03X328600Y235800I-1400J-539D01*
G01X331400D02*
G03X330000Y234839I0J-1500D01*
G01X331400Y235800D02*
X334800D01*
X336300Y234300D02*
G03X334800Y235800I-1500J0D01*
G01X336300Y234300D02*
Y231700D01*
X335503Y230375D02*
G03X336300Y231700I-703J1325D01*
G01X335503Y225625D02*
G03Y230375I-2503J2375D01*
G01X336300Y224300D02*
G03X335503Y225625I-1500J0D01*
G01X336300Y224300D02*
Y221700D01*
X335503Y220375D02*
G03X336300Y221700I-703J1325D01*
G01X330000Y216296D02*
G03X335503Y220375I3000J1704D01*
G01X324057Y216200D02*
G03X330000Y216296I2943J1800D01*
G01X324057Y216200D02*
X320458D01*
X315142D02*
G03X320458I2658J-2200D01*
G01X315142D02*
X311746D01*
X281273Y185727*
X280000Y185200D02*
G03X281273Y185727I0J1800D01*
G01X280000Y185200D02*
X262289D01*
X263943Y183800D02*
G03X262289Y185200I-2943J-1800D01*
G01X263943Y183800D02*
X281254D01*
X302727Y205273*
X304000Y205800D02*
G03X302727Y205273I0J-1800D01*
G01X304000Y205800D02*
X324057D01*
X324497Y206375D02*
G03X324057Y205800I2503J-2375D01*
G01X323700Y207700D02*
G03X324497Y206375I1500J0D01*
G01X323700Y207700D02*
Y210300D01*
X325200Y211800D02*
G03X323700Y210300I0J-1500D01*
G01X325200Y211800D02*
X328600D01*
X330000Y210839D02*
G03X328600Y211800I-1400J-539D01*
G01X331400D02*
G03X330000Y210839I0J-1500D01*
G01X331400Y211800D02*
X334800D01*
X336300Y210300D02*
G03X334800Y211800I-1500J0D01*
G01X336300Y210300D02*
Y207700D01*
X335503Y206375D02*
G03X336300Y207700I-703J1325D01*
G01X335503Y201625D02*
G03Y206375I-2503J2375D01*
G01X336300Y200300D02*
G03X335503Y201625I-1500J0D01*
G01X336300Y200300D02*
Y197700D01*
X335503Y196375D02*
G03X336300Y197700I-703J1325D01*
G01X335503Y191625D02*
G03Y196375I-2503J2375D01*
G01X336300Y190300D02*
G03X335503Y191625I-1500J0D01*
G01X336300Y190300D02*
Y187700D01*
X335503Y186375D02*
G03X336300Y187700I-703J1325D01*
G01X330571Y186450D02*
G03X335503Y186375I2429J-2450D01*
G01X330000Y187161D02*
G03X330571Y186450I1400J539D01*
G01X328600Y186200D02*
G03X330000Y187161I0J1500D01*
G01X328600Y186200D02*
X325200D01*
X323700Y187700D02*
G03X325200Y186200I1500J0D01*
G01X323700Y187700D02*
Y190300D01*
X324497Y191625D02*
G03X323700Y190300I703J-1325D01*
G01X324057Y192200D02*
G03X324497Y191625I2943J1800D01*
G01X324057Y192200D02*
X311867D01*
X298976Y179309*
X299800Y173057D02*
G03X298976Y179309I-1800J2943D01*
G01X299800Y173057D02*
Y164746D01*
X309746Y154800*
X310700*
Y157300*
X312200Y158800D02*
G03X310700Y157300I0J-1500D01*
G01X312200Y158800D02*
X315600D01*
X317000Y157839D02*
G03X315600Y158800I-1400J-539D01*
G01X318400D02*
G03X317000Y157839I0J-1500D01*
G01X318400Y158800D02*
X321800D01*
X323253Y157674D02*
G03X321800Y158800I-1453J-374D01*
G01X323253Y157674D02*
X324147D01*
X326392Y159811D02*
G03X324147Y157674I1608J-3937D01*
G01X329608Y159811D02*
G03X326392I-1608J3937D01*
G01X329608Y151937D02*
G03Y159811I-1608J3937D01*
G01X324147Y146200D02*
G03X329608Y151937I3853J1800D01*
G01X324147Y146200D02*
X323214D01*
X321800Y145200D02*
G03X323214Y146200I0J1500D01*
G01X321800Y145200D02*
X318400D01*
X317000Y146161D02*
G03X318400Y145200I1400J539D01*
G01X315600D02*
G03X317000Y146161I0J1500D01*
G01X315600Y145200D02*
X312200D01*
X310700Y146700D02*
G03X312200Y145200I1500J0D01*
G01X310700Y146700D02*
Y149300D01*
X312200Y150800D02*
G03X310700Y149300I0J-1500D01*
G01X312200Y150800D02*
X315600D01*
X317000Y149839D02*
G03X315600Y150800I-1400J-539D01*
G01X317786Y150669D02*
G03X317000Y149839I614J-1369D01*
G01X317786Y150669D02*
X317254Y151200D01*
X309000*
X307727Y151727D02*
G03X309000Y151200I1273J1273D01*
G01X307727Y151727D02*
X296727Y162727D01*
X296200Y164000D02*
G03X296727Y162727I1800J0D01*
G01X296200Y164000D02*
Y173057D01*
X294691Y175024D02*
G03X296200Y173057I3309J976D01*
G01X294691Y175024D02*
X294394Y174727D01*
X293121Y174200D02*
G03X294394Y174727I-0J1800D01*
G01X293121Y174200D02*
X255000D01*
X253727Y174727D02*
G03X255000Y174200I1273J1273D01*
G01X253727Y174727D02*
X249808Y178646D01*
X247711Y185200D02*
G03X249808Y178646I1289J-3200D01*
G01X247711Y185200D02*
X199746D01*
X194354Y179808*
X191808Y182354D02*
G03X194354Y179808I-808J-3354D01*
G01X191808Y182354D02*
X192154Y182700D01*
X189700*
X188500Y183300D02*
G03X189700Y182700I1200J900D01*
G01X187300D02*
G03X188500Y183300I0J1500D01*
G01X187300Y182700D02*
X184700D01*
X183500Y183300D02*
G03X184700Y182700I1200J900D01*
G01X182300D02*
G03X183500Y183300I0J1500D01*
G01X182300Y182700D02*
X179700D01*
X178200Y184200D02*
G03X179700Y182700I1500J0D01*
G01X178200Y184200D02*
X176853D01*
X174608Y182063D02*
G03X176853Y184200I-1608J3937D01*
G01X174608Y174189D02*
G03Y182063I-1608J3937D01*
G01X168800Y169584D02*
G03X174608Y174189I4200J668D01*
G01X168800Y169584D02*
Y147160D01*
X191980Y123980*
X192800Y122000D02*
G03X191980Y123980I-2800J0D01*
G01X192800Y122000D02*
Y114160D01*
X199160Y107800*
X204332*
X203200Y115853D02*
G03X204332Y107800I1800J-3853D01*
G01X203200Y115853D02*
Y116786D01*
X202200Y118200D02*
G03X203200Y116786I1500J0D01*
G01X202200Y118200D02*
Y121600D01*
X203161Y123000D02*
G03X202200Y121600I539J-1400D01*
G01Y124400D02*
G03X203161Y123000I1500J0D01*
G01X202200Y124400D02*
Y127800D01*
X203700Y129300D02*
G03X202200Y127800I0J-1500D01*
G01X203700Y129300D02*
X206300D01*
X207800Y127800D02*
G03X206300Y129300I-1500J0D01*
G01X207800Y127800D02*
Y124400D01*
X206839Y123000D02*
G03X207800Y124400I-539J1400D01*
G01Y121600D02*
G03X206839Y123000I-1500J0D01*
G01X207800Y121600D02*
Y118200D01*
X206800Y116786D02*
G03X207800Y118200I-500J1414D01*
G01X206800Y116786D02*
Y115853D01*
X208937Y113608D02*
G03X206800Y115853I-3937J-1608D01*
G01X211074D02*
G03X208937Y113608I1800J-3853D01*
G01X211074Y115853D02*
Y116837D01*
X210200Y118200D02*
G03X211074Y116837I1500J0D01*
G01X210200Y118200D02*
Y121600D01*
X211161Y123000D02*
G03X210200Y121600I539J-1400D01*
G01Y124400D02*
G03X211161Y123000I1500J0D01*
G01X210200Y124400D02*
Y127800D01*
X211700Y129300D02*
G03X210200Y127800I0J-1500D01*
G01X211700Y129300D02*
X214300D01*
X215800Y127800D02*
G03X214300Y129300I-1500J0D01*
G01X215800Y127800D02*
Y124400D01*
X214839Y123000D02*
G03X215800Y124400I-539J1400D01*
G01Y121600D02*
G03X214839Y123000I-1500J0D01*
G01X215800Y121600D02*
Y118200D01*
X214674Y116747D02*
G03X215800Y118200I-374J1453D01*
G01X214674Y116747D02*
Y115853D01*
X216811Y113608D02*
G03X214674Y115853I-3937J-1608D01*
G01X224685Y113608D02*
G03X216811I-3937J-1608D01*
G01X226378Y115612D02*
G03X224685Y113608I2244J-3612D01*
G01X226378Y115612D02*
Y116735D01*
X225200Y118200D02*
G03X226378Y116735I1500J0D01*
G01X225200Y118200D02*
Y121600D01*
X226161Y123000D02*
G03X225200Y121600I539J-1400D01*
G01Y124400D02*
G03X226161Y123000I1500J0D01*
G01X225200Y124400D02*
Y127800D01*
X226700Y129300D02*
G03X225200Y127800I0J-1500D01*
G01X226700Y129300D02*
X229300D01*
X230800Y127800D02*
G03X229300Y129300I-1500J0D01*
G01X230800Y127800D02*
Y124400D01*
X229839Y123000D02*
G03X230800Y124400I-539J1400D01*
G01Y121600D02*
G03X229839Y123000I-1500J0D01*
G01X230800Y121600D02*
Y118200D01*
X229978Y116862D02*
G03X230800Y118200I-678J1338D01*
G01X229978Y116862D02*
Y116031D01*
X232559Y113608D02*
G03X229978Y116031I-3937J-1608D01*
G01X234342Y115667D02*
G03X232559Y113608I2154J-3667D01*
G01X234342Y115667D02*
Y116743D01*
X233200Y118200D02*
G03X234342Y116743I1500J0D01*
G01X233200Y118200D02*
Y121600D01*
X234161Y123000D02*
G03X233200Y121600I539J-1400D01*
G01Y124400D02*
G03X234161Y123000I1500J0D01*
G01X233200Y124400D02*
Y127800D01*
X234700Y129300D02*
G03X233200Y127800I0J-1500D01*
G01X234700Y129300D02*
X237300D01*
X238800Y127800D02*
G03X237300Y129300I-1500J0D01*
G01X238800Y127800D02*
Y124400D01*
X237839Y123000D02*
G03X238800Y124400I-539J1400D01*
G01Y121600D02*
G03X237839Y123000I-1500J0D01*
G01X238800Y121600D02*
Y118200D01*
X237942Y116844D02*
G03X238800Y118200I-642J1356D01*
G01X237942Y116844D02*
Y116000D01*
X237164Y107800D02*
G03X237942Y116000I-668J4200D01*
G01X237164Y107800D02*
X261840D01*
X265757Y111717*
X267637Y115536D02*
G03X265757Y111717I2363J-3536D01*
G01X271108Y116106D02*
G03X267637Y115536I-2216J2644D01*
G01X273937Y113608D02*
G03X271108Y116106I-3937J-1608D01*
G01X276074Y115853D02*
G03X273937Y113608I1800J-3853D01*
G01X276074Y115853D02*
Y116837D01*
X275200Y118200D02*
G03X276074Y116837I1500J0D01*
G01X275200Y118200D02*
Y121600D01*
X276161Y123000D02*
G03X275200Y121600I539J-1400D01*
G01Y124400D02*
G03X276161Y123000I1500J0D01*
G01X275200Y124400D02*
Y127800D01*
X276700Y129300D02*
G03X275200Y127800I0J-1500D01*
G01X276700Y129300D02*
X279300D01*
X280800Y127800D02*
G03X279300Y129300I-1500J0D01*
G01X280800Y127800D02*
Y124400D01*
X279839Y123000D02*
G03X280800Y124400I-539J1400D01*
G01Y121600D02*
G03X279839Y123000I-1500J0D01*
G01X280800Y121600D02*
Y118200D01*
X279674Y116747D02*
G03X280800Y118200I-374J1453D01*
G01X279674Y116747D02*
Y115853D01*
X281811Y113608D02*
G03X279674Y115853I-3937J-1608D01*
G01X284128Y115932D02*
G03X281811Y113608I1620J-3932D01*
G01X284128Y115932D02*
Y116813D01*
X283200Y118200D02*
G03X284128Y116813I1500J0D01*
G01X283200Y118200D02*
Y121600D01*
X284161Y123000D02*
G03X283200Y121600I539J-1400D01*
G01Y124400D02*
G03X284161Y123000I1500J0D01*
G01X283200Y124400D02*
Y127800D01*
X284700Y129300D02*
G03X283200Y127800I0J-1500D01*
G01X284700Y129300D02*
X287300D01*
X288800Y127800D02*
G03X287300Y129300I-1500J0D01*
G01X288800Y127800D02*
Y124400D01*
X287839Y123000D02*
G03X288800Y124400I-539J1400D01*
G01Y121600D02*
G03X287839Y123000I-1500J0D01*
G01X288800Y121600D02*
Y118200D01*
X287728Y116762D02*
G03X288800Y118200I-428J1438D01*
G01X287728Y116762D02*
Y115764D01*
X289685Y113608D02*
G03X287728Y115764I-3937J-1608D01*
G01X289685Y110392D02*
G03Y113608I3937J1608D01*
G01X281811Y110392D02*
G03X289685I3937J1608D01*
G01X273937D02*
G03X281811I3937J1608D01*
G01X269717Y107757D02*
G03X273937Y110392I283J4243D01*
G01X269717Y107757D02*
X269150Y107190D01*
X271507Y101500D02*
G03X269150Y107190I-2615J2250D01*
G01X271507Y101500D02*
X281276D01*
X286507D02*
G03X281276I-2615J2250D01*
G01X286507D02*
X296276D01*
X301507D02*
G03X296276I-2615J2250D01*
G01X301507D02*
X311276D01*
X316507D02*
G03X311276I-2615J2250D01*
G01X316507D02*
X326276D01*
X326525Y106260D02*
G03X326276Y101500I2367J-2510D01*
G01X316985Y117222D02*
G03X326525Y106260I8515J-2222D01*
G01X317294Y118179D02*
G03X316985Y117222I-3402J571D01*
G01X329477Y107150D02*
G03X317294Y118179I-3977J7850D01*
G01X331507Y101500D02*
G03X329477Y107150I-2615J2250D01*
G01X331507Y101500D02*
X339000D01*
X330571Y245450D02*
G03X329583Y243477I2429J-2450D01*
G01X330000Y246161D02*
G03X330571Y245450I1400J539D01*
G01X328677Y245202D02*
G03X330000Y246161I-77J1498D01*
G01X329583Y243477D02*
G03X328677Y245202I-3383J-677D01*
G01X188952Y188900D02*
G03X188500Y188500I748J-1300D01*
G01X188952Y188900D02*
X188048D01*
X188500Y188500D02*
G03X188048Y188900I-1200J-900D01*
G01X183048Y189100D02*
X183952D01*
X183500Y189500D02*
G03X183952Y189100I1200J900D01*
G01X183048D02*
G03X183500Y189500I-748J1300D01*
G01X171392Y174189D02*
G03X168800Y170920I1608J-3937D01*
G01X169799Y175326D02*
G03X171392Y174189I3201J2800D01*
G01X169799Y175326D02*
X168800D01*
Y170920*
X221416Y107800D02*
X227954D01*
X224685Y110392D02*
G03X227954Y107800I3937J1608D01*
G01X221416D02*
G03X224685Y110392I-668J4200D01*
G01X213542Y107800D02*
X220080D01*
X216811Y110392D02*
G03X220080Y107800I3937J1608D01*
G01X213542D02*
G03X216811Y110392I-668J4200D01*
G01X199000Y188800D02*
X275711D01*
X274057Y190200D02*
G03X275711Y188800I2943J1800D01*
G01X274057Y190200D02*
X233725D01*
X233133Y190300D02*
G03X233725Y190200I592J1700D01*
G01X233133Y190300D02*
X193797D01*
X192839Y189000D02*
G03X193797Y190300I-539J1400D01*
G01X193800Y187600D02*
G03X192839Y189000I-1500J0D01*
G01X193800Y187600D02*
Y184346D01*
X197727Y188273*
X199000Y188800D02*
G03X197727Y188273I0J-1800D01*
G01X330571Y191550D02*
G03X330000Y190839I829J-1250D01*
G01Y192296D02*
G03X330571Y191550I3000J1704D01*
G01X329429D02*
G03X330000Y192296I-2429J2450D01*
G01Y190839D02*
G03X329429Y191550I-1400J-539D01*
G01X330571Y196450D02*
G03X330000Y195704I2429J-2450D01*
G01Y197161D02*
G03X330571Y196450I1400J539D01*
G01X329429D02*
G03X330000Y197161I-829J1250D01*
G01Y195704D02*
G03X329429Y196450I-3000J-1704D01*
G01X330571Y201550D02*
G03X330000Y200839I829J-1250D01*
G01Y202296D02*
G03X330571Y201550I3000J1704D01*
G01X329429D02*
G03X330000Y202296I-2429J2450D01*
G01Y200839D02*
G03X329429Y201550I-1400J-539D01*
G01X330571Y206450D02*
G03X330000Y205704I2429J-2450D01*
G01Y207161D02*
G03X330571Y206450I1400J539D01*
G01X329429D02*
G03X330000Y207161I-829J1250D01*
G01Y205704D02*
G03X329429Y206450I-3000J-1704D01*
G01X324497Y201625D02*
G03X323700Y200300I703J-1325D01*
G01X324057Y202200D02*
G03X324497Y201625I2943J1800D01*
G01X324057Y202200D02*
X304746D01*
X283273Y180727*
X282000Y180200D02*
G03X283273Y180727I0J1800D01*
G01X282000Y180200D02*
X263943D01*
X259711Y185200D02*
G03X263943Y180200I1289J-3200D01*
G01X259711Y185200D02*
X250289D01*
X252354Y181192D02*
G03X250289Y185200I-3354J808D01*
G01X252354Y181192D02*
X255746Y177800D01*
X292375*
X309848Y195273*
X311121Y195800D02*
G03X309848Y195273I-0J-1800D01*
G01X311121Y195800D02*
X311389D01*
X317011D02*
G03X311389I-2811J2000D01*
G01X317011D02*
X324057D01*
X324497Y196375D02*
G03X324057Y195800I2503J-2375D01*
G01X323700Y197700D02*
G03X324497Y196375I1500J0D01*
G01X323700Y197700D02*
Y200300D01*
X330571Y220450D02*
G03X330000Y219704I2429J-2450D01*
G01Y221161D02*
G03X330571Y220450I1400J539D01*
G01X329429D02*
G03X330000Y221161I-829J1250D01*
G01Y219704D02*
G03X329429Y220450I-3000J-1704D01*
G01X317050Y126400D02*
G03X317050I-3450J0D01*
G01X302342Y118750D02*
G03X302342I-3450J0D01*
G01X257342D02*
G03X257342I-3450J0D01*
G01Y133750D02*
G03X257342I-3450J0D01*
G01Y148750D02*
G03X257342I-3450J0D01*
G01X292192Y158646D02*
G03X289646Y161192I808J3354D01*
G01X292192Y158646D02*
X289273Y155727D01*
X288000Y155200D02*
G03X289273Y155727I0J1800D01*
G01X288000Y155200D02*
X260943D01*
X256711Y160200D02*
G03X260943Y155200I1289J-3200D01*
G01X256711Y160200D02*
X255943D01*
Y163800D02*
G03Y160200I-2943J-1800D01*
G01Y163800D02*
X258000D01*
X280057*
X284289Y158800D02*
G03X280057Y163800I-1289J3200D01*
G01X284289Y158800D02*
X287254D01*
X289646Y161192*
X236650Y173800D02*
G03X236650I-3450J0D01*
G01X227342Y163750D02*
G03X227342I-3450J0D01*
G01X220300Y173429D02*
G03X215700I-2300J2571D01*
G01X220300D02*
Y143571D01*
X215700D02*
G03X220300I2300J-2571D01*
G01X215700D02*
Y173429D01*
X212342Y148750D02*
G03X212342I-3450J0D01*
G01Y178750D02*
G03X212342I-3450J0D01*
G01X197342Y133750D02*
G03X197342I-3450J0D01*
G01Y148750D02*
G03X197342I-3450J0D01*
G01X182342D02*
G03X182342I-3450J0D01*
G01Y163750D02*
G03X182342I-3450J0D01*
G01X317342D02*
G03X317342I-3450J0D01*
G01X321450Y184000D02*
G03X321450I-3450J0D01*
G01X323650Y227800D02*
G03X323650I-3450J0D01*
G01X335503Y250625D02*
G03Y255375I-2503J2375D01*
G01X336300Y249300D02*
G03X335503Y250625I-1500J0D01*
G01X336300Y249300D02*
Y246700D01*
X335503Y245375D02*
G03X336300Y246700I-703J1325D01*
G01X329617Y242323D02*
G03X335503Y245375I3383J677D01*
G01X324182Y245598D02*
G03X329617Y242323I2018J-2798D01*
G01X323700Y246700D02*
G03X324182Y245598I1500J0D01*
G01X323700Y246700D02*
Y249300D01*
X325200Y250800D02*
G03X323700Y249300I0J-1500D01*
G01X325200Y250800D02*
X328600D01*
X330000Y249839D02*
G03X328600Y250800I-1400J-539D01*
G01X330571Y250550D02*
G03X330000Y249839I829J-1250D01*
G01X330571Y255450D02*
G03Y250550I2429J-2450D01*
G01X330000Y256161D02*
G03X330571Y255450I1400J539D01*
G01X328600Y255200D02*
G03X330000Y256161I0J1500D01*
G01X328600Y255200D02*
X325200D01*
X323700Y256700D02*
G03X325200Y255200I1500J0D01*
G01X323700Y256700D02*
Y259300D01*
X325200Y260800D02*
G03X323700Y259300I0J-1500D01*
G01X325200Y260800D02*
X328600D01*
X330000Y259839D02*
G03X328600Y260800I-1400J-539D01*
G01X331400D02*
G03X330000Y259839I0J-1500D01*
G01X331400Y260800D02*
X334800D01*
X336300Y259300D02*
G03X334800Y260800I-1500J0D01*
G01X336300Y259300D02*
Y256700D01*
X335503Y255375D02*
G03X336300Y256700I-703J1325D01*
G01X327292Y271807D02*
G03X329703Y272103I1600J-3057D01*
G01X324147Y274200D02*
G03X327292Y271807I3853J1800D01*
G01X324147Y274200D02*
X321214D01*
X319800Y273200D02*
G03X321214Y274200I0J1500D01*
G01X319800Y273200D02*
X316400D01*
X315000Y274161D02*
G03X316400Y273200I1400J539D01*
G01X313700Y273203D02*
G03X315000Y274161I-100J1497D01*
G01X313700Y273203D02*
Y249900D01*
X313173Y248627D02*
G03X313700Y249900I-1273J1273D01*
G01X313173Y248627D02*
X291273Y226727D01*
X290000Y226200D02*
G03X291273Y226727I0J1800D01*
G01X290000Y226200D02*
X247943D01*
Y229800D02*
G03Y226200I-2943J-1800D01*
G01Y229800D02*
X289254D01*
X310100Y250646*
Y273203*
X308700Y274700D02*
G03X310100Y273203I1500J0D01*
G01X308700Y274700D02*
Y277300D01*
X310100Y278797D02*
G03X308700Y277300I100J-1497D01*
G01X310100Y278797D02*
Y281203D01*
X308700Y282700D02*
G03X310100Y281203I1500J0D01*
G01X308700Y282700D02*
Y285300D01*
X310200Y286800D02*
G03X308700Y285300I0J-1500D01*
G01X310200Y286800D02*
X311500D01*
Y287200*
X310200*
X308700Y288700D02*
G03X310200Y287200I1500J0D01*
G01X308700Y288700D02*
Y291300D01*
X310200Y292800D02*
G03X308700Y291300I0J-1500D01*
G01X310200Y292800D02*
X313600D01*
X315000Y291839D02*
G03X313600Y292800I-1400J-539D01*
G01X316400D02*
G03X315000Y291839I0J-1500D01*
G01X316400Y292800D02*
X319800D01*
X321300Y291300D02*
G03X319800Y292800I-1500J0D01*
G01X321300Y291300D02*
Y288700D01*
X319800Y287200D02*
G03X321300Y288700I0J1500D01*
G01X319800Y287200D02*
X316400D01*
X315100Y287952D02*
G03X316400Y287200I1300J748D01*
G01X315100Y287952D02*
Y286048D01*
X316400Y286800D02*
G03X315100Y286048I0J-1500D01*
G01X316400Y286800D02*
X319800D01*
X321300Y285300D02*
G03X319800Y286800I-1500J0D01*
G01X321300Y285300D02*
Y282700D01*
X319800Y281200D02*
G03X321300Y282700I0J1500D01*
G01X319800Y281200D02*
X316400D01*
X315000Y282161D02*
G03X316400Y281200I1400J539D01*
G01X313700Y281203D02*
G03X315000Y282161I-100J1497D01*
G01X313700Y281203D02*
Y278797D01*
X315000Y277839D02*
G03X313700Y278797I-1400J-539D01*
G01X316400Y278800D02*
G03X315000Y277839I0J-1500D01*
G01X316400Y278800D02*
X319800D01*
X321214Y277800D02*
G03X319800Y278800I-1414J-500D01*
G01X321214Y277800D02*
X324147D01*
X326392Y279937D02*
G03X324147Y277800I1608J-3937D01*
G01X329608Y279937D02*
G03X326392I-1608J3937D01*
G01X329703Y272103D02*
G03X329608Y279937I-1703J3897D01*
G01X332342Y298750D02*
G03X332342I-3450J0D01*
G01X317342D02*
G03X317342I-3450J0D01*
G01X317082Y312436D02*
G03X316729Y315713I8418J2564D01*
X317082Y312436I-2837J-1963*
G01X302342Y253750D02*
G03X302342I-3450J0D01*
G01Y268750D02*
G03X302342I-3450J0D01*
G01Y283750D02*
G03X302342I-3450J0D01*
G01Y298750D02*
G03X302342I-3450J0D01*
G01Y313750D02*
G03X302342I-3450J0D01*
G01X293800Y321000D02*
Y308000D01*
X293273Y306727D02*
G03X293800Y308000I-1273J1273D01*
G01X293273Y306727D02*
X290430Y303885D01*
X289157Y303357D02*
G03X290430Y303885I0J1800D01*
G01X289157Y303357D02*
X288179D01*
Y306957D02*
G03Y303357I-4179J-1800D01*
G01Y306958D02*
X288412D01*
X288412D02*
X290200Y308746D01*
Y320254*
X288254Y322200*
X280214*
X278800Y321200D02*
G03X280214Y322200I0J1500D01*
G01X278800Y321200D02*
X275400D01*
X274000Y322161D02*
G03X275400Y321200I1400J539D01*
G01X272600D02*
G03X274000Y322161I0J1500D01*
G01X272600Y321200D02*
X269200D01*
X267786Y322200D02*
G03X269200Y321200I1414J500D01*
G01X267786Y322200D02*
X266746D01*
X265721Y321176*
Y319179*
X259742Y313200D02*
G03X265721Y319179I4179J1800D01*
G01X259742Y313200D02*
X246134D01*
X245434Y313058D02*
G03X246134Y313200I0J1800D01*
G01X245434Y313058D02*
X231292D01*
X222299D02*
G03X231292I4496J1800D01*
G01X222299D02*
X205701D01*
X197052Y312366D02*
G03X205701Y313058I4153J2492D01*
G01X196500Y316008D02*
G03X197052Y312366I-2608J-2258D01*
G01X205701Y316658D02*
G03X196500Y316008I-4496J-1800D01*
G01X205701Y316658D02*
X222299D01*
X231292D02*
G03X222299I-4497J-1800D01*
G01X231292D02*
X244876D01*
X245576Y316800D02*
G03X244876Y316658I-0J-1800D01*
G01X245576Y316800D02*
X259742D01*
X262121Y319179D02*
G03X259742Y316800I1800J-4179D01*
G01X262121Y319179D02*
Y321921D01*
X262648Y323194D02*
G03X262121Y321921I1273J-1273D01*
G01X262648Y323194D02*
X264727Y325273D01*
X266000Y325800D02*
G03X264727Y325273I0J-1800D01*
G01X266000Y325800D02*
X267786D01*
X269200Y326800D02*
G03X267786Y325800I0J-1500D01*
G01X269200Y326800D02*
X272600D01*
X274000Y325839D02*
G03X272600Y326800I-1400J-539D01*
G01X275400D02*
G03X274000Y325839I0J-1500D01*
G01X275400Y326800D02*
X278800D01*
X280214Y325800D02*
G03X278800Y326800I-1414J-500D01*
G01X280214Y325800D02*
X289000D01*
X290273Y325273D02*
G03X289000Y325800I-1273J-1273D01*
G01X290273Y325273D02*
X293273Y322273D01*
X293800Y321000D02*
G03X293273Y322273I-1800J0D01*
G01X178076Y224000D02*
G03X178076I-5730J0D01*
G01X182342Y238750D02*
G03X182342I-3450J0D01*
G01Y298750D02*
G03X182342I-3450J0D01*
G01X184300Y315000D02*
G03X184300I-8800J0D01*
G01X288550Y317750D02*
Y312250D01*
X286750Y310450D02*
G03X288550Y312250I0J1800D01*
G01X286750Y310450D02*
X281250D01*
X279450Y312250D02*
G03X281250Y310450I1800J0D01*
G01X279450Y312250D02*
Y317750D01*
X281250Y319550D02*
G03X279450Y317750I0J-1800D01*
G01X281250Y319550D02*
X286750D01*
X288550Y317750D02*
G03X286750Y319550I-1800J0D01*
G01X272900Y268000D02*
G03X272900I-3700J0D01*
G01X278708Y305157D02*
G03X278708I-4551J0D01*
G01Y315000D02*
G03X278708I-4551J0D01*
G01X268471Y305157D02*
G03X268471I-4550J0D01*
G01X255250Y257200D02*
G03X255250I-3450J0D01*
G01X253700Y268000D02*
G03X253700I-3700J0D01*
G01X257342Y298750D02*
G03X257342I-3450J0D01*
G01X242342Y253750D02*
G03X242342I-3450J0D01*
G01Y268750D02*
G03X242342I-3450J0D01*
G01X238450Y283600D02*
G03X238450I-3450J0D01*
G01X242342Y298750D02*
G03X242342I-3450J0D01*
G01X227342Y208750D02*
G03X227342I-3450J0D01*
G01Y223750D02*
G03X227342I-3450J0D01*
G01Y238750D02*
G03X227342I-3450J0D01*
G01Y253750D02*
G03X227342I-3450J0D01*
G01Y268750D02*
G03X227342I-3450J0D01*
G01Y283750D02*
G03X227342I-3450J0D01*
G01X231639Y297142D02*
G03X231639I-4844J0D01*
G01X212342Y208750D02*
G03X212342I-3450J0D01*
G01Y238750D02*
G03X212342I-3450J0D01*
G01Y253750D02*
G03X212342I-3450J0D01*
G01X212650Y265600D02*
G03X212650I-3450J0D01*
G01X212342Y283750D02*
G03X212342I-3450J0D01*
G01X197342Y208750D02*
G03X197342I-3450J0D01*
G01Y268750D02*
G03X197342I-3450J0D01*
G01X206037Y296813D02*
G03X205500Y299380I2855J1937D01*
G01X196418Y296401D02*
G03X206037Y296813I4787J741D01*
G01X197171Y299822D02*
G03X196418Y296401I-3279J-1072D01*
G01X205500Y299380D02*
G03X197171Y299822I-4295J-2238D01*
G01X287342Y208750D02*
G03X287342I-3450J0D01*
G01X272342D02*
G03X272342I-3450J0D01*
G01X257342D02*
G03X257342I-3450J0D01*
G01X329573Y220299D02*
X330427D01*
X317142Y195999D02*
X324188D01*
X303944Y201399D02*
X324179D01*
X317530Y196899D02*
X323932D01*
X316349Y200499D02*
X323713D01*
X317144Y199599D02*
X323700D01*
X317531Y198699D02*
X323700D01*
X317650Y197799D02*
X323700D01*
X303044Y200499D02*
X312051D01*
X298544Y195999D02*
X311258D01*
X302144Y199599D02*
X311256D01*
X299444Y196899D02*
X310870D01*
X301244Y198699D02*
X310869D01*
X300344Y197799D02*
X310750D01*
X297644Y195099D02*
X309674D01*
X296744Y194199D02*
X308774D01*
X295844Y193299D02*
X307874D01*
X294944Y192399D02*
X306974D01*
X294044Y191499D02*
X306074D01*
X293144Y190599D02*
X305174D01*
X292244Y189699D02*
X304274D01*
X291344Y188799D02*
X303374D01*
X290444Y187899D02*
X302474D01*
X289544Y186999D02*
X301574D01*
X288644Y186099D02*
X300674D01*
X287744Y185199D02*
X299774D01*
X286844Y184299D02*
X298874D01*
X285944Y183399D02*
X297974D01*
X285044Y182499D02*
X297074D01*
X284144Y181599D02*
X296174D01*
X283244Y180699D02*
X295274D01*
X263656Y179799D02*
X294374D01*
X262511Y178899D02*
X293474D01*
X255547Y177999D02*
X292574D01*
X250293Y185199D02*
X259707D01*
X254647Y178899D02*
X259489D01*
X251573Y184299D02*
X258427D01*
X253747Y179799D02*
X258344D01*
X252154Y183399D02*
X257846D01*
X252847Y180699D02*
X257805D01*
X252414Y182499D02*
X257586D01*
X252427Y181599D02*
X257573D01*
X329799Y206799D02*
X330201D01*
X329881Y205899D02*
X330119D01*
X329621Y201399D02*
X330379D01*
X329812Y195999D02*
X330188D01*
X329868Y196899D02*
X330132D01*
X329502Y191499D02*
X330498D01*
X193626Y189699D02*
X274430D01*
X193202Y188799D02*
X198931D01*
X193770Y187899D02*
X197353D01*
X193800Y186999D02*
X196453D01*
X193800Y186099D02*
X195553D01*
X193800Y185199D02*
X194653D01*
X215555Y108699D02*
X218067D01*
X216384Y109599D02*
X217238D01*
X223429Y108699D02*
X225941D01*
X224258Y109599D02*
X225112D01*
X168800Y174399D02*
X170952D01*
X168800Y173499D02*
X170253D01*
X168800Y175299D02*
X169823D01*
X168800Y172599D02*
X169453D01*
X168800Y171699D02*
X169001D01*
X188202Y188799D02*
X188798D01*
X329498Y245499D02*
X330502D01*
X329144Y244599D02*
X329943D01*
X329531Y243699D02*
X329621D01*
X162500Y328299D02*
X339000D01*
X162500Y327399D02*
X339000D01*
X279702Y326499D02*
X339000D01*
X289827Y325599D02*
X339000D01*
X290847Y324699D02*
X339000D01*
X325653Y323799D02*
X339000D01*
X329380Y322899D02*
X339000D01*
X330835Y321999D02*
X339000D01*
X331844Y321099D02*
X339000D01*
X332600Y320199D02*
X339000D01*
X333179Y319299D02*
X339000D01*
X333617Y318399D02*
X339000D01*
X333938Y317499D02*
X339000D01*
X334154Y316599D02*
X339000D01*
X334272Y315699D02*
X339000D01*
X334298Y314799D02*
X339000D01*
X334231Y313899D02*
X339000D01*
X334069Y312999D02*
X339000D01*
X333808Y312099D02*
X339000D01*
X333437Y311199D02*
X339000D01*
X332939Y310299D02*
X339000D01*
X332287Y309399D02*
X339000D01*
X331431Y308499D02*
X339000D01*
X330260Y307599D02*
X339000D01*
X328420Y306699D02*
X339000D01*
X292344Y305799D02*
X339000D01*
X291444Y304899D02*
X339000D01*
X290544Y303999D02*
X339000D01*
X288058Y303099D02*
X339000D01*
X328988Y302199D02*
X339000D01*
X331217Y301299D02*
X339000D01*
X331922Y300399D02*
X339000D01*
X332260Y299499D02*
X339000D01*
X332339Y298599D02*
X339000D01*
X332178Y297699D02*
X339000D01*
X331737Y296799D02*
X339000D01*
X330834Y295899D02*
X339000D01*
X231139Y294999D02*
X339000D01*
X230563Y294099D02*
X339000D01*
X229608Y293199D02*
X339000D01*
X320919Y292299D02*
X339000D01*
X321297Y291399D02*
X339000D01*
X321300Y290499D02*
X339000D01*
X321300Y289599D02*
X339000D01*
X321300Y288699D02*
X339000D01*
X329638Y287799D02*
X339000D01*
X330990Y286899D02*
X339000D01*
X331684Y285999D02*
X339000D01*
X332073Y285099D02*
X339000D01*
X332240Y284199D02*
X339000D01*
X332214Y283299D02*
X339000D01*
X331989Y282399D02*
X339000D01*
X331528Y281499D02*
X339000D01*
X330713Y280599D02*
X339000D01*
X330099Y279699D02*
X339000D01*
X331202Y278799D02*
X339000D01*
X331805Y277899D02*
X339000D01*
X332134Y276999D02*
X339000D01*
X332252Y276099D02*
X339000D01*
X332177Y275199D02*
X339000D01*
X331898Y274299D02*
X339000D01*
X331364Y273399D02*
X339000D01*
X330414Y272499D02*
X339000D01*
X330838Y271599D02*
X339000D01*
X331739Y270699D02*
X339000D01*
X332179Y269799D02*
X339000D01*
X332339Y268899D02*
X339000D01*
X332259Y267999D02*
X339000D01*
X331921Y267099D02*
X339000D01*
X331214Y266199D02*
X339000D01*
X313700Y265299D02*
X339000D01*
X313700Y264399D02*
X339000D01*
X313700Y263499D02*
X339000D01*
X313700Y262599D02*
X339000D01*
X313700Y261699D02*
X339000D01*
X334863Y260799D02*
X339000D01*
X336175Y259899D02*
X339000D01*
X336300Y258999D02*
X339000D01*
X336300Y258099D02*
X339000D01*
X336300Y257199D02*
X339000D01*
X336245Y256299D02*
X339000D01*
X335546Y255399D02*
X339000D01*
X336108Y254499D02*
X339000D01*
X336398Y253599D02*
X339000D01*
X336437Y252699D02*
X339000D01*
X336234Y251799D02*
X339000D01*
X335736Y250899D02*
X339000D01*
X336127Y249999D02*
X339000D01*
X336300Y249099D02*
X339000D01*
X336300Y248199D02*
X339000D01*
X336300Y247299D02*
X339000D01*
X336269Y246399D02*
X339000D01*
X335698Y245499D02*
X339000D01*
X336057Y244599D02*
X339000D01*
X336379Y243699D02*
X339000D01*
X336444Y242799D02*
X339000D01*
X336270Y241899D02*
X339000D01*
X335810Y240999D02*
X339000D01*
X334867Y240099D02*
X339000D01*
X303744Y239199D02*
X339000D01*
X302844Y238299D02*
X339000D01*
X301944Y237399D02*
X339000D01*
X301044Y236499D02*
X339000D01*
X335551Y235599D02*
X339000D01*
X336246Y234699D02*
X339000D01*
X336300Y233799D02*
X339000D01*
X336300Y232899D02*
X339000D01*
X336300Y231999D02*
X339000D01*
X336174Y231099D02*
X339000D01*
X335659Y230199D02*
X339000D01*
X336196Y229299D02*
X339000D01*
X336427Y228399D02*
X339000D01*
X336413Y227499D02*
X339000D01*
X336153Y226599D02*
X339000D01*
X335570Y225699D02*
X339000D01*
X336215Y224799D02*
X339000D01*
X336300Y223899D02*
X339000D01*
X336300Y222999D02*
X339000D01*
X336300Y222099D02*
X339000D01*
X336214Y221199D02*
X339000D01*
X335573Y220299D02*
X339000D01*
X336154Y219399D02*
X339000D01*
X336414Y218499D02*
X339000D01*
X336427Y217599D02*
X339000D01*
X336195Y216699D02*
X339000D01*
X335656Y215799D02*
X339000D01*
X334511Y214899D02*
X339000D01*
X321250Y213999D02*
X339000D01*
X321130Y213099D02*
X339000D01*
X320742Y212199D02*
X339000D01*
X335919Y211299D02*
X339000D01*
X336297Y210399D02*
X339000D01*
X336300Y209499D02*
X339000D01*
X336300Y208599D02*
X339000D01*
X336300Y207699D02*
X339000D01*
X335999Y206799D02*
X339000D01*
X335881Y205899D02*
X339000D01*
X336302Y204999D02*
X339000D01*
X336449Y204099D02*
X339000D01*
X336356Y203199D02*
X339000D01*
X336001Y202299D02*
X339000D01*
X335821Y201399D02*
X339000D01*
X336287Y200499D02*
X339000D01*
X336300Y199599D02*
X339000D01*
X336300Y198699D02*
X339000D01*
X336300Y197799D02*
X339000D01*
X336068Y196899D02*
X339000D01*
X335812Y195999D02*
X339000D01*
X336270Y195099D02*
X339000D01*
X336444Y194199D02*
X339000D01*
X336378Y193299D02*
X339000D01*
X336056Y192399D02*
X339000D01*
X335702Y191499D02*
X339000D01*
X336270Y190599D02*
X339000D01*
X336300Y189699D02*
X339000D01*
X336300Y188799D02*
X339000D01*
X336300Y187899D02*
X339000D01*
X336126Y186999D02*
X339000D01*
X335738Y186099D02*
X339000D01*
X336235Y185199D02*
X339000D01*
X336437Y184299D02*
X339000D01*
X336397Y183399D02*
X339000D01*
X336106Y182499D02*
X339000D01*
X335477Y181599D02*
X339000D01*
X334002Y180699D02*
X339000D01*
X299465Y179799D02*
X339000D01*
X299871Y178899D02*
X339000D01*
X300812Y177999D02*
X339000D01*
X301270Y177099D02*
X339000D01*
X301444Y176199D02*
X339000D01*
X301378Y175299D02*
X339000D01*
X301056Y174399D02*
X339000D01*
X300376Y173499D02*
X339000D01*
X299800Y172599D02*
X339000D01*
X299800Y171699D02*
X339000D01*
X299800Y170799D02*
X339000D01*
X299800Y169899D02*
X339000D01*
X299800Y168999D02*
X339000D01*
X299800Y168099D02*
X339000D01*
X330486Y167199D02*
X339000D01*
X331403Y166299D02*
X339000D01*
X331919Y165399D02*
X339000D01*
X332186Y164499D02*
X339000D01*
X332250Y163599D02*
X339000D01*
X332121Y162699D02*
X339000D01*
X331780Y161799D02*
X339000D01*
X331157Y160899D02*
X339000D01*
X330007Y159999D02*
X339000D01*
X330773Y159099D02*
X339000D01*
X331561Y158199D02*
X339000D01*
X332007Y157299D02*
X339000D01*
X332220Y156399D02*
X339000D01*
X332236Y155499D02*
X339000D01*
X332057Y154599D02*
X339000D01*
X331654Y153699D02*
X339000D01*
X330937Y152799D02*
X339000D01*
X329699Y151899D02*
X339000D01*
X331016Y150999D02*
X339000D01*
X331699Y150099D02*
X339000D01*
X332080Y149199D02*
X339000D01*
X332242Y148299D02*
X339000D01*
X332210Y147399D02*
X339000D01*
X331979Y146499D02*
X339000D01*
X331510Y145599D02*
X339000D01*
X330681Y144699D02*
X339000D01*
X328660Y143799D02*
X339000D01*
X220881Y142899D02*
X339000D01*
X221302Y141999D02*
X339000D01*
X221449Y141099D02*
X339000D01*
X221356Y140199D02*
X339000D01*
X221001Y139299D02*
X339000D01*
X220266Y138399D02*
X339000D01*
X178461Y137499D02*
X339000D01*
X255838Y136599D02*
X339000D01*
X256739Y135699D02*
X339000D01*
X257179Y134799D02*
X339000D01*
X257339Y133899D02*
X339000D01*
X257259Y132999D02*
X339000D01*
X256921Y132099D02*
X339000D01*
X256214Y131199D02*
X339000D01*
X185661Y130299D02*
X339000D01*
X315306Y129399D02*
X339000D01*
X316338Y128499D02*
X339000D01*
X316835Y127599D02*
X339000D01*
X317037Y126699D02*
X339000D01*
X316997Y125799D02*
X339000D01*
X316706Y124899D02*
X339000D01*
X316077Y123999D02*
X339000D01*
X328943Y123099D02*
X339000D01*
X330562Y122199D02*
X339000D01*
X331645Y121299D02*
X339000D01*
X332449Y120399D02*
X339000D01*
X333063Y119499D02*
X339000D01*
X333531Y118599D02*
X339000D01*
X333876Y117699D02*
X339000D01*
X334114Y116799D02*
X339000D01*
X334254Y115899D02*
X339000D01*
X334300Y114999D02*
X339000D01*
X334254Y114099D02*
X339000D01*
X334114Y113199D02*
X339000D01*
X333875Y112299D02*
X339000D01*
X333529Y111399D02*
X339000D01*
X333062Y110499D02*
X339000D01*
X332447Y109599D02*
X339000D01*
X331643Y108699D02*
X339000D01*
X330558Y107799D02*
X339000D01*
X330302Y106899D02*
X339000D01*
X331508Y105999D02*
X339000D01*
X332067Y105099D02*
X339000D01*
X332313Y104199D02*
X339000D01*
X332312Y103299D02*
X339000D01*
X332066Y102399D02*
X339000D01*
X319002Y180699D02*
X331998D01*
X328511Y214899D02*
X331489D01*
X328663Y260799D02*
X331337D01*
X328346Y240099D02*
X331133D01*
X329351Y235599D02*
X330649D01*
X320477Y181599D02*
X330523D01*
X329346Y255399D02*
X330520D01*
X329142Y225699D02*
X330430D01*
X329656Y215799D02*
X330344D01*
X322680Y230199D02*
X330341D01*
X329719Y211299D02*
X330281D01*
X313700Y250899D02*
X330264D01*
X320738Y186099D02*
X330262D01*
X329142Y240999D02*
X330190D01*
X329926Y186999D02*
X330074D01*
X329927Y249999D02*
X330073D01*
X329974Y231099D02*
X330026D01*
X329975Y259899D02*
X330025D01*
X321106Y182499D02*
X329894D01*
X313700Y254499D02*
X329892D01*
X323434Y226599D02*
X329847D01*
X323308Y229299D02*
X329804D01*
X313700Y251799D02*
X329766D01*
X321235Y185199D02*
X329765D01*
X329530Y241899D02*
X329730D01*
X321397Y183399D02*
X329603D01*
X313700Y253599D02*
X329602D01*
X323637Y227499D02*
X329587D01*
X323598Y228399D02*
X329573D01*
X313700Y252699D02*
X329563D01*
X321437Y184299D02*
X329563D01*
X313988Y302199D02*
X328795D01*
X220300Y143799D02*
X327340D01*
X315834Y295899D02*
X326950D01*
X313700Y271599D02*
X326946D01*
X313700Y266199D02*
X326569D01*
X316217Y301299D02*
X326567D01*
X320999Y287799D02*
X326362D01*
X316508Y105999D02*
X326275D01*
X316737Y296799D02*
X326047D01*
X313700Y270699D02*
X326045D01*
X304547Y159999D02*
X325993D01*
X313700Y279699D02*
X325901D01*
X313700Y267099D02*
X325863D01*
X316922Y300399D02*
X325861D01*
X317066Y102399D02*
X325717D01*
X317067Y105099D02*
X325716D01*
X317178Y297699D02*
X325606D01*
X313700Y269799D02*
X325605D01*
X313700Y272499D02*
X325586D01*
X313700Y267999D02*
X325525D01*
X317260Y299499D02*
X325524D01*
X313988Y167199D02*
X325514D01*
X321131Y214899D02*
X325489D01*
X317312Y103299D02*
X325471D01*
X317313Y104199D02*
X325471D01*
X317339Y298599D02*
X325445D01*
X313700Y268899D02*
X325445D01*
X291747Y323799D02*
X325347D01*
X220300Y144699D02*
X325319D01*
X313700Y280599D02*
X325287D01*
X305447Y159099D02*
X325227D01*
X313700Y260799D02*
X325137D01*
X315100Y286899D02*
X325010D01*
X315834Y160899D02*
X324843D01*
X319863Y278799D02*
X324798D01*
X322936Y225699D02*
X324658D01*
X320546Y273399D02*
X324636D01*
X316217Y166299D02*
X324597D01*
X322818Y145599D02*
X324490D01*
X320698Y281499D02*
X324472D01*
X313700Y255399D02*
X324454D01*
X300144Y235599D02*
X324449D01*
X323001Y158199D02*
X324439D01*
X198373Y220299D02*
X324427D01*
X320744Y215799D02*
X324344D01*
X321127Y285999D02*
X324316D01*
X311165Y191499D02*
X324298D01*
X316737Y161799D02*
X324220D01*
X321175Y277899D02*
X324195D01*
X301444Y205899D02*
X324119D01*
X319946Y211299D02*
X324081D01*
X316922Y165399D02*
X324081D01*
X304644Y240099D02*
X324054D01*
X310044Y245499D02*
X324051D01*
X321269Y282399D02*
X324011D01*
X302344Y206799D02*
X324001D01*
X321300Y285099D02*
X323927D01*
X317178Y162699D02*
X323879D01*
X319706Y186999D02*
X323874D01*
X313700Y249999D02*
X323873D01*
X321211Y231099D02*
X323826D01*
X313700Y259899D02*
X323825D01*
X317260Y164499D02*
X323814D01*
X321300Y283299D02*
X323786D01*
X226214Y221199D02*
X323786D01*
X321901Y224799D02*
X323785D01*
X321300Y284199D02*
X323760D01*
X313700Y256299D02*
X323755D01*
X299244Y234699D02*
X323754D01*
X317339Y163599D02*
X323750D01*
X310944Y246399D02*
X323731D01*
X310265Y190599D02*
X323730D01*
X305944Y210399D02*
X323703D01*
X313700Y258999D02*
X323700D01*
X313700Y258099D02*
X323700D01*
X313700Y257199D02*
X323700D01*
X313512Y249099D02*
X323700D01*
X312744Y248199D02*
X323700D01*
X311844Y247299D02*
X323700D01*
X298344Y233799D02*
X323700D01*
X297444Y232899D02*
X323700D01*
X296544Y231999D02*
X323700D01*
X227339Y223899D02*
X323700D01*
X227259Y222999D02*
X323700D01*
X226921Y222099D02*
X323700D01*
X305044Y209499D02*
X323700D01*
X304144Y208599D02*
X323700D01*
X303244Y207699D02*
X323700D01*
X309365Y189699D02*
X323700D01*
X308465Y188799D02*
X323700D01*
X307565Y187899D02*
X323700D01*
X305544Y240999D02*
X323258D01*
X309144Y244599D02*
X323256D01*
X306444Y241899D02*
X322870D01*
X308244Y243699D02*
X322869D01*
X307344Y242799D02*
X322750D01*
X293244Y306699D02*
X322580D01*
X315302Y106899D02*
X322064D01*
X314602Y123099D02*
X322057D01*
X292647Y322899D02*
X321620D01*
X293755Y307599D02*
X320740D01*
X294282Y107799D02*
X320442D01*
X313988Y122199D02*
X320438D01*
X293498Y321999D02*
X320165D01*
X293800Y308499D02*
X319569D01*
X296303Y108699D02*
X319357D01*
X316217Y121299D02*
X319355D01*
X295644Y231099D02*
X319189D01*
X293797Y321099D02*
X319156D01*
X293800Y309399D02*
X318713D01*
X297132Y109599D02*
X318553D01*
X316922Y120399D02*
X318551D01*
X246286Y224799D02*
X318499D01*
X293800Y320199D02*
X318400D01*
X293800Y310299D02*
X318061D01*
X297601Y110499D02*
X317938D01*
X317260Y119499D02*
X317937D01*
X293800Y319299D02*
X317821D01*
X294744Y230199D02*
X317720D01*
X316214Y311199D02*
X317563D01*
X297832Y111399D02*
X317471D01*
X317339Y118599D02*
X317469D01*
X247570Y225699D02*
X317464D01*
X256508Y150999D02*
X317456D01*
X293800Y318399D02*
X317383D01*
X316618Y145599D02*
X317382D01*
X316801Y158199D02*
X317199D01*
X316921Y312099D02*
X317192D01*
X316870Y150099D02*
X317130D01*
X297864Y112299D02*
X317125D01*
X293844Y229299D02*
X317092D01*
X293800Y317499D02*
X317062D01*
X300365Y180699D02*
X316998D01*
X291130Y226599D02*
X316966D01*
X297702Y113199D02*
X316886D01*
X316737Y116799D02*
X316886D01*
X315838Y316599D02*
X316846D01*
X292944Y228399D02*
X316802D01*
X292044Y227499D02*
X316763D01*
X297321Y114099D02*
X316746D01*
X315834Y115899D02*
X316746D01*
X296638Y114999D02*
X316700D01*
X313700Y278799D02*
X316337D01*
X306665Y186999D02*
X316294D01*
X306844Y211299D02*
X315654D01*
X314346Y273399D02*
X315654D01*
X301265Y181599D02*
X315523D01*
X314498Y281499D02*
X315502D01*
X314719Y292299D02*
X315281D01*
X305765Y186099D02*
X315262D01*
X315100Y287799D02*
X315201D01*
X314975Y277899D02*
X315025D01*
X302165Y182499D02*
X314894D01*
X307744Y212199D02*
X314858D01*
X311344Y215799D02*
X314856D01*
X304865Y185199D02*
X314765D01*
X303065Y183399D02*
X314603D01*
X303965Y184299D02*
X314563D01*
X308644Y213099D02*
X314470D01*
X310444Y214899D02*
X314469D01*
X309544Y213999D02*
X314350D01*
X298988Y302199D02*
X313795D01*
X299800Y167199D02*
X313795D01*
X298988Y122199D02*
X313795D01*
X288046Y123099D02*
X312598D01*
X300302Y106899D02*
X312482D01*
X300834Y295899D02*
X311950D01*
X303647Y160899D02*
X311950D01*
X300834Y115899D02*
X311950D01*
X300838Y316599D02*
X311946D01*
X186561Y129399D02*
X311894D01*
X301214Y311199D02*
X311569D01*
X301217Y301299D02*
X311567D01*
X299800Y166299D02*
X311567D01*
X301217Y121299D02*
X311567D01*
X300302Y286899D02*
X311500D01*
X301508Y105999D02*
X311275D01*
X255296Y145599D02*
X311182D01*
X288745Y123999D02*
X311123D01*
X301737Y296799D02*
X311047D01*
X302747Y161799D02*
X311047D01*
X301737Y116799D02*
X311047D01*
X301739Y315699D02*
X311045D01*
X306347Y158199D02*
X310999D01*
X257067Y150099D02*
X310930D01*
X301921Y312099D02*
X310863D01*
X288627Y128499D02*
X310862D01*
X301922Y300399D02*
X310861D01*
X299800Y165399D02*
X310861D01*
X301922Y120399D02*
X310861D01*
X302066Y102399D02*
X310717D01*
X302067Y105099D02*
X310716D01*
X256506Y146499D02*
X310714D01*
X307247Y157299D02*
X310700D01*
X308147Y156399D02*
X310700D01*
X309047Y155499D02*
X310700D01*
X257313Y149199D02*
X310700D01*
X257312Y148299D02*
X310700D01*
X257066Y147399D02*
X310700D01*
X302178Y297699D02*
X310606D01*
X301847Y162699D02*
X310606D01*
X302178Y117699D02*
X310606D01*
X302179Y314799D02*
X310605D01*
X302259Y312999D02*
X310525D01*
X302260Y299499D02*
X310524D01*
X300047Y164499D02*
X310524D01*
X302260Y119499D02*
X310524D01*
X288800Y124899D02*
X310494D01*
X302312Y103299D02*
X310471D01*
X302313Y104199D02*
X310471D01*
X302339Y298599D02*
X310445D01*
X300947Y163599D02*
X310445D01*
X302339Y118599D02*
X310445D01*
X302339Y313899D02*
X310445D01*
X288800Y127599D02*
X310365D01*
X288800Y125799D02*
X310203D01*
X288800Y126699D02*
X310163D01*
X300296Y280599D02*
X310100D01*
X162500Y279699D02*
X310100D01*
X162500Y278799D02*
X310100D01*
X162500Y272499D02*
X310100D01*
X300838Y271599D02*
X310100D01*
X301739Y270699D02*
X310100D01*
X302179Y269799D02*
X310100D01*
X302339Y268899D02*
X310100D01*
X302259Y267999D02*
X310100D01*
X301921Y267099D02*
X310100D01*
X301214Y266199D02*
X310100D01*
X271728Y265299D02*
X310100D01*
X270049Y264399D02*
X310100D01*
X211936Y263499D02*
X310100D01*
X210901Y262599D02*
X310100D01*
X162500Y261699D02*
X310100D01*
X162500Y260799D02*
X310100D01*
X253949Y259899D02*
X310100D01*
X254744Y258999D02*
X310100D01*
X255131Y258099D02*
X310100D01*
X298988Y257199D02*
X310100D01*
X301217Y256299D02*
X310100D01*
X301922Y255399D02*
X310100D01*
X302260Y254499D02*
X310100D01*
X302339Y253599D02*
X310100D01*
X302178Y252699D02*
X310100D01*
X301737Y251799D02*
X310100D01*
X300834Y250899D02*
X310100D01*
X197413Y219399D02*
X309867D01*
X162500Y273399D02*
X309454D01*
X162500Y249999D02*
X309453D01*
X301506Y281499D02*
X309302D01*
X226848Y292299D02*
X309081D01*
X162500Y287799D02*
X309001D01*
X195600Y218499D02*
X308953D01*
X301508Y285999D02*
X308873D01*
X162500Y277899D02*
X308825D01*
X162500Y274299D02*
X308755D01*
X302066Y282399D02*
X308731D01*
X162500Y291399D02*
X308703D01*
X162500Y290499D02*
X308700D01*
X162500Y289599D02*
X308700D01*
X162500Y288699D02*
X308700D01*
X302067Y285099D02*
X308700D01*
X302313Y284199D02*
X308700D01*
X302312Y283299D02*
X308700D01*
X162500Y276999D02*
X308700D01*
X162500Y276099D02*
X308700D01*
X162500Y275199D02*
X308700D01*
X162500Y249099D02*
X308553D01*
X191559Y217599D02*
X308053D01*
X162500Y248199D02*
X307653D01*
X255302Y151899D02*
X307556D01*
X190659Y216699D02*
X307153D01*
X162500Y247299D02*
X306753D01*
X220300Y152799D02*
X306656D01*
X189759Y215799D02*
X306253D01*
X162500Y246399D02*
X305853D01*
X259002Y153699D02*
X305756D01*
X188859Y214899D02*
X305353D01*
X162500Y245499D02*
X304953D01*
X260477Y154599D02*
X304856D01*
X187959Y213999D02*
X304453D01*
X162500Y244599D02*
X304053D01*
X288993Y155499D02*
X303956D01*
X187059Y213099D02*
X303553D01*
X162500Y243699D02*
X303153D01*
X289944Y156399D02*
X303056D01*
X283988Y212199D02*
X302653D01*
X300544Y204999D02*
X302453D01*
X162500Y242799D02*
X302253D01*
X290844Y157299D02*
X302156D01*
X286217Y211299D02*
X301753D01*
X299644Y204099D02*
X301553D01*
X225302Y241899D02*
X301353D01*
X291744Y158199D02*
X301256D01*
X286922Y210399D02*
X300853D01*
X298744Y203199D02*
X300653D01*
X226508Y240999D02*
X300453D01*
X294867Y159099D02*
X300356D01*
X287260Y209499D02*
X299953D01*
X297844Y202299D02*
X299753D01*
X227067Y240099D02*
X299553D01*
X295810Y159999D02*
X299456D01*
X287339Y208599D02*
X299053D01*
X296944Y201399D02*
X298853D01*
X287457Y302199D02*
X298795D01*
X255250Y257199D02*
X298795D01*
X288675Y122199D02*
X298795D01*
X227313Y239199D02*
X298653D01*
X296270Y160899D02*
X298556D01*
X287178Y207699D02*
X298153D01*
X296044Y200499D02*
X297953D01*
X227312Y238299D02*
X297753D01*
X296444Y161799D02*
X297656D01*
X236701Y280599D02*
X297488D01*
X236011Y286899D02*
X297482D01*
X285302Y106899D02*
X297482D01*
X286737Y206799D02*
X297253D01*
X295144Y199599D02*
X297053D01*
X255834Y295899D02*
X296950D01*
X240834Y250899D02*
X296950D01*
X295321Y115899D02*
X296950D01*
X293800Y316599D02*
X296946D01*
X270060Y271599D02*
X296946D01*
X227066Y237399D02*
X296853D01*
X296379Y162699D02*
X296756D01*
X293800Y311199D02*
X296569D01*
X272432Y266199D02*
X296569D01*
X286411Y301299D02*
X296567D01*
X255130Y256299D02*
X296567D01*
X288800Y121299D02*
X296567D01*
X285834Y205899D02*
X296353D01*
X237736Y281499D02*
X296278D01*
X237480Y285999D02*
X296275D01*
X286508Y105999D02*
X296275D01*
X296057Y163599D02*
X296245D01*
X236434Y172599D02*
X296200D01*
X235936Y171699D02*
X296200D01*
X234901Y170799D02*
X296200D01*
X220300Y169899D02*
X296200D01*
X220300Y168999D02*
X296200D01*
X220300Y168099D02*
X296200D01*
X223988Y167199D02*
X296200D01*
X226217Y166299D02*
X296200D01*
X293593Y165399D02*
X296200D01*
X295379Y164499D02*
X296200D01*
X294244Y198699D02*
X296153D01*
X256737Y296799D02*
X296047D01*
X241737Y251799D02*
X296047D01*
X287835Y116799D02*
X296047D01*
X293800Y315699D02*
X296045D01*
X271731Y270699D02*
X296045D01*
X226506Y236499D02*
X295953D01*
X293800Y312099D02*
X295863D01*
X272789Y267099D02*
X295863D01*
X256922Y300399D02*
X295861D01*
X254742Y255399D02*
X295861D01*
X288800Y120399D02*
X295861D01*
X238234Y282399D02*
X295717D01*
X287066Y102399D02*
X295717D01*
X238108Y285099D02*
X295716D01*
X287067Y105099D02*
X295716D01*
X236637Y173499D02*
X295624D01*
X257178Y297699D02*
X295606D01*
X242178Y252699D02*
X295606D01*
X288714Y117699D02*
X295606D01*
X293800Y314799D02*
X295605D01*
X272433Y269799D02*
X295605D01*
X293800Y312999D02*
X295525D01*
X272900Y267999D02*
X295525D01*
X257260Y299499D02*
X295524D01*
X253946Y254499D02*
X295524D01*
X288800Y119499D02*
X295524D01*
X238437Y283299D02*
X295471D01*
X287312Y103299D02*
X295471D01*
X238398Y284199D02*
X295471D01*
X287313Y104199D02*
X295471D01*
X178959Y204999D02*
X295453D01*
X257339Y298599D02*
X295445D01*
X242339Y253599D02*
X295445D01*
X288800Y118599D02*
X295445D01*
X293800Y313899D02*
X295445D01*
X272789Y268899D02*
X295445D01*
X293344Y197799D02*
X295253D01*
X225296Y235599D02*
X295053D01*
X293943Y174399D02*
X294944D01*
X178059Y204099D02*
X294553D01*
X292444Y196899D02*
X294353D01*
X162500Y234699D02*
X294153D01*
X269293Y203199D02*
X293653D01*
X291544Y195999D02*
X293453D01*
X162500Y233799D02*
X293253D01*
X286408Y107799D02*
X292962D01*
X270573Y202299D02*
X292753D01*
X290644Y195099D02*
X292553D01*
X283593Y165399D02*
X292407D01*
X162500Y232899D02*
X292353D01*
X287728Y115899D02*
X291923D01*
X271154Y201399D02*
X291853D01*
X289744Y194199D02*
X291653D01*
X162500Y231999D02*
X291453D01*
X271414Y200499D02*
X290953D01*
X288429Y108699D02*
X290941D01*
X288844Y193299D02*
X290753D01*
X285379Y164499D02*
X290621D01*
X288764Y114999D02*
X290606D01*
X246517Y231099D02*
X290553D01*
X265721Y320199D02*
X290200D01*
X287667Y319299D02*
X290200D01*
X288429Y318399D02*
X290200D01*
X288550Y317499D02*
X290200D01*
X288550Y316599D02*
X290200D01*
X288550Y315699D02*
X290200D01*
X288550Y314799D02*
X290200D01*
X288550Y313899D02*
X290200D01*
X288550Y312999D02*
X290200D01*
X288544Y312099D02*
X290200D01*
X288211Y311199D02*
X290200D01*
X228429Y310299D02*
X290200D01*
X285648Y309399D02*
X290200D01*
X289258Y109599D02*
X290112D01*
X271427Y199599D02*
X290053D01*
X287089Y308499D02*
X289953D01*
X286057Y163599D02*
X289943D01*
X289447Y114099D02*
X289923D01*
X287944Y192399D02*
X289853D01*
X247659Y230199D02*
X289653D01*
X286379Y162699D02*
X289621D01*
X286444Y161799D02*
X289556D01*
X265721Y321099D02*
X289356D01*
X286270Y160899D02*
X289353D01*
X275149Y198699D02*
X289153D01*
X287840Y307599D02*
X289053D01*
X287044Y191499D02*
X288953D01*
X280126Y321999D02*
X288456D01*
X285810Y159999D02*
X288453D01*
X275944Y197799D02*
X288253D01*
X286144Y190599D02*
X288053D01*
X284867Y159099D02*
X287553D01*
X276331Y196899D02*
X287353D01*
X285244Y189699D02*
X287153D01*
X276450Y195999D02*
X286453D01*
X284344Y188799D02*
X286253D01*
X278517Y195099D02*
X285553D01*
X283444Y187899D02*
X285353D01*
X278534Y107799D02*
X285088D01*
X279659Y194199D02*
X284653D01*
X282544Y186999D02*
X284453D01*
X279835Y116799D02*
X284128D01*
X279674Y115899D02*
X284049D01*
X280046Y123099D02*
X283954D01*
X268988Y212199D02*
X283795D01*
X280196Y193299D02*
X283753D01*
X281644Y186099D02*
X283553D01*
X280627Y128499D02*
X283373D01*
X280675Y122199D02*
X283325D01*
X280714Y117699D02*
X283286D01*
X280745Y123999D02*
X283255D01*
X280800Y127599D02*
X283200D01*
X280800Y126699D02*
X283200D01*
X280800Y125799D02*
X283200D01*
X280800Y124899D02*
X283200D01*
X280800Y121299D02*
X283200D01*
X280800Y120399D02*
X283200D01*
X280800Y119499D02*
X283200D01*
X280800Y118599D02*
X283200D01*
X280555Y108699D02*
X283067D01*
X280427Y192399D02*
X282853D01*
X280890Y114999D02*
X282732D01*
X262293Y185199D02*
X282653D01*
X270302Y106899D02*
X282482D01*
X253593Y165399D02*
X282407D01*
X275805Y309399D02*
X282352D01*
X281384Y109599D02*
X282238D01*
X281573Y114099D02*
X282049D01*
X280413Y191499D02*
X281953D01*
X270834Y205899D02*
X281950D01*
X263573Y184299D02*
X281753D01*
X276568Y301299D02*
X281589D01*
X271217Y211299D02*
X281567D01*
X271508Y105999D02*
X281275D01*
X280153Y190599D02*
X281053D01*
X271737Y206799D02*
X281047D01*
X277246Y308499D02*
X280911D01*
X271922Y210399D02*
X280861D01*
X272066Y102399D02*
X280717D01*
X272067Y105099D02*
X280716D01*
X255379Y164499D02*
X280621D01*
X272178Y207699D02*
X280606D01*
X277614Y302199D02*
X280543D01*
X272260Y209499D02*
X280524D01*
X272312Y103299D02*
X280471D01*
X272313Y104199D02*
X280471D01*
X272339Y208599D02*
X280445D01*
X275649Y319299D02*
X280333D01*
X277997Y307599D02*
X280160D01*
X279570Y189699D02*
X280153D01*
X278215Y303099D02*
X279942D01*
X276658Y311199D02*
X279789D01*
X278439Y306699D02*
X279719D01*
X278557Y303999D02*
X279600D01*
X277183Y318399D02*
X279571D01*
X278662Y305799D02*
X279495D01*
X278700Y304899D02*
X279457D01*
X277662Y312099D02*
X279456D01*
X277960Y317499D02*
X279450D01*
X278417Y316599D02*
X279450D01*
X278654Y315699D02*
X279450D01*
X278703Y314799D02*
X279450D01*
X278572Y313899D02*
X279450D01*
X278244Y312999D02*
X279450D01*
X270660Y107799D02*
X277214D01*
X271737Y116799D02*
X276074D01*
X271699Y115899D02*
X276074D01*
X238046Y123099D02*
X275954D01*
X238627Y128499D02*
X275373D01*
X268988Y122199D02*
X275325D01*
X272178Y117699D02*
X275286D01*
X238745Y123999D02*
X275255D01*
X238800Y127599D02*
X275200D01*
X238800Y126699D02*
X275200D01*
X238800Y125799D02*
X275200D01*
X238800Y124899D02*
X275200D01*
X271217Y121299D02*
X275200D01*
X271922Y120399D02*
X275200D01*
X272260Y119499D02*
X275200D01*
X272339Y118599D02*
X275200D01*
X272681Y108699D02*
X275193D01*
X273016Y114999D02*
X274858D01*
X273502Y326499D02*
X274498D01*
X273510Y109599D02*
X274364D01*
X273699Y114099D02*
X274175D01*
X273926Y321999D02*
X274074D01*
X265721Y319299D02*
X272666D01*
X265569Y309399D02*
X272510D01*
X266332Y301299D02*
X271747D01*
X266422Y311199D02*
X271657D01*
X266946Y318399D02*
X271132D01*
X267010Y308499D02*
X271069D01*
X267378Y302199D02*
X270701D01*
X267426Y312099D02*
X270652D01*
X267724Y317499D02*
X270355D01*
X267761Y307599D02*
X270318D01*
X267979Y303099D02*
X270100D01*
X268008Y312999D02*
X270071D01*
X268181Y316599D02*
X269898D01*
X268202Y306699D02*
X269876D01*
X268321Y303999D02*
X269757D01*
X268336Y313899D02*
X269743D01*
X268417Y315699D02*
X269661D01*
X268426Y305799D02*
X269653D01*
X268464Y304899D02*
X269615D01*
X268467Y314799D02*
X269612D01*
X253988Y212199D02*
X268795D01*
X253988Y122199D02*
X268795D01*
X250849Y264399D02*
X268351D01*
X250860Y271599D02*
X268340D01*
X162500Y326499D02*
X268298D01*
X266544Y321999D02*
X267874D01*
X239512Y114999D02*
X266984D01*
X255834Y205899D02*
X266950D01*
X255834Y115899D02*
X266950D01*
X202293Y203199D02*
X266707D01*
X252528Y265299D02*
X266672D01*
X252531Y270699D02*
X266669D01*
X256217Y211299D02*
X266567D01*
X256217Y121299D02*
X266567D01*
X240195Y114099D02*
X266301D01*
X256737Y206799D02*
X266047D01*
X256737Y116799D02*
X266047D01*
X253232Y266199D02*
X265968D01*
X253233Y269799D02*
X265967D01*
X240576Y113199D02*
X265920D01*
X256922Y210399D02*
X265861D01*
X256922Y120399D02*
X265861D01*
X240738Y112299D02*
X265758D01*
X264036Y102399D02*
X265717D01*
X253589Y267099D02*
X265611D01*
X253589Y268899D02*
X265611D01*
X257178Y207699D02*
X265606D01*
X257178Y117699D02*
X265606D01*
X257260Y209499D02*
X265524D01*
X257260Y119499D02*
X265524D01*
X253700Y267999D02*
X265500D01*
X265259Y103299D02*
X265471D01*
X257339Y208599D02*
X265445D01*
X257339Y118599D02*
X265445D01*
X240706Y111399D02*
X265439D01*
X203573Y202299D02*
X265427D01*
X162500Y325599D02*
X265173D01*
X240475Y110499D02*
X264539D01*
X162500Y324699D02*
X264153D01*
X240006Y109599D02*
X263639D01*
X175653Y323799D02*
X263253D01*
X239177Y108699D02*
X262739D01*
X179380Y322899D02*
X262410D01*
X182287Y309399D02*
X262274D01*
X180835Y321999D02*
X262123D01*
X181844Y321099D02*
X262121D01*
X182600Y320199D02*
X262121D01*
X228729Y319299D02*
X262121D01*
X256217Y301299D02*
X261510D01*
X229968Y311199D02*
X261421D01*
X230100Y318399D02*
X260896D01*
X181431Y308499D02*
X260833D01*
X253988Y302199D02*
X260465D01*
X230776Y312099D02*
X260416D01*
X230856Y317499D02*
X260119D01*
X180260Y307599D02*
X260082D01*
X162500Y303099D02*
X259864D01*
X231267Y312999D02*
X259835D01*
X178420Y306699D02*
X259640D01*
X162500Y303999D02*
X259521D01*
X162500Y305799D02*
X259417D01*
X162500Y304899D02*
X259379D01*
X220300Y153699D02*
X256998D01*
X255810Y159999D02*
X256294D01*
X220300Y154599D02*
X255523D01*
X254867Y159099D02*
X255262D01*
X220300Y155499D02*
X254894D01*
X220300Y158199D02*
X254765D01*
X220300Y156399D02*
X254603D01*
X220300Y157299D02*
X254563D01*
X236598Y174399D02*
X254178D01*
X238988Y302199D02*
X253795D01*
X223988Y212199D02*
X253795D01*
X238675Y122199D02*
X253795D01*
X236308Y175299D02*
X253156D01*
X220300Y145599D02*
X252488D01*
X220300Y151899D02*
X252482D01*
X226922Y165399D02*
X252407D01*
X235680Y176199D02*
X252256D01*
X240834Y295899D02*
X251950D01*
X225834Y205899D02*
X251950D01*
X238195Y115899D02*
X251950D01*
X195838Y136599D02*
X251946D01*
X196214Y131199D02*
X251569D01*
X241217Y301299D02*
X251567D01*
X226217Y211299D02*
X251567D01*
X238800Y121299D02*
X251567D01*
X234211Y177099D02*
X251356D01*
X220300Y146499D02*
X251278D01*
X220300Y150999D02*
X251275D01*
X220300Y159099D02*
X251133D01*
X241737Y296799D02*
X251047D01*
X226737Y206799D02*
X251047D01*
X237942Y116799D02*
X251047D01*
X196739Y135699D02*
X251045D01*
X196921Y132099D02*
X250863D01*
X241922Y300399D02*
X250861D01*
X226922Y210399D02*
X250861D01*
X238800Y120399D02*
X250861D01*
X220300Y147399D02*
X250717D01*
X220300Y150099D02*
X250716D01*
X227260Y164499D02*
X250621D01*
X242178Y297699D02*
X250606D01*
X227178Y207699D02*
X250606D01*
X238714Y117699D02*
X250606D01*
X197179Y134799D02*
X250605D01*
X197259Y132999D02*
X250525D01*
X242260Y299499D02*
X250524D01*
X227260Y209499D02*
X250524D01*
X238800Y119499D02*
X250524D01*
X220300Y148299D02*
X250471D01*
X220300Y149199D02*
X250471D01*
X220812Y177999D02*
X250456D01*
X242339Y298599D02*
X250445D01*
X227339Y208599D02*
X250445D01*
X238800Y118599D02*
X250445D01*
X197339Y133899D02*
X250445D01*
X220300Y159999D02*
X250190D01*
X227339Y163599D02*
X249943D01*
X225834Y160899D02*
X249730D01*
X242260Y254499D02*
X249654D01*
X162500Y259899D02*
X249651D01*
X227178Y162699D02*
X249621D01*
X226737Y161799D02*
X249556D01*
X212434Y264399D02*
X249151D01*
X240838Y271599D02*
X249140D01*
X241922Y255399D02*
X248858D01*
X162500Y258999D02*
X248856D01*
X241217Y256299D02*
X248470D01*
X162500Y258099D02*
X248469D01*
X238988Y257199D02*
X248350D01*
X199744Y185199D02*
X247707D01*
X219871Y178899D02*
X247489D01*
X212637Y265299D02*
X247472D01*
X241739Y270699D02*
X247469D01*
X241214Y266199D02*
X246768D01*
X242179Y269799D02*
X246767D01*
X198844Y184299D02*
X246427D01*
X241921Y267099D02*
X246411D01*
X242339Y268899D02*
X246411D01*
X212179Y179799D02*
X246344D01*
X242259Y267999D02*
X246300D01*
X197944Y183399D02*
X245846D01*
X211739Y180699D02*
X245805D01*
X197044Y182499D02*
X245586D01*
X210838Y181599D02*
X245573D01*
X227179Y224799D02*
X243714D01*
X162500Y231099D02*
X243483D01*
X226739Y225699D02*
X242430D01*
X162500Y230199D02*
X242341D01*
X225838Y226599D02*
X241847D01*
X196179Y229299D02*
X241804D01*
X198537Y227499D02*
X241587D01*
X197671Y228399D02*
X241573D01*
X208988Y302199D02*
X238795D01*
X223988Y257199D02*
X238795D01*
X231476Y295899D02*
X236950D01*
X225834Y250899D02*
X236950D01*
X225838Y271599D02*
X236946D01*
X226214Y266199D02*
X236569D01*
X229281Y301299D02*
X236567D01*
X226217Y256299D02*
X236567D01*
X231626Y296799D02*
X236047D01*
X226737Y251799D02*
X236047D01*
X226739Y270699D02*
X236045D01*
X226921Y267099D02*
X235863D01*
X230380Y300399D02*
X235861D01*
X226922Y255399D02*
X235861D01*
X231606Y297699D02*
X235606D01*
X227178Y252699D02*
X235606D01*
X227179Y269799D02*
X235605D01*
X227259Y267999D02*
X235525D01*
X231026Y299499D02*
X235524D01*
X227260Y254499D02*
X235524D01*
X231414Y298599D02*
X235445D01*
X227339Y253599D02*
X235445D01*
X227339Y268899D02*
X235445D01*
X230321Y115899D02*
X234342D01*
X229978Y116799D02*
X234165D01*
X225302Y286899D02*
X233989D01*
X230046Y123099D02*
X233954D01*
X231638Y114999D02*
X233480D01*
X230627Y128499D02*
X233373D01*
X230675Y122199D02*
X233325D01*
X225296Y280599D02*
X233299D01*
X230714Y117699D02*
X233286D01*
X230745Y123999D02*
X233255D01*
X230800Y127599D02*
X233200D01*
X230800Y126699D02*
X233200D01*
X230800Y125799D02*
X233200D01*
X230800Y124899D02*
X233200D01*
X230800Y121299D02*
X233200D01*
X230800Y120399D02*
X233200D01*
X230800Y119499D02*
X233200D01*
X230800Y118599D02*
X233200D01*
X232321Y114099D02*
X232797D01*
X226508Y285999D02*
X232520D01*
X226506Y281499D02*
X232264D01*
X221270Y177099D02*
X232189D01*
X227067Y285099D02*
X231892D01*
X227066Y282399D02*
X231766D01*
X227313Y284199D02*
X231602D01*
X227312Y283299D02*
X231563D01*
X220300Y170799D02*
X231499D01*
X221444Y176199D02*
X230720D01*
X220300Y171699D02*
X230464D01*
X221378Y175299D02*
X230092D01*
X220300Y172599D02*
X229966D01*
X221056Y174399D02*
X229802D01*
X220376Y173499D02*
X229763D01*
X201257Y292299D02*
X226743D01*
X222447Y115899D02*
X226378D01*
X214835Y116799D02*
X226165D01*
X215046Y123099D02*
X225954D01*
X223764Y114999D02*
X225606D01*
X215627Y128499D02*
X225373D01*
X215675Y122199D02*
X225325D01*
X215714Y117699D02*
X225286D01*
X215745Y123999D02*
X225255D01*
X215800Y127599D02*
X225200D01*
X215800Y126699D02*
X225200D01*
X215800Y125799D02*
X225200D01*
X215800Y124899D02*
X225200D01*
X215800Y121299D02*
X225200D01*
X215800Y120399D02*
X225200D01*
X215800Y119499D02*
X225200D01*
X215800Y118599D02*
X225200D01*
X202838Y310299D02*
X225162D01*
X224447Y114099D02*
X224923D01*
X203139Y319299D02*
X224861D01*
X211217Y301299D02*
X224310D01*
X204017Y293199D02*
X223983D01*
X208988Y257199D02*
X223795D01*
X208988Y212199D02*
X223795D01*
X220300Y167199D02*
X223795D01*
X204377Y311199D02*
X223623D01*
X204510Y318399D02*
X223490D01*
X211922Y300399D02*
X223211D01*
X204973Y294099D02*
X223027D01*
X205185Y312099D02*
X222815D01*
X205265Y317499D02*
X222735D01*
X212260Y299499D02*
X222564D01*
X210296Y280599D02*
X222488D01*
X210296Y235599D02*
X222488D01*
X210302Y286899D02*
X222482D01*
X210302Y241899D02*
X222482D01*
X205548Y294999D02*
X222452D01*
X205677Y312999D02*
X222323D01*
X212339Y298599D02*
X222176D01*
X210834Y295899D02*
X222114D01*
X212178Y297699D02*
X221984D01*
X211737Y296799D02*
X221964D01*
X210834Y250899D02*
X221950D01*
X210834Y205899D02*
X221950D01*
X220300Y160899D02*
X221950D01*
X195838Y271599D02*
X221946D01*
X199106Y226599D02*
X221946D01*
X212598Y266199D02*
X221569D01*
X198998Y221199D02*
X221569D01*
X211217Y256299D02*
X221567D01*
X211217Y211299D02*
X221567D01*
X220300Y166299D02*
X221567D01*
X211506Y281499D02*
X221278D01*
X211506Y236499D02*
X221278D01*
X211508Y285999D02*
X221275D01*
X211508Y240999D02*
X221275D01*
X211737Y251799D02*
X221047D01*
X211737Y206799D02*
X221047D01*
X220300Y161799D02*
X221047D01*
X196739Y270699D02*
X221045D01*
X199472Y225699D02*
X221045D01*
X212308Y267099D02*
X220863D01*
X199404Y222099D02*
X220863D01*
X211922Y255399D02*
X220861D01*
X211922Y210399D02*
X220861D01*
X220300Y165399D02*
X220861D01*
X212066Y282399D02*
X220717D01*
X212066Y237399D02*
X220717D01*
X212067Y285099D02*
X220716D01*
X212067Y240099D02*
X220716D01*
X212178Y252699D02*
X220606D01*
X212178Y207699D02*
X220606D01*
X220300Y162699D02*
X220606D01*
X197179Y269799D02*
X220605D01*
X199673Y224799D02*
X220605D01*
X211680Y267999D02*
X220525D01*
X199641Y222999D02*
X220525D01*
X212260Y254499D02*
X220524D01*
X212260Y209499D02*
X220524D01*
X220300Y164499D02*
X220524D01*
X212312Y283299D02*
X220471D01*
X212312Y238299D02*
X220471D01*
X212313Y284199D02*
X220471D01*
X212313Y239199D02*
X220471D01*
X212339Y253599D02*
X220445D01*
X212339Y208599D02*
X220445D01*
X220300Y163599D02*
X220445D01*
X210211Y268899D02*
X220445D01*
X199728Y223899D02*
X220445D01*
X214674Y115899D02*
X219049D01*
X215890Y114999D02*
X217732D01*
X216573Y114099D02*
X217049D01*
X212339Y178899D02*
X216129D01*
X177561Y138399D02*
X215734D01*
X176547Y172599D02*
X215700D01*
X176999Y171699D02*
X215700D01*
X177217Y170799D02*
X215700D01*
X177238Y169899D02*
X215700D01*
X177064Y168999D02*
X215700D01*
X176667Y168099D02*
X215700D01*
X178988Y167199D02*
X215700D01*
X181217Y166299D02*
X215700D01*
X181922Y165399D02*
X215700D01*
X182260Y164499D02*
X215700D01*
X182339Y163599D02*
X215700D01*
X182178Y162699D02*
X215700D01*
X181737Y161799D02*
X215700D01*
X180834Y160899D02*
X215700D01*
X168800Y159999D02*
X215700D01*
X168800Y159099D02*
X215700D01*
X168800Y158199D02*
X215700D01*
X168800Y157299D02*
X215700D01*
X168800Y156399D02*
X215700D01*
X168800Y155499D02*
X215700D01*
X168800Y154599D02*
X215700D01*
X168800Y153699D02*
X215700D01*
X168800Y152799D02*
X215700D01*
X210302Y151899D02*
X215700D01*
X211508Y150999D02*
X215700D01*
X212067Y150099D02*
X215700D01*
X212313Y149199D02*
X215700D01*
X212312Y148299D02*
X215700D01*
X212066Y147399D02*
X215700D01*
X211506Y146499D02*
X215700D01*
X210296Y145599D02*
X215700D01*
X171261Y144699D02*
X215700D01*
X172161Y143799D02*
X215700D01*
X175747Y173499D02*
X215624D01*
X212259Y177999D02*
X215188D01*
X173061Y142899D02*
X215119D01*
X176661Y139299D02*
X214999D01*
X175048Y174399D02*
X214944D01*
X211921Y177099D02*
X214730D01*
X173961Y141999D02*
X214698D01*
X175761Y140199D02*
X214644D01*
X176177Y175299D02*
X214622D01*
X211214Y176199D02*
X214556D01*
X174861Y141099D02*
X214551D01*
X206835Y116799D02*
X211074D01*
X206800Y115899D02*
X211074D01*
X207046Y123099D02*
X210954D01*
X207627Y128499D02*
X210373D01*
X207675Y122199D02*
X210325D01*
X207714Y117699D02*
X210286D01*
X207745Y123999D02*
X210255D01*
X207800Y127599D02*
X210200D01*
X207800Y126699D02*
X210200D01*
X207800Y125799D02*
X210200D01*
X207800Y124899D02*
X210200D01*
X207800Y121299D02*
X210200D01*
X207800Y120399D02*
X210200D01*
X207800Y119499D02*
X210200D01*
X207800Y118599D02*
X210200D01*
X208016Y114999D02*
X209858D01*
X208699Y114099D02*
X209175D01*
X193746Y194199D02*
X209058D01*
X203656Y197799D02*
X209056D01*
X193988Y302199D02*
X208795D01*
X162500Y257199D02*
X208795D01*
X193988Y212199D02*
X208795D01*
X193051Y195099D02*
X208670D01*
X202511Y196899D02*
X208669D01*
X169959Y195999D02*
X208550D01*
X197339Y268899D02*
X208189D01*
X162500Y262599D02*
X207499D01*
X162500Y280599D02*
X207488D01*
X180296Y235599D02*
X207488D01*
X195296Y145599D02*
X207488D01*
X162500Y286899D02*
X207482D01*
X180302Y241899D02*
X207482D01*
X195302Y151899D02*
X207482D01*
X205886Y295899D02*
X206950D01*
X162500Y250899D02*
X206950D01*
X195834Y205899D02*
X206950D01*
X196144Y181599D02*
X206946D01*
X197259Y267999D02*
X206720D01*
X193014Y176199D02*
X206569D01*
X203690Y301299D02*
X206567D01*
X162500Y256299D02*
X206567D01*
X196217Y211299D02*
X206567D01*
X162500Y263499D02*
X206464D01*
X162500Y281499D02*
X206278D01*
X181506Y236499D02*
X206278D01*
X196506Y146499D02*
X206278D01*
X162500Y285999D02*
X206275D01*
X181508Y240999D02*
X206275D01*
X196508Y150999D02*
X206275D01*
X196921Y267099D02*
X206092D01*
X206036Y296799D02*
X206047D01*
X162500Y251799D02*
X206047D01*
X196737Y206799D02*
X206047D01*
X195244Y180699D02*
X206045D01*
X162500Y264399D02*
X205966D01*
X193879Y177099D02*
X205863D01*
X204789Y300399D02*
X205861D01*
X162500Y255399D02*
X205861D01*
X196922Y210399D02*
X205861D01*
X196214Y266199D02*
X205802D01*
X162500Y265299D02*
X205763D01*
X162500Y282399D02*
X205717D01*
X182066Y237399D02*
X205717D01*
X197066Y147399D02*
X205717D01*
X162500Y285099D02*
X205716D01*
X182067Y240099D02*
X205716D01*
X197067Y150099D02*
X205716D01*
X162500Y252699D02*
X205606D01*
X197178Y207699D02*
X205606D01*
X194356Y179799D02*
X205605D01*
X194302Y177999D02*
X205525D01*
X205436Y299499D02*
X205524D01*
X162500Y254499D02*
X205524D01*
X197260Y209499D02*
X205524D01*
X162500Y283299D02*
X205471D01*
X182312Y238299D02*
X205471D01*
X197312Y148299D02*
X205471D01*
X162500Y284199D02*
X205471D01*
X182313Y239199D02*
X205471D01*
X197313Y149199D02*
X205471D01*
X162500Y253599D02*
X205445D01*
X197339Y208599D02*
X205445D01*
X194449Y178899D02*
X205445D01*
X192800Y115899D02*
X203200D01*
X192800Y116799D02*
X203165D01*
X192575Y123099D02*
X202954D01*
X187461Y128499D02*
X202373D01*
X192793Y122199D02*
X202325D01*
X198261Y108699D02*
X202319D01*
X192800Y117699D02*
X202286D01*
X191961Y123999D02*
X202255D01*
X188361Y127599D02*
X202200D01*
X189261Y126699D02*
X202200D01*
X190161Y125799D02*
X202200D01*
X191061Y124899D02*
X202200D01*
X192800Y121299D02*
X202200D01*
X192800Y120399D02*
X202200D01*
X192800Y119499D02*
X202200D01*
X192800Y118599D02*
X202200D01*
X192800Y114999D02*
X201984D01*
X197361Y109599D02*
X201490D01*
X192861Y114099D02*
X201301D01*
X162500Y292299D02*
X201152D01*
X196461Y110499D02*
X201021D01*
X193761Y113199D02*
X200920D01*
X195561Y111399D02*
X200790D01*
X194661Y112299D02*
X200758D01*
X177159Y203199D02*
X199707D01*
X182939Y310299D02*
X199571D01*
X170859Y196899D02*
X199489D01*
X183179Y319299D02*
X199271D01*
X196217Y301299D02*
X198719D01*
X176259Y202299D02*
X198427D01*
X162500Y293199D02*
X198392D01*
X171759Y197799D02*
X198344D01*
X196214Y311199D02*
X198032D01*
X183617Y318399D02*
X197900D01*
X175359Y201399D02*
X197846D01*
X172659Y198699D02*
X197805D01*
X196922Y300399D02*
X197620D01*
X174459Y200499D02*
X197586D01*
X173559Y199599D02*
X197573D01*
X162500Y294099D02*
X197437D01*
X196921Y312099D02*
X197224D01*
X183938Y317499D02*
X197144D01*
X182066Y102399D02*
X196964D01*
X162500Y294999D02*
X196861D01*
X195838Y316599D02*
X196685D01*
X195834Y295899D02*
X196524D01*
X182312Y103299D02*
X195741D01*
X182313Y104199D02*
X194841D01*
X182067Y105099D02*
X193941D01*
X178988Y302199D02*
X193795D01*
X186159Y212199D02*
X193795D01*
X181508Y105999D02*
X193041D01*
X180296Y145599D02*
X192488D01*
X180302Y151899D02*
X192482D01*
X180302Y106899D02*
X192141D01*
X175414Y182499D02*
X191953D01*
X180834Y295899D02*
X191950D01*
X179859Y205899D02*
X191950D01*
X184154Y316599D02*
X191946D01*
X162500Y271599D02*
X191946D01*
X179361Y136599D02*
X191946D01*
X174525Y229299D02*
X191821D01*
X183437Y311199D02*
X191569D01*
X162500Y266199D02*
X191569D01*
X184761Y131199D02*
X191569D01*
X181217Y301299D02*
X191567D01*
X185259Y211299D02*
X191567D01*
X181506Y146499D02*
X191278D01*
X181508Y150999D02*
X191275D01*
X180558Y107799D02*
X191241D01*
X181737Y296799D02*
X191047D01*
X180759Y206799D02*
X191047D01*
X184272Y315699D02*
X191045D01*
X162500Y270699D02*
X191045D01*
X180261Y135699D02*
X191045D01*
X183808Y312099D02*
X190863D01*
X162500Y267099D02*
X190863D01*
X183861Y132099D02*
X190863D01*
X181922Y300399D02*
X190861D01*
X184359Y210399D02*
X190861D01*
X182066Y147399D02*
X190717D01*
X182067Y150099D02*
X190716D01*
X182178Y297699D02*
X190606D01*
X181659Y207699D02*
X190606D01*
X184298Y314799D02*
X190605D01*
X162500Y269799D02*
X190605D01*
X181161Y134799D02*
X190605D01*
X184069Y312999D02*
X190525D01*
X162500Y267999D02*
X190525D01*
X182961Y132999D02*
X190525D01*
X182260Y299499D02*
X190524D01*
X183459Y209499D02*
X190524D01*
X182312Y148299D02*
X190471D01*
X182313Y149199D02*
X190471D01*
X182339Y298599D02*
X190445D01*
X182559Y208599D02*
X190445D01*
X184231Y313899D02*
X190445D01*
X162500Y268899D02*
X190445D01*
X182061Y133899D02*
X190445D01*
X181643Y108699D02*
X190341D01*
X176017Y228399D02*
X190329D01*
X176883Y227499D02*
X189463D01*
X182447Y109599D02*
X189441D01*
X176791Y176199D02*
X188986D01*
X188051Y195099D02*
X188949D01*
X177452Y226599D02*
X188894D01*
X175455Y181599D02*
X188731D01*
X183062Y110499D02*
X188541D01*
X177818Y225699D02*
X188528D01*
X177987Y222999D02*
X188359D01*
X178020Y224799D02*
X188327D01*
X178075Y223899D02*
X188272D01*
X177751Y222099D02*
X188139D01*
X177127Y177099D02*
X188121D01*
X176386Y180699D02*
X187997D01*
X183529Y111399D02*
X187703D01*
X177251Y177999D02*
X187698D01*
X176910Y179799D02*
X187644D01*
X177182Y178899D02*
X187551D01*
X183875Y112299D02*
X187289D01*
X177344Y221199D02*
X187239D01*
X182449Y120399D02*
X187200D01*
X183063Y119499D02*
X187200D01*
X183531Y118599D02*
X187200D01*
X183876Y117699D02*
X187200D01*
X184114Y116799D02*
X187200D01*
X184254Y115899D02*
X187200D01*
X184300Y114999D02*
X187200D01*
X184254Y114099D02*
X187200D01*
X184114Y113199D02*
X187200D01*
X181645Y121299D02*
X186741D01*
X176719Y220299D02*
X186339D01*
X180562Y122199D02*
X185841D01*
X175760Y219399D02*
X185439D01*
X178943Y123099D02*
X184941D01*
X173946Y218499D02*
X184539D01*
X162500Y123999D02*
X184041D01*
X183051Y195099D02*
X183949D01*
X162500Y217599D02*
X183639D01*
X162500Y124899D02*
X183141D01*
X162500Y216699D02*
X182739D01*
X162500Y125799D02*
X182241D01*
X162500Y215799D02*
X181839D01*
X162500Y126699D02*
X181341D01*
X162500Y214899D02*
X180939D01*
X162500Y127599D02*
X180441D01*
X162500Y213999D02*
X180039D01*
X162500Y128499D02*
X179541D01*
X162500Y213099D02*
X179139D01*
X169059Y195099D02*
X178949D01*
X176202Y188799D02*
X178798D01*
X162500Y302199D02*
X178795D01*
X175960Y167199D02*
X178795D01*
X162500Y129399D02*
X178641D01*
X176364Y183399D02*
X178432D01*
X175099Y189699D02*
X178374D01*
X168800Y194199D02*
X178254D01*
X162500Y212199D02*
X178239D01*
X176805Y187899D02*
X178230D01*
X168800Y193299D02*
X178200D01*
X168800Y192399D02*
X178200D01*
X168800Y191499D02*
X178200D01*
X168800Y190599D02*
X178200D01*
X162500Y130299D02*
X177741D01*
X162500Y235599D02*
X177488D01*
X170361Y145599D02*
X177488D01*
X162500Y241899D02*
X177482D01*
X168800Y151899D02*
X177482D01*
X162500Y211299D02*
X177339D01*
X162500Y295899D02*
X176950D01*
X168800Y160899D02*
X176950D01*
X162500Y131199D02*
X176841D01*
X162500Y301299D02*
X176567D01*
X174568Y166299D02*
X176567D01*
X162500Y210399D02*
X176439D01*
X162500Y236499D02*
X176278D01*
X169461Y146499D02*
X176278D01*
X162500Y240999D02*
X176275D01*
X168800Y150999D02*
X176275D01*
X162500Y105999D02*
X176275D01*
X162500Y296799D02*
X176047D01*
X168800Y161799D02*
X176047D01*
X162500Y132099D02*
X175941D01*
X162500Y300399D02*
X175861D01*
X168800Y165399D02*
X175861D01*
X162500Y237399D02*
X175717D01*
X168800Y147399D02*
X175717D01*
X162500Y102399D02*
X175717D01*
X162500Y240099D02*
X175716D01*
X168800Y150099D02*
X175716D01*
X162500Y105099D02*
X175716D01*
X162500Y297699D02*
X175606D01*
X168800Y162699D02*
X175606D01*
X162500Y209499D02*
X175539D01*
X162500Y299499D02*
X175524D01*
X168800Y164499D02*
X175524D01*
X162500Y238299D02*
X175471D01*
X168800Y148299D02*
X175471D01*
X162500Y103299D02*
X175471D01*
X162500Y239199D02*
X175471D01*
X168800Y149199D02*
X175471D01*
X162500Y104199D02*
X175471D01*
X162500Y298599D02*
X175445D01*
X168800Y163599D02*
X175445D01*
X162500Y323799D02*
X175347D01*
X162500Y132999D02*
X175041D01*
X162500Y208599D02*
X174639D01*
X162500Y133899D02*
X174141D01*
X162500Y207699D02*
X173739D01*
X162500Y134799D02*
X173241D01*
X162500Y206799D02*
X172839D01*
X162500Y306699D02*
X172580D01*
X162500Y135699D02*
X172341D01*
X162500Y106899D02*
X172064D01*
X162500Y123099D02*
X172057D01*
X162500Y205899D02*
X171939D01*
X162500Y322899D02*
X171620D01*
X162500Y136599D02*
X171441D01*
X168800Y166299D02*
X171432D01*
X162500Y204999D02*
X171039D01*
X168800Y189699D02*
X170901D01*
X162500Y218499D02*
X170747D01*
X162500Y307599D02*
X170740D01*
X162500Y137499D02*
X170541D01*
X162500Y107799D02*
X170442D01*
X162500Y122199D02*
X170438D01*
X162500Y229299D02*
X170168D01*
X162500Y321999D02*
X170165D01*
X162500Y204099D02*
X170139D01*
X168800Y167199D02*
X170040D01*
X168800Y188799D02*
X169798D01*
X162500Y138399D02*
X169641D01*
X162500Y308499D02*
X169569D01*
X162500Y108699D02*
X169357D01*
X162500Y121299D02*
X169355D01*
X168800Y168099D02*
X169333D01*
X162500Y203199D02*
X169239D01*
X168800Y187899D02*
X169195D01*
X162500Y321099D02*
X169156D01*
X168800Y168999D02*
X168936D01*
X162500Y219399D02*
X168933D01*
X168800Y186999D02*
X168866D01*
X162500Y139299D02*
X168741D01*
X162500Y309399D02*
X168713D01*
X162500Y228399D02*
X168676D01*
X162500Y109599D02*
X168553D01*
X162500Y120399D02*
X168551D01*
X162500Y320199D02*
X168400D01*
X162500Y202299D02*
X168339D01*
X162500Y310299D02*
X168061D01*
X162500Y220299D02*
X167973D01*
X162500Y110499D02*
X167938D01*
X162500Y119499D02*
X167937D01*
X162500Y140199D02*
X167841D01*
X162500Y319299D02*
X167821D01*
X162500Y227499D02*
X167810D01*
X162500Y311199D02*
X167563D01*
X162500Y111399D02*
X167471D01*
X162500Y118599D02*
X167469D01*
X162500Y201399D02*
X167439D01*
X162500Y318399D02*
X167383D01*
X162500Y221199D02*
X167349D01*
X162500Y226599D02*
X167241D01*
X162500Y312099D02*
X167192D01*
X162500Y112299D02*
X167125D01*
X162500Y117699D02*
X167124D01*
X162500Y317499D02*
X167062D01*
X162500Y222099D02*
X166942D01*
X162500Y141099D02*
X166941D01*
X162500Y312999D02*
X166931D01*
X162500Y113199D02*
X166886D01*
X162500Y116799D02*
X166886D01*
X162500Y225699D02*
X166875D01*
X162500Y316599D02*
X166846D01*
X162500Y313899D02*
X166769D01*
X162500Y114099D02*
X166746D01*
X162500Y115899D02*
X166746D01*
X162500Y315699D02*
X166728D01*
X162500Y222999D02*
X166705D01*
X162500Y314799D02*
X166702D01*
X162500Y114999D02*
X166700D01*
X162500Y224799D02*
X166673D01*
X162500Y223899D02*
X166618D01*
X162500Y200499D02*
X166539D01*
X162500Y141999D02*
X166041D01*
X162500Y199599D02*
X165639D01*
X162500Y142899D02*
X165141D01*
X162500Y198699D02*
X164739D01*
X162500Y143799D02*
X164241D01*
X162500Y197799D02*
X163854D01*
X162500Y144699D02*
X163521D01*
X162500Y196899D02*
X163348D01*
X162500Y145599D02*
X163229D01*
X162500Y195999D02*
X163200D01*
X162500Y195099D02*
X163200D01*
X162500Y194199D02*
X163200D01*
X162500Y193299D02*
X163200D01*
X162500Y192399D02*
X163200D01*
X162500Y191499D02*
X163200D01*
X162500Y190599D02*
X163200D01*
X162500Y189699D02*
X163200D01*
X162500Y188799D02*
X163200D01*
X162500Y187899D02*
X163200D01*
X162500Y186999D02*
X163200D01*
X162500Y186099D02*
X163200D01*
X162500Y185199D02*
X163200D01*
X162500Y184299D02*
X163200D01*
X162500Y183399D02*
X163200D01*
X162500Y182499D02*
X163200D01*
X162500Y181599D02*
X163200D01*
X162500Y180699D02*
X163200D01*
X162500Y179799D02*
X163200D01*
X162500Y178899D02*
X163200D01*
X162500Y177999D02*
X163200D01*
X162500Y177099D02*
X163200D01*
X162500Y176199D02*
X163200D01*
X162500Y175299D02*
X163200D01*
X162500Y174399D02*
X163200D01*
X162500Y173499D02*
X163200D01*
X162500Y172599D02*
X163200D01*
X162500Y171699D02*
X163200D01*
X162500Y170799D02*
X163200D01*
X162500Y169899D02*
X163200D01*
X162500Y168999D02*
X163200D01*
X162500Y168099D02*
X163200D01*
X162500Y167199D02*
X163200D01*
X162500Y166299D02*
X163200D01*
X162500Y165399D02*
X163200D01*
X162500Y164499D02*
X163200D01*
X162500Y163599D02*
X163200D01*
X162500Y162699D02*
X163200D01*
X162500Y161799D02*
X163200D01*
X162500Y160899D02*
X163200D01*
X162500Y159999D02*
X163200D01*
X162500Y159099D02*
X163200D01*
X162500Y158199D02*
X163200D01*
X162500Y157299D02*
X163200D01*
X162500Y156399D02*
X163200D01*
X162500Y155499D02*
X163200D01*
X162500Y154599D02*
X163200D01*
X162500Y153699D02*
X163200D01*
X162500Y152799D02*
X163200D01*
X162500Y151899D02*
X163200D01*
X162500Y150999D02*
X163200D01*
X162500Y150099D02*
X163200D01*
X162500Y149199D02*
X163200D01*
X162500Y148299D02*
X163200D01*
X162500Y147399D02*
X163200D01*
X162500Y146499D02*
X163200D01*
X320861Y281639D02*
X319561Y282939D01*
X320861Y286361D02*
X319561Y285061D01*
X315339Y286361D02*
X316639Y285061D01*
X315339Y281639D02*
X316639Y282939D01*
X320861Y287639D02*
X319561Y288939D01*
X320861Y292361D02*
X319561Y291061D01*
X315339Y292361D02*
X316639Y291061D01*
X315339Y287639D02*
X316639Y288939D01*
X329661Y186639D02*
X328361Y187939D01*
X324139Y191361D02*
X325439Y190061D01*
X324139Y186639D02*
X325439Y187939D01*
X329661Y191361D02*
X328361Y190061D01*
X329661Y206639D02*
X328361Y207939D01*
X329661Y211361D02*
X328361Y210061D01*
X324139Y211361D02*
X325439Y210061D01*
X324139Y206639D02*
X325439Y207939D01*
X329661Y196639D02*
X328361Y197939D01*
X329661Y201361D02*
X328361Y200061D01*
X324139Y201361D02*
X325439Y200061D01*
X324139Y196639D02*
X325439Y197939D01*
X329661Y220639D02*
X328361Y221939D01*
X329661Y225361D02*
X328361Y224061D01*
X324139Y225361D02*
X325439Y224061D01*
X324139Y220639D02*
X325439Y221939D01*
X329661Y255639D02*
X328361Y256939D01*
X329661Y260361D02*
X328361Y259061D01*
X324139Y260361D02*
X325439Y259061D01*
X324139Y255639D02*
X325439Y256939D01*
X329661Y245639D02*
X328361Y246939D01*
X329661Y250361D02*
X328361Y249061D01*
X324139Y250361D02*
X325439Y249061D01*
X324139Y245639D02*
X325439Y246939D01*
X329661Y230639D02*
X328361Y231939D01*
X329661Y235361D02*
X328361Y234061D01*
X324139Y235361D02*
X325439Y234061D01*
X324139Y230639D02*
X325439Y231939D01*
X311139Y158361D02*
X312439Y157061D01*
X316661Y158361D02*
X315361Y157061D01*
X311139Y150361D02*
X312439Y149061D01*
X311139Y145639D02*
X312439Y146939D01*
X316661Y145639D02*
X315361Y146939D01*
X316661Y150361D02*
X315361Y149061D01*
X288361Y128861D02*
X287061Y127561D01*
X283639Y128861D02*
X284939Y127561D01*
X283639Y123339D02*
X284939Y124639D01*
X288361Y123339D02*
X287061Y124639D01*
X280361Y128861D02*
X279061Y127561D01*
X275639Y128861D02*
X276939Y127561D01*
X275639Y123339D02*
X276939Y124639D01*
X280361Y123339D02*
X279061Y124639D01*
X238361Y128861D02*
X237061Y127561D01*
X233639Y128861D02*
X234939Y127561D01*
X233639Y123339D02*
X234939Y124639D01*
X238361Y123339D02*
X237061Y124639D01*
X230361Y128861D02*
X229061Y127561D01*
X225639Y128861D02*
X226939Y127561D01*
X225639Y123339D02*
X226939Y124639D01*
X230361Y123339D02*
X229061Y124639D01*
X215361Y128861D02*
X214061Y127561D01*
X210639Y128861D02*
X211939Y127561D01*
X210639Y123339D02*
X211939Y124639D01*
X215361Y123339D02*
X214061Y124639D01*
X207361Y128861D02*
X206061Y127561D01*
X202639Y128861D02*
X203939Y127561D01*
X202639Y123339D02*
X203939Y124639D01*
X207361Y123339D02*
X206061Y124639D01*
X193361Y188661D02*
X192061Y187361D01*
X188639Y188661D02*
X189939Y187361D01*
X188639Y183139D02*
X189939Y184439D01*
X178639Y189339D02*
X179939Y190639D01*
X183361Y194861D02*
X182061Y193561D01*
X178639Y194861D02*
X179939Y193561D01*
X183361Y189339D02*
X182061Y190639D01*
G54D23*
X324993Y286881D02*
X325912Y285962D01*
X324993Y280867D02*
X325912Y281786D01*
X331007Y280867D02*
X330088Y281786D01*
X331007Y286881D02*
X330088Y285962D01*
X296629Y115007D02*
X295710Y114088D01*
X290615Y115007D02*
X291534Y114088D01*
X290615Y108993D02*
X291534Y109912D01*
X296629Y108993D02*
X295710Y109912D01*
X197780Y293717D02*
X198699Y294636D01*
X204629Y293717D02*
X203710Y294636D01*
X204629Y300566D02*
X203710Y299647D01*
X197780Y300566D02*
X198699Y299647D01*
X223371Y293717D02*
X224290Y294636D01*
X230220Y293717D02*
X229301Y294636D01*
X230220Y300566D02*
X229301Y299647D01*
X223371Y300566D02*
X224290Y299647D01*
X176007Y167245D02*
X175088Y168164D01*
X176007Y173259D02*
X175088Y172340D01*
X169993Y167245D02*
X170912Y168164D01*
X169993Y173259D02*
X170912Y172340D01*
X324993Y166755D02*
X325912Y165836D01*
X324993Y160741D02*
X325912Y161660D01*
X331007Y160741D02*
X330088Y161660D01*
X331007Y166755D02*
X330088Y165836D01*
X168295Y228051D02*
X169215Y227132D01*
X168295Y219949D02*
X169215Y220868D01*
X176398Y219949D02*
X175478Y220868D01*
X176398Y228051D02*
X175478Y227132D01*
X223755Y115007D02*
X222836Y114088D01*
X217741Y115007D02*
X218660Y114088D01*
X217741Y108993D02*
X218660Y109912D01*
X223755Y108993D02*
X222836Y109912D01*
X267139Y301940D02*
X266219Y302859D01*
X267139Y308375D02*
X266219Y307456D01*
X260704Y308375D02*
X261623Y307456D01*
X260704Y301940D02*
X261623Y302859D01*
X256331Y211190D02*
X255412Y210270D01*
X251452Y211190D02*
X252372Y210270D01*
X251452Y206311D02*
X252372Y207230D01*
X256331Y206311D02*
X255412Y207230D01*
X316640Y200240D02*
X315720Y199320D01*
X311760Y200240D02*
X312680Y199320D01*
X322640Y230240D02*
X321720Y229320D01*
X317760Y230240D02*
X318680Y229320D01*
X317760Y225360D02*
X318680Y226280D01*
X322640Y225360D02*
X321720Y226280D01*
X316040Y128840D02*
X315120Y127920D01*
X311160Y128840D02*
X312080Y127920D01*
X311160Y123960D02*
X312080Y124880D01*
X316040Y123960D02*
X315120Y124880D01*
X256331Y301190D02*
X255412Y300270D01*
X251452Y301190D02*
X252372Y300270D01*
X251452Y296311D02*
X252372Y297230D01*
X256331Y296311D02*
X255412Y297230D01*
X254240Y259640D02*
X253320Y258720D01*
X249360Y259640D02*
X250280Y258720D01*
X249360Y254760D02*
X250280Y255680D01*
X254240Y254760D02*
X253320Y255680D01*
X241331Y271190D02*
X240412Y270270D01*
X236452Y271190D02*
X237372Y270270D01*
X236452Y266311D02*
X237372Y267230D01*
X241331Y266311D02*
X240412Y267230D01*
X237440Y286040D02*
X236520Y285120D01*
X232560Y286040D02*
X233480Y285120D01*
X232560Y281160D02*
X233480Y282080D01*
X237440Y281160D02*
X236520Y282080D01*
X241331Y301190D02*
X240412Y300270D01*
X236452Y301190D02*
X237372Y300270D01*
X236452Y296311D02*
X237372Y297230D01*
X241331Y296311D02*
X240412Y297230D01*
X226331Y166190D02*
X225412Y165270D01*
X221452Y166190D02*
X222372Y165270D01*
X221452Y161311D02*
X222372Y162230D01*
X226331Y161311D02*
X225412Y162230D01*
X235640Y176240D02*
X234720Y175320D01*
X230760Y176240D02*
X231680Y175320D01*
X230760Y171360D02*
X231680Y172280D01*
X235640Y171360D02*
X234720Y172280D01*
X226331Y211190D02*
X225412Y210270D01*
X221452Y211190D02*
X222372Y210270D01*
X221452Y206311D02*
X222372Y207230D01*
X226331Y206311D02*
X225412Y207230D01*
X323760Y245240D02*
X324680Y244320D01*
X323760Y240360D02*
X324680Y241280D01*
X328640Y240360D02*
X327720Y241280D01*
X331331Y271190D02*
X330412Y270270D01*
X326452Y271190D02*
X327372Y270270D01*
X326452Y266311D02*
X327372Y267230D01*
X331331Y266311D02*
X330412Y267230D01*
X211331Y256190D02*
X210412Y255270D01*
X206452Y256190D02*
X207372Y255270D01*
X206452Y251311D02*
X207372Y252230D01*
X211331Y251311D02*
X210412Y252230D01*
X211640Y268040D02*
X210720Y267120D01*
X206760Y268040D02*
X207680Y267120D01*
X206760Y263160D02*
X207680Y264080D01*
X211640Y263160D02*
X210720Y264080D01*
X211331Y286190D02*
X210412Y285270D01*
X206452Y286190D02*
X207372Y285270D01*
X206452Y281311D02*
X207372Y282230D01*
X211331Y281311D02*
X210412Y282230D01*
X320440Y186440D02*
X319520Y185520D01*
X315560Y186440D02*
X316480Y185520D01*
X315560Y181560D02*
X316480Y182480D01*
X320440Y181560D02*
X319520Y182480D01*
X331331Y301190D02*
X330412Y300270D01*
X326452Y301190D02*
X327372Y300270D01*
X326452Y296311D02*
X327372Y297230D01*
X331331Y296311D02*
X330412Y297230D01*
X316331Y316190D02*
X315412Y315270D01*
X311452Y316190D02*
X312372Y315270D01*
X311452Y311311D02*
X312372Y312230D01*
X316331Y311311D02*
X315412Y312230D01*
X316331Y301190D02*
X315412Y300270D01*
X311452Y301190D02*
X312372Y300270D01*
X311452Y296311D02*
X312372Y297230D01*
X316331Y296311D02*
X315412Y297230D01*
X316331Y166190D02*
X315412Y165270D01*
X311452Y166190D02*
X312372Y165270D01*
X311452Y161311D02*
X312372Y162230D01*
X316331Y161311D02*
X315412Y162230D01*
X316331Y121190D02*
X315412Y120270D01*
X311452Y121190D02*
X312372Y120270D01*
X311452Y116311D02*
X312372Y117230D01*
X316331Y116311D02*
X315412Y117230D01*
X301331Y316190D02*
X300412Y315270D01*
X296452Y316190D02*
X297372Y315270D01*
X296452Y311311D02*
X297372Y312230D01*
X301331Y311311D02*
X300412Y312230D01*
X301331Y301190D02*
X300412Y300270D01*
X296452Y301190D02*
X297372Y300270D01*
X296452Y296311D02*
X297372Y297230D01*
X301331Y296311D02*
X300412Y297230D01*
X301331Y286190D02*
X300412Y285270D01*
X296452Y286190D02*
X297372Y285270D01*
X296452Y281311D02*
X297372Y282230D01*
X301331Y281311D02*
X300412Y282230D01*
X301331Y271190D02*
X300412Y270270D01*
X296452Y271190D02*
X297372Y270270D01*
X296452Y266311D02*
X297372Y267230D01*
X301331Y266311D02*
X300412Y267230D01*
X301331Y256190D02*
X300412Y255270D01*
X296452Y256190D02*
X297372Y255270D01*
X296452Y251311D02*
X297372Y252230D01*
X301331Y251311D02*
X300412Y252230D01*
X301331Y121190D02*
X300412Y120270D01*
X296452Y121190D02*
X297372Y120270D01*
X296452Y116311D02*
X297372Y117230D01*
X301331Y116311D02*
X300412Y117230D01*
X286331Y211190D02*
X285412Y210270D01*
X281452Y211190D02*
X282372Y210270D01*
X281452Y206311D02*
X282372Y207230D01*
X286331Y206311D02*
X285412Y207230D01*
X271331Y211190D02*
X270412Y210270D01*
X266452Y211190D02*
X267372Y210270D01*
X266452Y206311D02*
X267372Y207230D01*
X271331Y206311D02*
X270412Y207230D01*
X256331Y151190D02*
X255412Y150270D01*
X251452Y151190D02*
X252372Y150270D01*
X251452Y146311D02*
X252372Y147230D01*
X256331Y146311D02*
X255412Y147230D01*
X271331Y121190D02*
X270412Y120270D01*
X266452Y121190D02*
X267372Y120270D01*
X266452Y116311D02*
X267372Y117230D01*
X271331Y116311D02*
X270412Y117230D01*
X256331Y136190D02*
X255412Y135270D01*
X251452Y136190D02*
X252372Y135270D01*
X251452Y131311D02*
X252372Y132230D01*
X256331Y131311D02*
X255412Y132230D01*
X256331Y121190D02*
X255412Y120270D01*
X251452Y121190D02*
X252372Y120270D01*
X251452Y116311D02*
X252372Y117230D01*
X256331Y116311D02*
X255412Y117230D01*
X241331Y256190D02*
X240412Y255270D01*
X236452Y256190D02*
X237372Y255270D01*
X236452Y251311D02*
X237372Y252230D01*
X241331Y251311D02*
X240412Y252230D01*
X226331Y286190D02*
X225412Y285270D01*
X221452Y286190D02*
X222372Y285270D01*
X221452Y281311D02*
X222372Y282230D01*
X226331Y281311D02*
X225412Y282230D01*
X226331Y271190D02*
X225412Y270270D01*
X221452Y271190D02*
X222372Y270270D01*
X221452Y266311D02*
X222372Y267230D01*
X226331Y266311D02*
X225412Y267230D01*
X226331Y256190D02*
X225412Y255270D01*
X221452Y256190D02*
X222372Y255270D01*
X221452Y251311D02*
X222372Y252230D01*
X226331Y251311D02*
X225412Y252230D01*
X226331Y241190D02*
X225412Y240270D01*
X221452Y241190D02*
X222372Y240270D01*
X221452Y236311D02*
X222372Y237230D01*
X226331Y236311D02*
X225412Y237230D01*
X226331Y226190D02*
X225412Y225270D01*
X221452Y226190D02*
X222372Y225270D01*
X221452Y221311D02*
X222372Y222230D01*
X226331Y221311D02*
X225412Y222230D01*
X211331Y301190D02*
X210412Y300270D01*
X206452Y301190D02*
X207372Y300270D01*
X206452Y296311D02*
X207372Y297230D01*
X211331Y296311D02*
X210412Y297230D01*
X211331Y181190D02*
X210412Y180270D01*
X206452Y181190D02*
X207372Y180270D01*
X206452Y176311D02*
X207372Y177230D01*
X211331Y176311D02*
X210412Y177230D01*
X211331Y151190D02*
X210412Y150270D01*
X206452Y151190D02*
X207372Y150270D01*
X206452Y146311D02*
X207372Y147230D01*
X211331Y146311D02*
X210412Y147230D01*
X196331Y301190D02*
X195412Y300270D01*
X191452Y301190D02*
X192372Y300270D01*
X191452Y296311D02*
X192372Y297230D01*
X196331Y296311D02*
X195412Y297230D01*
X196331Y271190D02*
X195412Y270270D01*
X191452Y271190D02*
X192372Y270270D01*
X191452Y266311D02*
X192372Y267230D01*
X196331Y266311D02*
X195412Y267230D01*
X196331Y211190D02*
X195412Y210270D01*
X191452Y211190D02*
X192372Y210270D01*
X191452Y206311D02*
X192372Y207230D01*
X196331Y206311D02*
X195412Y207230D01*
X196331Y151190D02*
X195412Y150270D01*
X191452Y151190D02*
X192372Y150270D01*
X191452Y146311D02*
X192372Y147230D01*
X196331Y146311D02*
X195412Y147230D01*
X196331Y136190D02*
X195412Y135270D01*
X191452Y136190D02*
X192372Y135270D01*
X191452Y131311D02*
X192372Y132230D01*
X196331Y131311D02*
X195412Y132230D01*
X181331Y301190D02*
X180412Y300270D01*
X176452Y301190D02*
X177372Y300270D01*
X176452Y296311D02*
X177372Y297230D01*
X181331Y296311D02*
X180412Y297230D01*
X181331Y241190D02*
X180412Y240270D01*
X176452Y241190D02*
X177372Y240270D01*
X176452Y236311D02*
X177372Y237230D01*
X181331Y236311D02*
X180412Y237230D01*
X181331Y166190D02*
X180412Y165270D01*
X176452Y166190D02*
X177372Y165270D01*
X176452Y161311D02*
X177372Y162230D01*
X181331Y161311D02*
X180412Y162230D01*
X181331Y151190D02*
X180412Y150270D01*
X176452Y151190D02*
X177372Y150270D01*
X176452Y146311D02*
X177372Y147230D01*
X181331Y146311D02*
X180412Y147230D01*
X211331Y211190D02*
X210412Y210270D01*
X206452Y211190D02*
X207372Y210270D01*
X206452Y206311D02*
X207372Y207230D01*
X211331Y206311D02*
X210412Y207230D01*
X211331Y241190D02*
X210412Y240270D01*
X206452Y241190D02*
X207372Y240270D01*
X206452Y236311D02*
X207372Y237230D01*
X211331Y236311D02*
X210412Y237230D01*
X181331Y106190D02*
X180412Y105270D01*
X191452Y316190D02*
X192372Y315270D01*
X191452Y311311D02*
X192372Y312230D01*
X196331Y311311D02*
X195412Y312230D01*
X271331Y106190D02*
X270412Y105270D01*
X286331Y106190D02*
X285412Y105270D01*
X281452Y106190D02*
X282372Y105270D01*
X301331Y106190D02*
X300412Y105270D01*
X296452Y106190D02*
X297372Y105270D01*
X316331Y106190D02*
X315412Y105270D01*
X311452Y106190D02*
X312372Y105270D01*
X331331Y106190D02*
X330412Y105270D01*
X315360Y211560D02*
X316280Y212480D01*
X320240Y211560D02*
X319320Y212480D01*
G54D24*
X226795Y297142D03*
X201205D03*
X226795Y314858D03*
X201205D03*
G54D53*
X187300Y184200D02*
X184700D01*
Y187600*
X187300*
Y184200*
X184700Y184400D02*
X187300D01*
X184700Y184800D02*
X187300D01*
X184700Y185200D02*
X187300D01*
X184700Y185600D02*
X187300D01*
X184700Y186000D02*
X187300D01*
X184700Y186400D02*
X187300D01*
X184700Y186800D02*
X187300D01*
X184700Y187200D02*
X187300D01*
X184700Y187600D02*
X187300D01*
X184800Y184200D02*
Y187600D01*
X185200Y184200D02*
Y187600D01*
X185600Y184200D02*
Y187600D01*
X186000Y184200D02*
Y187600D01*
X186400Y184200D02*
Y187600D01*
X186800Y184200D02*
Y187600D01*
X187200Y184200D02*
Y187600D01*
X187300Y190400D02*
X184700D01*
Y193800*
X187300*
Y190400*
X184700D02*
X187300D01*
X184700Y190800D02*
X187300D01*
X184700Y191200D02*
X187300D01*
X184700Y191600D02*
X187300D01*
X184700Y192000D02*
X187300D01*
X184700Y192400D02*
X187300D01*
X184700Y192800D02*
X187300D01*
X184700Y193200D02*
X187300D01*
X184700Y193600D02*
X187300D01*
X184800Y190400D02*
Y193800D01*
X185200Y190400D02*
Y193800D01*
X185600Y190400D02*
Y193800D01*
X186000Y190400D02*
Y193800D01*
X186400Y190400D02*
Y193800D01*
X186800Y190400D02*
Y193800D01*
X187200Y190400D02*
Y193800D01*
X179700D02*
X182300D01*
Y190400*
X179700*
Y193800*
Y190400D02*
X182300D01*
X179700Y190800D02*
X182300D01*
X179700Y191200D02*
X182300D01*
X179700Y191600D02*
X182300D01*
X179700Y192000D02*
X182300D01*
X179700Y192400D02*
X182300D01*
X179700Y192800D02*
X182300D01*
X179700Y193200D02*
X182300D01*
X179700Y193600D02*
X182300D01*
X180000Y190400D02*
Y193800D01*
X180400Y190400D02*
Y193800D01*
X180800Y190400D02*
Y193800D01*
X181200Y190400D02*
Y193800D01*
X181600Y190400D02*
Y193800D01*
X182000Y190400D02*
Y193800D01*
X179700Y187600D02*
X182300D01*
Y184200*
X179700*
Y187600*
Y184400D02*
X182300D01*
X179700Y184800D02*
X182300D01*
X179700Y185200D02*
X182300D01*
X179700Y185600D02*
X182300D01*
X179700Y186000D02*
X182300D01*
X179700Y186400D02*
X182300D01*
X179700Y186800D02*
X182300D01*
X179700Y187200D02*
X182300D01*
X179700Y187600D02*
X182300D01*
X180000Y184200D02*
Y187600D01*
X180400Y184200D02*
Y187600D01*
X180800Y184200D02*
Y187600D01*
X181200Y184200D02*
Y187600D01*
X181600Y184200D02*
Y187600D01*
X182000Y184200D02*
Y187600D01*
X192300Y184200D02*
X189700D01*
Y187600*
X192300*
Y184200*
X189700Y184400D02*
X192300D01*
X189700Y184800D02*
X192300D01*
X189700Y185200D02*
X192300D01*
X189700Y185600D02*
X192300D01*
X189700Y186000D02*
X192300D01*
X189700Y186400D02*
X192300D01*
X189700Y186800D02*
X192300D01*
X189700Y187200D02*
X192300D01*
X189700Y187600D02*
X192300D01*
X190000Y184200D02*
Y187600D01*
X190400Y184200D02*
Y187600D01*
X190800Y184200D02*
Y187600D01*
X191200Y184200D02*
Y187600D01*
X191600Y184200D02*
Y187600D01*
X192000Y184200D02*
Y187600D01*
X192300Y190400D02*
X189700D01*
Y193800*
X192300*
Y190400*
X189700D02*
X192300D01*
X189700Y190800D02*
X192300D01*
X189700Y191200D02*
X192300D01*
X189700Y191600D02*
X192300D01*
X189700Y192000D02*
X192300D01*
X189700Y192400D02*
X192300D01*
X189700Y192800D02*
X192300D01*
X189700Y193200D02*
X192300D01*
X189700Y193600D02*
X192300D01*
X190000Y190400D02*
Y193800D01*
X190400Y190400D02*
Y193800D01*
X190800Y190400D02*
Y193800D01*
X191200Y190400D02*
Y193800D01*
X191600Y190400D02*
Y193800D01*
X192000Y190400D02*
Y193800D01*
X278800Y325300D02*
Y322700D01*
X275400*
Y325300*
X278800*
X275400Y322800D02*
X278800D01*
X275400Y323200D02*
X278800D01*
X275400Y323600D02*
X278800D01*
X275400Y324000D02*
X278800D01*
X275400Y324400D02*
X278800D01*
X275400Y324800D02*
X278800D01*
X275400Y325200D02*
X278800D01*
X275600Y322700D02*
Y325300D01*
X276000Y322700D02*
Y325300D01*
X276400Y322700D02*
Y325300D01*
X276800Y322700D02*
Y325300D01*
X277200Y322700D02*
Y325300D01*
X277600Y322700D02*
Y325300D01*
X278000Y322700D02*
Y325300D01*
X278400Y322700D02*
Y325300D01*
X278800Y322700D02*
Y325300D01*
X272600D02*
Y322700D01*
X269200*
Y325300*
X272600*
X269200Y322800D02*
X272600D01*
X269200Y323200D02*
X272600D01*
X269200Y323600D02*
X272600D01*
X269200Y324000D02*
X272600D01*
X269200Y324400D02*
X272600D01*
X269200Y324800D02*
X272600D01*
X269200Y325200D02*
X272600D01*
X269200Y322700D02*
Y325300D01*
X269600Y322700D02*
Y325300D01*
X270000Y322700D02*
Y325300D01*
X270400Y322700D02*
Y325300D01*
X270800Y322700D02*
Y325300D01*
X271200Y322700D02*
Y325300D01*
X271600Y322700D02*
Y325300D01*
X272000Y322700D02*
Y325300D01*
X272400Y322700D02*
Y325300D01*
X310200Y288700D02*
Y291300D01*
X313600*
Y288700*
X310200*
Y288800D02*
X313600D01*
X310200Y289200D02*
X313600D01*
X310200Y289600D02*
X313600D01*
X310200Y290000D02*
X313600D01*
X310200Y290400D02*
X313600D01*
X310200Y290800D02*
X313600D01*
X310200Y291200D02*
X313600D01*
X310400Y288700D02*
Y291300D01*
X310800Y288700D02*
Y291300D01*
X311200Y288700D02*
Y291300D01*
X311600Y288700D02*
Y291300D01*
X312000Y288700D02*
Y291300D01*
X312400Y288700D02*
Y291300D01*
X312800Y288700D02*
Y291300D01*
X313200Y288700D02*
Y291300D01*
X313600Y288700D02*
Y291300D01*
X316400Y288700D02*
Y291300D01*
X319800*
Y288700*
X316400*
Y288800D02*
X319800D01*
X316400Y289200D02*
X319800D01*
X316400Y289600D02*
X319800D01*
X316400Y290000D02*
X319800D01*
X316400Y290400D02*
X319800D01*
X316400Y290800D02*
X319800D01*
X316400Y291200D02*
X319800D01*
X316400Y288700D02*
Y291300D01*
X316800Y288700D02*
Y291300D01*
X317200Y288700D02*
Y291300D01*
X317600Y288700D02*
Y291300D01*
X318000Y288700D02*
Y291300D01*
X318400Y288700D02*
Y291300D01*
X318800Y288700D02*
Y291300D01*
X319200Y288700D02*
Y291300D01*
X319600Y288700D02*
Y291300D01*
X319800Y277300D02*
Y274700D01*
X316400*
Y277300*
X319800*
X316400Y274800D02*
X319800D01*
X316400Y275200D02*
X319800D01*
X316400Y275600D02*
X319800D01*
X316400Y276000D02*
X319800D01*
X316400Y276400D02*
X319800D01*
X316400Y276800D02*
X319800D01*
X316400Y277200D02*
X319800D01*
X316400Y274700D02*
Y277300D01*
X316800Y274700D02*
Y277300D01*
X317200Y274700D02*
Y277300D01*
X317600Y274700D02*
Y277300D01*
X318000Y274700D02*
Y277300D01*
X318400Y274700D02*
Y277300D01*
X318800Y274700D02*
Y277300D01*
X319200Y274700D02*
Y277300D01*
X319600Y274700D02*
Y277300D01*
X313600D02*
Y274700D01*
X310200*
Y277300*
X313600*
X310200Y274800D02*
X313600D01*
X310200Y275200D02*
X313600D01*
X310200Y275600D02*
X313600D01*
X310200Y276000D02*
X313600D01*
X310200Y276400D02*
X313600D01*
X310200Y276800D02*
X313600D01*
X310200Y277200D02*
X313600D01*
X310400Y274700D02*
Y277300D01*
X310800Y274700D02*
Y277300D01*
X311200Y274700D02*
Y277300D01*
X311600Y274700D02*
Y277300D01*
X312000Y274700D02*
Y277300D01*
X312400Y274700D02*
Y277300D01*
X312800Y274700D02*
Y277300D01*
X313200Y274700D02*
Y277300D01*
X313600Y274700D02*
Y277300D01*
X310200Y282700D02*
Y285300D01*
X313600*
Y282700*
X310200*
Y282800D02*
X313600D01*
X310200Y283200D02*
X313600D01*
X310200Y283600D02*
X313600D01*
X310200Y284000D02*
X313600D01*
X310200Y284400D02*
X313600D01*
X310200Y284800D02*
X313600D01*
X310200Y285200D02*
X313600D01*
X310400Y282700D02*
Y285300D01*
X310800Y282700D02*
Y285300D01*
X311200Y282700D02*
Y285300D01*
X311600Y282700D02*
Y285300D01*
X312000Y282700D02*
Y285300D01*
X312400Y282700D02*
Y285300D01*
X312800Y282700D02*
Y285300D01*
X313200Y282700D02*
Y285300D01*
X313600Y282700D02*
Y285300D01*
X316400Y282700D02*
Y285300D01*
X319800*
Y282700*
X316400*
Y282800D02*
X319800D01*
X316400Y283200D02*
X319800D01*
X316400Y283600D02*
X319800D01*
X316400Y284000D02*
X319800D01*
X316400Y284400D02*
X319800D01*
X316400Y284800D02*
X319800D01*
X316400Y285200D02*
X319800D01*
X316400Y282700D02*
Y285300D01*
X316800Y282700D02*
Y285300D01*
X317200Y282700D02*
Y285300D01*
X317600Y282700D02*
Y285300D01*
X318000Y282700D02*
Y285300D01*
X318400Y282700D02*
Y285300D01*
X318800Y282700D02*
Y285300D01*
X319200Y282700D02*
Y285300D01*
X319600Y282700D02*
Y285300D01*
X206300Y118200D02*
X203700D01*
Y121600*
X206300*
Y118200*
X203700Y118400D02*
X206300D01*
X203700Y118800D02*
X206300D01*
X203700Y119200D02*
X206300D01*
X203700Y119600D02*
X206300D01*
X203700Y120000D02*
X206300D01*
X203700Y120400D02*
X206300D01*
X203700Y120800D02*
X206300D01*
X203700Y121200D02*
X206300D01*
X203700Y121600D02*
X206300D01*
X204000Y118200D02*
Y121600D01*
X204400Y118200D02*
Y121600D01*
X204800Y118200D02*
Y121600D01*
X205200Y118200D02*
Y121600D01*
X205600Y118200D02*
Y121600D01*
X206000Y118200D02*
Y121600D01*
X206300Y124400D02*
X203700D01*
Y127800*
X206300*
Y124400*
X203700D02*
X206300D01*
X203700Y124800D02*
X206300D01*
X203700Y125200D02*
X206300D01*
X203700Y125600D02*
X206300D01*
X203700Y126000D02*
X206300D01*
X203700Y126400D02*
X206300D01*
X203700Y126800D02*
X206300D01*
X203700Y127200D02*
X206300D01*
X203700Y127600D02*
X206300D01*
X204000Y124400D02*
Y127800D01*
X204400Y124400D02*
Y127800D01*
X204800Y124400D02*
Y127800D01*
X205200Y124400D02*
Y127800D01*
X205600Y124400D02*
Y127800D01*
X206000Y124400D02*
Y127800D01*
X214300Y118200D02*
X211700D01*
Y121600*
X214300*
Y118200*
X211700Y118400D02*
X214300D01*
X211700Y118800D02*
X214300D01*
X211700Y119200D02*
X214300D01*
X211700Y119600D02*
X214300D01*
X211700Y120000D02*
X214300D01*
X211700Y120400D02*
X214300D01*
X211700Y120800D02*
X214300D01*
X211700Y121200D02*
X214300D01*
X211700Y121600D02*
X214300D01*
X212000Y118200D02*
Y121600D01*
X212400Y118200D02*
Y121600D01*
X212800Y118200D02*
Y121600D01*
X213200Y118200D02*
Y121600D01*
X213600Y118200D02*
Y121600D01*
X214000Y118200D02*
Y121600D01*
X214300Y124400D02*
X211700D01*
Y127800*
X214300*
Y124400*
X211700D02*
X214300D01*
X211700Y124800D02*
X214300D01*
X211700Y125200D02*
X214300D01*
X211700Y125600D02*
X214300D01*
X211700Y126000D02*
X214300D01*
X211700Y126400D02*
X214300D01*
X211700Y126800D02*
X214300D01*
X211700Y127200D02*
X214300D01*
X211700Y127600D02*
X214300D01*
X212000Y124400D02*
Y127800D01*
X212400Y124400D02*
Y127800D01*
X212800Y124400D02*
Y127800D01*
X213200Y124400D02*
Y127800D01*
X213600Y124400D02*
Y127800D01*
X214000Y124400D02*
Y127800D01*
X229300Y118200D02*
X226700D01*
Y121600*
X229300*
Y118200*
X226700Y118400D02*
X229300D01*
X226700Y118800D02*
X229300D01*
X226700Y119200D02*
X229300D01*
X226700Y119600D02*
X229300D01*
X226700Y120000D02*
X229300D01*
X226700Y120400D02*
X229300D01*
X226700Y120800D02*
X229300D01*
X226700Y121200D02*
X229300D01*
X226700Y121600D02*
X229300D01*
X226800Y118200D02*
Y121600D01*
X227200Y118200D02*
Y121600D01*
X227600Y118200D02*
Y121600D01*
X228000Y118200D02*
Y121600D01*
X228400Y118200D02*
Y121600D01*
X228800Y118200D02*
Y121600D01*
X229200Y118200D02*
Y121600D01*
X229300Y124400D02*
X226700D01*
Y127800*
X229300*
Y124400*
X226700D02*
X229300D01*
X226700Y124800D02*
X229300D01*
X226700Y125200D02*
X229300D01*
X226700Y125600D02*
X229300D01*
X226700Y126000D02*
X229300D01*
X226700Y126400D02*
X229300D01*
X226700Y126800D02*
X229300D01*
X226700Y127200D02*
X229300D01*
X226700Y127600D02*
X229300D01*
X226800Y124400D02*
Y127800D01*
X227200Y124400D02*
Y127800D01*
X227600Y124400D02*
Y127800D01*
X228000Y124400D02*
Y127800D01*
X228400Y124400D02*
Y127800D01*
X228800Y124400D02*
Y127800D01*
X229200Y124400D02*
Y127800D01*
X237300Y118200D02*
X234700D01*
Y121600*
X237300*
Y118200*
X234700Y118400D02*
X237300D01*
X234700Y118800D02*
X237300D01*
X234700Y119200D02*
X237300D01*
X234700Y119600D02*
X237300D01*
X234700Y120000D02*
X237300D01*
X234700Y120400D02*
X237300D01*
X234700Y120800D02*
X237300D01*
X234700Y121200D02*
X237300D01*
X234700Y121600D02*
X237300D01*
X234800Y118200D02*
Y121600D01*
X235200Y118200D02*
Y121600D01*
X235600Y118200D02*
Y121600D01*
X236000Y118200D02*
Y121600D01*
X236400Y118200D02*
Y121600D01*
X236800Y118200D02*
Y121600D01*
X237200Y118200D02*
Y121600D01*
X237300Y124400D02*
X234700D01*
Y127800*
X237300*
Y124400*
X234700D02*
X237300D01*
X234700Y124800D02*
X237300D01*
X234700Y125200D02*
X237300D01*
X234700Y125600D02*
X237300D01*
X234700Y126000D02*
X237300D01*
X234700Y126400D02*
X237300D01*
X234700Y126800D02*
X237300D01*
X234700Y127200D02*
X237300D01*
X234700Y127600D02*
X237300D01*
X234800Y124400D02*
Y127800D01*
X235200Y124400D02*
Y127800D01*
X235600Y124400D02*
Y127800D01*
X236000Y124400D02*
Y127800D01*
X236400Y124400D02*
Y127800D01*
X236800Y124400D02*
Y127800D01*
X237200Y124400D02*
Y127800D01*
X279300Y118200D02*
X276700D01*
Y121600*
X279300*
Y118200*
X276700Y118400D02*
X279300D01*
X276700Y118800D02*
X279300D01*
X276700Y119200D02*
X279300D01*
X276700Y119600D02*
X279300D01*
X276700Y120000D02*
X279300D01*
X276700Y120400D02*
X279300D01*
X276700Y120800D02*
X279300D01*
X276700Y121200D02*
X279300D01*
X276700Y121600D02*
X279300D01*
X276800Y118200D02*
Y121600D01*
X277200Y118200D02*
Y121600D01*
X277600Y118200D02*
Y121600D01*
X278000Y118200D02*
Y121600D01*
X278400Y118200D02*
Y121600D01*
X278800Y118200D02*
Y121600D01*
X279200Y118200D02*
Y121600D01*
X279300Y124400D02*
X276700D01*
Y127800*
X279300*
Y124400*
X276700D02*
X279300D01*
X276700Y124800D02*
X279300D01*
X276700Y125200D02*
X279300D01*
X276700Y125600D02*
X279300D01*
X276700Y126000D02*
X279300D01*
X276700Y126400D02*
X279300D01*
X276700Y126800D02*
X279300D01*
X276700Y127200D02*
X279300D01*
X276700Y127600D02*
X279300D01*
X276800Y124400D02*
Y127800D01*
X277200Y124400D02*
Y127800D01*
X277600Y124400D02*
Y127800D01*
X278000Y124400D02*
Y127800D01*
X278400Y124400D02*
Y127800D01*
X278800Y124400D02*
Y127800D01*
X279200Y124400D02*
Y127800D01*
X287300Y118200D02*
X284700D01*
Y121600*
X287300*
Y118200*
X284700Y118400D02*
X287300D01*
X284700Y118800D02*
X287300D01*
X284700Y119200D02*
X287300D01*
X284700Y119600D02*
X287300D01*
X284700Y120000D02*
X287300D01*
X284700Y120400D02*
X287300D01*
X284700Y120800D02*
X287300D01*
X284700Y121200D02*
X287300D01*
X284700Y121600D02*
X287300D01*
X284800Y118200D02*
Y121600D01*
X285200Y118200D02*
Y121600D01*
X285600Y118200D02*
Y121600D01*
X286000Y118200D02*
Y121600D01*
X286400Y118200D02*
Y121600D01*
X286800Y118200D02*
Y121600D01*
X287200Y118200D02*
Y121600D01*
X287300Y124400D02*
X284700D01*
Y127800*
X287300*
Y124400*
X284700D02*
X287300D01*
X284700Y124800D02*
X287300D01*
X284700Y125200D02*
X287300D01*
X284700Y125600D02*
X287300D01*
X284700Y126000D02*
X287300D01*
X284700Y126400D02*
X287300D01*
X284700Y126800D02*
X287300D01*
X284700Y127200D02*
X287300D01*
X284700Y127600D02*
X287300D01*
X284800Y124400D02*
Y127800D01*
X285200Y124400D02*
Y127800D01*
X285600Y124400D02*
Y127800D01*
X286000Y124400D02*
Y127800D01*
X286400Y124400D02*
Y127800D01*
X286800Y124400D02*
Y127800D01*
X287200Y124400D02*
Y127800D01*
X321800Y149300D02*
Y146700D01*
X318400*
Y149300*
X321800*
X318400Y146800D02*
X321800D01*
X318400Y147200D02*
X321800D01*
X318400Y147600D02*
X321800D01*
X318400Y148000D02*
X321800D01*
X318400Y148400D02*
X321800D01*
X318400Y148800D02*
X321800D01*
X318400Y149200D02*
X321800D01*
X318400Y146700D02*
Y149300D01*
X318800Y146700D02*
Y149300D01*
X319200Y146700D02*
Y149300D01*
X319600Y146700D02*
Y149300D01*
X320000Y146700D02*
Y149300D01*
X320400Y146700D02*
Y149300D01*
X320800Y146700D02*
Y149300D01*
X321200Y146700D02*
Y149300D01*
X321600Y146700D02*
Y149300D01*
X315600D02*
Y146700D01*
X312200*
Y149300*
X315600*
X312200Y146800D02*
X315600D01*
X312200Y147200D02*
X315600D01*
X312200Y147600D02*
X315600D01*
X312200Y148000D02*
X315600D01*
X312200Y148400D02*
X315600D01*
X312200Y148800D02*
X315600D01*
X312200Y149200D02*
X315600D01*
X312400Y146700D02*
Y149300D01*
X312800Y146700D02*
Y149300D01*
X313200Y146700D02*
Y149300D01*
X313600Y146700D02*
Y149300D01*
X314000Y146700D02*
Y149300D01*
X314400Y146700D02*
Y149300D01*
X314800Y146700D02*
Y149300D01*
X315200Y146700D02*
Y149300D01*
X315600Y146700D02*
Y149300D01*
X321800Y157300D02*
Y154700D01*
X318400*
Y157300*
X321800*
X318400Y154800D02*
X321800D01*
X318400Y155200D02*
X321800D01*
X318400Y155600D02*
X321800D01*
X318400Y156000D02*
X321800D01*
X318400Y156400D02*
X321800D01*
X318400Y156800D02*
X321800D01*
X318400Y157200D02*
X321800D01*
X318400Y154700D02*
Y157300D01*
X318800Y154700D02*
Y157300D01*
X319200Y154700D02*
Y157300D01*
X319600Y154700D02*
Y157300D01*
X320000Y154700D02*
Y157300D01*
X320400Y154700D02*
Y157300D01*
X320800Y154700D02*
Y157300D01*
X321200Y154700D02*
Y157300D01*
X321600Y154700D02*
Y157300D01*
X315600D02*
Y154700D01*
X312200*
Y157300*
X315600*
X312200Y154800D02*
X315600D01*
X312200Y155200D02*
X315600D01*
X312200Y155600D02*
X315600D01*
X312200Y156000D02*
X315600D01*
X312200Y156400D02*
X315600D01*
X312200Y156800D02*
X315600D01*
X312200Y157200D02*
X315600D01*
X312400Y154700D02*
Y157300D01*
X312800Y154700D02*
Y157300D01*
X313200Y154700D02*
Y157300D01*
X313600Y154700D02*
Y157300D01*
X314000Y154700D02*
Y157300D01*
X314400Y154700D02*
Y157300D01*
X314800Y154700D02*
Y157300D01*
X315200Y154700D02*
Y157300D01*
X315600Y154700D02*
Y157300D01*
X325200Y231700D02*
Y234300D01*
X328600*
Y231700*
X325200*
Y232000D02*
X328600D01*
X325200Y232400D02*
X328600D01*
X325200Y232800D02*
X328600D01*
X325200Y233200D02*
X328600D01*
X325200Y233600D02*
X328600D01*
X325200Y234000D02*
X328600D01*
X325200Y231700D02*
Y234300D01*
X325600Y231700D02*
Y234300D01*
X326000Y231700D02*
Y234300D01*
X326400Y231700D02*
Y234300D01*
X326800Y231700D02*
Y234300D01*
X327200Y231700D02*
Y234300D01*
X327600Y231700D02*
Y234300D01*
X328000Y231700D02*
Y234300D01*
X328400Y231700D02*
Y234300D01*
X331400Y231700D02*
Y234300D01*
X334800*
Y231700*
X331400*
Y232000D02*
X334800D01*
X331400Y232400D02*
X334800D01*
X331400Y232800D02*
X334800D01*
X331400Y233200D02*
X334800D01*
X331400Y233600D02*
X334800D01*
X331400Y234000D02*
X334800D01*
X331600Y231700D02*
Y234300D01*
X332000Y231700D02*
Y234300D01*
X332400Y231700D02*
Y234300D01*
X332800Y231700D02*
Y234300D01*
X333200Y231700D02*
Y234300D01*
X333600Y231700D02*
Y234300D01*
X334000Y231700D02*
Y234300D01*
X334400Y231700D02*
Y234300D01*
X334800Y231700D02*
Y234300D01*
X325200Y246700D02*
Y249300D01*
X328600*
Y246700*
X325200*
Y246800D02*
X328600D01*
X325200Y247200D02*
X328600D01*
X325200Y247600D02*
X328600D01*
X325200Y248000D02*
X328600D01*
X325200Y248400D02*
X328600D01*
X325200Y248800D02*
X328600D01*
X325200Y249200D02*
X328600D01*
X325200Y246700D02*
Y249300D01*
X325600Y246700D02*
Y249300D01*
X326000Y246700D02*
Y249300D01*
X326400Y246700D02*
Y249300D01*
X326800Y246700D02*
Y249300D01*
X327200Y246700D02*
Y249300D01*
X327600Y246700D02*
Y249300D01*
X328000Y246700D02*
Y249300D01*
X328400Y246700D02*
Y249300D01*
X331400Y246700D02*
Y249300D01*
X334800*
Y246700*
X331400*
Y246800D02*
X334800D01*
X331400Y247200D02*
X334800D01*
X331400Y247600D02*
X334800D01*
X331400Y248000D02*
X334800D01*
X331400Y248400D02*
X334800D01*
X331400Y248800D02*
X334800D01*
X331400Y249200D02*
X334800D01*
X331600Y246700D02*
Y249300D01*
X332000Y246700D02*
Y249300D01*
X332400Y246700D02*
Y249300D01*
X332800Y246700D02*
Y249300D01*
X333200Y246700D02*
Y249300D01*
X333600Y246700D02*
Y249300D01*
X334000Y246700D02*
Y249300D01*
X334400Y246700D02*
Y249300D01*
X334800Y246700D02*
Y249300D01*
X325200Y256700D02*
Y259300D01*
X328600*
Y256700*
X325200*
Y256800D02*
X328600D01*
X325200Y257200D02*
X328600D01*
X325200Y257600D02*
X328600D01*
X325200Y258000D02*
X328600D01*
X325200Y258400D02*
X328600D01*
X325200Y258800D02*
X328600D01*
X325200Y259200D02*
X328600D01*
X325200Y256700D02*
Y259300D01*
X325600Y256700D02*
Y259300D01*
X326000Y256700D02*
Y259300D01*
X326400Y256700D02*
Y259300D01*
X326800Y256700D02*
Y259300D01*
X327200Y256700D02*
Y259300D01*
X327600Y256700D02*
Y259300D01*
X328000Y256700D02*
Y259300D01*
X328400Y256700D02*
Y259300D01*
X331400Y256700D02*
Y259300D01*
X334800*
Y256700*
X331400*
Y256800D02*
X334800D01*
X331400Y257200D02*
X334800D01*
X331400Y257600D02*
X334800D01*
X331400Y258000D02*
X334800D01*
X331400Y258400D02*
X334800D01*
X331400Y258800D02*
X334800D01*
X331400Y259200D02*
X334800D01*
X331600Y256700D02*
Y259300D01*
X332000Y256700D02*
Y259300D01*
X332400Y256700D02*
Y259300D01*
X332800Y256700D02*
Y259300D01*
X333200Y256700D02*
Y259300D01*
X333600Y256700D02*
Y259300D01*
X334000Y256700D02*
Y259300D01*
X334400Y256700D02*
Y259300D01*
X334800Y256700D02*
Y259300D01*
X325200Y221700D02*
Y224300D01*
X328600*
Y221700*
X325200*
Y222000D02*
X328600D01*
X325200Y222400D02*
X328600D01*
X325200Y222800D02*
X328600D01*
X325200Y223200D02*
X328600D01*
X325200Y223600D02*
X328600D01*
X325200Y224000D02*
X328600D01*
X325200Y221700D02*
Y224300D01*
X325600Y221700D02*
Y224300D01*
X326000Y221700D02*
Y224300D01*
X326400Y221700D02*
Y224300D01*
X326800Y221700D02*
Y224300D01*
X327200Y221700D02*
Y224300D01*
X327600Y221700D02*
Y224300D01*
X328000Y221700D02*
Y224300D01*
X328400Y221700D02*
Y224300D01*
X331400Y221700D02*
Y224300D01*
X334800*
Y221700*
X331400*
Y222000D02*
X334800D01*
X331400Y222400D02*
X334800D01*
X331400Y222800D02*
X334800D01*
X331400Y223200D02*
X334800D01*
X331400Y223600D02*
X334800D01*
X331400Y224000D02*
X334800D01*
X331600Y221700D02*
Y224300D01*
X332000Y221700D02*
Y224300D01*
X332400Y221700D02*
Y224300D01*
X332800Y221700D02*
Y224300D01*
X333200Y221700D02*
Y224300D01*
X333600Y221700D02*
Y224300D01*
X334000Y221700D02*
Y224300D01*
X334400Y221700D02*
Y224300D01*
X334800Y221700D02*
Y224300D01*
X325200Y197700D02*
Y200300D01*
X328600*
Y197700*
X325200*
Y198000D02*
X328600D01*
X325200Y198400D02*
X328600D01*
X325200Y198800D02*
X328600D01*
X325200Y199200D02*
X328600D01*
X325200Y199600D02*
X328600D01*
X325200Y200000D02*
X328600D01*
X325200Y197700D02*
Y200300D01*
X325600Y197700D02*
Y200300D01*
X326000Y197700D02*
Y200300D01*
X326400Y197700D02*
Y200300D01*
X326800Y197700D02*
Y200300D01*
X327200Y197700D02*
Y200300D01*
X327600Y197700D02*
Y200300D01*
X328000Y197700D02*
Y200300D01*
X328400Y197700D02*
Y200300D01*
X331400Y197700D02*
Y200300D01*
X334800*
Y197700*
X331400*
Y198000D02*
X334800D01*
X331400Y198400D02*
X334800D01*
X331400Y198800D02*
X334800D01*
X331400Y199200D02*
X334800D01*
X331400Y199600D02*
X334800D01*
X331400Y200000D02*
X334800D01*
X331600Y197700D02*
Y200300D01*
X332000Y197700D02*
Y200300D01*
X332400Y197700D02*
Y200300D01*
X332800Y197700D02*
Y200300D01*
X333200Y197700D02*
Y200300D01*
X333600Y197700D02*
Y200300D01*
X334000Y197700D02*
Y200300D01*
X334400Y197700D02*
Y200300D01*
X334800Y197700D02*
Y200300D01*
X325200Y207700D02*
Y210300D01*
X328600*
Y207700*
X325200*
Y208000D02*
X328600D01*
X325200Y208400D02*
X328600D01*
X325200Y208800D02*
X328600D01*
X325200Y209200D02*
X328600D01*
X325200Y209600D02*
X328600D01*
X325200Y210000D02*
X328600D01*
X325200Y207700D02*
Y210300D01*
X325600Y207700D02*
Y210300D01*
X326000Y207700D02*
Y210300D01*
X326400Y207700D02*
Y210300D01*
X326800Y207700D02*
Y210300D01*
X327200Y207700D02*
Y210300D01*
X327600Y207700D02*
Y210300D01*
X328000Y207700D02*
Y210300D01*
X328400Y207700D02*
Y210300D01*
X331400Y207700D02*
Y210300D01*
X334800*
Y207700*
X331400*
Y208000D02*
X334800D01*
X331400Y208400D02*
X334800D01*
X331400Y208800D02*
X334800D01*
X331400Y209200D02*
X334800D01*
X331400Y209600D02*
X334800D01*
X331400Y210000D02*
X334800D01*
X331600Y207700D02*
Y210300D01*
X332000Y207700D02*
Y210300D01*
X332400Y207700D02*
Y210300D01*
X332800Y207700D02*
Y210300D01*
X333200Y207700D02*
Y210300D01*
X333600Y207700D02*
Y210300D01*
X334000Y207700D02*
Y210300D01*
X334400Y207700D02*
Y210300D01*
X334800Y207700D02*
Y210300D01*
X325200Y187700D02*
Y190300D01*
X328600*
Y187700*
X325200*
Y188000D02*
X328600D01*
X325200Y188400D02*
X328600D01*
X325200Y188800D02*
X328600D01*
X325200Y189200D02*
X328600D01*
X325200Y189600D02*
X328600D01*
X325200Y190000D02*
X328600D01*
X325200Y187700D02*
Y190300D01*
X325600Y187700D02*
Y190300D01*
X326000Y187700D02*
Y190300D01*
X326400Y187700D02*
Y190300D01*
X326800Y187700D02*
Y190300D01*
X327200Y187700D02*
Y190300D01*
X327600Y187700D02*
Y190300D01*
X328000Y187700D02*
Y190300D01*
X328400Y187700D02*
Y190300D01*
X331400Y187700D02*
Y190300D01*
X334800*
Y187700*
X331400*
Y188000D02*
X334800D01*
X331400Y188400D02*
X334800D01*
X331400Y188800D02*
X334800D01*
X331400Y189200D02*
X334800D01*
X331400Y189600D02*
X334800D01*
X331400Y190000D02*
X334800D01*
X331600Y187700D02*
Y190300D01*
X332000Y187700D02*
Y190300D01*
X332400Y187700D02*
Y190300D01*
X332800Y187700D02*
Y190300D01*
X333200Y187700D02*
Y190300D01*
X333600Y187700D02*
Y190300D01*
X334000Y187700D02*
Y190300D01*
X334400Y187700D02*
Y190300D01*
X334800Y187700D02*
Y190300D01*
G54D54*
X250000Y268000D03*
X269200D03*
G54D55*
X270000Y112000D03*
X277874D03*
X285748D03*
X293622D03*
X205000D03*
X212874D03*
X220748D03*
X228622D03*
X236496D03*
X328000Y276000D03*
Y283874D03*
Y148000D03*
Y155874D03*
Y163748D03*
X173000Y186000D03*
Y178126D03*
Y170252D03*
G54D56*
X284000Y305157D03*
X274157Y315000D03*
Y305157D03*
X263921Y315000D03*
Y305157D03*
G54D59*
X194000Y224000D03*
X172346D03*
G54D61*
X325500Y115000D03*
X175500Y315000D03*
Y115000D03*
X325500Y315000D03*
G54D62*
X218000Y141000D02*
Y176000D01*
G54D63*
X178892Y103750D03*
X268892D03*
X283892D03*
X298892D03*
X313892D03*
X328892D03*
X253892Y118750D03*
X268892D03*
X298892D03*
X313892D03*
X313600Y126400D03*
X193892Y133750D03*
X253892D03*
X178892Y148750D03*
X193892D03*
X208892D03*
X218000Y141000D03*
X253892Y148750D03*
X258000Y157000D03*
X178892Y163750D03*
X223892D03*
X253000Y162000D03*
X283000D03*
X293000D03*
X313892Y163750D03*
X191000Y179000D03*
X208892Y178750D03*
X218000Y176000D03*
X233200Y173800D03*
X298000Y176000D03*
X249000Y182000D03*
X261000D03*
X318000Y184000D03*
X333000D03*
X212000Y196000D03*
X273000D03*
X277000Y192000D03*
X314200Y197800D03*
X327000Y194000D03*
X333000D03*
X193892Y208750D03*
X201000Y200000D03*
X208892Y208750D03*
X223892D03*
X253892D03*
X268000Y200000D03*
X268892Y208750D03*
X283892D03*
X327000Y204000D03*
X333000D03*
X317800Y214000D03*
X327000Y218000D03*
X333000D03*
X223892Y223750D03*
X245000Y228000D03*
X320200Y227800D03*
X333000Y228000D03*
X208892Y298750D03*
Y283750D03*
X209200Y265600D03*
X208892Y253750D03*
Y238750D03*
X193892Y298750D03*
Y268750D03*
X178892Y298750D03*
Y238750D03*
X298892Y298750D03*
Y283750D03*
Y268750D03*
Y253750D03*
X253892Y298750D03*
X251800Y257200D03*
X238892Y298750D03*
X235000Y283600D03*
X238892Y268750D03*
Y253750D03*
X223892Y283750D03*
Y268750D03*
Y253750D03*
Y238750D03*
X333000Y253000D03*
Y243000D03*
X328892Y298750D03*
Y268750D03*
X326200Y242800D03*
X313892Y298750D03*
X193892Y313750D03*
X298892D03*
X313892D03*
G54D64*
X270000Y112000D02*
X263000Y105000D01*
X198000*
X190000Y113000*
Y122000*
X166000Y146000*
Y178126*
X173000D02*
X166000D01*
Y196000*
X194000Y224000*
G74*
X0Y0D02*
M02*
