%
T1C.024F197S55
X025Y0268
X02692Y0268
T2C.025F197S55
X017889Y010375
X019389Y013375
X017889Y014875
X019389Y014875
X017889Y016375
X0191Y0179
X019389Y020875
X017889Y023875
X019389Y026875
X017889Y029875
X019389Y029875
X019389Y031375
X020889Y029875
X020889Y028375
X02092Y02656
X020889Y025375
X020889Y023875
X020889Y020875
X0201Y02
X0212Y0196
X020889Y017875
X0218Y0176
X020889Y014875
X0218Y0141
X022389Y016375
X02332Y01738
X022389Y020875
X022389Y022375
X0245Y0228
X022389Y023875
X023889Y025375
X022389Y025375
X022389Y026875
X023889Y026875
X0235Y02836
X022389Y028375
X023889Y029875
X025389Y029875
X02518Y02572
X025389Y020875
X026889Y020875
X0268Y02
X0249Y0182
X0261Y0182
X0253Y0162
X0258Y0157
X025389Y014875
X025389Y013375
X026889Y011875
X025389Y011875
X026889Y010375
X028389Y010375
X031389Y010375
X029889Y010375
X029889Y011875
X031389Y011875
X03136Y01264
X0293Y0162
X0283Y0162
X031389Y016375
X0298Y0176
X0318Y0184
X0277Y0192
X0273Y0196
X03142Y01978
X028389Y020875
X03178Y0214
X03202Y02278
X029889Y025375
X029889Y026875
X029889Y028375
X031389Y029875
X029889Y029875
X029889Y031375
X031389Y031375
X032889Y029875
X032889Y026875
X0333Y0253
X0333Y0243
X03262Y02428
X0333Y0228
X0327Y0218
X0333Y0218
X0327Y0204
X0333Y0204
X0333Y0194
X0327Y0194
X0333Y0184
X032889Y010375
T3C.0315F197S55
X0205Y0112
X021287Y0112
X022075Y0112
X0173Y017025
X0173Y017813
X0173Y0186
X022862Y0112
X02365Y0112
X027Y0112
X029362Y0112
X027787Y0112
X028575Y0112
X0328Y0148
X0328Y015587
X0328Y016375
X0328Y0276
X0328Y028387
T4C.035F197S55
X026392Y030516
X027416Y030516
X0284Y030516
X026392Y0315
X0284Y0315
X027416Y0315
T5C.03937F197S55
X02012Y029714
X02268Y029714
X02268Y031486
X02012Y031486
T6C.05512F107S55
X0194Y0224
X017235Y0224
T7C.116F069S658
X01755Y0115
X01755Y0315
X03255Y0315
X03255Y0115
M30
