*
*
G04 PADS 9.3.1 Build Number: 456998 generated Gerber (RS-274-X) file*
G04 PC Version=2.1*
*
%IN "wrist.pcb"*%
*
%MOIN*%
*
%FSLAX35Y35*%
*
*
*
*
G04 PC Standard Apertures*
*
*
G04 Thermal Relief Aperture macro.*
%AMTER*
1,1,$1,0,0*
1,0,$1-$2,0,0*
21,0,$3,$4,0,0,45*
21,0,$3,$4,0,0,135*
%
*
*
G04 Annular Aperture macro.*
%AMANN*
1,1,$1,0,0*
1,0,$2,0,0*
%
*
*
G04 Odd Aperture macro.*
%AMODD*
1,1,$1,0,0*
1,0,$1-0.005,0,0*
%
*
*
G04 PC Custom Aperture Macros*
*
*
*
*
*
*
G04 PC Aperture Table*
*
%ADD010C,0.001*%
%ADD022C,0.005*%
%ADD033C,0.00787*%
*
*
*
*
G04 PC Circuitry*
G04 Layer Name wrist.pcb - circuitry*
%LPD*%
*
*
G04 PC Custom Flashes*
G04 Layer Name wrist.pcb - flashes*
%LPD*%
*
*
G04 PC Circuitry*
G04 Layer Name wrist.pcb - circuitry*
%LPD*%
*
G54D10*
G54D22*
G01X184319Y202050D02*
X187600D01*
X184319D02*
Y201027D01*
X184475Y200686*
X184631Y200573*
X184944Y200459*
X185256*
X185569Y200573*
X185725Y200686*
X185881Y201027*
Y202050*
Y201255D02*
X187600Y200459D01*
X184944Y199436D02*
X184787Y199209D01*
X184787D02*
X184319Y198868D01*
X187600*
X184319Y197164D02*
X184475Y197505D01*
X184944Y197732*
X185725Y197845*
X186194*
X186975Y197732*
X187444Y197505*
X187600Y197164*
Y196936*
X187444Y196595*
X186975Y196368*
X186194Y196255*
X185725*
X184944Y196368*
X184475Y196595*
X184319Y196936*
Y197164*
X178919Y201764D02*
X182200D01*
X178919D02*
Y200741D01*
X179075Y200400*
X179231Y200286*
X179544Y200173*
X179856*
X180169Y200286*
X180325Y200400*
X180481Y200741*
Y201764*
Y200968D02*
X182200Y200173D01*
X179544Y199150D02*
X179387Y198923D01*
X179387D02*
X178919Y198582D01*
X182200*
X178919Y196082D02*
Y197218D01*
X180325Y197332*
X180169Y197218*
X180012Y196877*
X180012D02*
Y196536D01*
X180012D02*
X180169Y196195D01*
X180481Y195968*
X180950Y195855*
X181262Y195968*
X181262D02*
X181731Y196082D01*
X182044Y196309*
X182200Y196650*
Y196991*
X182044Y197332*
X181887Y197445*
X181887D02*
X181575Y197559D01*
X189719Y201936D02*
X193000D01*
X189719D02*
Y200914D01*
X189875Y200573*
X190031Y200459*
X190344Y200345*
X190656*
X190969Y200459*
X191125Y200573*
X191281Y200914*
Y201936*
Y201141D02*
X193000Y200345D01*
X190344Y199323D02*
X190187Y199095D01*
X190187D02*
X189719Y198755D01*
X193000*
X190187Y196368D02*
X189875Y196482D01*
X189719Y196823*
Y197050*
X189875Y197391*
X190344Y197618*
X191125Y197732*
X191906*
X192531Y197618*
X192844Y197391*
X193000Y197050*
Y196936*
X192844Y196595*
X192531Y196368*
X192062Y196255*
X192062D02*
X191906D01*
X191437Y196368*
X191437D02*
X191125Y196595D01*
X190969Y196936*
Y197050*
X191125Y197391*
X191437Y197618*
X191437D02*
X191906Y197732D01*
X289464Y325881D02*
Y322600D01*
Y325881D02*
X288441D01*
X288100Y325725*
X287986Y325569*
X287873Y325256*
Y324944*
X287986Y324631*
X288100Y324475*
X288441Y324319*
X289464*
X288668D02*
X287873Y322600D01*
X286850Y325256D02*
X286623Y325413D01*
X286623D02*
X286282Y325881D01*
Y322600*
X284577Y325881D02*
X284918Y325725D01*
X285145Y325256*
X285259Y324475*
Y324006*
X285145Y323225*
X284918Y322756*
X284577Y322600*
X284350*
X284009Y322756*
X283782Y323225*
X283668Y324006*
Y324475*
X283782Y325256*
X284009Y325725*
X284350Y325881*
X284577*
X282418D02*
X281168D01*
X281850Y324631*
X281509*
X281282Y324475*
X281168Y324319*
X281055Y323850*
Y323538*
X281055D02*
X281168Y323069D01*
X281395Y322756*
X281736Y322600*
X282077*
X282418Y322756*
X282532Y322913*
X282532D02*
X282645Y323225D01*
X305164Y288119D02*
Y291400D01*
Y288119D02*
X306186D01*
X306527Y288275*
X306641Y288431*
X306755Y288744*
Y289056*
X306641Y289369*
X306527Y289525*
X306186Y289681*
X305164*
X305959D02*
X306755Y291400D01*
X307777Y288744D02*
X308005Y288587D01*
X308005D02*
X308345Y288119D01*
Y291400*
X304341Y274319D02*
Y277600D01*
Y274319D02*
X305364D01*
X305705Y274475*
X305818Y274631*
X305932Y274944*
Y275256*
X305818Y275569*
X305705Y275725*
X305364Y275881*
X304341*
X305136D02*
X305932Y277600D01*
X307068Y275100D02*
Y274944D01*
X307182Y274631*
X307295Y274475*
X307523Y274319*
X307977*
X308205Y274475*
X308318Y274631*
X308432Y274944*
Y275256*
X308318Y275569*
X308091Y276037*
X308091D02*
X306955Y277600D01*
X308545*
X305732Y282900D02*
X305618Y282587D01*
X305618D02*
X305391Y282275D01*
X305164Y282119*
X304709*
X304482Y282275*
X304255Y282587*
X304255D02*
X304141Y282900D01*
X304027Y283369*
Y284150*
X304141Y284619*
X304255Y284931*
X304482Y285244*
X304709Y285400*
X305164*
X305391Y285244*
X305618Y284931*
X305732Y284619*
X306982Y282119D02*
X308232D01*
X307550Y283369*
X307891*
X308118Y283525*
X308232Y283681*
X308345Y284150*
Y284462*
X308345D02*
X308232Y284931D01*
X308005Y285244*
X307664Y285400*
X307323*
X306982Y285244*
X306868Y285087*
X306868D02*
X306755Y284775D01*
X207081Y130564D02*
X203800D01*
X207081D02*
Y131359D01*
X206925Y131700*
X206613Y131927*
X206300Y132041*
X205831Y132155*
X205050*
X204581Y132041*
X204269Y131927*
X203956Y131700*
X203800Y131359*
Y130564*
X206456Y133177D02*
X206613Y133405D01*
X207081Y133745*
X203800*
X214481Y130741D02*
X211200D01*
X214481D02*
Y131536D01*
X214325Y131877*
X214013Y132105*
X213700Y132218*
X213231Y132332*
X212450*
X211981Y132218*
X211669Y132105*
X211356Y131877*
X211200Y131536*
Y130741*
X213700Y133468D02*
X213856D01*
X214169Y133582*
X214325Y133695*
X214481Y133923*
Y134377*
X214325Y134605*
X214169Y134718*
X213856Y134832*
X213544*
X213231Y134718*
X212763Y134491*
X211200Y133355*
Y134945*
X229481Y130741D02*
X226200D01*
X229481D02*
Y131536D01*
X229325Y131877*
X229013Y132105*
X228700Y132218*
X228231Y132332*
X227450*
X226981Y132218*
X226669Y132105*
X226356Y131877*
X226200Y131536*
Y130741*
X229481Y133582D02*
Y134832D01*
X228231Y134150*
Y134491*
X228075Y134718*
X227919Y134832*
X227450Y134945*
X227138*
X226669Y134832*
X226356Y134605*
X226200Y134264*
Y133923*
X226356Y133582*
X226513Y133468*
X226825Y133355*
X237481Y130627D02*
X234200D01*
X237481D02*
Y131423D01*
X237325Y131764*
X237013Y131991*
X236700Y132105*
X236231Y132218*
X235450*
X234981Y132105*
X234669Y131991*
X234356Y131764*
X234200Y131423*
Y130627*
X237481Y134377D02*
X235294Y133241D01*
Y134945*
X237481Y134377D02*
X234200D01*
X279681Y130627D02*
X276400D01*
X279681D02*
Y131423D01*
X279525Y131764*
X279213Y131991*
X278900Y132105*
X278431Y132218*
X277650*
X277181Y132105*
X276869Y131991*
X276556Y131764*
X276400Y131423*
Y130627*
X279681Y134718D02*
Y133582D01*
X278275Y133468*
X278431Y133582*
X278588Y133923*
Y134264*
X278431Y134605*
X278119Y134832*
X277650Y134945*
X277338Y134832*
X276869Y134718*
X276556Y134491*
X276400Y134150*
Y133809*
X276556Y133468*
X276713Y133355*
X277025Y133241*
X287481Y130855D02*
X284200D01*
X287481D02*
Y131650D01*
X287325Y131991*
X287013Y132218*
X286700Y132332*
X286231Y132445*
X285450*
X284981Y132332*
X284669Y132218*
X284356Y131991*
X284200Y131650*
Y130855*
X287013Y134832D02*
X287325Y134718D01*
X287481Y134377*
Y134150*
X287325Y133809*
X286856Y133582*
X286075Y133468*
X285294*
X284669Y133582*
X284356Y133809*
X284200Y134150*
Y134264*
X284356Y134605*
X284669Y134832*
X285138Y134945*
X285294*
X285763Y134832*
X286075Y134605*
X286231Y134264*
Y134150*
X286075Y133809*
X285763Y133582*
X285294Y133468*
X319459Y145281D02*
Y142000D01*
Y145281D02*
X318664D01*
X318323Y145125*
X318095Y144813*
X318095D02*
X317982Y144500D01*
X317868Y144031*
Y143250*
X317982Y142781*
X318095Y142469*
X318323Y142156*
X318664Y142000*
X319459*
X315255Y145281D02*
X316391Y142000D01*
X316845Y145281D02*
X315255D01*
X319459Y162081D02*
Y158800D01*
Y162081D02*
X318664D01*
X318323Y161925*
X318095Y161613*
X318095D02*
X317982Y161300D01*
X317868Y160831*
Y160050*
X317982Y159581*
X318095Y159269*
X318323Y158956*
X318664Y158800*
X319459*
X316277Y162081D02*
X316618Y161925D01*
X316732Y161613*
X316732D02*
Y161300D01*
X316618Y160988*
X316618D02*
X316391Y160831D01*
X315936Y160675*
X315595Y160519*
X315368Y160206*
X315255Y159894*
Y159425*
X315368Y159113*
X315368D02*
X315482Y158956D01*
X315823Y158800*
X316277*
X316618Y158956*
X316732Y159113*
X316732D02*
X316845Y159425D01*
Y159894*
X316732Y160206*
X316505Y160519*
X316164Y160675*
X315709Y160831*
X315482Y160988*
X315482D02*
X315368Y161300D01*
Y161613*
X315368D02*
X315482Y161925D01*
X315823Y162081*
X316277*
X319141Y231119D02*
Y234400D01*
Y231119D02*
X320164D01*
X320505Y231275*
X320618Y231431*
X320732Y231744*
Y232056*
X320618Y232369*
X320505Y232525*
X320164Y232681*
X319141*
X319936D02*
X320732Y234400D01*
X321982Y231119D02*
X323232D01*
X322550Y232369*
X322891*
X323118Y232525*
X323232Y232681*
X323345Y233150*
Y233462*
X323345D02*
X323232Y233931D01*
X323005Y234244*
X322664Y234400*
X322323*
X321982Y234244*
X321868Y234087*
X321868D02*
X321755Y233775D01*
X319027Y246119D02*
Y249400D01*
Y246119D02*
X320050D01*
X320391Y246275*
X320505Y246431*
X320618Y246744*
Y247056*
X320505Y247369*
X320391Y247525*
X320050Y247681*
X319027*
X319823D02*
X320618Y249400D01*
X322777Y246119D02*
X321641Y248306D01*
X323345*
X322777Y246119D02*
Y249400D01*
X319027Y256319D02*
Y259600D01*
Y256319D02*
X320050D01*
X320391Y256475*
X320505Y256631*
X320618Y256944*
Y257256*
X320505Y257569*
X320391Y257725*
X320050Y257881*
X319027*
X319823D02*
X320618Y259600D01*
X323118Y256319D02*
X321982D01*
X321868Y257725*
X321982Y257569*
X322323Y257412*
X322323D02*
X322664D01*
X322664D02*
X323005Y257569D01*
X323232Y257881*
X323345Y258350*
X323232Y258662*
X323232D02*
X323118Y259131D01*
X322891Y259444*
X322550Y259600*
X322209*
X321868Y259444*
X321755Y259287*
X321755D02*
X321641Y258975D01*
X319255Y221519D02*
Y224800D01*
Y221519D02*
X320277D01*
X320618Y221675*
X320732Y221831*
X320845Y222144*
Y222456*
X320732Y222769*
X320618Y222925*
X320277Y223081*
X319255*
X320050D02*
X320845Y224800D01*
X323232Y221987D02*
X323118Y221675D01*
X322777Y221519*
X322550*
X322209Y221675*
X321982Y222144*
X321868Y222925*
Y223706*
X321982Y224331*
X322209Y224644*
X322550Y224800*
X322664*
X323005Y224644*
X323232Y224331*
X323345Y223862*
X323345D02*
Y223706D01*
X323232Y223237*
X323232D02*
X323005Y222925D01*
X322664Y222769*
X322550*
X322209Y222925*
X321982Y223237*
X321982D02*
X321868Y223706D01*
X319141Y197519D02*
Y200800D01*
Y197519D02*
X320164D01*
X320505Y197675*
X320618Y197831*
X320732Y198144*
Y198456*
X320618Y198769*
X320505Y198925*
X320164Y199081*
X319141*
X319936D02*
X320732Y200800D01*
X323345Y197519D02*
X322209Y200800D01*
X321755Y197519D02*
X323345D01*
X319141Y207119D02*
Y210400D01*
Y207119D02*
X320164D01*
X320505Y207275*
X320618Y207431*
X320732Y207744*
Y208056*
X320618Y208369*
X320505Y208525*
X320164Y208681*
X319141*
X319936D02*
X320732Y210400D01*
X322323Y207119D02*
X321982Y207275D01*
X321868Y207587*
X321868D02*
Y207900D01*
X321982Y208212*
X321982D02*
X322209Y208369D01*
X322664Y208525*
X323005Y208681*
X323232Y208994*
X323345Y209306*
Y209775*
X323232Y210087*
X323232D02*
X323118Y210244D01*
X322777Y210400*
X322323*
X321982Y210244*
X321868Y210087*
X321868D02*
X321755Y209775D01*
Y209306*
X321868Y208994*
X322095Y208681*
X322436Y208525*
X322891Y208369*
X323118Y208212*
X323118D02*
X323232Y207900D01*
Y207587*
X323232D02*
X323118Y207275D01*
X322777Y207119*
X322323*
X319255Y187319D02*
Y190600D01*
Y187319D02*
X320277D01*
X320618Y187475*
X320732Y187631*
X320845Y187944*
Y188256*
X320732Y188569*
X320618Y188725*
X320277Y188881*
X319255*
X320050D02*
X320845Y190600D01*
X323345Y188412D02*
X323232Y188881D01*
X323005Y189194*
X322664Y189350*
X322550*
X322209Y189194*
X321982Y188881*
X321868Y188412*
X321868D02*
Y188256D01*
X321982Y187787*
X321982D02*
X322209Y187475D01*
X322550Y187319*
X322664*
X323005Y187475*
X323232Y187787*
X323232D02*
X323345Y188412D01*
X323345D02*
Y189194D01*
X323232Y189975*
X323005Y190444*
X322664Y190600*
X322436*
X322095Y190444*
X321982Y190131*
X185100Y182686D02*
X184944D01*
X184631Y182573*
X184475Y182459*
X184319Y182232*
Y181777*
X184475Y181550*
X184631Y181436*
X184944Y181323*
X185256*
X185569Y181436*
X186037Y181664*
X187600Y182800*
Y181209*
X187287Y180073D02*
X187444Y180186D01*
X187600Y180073*
X187444Y179959*
X187287Y180073*
X184319Y177800D02*
X186506Y178936D01*
Y177232*
X184319Y177800D02*
X187600D01*
X184319Y175982D02*
Y174732D01*
X185569Y175414*
Y175073*
X185725Y174845*
X185881Y174732*
X186350Y174618*
X186662*
X187131Y174732*
X187444Y174959*
X187600Y175300*
Y175641*
X187444Y175982*
X187287Y176095*
X186975Y176209*
X184319Y173595D02*
X187600D01*
X184319Y172005D02*
X186506Y173595D01*
X185725Y173027D02*
X187600Y172005D01*
X178919Y181664D02*
X181106Y182800D01*
Y181095*
X178919Y181664D02*
X182200D01*
X181887Y179959D02*
X182044Y180073D01*
X182200Y179959*
X182044Y179845*
X181887Y179959*
X178919Y177232D02*
X182200Y178368D01*
X178919Y178823D02*
Y177232D01*
Y176209D02*
X182200D01*
X178919Y174618D02*
X181106Y176209D01*
X180325Y175641D02*
X182200Y174618D01*
X193319Y192464D02*
X195506Y193600D01*
Y191895*
X193319Y192464D02*
X196600D01*
X196287Y190759D02*
X196444Y190873D01*
X196600Y190759*
X196444Y190645*
X196287Y190759*
X193319Y188032D02*
X196600Y189168D01*
X193319Y189623D02*
Y188032D01*
Y187009D02*
X196600D01*
X193319Y185418D02*
X195506Y187009D01*
X194725Y186441D02*
X196600Y185418D01*
X267400Y325256D02*
X267173Y325413D01*
X267173D02*
X266832Y325881D01*
Y322600*
X265127Y325881D02*
X265468Y325725D01*
X265695Y325256*
X265809Y324475*
Y324006*
X265695Y323225*
X265468Y322756*
X265127Y322600*
X264900*
X264559Y322756*
X264332Y323225*
X264218Y324006*
Y324475*
X264332Y325256*
X264559Y325725*
X264900Y325881*
X265127*
X263195D02*
Y322600D01*
X262059Y324788D02*
X263195Y323225D01*
X262741Y323850D02*
X261945Y322600D01*
X313600Y292944D02*
X313827Y292787D01*
X313827D02*
X314168Y292319D01*
Y295600*
X315191Y292319D02*
Y295600D01*
X316327Y293412D02*
X315191Y294975D01*
X315645Y294350D02*
X316441Y295600D01*
X312514Y270900D02*
Y270744D01*
X312627Y270431*
X312741Y270275*
X312968Y270119*
X313423*
X313650Y270275*
X313764Y270431*
X313877Y270744*
Y271056*
X313764Y271369*
X313536Y271837*
X313536D02*
X312400Y273400D01*
X313991*
X316491Y271212D02*
X316377Y271681D01*
X316150Y271994*
X315809Y272150*
X315695*
X315355Y271994*
X315127Y271681*
X315014Y271212*
X315014D02*
Y271056D01*
X315127Y270587*
X315127D02*
X315355Y270275D01*
X315695Y270119*
X315809*
X316150Y270275*
X316377Y270587*
X316377D02*
X316491Y271212D01*
X316491D02*
Y271994D01*
X316377Y272775*
X316150Y273244*
X315809Y273400*
X315582*
X315241Y273244*
X315127Y272931*
X317514Y270119D02*
Y273400D01*
X318650Y271212D02*
X317514Y272775D01*
X317968Y272150D02*
X318764Y273400D01*
X313000Y278519D02*
Y281800D01*
Y278519D02*
X314591Y281800D01*
Y278519D02*
Y281800D01*
X315614Y278519D02*
Y280863D01*
X315614D02*
X315727Y281331D01*
X315955Y281644*
X316295Y281800*
X316523*
X316864Y281644*
X317091Y281331*
X317205Y280863*
X317205D02*
Y278519D01*
X323427Y235319D02*
X324677D01*
X323995Y236569*
X324336*
X324564Y236725*
X324677Y236881*
X324791Y237350*
Y237662*
X324791D02*
X324677Y238131D01*
X324450Y238444*
X324109Y238600*
X323768*
X323427Y238444*
X323314Y238287*
X323314D02*
X323200Y237975D01*
X327291Y236412D02*
X327177Y236881D01*
X326950Y237194*
X326609Y237350*
X326495*
X326155Y237194*
X325927Y236881*
X325814Y236412*
X325814D02*
Y236256D01*
X325927Y235787*
X325927D02*
X326155Y235475D01*
X326495Y235319*
X326609*
X326950Y235475*
X327177Y235787*
X327177D02*
X327291Y236412D01*
X327291D02*
Y237194D01*
X327177Y237975*
X326950Y238444*
X326609Y238600*
X326382*
X326041Y238444*
X325927Y238131*
X328995Y235319D02*
X328655Y235475D01*
X328427Y235944*
X328314Y236725*
Y237194*
X328427Y237975*
X328655Y238444*
X328995Y238600*
X329223*
X329564Y238444*
X329791Y237975*
X329905Y237194*
Y236725*
X329791Y235944*
X329564Y235475*
X329223Y235319*
X328995*
X323427Y250319D02*
X324677D01*
X323995Y251569*
X324336*
X324564Y251725*
X324677Y251881*
X324791Y252350*
Y252662*
X324791D02*
X324677Y253131D01*
X324450Y253444*
X324109Y253600*
X323768*
X323427Y253444*
X323314Y253287*
X323314D02*
X323200Y252975D01*
X327291Y251412D02*
X327177Y251881D01*
X326950Y252194*
X326609Y252350*
X326495*
X326155Y252194*
X325927Y251881*
X325814Y251412*
X325814D02*
Y251256D01*
X325927Y250787*
X325927D02*
X326155Y250475D01*
X326495Y250319*
X326609*
X326950Y250475*
X327177Y250787*
X327177D02*
X327291Y251412D01*
X327291D02*
Y252194D01*
X327177Y252975*
X326950Y253444*
X326609Y253600*
X326382*
X326041Y253444*
X325927Y253131*
X328995Y250319D02*
X328655Y250475D01*
X328427Y250944*
X328314Y251725*
Y252194*
X328427Y252975*
X328655Y253444*
X328995Y253600*
X329223*
X329564Y253444*
X329791Y252975*
X329905Y252194*
Y251725*
X329791Y250944*
X329564Y250475*
X329223Y250319*
X328995*
X323427Y260519D02*
X324677D01*
X323995Y261769*
X324336*
X324564Y261925*
X324677Y262081*
X324791Y262550*
Y262862*
X324791D02*
X324677Y263331D01*
X324450Y263644*
X324109Y263800*
X323768*
X323427Y263644*
X323314Y263487*
X323314D02*
X323200Y263175D01*
X327291Y261612D02*
X327177Y262081D01*
X326950Y262394*
X326609Y262550*
X326495*
X326155Y262394*
X325927Y262081*
X325814Y261612*
X325814D02*
Y261456D01*
X325927Y260987*
X325927D02*
X326155Y260675D01*
X326495Y260519*
X326609*
X326950Y260675*
X327177Y260987*
X327177D02*
X327291Y261612D01*
X327291D02*
Y262394D01*
X327177Y263175*
X326950Y263644*
X326609Y263800*
X326382*
X326041Y263644*
X325927Y263331*
X328995Y260519D02*
X328655Y260675D01*
X328427Y261144*
X328314Y261925*
Y262394*
X328427Y263175*
X328655Y263644*
X328995Y263800*
X329223*
X329564Y263644*
X329791Y263175*
X329905Y262394*
Y261925*
X329791Y261144*
X329564Y260675*
X329223Y260519*
X328995*
X324077Y225119D02*
X322941D01*
X322827Y226525*
X322941Y226369*
X323282Y226212*
X323282D02*
X323623D01*
X323623D02*
X323964Y226369D01*
X324191Y226681*
X324305Y227150*
X324191Y227462*
X324191D02*
X324077Y227931D01*
X323850Y228244*
X323509Y228400*
X323168*
X322827Y228244*
X322714Y228087*
X322714D02*
X322600Y227775D01*
X326009Y225119D02*
X325668Y225275D01*
X325441Y225744*
X325327Y226525*
Y226994*
X325441Y227775*
X325668Y228244*
X326009Y228400*
X326236*
X326577Y228244*
X326805Y227775*
X326918Y226994*
Y226525*
X326805Y225744*
X326577Y225275*
X326236Y225119*
X326009*
X328623D02*
X328282Y225275D01*
X328055Y225744*
X327941Y226525*
Y226994*
X328055Y227775*
X328282Y228244*
X328623Y228400*
X328850*
X329191Y228244*
X329418Y227775*
X329532Y226994*
Y226525*
X329418Y225744*
X329191Y225275*
X328850Y225119*
X328623*
X317427Y201719D02*
X318677D01*
X317995Y202969*
X318336*
X318564Y203125*
X318677Y203281*
X318791Y203750*
Y204062*
X318791D02*
X318677Y204531D01*
X318450Y204844*
X318109Y205000*
X317768*
X317427Y204844*
X317314Y204687*
X317314D02*
X317200Y204375D01*
X321291Y202812D02*
X321177Y203281D01*
X320950Y203594*
X320609Y203750*
X320495*
X320155Y203594*
X319927Y203281*
X319814Y202812*
X319814D02*
Y202656D01*
X319927Y202187*
X319927D02*
X320155Y201875D01*
X320495Y201719*
X320609*
X320950Y201875*
X321177Y202187*
X321177D02*
X321291Y202812D01*
X321291D02*
Y203594D01*
X321177Y204375*
X320950Y204844*
X320609Y205000*
X320382*
X320041Y204844*
X319927Y204531*
X322995Y201719D02*
X322655Y201875D01*
X322427Y202344*
X322314Y203125*
Y203594*
X322427Y204375*
X322655Y204844*
X322995Y205000*
X323223*
X323564Y204844*
X323791Y204375*
X323905Y203594*
Y203125*
X323791Y202344*
X323564Y201875*
X323223Y201719*
X322995*
X322827Y211319D02*
X324077D01*
X323395Y212569*
X323736*
X323964Y212725*
X324077Y212881*
X324191Y213350*
Y213662*
X324191D02*
X324077Y214131D01*
X323850Y214444*
X323509Y214600*
X323168*
X322827Y214444*
X322714Y214287*
X322714D02*
X322600Y213975D01*
X326691Y212412D02*
X326577Y212881D01*
X326350Y213194*
X326009Y213350*
X325895*
X325555Y213194*
X325327Y212881*
X325214Y212412*
X325214D02*
Y212256D01*
X325327Y211787*
X325327D02*
X325555Y211475D01*
X325895Y211319*
X326009*
X326350Y211475*
X326577Y211787*
X326577D02*
X326691Y212412D01*
X326691D02*
Y213194D01*
X326577Y213975*
X326350Y214444*
X326009Y214600*
X325782*
X325441Y214444*
X325327Y214131*
X328395Y211319D02*
X328055Y211475D01*
X327827Y211944*
X327714Y212725*
Y213194*
X327827Y213975*
X328055Y214444*
X328395Y214600*
X328623*
X328964Y214444*
X329191Y213975*
X329305Y213194*
Y212725*
X329191Y211944*
X328964Y211475*
X328623Y211319*
X328395*
X317427Y191519D02*
X318677D01*
X317995Y192769*
X318336*
X318564Y192925*
X318677Y193081*
X318791Y193550*
Y193862*
X318791D02*
X318677Y194331D01*
X318450Y194644*
X318109Y194800*
X317768*
X317427Y194644*
X317314Y194487*
X317314D02*
X317200Y194175D01*
X321291Y192612D02*
X321177Y193081D01*
X320950Y193394*
X320609Y193550*
X320495*
X320155Y193394*
X319927Y193081*
X319814Y192612*
X319814D02*
Y192456D01*
X319927Y191987*
X319927D02*
X320155Y191675D01*
X320495Y191519*
X320609*
X320950Y191675*
X321177Y191987*
X321177D02*
X321291Y192612D01*
X321291D02*
Y193394D01*
X321177Y194175*
X320950Y194644*
X320609Y194800*
X320382*
X320041Y194644*
X319927Y194331*
X322995Y191519D02*
X322655Y191675D01*
X322427Y192144*
X322314Y192925*
Y193394*
X322427Y194175*
X322655Y194644*
X322995Y194800*
X323223*
X323564Y194644*
X323791Y194175*
X323905Y193394*
Y192925*
X323791Y192144*
X323564Y191675*
X323223Y191519*
X322995*
G54D33*
X187496Y189039D02*
X184465D01*
X179504Y188961D02*
X182535D01*
X192496Y189039D02*
X189465D01*
X273961Y325496D02*
Y322465D01*
X315039Y288504D02*
Y291535D01*
X314961Y277496D02*
Y274465D01*
X315039Y282504D02*
Y285535D01*
X206496Y123039D02*
X203465D01*
X214496D02*
X211465D01*
X229496D02*
X226465D01*
X237496D02*
X234465D01*
X279496D02*
X276465D01*
X287496D02*
X284465D01*
X316961Y149496D02*
Y146465D01*
Y157496D02*
Y154465D01*
X330039Y231504D02*
Y234535D01*
Y246504D02*
Y249535D01*
Y256504D02*
Y259535D01*
Y221504D02*
Y224535D01*
Y197504D02*
Y200535D01*
Y207504D02*
Y210535D01*
Y187504D02*
Y190535D01*
X0Y0D02*
M02*
