%
T1C.015F0S0
X011904Y010876
X012611Y011583
X0129Y01215
X013318Y010876
X0157Y0131
X025339Y011583
X025339Y012997
X026046Y010876
X028875Y010876
X033104Y010876
X033811Y011583
X0341Y01215
X034518Y010876
X0369Y0131
X046539Y011583
X046539Y012997
X047246Y010876
X050075Y010876
X05035Y01545
X050075Y013704
X04905Y01545
X045832Y015118
X044418Y015118
X042297Y015825
X040175Y015118
X039468Y015825
X038761Y015118
X03664Y015825
X0365Y014
X035933Y015118
X035225Y015825
X0352Y014
X034518Y015118
X033811Y015825
X02915Y01545
X028875Y013704
X02785Y01545
X024632Y015118
X023218Y015118
X021097Y015825
X018975Y015118
X018268Y015825
X017561Y015118
X01544Y015825
X0153Y014
X014733Y015118
X014025Y015825
X014Y014
X013318Y015118
X012611Y015825
X011197Y017239
X011904Y016532
X011904Y017947
X012611Y017239
X013318Y016532
X014025Y017239
X014733Y016532
X01544Y017239
X016147Y016532
X016854Y017239
X017561Y016532
X019682Y017239
X021097Y017239
X0249Y0165
X026046Y017947
X027461Y016532
X027461Y017947
X028168Y017239
X028875Y017947
X032397Y017239
X033104Y016532
X033104Y017947
X033811Y017239
X034518Y016532
X035225Y017239
X035933Y016532
X03664Y017239
X037347Y016532
X038054Y017239
X038761Y016532
X040882Y017239
X042297Y017239
X0461Y0165
X047246Y017947
X048661Y016532
X048661Y017947
X049368Y017239
X050075Y017947
X04868Y02006
X046539Y018654
X045832Y019361
X04563Y02057
X045125Y020068
X044418Y020775
X043004Y019361
X042297Y020068
X0416Y01945
X0416Y01995
X0416Y01895
X041589Y020775
X0411Y01995
X0411Y01945
X0411Y01895
X040175Y019361
X03825Y01945
X03664Y020068
X0361Y0208
X032397Y020068
X02748Y02006
X025339Y018654
X024632Y019361
X02443Y02057
X023925Y020068
X023218Y020775
X021804Y019361
X021097Y020068
X0204Y01895
X0204Y01995
X0204Y01945
X020389Y020775
X0199Y01995
X0199Y01895
X0199Y01945
X018975Y019361
X01705Y01945
X01544Y020068
X0149Y0208
X011197Y020068
X011197Y022896
X0123Y0212
X0147Y023
X0148Y02155
X01775Y0213
X0215Y0224
X0219Y02325
X022511Y022896
X024632Y022189
X02638Y0226
X027461Y022189
X028168Y021482
X028875Y022189
X032397Y022896
X0335Y0212
X0359Y023
X036Y02155
X03895Y0213
X0427Y0224
X0431Y02325
X043711Y022896
X045832Y022189
X04758Y0226
X048661Y022189
X049368Y021482
X050075Y022189
X049368Y025725
X0485Y0237
X046539Y025725
X04525Y02375
X0444Y0244
X04305Y02445
X04195Y02355
X0419Y02455
X0418Y02408
X04115Y0246
X04115Y025
X038761Y025018
X038054Y025725
X034518Y025018
X033811Y024311
X033104Y023603
X028168Y025725
X0273Y0237
X025339Y025725
X02405Y02375
X0232Y0244
X02185Y02445
X02075Y02355
X0207Y02455
X0206Y02408
X01995Y025
X01995Y0246
X017561Y025018
X016854Y025725
X013318Y025018
X012611Y024311
X011904Y023603
X011197Y027139
X014025Y027139
X017561Y026432
X018268Y027139
X018975Y026432
X019682Y027139
X020389Y026432
X020389Y027846
X021097Y027139
X021804Y026432
X021804Y027846
X022511Y027139
X023218Y026432
X023218Y027846
X028168Y027139
X028875Y026432
X032397Y027139
X035225Y027139
X038761Y026432
X039468Y027139
X040175Y026432
X040882Y027139
X041589Y026432
X041589Y027846
X042297Y027139
X043004Y026432
X043004Y027846
X043711Y027139
X044418Y026432
X044418Y027846
X049368Y027139
X050075Y026432
X050075Y02926
X049368Y028553
X049368Y029967
X048661Y02926
X047953Y028553
X047246Y030674
X046539Y029967
X045125Y028553
X044418Y02926
X043711Y028553
X043711Y029967
X0427Y0288
X0427Y0298
X0427Y0293
X0422Y0288
X0422Y0298
X0422Y0293
X041589Y02926
X041589Y030674
X04115Y02995
X040882Y028553
X0393Y0293
X035225Y028553
X034518Y02926
X03381Y02856
X03255Y03015
X032397Y028553
X028875Y02926
X028168Y029967
X028168Y028553
X027461Y02926
X026753Y028553
X026046Y030674
X025339Y029967
X023925Y028553
X023218Y02926
X022511Y029967
X022511Y028553
X0215Y0298
X0215Y0293
X0215Y0288
X021Y0293
X021Y0298
X021Y0288
X020389Y030674
X020389Y02926
X01995Y02995
X019682Y028553
X0181Y0293
X014025Y028553
X013318Y02926
X01261Y02856
X01135Y03015
X011197Y028553
X011197Y032796
X014025Y032796
X0168Y0328
X0168Y03225
X0181Y0311
X0188Y0321
X0259Y0316
X026753Y031382
X026753Y032796
X027461Y032089
X028168Y031382
X028168Y032796
X028875Y032089
X032397Y032796
X035225Y032796
X038Y0328
X038Y03225
X0393Y0311
X04Y0321
X0471Y0316
X047953Y031382
X047953Y032796
X048661Y032089
X049368Y031382
X049368Y032796
X050075Y032089
X050075Y033503
X050075Y034917
X049368Y03421
X049368Y035624
X048661Y033503
X048661Y034917
X047953Y03421
X047953Y035624
X047246Y034917
X047246Y033503
X045125Y035624
X043004Y034917
X043004Y033503
X042297Y03421
X0393Y03465
X038Y0356
X033104Y033503
X03237Y03423
X028875Y034917
X028875Y033503
X028168Y03421
X028168Y035624
X027461Y034917
X027461Y033503
X026753Y035624
X026753Y03421
X026046Y033503
X026046Y034917
X023925Y035624
X021804Y033503
X021804Y034917
X021097Y03421
X0181Y03465
X0168Y0356
X011904Y033503
X01117Y03423
X0198Y0364
X0198Y0369
X0198Y0374
X0206Y0377
X021804Y037746
X024632Y036331
X026046Y036331
X028875Y036331
X028875Y037746
X041Y0364
X041Y0369
X041Y0374
X0418Y0377
X043004Y037746
X045832Y036331
X047246Y036331
X050075Y036331
X050075Y037746
X050075Y03916
X050075Y040574
X049368Y039867
X048661Y040574
X047953Y039867
X047246Y040574
X043004Y040574
X042297Y039867
X041589Y03916
X041589Y040574
X040882Y039867
X040175Y040574
X0393Y03885
X03885Y0393
X028875Y03916
X028875Y040574
X028168Y039867
X027461Y040574
X026753Y039867
X026046Y040574
X021804Y040574
X021097Y039867
X020389Y040574
X020389Y03916
X019682Y039867
X018975Y040574
X0181Y03885
X01765Y0393
X01395Y0416
X0163Y0411
X018268Y041281
X018268Y042695
X019682Y041281
X021097Y041281
X024632Y041988
X025339Y041281
X025339Y042695
X026753Y042695
X028168Y042695
X028875Y041988
X03515Y0416
X0375Y0411
X039468Y041281
X039468Y042695
X040882Y041281
X042297Y041281
X045832Y041988
X046539Y041281
X046539Y042695
X047953Y042695
X049368Y042695
X050075Y041988
X048661Y043402
X045832Y043402
X038761Y043402
X0366Y04435
X034518Y043402
X027461Y043402
X024632Y043402
X017561Y043402
X0154Y04435
X013318Y043402
T2C.01969F0S0
X027308Y027813
X028292Y027813
X048508Y027813
X049492Y027813
T3C.02362F0S0
X0166Y014408
X0166Y015392
X02Y014908
X02Y015892
X0238Y018208
X0378Y014408
X0378Y015392
X0412Y015892
X0412Y014908
X045Y018208
X045Y019192
X0238Y019192
T4C.028F0S0
X0189Y0121
X0401Y0121
T5C.0315F0S0
X0268Y0123
X027587Y0123
X028375Y0123
X048Y0123
X048787Y0123
X049575Y0123
X049684Y0188
X047716Y0188
X03535Y026
X034562Y026
X033775Y026
X032987Y026
X0322Y026
X028484Y0188
X026516Y0188
X01415Y026
X013362Y026
X012575Y026
X011787Y026
X011Y026
T6C.035F0S0
X020092Y042516
X021116Y042516
X0221Y042516
X041292Y042516
X042316Y042516
X0433Y042516
X0433Y0435
X042316Y0435
X041292Y0435
X0221Y0435
X021116Y0435
X020092Y0435
T7C.03543F0S0
X010916Y0191
X0119Y0191
X012884Y0191
X032116Y0191
X0331Y0191
X034084Y0191
T8C.037F0S0
X0118Y0144
X0128Y0144
X0293Y0167
X033Y0144
X034Y0144
X0505Y0167
X0476Y0262
X036Y0191
X0264Y0262
X0148Y0191
X0121Y0308
X0126Y0318
X0131Y0308
X0136Y0318
X0216Y0321
X024Y0297
X0333Y0308
X0338Y0318
X0343Y0308
X0348Y0318
X0428Y0321
X0452Y0297
X049Y038
X049Y037
X0454Y0345
X0444Y0345
X0319Y0379
X0319Y0369
X0319Y0359
X0278Y038
X0278Y037
X0242Y0345
X0232Y0345
X0107Y0359
X0107Y0379
X0107Y0369
X0107Y0389
X0253Y0403
X0278Y039
X0319Y0389
X0465Y0403
X049Y039
T9C.03937F0S0
X026314Y04162
X028086Y04162
X047514Y04162
X049286Y04162
X049286Y04418
X047514Y04418
X028086Y04418
X026314Y04418
T10C.055F0S0
X0179Y0111
X0179Y0131
X0199Y0131
X0199Y0111
X0391Y0111
X0391Y0131
X0411Y0131
X0411Y0111
T11C.071F0S0
X02215Y0143
X02215Y01647
X0238Y01647
X0238Y0143
X04335Y0143
X04335Y01647
X045Y01647
X045Y0143
T12C.118F0S0
X02297Y01143
X04417Y01143
M30
