*
*
G04 PADS 9.3.1 Build Number: 456998 generated Gerber (RS-274-X) file*
G04 PC Version=2.1*
*
%IN "tripod.pcb"*%
*
%MOIN*%
*
%FSLAX35Y35*%
*
*
*
*
G04 PC Standard Apertures*
*
*
G04 Thermal Relief Aperture macro.*
%AMTER*
1,1,$1,0,0*
1,0,$1-$2,0,0*
21,0,$3,$4,0,0,45*
21,0,$3,$4,0,0,135*
%
*
*
G04 Annular Aperture macro.*
%AMANN*
1,1,$1,0,0*
1,0,$2,0,0*
%
*
*
G04 Odd Aperture macro.*
%AMODD*
1,1,$1,0,0*
1,0,$1-0.005,0,0*
%
*
*
G04 PC Custom Aperture Macros*
*
*
*
*
*
*
G04 PC Aperture Table*
*
%ADD010C,0.001*%
%ADD019C,0.014*%
%ADD021C,0.06906*%
%ADD022C,0.07*%
%ADD023C,0.02*%
%ADD024C,0.075*%
%ADD026C,0.06*%
%ADD027C,0.096*%
%ADD028C,0.04937*%
%ADD030C,0.105*%
%ADD031C,0.15*%
%ADD034C,0.08087*%
%ADD079C,0.06512*%
*
*
*
*
G04 PC Circuitry*
G04 Layer Name tripod.pcb - circuitry*
%LPD*%
*
*
G04 PC Custom Flashes*
G04 Layer Name tripod.pcb - flashes*
%LPD*%
*
*
G04 PC Circuitry*
G04 Layer Name tripod.pcb - circuitry*
%LPD*%
*
G54D10*
G54D19*
G01X108700Y252800D02*
X111300D01*
Y249400*
X108700*
Y252800*
Y249800D02*
X111300D01*
X108700Y251200D02*
X111300D01*
X108700Y252600D02*
X111300D01*
X109800Y249400D02*
Y252800D01*
X111200Y249400D02*
Y252800D01*
X108700Y246600D02*
X111300D01*
Y243200*
X108700*
Y246600*
Y244200D02*
X111300D01*
X108700Y245600D02*
X111300D01*
X109800Y243200D02*
Y246600D01*
X111200Y243200D02*
Y246600D01*
X119300Y243200D02*
X116700D01*
Y246600*
X119300*
Y243200*
X116700Y244200D02*
X119300D01*
X116700Y245600D02*
X119300D01*
X116800Y243200D02*
Y246600D01*
X118200Y243200D02*
Y246600D01*
X119300Y249400D02*
X116700D01*
Y252800*
X119300*
Y249400*
X116700Y249800D02*
X119300D01*
X116700Y251200D02*
X119300D01*
X116700Y252600D02*
X119300D01*
X116800Y249400D02*
Y252800D01*
X118200Y249400D02*
Y252800D01*
X113800Y309300D02*
Y306700D01*
X110400*
Y309300*
X113800*
X110400Y307200D02*
X113800D01*
X110400Y308600D02*
X113800D01*
X111200Y306700D02*
Y309300D01*
X112600Y306700D02*
Y309300D01*
X107600D02*
Y306700D01*
X104200*
Y309300*
X107600*
X104200Y307200D02*
X107600D01*
X104200Y308600D02*
X107600D01*
X104200Y306700D02*
Y309300D01*
X105600Y306700D02*
Y309300D01*
X107000Y306700D02*
Y309300D01*
X143200Y316700D02*
Y319300D01*
X146600*
Y316700*
X143200*
Y317000D02*
X146600D01*
X143200Y318400D02*
X146600D01*
X143400Y316700D02*
Y319300D01*
X144800Y316700D02*
Y319300D01*
X146200Y316700D02*
Y319300D01*
X149400Y316700D02*
Y319300D01*
X152800*
Y316700*
X149400*
Y317000D02*
X152800D01*
X149400Y318400D02*
X152800D01*
X150400Y316700D02*
Y319300D01*
X151800Y316700D02*
Y319300D01*
X138200Y306700D02*
Y309300D01*
X141600*
Y306700*
X138200*
Y307200D02*
X141600D01*
X138200Y308600D02*
X141600D01*
X139200Y306700D02*
Y309300D01*
X140600Y306700D02*
Y309300D01*
X144400Y306700D02*
Y309300D01*
X147800*
Y306700*
X144400*
Y307200D02*
X147800D01*
X144400Y308600D02*
X147800D01*
X144800Y306700D02*
Y309300D01*
X146200Y306700D02*
Y309300D01*
X147600Y306700D02*
Y309300D01*
X118800Y319300D02*
Y316700D01*
X115400*
Y319300*
X118800*
X115400Y317000D02*
X118800D01*
X115400Y318400D02*
X118800D01*
X115400Y316700D02*
Y319300D01*
X116800Y316700D02*
Y319300D01*
X118200Y316700D02*
Y319300D01*
X112600D02*
Y316700D01*
X109200*
Y319300*
X112600*
X109200Y317000D02*
X112600D01*
X109200Y318400D02*
X112600D01*
X109800Y316700D02*
Y319300D01*
X111200Y316700D02*
Y319300D01*
X112600Y316700D02*
Y319300D01*
X228200Y409700D02*
Y412300D01*
X231600*
Y409700*
X228200*
Y410800D02*
X231600D01*
X228200Y412200D02*
X231600D01*
X228800Y409700D02*
Y412300D01*
X230200Y409700D02*
Y412300D01*
X231600Y409700D02*
Y412300D01*
X234400Y409700D02*
Y412300D01*
X237800*
Y409700*
X234400*
Y410800D02*
X237800D01*
X234400Y412200D02*
X237800D01*
X234400Y409700D02*
Y412300D01*
X235800Y409700D02*
Y412300D01*
X237200Y409700D02*
Y412300D01*
X228200Y416700D02*
Y419300D01*
X231600*
Y416700*
X228200*
Y417800D02*
X231600D01*
X228200Y419200D02*
X231600D01*
X228800Y416700D02*
Y419300D01*
X230200Y416700D02*
Y419300D01*
X231600Y416700D02*
Y419300D01*
X234400Y416700D02*
Y419300D01*
X237800*
Y416700*
X234400*
Y417800D02*
X237800D01*
X234400Y419200D02*
X237800D01*
X234400Y416700D02*
Y419300D01*
X235800Y416700D02*
Y419300D01*
X237200Y416700D02*
Y419300D01*
X184200Y440700D02*
Y443300D01*
X187600*
Y440700*
X184200*
Y441600D02*
X187600D01*
X184200Y443000D02*
X187600D01*
X185400Y440700D02*
Y443300D01*
X186800Y440700D02*
Y443300D01*
X190400Y440700D02*
Y443300D01*
X193800*
Y440700*
X190400*
Y441600D02*
X193800D01*
X190400Y443000D02*
X193800D01*
X191000Y440700D02*
Y443300D01*
X192400Y440700D02*
Y443300D01*
X193800Y440700D02*
Y443300D01*
X237800Y436300D02*
Y433700D01*
X234400*
Y436300*
X237800*
X234400Y434600D02*
X237800D01*
X234400Y436000D02*
X237800D01*
X234400Y433700D02*
Y436300D01*
X235800Y433700D02*
Y436300D01*
X237200Y433700D02*
Y436300D01*
X231600D02*
Y433700D01*
X228200*
Y436300*
X231600*
X228200Y434600D02*
X231600D01*
X228200Y436000D02*
X231600D01*
X228800Y433700D02*
Y436300D01*
X230200Y433700D02*
Y436300D01*
X231600Y433700D02*
Y436300D01*
X228200Y423700D02*
Y426300D01*
X231600*
Y423700*
X228200*
Y424800D02*
X231600D01*
X228200Y426200D02*
X231600D01*
X228800Y423700D02*
Y426300D01*
X230200Y423700D02*
Y426300D01*
X231600Y423700D02*
Y426300D01*
X234400Y423700D02*
Y426300D01*
X237800*
Y423700*
X234400*
Y424800D02*
X237800D01*
X234400Y426200D02*
X237800D01*
X234400Y423700D02*
Y426300D01*
X235800Y423700D02*
Y426300D01*
X237200Y423700D02*
Y426300D01*
X228200Y440700D02*
Y443300D01*
X231600*
Y440700*
X228200*
Y441600D02*
X231600D01*
X228200Y443000D02*
X231600D01*
X228800Y440700D02*
Y443300D01*
X230200Y440700D02*
Y443300D01*
X231600Y440700D02*
Y443300D01*
X234400Y440700D02*
Y443300D01*
X237800*
Y440700*
X234400*
Y441600D02*
X237800D01*
X234400Y443000D02*
X237800D01*
X234400Y440700D02*
Y443300D01*
X235800Y440700D02*
Y443300D01*
X237200Y440700D02*
Y443300D01*
X193800Y436300D02*
Y433700D01*
X190400*
Y436300*
X193800*
X190400Y434600D02*
X193800D01*
X190400Y436000D02*
X193800D01*
X191000Y433700D02*
Y436300D01*
X192400Y433700D02*
Y436300D01*
X193800Y433700D02*
Y436300D01*
X187600D02*
Y433700D01*
X184200*
Y436300*
X187600*
X184200Y434600D02*
X187600D01*
X184200Y436000D02*
X187600D01*
X185400Y433700D02*
Y436300D01*
X186800Y433700D02*
Y436300D01*
X270800Y371300D02*
Y368700D01*
X267400*
Y371300*
X270800*
X267400Y368800D02*
X270800D01*
X267400Y370200D02*
X270800D01*
X268000Y368700D02*
Y371300D01*
X269400Y368700D02*
Y371300D01*
X270800Y368700D02*
Y371300D01*
X264600D02*
Y368700D01*
X261200*
Y371300*
X264600*
X261200Y368800D02*
X264600D01*
X261200Y370200D02*
X264600D01*
X262400Y368700D02*
Y371300D01*
X263800Y368700D02*
Y371300D01*
X251700Y395800D02*
X254300D01*
Y392400*
X251700*
Y395800*
Y392600D02*
X254300D01*
X251700Y394000D02*
X254300D01*
X251700Y395400D02*
X254300D01*
X252600Y392400D02*
Y395800D01*
X254000Y392400D02*
Y395800D01*
X251700Y389600D02*
X254300D01*
Y386200*
X251700*
Y389600*
Y387000D02*
X254300D01*
X251700Y388400D02*
X254300D01*
X252600Y386200D02*
Y389600D01*
X254000Y386200D02*
Y389600D01*
X270800Y381300D02*
Y378700D01*
X267400*
Y381300*
X270800*
X267400Y380000D02*
X270800D01*
X268000Y378700D02*
Y381300D01*
X269400Y378700D02*
Y381300D01*
X270800Y378700D02*
Y381300D01*
X264600D02*
Y378700D01*
X261200*
Y381300*
X264600*
X261200Y380000D02*
X264600D01*
X262400Y378700D02*
Y381300D01*
X263800Y378700D02*
Y381300D01*
X270800Y391300D02*
Y388700D01*
X267400*
Y391300*
X270800*
X267400Y389800D02*
X270800D01*
X267400Y391200D02*
X270800D01*
X268000Y388700D02*
Y391300D01*
X269400Y388700D02*
Y391300D01*
X270800Y388700D02*
Y391300D01*
X264600D02*
Y388700D01*
X261200*
Y391300*
X264600*
X261200Y389800D02*
X264600D01*
X261200Y391200D02*
X264600D01*
X262400Y388700D02*
Y391300D01*
X263800Y388700D02*
Y391300D01*
X243300Y328200D02*
X240700D01*
Y331600*
X243300*
Y328200*
X240700D02*
X243300D01*
X240700Y329600D02*
X243300D01*
X240700Y331000D02*
X243300D01*
X241400Y328200D02*
Y331600D01*
X242800Y328200D02*
Y331600D01*
X243300Y334400D02*
X240700D01*
Y337800*
X243300*
Y334400*
X240700Y335200D02*
X243300D01*
X240700Y336600D02*
X243300D01*
X241400Y334400D02*
Y337800D01*
X242800Y334400D02*
Y337800D01*
X233300Y328200D02*
X230700D01*
Y331600*
X233300*
Y328200*
X230700D02*
X233300D01*
X230700Y329600D02*
X233300D01*
X230700Y331000D02*
X233300D01*
X231600Y328200D02*
Y331600D01*
X233000Y328200D02*
Y331600D01*
X233300Y334400D02*
X230700D01*
Y337800*
X233300*
Y334400*
X230700Y335200D02*
X233300D01*
X230700Y336600D02*
X233300D01*
X231600Y334400D02*
Y337800D01*
X233000Y334400D02*
Y337800D01*
X223700D02*
X226300D01*
Y334400*
X223700*
Y337800*
Y335200D02*
X226300D01*
X223700Y336600D02*
X226300D01*
X224600Y334400D02*
Y337800D01*
X226000Y334400D02*
Y337800D01*
X223700Y331600D02*
X226300D01*
Y328200*
X223700*
Y331600*
Y328200D02*
X226300D01*
X223700Y329600D02*
X226300D01*
X223700Y331000D02*
X226300D01*
X224600Y328200D02*
Y331600D01*
X226000Y328200D02*
Y331600D01*
X247700Y337800D02*
X250300D01*
Y334400*
X247700*
Y337800*
Y335200D02*
X250300D01*
X247700Y336600D02*
X250300D01*
X248400Y334400D02*
Y337800D01*
X249800Y334400D02*
Y337800D01*
X247700Y331600D02*
X250300D01*
Y328200*
X247700*
Y331600*
Y328200D02*
X250300D01*
X247700Y329600D02*
X250300D01*
X247700Y331000D02*
X250300D01*
X248400Y328200D02*
Y331600D01*
X249800Y328200D02*
Y331600D01*
X241300Y304200D02*
X238700D01*
Y307600*
X241300*
Y304200*
X238700Y304400D02*
X241300D01*
X238700Y305800D02*
X241300D01*
X238700Y307200D02*
X241300D01*
X240000Y304200D02*
Y307600D01*
X241300Y310400D02*
X238700D01*
Y313800*
X241300*
Y310400*
X238700Y311400D02*
X241300D01*
X238700Y312800D02*
X241300D01*
X240000Y310400D02*
Y313800D01*
X223200Y319700D02*
Y322300D01*
X226600*
Y319700*
X223200*
Y319800D02*
X226600D01*
X223200Y321200D02*
X226600D01*
X223200Y319700D02*
Y322300D01*
X224600Y319700D02*
Y322300D01*
X226000Y319700D02*
Y322300D01*
X229400Y319700D02*
Y322300D01*
X232800*
Y319700*
X229400*
Y319800D02*
X232800D01*
X229400Y321200D02*
X232800D01*
X230200Y319700D02*
Y322300D01*
X231600Y319700D02*
Y322300D01*
X116700Y136800D02*
X119300D01*
Y133400*
X116700*
Y136800*
Y133600D02*
X119300D01*
X116700Y135000D02*
X119300D01*
X116700Y136400D02*
X119300D01*
X116800Y133400D02*
Y136800D01*
X118200Y133400D02*
Y136800D01*
X116700Y130600D02*
X119300D01*
Y127200*
X116700*
Y130600*
Y128000D02*
X119300D01*
X116700Y129400D02*
X119300D01*
X116800Y127200D02*
Y130600D01*
X118200Y127200D02*
Y130600D01*
X126700Y136800D02*
X129300D01*
Y133400*
X126700*
Y136800*
Y133600D02*
X129300D01*
X126700Y135000D02*
X129300D01*
X126700Y136400D02*
X129300D01*
X128000Y133400D02*
Y136800D01*
X126700Y130600D02*
X129300D01*
Y127200*
X126700*
Y130600*
Y128000D02*
X129300D01*
X126700Y129400D02*
X129300D01*
X128000Y127200D02*
Y130600D01*
X257200Y276700D02*
Y279300D01*
X260600*
Y276700*
X257200*
Y277800D02*
X260600D01*
X257200Y279200D02*
X260600D01*
X258200Y276700D02*
Y279300D01*
X259600Y276700D02*
Y279300D01*
X263400Y276700D02*
Y279300D01*
X266800*
Y276700*
X263400*
Y277800D02*
X266800D01*
X263400Y279200D02*
X266800D01*
X263800Y276700D02*
Y279300D01*
X265200Y276700D02*
Y279300D01*
X266600Y276700D02*
Y279300D01*
X274300Y262200D02*
X271700D01*
Y265600*
X274300*
Y262200*
X271700Y262400D02*
X274300D01*
X271700Y263800D02*
X274300D01*
X271700Y265200D02*
X274300D01*
X272200Y262200D02*
Y265600D01*
X273600Y262200D02*
Y265600D01*
X274300Y268400D02*
X271700D01*
Y271800*
X274300*
Y268400*
X271700Y269400D02*
X274300D01*
X271700Y270800D02*
X274300D01*
X272200Y268400D02*
Y271800D01*
X273600Y268400D02*
Y271800D01*
X257200Y269700D02*
Y272300D01*
X260600*
Y269700*
X257200*
Y270800D02*
X260600D01*
X257200Y272200D02*
X260600D01*
X258200Y269700D02*
Y272300D01*
X259600Y269700D02*
Y272300D01*
X263400Y269700D02*
Y272300D01*
X266800*
Y269700*
X263400*
Y270800D02*
X266800D01*
X263400Y272200D02*
X266800D01*
X263800Y269700D02*
Y272300D01*
X265200Y269700D02*
Y272300D01*
X266600Y269700D02*
Y272300D01*
X263200Y195700D02*
Y198300D01*
X266600*
Y195700*
X263200*
Y196600D02*
X266600D01*
X263200Y198000D02*
X266600D01*
X263800Y195700D02*
Y198300D01*
X265200Y195700D02*
Y198300D01*
X266600Y195700D02*
Y198300D01*
X269400Y195700D02*
Y198300D01*
X272800*
Y195700*
X269400*
Y196600D02*
X272800D01*
X269400Y198000D02*
X272800D01*
X269400Y195700D02*
Y198300D01*
X270800Y195700D02*
Y198300D01*
X272200Y195700D02*
Y198300D01*
X266700Y115800D02*
X269300D01*
Y112400*
X266700*
Y115800*
Y112600D02*
X269300D01*
X266700Y114000D02*
X269300D01*
X266700Y115400D02*
X269300D01*
X268000Y112400D02*
Y115800D01*
X266700Y109600D02*
X269300D01*
Y106200*
X266700*
Y109600*
Y107000D02*
X269300D01*
X266700Y108400D02*
X269300D01*
X268000Y106200D02*
Y109600D01*
X274700Y115800D02*
X277300D01*
Y112400*
X274700*
Y115800*
Y112600D02*
X277300D01*
X274700Y114000D02*
X277300D01*
X274700Y115400D02*
X277300D01*
X275000Y112400D02*
Y115800D01*
X276400Y112400D02*
Y115800D01*
X274700Y109600D02*
X277300D01*
Y106200*
X274700*
Y109600*
Y107000D02*
X277300D01*
X274700Y108400D02*
X277300D01*
X275000Y106200D02*
Y109600D01*
X276400Y106200D02*
Y109600D01*
X286800Y198300D02*
Y195700D01*
X283400*
Y198300*
X286800*
X283400Y196600D02*
X286800D01*
X283400Y198000D02*
X286800D01*
X283400Y195700D02*
Y198300D01*
X284800Y195700D02*
Y198300D01*
X286200Y195700D02*
Y198300D01*
X280600D02*
Y195700D01*
X277200*
Y198300*
X280600*
X277200Y196600D02*
X280600D01*
X277200Y198000D02*
X280600D01*
X277800Y195700D02*
Y198300D01*
X279200Y195700D02*
Y198300D01*
X280600Y195700D02*
Y198300D01*
X190300Y105200D02*
X187700D01*
Y108600*
X190300*
Y105200*
X187700Y105600D02*
X190300D01*
X187700Y107000D02*
X190300D01*
X187700Y108400D02*
X190300D01*
X188200Y105200D02*
Y108600D01*
X189600Y105200D02*
Y108600D01*
X190300Y111400D02*
X187700D01*
Y114800*
X190300*
Y111400*
X187700Y112600D02*
X190300D01*
X187700Y114000D02*
X190300D01*
X188200Y111400D02*
Y114800D01*
X189600Y111400D02*
Y114800D01*
X127700Y208300D02*
X130300D01*
Y204900*
X127700*
Y208300*
Y205000D02*
X130300D01*
X127700Y206400D02*
X130300D01*
X127700Y207800D02*
X130300D01*
X128000Y204900D02*
Y208300D01*
X129400Y204900D02*
Y208300D01*
X127700Y202100D02*
X130300D01*
Y198700*
X127700*
Y202100*
Y199400D02*
X130300D01*
X127700Y200800D02*
X130300D01*
X128000Y198700D02*
Y202100D01*
X129400Y198700D02*
Y202100D01*
X120700Y208300D02*
X123300D01*
Y204900*
X120700*
Y208300*
Y205000D02*
X123300D01*
X120700Y206400D02*
X123300D01*
X120700Y207800D02*
X123300D01*
X121000Y204900D02*
Y208300D01*
X122400Y204900D02*
Y208300D01*
X120700Y202100D02*
X123300D01*
Y198700*
X120700*
Y202100*
Y199400D02*
X123300D01*
X120700Y200800D02*
X123300D01*
X121000Y198700D02*
Y202100D01*
X122400Y198700D02*
Y202100D01*
X286800Y205300D02*
Y202700D01*
X283400*
Y205300*
X286800*
X283400Y203600D02*
X286800D01*
X283400Y205000D02*
X286800D01*
X283400Y202700D02*
Y205300D01*
X284800Y202700D02*
Y205300D01*
X286200Y202700D02*
Y205300D01*
X280600D02*
Y202700D01*
X277200*
Y205300*
X280600*
X277200Y203600D02*
X280600D01*
X277200Y205000D02*
X280600D01*
X277800Y202700D02*
Y205300D01*
X279200Y202700D02*
Y205300D01*
X280600Y202700D02*
Y205300D01*
X320700Y252800D02*
X323300D01*
Y249400*
X320700*
Y252800*
Y249800D02*
X323300D01*
X320700Y251200D02*
X323300D01*
X320700Y252600D02*
X323300D01*
X321200Y249400D02*
Y252800D01*
X322600Y249400D02*
Y252800D01*
X320700Y246600D02*
X323300D01*
Y243200*
X320700*
Y246600*
Y244200D02*
X323300D01*
X320700Y245600D02*
X323300D01*
X321200Y243200D02*
Y246600D01*
X322600Y243200D02*
Y246600D01*
X331300Y243200D02*
X328700D01*
Y246600*
X331300*
Y243200*
X328700Y244200D02*
X331300D01*
X328700Y245600D02*
X331300D01*
X329600Y243200D02*
Y246600D01*
X331000Y243200D02*
Y246600D01*
X331300Y249400D02*
X328700D01*
Y252800*
X331300*
Y249400*
X328700Y249800D02*
X331300D01*
X328700Y251200D02*
X331300D01*
X328700Y252600D02*
X331300D01*
X329600Y249400D02*
Y252800D01*
X331000Y249400D02*
Y252800D01*
X325800Y309300D02*
Y306700D01*
X322400*
Y309300*
X325800*
X322400Y307200D02*
X325800D01*
X322400Y308600D02*
X325800D01*
X322600Y306700D02*
Y309300D01*
X324000Y306700D02*
Y309300D01*
X325400Y306700D02*
Y309300D01*
X319600D02*
Y306700D01*
X316200*
Y309300*
X319600*
X316200Y307200D02*
X319600D01*
X316200Y308600D02*
X319600D01*
X317000Y306700D02*
Y309300D01*
X318400Y306700D02*
Y309300D01*
X355200Y316700D02*
Y319300D01*
X358600*
Y316700*
X355200*
Y317000D02*
X358600D01*
X355200Y318400D02*
X358600D01*
X356200Y316700D02*
Y319300D01*
X357600Y316700D02*
Y319300D01*
X361400Y316700D02*
Y319300D01*
X364800*
Y316700*
X361400*
Y317000D02*
X364800D01*
X361400Y318400D02*
X364800D01*
X361800Y316700D02*
Y319300D01*
X363200Y316700D02*
Y319300D01*
X364600Y316700D02*
Y319300D01*
X350200Y306700D02*
Y309300D01*
X353600*
Y306700*
X350200*
Y307200D02*
X353600D01*
X350200Y308600D02*
X353600D01*
X350600Y306700D02*
Y309300D01*
X352000Y306700D02*
Y309300D01*
X353400Y306700D02*
Y309300D01*
X356400Y306700D02*
Y309300D01*
X359800*
Y306700*
X356400*
Y307200D02*
X359800D01*
X356400Y308600D02*
X359800D01*
X357600Y306700D02*
Y309300D01*
X359000Y306700D02*
Y309300D01*
X330800Y319300D02*
Y316700D01*
X327400*
Y319300*
X330800*
X327400Y317000D02*
X330800D01*
X327400Y318400D02*
X330800D01*
X328200Y316700D02*
Y319300D01*
X329600Y316700D02*
Y319300D01*
X324600D02*
Y316700D01*
X321200*
Y319300*
X324600*
X321200Y317000D02*
X324600D01*
X321200Y318400D02*
X324600D01*
X321200Y316700D02*
Y319300D01*
X322600Y316700D02*
Y319300D01*
X324000Y316700D02*
Y319300D01*
X440200Y409700D02*
Y412300D01*
X443600*
Y409700*
X440200*
Y410800D02*
X443600D01*
X440200Y412200D02*
X443600D01*
X440200Y409700D02*
Y412300D01*
X441600Y409700D02*
Y412300D01*
X443000Y409700D02*
Y412300D01*
X446400Y409700D02*
Y412300D01*
X449800*
Y409700*
X446400*
Y410800D02*
X449800D01*
X446400Y412200D02*
X449800D01*
X447200Y409700D02*
Y412300D01*
X448600Y409700D02*
Y412300D01*
X440200Y416700D02*
Y419300D01*
X443600*
Y416700*
X440200*
Y417800D02*
X443600D01*
X440200Y419200D02*
X443600D01*
X440200Y416700D02*
Y419300D01*
X441600Y416700D02*
Y419300D01*
X443000Y416700D02*
Y419300D01*
X446400Y416700D02*
Y419300D01*
X449800*
Y416700*
X446400*
Y417800D02*
X449800D01*
X446400Y419200D02*
X449800D01*
X447200Y416700D02*
Y419300D01*
X448600Y416700D02*
Y419300D01*
X396200Y440700D02*
Y443300D01*
X399600*
Y440700*
X396200*
Y441600D02*
X399600D01*
X396200Y443000D02*
X399600D01*
X396800Y440700D02*
Y443300D01*
X398200Y440700D02*
Y443300D01*
X399600Y440700D02*
Y443300D01*
X402400Y440700D02*
Y443300D01*
X405800*
Y440700*
X402400*
Y441600D02*
X405800D01*
X402400Y443000D02*
X405800D01*
X402400Y440700D02*
Y443300D01*
X403800Y440700D02*
Y443300D01*
X405200Y440700D02*
Y443300D01*
X449800Y436300D02*
Y433700D01*
X446400*
Y436300*
X449800*
X446400Y434600D02*
X449800D01*
X446400Y436000D02*
X449800D01*
X447200Y433700D02*
Y436300D01*
X448600Y433700D02*
Y436300D01*
X443600D02*
Y433700D01*
X440200*
Y436300*
X443600*
X440200Y434600D02*
X443600D01*
X440200Y436000D02*
X443600D01*
X440200Y433700D02*
Y436300D01*
X441600Y433700D02*
Y436300D01*
X443000Y433700D02*
Y436300D01*
X440200Y423700D02*
Y426300D01*
X443600*
Y423700*
X440200*
Y424800D02*
X443600D01*
X440200Y426200D02*
X443600D01*
X440200Y423700D02*
Y426300D01*
X441600Y423700D02*
Y426300D01*
X443000Y423700D02*
Y426300D01*
X446400Y423700D02*
Y426300D01*
X449800*
Y423700*
X446400*
Y424800D02*
X449800D01*
X446400Y426200D02*
X449800D01*
X447200Y423700D02*
Y426300D01*
X448600Y423700D02*
Y426300D01*
X440200Y440700D02*
Y443300D01*
X443600*
Y440700*
X440200*
Y441600D02*
X443600D01*
X440200Y443000D02*
X443600D01*
X440200Y440700D02*
Y443300D01*
X441600Y440700D02*
Y443300D01*
X443000Y440700D02*
Y443300D01*
X446400Y440700D02*
Y443300D01*
X449800*
Y440700*
X446400*
Y441600D02*
X449800D01*
X446400Y443000D02*
X449800D01*
X447200Y440700D02*
Y443300D01*
X448600Y440700D02*
Y443300D01*
X405800Y436300D02*
Y433700D01*
X402400*
Y436300*
X405800*
X402400Y434600D02*
X405800D01*
X402400Y436000D02*
X405800D01*
X402400Y433700D02*
Y436300D01*
X403800Y433700D02*
Y436300D01*
X405200Y433700D02*
Y436300D01*
X399600D02*
Y433700D01*
X396200*
Y436300*
X399600*
X396200Y434600D02*
X399600D01*
X396200Y436000D02*
X399600D01*
X396800Y433700D02*
Y436300D01*
X398200Y433700D02*
Y436300D01*
X399600Y433700D02*
Y436300D01*
X482800Y371300D02*
Y368700D01*
X479400*
Y371300*
X482800*
X479400Y368800D02*
X482800D01*
X479400Y370200D02*
X482800D01*
X479400Y368700D02*
Y371300D01*
X480800Y368700D02*
Y371300D01*
X482200Y368700D02*
Y371300D01*
X476600D02*
Y368700D01*
X473200*
Y371300*
X476600*
X473200Y368800D02*
X476600D01*
X473200Y370200D02*
X476600D01*
X473800Y368700D02*
Y371300D01*
X475200Y368700D02*
Y371300D01*
X476600Y368700D02*
Y371300D01*
X463700Y395800D02*
X466300D01*
Y392400*
X463700*
Y395800*
Y392600D02*
X466300D01*
X463700Y394000D02*
X466300D01*
X463700Y395400D02*
X466300D01*
X464000Y392400D02*
Y395800D01*
X465400Y392400D02*
Y395800D01*
X463700Y389600D02*
X466300D01*
Y386200*
X463700*
Y389600*
Y387000D02*
X466300D01*
X463700Y388400D02*
X466300D01*
X464000Y386200D02*
Y389600D01*
X465400Y386200D02*
Y389600D01*
X482800Y381300D02*
Y378700D01*
X479400*
Y381300*
X482800*
X479400Y380000D02*
X482800D01*
X479400Y378700D02*
Y381300D01*
X480800Y378700D02*
Y381300D01*
X482200Y378700D02*
Y381300D01*
X476600D02*
Y378700D01*
X473200*
Y381300*
X476600*
X473200Y380000D02*
X476600D01*
X473800Y378700D02*
Y381300D01*
X475200Y378700D02*
Y381300D01*
X476600Y378700D02*
Y381300D01*
X482800Y391300D02*
Y388700D01*
X479400*
Y391300*
X482800*
X479400Y389800D02*
X482800D01*
X479400Y391200D02*
X482800D01*
X479400Y388700D02*
Y391300D01*
X480800Y388700D02*
Y391300D01*
X482200Y388700D02*
Y391300D01*
X476600D02*
Y388700D01*
X473200*
Y391300*
X476600*
X473200Y389800D02*
X476600D01*
X473200Y391200D02*
X476600D01*
X473800Y388700D02*
Y391300D01*
X475200Y388700D02*
Y391300D01*
X476600Y388700D02*
Y391300D01*
X455300Y328200D02*
X452700D01*
Y331600*
X455300*
Y328200*
X452700D02*
X455300D01*
X452700Y329600D02*
X455300D01*
X452700Y331000D02*
X455300D01*
X452800Y328200D02*
Y331600D01*
X454200Y328200D02*
Y331600D01*
X455300Y334400D02*
X452700D01*
Y337800*
X455300*
Y334400*
X452700Y335200D02*
X455300D01*
X452700Y336600D02*
X455300D01*
X452800Y334400D02*
Y337800D01*
X454200Y334400D02*
Y337800D01*
X445300Y328200D02*
X442700D01*
Y331600*
X445300*
Y328200*
X442700D02*
X445300D01*
X442700Y329600D02*
X445300D01*
X442700Y331000D02*
X445300D01*
X443000Y328200D02*
Y331600D01*
X444400Y328200D02*
Y331600D01*
X445300Y334400D02*
X442700D01*
Y337800*
X445300*
Y334400*
X442700Y335200D02*
X445300D01*
X442700Y336600D02*
X445300D01*
X443000Y334400D02*
Y337800D01*
X444400Y334400D02*
Y337800D01*
X435700D02*
X438300D01*
Y334400*
X435700*
Y337800*
Y335200D02*
X438300D01*
X435700Y336600D02*
X438300D01*
X436000Y334400D02*
Y337800D01*
X437400Y334400D02*
Y337800D01*
X435700Y331600D02*
X438300D01*
Y328200*
X435700*
Y331600*
Y328200D02*
X438300D01*
X435700Y329600D02*
X438300D01*
X435700Y331000D02*
X438300D01*
X436000Y328200D02*
Y331600D01*
X437400Y328200D02*
Y331600D01*
X459700Y337800D02*
X462300D01*
Y334400*
X459700*
Y337800*
Y335200D02*
X462300D01*
X459700Y336600D02*
X462300D01*
X459800Y334400D02*
Y337800D01*
X461200Y334400D02*
Y337800D01*
X459700Y331600D02*
X462300D01*
Y328200*
X459700*
Y331600*
Y328200D02*
X462300D01*
X459700Y329600D02*
X462300D01*
X459700Y331000D02*
X462300D01*
X459800Y328200D02*
Y331600D01*
X461200Y328200D02*
Y331600D01*
X453300Y304200D02*
X450700D01*
Y307600*
X453300*
Y304200*
X450700Y304400D02*
X453300D01*
X450700Y305800D02*
X453300D01*
X450700Y307200D02*
X453300D01*
X451400Y304200D02*
Y307600D01*
X452800Y304200D02*
Y307600D01*
X453300Y310400D02*
X450700D01*
Y313800*
X453300*
Y310400*
X450700Y311400D02*
X453300D01*
X450700Y312800D02*
X453300D01*
X451400Y310400D02*
Y313800D01*
X452800Y310400D02*
Y313800D01*
X435200Y319700D02*
Y322300D01*
X438600*
Y319700*
X435200*
Y319800D02*
X438600D01*
X435200Y321200D02*
X438600D01*
X436000Y319700D02*
Y322300D01*
X437400Y319700D02*
Y322300D01*
X441400Y319700D02*
Y322300D01*
X444800*
Y319700*
X441400*
Y319800D02*
X444800D01*
X441400Y321200D02*
X444800D01*
X441600Y319700D02*
Y322300D01*
X443000Y319700D02*
Y322300D01*
X444400Y319700D02*
Y322300D01*
X328700Y136800D02*
X331300D01*
Y133400*
X328700*
Y136800*
Y133600D02*
X331300D01*
X328700Y135000D02*
X331300D01*
X328700Y136400D02*
X331300D01*
X329600Y133400D02*
Y136800D01*
X331000Y133400D02*
Y136800D01*
X328700Y130600D02*
X331300D01*
Y127200*
X328700*
Y130600*
Y128000D02*
X331300D01*
X328700Y129400D02*
X331300D01*
X329600Y127200D02*
Y130600D01*
X331000Y127200D02*
Y130600D01*
X338700Y136800D02*
X341300D01*
Y133400*
X338700*
Y136800*
Y133600D02*
X341300D01*
X338700Y135000D02*
X341300D01*
X338700Y136400D02*
X341300D01*
X339400Y133400D02*
Y136800D01*
X340800Y133400D02*
Y136800D01*
X338700Y130600D02*
X341300D01*
Y127200*
X338700*
Y130600*
Y128000D02*
X341300D01*
X338700Y129400D02*
X341300D01*
X339400Y127200D02*
Y130600D01*
X340800Y127200D02*
Y130600D01*
X469200Y276700D02*
Y279300D01*
X472600*
Y276700*
X469200*
Y277800D02*
X472600D01*
X469200Y279200D02*
X472600D01*
X469600Y276700D02*
Y279300D01*
X471000Y276700D02*
Y279300D01*
X472400Y276700D02*
Y279300D01*
X475400Y276700D02*
Y279300D01*
X478800*
Y276700*
X475400*
Y277800D02*
X478800D01*
X475400Y279200D02*
X478800D01*
X476600Y276700D02*
Y279300D01*
X478000Y276700D02*
Y279300D01*
X486300Y262200D02*
X483700D01*
Y265600*
X486300*
Y262200*
X483700Y262400D02*
X486300D01*
X483700Y263800D02*
X486300D01*
X483700Y265200D02*
X486300D01*
X485000Y262200D02*
Y265600D01*
X486300Y268400D02*
X483700D01*
Y271800*
X486300*
Y268400*
X483700Y269400D02*
X486300D01*
X483700Y270800D02*
X486300D01*
X485000Y268400D02*
Y271800D01*
X469200Y269700D02*
Y272300D01*
X472600*
Y269700*
X469200*
Y270800D02*
X472600D01*
X469200Y272200D02*
X472600D01*
X469600Y269700D02*
Y272300D01*
X471000Y269700D02*
Y272300D01*
X472400Y269700D02*
Y272300D01*
X475400Y269700D02*
Y272300D01*
X478800*
Y269700*
X475400*
Y270800D02*
X478800D01*
X475400Y272200D02*
X478800D01*
X476600Y269700D02*
Y272300D01*
X478000Y269700D02*
Y272300D01*
X475200Y195700D02*
Y198300D01*
X478600*
Y195700*
X475200*
Y196600D02*
X478600D01*
X475200Y198000D02*
X478600D01*
X475200Y195700D02*
Y198300D01*
X476600Y195700D02*
Y198300D01*
X478000Y195700D02*
Y198300D01*
X481400Y195700D02*
Y198300D01*
X484800*
Y195700*
X481400*
Y196600D02*
X484800D01*
X481400Y198000D02*
X484800D01*
X482200Y195700D02*
Y198300D01*
X483600Y195700D02*
Y198300D01*
X478700Y115800D02*
X481300D01*
Y112400*
X478700*
Y115800*
Y112600D02*
X481300D01*
X478700Y114000D02*
X481300D01*
X478700Y115400D02*
X481300D01*
X479400Y112400D02*
Y115800D01*
X480800Y112400D02*
Y115800D01*
X478700Y109600D02*
X481300D01*
Y106200*
X478700*
Y109600*
Y107000D02*
X481300D01*
X478700Y108400D02*
X481300D01*
X479400Y106200D02*
Y109600D01*
X480800Y106200D02*
Y109600D01*
X486700Y115800D02*
X489300D01*
Y112400*
X486700*
Y115800*
Y112600D02*
X489300D01*
X486700Y114000D02*
X489300D01*
X486700Y115400D02*
X489300D01*
X487800Y112400D02*
Y115800D01*
X489200Y112400D02*
Y115800D01*
X486700Y109600D02*
X489300D01*
Y106200*
X486700*
Y109600*
Y107000D02*
X489300D01*
X486700Y108400D02*
X489300D01*
X487800Y106200D02*
Y109600D01*
X489200Y106200D02*
Y109600D01*
X498800Y198300D02*
Y195700D01*
X495400*
Y198300*
X498800*
X495400Y196600D02*
X498800D01*
X495400Y198000D02*
X498800D01*
X496200Y195700D02*
Y198300D01*
X497600Y195700D02*
Y198300D01*
X492600D02*
Y195700D01*
X489200*
Y198300*
X492600*
X489200Y196600D02*
X492600D01*
X489200Y198000D02*
X492600D01*
X489200Y195700D02*
Y198300D01*
X490600Y195700D02*
Y198300D01*
X492000Y195700D02*
Y198300D01*
X402300Y105200D02*
X399700D01*
Y108600*
X402300*
Y105200*
X399700Y105600D02*
X402300D01*
X399700Y107000D02*
X402300D01*
X399700Y108400D02*
X402300D01*
X401000Y105200D02*
Y108600D01*
X402300Y111400D02*
X399700D01*
Y114800*
X402300*
Y111400*
X399700Y112600D02*
X402300D01*
X399700Y114000D02*
X402300D01*
X401000Y111400D02*
Y114800D01*
X339700Y208300D02*
X342300D01*
Y204900*
X339700*
Y208300*
Y205000D02*
X342300D01*
X339700Y206400D02*
X342300D01*
X339700Y207800D02*
X342300D01*
X340800Y204900D02*
Y208300D01*
X342200Y204900D02*
Y208300D01*
X339700Y202100D02*
X342300D01*
Y198700*
X339700*
Y202100*
Y199400D02*
X342300D01*
X339700Y200800D02*
X342300D01*
X340800Y198700D02*
Y202100D01*
X342200Y198700D02*
Y202100D01*
X332700Y208300D02*
X335300D01*
Y204900*
X332700*
Y208300*
Y205000D02*
X335300D01*
X332700Y206400D02*
X335300D01*
X332700Y207800D02*
X335300D01*
X333800Y204900D02*
Y208300D01*
X335200Y204900D02*
Y208300D01*
X332700Y202100D02*
X335300D01*
Y198700*
X332700*
Y202100*
Y199400D02*
X335300D01*
X332700Y200800D02*
X335300D01*
X333800Y198700D02*
Y202100D01*
X335200Y198700D02*
Y202100D01*
X498800Y205300D02*
Y202700D01*
X495400*
Y205300*
X498800*
X495400Y203600D02*
X498800D01*
X495400Y205000D02*
X498800D01*
X496200Y202700D02*
Y205300D01*
X497600Y202700D02*
Y205300D01*
X492600D02*
Y202700D01*
X489200*
Y205300*
X492600*
X489200Y203600D02*
X492600D01*
X489200Y205000D02*
X492600D01*
X489200Y202700D02*
Y205300D01*
X490600Y202700D02*
Y205300D01*
X492000Y202700D02*
Y205300D01*
G54D21*
X110000Y260000D03*
X117874D03*
X125748D03*
X133622D03*
X141496D03*
X268000Y123000D03*
X275874D03*
X283748D03*
X265157Y188000D03*
X284843D03*
X322000Y260000D03*
X329874D03*
X337748D03*
X345622D03*
X353496D03*
X480000Y123000D03*
X487874D03*
X495748D03*
X477157Y188000D03*
X496843D03*
G54D22*
X131000Y308000D03*
X126000Y318000D03*
X121000Y308000D03*
X136000Y318000D03*
X278000Y370000D03*
X253000Y403000D03*
X278000Y380000D03*
Y390000D03*
X232000Y345000D03*
X242000D03*
X216000Y321000D03*
X240000Y297000D03*
X128000Y144000D03*
X118000D03*
X148000Y191000D03*
X293000Y167000D03*
X264000Y262000D03*
X107000Y379000D03*
Y369000D03*
Y359000D03*
Y389000D03*
X343000Y308000D03*
X338000Y318000D03*
X333000Y308000D03*
X348000Y318000D03*
X490000Y370000D03*
X465000Y403000D03*
X490000Y380000D03*
Y390000D03*
X444000Y345000D03*
X454000D03*
X428000Y321000D03*
X452000Y297000D03*
X340000Y144000D03*
X330000D03*
X360000Y191000D03*
X505000Y167000D03*
X476000Y262000D03*
X319000Y379000D03*
Y369000D03*
Y359000D03*
Y389000D03*
G54D23*
X218250Y432250D02*
Y437750D01*
X223750*
Y432250*
X218250*
Y434000D02*
X223750D01*
X218250Y436000D02*
X223750D01*
X220000Y432250D02*
Y437750D01*
X222000Y432250D02*
Y437750D01*
X430250Y432250D02*
Y437750D01*
X435750*
Y432250*
X430250*
Y434000D02*
X435750D01*
X430250Y436000D02*
X435750D01*
X432000Y432250D02*
Y437750D01*
X434000Y432250D02*
Y437750D01*
G54D24*
X221000Y425157D03*
X211157Y435000D03*
Y425157D03*
X200921Y435000D03*
Y425157D03*
X433000D03*
X423157Y435000D03*
Y425157D03*
X412921Y435000D03*
Y425157D03*
G54D26*
X189000Y121000D03*
X401000D03*
G54D27*
X199000Y131000D03*
Y111000D03*
X179000D03*
Y131000D03*
X411000D03*
Y111000D03*
X391000D03*
Y131000D03*
G54D28*
X273079Y278126D03*
X282921D03*
X485079D03*
X494921D03*
G54D30*
X238000Y143000D03*
X221500D03*
X238000Y164700D03*
X221500D03*
X450000Y143000D03*
X433500D03*
X450000Y164700D03*
X433500D03*
G54D31*
X229700Y114300D03*
X441700D03*
G54D34*
X109157Y191000D03*
X119000D03*
X128843D03*
X280858Y441795D03*
Y416205D03*
X263142Y441795D03*
Y416205D03*
X321157Y191000D03*
X331000D03*
X340843D03*
X492858Y441795D03*
Y416205D03*
X475142Y441795D03*
Y416205D03*
G54D79*
X166000Y144079D03*
Y153921D03*
X238000Y182079D03*
Y191921D03*
X200000Y158921D03*
Y149079D03*
X378000Y144079D03*
Y153921D03*
X450000Y182079D03*
Y191921D03*
X412000Y158921D03*
Y149079D03*
X0Y0D02*
M02*
