*
*
G04 PADS 9.3.1 Build Number: 456998 generated Gerber (RS-274-X) file*
G04 PC Version=2.1*
*
%IN "tripod.pcb"*%
*
%MOIN*%
*
%FSLAX35Y35*%
*
*
*
*
G04 PC Standard Apertures*
*
*
G04 Thermal Relief Aperture macro.*
%AMTER*
1,1,$1,0,0*
1,0,$1-$2,0,0*
21,0,$3,$4,0,0,45*
21,0,$3,$4,0,0,135*
%
*
*
G04 Annular Aperture macro.*
%AMANN*
1,1,$1,0,0*
1,0,$2,0,0*
%
*
*
G04 Odd Aperture macro.*
%AMODD*
1,1,$1,0,0*
1,0,$1-0.005,0,0*
%
*
*
G04 PC Custom Aperture Macros*
*
*
*
*
*
*
G04 PC Aperture Table*
*
%ADD010C,0.001*%
%ADD012C,0.01*%
%ADD018C,0.02575*%
%ADD019C,0.014*%
%ADD020C,0.018*%
%ADD021C,0.06906*%
%ADD022C,0.07*%
%ADD023C,0.02*%
%ADD024C,0.075*%
%ADD025C,0.016*%
%ADD026C,0.06*%
%ADD027C,0.096*%
%ADD028C,0.04937*%
%ADD029C,0.05724*%
%ADD030C,0.105*%
%ADD031C,0.15*%
%ADD032R,0.06118X0.06118*%
%ADD033R,0.06118X0.08874*%
%ADD034C,0.08087*%
%ADD035O,0.08677X0.02969*%
%ADD036O,0.02969X0.08677*%
%ADD037C,0.01787*%
%ADD038O,0.0789X0.0352*%
%ADD039R,0.10843X0.02575*%
%ADD040R,0.02575X0.10843*%
%ADD041R,0.0415X0.07575*%
%ADD042R,0.07575X0.0415*%
%ADD043R,0.03756X0.13205*%
%ADD044R,0.08087X0.02378*%
%ADD045O,0.06984X0.0285*%
%ADD046C,0.02181*%
*
*
*
*
G04 PC Circuitry*
G04 Layer Name tripod.pcb - circuitry*
%LPD*%
*
G54D10*
G01X295276Y313000D02*
X295190Y313684D01*
X294934Y314368*
X294505Y314968*
X294080Y315393*
X293486Y315647*
X292978Y315732*
X292391Y315648*
X291887Y315228*
X291549Y314636*
X291463Y313868*
X291550Y312574*
X291721Y311975*
X291885Y311646*
X292199Y311489*
X292417Y311561*
X292493Y311791*
Y311950*
X292234Y312988*
X292233Y313000*
Y314130*
X292236Y314149*
X292410Y314584*
X292421Y314601*
X292682Y314861*
X292702Y314874*
X292962Y314960*
X293028Y314913*
Y311300*
X293332Y311224*
X293671*
X294349Y311309*
X294852Y311728*
X295191Y312320*
X295276Y313000*
X294505Y313162D02*
X294331Y312466D01*
X294324Y312451*
X294150Y312190*
X294136Y312176*
X293876Y312002*
X293798Y312043*
Y314652*
X293889Y314681*
X294323Y314073*
X294332Y314053*
X294506Y313184*
X294505Y313162*
X295276Y318043D02*
X295191Y318634D01*
X294850Y319146*
X294891Y319224*
X295189*
Y320553*
X295113Y320705*
X294866Y320870*
X294714Y320946*
X294496Y320874*
X294420Y320644*
Y320217*
X294359Y320169*
X292359Y320603*
X292320Y320652*
Y320988*
X292244Y321140*
X291997Y321305*
X291997D02*
X291844Y321381D01*
X291622Y321307*
X291550Y321162*
Y319447*
X291626Y319295*
X291873Y319130*
X292026Y319054*
X292243Y319126*
X292320Y319356*
Y319783*
X292381Y319831*
X293859Y319483*
X293887Y319466*
X294235Y319031*
X294237Y319028*
X294411Y318767*
X294419Y318747*
X294506Y318226*
X294507Y318217*
Y317870*
X294501Y317847*
X294414Y317673*
X294385Y317648*
X294125Y317561*
X294109Y317559*
X293935*
X293924Y317560*
X292359Y317908*
X292321Y317944*
X292235Y318290*
X292155Y318530*
X291844Y318685*
X291622Y318611*
X291550Y318466*
Y316751*
X291626Y316599*
X291873Y316435*
X292026Y316358*
X292243Y316431*
X292320Y316660*
Y317087*
X292382Y317135*
X294028Y316702*
X294363*
X294695Y316785*
X295024Y317032*
X295190Y317448*
X295276Y318043*
Y323436D02*
X295190Y324118D01*
X294934Y324801*
X294507Y325314*
X293992Y325828*
X293484Y326082*
X292979Y326167*
X292560Y326083*
X292222Y325914*
X291884Y325660*
X291634Y325328*
X291464Y324304*
X291549Y323708*
X291806Y323021*
X292148Y322424*
X292658Y321999*
X293168Y321744*
X293673Y321660*
X294094Y321744*
X294515Y321912*
X294766Y322163*
X295021Y322503*
X295191Y322927*
X295276Y323436*
X294506Y323599D02*
X294419Y323164D01*
X294414Y323152*
X294240Y322804*
X294226Y322786*
X293878Y322525*
X293860Y322517*
X293512Y322430*
X293490Y322429*
X293055Y322516*
X293030Y322530*
X292595Y322965*
X292586Y322978*
X292325Y323499*
X292320Y323515*
X292233Y324123*
Y324130*
Y324139*
X292320Y324660*
X292325Y324675*
X292499Y325022*
X292508Y325035*
X292769Y325296*
X292792Y325309*
X293140Y325396*
X293162Y325397*
X293597Y325310*
X293622Y325296*
X293970Y324948*
X293978Y324938*
X294326Y324329*
X294331Y324316*
X294505Y323621*
X294506Y323599*
X296841Y330032D02*
X296766Y330183D01*
X296518Y330348*
X296366Y330424*
X296144Y330350*
X296072Y330206*
Y329000*
X296011Y328951*
X292359Y329734*
X292320Y329783*
Y331162*
X292244Y331314*
X291997Y331478*
X291844Y331555*
X291622Y331481*
X291550Y331336*
Y327534*
X291626Y327382*
X291873Y327217*
X292026Y327141*
X292247Y327215*
X292320Y327360*
Y328913*
X292380Y328962*
X296841Y328018*
Y330032*
X296580Y333781D02*
X296409Y334548D01*
X296068Y335229*
X295475Y335738*
X295226Y335821*
X294808Y335905*
X294310Y335739*
X293894Y335323*
X293810Y334903*
X293808Y334897*
X293636Y334379*
X293549Y333861*
X293547Y333854*
X293460Y333593*
X293458Y333586*
X293284Y333239*
X293255Y333213*
X292994Y333126*
X292962*
X292702Y333213*
X292677Y333231*
X292417Y333579*
X292407Y333599*
X292321Y334034*
X292320Y334035*
X292233Y334557*
Y334565*
Y334572*
X292320Y335181*
X292328Y335202*
X292502Y335463*
X292508Y335470*
X292595Y335557*
X292615Y335569*
X293113Y335735*
X293185Y335953*
X293024Y336275*
X292864Y336435*
X292101Y336689*
X291856*
X291626Y336613*
X291550Y336383*
Y336146*
X291716Y335897*
X291721Y335854*
X291549Y335337*
X291463Y334652*
X291549Y333968*
X291720Y333454*
X291975Y332945*
X292395Y332609*
X292819Y332439*
X293244Y332354*
X293485*
X293729Y332517*
X293983Y332771*
X294149Y333020*
X294234Y333445*
Y333446*
X294408Y334228*
X294494Y334662*
X294496Y334668*
X294583Y334929*
X294608Y334958*
X294956Y335132*
X294994Y335134*
X295255Y335047*
X295267Y335042*
X295528Y334868*
X295546Y334845*
X295720Y334410*
X295723Y334400*
X295810Y333878*
Y333861*
X295723Y333340*
X295709Y333312*
X295448Y333052*
X295429Y333040*
X294931Y332874*
X294856Y332650*
X294936Y332330*
X295092Y332174*
X295340Y332092*
X296028Y331920*
X296188*
X296415Y331995*
X296490Y332299*
X296415Y332449*
X296247Y332617*
X296238Y332675*
X296495Y333189*
X296580Y333781*
X296493Y351483D02*
X294885Y351907D01*
X294639*
X294409Y351830*
X294335Y351607*
X294415Y351286*
X294569Y351132*
X294903Y351049*
X295685Y350875*
X295724Y350826*
Y349870*
X295664Y349821*
X292359Y350516*
X292320Y350565*
Y351169*
X292238Y351579*
X291997Y351739*
X291844Y351816*
X291622Y351742*
X291550Y351597*
Y348838*
X291626Y348686*
X291873Y348522*
X292026Y348445*
X292247Y348519*
X292320Y348664*
Y349696*
X292380Y349745*
X295684Y349049*
X295724Y349000*
Y348043*
X295663Y347995*
X294880Y348169*
X294875Y348170*
X294630Y348252*
X294409Y348178*
X294335Y347955*
X294415Y347634*
X294569Y347480*
X294903Y347397*
X296493Y347062*
Y351483*
X292492Y344999D02*
X292409Y345330D01*
X292331Y345488*
X292331D02*
X292087Y345650D01*
X291852Y345729*
X291543Y345574*
X291465Y345261*
X291548Y344927*
X291626Y344692*
X292111Y344530*
X292414Y344606*
X292492Y344999*
X291500Y313317D02*
Y314199D01*
Y324049D02*
Y324522D01*
Y334360D02*
Y334945D01*
Y345119D02*
Y345403D01*
X291600Y312397D02*
Y314726D01*
Y316651D02*
Y318566D01*
Y319347D02*
Y321262D01*
Y323571D02*
Y325122D01*
Y327434D02*
Y331436D01*
Y333815D02*
Y335490D01*
Y336071D02*
Y336533D01*
Y344771D02*
Y345603D01*
Y348738D02*
Y351697D01*
X291700Y312047D02*
Y314901D01*
Y316550D02*
Y318637D01*
Y319246D02*
Y321333D01*
Y323305D02*
Y325415D01*
Y327333D02*
Y331507D01*
Y333515D02*
Y335790D01*
Y335921D02*
Y336637D01*
Y344667D02*
Y345653D01*
Y348637D02*
Y351768D01*
X291800Y311816D02*
Y315076D01*
Y316483D02*
Y318670D01*
Y319179D02*
Y321366D01*
Y323038D02*
Y325549D01*
Y327266D02*
Y331540D01*
Y333294D02*
Y336670D01*
Y344634D02*
Y345703D01*
Y348570D02*
Y351801D01*
X291900Y311639D02*
Y315239D01*
Y316421D02*
Y318657D01*
Y319117D02*
Y321353D01*
Y322857D02*
Y325672D01*
Y327204D02*
Y331527D01*
Y333094D02*
Y336689D01*
Y344601D02*
Y345713D01*
Y348508D02*
Y351788D01*
X292000Y311589D02*
Y315323D01*
Y316371D02*
Y318607D01*
Y319067D02*
Y321302D01*
Y322682D02*
Y325747D01*
Y327154D02*
Y331476D01*
Y332925D02*
Y336689D01*
Y344567D02*
Y345679D01*
Y348458D02*
Y351737D01*
X292100Y311539D02*
Y315406D01*
Y316383D02*
Y318557D01*
Y319079D02*
Y321236D01*
Y322507D02*
Y325822D01*
Y327166D02*
Y331409D01*
Y332845D02*
Y336689D01*
Y344534D02*
Y345641D01*
Y348470D02*
Y351670D01*
X292200Y311489D02*
Y315489D01*
Y316416D02*
Y318394D01*
Y319112D02*
Y321169D01*
Y322380D02*
Y325897D01*
Y327199D02*
Y331343D01*
Y332765D02*
Y336656D01*
Y344553D02*
Y345575D01*
Y348503D02*
Y351604D01*
X292300Y311522D02*
Y312724D01*
Y314309D02*
Y315573D01*
Y316602D02*
Y318029D01*
Y319297D02*
Y321027D01*
Y322297D02*
Y323655D01*
Y324539D02*
Y325953D01*
Y327321D02*
Y331201D01*
Y332685D02*
Y334157D01*
Y335041D02*
Y336623D01*
Y344578D02*
Y345508D01*
Y348625D02*
Y351267D01*
X292400Y311556D02*
Y312324D01*
Y314559D02*
Y315649D01*
Y317131D02*
Y317899D01*
Y319827D02*
Y320594D01*
Y322214D02*
Y323349D01*
Y324825D02*
Y326003D01*
Y328958D02*
Y329725D01*
Y332607D02*
Y333636D01*
Y335310D02*
Y336589D01*
Y344603D02*
Y345349D01*
Y349740D02*
Y350508D01*
X292500Y314679D02*
Y315664D01*
Y317104D02*
Y317876D01*
Y319803D02*
Y320573D01*
Y322130D02*
Y323149D01*
Y325025D02*
Y326053D01*
Y328937D02*
Y329704D01*
Y332567D02*
Y333467D01*
Y335460D02*
Y336556D01*
Y349719D02*
Y350487D01*
X292600Y314779D02*
Y315678D01*
Y317078D02*
Y317854D01*
Y319780D02*
Y320551D01*
Y322047D02*
Y322960D01*
Y325127D02*
Y326091D01*
Y328915D02*
Y329682D01*
Y332527D02*
Y333334D01*
Y335561D02*
Y336523D01*
Y349698D02*
Y350466D01*
X292700Y314873D02*
Y315692D01*
Y317052D02*
Y317832D01*
Y319756D02*
Y320529D01*
Y321978D02*
Y322860D01*
Y325227D02*
Y326111D01*
Y328894D02*
Y329661D01*
Y332487D02*
Y333214D01*
Y335598D02*
Y336489D01*
Y349677D02*
Y350445D01*
X292800Y314906D02*
Y315707D01*
Y317025D02*
Y317810D01*
Y319733D02*
Y320507D01*
Y321928D02*
Y322760D01*
Y325311D02*
Y326131D01*
Y328873D02*
Y329639D01*
Y332447D02*
Y333181D01*
Y335631D02*
Y336456D01*
Y349656D02*
Y350424D01*
X292900Y314940D02*
Y315721D01*
Y316999D02*
Y317787D01*
Y319709D02*
Y320486D01*
Y321878D02*
Y322660D01*
Y325336D02*
Y326151D01*
Y328852D02*
Y329618D01*
Y332423D02*
Y333147D01*
Y335664D02*
Y336399D01*
Y349635D02*
Y350402D01*
X293000Y314958D02*
Y315728D01*
Y316973D02*
Y317765D01*
Y319686D02*
Y320464D01*
Y321828D02*
Y322560D01*
Y325361D02*
Y326163D01*
Y328831D02*
Y329596D01*
Y332403D02*
Y333128D01*
Y335698D02*
Y336299D01*
Y349614D02*
Y350381D01*
X293100Y311282D02*
Y315712D01*
Y316946D02*
Y317743D01*
Y319662D02*
Y320442D01*
Y321778D02*
Y322507D01*
Y325386D02*
Y326146D01*
Y328810D02*
Y329575D01*
Y332383D02*
Y333162D01*
Y335731D02*
Y336123D01*
Y349593D02*
Y350360D01*
X293200Y311257D02*
Y315695D01*
Y316920D02*
Y317721D01*
Y319639D02*
Y320420D01*
Y321738D02*
Y322487D01*
Y325389D02*
Y326130D01*
Y328788D02*
Y329554D01*
Y332363D02*
Y333195D01*
Y349572D02*
Y350339D01*
X293300Y311232D02*
Y315678D01*
Y316894D02*
Y317699D01*
Y319615D02*
Y320399D01*
Y321722D02*
Y322467D01*
Y325369D02*
Y326113D01*
Y328767D02*
Y329532D01*
Y332354D02*
Y333271D01*
Y349551D02*
Y350318D01*
X293400Y311224D02*
Y315662D01*
Y316867D02*
Y317676D01*
Y319592D02*
Y320377D01*
Y321705D02*
Y322447D01*
Y325349D02*
Y326096D01*
Y328746D02*
Y329511D01*
Y332354D02*
Y333471D01*
Y349530D02*
Y350297D01*
X293500Y311224D02*
Y315641D01*
Y316841D02*
Y317654D01*
Y319568D02*
Y320355D01*
Y321688D02*
Y322428D01*
Y325329D02*
Y326075D01*
Y328725D02*
Y329489D01*
Y332364D02*
Y333711D01*
Y349509D02*
Y350276D01*
X293600Y311224D02*
Y315598D01*
Y316815D02*
Y317632D01*
Y319544D02*
Y320334D01*
Y321672D02*
Y322452D01*
Y325309D02*
Y326025D01*
Y328704D02*
Y329468D01*
Y332431D02*
Y334165D01*
Y349488D02*
Y350255D01*
X293700Y311228D02*
Y315556D01*
Y316789D02*
Y317610D01*
Y319521D02*
Y320312D01*
Y321665D02*
Y322477D01*
Y325219D02*
Y325975D01*
Y328683D02*
Y329446D01*
Y332498D02*
Y334572D01*
Y349467D02*
Y350234D01*
X293800Y311240D02*
Y312029D01*
Y314667D02*
Y315513D01*
Y316762D02*
Y317587D01*
Y319497D02*
Y320290D01*
Y321685D02*
Y322502D01*
Y325119D02*
Y325925D01*
Y328662D02*
Y329425D01*
Y332588D02*
Y334872D01*
Y349446D02*
Y350213D01*
X293900Y311253D02*
Y312018D01*
Y314665D02*
Y315470D01*
Y316736D02*
Y317565D01*
Y319450D02*
Y320268D01*
Y321705D02*
Y322542D01*
Y325019D02*
Y325875D01*
Y328640D02*
Y329404D01*
Y332688D02*
Y335329D01*
Y349425D02*
Y350192D01*
X294000Y311265D02*
Y312085D01*
Y314525D02*
Y315427D01*
Y316710D02*
Y317559D01*
Y319325D02*
Y320247D01*
Y321725D02*
Y322617D01*
Y324900D02*
Y325821D01*
Y328619D02*
Y329382D01*
Y332797D02*
Y335429D01*
Y349403D02*
Y350171D01*
X294100Y311278D02*
Y312152D01*
Y314385D02*
Y315373D01*
Y316702D02*
Y317559D01*
Y319200D02*
Y320225D01*
Y321746D02*
Y322692D01*
Y324725D02*
Y325721D01*
Y328598D02*
Y329361D01*
Y332947D02*
Y335529D01*
Y349382D02*
Y350150D01*
X294200Y311290D02*
Y312264D01*
Y314245D02*
Y315273D01*
Y316702D02*
Y317586D01*
Y319075D02*
Y320203D01*
Y321786D02*
Y322767D01*
Y324550D02*
Y325621D01*
Y328577D02*
Y329339D01*
Y333277D02*
Y335629D01*
Y349361D02*
Y350129D01*
X294300Y311303D02*
Y312414D01*
Y314105D02*
Y315173D01*
Y316702D02*
Y317620D01*
Y318934D02*
Y320181D01*
Y321826D02*
Y322923D01*
Y324375D02*
Y325521D01*
Y328556D02*
Y329318D01*
Y333744D02*
Y335729D01*
Y349340D02*
Y350108D01*
X294400Y311351D02*
Y312742D01*
Y313711D02*
Y315073D01*
Y316711D02*
Y317656D01*
Y318784D02*
Y320178D01*
Y321866D02*
Y323123D01*
Y324041D02*
Y325421D01*
Y328535D02*
Y329296D01*
Y334194D02*
Y335769D01*
Y347693D02*
Y348151D01*
Y349319D02*
Y350087D01*
Y351345D02*
Y351803D01*
X294500Y311435D02*
Y313142D01*
Y313211D02*
Y314973D01*
Y316736D02*
Y317845D01*
Y318261D02*
Y320875D01*
Y321906D02*
Y323571D01*
Y323641D02*
Y325321D01*
Y328513D02*
Y329275D01*
Y334680D02*
Y335802D01*
Y347549D02*
Y348208D01*
Y349298D02*
Y350066D01*
Y351201D02*
Y351860D01*
X294600Y311518D02*
Y314835D01*
Y316761D02*
Y320908D01*
Y321997D02*
Y325202D01*
Y328492D02*
Y329254D01*
Y334953D02*
Y335836D01*
Y347472D02*
Y348242D01*
Y349277D02*
Y350045D01*
Y351124D02*
Y351894D01*
X294700Y311601D02*
Y314695D01*
Y316789D02*
Y320942D01*
Y322097D02*
Y325082D01*
Y328471D02*
Y329232D01*
Y335004D02*
Y335869D01*
Y347447D02*
Y348228D01*
Y349256D02*
Y350024D01*
Y351099D02*
Y351907D01*
X294800Y311685D02*
Y314555D01*
Y316864D02*
Y320903D01*
Y322208D02*
Y324962D01*
Y328450D02*
Y329211D01*
Y335054D02*
Y335902D01*
Y347422D02*
Y348195D01*
Y349235D02*
Y350002D01*
Y351074D02*
Y351907D01*
X294900Y311812D02*
Y314415D01*
Y316939D02*
Y319071D01*
Y319224D02*
Y320847D01*
Y322341D02*
Y324842D01*
Y328429D02*
Y329189D01*
Y332476D02*
Y332781D01*
Y335104D02*
Y335886D01*
Y347397D02*
Y348164D01*
Y349214D02*
Y349981D01*
Y351049D02*
Y351903D01*
X295000Y311987D02*
Y314191D01*
Y317014D02*
Y318921D01*
Y319224D02*
Y320780D01*
Y322475D02*
Y324626D01*
Y328408D02*
Y329168D01*
Y332266D02*
Y332897D01*
Y335132D02*
Y335866D01*
Y347376D02*
Y348142D01*
Y349193D02*
Y349960D01*
Y351027D02*
Y351876D01*
X295100Y312162D02*
Y313924D01*
Y317222D02*
Y318771D01*
Y319224D02*
Y320714D01*
Y322700D02*
Y324359D01*
Y328387D02*
Y329146D01*
Y332172D02*
Y332930D01*
Y335099D02*
Y335846D01*
Y347355D02*
Y348120D01*
Y349172D02*
Y349939D01*
Y351005D02*
Y351850D01*
X295200Y312394D02*
Y313606D01*
Y317514D02*
Y318573D01*
Y322982D02*
Y324040D01*
Y328365D02*
Y329125D01*
Y332138D02*
Y332963D01*
Y335066D02*
Y335826D01*
Y347334D02*
Y348098D01*
Y349151D02*
Y349918D01*
Y350983D02*
Y351824D01*
X295300Y328344D02*
Y329104D01*
Y332105D02*
Y332997D01*
Y335020D02*
Y335797D01*
Y347313D02*
Y348075D01*
Y349130D02*
Y349897D01*
Y350960D02*
Y351797D01*
X295400Y328323D02*
Y329082D01*
Y332077D02*
Y333030D01*
Y334953D02*
Y335763D01*
Y347292D02*
Y348053D01*
Y349109D02*
Y349876D01*
Y350938D02*
Y351771D01*
X295500Y328302D02*
Y329061D01*
Y332052D02*
Y333103D01*
Y334886D02*
Y335717D01*
Y347271D02*
Y348031D01*
Y349088D02*
Y349855D01*
Y350916D02*
Y351745D01*
X295600Y328281D02*
Y329039D01*
Y332027D02*
Y333203D01*
Y334711D02*
Y335631D01*
Y347250D02*
Y348009D01*
Y349067D02*
Y349834D01*
Y350894D02*
Y351718D01*
X295700Y328260D02*
Y329018D01*
Y332002D02*
Y333303D01*
Y334461D02*
Y335545D01*
Y347229D02*
Y348001D01*
Y349043D02*
Y349827D01*
Y350869D02*
Y351692D01*
X295800Y328238D02*
Y328996D01*
Y331977D02*
Y333800D01*
Y333939D02*
Y335460D01*
Y347208D02*
Y351666D01*
X295900Y328217D02*
Y328975D01*
Y331952D02*
Y335374D01*
Y347187D02*
Y351639D01*
X296000Y328196D02*
Y328954D01*
Y331927D02*
Y335288D01*
Y347166D02*
Y351613D01*
X296100Y328175D02*
Y330262D01*
Y331920D02*
Y335166D01*
Y347144D02*
Y351587D01*
X296200Y328154D02*
Y330369D01*
Y331924D02*
Y334966D01*
Y347123D02*
Y351560D01*
X296300Y328133D02*
Y330402D01*
Y331957D02*
Y332564D01*
Y332799D02*
Y334766D01*
Y347102D02*
Y351534D01*
X296400Y328112D02*
Y330407D01*
Y331990D02*
Y332464D01*
Y332999D02*
Y334566D01*
Y347081D02*
Y351508D01*
X296500Y328090D02*
Y330357D01*
Y333223D02*
Y334139D01*
X296600Y328069D02*
Y330294D01*
X296700Y328048D02*
Y330227D01*
X296800Y328027D02*
Y330114D01*
*
G04 PC Custom Flashes*
G04 Layer Name tripod.pcb - flashes*
%LPD*%
*
*
G04 PC Circuitry*
G04 Layer Name tripod.pcb - circuitry*
%LPD*%
*
G54D10*
G54D12*
X132500Y404000D02*
Y397000D01*
X181500*
Y404000*
X132500*
Y341000D02*
Y334000D01*
X181500*
Y341000*
X132500*
X122000Y344500D02*
X129000D01*
Y393500*
X122000*
Y344500*
X185000D02*
X192000D01*
Y393500*
X185000*
Y344500*
X189500Y251500D02*
X196000D01*
Y232500*
X189500*
Y251500*
X210000D02*
X216500D01*
Y232500*
X210000*
Y251500*
X255500Y244500D02*
X264500D01*
Y237500*
X255500*
Y244500*
Y222500D02*
X264500D01*
Y215000*
X255500*
Y222500*
X239500Y383500D02*
X249000D01*
Y374500*
X239500*
Y383500*
X257000D02*
X266500D01*
Y374500*
X257000*
Y383500*
X120000Y136500D02*
X154000D01*
Y125000*
X120000*
Y136500*
X344500Y404000D02*
Y397000D01*
X393500*
Y404000*
X344500*
Y341000D02*
Y334000D01*
X393500*
Y341000*
X344500*
X334000Y344500D02*
X341000D01*
Y393500*
X334000*
Y344500*
X397000D02*
X404000D01*
Y393500*
X397000*
Y344500*
X401500Y251500D02*
X408000D01*
Y232500*
X401500*
Y251500*
X422000D02*
X428500D01*
Y232500*
X422000*
Y251500*
X467500Y244500D02*
X476500D01*
Y237500*
X467500*
Y244500*
Y222500D02*
X476500D01*
Y215000*
X467500*
Y222500*
X451500Y383500D02*
X461000D01*
Y374500*
X451500*
Y383500*
X469000D02*
X478500D01*
Y374500*
X469000*
Y383500*
X332000Y136500D02*
X366000D01*
Y125000*
X332000*
Y136500*
X132500Y403299D02*
X181500D01*
X132500Y402399D02*
X181500D01*
X132500Y401499D02*
X181500D01*
X132500Y400599D02*
X181500D01*
X132500Y399699D02*
X181500D01*
X132500Y398799D02*
X181500D01*
X132500Y397899D02*
X181500D01*
X132500Y340299D02*
X181500D01*
X132500Y339399D02*
X181500D01*
X132500Y338499D02*
X181500D01*
X132500Y337599D02*
X181500D01*
X132500Y336699D02*
X181500D01*
X132500Y335799D02*
X181500D01*
X132500Y334899D02*
X181500D01*
X122000Y393099D02*
X129000D01*
X122000Y392199D02*
X129000D01*
X122000Y391299D02*
X129000D01*
X122000Y390399D02*
X129000D01*
X122000Y389499D02*
X129000D01*
X122000Y388599D02*
X129000D01*
X122000Y387699D02*
X129000D01*
X122000Y386799D02*
X129000D01*
X122000Y385899D02*
X129000D01*
X122000Y384999D02*
X129000D01*
X122000Y384099D02*
X129000D01*
X122000Y383199D02*
X129000D01*
X122000Y382299D02*
X129000D01*
X122000Y381399D02*
X129000D01*
X122000Y380499D02*
X129000D01*
X122000Y379599D02*
X129000D01*
X122000Y378699D02*
X129000D01*
X122000Y377799D02*
X129000D01*
X122000Y376899D02*
X129000D01*
X122000Y375999D02*
X129000D01*
X122000Y375099D02*
X129000D01*
X122000Y374199D02*
X129000D01*
X122000Y373299D02*
X129000D01*
X122000Y372399D02*
X129000D01*
X122000Y371499D02*
X129000D01*
X122000Y370599D02*
X129000D01*
X122000Y369699D02*
X129000D01*
X122000Y368799D02*
X129000D01*
X122000Y367899D02*
X129000D01*
X122000Y366999D02*
X129000D01*
X122000Y366099D02*
X129000D01*
X122000Y365199D02*
X129000D01*
X122000Y364299D02*
X129000D01*
X122000Y363399D02*
X129000D01*
X122000Y362499D02*
X129000D01*
X122000Y361599D02*
X129000D01*
X122000Y360699D02*
X129000D01*
X122000Y359799D02*
X129000D01*
X122000Y358899D02*
X129000D01*
X122000Y357999D02*
X129000D01*
X122000Y357099D02*
X129000D01*
X122000Y356199D02*
X129000D01*
X122000Y355299D02*
X129000D01*
X122000Y354399D02*
X129000D01*
X122000Y353499D02*
X129000D01*
X122000Y352599D02*
X129000D01*
X122000Y351699D02*
X129000D01*
X122000Y350799D02*
X129000D01*
X122000Y349899D02*
X129000D01*
X122000Y348999D02*
X129000D01*
X122000Y348099D02*
X129000D01*
X122000Y347199D02*
X129000D01*
X122000Y346299D02*
X129000D01*
X122000Y345399D02*
X129000D01*
X185000Y393099D02*
X192000D01*
X185000Y392199D02*
X192000D01*
X185000Y391299D02*
X192000D01*
X185000Y390399D02*
X192000D01*
X185000Y389499D02*
X192000D01*
X185000Y388599D02*
X192000D01*
X185000Y387699D02*
X192000D01*
X185000Y386799D02*
X192000D01*
X185000Y385899D02*
X192000D01*
X185000Y384999D02*
X192000D01*
X185000Y384099D02*
X192000D01*
X185000Y383199D02*
X192000D01*
X185000Y382299D02*
X192000D01*
X185000Y381399D02*
X192000D01*
X185000Y380499D02*
X192000D01*
X185000Y379599D02*
X192000D01*
X185000Y378699D02*
X192000D01*
X185000Y377799D02*
X192000D01*
X185000Y376899D02*
X192000D01*
X185000Y375999D02*
X192000D01*
X185000Y375099D02*
X192000D01*
X185000Y374199D02*
X192000D01*
X185000Y373299D02*
X192000D01*
X185000Y372399D02*
X192000D01*
X185000Y371499D02*
X192000D01*
X185000Y370599D02*
X192000D01*
X185000Y369699D02*
X192000D01*
X185000Y368799D02*
X192000D01*
X185000Y367899D02*
X192000D01*
X185000Y366999D02*
X192000D01*
X185000Y366099D02*
X192000D01*
X185000Y365199D02*
X192000D01*
X185000Y364299D02*
X192000D01*
X185000Y363399D02*
X192000D01*
X185000Y362499D02*
X192000D01*
X185000Y361599D02*
X192000D01*
X185000Y360699D02*
X192000D01*
X185000Y359799D02*
X192000D01*
X185000Y358899D02*
X192000D01*
X185000Y357999D02*
X192000D01*
X185000Y357099D02*
X192000D01*
X185000Y356199D02*
X192000D01*
X185000Y355299D02*
X192000D01*
X185000Y354399D02*
X192000D01*
X185000Y353499D02*
X192000D01*
X185000Y352599D02*
X192000D01*
X185000Y351699D02*
X192000D01*
X185000Y350799D02*
X192000D01*
X185000Y349899D02*
X192000D01*
X185000Y348999D02*
X192000D01*
X185000Y348099D02*
X192000D01*
X185000Y347199D02*
X192000D01*
X185000Y346299D02*
X192000D01*
X185000Y345399D02*
X192000D01*
X189500Y251399D02*
X196000D01*
X189500Y250499D02*
X196000D01*
X189500Y249599D02*
X196000D01*
X189500Y248699D02*
X196000D01*
X189500Y247799D02*
X196000D01*
X189500Y246899D02*
X196000D01*
X189500Y245999D02*
X196000D01*
X189500Y245099D02*
X196000D01*
X189500Y244199D02*
X196000D01*
X189500Y243299D02*
X196000D01*
X189500Y242399D02*
X196000D01*
X189500Y241499D02*
X196000D01*
X189500Y240599D02*
X196000D01*
X189500Y239699D02*
X196000D01*
X189500Y238799D02*
X196000D01*
X189500Y237899D02*
X196000D01*
X189500Y236999D02*
X196000D01*
X189500Y236099D02*
X196000D01*
X189500Y235199D02*
X196000D01*
X189500Y234299D02*
X196000D01*
X189500Y233399D02*
X196000D01*
X210000Y251399D02*
X216500D01*
X210000Y250499D02*
X216500D01*
X210000Y249599D02*
X216500D01*
X210000Y248699D02*
X216500D01*
X210000Y247799D02*
X216500D01*
X210000Y246899D02*
X216500D01*
X210000Y245999D02*
X216500D01*
X210000Y245099D02*
X216500D01*
X210000Y244199D02*
X216500D01*
X210000Y243299D02*
X216500D01*
X210000Y242399D02*
X216500D01*
X210000Y241499D02*
X216500D01*
X210000Y240599D02*
X216500D01*
X210000Y239699D02*
X216500D01*
X210000Y238799D02*
X216500D01*
X210000Y237899D02*
X216500D01*
X210000Y236999D02*
X216500D01*
X210000Y236099D02*
X216500D01*
X210000Y235199D02*
X216500D01*
X210000Y234299D02*
X216500D01*
X210000Y233399D02*
X216500D01*
X255500Y243799D02*
X264500D01*
X255500Y242899D02*
X264500D01*
X255500Y241999D02*
X264500D01*
X255500Y241099D02*
X264500D01*
X255500Y240199D02*
X264500D01*
X255500Y239299D02*
X264500D01*
X255500Y238399D02*
X264500D01*
X255500Y222199D02*
X264500D01*
X255500Y221299D02*
X264500D01*
X255500Y220399D02*
X264500D01*
X255500Y219499D02*
X264500D01*
X255500Y218599D02*
X264500D01*
X255500Y217699D02*
X264500D01*
X255500Y216799D02*
X264500D01*
X255500Y215899D02*
X264500D01*
X239500Y383499D02*
X249000D01*
X239500Y382599D02*
X249000D01*
X239500Y381699D02*
X249000D01*
X239500Y380799D02*
X249000D01*
X239500Y379899D02*
X249000D01*
X239500Y378999D02*
X249000D01*
X239500Y378099D02*
X249000D01*
X239500Y377199D02*
X249000D01*
X239500Y376299D02*
X249000D01*
X239500Y375399D02*
X249000D01*
X257000Y383499D02*
X266500D01*
X257000Y382599D02*
X266500D01*
X257000Y381699D02*
X266500D01*
X257000Y380799D02*
X266500D01*
X257000Y379899D02*
X266500D01*
X257000Y378999D02*
X266500D01*
X257000Y378099D02*
X266500D01*
X257000Y377199D02*
X266500D01*
X257000Y376299D02*
X266500D01*
X257000Y375399D02*
X266500D01*
X120000Y135799D02*
X154000D01*
X120000Y134899D02*
X154000D01*
X120000Y133999D02*
X154000D01*
X120000Y133099D02*
X154000D01*
X120000Y132199D02*
X154000D01*
X120000Y131299D02*
X154000D01*
X120000Y130399D02*
X154000D01*
X120000Y129499D02*
X154000D01*
X120000Y128599D02*
X154000D01*
X120000Y127699D02*
X154000D01*
X120000Y126799D02*
X154000D01*
X120000Y125899D02*
X154000D01*
X344500Y403299D02*
X393500D01*
X344500Y402399D02*
X393500D01*
X344500Y401499D02*
X393500D01*
X344500Y400599D02*
X393500D01*
X344500Y399699D02*
X393500D01*
X344500Y398799D02*
X393500D01*
X344500Y397899D02*
X393500D01*
X344500Y340299D02*
X393500D01*
X344500Y339399D02*
X393500D01*
X344500Y338499D02*
X393500D01*
X344500Y337599D02*
X393500D01*
X344500Y336699D02*
X393500D01*
X344500Y335799D02*
X393500D01*
X344500Y334899D02*
X393500D01*
X334000Y393099D02*
X341000D01*
X334000Y392199D02*
X341000D01*
X334000Y391299D02*
X341000D01*
X334000Y390399D02*
X341000D01*
X334000Y389499D02*
X341000D01*
X334000Y388599D02*
X341000D01*
X334000Y387699D02*
X341000D01*
X334000Y386799D02*
X341000D01*
X334000Y385899D02*
X341000D01*
X334000Y384999D02*
X341000D01*
X334000Y384099D02*
X341000D01*
X334000Y383199D02*
X341000D01*
X334000Y382299D02*
X341000D01*
X334000Y381399D02*
X341000D01*
X334000Y380499D02*
X341000D01*
X334000Y379599D02*
X341000D01*
X334000Y378699D02*
X341000D01*
X334000Y377799D02*
X341000D01*
X334000Y376899D02*
X341000D01*
X334000Y375999D02*
X341000D01*
X334000Y375099D02*
X341000D01*
X334000Y374199D02*
X341000D01*
X334000Y373299D02*
X341000D01*
X334000Y372399D02*
X341000D01*
X334000Y371499D02*
X341000D01*
X334000Y370599D02*
X341000D01*
X334000Y369699D02*
X341000D01*
X334000Y368799D02*
X341000D01*
X334000Y367899D02*
X341000D01*
X334000Y366999D02*
X341000D01*
X334000Y366099D02*
X341000D01*
X334000Y365199D02*
X341000D01*
X334000Y364299D02*
X341000D01*
X334000Y363399D02*
X341000D01*
X334000Y362499D02*
X341000D01*
X334000Y361599D02*
X341000D01*
X334000Y360699D02*
X341000D01*
X334000Y359799D02*
X341000D01*
X334000Y358899D02*
X341000D01*
X334000Y357999D02*
X341000D01*
X334000Y357099D02*
X341000D01*
X334000Y356199D02*
X341000D01*
X334000Y355299D02*
X341000D01*
X334000Y354399D02*
X341000D01*
X334000Y353499D02*
X341000D01*
X334000Y352599D02*
X341000D01*
X334000Y351699D02*
X341000D01*
X334000Y350799D02*
X341000D01*
X334000Y349899D02*
X341000D01*
X334000Y348999D02*
X341000D01*
X334000Y348099D02*
X341000D01*
X334000Y347199D02*
X341000D01*
X334000Y346299D02*
X341000D01*
X334000Y345399D02*
X341000D01*
X397000Y393099D02*
X404000D01*
X397000Y392199D02*
X404000D01*
X397000Y391299D02*
X404000D01*
X397000Y390399D02*
X404000D01*
X397000Y389499D02*
X404000D01*
X397000Y388599D02*
X404000D01*
X397000Y387699D02*
X404000D01*
X397000Y386799D02*
X404000D01*
X397000Y385899D02*
X404000D01*
X397000Y384999D02*
X404000D01*
X397000Y384099D02*
X404000D01*
X397000Y383199D02*
X404000D01*
X397000Y382299D02*
X404000D01*
X397000Y381399D02*
X404000D01*
X397000Y380499D02*
X404000D01*
X397000Y379599D02*
X404000D01*
X397000Y378699D02*
X404000D01*
X397000Y377799D02*
X404000D01*
X397000Y376899D02*
X404000D01*
X397000Y375999D02*
X404000D01*
X397000Y375099D02*
X404000D01*
X397000Y374199D02*
X404000D01*
X397000Y373299D02*
X404000D01*
X397000Y372399D02*
X404000D01*
X397000Y371499D02*
X404000D01*
X397000Y370599D02*
X404000D01*
X397000Y369699D02*
X404000D01*
X397000Y368799D02*
X404000D01*
X397000Y367899D02*
X404000D01*
X397000Y366999D02*
X404000D01*
X397000Y366099D02*
X404000D01*
X397000Y365199D02*
X404000D01*
X397000Y364299D02*
X404000D01*
X397000Y363399D02*
X404000D01*
X397000Y362499D02*
X404000D01*
X397000Y361599D02*
X404000D01*
X397000Y360699D02*
X404000D01*
X397000Y359799D02*
X404000D01*
X397000Y358899D02*
X404000D01*
X397000Y357999D02*
X404000D01*
X397000Y357099D02*
X404000D01*
X397000Y356199D02*
X404000D01*
X397000Y355299D02*
X404000D01*
X397000Y354399D02*
X404000D01*
X397000Y353499D02*
X404000D01*
X397000Y352599D02*
X404000D01*
X397000Y351699D02*
X404000D01*
X397000Y350799D02*
X404000D01*
X397000Y349899D02*
X404000D01*
X397000Y348999D02*
X404000D01*
X397000Y348099D02*
X404000D01*
X397000Y347199D02*
X404000D01*
X397000Y346299D02*
X404000D01*
X397000Y345399D02*
X404000D01*
X401500Y251399D02*
X408000D01*
X401500Y250499D02*
X408000D01*
X401500Y249599D02*
X408000D01*
X401500Y248699D02*
X408000D01*
X401500Y247799D02*
X408000D01*
X401500Y246899D02*
X408000D01*
X401500Y245999D02*
X408000D01*
X401500Y245099D02*
X408000D01*
X401500Y244199D02*
X408000D01*
X401500Y243299D02*
X408000D01*
X401500Y242399D02*
X408000D01*
X401500Y241499D02*
X408000D01*
X401500Y240599D02*
X408000D01*
X401500Y239699D02*
X408000D01*
X401500Y238799D02*
X408000D01*
X401500Y237899D02*
X408000D01*
X401500Y236999D02*
X408000D01*
X401500Y236099D02*
X408000D01*
X401500Y235199D02*
X408000D01*
X401500Y234299D02*
X408000D01*
X401500Y233399D02*
X408000D01*
X422000Y251399D02*
X428500D01*
X422000Y250499D02*
X428500D01*
X422000Y249599D02*
X428500D01*
X422000Y248699D02*
X428500D01*
X422000Y247799D02*
X428500D01*
X422000Y246899D02*
X428500D01*
X422000Y245999D02*
X428500D01*
X422000Y245099D02*
X428500D01*
X422000Y244199D02*
X428500D01*
X422000Y243299D02*
X428500D01*
X422000Y242399D02*
X428500D01*
X422000Y241499D02*
X428500D01*
X422000Y240599D02*
X428500D01*
X422000Y239699D02*
X428500D01*
X422000Y238799D02*
X428500D01*
X422000Y237899D02*
X428500D01*
X422000Y236999D02*
X428500D01*
X422000Y236099D02*
X428500D01*
X422000Y235199D02*
X428500D01*
X422000Y234299D02*
X428500D01*
X422000Y233399D02*
X428500D01*
X467500Y243799D02*
X476500D01*
X467500Y242899D02*
X476500D01*
X467500Y241999D02*
X476500D01*
X467500Y241099D02*
X476500D01*
X467500Y240199D02*
X476500D01*
X467500Y239299D02*
X476500D01*
X467500Y238399D02*
X476500D01*
X467500Y222199D02*
X476500D01*
X467500Y221299D02*
X476500D01*
X467500Y220399D02*
X476500D01*
X467500Y219499D02*
X476500D01*
X467500Y218599D02*
X476500D01*
X467500Y217699D02*
X476500D01*
X467500Y216799D02*
X476500D01*
X467500Y215899D02*
X476500D01*
X451500Y383499D02*
X461000D01*
X451500Y382599D02*
X461000D01*
X451500Y381699D02*
X461000D01*
X451500Y380799D02*
X461000D01*
X451500Y379899D02*
X461000D01*
X451500Y378999D02*
X461000D01*
X451500Y378099D02*
X461000D01*
X451500Y377199D02*
X461000D01*
X451500Y376299D02*
X461000D01*
X451500Y375399D02*
X461000D01*
X469000Y383499D02*
X478500D01*
X469000Y382599D02*
X478500D01*
X469000Y381699D02*
X478500D01*
X469000Y380799D02*
X478500D01*
X469000Y379899D02*
X478500D01*
X469000Y378999D02*
X478500D01*
X469000Y378099D02*
X478500D01*
X469000Y377199D02*
X478500D01*
X469000Y376299D02*
X478500D01*
X469000Y375399D02*
X478500D01*
X332000Y135799D02*
X366000D01*
X332000Y134899D02*
X366000D01*
X332000Y133999D02*
X366000D01*
X332000Y133099D02*
X366000D01*
X332000Y132199D02*
X366000D01*
X332000Y131299D02*
X366000D01*
X332000Y130399D02*
X366000D01*
X332000Y129499D02*
X366000D01*
X332000Y128599D02*
X366000D01*
X332000Y127699D02*
X366000D01*
X332000Y126799D02*
X366000D01*
X332000Y125899D02*
X366000D01*
X112000Y120965D02*
X116512D01*
Y111335*
X104717*
Y118209*
X112000*
Y120965*
X161984D02*
X157472D01*
Y111335*
X169268*
Y118209*
X161984*
Y120965*
X324000D02*
X328512D01*
Y111335*
X316717*
Y118209*
X324000*
Y120965*
X373984D02*
X369472D01*
Y111335*
X381268*
Y118209*
X373984*
Y120965*
X112000Y120333D02*
X116512D01*
X112000Y119433D02*
X116512D01*
X112000Y118533D02*
X116512D01*
X104717Y117633D02*
X116512D01*
X104717Y116733D02*
X116512D01*
X104717Y115833D02*
X116512D01*
X104717Y114933D02*
X116512D01*
X104717Y114033D02*
X116512D01*
X104717Y113133D02*
X116512D01*
X104717Y112233D02*
X116512D01*
X157472Y117633D02*
X169268D01*
X157472Y116733D02*
X169268D01*
X157472Y115833D02*
X169268D01*
X157472Y114933D02*
X169268D01*
X157472Y114033D02*
X169268D01*
X157472Y113133D02*
X169268D01*
X157472Y112233D02*
X169268D01*
X157472Y120333D02*
X161984D01*
X157472Y119433D02*
X161984D01*
X157472Y118533D02*
X161984D01*
X324000Y120333D02*
X328512D01*
X324000Y119433D02*
X328512D01*
X324000Y118533D02*
X328512D01*
X316717Y117633D02*
X328512D01*
X316717Y116733D02*
X328512D01*
X316717Y115833D02*
X328512D01*
X316717Y114933D02*
X328512D01*
X316717Y114033D02*
X328512D01*
X316717Y113133D02*
X328512D01*
X316717Y112233D02*
X328512D01*
X369472Y117633D02*
X381268D01*
X369472Y116733D02*
X381268D01*
X369472Y115833D02*
X381268D01*
X369472Y114933D02*
X381268D01*
X369472Y114033D02*
X381268D01*
X369472Y113133D02*
X381268D01*
X369472Y112233D02*
X381268D01*
X369472Y120333D02*
X373984D01*
X369472Y119433D02*
X373984D01*
X369472Y118533D02*
X373984D01*
G54D18*
X170929Y424882D02*
X162661D01*
Y435118*
X170929*
Y424882*
X162661Y427000D02*
X170929D01*
X162661Y429575D02*
X170929D01*
X162661Y432150D02*
X170929D01*
X162661Y434724D02*
X170929D01*
X164370Y424882D02*
Y435118D01*
X166945Y424882D02*
Y435118D01*
X169520Y424882D02*
Y435118D01*
X145339Y424882D02*
X137071D01*
Y435118*
X145339*
Y424882*
X137071Y427000D02*
X145339D01*
X137071Y429575D02*
X145339D01*
X137071Y432150D02*
X145339D01*
X137071Y434724D02*
X145339D01*
X138622Y424882D02*
Y435118D01*
X141197Y424882D02*
Y435118D01*
X143772Y424882D02*
Y435118D01*
X184457Y302606D02*
Y303394D01*
X191543*
Y302606*
X184457*
X184969D02*
Y303394D01*
X187543Y302606D02*
Y303394D01*
X190118Y302606D02*
Y303394D01*
X184457Y297606D02*
Y298394D01*
X191543*
Y297606*
X184457*
Y298260D02*
X191543D01*
X184969Y297606D02*
Y298394D01*
X187543Y297606D02*
Y298394D01*
X190118Y297606D02*
Y298394D01*
X184457Y292606D02*
Y293394D01*
X191543*
Y292606*
X184457*
Y293110D02*
X191543D01*
X184969Y292606D02*
Y293394D01*
X187543Y292606D02*
Y293394D01*
X190118Y292606D02*
Y293394D01*
X184457Y287606D02*
Y288394D01*
X191543*
Y287606*
X184457*
Y287961D02*
X191543D01*
X184969Y287606D02*
Y288394D01*
X187543Y287606D02*
Y288394D01*
X190118Y287606D02*
Y288394D01*
X184457Y282606D02*
Y283394D01*
X191543*
Y282606*
X184457*
Y282811D02*
X191543D01*
X184969Y282606D02*
Y283394D01*
X187543Y282606D02*
Y283394D01*
X190118Y282606D02*
Y283394D01*
X208866Y299102D02*
X215953D01*
Y286898*
X208866*
Y299102*
Y287961D02*
X215953D01*
X208866Y290535D02*
X215953D01*
X208866Y293110D02*
X215953D01*
X208866Y295685D02*
X215953D01*
X208866Y298260D02*
X215953D01*
X210717Y286898D02*
Y299102D01*
X213291Y286898D02*
Y299102D01*
X215866Y286898D02*
Y299102D01*
X173457Y204106D02*
Y204894D01*
X180543*
Y204106*
X173457*
X174669D02*
Y204894D01*
X177244Y204106D02*
Y204894D01*
X179819Y204106D02*
Y204894D01*
X173457Y199106D02*
Y199894D01*
X180543*
Y199106*
X173457*
X174669D02*
Y199894D01*
X177244Y199106D02*
Y199894D01*
X179819Y199106D02*
Y199894D01*
X173457Y194106D02*
Y194894D01*
X180543*
Y194106*
X173457*
X174669D02*
Y194894D01*
X177244Y194106D02*
Y194894D01*
X179819Y194106D02*
Y194894D01*
X173457Y189106D02*
Y189894D01*
X180543*
Y189106*
X173457*
X174669D02*
Y189894D01*
X177244Y189106D02*
Y189894D01*
X179819Y189106D02*
Y189894D01*
X173457Y184106D02*
Y184894D01*
X180543*
Y184106*
X173457*
X174669D02*
Y184894D01*
X177244Y184106D02*
Y184894D01*
X179819Y184106D02*
Y184894D01*
X197866Y200602D02*
X204953D01*
Y188398*
X197866*
Y200602*
Y190118D02*
X204953D01*
X197866Y192693D02*
X204953D01*
X197866Y195268D02*
X204953D01*
X197866Y197843D02*
X204953D01*
X197866Y200417D02*
X204953D01*
X200417Y188398D02*
Y200602D01*
X202992Y188398D02*
Y200602D01*
X382929Y424882D02*
X374661D01*
Y435118*
X382929*
Y424882*
X374661Y427000D02*
X382929D01*
X374661Y429575D02*
X382929D01*
X374661Y432150D02*
X382929D01*
X374661Y434724D02*
X382929D01*
X375504Y424882D02*
Y435118D01*
X378079Y424882D02*
Y435118D01*
X380654Y424882D02*
Y435118D01*
X357339Y424882D02*
X349071D01*
Y435118*
X357339*
Y424882*
X349071Y427000D02*
X357339D01*
X349071Y429575D02*
X357339D01*
X349071Y432150D02*
X357339D01*
X349071Y434724D02*
X357339D01*
X349756Y424882D02*
Y435118D01*
X352331Y424882D02*
Y435118D01*
X354906Y424882D02*
Y435118D01*
X396457Y302606D02*
Y303394D01*
X403543*
Y302606*
X396457*
X398677D02*
Y303394D01*
X401252Y302606D02*
Y303394D01*
X396457Y297606D02*
Y298394D01*
X403543*
Y297606*
X396457*
Y298260D02*
X403543D01*
X398677Y297606D02*
Y298394D01*
X401252Y297606D02*
Y298394D01*
X396457Y292606D02*
Y293394D01*
X403543*
Y292606*
X396457*
Y293110D02*
X403543D01*
X398677Y292606D02*
Y293394D01*
X401252Y292606D02*
Y293394D01*
X396457Y287606D02*
Y288394D01*
X403543*
Y287606*
X396457*
Y287961D02*
X403543D01*
X398677Y287606D02*
Y288394D01*
X401252Y287606D02*
Y288394D01*
X396457Y282606D02*
Y283394D01*
X403543*
Y282606*
X396457*
Y282811D02*
X403543D01*
X398677Y282606D02*
Y283394D01*
X401252Y282606D02*
Y283394D01*
X420866Y299102D02*
X427953D01*
Y286898*
X420866*
Y299102*
Y287961D02*
X427953D01*
X420866Y290535D02*
X427953D01*
X420866Y293110D02*
X427953D01*
X420866Y295685D02*
X427953D01*
X420866Y298260D02*
X427953D01*
X421850Y286898D02*
Y299102D01*
X424425Y286898D02*
Y299102D01*
X427000Y286898D02*
Y299102D01*
X385457Y204106D02*
Y204894D01*
X392543*
Y204106*
X385457*
X385803D02*
Y204894D01*
X388378Y204106D02*
Y204894D01*
X390953Y204106D02*
Y204894D01*
X385457Y199106D02*
Y199894D01*
X392543*
Y199106*
X385457*
X385803D02*
Y199894D01*
X388378Y199106D02*
Y199894D01*
X390953Y199106D02*
Y199894D01*
X385457Y194106D02*
Y194894D01*
X392543*
Y194106*
X385457*
X385803D02*
Y194894D01*
X388378Y194106D02*
Y194894D01*
X390953Y194106D02*
Y194894D01*
X385457Y189106D02*
Y189894D01*
X392543*
Y189106*
X385457*
X385803D02*
Y189894D01*
X388378Y189106D02*
Y189894D01*
X390953Y189106D02*
Y189894D01*
X385457Y184106D02*
Y184894D01*
X392543*
Y184106*
X385457*
X385803D02*
Y184894D01*
X388378Y184106D02*
Y184894D01*
X390953Y184106D02*
Y184894D01*
X409866Y200602D02*
X416953D01*
Y188398*
X409866*
Y200602*
Y190118D02*
X416953D01*
X409866Y192693D02*
X416953D01*
X409866Y195268D02*
X416953D01*
X409866Y197843D02*
X416953D01*
X409866Y200417D02*
X416953D01*
X411551Y188398D02*
Y200602D01*
X414126Y188398D02*
Y200602D01*
X416701Y188398D02*
Y200602D01*
G54D19*
X139200Y441700D02*
Y444300D01*
X142600*
Y441700*
X139200*
Y443000D02*
X142600D01*
X139200Y441700D02*
Y444300D01*
X140600Y441700D02*
Y444300D01*
X142000Y441700D02*
Y444300D01*
X145400Y441700D02*
Y444300D01*
X148800*
Y441700*
X145400*
Y443000D02*
X148800D01*
X146200Y441700D02*
Y444300D01*
X147600Y441700D02*
Y444300D01*
X166700Y417800D02*
X169300D01*
Y414400*
X166700*
Y417800*
Y415000D02*
X169300D01*
X166700Y416400D02*
X169300D01*
X166700Y417800D02*
X169300D01*
X167200Y414400D02*
Y417800D01*
X168600Y414400D02*
Y417800D01*
X166700Y411600D02*
X169300D01*
Y408200*
X166700*
Y411600*
Y409400D02*
X169300D01*
X166700Y410800D02*
X169300D01*
X167200Y408200D02*
Y411600D01*
X168600Y408200D02*
Y411600D01*
X168800Y444300D02*
Y441700D01*
X165400*
Y444300*
X168800*
X165400Y443000D02*
X168800D01*
X165800Y441700D02*
Y444300D01*
X167200Y441700D02*
Y444300D01*
X168600Y441700D02*
Y444300D01*
X162600D02*
Y441700D01*
X159200*
Y444300*
X162600*
X159200Y443000D02*
X162600D01*
X160200Y441700D02*
Y444300D01*
X161600Y441700D02*
Y444300D01*
X206300Y384300D02*
Y381700D01*
X202900*
Y384300*
X206300*
X202900Y382800D02*
X206300D01*
X202900Y384200D02*
X206300D01*
X203600Y381700D02*
Y384300D01*
X205000Y381700D02*
Y384300D01*
X200100D02*
Y381700D01*
X196700*
Y384300*
X200100*
X196700Y382800D02*
X200100D01*
X196700Y384200D02*
X200100D01*
X198000Y381700D02*
Y384300D01*
X199400Y381700D02*
Y384300D01*
X206300Y349800D02*
Y347200D01*
X202900*
Y349800*
X206300*
X202900Y347800D02*
X206300D01*
X202900Y349200D02*
X206300D01*
X203600Y347200D02*
Y349800D01*
X205000Y347200D02*
Y349800D01*
X200100D02*
Y347200D01*
X196700*
Y349800*
X200100*
X196700Y347800D02*
X200100D01*
X196700Y349200D02*
X200100D01*
X198000Y347200D02*
Y349800D01*
X199400Y347200D02*
Y349800D01*
X157200Y329300D02*
X159800D01*
Y325900*
X157200*
Y329300*
Y326800D02*
X159800D01*
X157200Y328200D02*
X159800D01*
X157400Y325900D02*
Y329300D01*
X158800Y325900D02*
Y329300D01*
X157200Y323100D02*
X159800D01*
Y319700*
X157200*
Y323100*
Y319800D02*
X159800D01*
X157200Y321200D02*
X159800D01*
X157200Y322600D02*
X159800D01*
X157400Y319700D02*
Y323100D01*
X158800Y319700D02*
Y323100D01*
X117300Y349800D02*
Y347200D01*
X113900*
Y349800*
X117300*
X113900Y347800D02*
X117300D01*
X113900Y349200D02*
X117300D01*
X114000Y347200D02*
Y349800D01*
X115400Y347200D02*
Y349800D01*
X116800Y347200D02*
Y349800D01*
X111100D02*
Y347200D01*
X107700*
Y349800*
X111100*
X107700Y347800D02*
X111100D01*
X107700Y349200D02*
X111100D01*
X108400Y347200D02*
Y349800D01*
X109800Y347200D02*
Y349800D01*
X144300Y408200D02*
X141700D01*
Y411600*
X144300*
Y408200*
X141700Y409400D02*
X144300D01*
X141700Y410800D02*
X144300D01*
X142000Y408200D02*
Y411600D01*
X143400Y408200D02*
Y411600D01*
X144300Y414400D02*
X141700D01*
Y417800*
X144300*
Y414400*
X141700Y415000D02*
X144300D01*
X141700Y416400D02*
X144300D01*
X141700Y417800D02*
X144300D01*
X142000Y414400D02*
Y417800D01*
X143400Y414400D02*
Y417800D01*
X179800Y289300D02*
Y286700D01*
X176400*
Y289300*
X179800*
X176400Y287600D02*
X179800D01*
X176400Y289000D02*
X179800D01*
X177000Y286700D02*
Y289300D01*
X178400Y286700D02*
Y289300D01*
X179800Y286700D02*
Y289300D01*
X173600D02*
Y286700D01*
X170200*
Y289300*
X173600*
X170200Y287600D02*
X173600D01*
X170200Y289000D02*
X173600D01*
X171400Y286700D02*
Y289300D01*
X172800Y286700D02*
Y289300D01*
X179800Y304300D02*
Y301700D01*
X176400*
Y304300*
X179800*
X176400Y303000D02*
X179800D01*
X177000Y301700D02*
Y304300D01*
X178400Y301700D02*
Y304300D01*
X179800Y301700D02*
Y304300D01*
X173600D02*
Y301700D01*
X170200*
Y304300*
X173600*
X170200Y303000D02*
X173600D01*
X171400Y301700D02*
Y304300D01*
X172800Y301700D02*
Y304300D01*
X195200Y311700D02*
Y314300D01*
X198600*
Y311700*
X195200*
Y312800D02*
X198600D01*
X195200Y314200D02*
X198600D01*
X195200Y311700D02*
Y314300D01*
X196600Y311700D02*
Y314300D01*
X198000Y311700D02*
Y314300D01*
X201400Y311700D02*
Y314300D01*
X204800*
Y311700*
X201400*
Y312800D02*
X204800D01*
X201400Y314200D02*
X204800D01*
X202200Y311700D02*
Y314300D01*
X203600Y311700D02*
Y314300D01*
X232800Y384300D02*
Y381700D01*
X229400*
Y384300*
X232800*
X229400Y382800D02*
X232800D01*
X229400Y384200D02*
X232800D01*
X230200Y381700D02*
Y384300D01*
X231600Y381700D02*
Y384300D01*
X226600D02*
Y381700D01*
X223200*
Y384300*
X226600*
X223200Y382800D02*
X226600D01*
X223200Y384200D02*
X226600D01*
X223200Y381700D02*
Y384300D01*
X224600Y381700D02*
Y384300D01*
X226000Y381700D02*
Y384300D01*
X251700Y359800D02*
X254300D01*
Y356400*
X251700*
Y359800*
Y357600D02*
X254300D01*
X251700Y359000D02*
X254300D01*
X252600Y356400D02*
Y359800D01*
X254000Y356400D02*
Y359800D01*
X251700Y353600D02*
X254300D01*
Y350200*
X251700*
Y353600*
Y350600D02*
X254300D01*
X251700Y352000D02*
X254300D01*
X251700Y353400D02*
X254300D01*
X252600Y350200D02*
Y353600D01*
X254000Y350200D02*
Y353600D01*
X257700Y328800D02*
X260300D01*
Y325400*
X257700*
Y328800*
Y325400D02*
X260300D01*
X257700Y326800D02*
X260300D01*
X257700Y328200D02*
X260300D01*
X258200Y325400D02*
Y328800D01*
X259600Y325400D02*
Y328800D01*
X257700Y322600D02*
X260300D01*
Y319200*
X257700*
Y322600*
Y319800D02*
X260300D01*
X257700Y321200D02*
X260300D01*
X257700Y322600D02*
X260300D01*
X258200Y319200D02*
Y322600D01*
X259600Y319200D02*
Y322600D01*
X247700Y302800D02*
X250300D01*
Y299400*
X247700*
Y302800*
Y300200D02*
X250300D01*
X247700Y301600D02*
X250300D01*
X248400Y299400D02*
Y302800D01*
X249800Y299400D02*
Y302800D01*
X247700Y296600D02*
X250300D01*
Y293200*
X247700*
Y296600*
Y293200D02*
X250300D01*
X247700Y294600D02*
X250300D01*
X247700Y296000D02*
X250300D01*
X248400Y293200D02*
Y296600D01*
X249800Y293200D02*
Y296600D01*
X168800Y190800D02*
Y188200D01*
X165400*
Y190800*
X168800*
X165400Y188200D02*
X168800D01*
X165400Y189600D02*
X168800D01*
X165800Y188200D02*
Y190800D01*
X167200Y188200D02*
Y190800D01*
X168600Y188200D02*
Y190800D01*
X162600D02*
Y188200D01*
X159200*
Y190800*
X162600*
X159200Y188200D02*
X162600D01*
X159200Y189600D02*
X162600D01*
X160200Y188200D02*
Y190800D01*
X161600Y188200D02*
Y190800D01*
X168800Y205800D02*
Y203200D01*
X165400*
Y205800*
X168800*
X165400Y203600D02*
X168800D01*
X165400Y205000D02*
X168800D01*
X165800Y203200D02*
Y205800D01*
X167200Y203200D02*
Y205800D01*
X168600Y203200D02*
Y205800D01*
X162600D02*
Y203200D01*
X159200*
Y205800*
X162600*
X159200Y203600D02*
X162600D01*
X159200Y205000D02*
X162600D01*
X160200Y203200D02*
Y205800D01*
X161600Y203200D02*
Y205800D01*
X268200Y215700D02*
Y218300D01*
X271600*
Y215700*
X268200*
Y216200D02*
X271600D01*
X268200Y217600D02*
X271600D01*
X269400Y215700D02*
Y218300D01*
X270800Y215700D02*
Y218300D01*
X274400Y215700D02*
Y218300D01*
X277800*
Y215700*
X274400*
Y216200D02*
X277800D01*
X274400Y217600D02*
X277800D01*
X275000Y215700D02*
Y218300D01*
X276400Y215700D02*
Y218300D01*
X277800Y215700D02*
Y218300D01*
X251800Y242300D02*
Y239700D01*
X248400*
Y242300*
X251800*
X248400Y240000D02*
X251800D01*
X248400Y241400D02*
X251800D01*
X248400Y239700D02*
Y242300D01*
X249800Y239700D02*
Y242300D01*
X251200Y239700D02*
Y242300D01*
X245600D02*
Y239700D01*
X242200*
Y242300*
X245600*
X242200Y240000D02*
X245600D01*
X242200Y241400D02*
X245600D01*
X242800Y239700D02*
Y242300D01*
X244200Y239700D02*
Y242300D01*
X245600Y239700D02*
Y242300D01*
X290700Y238800D02*
X293300D01*
Y235400*
X290700*
Y238800*
Y235800D02*
X293300D01*
X290700Y237200D02*
X293300D01*
X290700Y238600D02*
X293300D01*
X291800Y235400D02*
Y238800D01*
X293200Y235400D02*
Y238800D01*
X290700Y232600D02*
X293300D01*
Y229200*
X290700*
Y232600*
Y230200D02*
X293300D01*
X290700Y231600D02*
X293300D01*
X291800Y229200D02*
Y232600D01*
X293200Y229200D02*
Y232600D01*
X221200Y236700D02*
Y239300D01*
X224600*
Y236700*
X221200*
Y237200D02*
X224600D01*
X221200Y238600D02*
X224600D01*
X221800Y236700D02*
Y239300D01*
X223200Y236700D02*
Y239300D01*
X224600Y236700D02*
Y239300D01*
X227400Y236700D02*
Y239300D01*
X230800*
Y236700*
X227400*
Y237200D02*
X230800D01*
X227400Y238600D02*
X230800D01*
X227400Y236700D02*
Y239300D01*
X228800Y236700D02*
Y239300D01*
X230200Y236700D02*
Y239300D01*
X184800Y236300D02*
Y233700D01*
X181400*
Y236300*
X184800*
X181400Y234400D02*
X184800D01*
X181400Y235800D02*
X184800D01*
X182600Y233700D02*
Y236300D01*
X184000Y233700D02*
Y236300D01*
X178600D02*
Y233700D01*
X175200*
Y236300*
X178600*
X175200Y234400D02*
X178600D01*
X175200Y235800D02*
X178600D01*
X175600Y233700D02*
Y236300D01*
X177000Y233700D02*
Y236300D01*
X178400Y233700D02*
Y236300D01*
X184800Y229300D02*
Y226700D01*
X181400*
Y229300*
X184800*
X181400Y227400D02*
X184800D01*
X181400Y228800D02*
X184800D01*
X182600Y226700D02*
Y229300D01*
X184000Y226700D02*
Y229300D01*
X178600D02*
Y226700D01*
X175200*
Y229300*
X178600*
X175200Y227400D02*
X178600D01*
X175200Y228800D02*
X178600D01*
X175600Y226700D02*
Y229300D01*
X177000Y226700D02*
Y229300D01*
X178400Y226700D02*
Y229300D01*
X184800Y222300D02*
Y219700D01*
X181400*
Y222300*
X184800*
X181400Y220400D02*
X184800D01*
X181400Y221800D02*
X184800D01*
X182600Y219700D02*
Y222300D01*
X184000Y219700D02*
Y222300D01*
X178600D02*
Y219700D01*
X175200*
Y222300*
X178600*
X175200Y220400D02*
X178600D01*
X175200Y221800D02*
X178600D01*
X175600Y219700D02*
Y222300D01*
X177000Y219700D02*
Y222300D01*
X178400Y219700D02*
Y222300D01*
X283700Y238800D02*
X286300D01*
Y235400*
X283700*
Y238800*
Y235800D02*
X286300D01*
X283700Y237200D02*
X286300D01*
X283700Y238600D02*
X286300D01*
X284800Y235400D02*
Y238800D01*
X286200Y235400D02*
Y238800D01*
X283700Y232600D02*
X286300D01*
Y229200*
X283700*
Y232600*
Y230200D02*
X286300D01*
X283700Y231600D02*
X286300D01*
X284800Y229200D02*
Y232600D01*
X286200Y229200D02*
Y232600D01*
X279300Y229200D02*
X276700D01*
Y232600*
X279300*
Y229200*
X276700Y230200D02*
X279300D01*
X276700Y231600D02*
X279300D01*
X277800Y229200D02*
Y232600D01*
X279200Y229200D02*
Y232600D01*
X279300Y235400D02*
X276700D01*
Y238800*
X279300*
Y235400*
X276700Y235800D02*
X279300D01*
X276700Y237200D02*
X279300D01*
X276700Y238600D02*
X279300D01*
X277800Y235400D02*
Y238800D01*
X279200Y235400D02*
Y238800D01*
X247200Y201700D02*
Y204300D01*
X250600*
Y201700*
X247200*
Y202200D02*
X250600D01*
X247200Y203600D02*
X250600D01*
X248400Y201700D02*
Y204300D01*
X249800Y201700D02*
Y204300D01*
X253400Y201700D02*
Y204300D01*
X256800*
Y201700*
X253400*
Y202200D02*
X256800D01*
X253400Y203600D02*
X256800D01*
X254000Y201700D02*
Y204300D01*
X255400Y201700D02*
Y204300D01*
X256800Y201700D02*
Y204300D01*
X264800Y167300D02*
Y164700D01*
X261400*
Y167300*
X264800*
X261400Y165800D02*
X264800D01*
X261400Y167200D02*
X264800D01*
X262400Y164700D02*
Y167300D01*
X263800Y164700D02*
Y167300D01*
X258600D02*
Y164700D01*
X255200*
Y167300*
X258600*
X255200Y165800D02*
X258600D01*
X255200Y167200D02*
X258600D01*
X255400Y164700D02*
Y167300D01*
X256800Y164700D02*
Y167300D01*
X258200Y164700D02*
Y167300D01*
X254800Y160300D02*
Y157700D01*
X251400*
Y160300*
X254800*
X251400Y158800D02*
X254800D01*
X251400Y160200D02*
X254800D01*
X252600Y157700D02*
Y160300D01*
X254000Y157700D02*
Y160300D01*
X248600D02*
Y157700D01*
X245200*
Y160300*
X248600*
X245200Y158800D02*
X248600D01*
X245200Y160200D02*
X248600D01*
X245600Y157700D02*
Y160300D01*
X247000Y157700D02*
Y160300D01*
X248400Y157700D02*
Y160300D01*
X292700Y151800D02*
X295300D01*
Y148400*
X292700*
Y151800*
Y149000D02*
X295300D01*
X292700Y150400D02*
X295300D01*
X292700Y151800D02*
X295300D01*
X293200Y148400D02*
Y151800D01*
X294600Y148400D02*
Y151800D01*
X292700Y145600D02*
X295300D01*
Y142200*
X292700*
Y145600*
Y143400D02*
X295300D01*
X292700Y144800D02*
X295300D01*
X293200Y142200D02*
Y145600D01*
X294600Y142200D02*
Y145600D01*
X167200Y240700D02*
Y243300D01*
X170600*
Y240700*
X167200*
Y241400D02*
X170600D01*
X167200Y242800D02*
X170600D01*
X167200Y240700D02*
Y243300D01*
X168600Y240700D02*
Y243300D01*
X170000Y240700D02*
Y243300D01*
X173400Y240700D02*
Y243300D01*
X176800*
Y240700*
X173400*
Y241400D02*
X176800D01*
X173400Y242800D02*
X176800D01*
X174200Y240700D02*
Y243300D01*
X175600Y240700D02*
Y243300D01*
X252700Y151800D02*
X255300D01*
Y148400*
X252700*
Y151800*
Y149000D02*
X255300D01*
X252700Y150400D02*
X255300D01*
X252700Y151800D02*
X255300D01*
X254000Y148400D02*
Y151800D01*
X252700Y145600D02*
X255300D01*
Y142200*
X252700*
Y145600*
Y143400D02*
X255300D01*
X252700Y144800D02*
X255300D01*
X254000Y142200D02*
Y145600D01*
X135200Y206700D02*
Y209300D01*
X138600*
Y206700*
X135200*
Y207800D02*
X138600D01*
X135200Y209200D02*
X138600D01*
X136400Y206700D02*
Y209300D01*
X137800Y206700D02*
Y209300D01*
X141400Y206700D02*
Y209300D01*
X144800*
Y206700*
X141400*
Y207800D02*
X144800D01*
X141400Y209200D02*
X144800D01*
X142000Y206700D02*
Y209300D01*
X143400Y206700D02*
Y209300D01*
X144800Y206700D02*
Y209300D01*
X114200Y222700D02*
Y225300D01*
X117600*
Y222700*
X114200*
Y223200D02*
X117600D01*
X114200Y224600D02*
X117600D01*
X115400Y222700D02*
Y225300D01*
X116800Y222700D02*
Y225300D01*
X120400Y222700D02*
Y225300D01*
X123800*
Y222700*
X120400*
Y223200D02*
X123800D01*
X120400Y224600D02*
X123800D01*
X121000Y222700D02*
Y225300D01*
X122400Y222700D02*
Y225300D01*
X123800Y222700D02*
Y225300D01*
X135200Y214200D02*
Y216800D01*
X138600*
Y214200*
X135200*
Y214800D02*
X138600D01*
X135200Y216200D02*
X138600D01*
X136400Y214200D02*
Y216800D01*
X137800Y214200D02*
Y216800D01*
X141400Y214200D02*
Y216800D01*
X144800*
Y214200*
X141400*
Y214800D02*
X144800D01*
X141400Y216200D02*
X144800D01*
X142000Y214200D02*
Y216800D01*
X143400Y214200D02*
Y216800D01*
X144800Y214200D02*
Y216800D01*
X143800Y222200D02*
X141200D01*
Y225600*
X143800*
Y222200*
X141200Y223200D02*
X143800D01*
X141200Y224600D02*
X143800D01*
X142000Y222200D02*
Y225600D01*
X143400Y222200D02*
Y225600D01*
X143800Y228400D02*
X141200D01*
Y231800*
X143800*
Y228400*
X141200Y228800D02*
X143800D01*
X141200Y230200D02*
X143800D01*
X141200Y231600D02*
X143800D01*
X142000Y228400D02*
Y231800D01*
X143400Y228400D02*
Y231800D01*
X150800Y202300D02*
Y199700D01*
X147400*
Y202300*
X150800*
X147400Y200800D02*
X150800D01*
X147400Y202200D02*
X150800D01*
X147600Y199700D02*
Y202300D01*
X149000Y199700D02*
Y202300D01*
X150400Y199700D02*
Y202300D01*
X144600D02*
Y199700D01*
X141200*
Y202300*
X144600*
X141200Y200800D02*
X144600D01*
X141200Y202200D02*
X144600D01*
X142000Y199700D02*
Y202300D01*
X143400Y199700D02*
Y202300D01*
X119800Y399300D02*
Y396700D01*
X116400*
Y399300*
X119800*
X116400Y396800D02*
X119800D01*
X116400Y398200D02*
X119800D01*
X116800Y396700D02*
Y399300D01*
X118200Y396700D02*
Y399300D01*
X119600Y396700D02*
Y399300D01*
X113600D02*
Y396700D01*
X110200*
Y399300*
X113600*
X110200Y396800D02*
X113600D01*
X110200Y398200D02*
X113600D01*
X111200Y396700D02*
Y399300D01*
X112600Y396700D02*
Y399300D01*
X253200Y208700D02*
Y211300D01*
X256600*
Y208700*
X253200*
Y209200D02*
X256600D01*
X253200Y210600D02*
X256600D01*
X254000Y208700D02*
Y211300D01*
X255400Y208700D02*
Y211300D01*
X259400Y208700D02*
Y211300D01*
X262800*
Y208700*
X259400*
Y209200D02*
X262800D01*
X259400Y210600D02*
X262800D01*
X259600Y208700D02*
Y211300D01*
X261000Y208700D02*
Y211300D01*
X262400Y208700D02*
Y211300D01*
X248800D02*
Y208700D01*
X245400*
Y211300*
X248800*
X245400Y209200D02*
X248800D01*
X245400Y210600D02*
X248800D01*
X245600Y208700D02*
Y211300D01*
X247000Y208700D02*
Y211300D01*
X248400Y208700D02*
Y211300D01*
X242600D02*
Y208700D01*
X239200*
Y211300*
X242600*
X239200Y209200D02*
X242600D01*
X239200Y210600D02*
X242600D01*
X240000Y208700D02*
Y211300D01*
X241400Y208700D02*
Y211300D01*
X119800Y406300D02*
Y403700D01*
X116400*
Y406300*
X119800*
X116400Y403800D02*
X119800D01*
X116400Y405200D02*
X119800D01*
X116800Y403700D02*
Y406300D01*
X118200Y403700D02*
Y406300D01*
X119600Y403700D02*
Y406300D01*
X113600D02*
Y403700D01*
X110200*
Y406300*
X113600*
X110200Y403800D02*
X113600D01*
X110200Y405200D02*
X113600D01*
X111200Y403700D02*
Y406300D01*
X112600Y403700D02*
Y406300D01*
X119800Y413300D02*
Y410700D01*
X116400*
Y413300*
X119800*
X116400Y410800D02*
X119800D01*
X116400Y412200D02*
X119800D01*
X116800Y410700D02*
Y413300D01*
X118200Y410700D02*
Y413300D01*
X119600Y410700D02*
Y413300D01*
X113600D02*
Y410700D01*
X110200*
Y413300*
X113600*
X110200Y410800D02*
X113600D01*
X110200Y412200D02*
X113600D01*
X111200Y410700D02*
Y413300D01*
X112600Y410700D02*
Y413300D01*
X351200Y441700D02*
Y444300D01*
X354600*
Y441700*
X351200*
Y443000D02*
X354600D01*
X352000Y441700D02*
Y444300D01*
X353400Y441700D02*
Y444300D01*
X357400Y441700D02*
Y444300D01*
X360800*
Y441700*
X357400*
Y443000D02*
X360800D01*
X357600Y441700D02*
Y444300D01*
X359000Y441700D02*
Y444300D01*
X360400Y441700D02*
Y444300D01*
X378700Y417800D02*
X381300D01*
Y414400*
X378700*
Y417800*
Y415000D02*
X381300D01*
X378700Y416400D02*
X381300D01*
X378700Y417800D02*
X381300D01*
X380000Y414400D02*
Y417800D01*
X378700Y411600D02*
X381300D01*
Y408200*
X378700*
Y411600*
Y409400D02*
X381300D01*
X378700Y410800D02*
X381300D01*
X380000Y408200D02*
Y411600D01*
X380800Y444300D02*
Y441700D01*
X377400*
Y444300*
X380800*
X377400Y443000D02*
X380800D01*
X378600Y441700D02*
Y444300D01*
X380000Y441700D02*
Y444300D01*
X374600D02*
Y441700D01*
X371200*
Y444300*
X374600*
X371200Y443000D02*
X374600D01*
X371600Y441700D02*
Y444300D01*
X373000Y441700D02*
Y444300D01*
X374400Y441700D02*
Y444300D01*
X418300Y384300D02*
Y381700D01*
X414900*
Y384300*
X418300*
X414900Y382800D02*
X418300D01*
X414900Y384200D02*
X418300D01*
X415000Y381700D02*
Y384300D01*
X416400Y381700D02*
Y384300D01*
X417800Y381700D02*
Y384300D01*
X412100D02*
Y381700D01*
X408700*
Y384300*
X412100*
X408700Y382800D02*
X412100D01*
X408700Y384200D02*
X412100D01*
X409400Y381700D02*
Y384300D01*
X410800Y381700D02*
Y384300D01*
X418300Y349800D02*
Y347200D01*
X414900*
Y349800*
X418300*
X414900Y347800D02*
X418300D01*
X414900Y349200D02*
X418300D01*
X415000Y347200D02*
Y349800D01*
X416400Y347200D02*
Y349800D01*
X417800Y347200D02*
Y349800D01*
X412100D02*
Y347200D01*
X408700*
Y349800*
X412100*
X408700Y347800D02*
X412100D01*
X408700Y349200D02*
X412100D01*
X409400Y347200D02*
Y349800D01*
X410800Y347200D02*
Y349800D01*
X369200Y329300D02*
X371800D01*
Y325900*
X369200*
Y329300*
Y326800D02*
X371800D01*
X369200Y328200D02*
X371800D01*
X370200Y325900D02*
Y329300D01*
X371600Y325900D02*
Y329300D01*
X369200Y323100D02*
X371800D01*
Y319700*
X369200*
Y323100*
Y319800D02*
X371800D01*
X369200Y321200D02*
X371800D01*
X369200Y322600D02*
X371800D01*
X370200Y319700D02*
Y323100D01*
X371600Y319700D02*
Y323100D01*
X329300Y349800D02*
Y347200D01*
X325900*
Y349800*
X329300*
X325900Y347800D02*
X329300D01*
X325900Y349200D02*
X329300D01*
X326800Y347200D02*
Y349800D01*
X328200Y347200D02*
Y349800D01*
X323100D02*
Y347200D01*
X319700*
Y349800*
X323100*
X319700Y347800D02*
X323100D01*
X319700Y349200D02*
X323100D01*
X319800Y347200D02*
Y349800D01*
X321200Y347200D02*
Y349800D01*
X322600Y347200D02*
Y349800D01*
X356300Y408200D02*
X353700D01*
Y411600*
X356300*
Y408200*
X353700Y409400D02*
X356300D01*
X353700Y410800D02*
X356300D01*
X354800Y408200D02*
Y411600D01*
X356200Y408200D02*
Y411600D01*
X356300Y414400D02*
X353700D01*
Y417800*
X356300*
Y414400*
X353700Y415000D02*
X356300D01*
X353700Y416400D02*
X356300D01*
X353700Y417800D02*
X356300D01*
X354800Y414400D02*
Y417800D01*
X356200Y414400D02*
Y417800D01*
X391800Y289300D02*
Y286700D01*
X388400*
Y289300*
X391800*
X388400Y287600D02*
X391800D01*
X388400Y289000D02*
X391800D01*
X388400Y286700D02*
Y289300D01*
X389800Y286700D02*
Y289300D01*
X391200Y286700D02*
Y289300D01*
X385600D02*
Y286700D01*
X382200*
Y289300*
X385600*
X382200Y287600D02*
X385600D01*
X382200Y289000D02*
X385600D01*
X382800Y286700D02*
Y289300D01*
X384200Y286700D02*
Y289300D01*
X385600Y286700D02*
Y289300D01*
X391800Y304300D02*
Y301700D01*
X388400*
Y304300*
X391800*
X388400Y303000D02*
X391800D01*
X388400Y301700D02*
Y304300D01*
X389800Y301700D02*
Y304300D01*
X391200Y301700D02*
Y304300D01*
X385600D02*
Y301700D01*
X382200*
Y304300*
X385600*
X382200Y303000D02*
X385600D01*
X382800Y301700D02*
Y304300D01*
X384200Y301700D02*
Y304300D01*
X385600Y301700D02*
Y304300D01*
X407200Y311700D02*
Y314300D01*
X410600*
Y311700*
X407200*
Y312800D02*
X410600D01*
X407200Y314200D02*
X410600D01*
X408000Y311700D02*
Y314300D01*
X409400Y311700D02*
Y314300D01*
X413400Y311700D02*
Y314300D01*
X416800*
Y311700*
X413400*
Y312800D02*
X416800D01*
X413400Y314200D02*
X416800D01*
X413600Y311700D02*
Y314300D01*
X415000Y311700D02*
Y314300D01*
X416400Y311700D02*
Y314300D01*
X444800Y384300D02*
Y381700D01*
X441400*
Y384300*
X444800*
X441400Y382800D02*
X444800D01*
X441400Y384200D02*
X444800D01*
X441600Y381700D02*
Y384300D01*
X443000Y381700D02*
Y384300D01*
X444400Y381700D02*
Y384300D01*
X438600D02*
Y381700D01*
X435200*
Y384300*
X438600*
X435200Y382800D02*
X438600D01*
X435200Y384200D02*
X438600D01*
X436000Y381700D02*
Y384300D01*
X437400Y381700D02*
Y384300D01*
X463700Y359800D02*
X466300D01*
Y356400*
X463700*
Y359800*
Y357600D02*
X466300D01*
X463700Y359000D02*
X466300D01*
X464000Y356400D02*
Y359800D01*
X465400Y356400D02*
Y359800D01*
X463700Y353600D02*
X466300D01*
Y350200*
X463700*
Y353600*
Y350600D02*
X466300D01*
X463700Y352000D02*
X466300D01*
X463700Y353400D02*
X466300D01*
X464000Y350200D02*
Y353600D01*
X465400Y350200D02*
Y353600D01*
X469700Y328800D02*
X472300D01*
Y325400*
X469700*
Y328800*
Y325400D02*
X472300D01*
X469700Y326800D02*
X472300D01*
X469700Y328200D02*
X472300D01*
X471000Y325400D02*
Y328800D01*
X469700Y322600D02*
X472300D01*
Y319200*
X469700*
Y322600*
Y319800D02*
X472300D01*
X469700Y321200D02*
X472300D01*
X469700Y322600D02*
X472300D01*
X471000Y319200D02*
Y322600D01*
X459700Y302800D02*
X462300D01*
Y299400*
X459700*
Y302800*
Y300200D02*
X462300D01*
X459700Y301600D02*
X462300D01*
X459800Y299400D02*
Y302800D01*
X461200Y299400D02*
Y302800D01*
X459700Y296600D02*
X462300D01*
Y293200*
X459700*
Y296600*
Y293200D02*
X462300D01*
X459700Y294600D02*
X462300D01*
X459700Y296000D02*
X462300D01*
X459800Y293200D02*
Y296600D01*
X461200Y293200D02*
Y296600D01*
X380800Y190800D02*
Y188200D01*
X377400*
Y190800*
X380800*
X377400Y188200D02*
X380800D01*
X377400Y189600D02*
X380800D01*
X378600Y188200D02*
Y190800D01*
X380000Y188200D02*
Y190800D01*
X374600D02*
Y188200D01*
X371200*
Y190800*
X374600*
X371200Y188200D02*
X374600D01*
X371200Y189600D02*
X374600D01*
X371600Y188200D02*
Y190800D01*
X373000Y188200D02*
Y190800D01*
X374400Y188200D02*
Y190800D01*
X380800Y205800D02*
Y203200D01*
X377400*
Y205800*
X380800*
X377400Y203600D02*
X380800D01*
X377400Y205000D02*
X380800D01*
X378600Y203200D02*
Y205800D01*
X380000Y203200D02*
Y205800D01*
X374600D02*
Y203200D01*
X371200*
Y205800*
X374600*
X371200Y203600D02*
X374600D01*
X371200Y205000D02*
X374600D01*
X371600Y203200D02*
Y205800D01*
X373000Y203200D02*
Y205800D01*
X374400Y203200D02*
Y205800D01*
X480200Y215700D02*
Y218300D01*
X483600*
Y215700*
X480200*
Y216200D02*
X483600D01*
X480200Y217600D02*
X483600D01*
X480800Y215700D02*
Y218300D01*
X482200Y215700D02*
Y218300D01*
X483600Y215700D02*
Y218300D01*
X486400Y215700D02*
Y218300D01*
X489800*
Y215700*
X486400*
Y216200D02*
X489800D01*
X486400Y217600D02*
X489800D01*
X486400Y215700D02*
Y218300D01*
X487800Y215700D02*
Y218300D01*
X489200Y215700D02*
Y218300D01*
X463800Y242300D02*
Y239700D01*
X460400*
Y242300*
X463800*
X460400Y240000D02*
X463800D01*
X460400Y241400D02*
X463800D01*
X461200Y239700D02*
Y242300D01*
X462600Y239700D02*
Y242300D01*
X457600D02*
Y239700D01*
X454200*
Y242300*
X457600*
X454200Y240000D02*
X457600D01*
X454200Y241400D02*
X457600D01*
X454200Y239700D02*
Y242300D01*
X455600Y239700D02*
Y242300D01*
X457000Y239700D02*
Y242300D01*
X502700Y238800D02*
X505300D01*
Y235400*
X502700*
Y238800*
Y235800D02*
X505300D01*
X502700Y237200D02*
X505300D01*
X502700Y238600D02*
X505300D01*
X503200Y235400D02*
Y238800D01*
X504600Y235400D02*
Y238800D01*
X502700Y232600D02*
X505300D01*
Y229200*
X502700*
Y232600*
Y230200D02*
X505300D01*
X502700Y231600D02*
X505300D01*
X503200Y229200D02*
Y232600D01*
X504600Y229200D02*
Y232600D01*
X433200Y236700D02*
Y239300D01*
X436600*
Y236700*
X433200*
Y237200D02*
X436600D01*
X433200Y238600D02*
X436600D01*
X433200Y236700D02*
Y239300D01*
X434600Y236700D02*
Y239300D01*
X436000Y236700D02*
Y239300D01*
X439400Y236700D02*
Y239300D01*
X442800*
Y236700*
X439400*
Y237200D02*
X442800D01*
X439400Y238600D02*
X442800D01*
X440200Y236700D02*
Y239300D01*
X441600Y236700D02*
Y239300D01*
X396800Y236300D02*
Y233700D01*
X393400*
Y236300*
X396800*
X393400Y234400D02*
X396800D01*
X393400Y235800D02*
X396800D01*
X394000Y233700D02*
Y236300D01*
X395400Y233700D02*
Y236300D01*
X396800Y233700D02*
Y236300D01*
X390600D02*
Y233700D01*
X387200*
Y236300*
X390600*
X387200Y234400D02*
X390600D01*
X387200Y235800D02*
X390600D01*
X388400Y233700D02*
Y236300D01*
X389800Y233700D02*
Y236300D01*
X396800Y229300D02*
Y226700D01*
X393400*
Y229300*
X396800*
X393400Y227400D02*
X396800D01*
X393400Y228800D02*
X396800D01*
X394000Y226700D02*
Y229300D01*
X395400Y226700D02*
Y229300D01*
X396800Y226700D02*
Y229300D01*
X390600D02*
Y226700D01*
X387200*
Y229300*
X390600*
X387200Y227400D02*
X390600D01*
X387200Y228800D02*
X390600D01*
X388400Y226700D02*
Y229300D01*
X389800Y226700D02*
Y229300D01*
X396800Y222300D02*
Y219700D01*
X393400*
Y222300*
X396800*
X393400Y220400D02*
X396800D01*
X393400Y221800D02*
X396800D01*
X394000Y219700D02*
Y222300D01*
X395400Y219700D02*
Y222300D01*
X396800Y219700D02*
Y222300D01*
X390600D02*
Y219700D01*
X387200*
Y222300*
X390600*
X387200Y220400D02*
X390600D01*
X387200Y221800D02*
X390600D01*
X388400Y219700D02*
Y222300D01*
X389800Y219700D02*
Y222300D01*
X495700Y238800D02*
X498300D01*
Y235400*
X495700*
Y238800*
Y235800D02*
X498300D01*
X495700Y237200D02*
X498300D01*
X495700Y238600D02*
X498300D01*
X496200Y235400D02*
Y238800D01*
X497600Y235400D02*
Y238800D01*
X495700Y232600D02*
X498300D01*
Y229200*
X495700*
Y232600*
Y230200D02*
X498300D01*
X495700Y231600D02*
X498300D01*
X496200Y229200D02*
Y232600D01*
X497600Y229200D02*
Y232600D01*
X491300Y229200D02*
X488700D01*
Y232600*
X491300*
Y229200*
X488700Y230200D02*
X491300D01*
X488700Y231600D02*
X491300D01*
X489200Y229200D02*
Y232600D01*
X490600Y229200D02*
Y232600D01*
X491300Y235400D02*
X488700D01*
Y238800*
X491300*
Y235400*
X488700Y235800D02*
X491300D01*
X488700Y237200D02*
X491300D01*
X488700Y238600D02*
X491300D01*
X489200Y235400D02*
Y238800D01*
X490600Y235400D02*
Y238800D01*
X459200Y201700D02*
Y204300D01*
X462600*
Y201700*
X459200*
Y202200D02*
X462600D01*
X459200Y203600D02*
X462600D01*
X459800Y201700D02*
Y204300D01*
X461200Y201700D02*
Y204300D01*
X462600Y201700D02*
Y204300D01*
X465400Y201700D02*
Y204300D01*
X468800*
Y201700*
X465400*
Y202200D02*
X468800D01*
X465400Y203600D02*
X468800D01*
X465400Y201700D02*
Y204300D01*
X466800Y201700D02*
Y204300D01*
X468200Y201700D02*
Y204300D01*
X476800Y167300D02*
Y164700D01*
X473400*
Y167300*
X476800*
X473400Y165800D02*
X476800D01*
X473400Y167200D02*
X476800D01*
X473800Y164700D02*
Y167300D01*
X475200Y164700D02*
Y167300D01*
X476600Y164700D02*
Y167300D01*
X470600D02*
Y164700D01*
X467200*
Y167300*
X470600*
X467200Y165800D02*
X470600D01*
X467200Y167200D02*
X470600D01*
X468200Y164700D02*
Y167300D01*
X469600Y164700D02*
Y167300D01*
X466800Y160300D02*
Y157700D01*
X463400*
Y160300*
X466800*
X463400Y158800D02*
X466800D01*
X463400Y160200D02*
X466800D01*
X464000Y157700D02*
Y160300D01*
X465400Y157700D02*
Y160300D01*
X466800Y157700D02*
Y160300D01*
X460600D02*
Y157700D01*
X457200*
Y160300*
X460600*
X457200Y158800D02*
X460600D01*
X457200Y160200D02*
X460600D01*
X458400Y157700D02*
Y160300D01*
X459800Y157700D02*
Y160300D01*
X504700Y151800D02*
X507300D01*
Y148400*
X504700*
Y151800*
Y149000D02*
X507300D01*
X504700Y150400D02*
X507300D01*
X504700Y151800D02*
X507300D01*
X506000Y148400D02*
Y151800D01*
X504700Y145600D02*
X507300D01*
Y142200*
X504700*
Y145600*
Y143400D02*
X507300D01*
X504700Y144800D02*
X507300D01*
X506000Y142200D02*
Y145600D01*
X379200Y240700D02*
Y243300D01*
X382600*
Y240700*
X379200*
Y241400D02*
X382600D01*
X379200Y242800D02*
X382600D01*
X380000Y240700D02*
Y243300D01*
X381400Y240700D02*
Y243300D01*
X385400Y240700D02*
Y243300D01*
X388800*
Y240700*
X385400*
Y241400D02*
X388800D01*
X385400Y242800D02*
X388800D01*
X385600Y240700D02*
Y243300D01*
X387000Y240700D02*
Y243300D01*
X388400Y240700D02*
Y243300D01*
X464700Y151800D02*
X467300D01*
Y148400*
X464700*
Y151800*
Y149000D02*
X467300D01*
X464700Y150400D02*
X467300D01*
X464700Y151800D02*
X467300D01*
X465400Y148400D02*
Y151800D01*
X466800Y148400D02*
Y151800D01*
X464700Y145600D02*
X467300D01*
Y142200*
X464700*
Y145600*
Y143400D02*
X467300D01*
X464700Y144800D02*
X467300D01*
X465400Y142200D02*
Y145600D01*
X466800Y142200D02*
Y145600D01*
X347200Y206700D02*
Y209300D01*
X350600*
Y206700*
X347200*
Y207800D02*
X350600D01*
X347200Y209200D02*
X350600D01*
X347800Y206700D02*
Y209300D01*
X349200Y206700D02*
Y209300D01*
X350600Y206700D02*
Y209300D01*
X353400Y206700D02*
Y209300D01*
X356800*
Y206700*
X353400*
Y207800D02*
X356800D01*
X353400Y209200D02*
X356800D01*
X353400Y206700D02*
Y209300D01*
X354800Y206700D02*
Y209300D01*
X356200Y206700D02*
Y209300D01*
X326200Y222700D02*
Y225300D01*
X329600*
Y222700*
X326200*
Y223200D02*
X329600D01*
X326200Y224600D02*
X329600D01*
X326800Y222700D02*
Y225300D01*
X328200Y222700D02*
Y225300D01*
X329600Y222700D02*
Y225300D01*
X332400Y222700D02*
Y225300D01*
X335800*
Y222700*
X332400*
Y223200D02*
X335800D01*
X332400Y224600D02*
X335800D01*
X332400Y222700D02*
Y225300D01*
X333800Y222700D02*
Y225300D01*
X335200Y222700D02*
Y225300D01*
X347200Y214200D02*
Y216800D01*
X350600*
Y214200*
X347200*
Y214800D02*
X350600D01*
X347200Y216200D02*
X350600D01*
X347800Y214200D02*
Y216800D01*
X349200Y214200D02*
Y216800D01*
X350600Y214200D02*
Y216800D01*
X353400Y214200D02*
Y216800D01*
X356800*
Y214200*
X353400*
Y214800D02*
X356800D01*
X353400Y216200D02*
X356800D01*
X353400Y214200D02*
Y216800D01*
X354800Y214200D02*
Y216800D01*
X356200Y214200D02*
Y216800D01*
X355800Y222200D02*
X353200D01*
Y225600*
X355800*
Y222200*
X353200Y223200D02*
X355800D01*
X353200Y224600D02*
X355800D01*
X353400Y222200D02*
Y225600D01*
X354800Y222200D02*
Y225600D01*
X355800Y228400D02*
X353200D01*
Y231800*
X355800*
Y228400*
X353200Y228800D02*
X355800D01*
X353200Y230200D02*
X355800D01*
X353200Y231600D02*
X355800D01*
X353400Y228400D02*
Y231800D01*
X354800Y228400D02*
Y231800D01*
X362800Y202300D02*
Y199700D01*
X359400*
Y202300*
X362800*
X359400Y200800D02*
X362800D01*
X359400Y202200D02*
X362800D01*
X360400Y199700D02*
Y202300D01*
X361800Y199700D02*
Y202300D01*
X356600D02*
Y199700D01*
X353200*
Y202300*
X356600*
X353200Y200800D02*
X356600D01*
X353200Y202200D02*
X356600D01*
X353400Y199700D02*
Y202300D01*
X354800Y199700D02*
Y202300D01*
X356200Y199700D02*
Y202300D01*
X331800Y399300D02*
Y396700D01*
X328400*
Y399300*
X331800*
X328400Y396800D02*
X331800D01*
X328400Y398200D02*
X331800D01*
X329600Y396700D02*
Y399300D01*
X331000Y396700D02*
Y399300D01*
X325600D02*
Y396700D01*
X322200*
Y399300*
X325600*
X322200Y396800D02*
X325600D01*
X322200Y398200D02*
X325600D01*
X322600Y396700D02*
Y399300D01*
X324000Y396700D02*
Y399300D01*
X325400Y396700D02*
Y399300D01*
X465200Y208700D02*
Y211300D01*
X468600*
Y208700*
X465200*
Y209200D02*
X468600D01*
X465200Y210600D02*
X468600D01*
X465400Y208700D02*
Y211300D01*
X466800Y208700D02*
Y211300D01*
X468200Y208700D02*
Y211300D01*
X471400Y208700D02*
Y211300D01*
X474800*
Y208700*
X471400*
Y209200D02*
X474800D01*
X471400Y210600D02*
X474800D01*
X472400Y208700D02*
Y211300D01*
X473800Y208700D02*
Y211300D01*
X460800D02*
Y208700D01*
X457400*
Y211300*
X460800*
X457400Y209200D02*
X460800D01*
X457400Y210600D02*
X460800D01*
X458400Y208700D02*
Y211300D01*
X459800Y208700D02*
Y211300D01*
X454600D02*
Y208700D01*
X451200*
Y211300*
X454600*
X451200Y209200D02*
X454600D01*
X451200Y210600D02*
X454600D01*
X451400Y208700D02*
Y211300D01*
X452800Y208700D02*
Y211300D01*
X454200Y208700D02*
Y211300D01*
X331800Y406300D02*
Y403700D01*
X328400*
Y406300*
X331800*
X328400Y403800D02*
X331800D01*
X328400Y405200D02*
X331800D01*
X329600Y403700D02*
Y406300D01*
X331000Y403700D02*
Y406300D01*
X325600D02*
Y403700D01*
X322200*
Y406300*
X325600*
X322200Y403800D02*
X325600D01*
X322200Y405200D02*
X325600D01*
X322600Y403700D02*
Y406300D01*
X324000Y403700D02*
Y406300D01*
X325400Y403700D02*
Y406300D01*
X331800Y413300D02*
Y410700D01*
X328400*
Y413300*
X331800*
X328400Y410800D02*
X331800D01*
X328400Y412200D02*
X331800D01*
X329600Y410700D02*
Y413300D01*
X331000Y410700D02*
Y413300D01*
X325600D02*
Y410700D01*
X322200*
Y413300*
X325600*
X322200Y410800D02*
X325600D01*
X322200Y412200D02*
X325600D01*
X322600Y410700D02*
Y413300D01*
X324000Y410700D02*
Y413300D01*
X325400Y410700D02*
Y413300D01*
G54D20*
X148400Y275650D02*
Y280850D01*
X153600*
Y275650*
X148400*
Y276400D02*
X153600D01*
X148400Y278200D02*
X153600D01*
X148400Y280000D02*
X153600D01*
X148600Y275650D02*
Y280850D01*
X150400Y275650D02*
Y280850D01*
X152200Y275650D02*
Y280850D01*
X148400Y289150D02*
Y294350D01*
X153600*
Y289150*
X148400*
Y290800D02*
X153600D01*
X148400Y292600D02*
X153600D01*
X148600Y289150D02*
Y294350D01*
X150400Y289150D02*
Y294350D01*
X152200Y289150D02*
Y294350D01*
X185150Y308400D02*
Y313600D01*
X190350*
Y308400*
X185150*
Y308800D02*
X190350D01*
X185150Y310600D02*
X190350D01*
X185150Y312400D02*
X190350D01*
X186400Y308400D02*
Y313600D01*
X188200Y308400D02*
Y313600D01*
X190000Y308400D02*
Y313600D01*
X171650Y308400D02*
Y313600D01*
X176850*
Y308400*
X171650*
Y308800D02*
X176850D01*
X171650Y310600D02*
X176850D01*
X171650Y312400D02*
X176850D01*
X172000Y308400D02*
Y313600D01*
X173800Y308400D02*
Y313600D01*
X175600Y308400D02*
Y313600D01*
X174650Y210400D02*
Y215600D01*
X179850*
Y210400*
X174650*
Y211600D02*
X179850D01*
X174650Y213400D02*
X179850D01*
X174650Y215200D02*
X179850D01*
X175600Y210400D02*
Y215600D01*
X177400Y210400D02*
Y215600D01*
X179200Y210400D02*
Y215600D01*
X188150Y210400D02*
Y215600D01*
X193350*
Y210400*
X188150*
Y211600D02*
X193350D01*
X188150Y213400D02*
X193350D01*
X188150Y215200D02*
X193350D01*
X188200Y210400D02*
Y215600D01*
X190000Y210400D02*
Y215600D01*
X191800Y210400D02*
Y215600D01*
X360400Y275650D02*
Y280850D01*
X365600*
Y275650*
X360400*
Y276400D02*
X365600D01*
X360400Y278200D02*
X365600D01*
X360400Y280000D02*
X365600D01*
X361000Y275650D02*
Y280850D01*
X362800Y275650D02*
Y280850D01*
X364600Y275650D02*
Y280850D01*
X360400Y289150D02*
Y294350D01*
X365600*
Y289150*
X360400*
Y290800D02*
X365600D01*
X360400Y292600D02*
X365600D01*
X361000Y289150D02*
Y294350D01*
X362800Y289150D02*
Y294350D01*
X364600Y289150D02*
Y294350D01*
X397150Y308400D02*
Y313600D01*
X402350*
Y308400*
X397150*
Y308800D02*
X402350D01*
X397150Y310600D02*
X402350D01*
X397150Y312400D02*
X402350D01*
X398800Y308400D02*
Y313600D01*
X400600Y308400D02*
Y313600D01*
X383650Y308400D02*
Y313600D01*
X388850*
Y308400*
X383650*
Y308800D02*
X388850D01*
X383650Y310600D02*
X388850D01*
X383650Y312400D02*
X388850D01*
X384400Y308400D02*
Y313600D01*
X386200Y308400D02*
Y313600D01*
X388000Y308400D02*
Y313600D01*
X386650Y210400D02*
Y215600D01*
X391850*
Y210400*
X386650*
Y211600D02*
X391850D01*
X386650Y213400D02*
X391850D01*
X386650Y215200D02*
X391850D01*
X388000Y210400D02*
Y215600D01*
X389800Y210400D02*
Y215600D01*
X391600Y210400D02*
Y215600D01*
X400150Y210400D02*
Y215600D01*
X405350*
Y210400*
X400150*
Y211600D02*
X405350D01*
X400150Y213400D02*
X405350D01*
X400150Y215200D02*
X405350D01*
X400600Y210400D02*
Y215600D01*
X402400Y210400D02*
Y215600D01*
X404200Y210400D02*
Y215600D01*
G54D21*
X110000Y260000D03*
X117874D03*
X125748D03*
X133622D03*
X141496D03*
X268000Y123000D03*
X275874D03*
X283748D03*
X265157Y188000D03*
X284843D03*
X322000Y260000D03*
X329874D03*
X337748D03*
X345622D03*
X353496D03*
X480000Y123000D03*
X487874D03*
X495748D03*
X477157Y188000D03*
X496843D03*
G54D22*
X131000Y308000D03*
X126000Y318000D03*
X121000Y308000D03*
X136000Y318000D03*
X278000Y370000D03*
X253000Y403000D03*
X278000Y380000D03*
Y390000D03*
X232000Y345000D03*
X242000D03*
X216000Y321000D03*
X240000Y297000D03*
X128000Y144000D03*
X118000D03*
X148000Y191000D03*
X293000Y167000D03*
X264000Y262000D03*
X107000Y379000D03*
Y369000D03*
Y359000D03*
Y389000D03*
X343000Y308000D03*
X338000Y318000D03*
X333000Y308000D03*
X348000Y318000D03*
X490000Y370000D03*
X465000Y403000D03*
X490000Y380000D03*
Y390000D03*
X444000Y345000D03*
X454000D03*
X428000Y321000D03*
X452000Y297000D03*
X340000Y144000D03*
X330000D03*
X360000Y191000D03*
X505000Y167000D03*
X476000Y262000D03*
X319000Y379000D03*
Y369000D03*
Y359000D03*
Y389000D03*
G54D23*
X218250Y432250D02*
Y437750D01*
X223750*
Y432250*
X218250*
Y434000D02*
X223750D01*
X218250Y436000D02*
X223750D01*
X220000Y432250D02*
Y437750D01*
X222000Y432250D02*
Y437750D01*
X129957Y222750D02*
X128957D01*
Y225250*
X129957*
Y222750*
X128957Y224000D02*
X129957D01*
X137043Y222750D02*
X136043D01*
Y225250*
X137043*
Y222750*
X136043Y224000D02*
X137043D01*
X133500Y230624D02*
X132500D01*
Y233124*
X133500*
Y230624*
X132500Y232000D02*
X133500D01*
X430250Y432250D02*
Y437750D01*
X435750*
Y432250*
X430250*
Y434000D02*
X435750D01*
X430250Y436000D02*
X435750D01*
X432000Y432250D02*
Y437750D01*
X434000Y432250D02*
Y437750D01*
X341957Y222750D02*
X340957D01*
Y225250*
X341957*
Y222750*
X340957Y224000D02*
X341957D01*
X349043Y222750D02*
X348043D01*
Y225250*
X349043*
Y222750*
X348043Y224000D02*
X349043D01*
X345500Y230624D02*
X344500D01*
Y233124*
X345500*
Y230624*
X344500Y232000D02*
X345500D01*
G54D24*
X221000Y425157D03*
X211157Y435000D03*
Y425157D03*
X200921Y435000D03*
Y425157D03*
X433000D03*
X423157Y435000D03*
Y425157D03*
X412921Y435000D03*
Y425157D03*
G54D25*
X184800Y318800D02*
Y323200D01*
X190200*
Y318800*
X184800*
Y319200D02*
X190200D01*
X184800Y320800D02*
X190200D01*
X184800Y322400D02*
X190200D01*
X184800Y318800D02*
Y323200D01*
X186400Y318800D02*
Y323200D01*
X188000Y318800D02*
Y323200D01*
X189600Y318800D02*
Y323200D01*
X193800Y318800D02*
Y323200D01*
X199200*
Y318800*
X193800*
Y319200D02*
X199200D01*
X193800Y320800D02*
X199200D01*
X193800Y322400D02*
X199200D01*
X194400Y318800D02*
Y323200D01*
X196000Y318800D02*
Y323200D01*
X197600Y318800D02*
Y323200D01*
X199200Y318800D02*
Y323200D01*
X195800Y222800D02*
Y227200D01*
X201200*
Y222800*
X195800*
Y223200D02*
X201200D01*
X195800Y224800D02*
X201200D01*
X195800Y226400D02*
X201200D01*
X196000Y222800D02*
Y227200D01*
X197600Y222800D02*
Y227200D01*
X199200Y222800D02*
Y227200D01*
X200800Y222800D02*
Y227200D01*
X204800Y222800D02*
Y227200D01*
X210200*
Y222800*
X204800*
Y223200D02*
X210200D01*
X204800Y224800D02*
X210200D01*
X204800Y226400D02*
X210200D01*
X205600Y222800D02*
Y227200D01*
X207200Y222800D02*
Y227200D01*
X208800Y222800D02*
Y227200D01*
X226200Y245800D02*
X221800D01*
Y251200*
X226200*
Y245800*
X221800Y247200D02*
X226200D01*
X221800Y248800D02*
X226200D01*
X221800Y250400D02*
X226200D01*
X223200Y245800D02*
Y251200D01*
X224800Y245800D02*
Y251200D01*
X226200Y254800D02*
X221800D01*
Y260200*
X226200*
Y254800*
X221800Y255200D02*
X226200D01*
X221800Y256800D02*
X226200D01*
X221800Y258400D02*
X226200D01*
X221800Y260000D02*
X226200D01*
X223200Y254800D02*
Y260200D01*
X224800Y254800D02*
Y260200D01*
X195800Y256800D02*
Y261200D01*
X201200*
Y256800*
X195800*
X201200*
X195800Y258400D02*
X201200D01*
X195800Y260000D02*
X201200D01*
X196000Y256800D02*
Y261200D01*
X197600Y256800D02*
Y261200D01*
X199200Y256800D02*
Y261200D01*
X200800Y256800D02*
Y261200D01*
X204800Y256800D02*
Y261200D01*
X210200*
Y256800*
X204800*
X210200*
X204800Y258400D02*
X210200D01*
X204800Y260000D02*
X210200D01*
X205600Y256800D02*
Y261200D01*
X207200Y256800D02*
Y261200D01*
X208800Y256800D02*
Y261200D01*
X180800Y255200D02*
X185200D01*
Y249800*
X180800*
Y255200*
Y250400D02*
X185200D01*
X180800Y252000D02*
X185200D01*
X180800Y253600D02*
X185200D01*
X180800Y255200D02*
X185200D01*
X181600Y249800D02*
Y255200D01*
X183200Y249800D02*
Y255200D01*
X184800Y249800D02*
Y255200D01*
X180800Y246200D02*
X185200D01*
Y240800*
X180800*
Y246200*
Y240800D02*
X185200D01*
X180800Y242400D02*
X185200D01*
X180800Y244000D02*
X185200D01*
X180800Y245600D02*
X185200D01*
X181600Y240800D02*
Y246200D01*
X183200Y240800D02*
Y246200D01*
X184800Y240800D02*
Y246200D01*
X171200Y219800D02*
X166800D01*
Y225200*
X171200*
Y219800*
X166800Y220000D02*
X171200D01*
X166800Y221600D02*
X171200D01*
X166800Y223200D02*
X171200D01*
X166800Y224800D02*
X171200D01*
X167200Y219800D02*
Y225200D01*
X168800Y219800D02*
Y225200D01*
X170400Y219800D02*
Y225200D01*
X171200Y228800D02*
X166800D01*
Y234200*
X171200*
Y228800*
X166800Y229600D02*
X171200D01*
X166800Y231200D02*
X171200D01*
X166800Y232800D02*
X171200D01*
X167200Y228800D02*
Y234200D01*
X168800Y228800D02*
Y234200D01*
X170400Y228800D02*
Y234200D01*
X109800Y435800D02*
Y440200D01*
X115200*
Y435800*
X109800*
Y436000D02*
X115200D01*
X109800Y437600D02*
X115200D01*
X109800Y439200D02*
X115200D01*
X111200Y435800D02*
Y440200D01*
X112800Y435800D02*
Y440200D01*
X114400Y435800D02*
Y440200D01*
X118800Y435800D02*
Y440200D01*
X124200*
Y435800*
X118800*
Y436000D02*
X124200D01*
X118800Y437600D02*
X124200D01*
X118800Y439200D02*
X124200D01*
X119200Y435800D02*
Y440200D01*
X120800Y435800D02*
Y440200D01*
X122400Y435800D02*
Y440200D01*
X124000Y435800D02*
Y440200D01*
X109800Y426800D02*
Y431200D01*
X115200*
Y426800*
X109800*
Y428000D02*
X115200D01*
X109800Y429600D02*
X115200D01*
X109800Y431200D02*
X115200D01*
X111200Y426800D02*
Y431200D01*
X112800Y426800D02*
Y431200D01*
X114400Y426800D02*
Y431200D01*
X118800Y426800D02*
Y431200D01*
X124200*
Y426800*
X118800*
Y428000D02*
X124200D01*
X118800Y429600D02*
X124200D01*
X118800Y431200D02*
X124200D01*
X119200Y426800D02*
Y431200D01*
X120800Y426800D02*
Y431200D01*
X122400Y426800D02*
Y431200D01*
X124000Y426800D02*
Y431200D01*
X109800Y417800D02*
Y422200D01*
X115200*
Y417800*
X109800*
Y418400D02*
X115200D01*
X109800Y420000D02*
X115200D01*
X109800Y421600D02*
X115200D01*
X111200Y417800D02*
Y422200D01*
X112800Y417800D02*
Y422200D01*
X114400Y417800D02*
Y422200D01*
X118800Y417800D02*
Y422200D01*
X124200*
Y417800*
X118800*
Y418400D02*
X124200D01*
X118800Y420000D02*
X124200D01*
X118800Y421600D02*
X124200D01*
X119200Y417800D02*
Y422200D01*
X120800Y417800D02*
Y422200D01*
X122400Y417800D02*
Y422200D01*
X124000Y417800D02*
Y422200D01*
X396800Y318800D02*
Y323200D01*
X402200*
Y318800*
X396800*
Y319200D02*
X402200D01*
X396800Y320800D02*
X402200D01*
X396800Y322400D02*
X402200D01*
X397600Y318800D02*
Y323200D01*
X399200Y318800D02*
Y323200D01*
X400800Y318800D02*
Y323200D01*
X405800Y318800D02*
Y323200D01*
X411200*
Y318800*
X405800*
Y319200D02*
X411200D01*
X405800Y320800D02*
X411200D01*
X405800Y322400D02*
X411200D01*
X407200Y318800D02*
Y323200D01*
X408800Y318800D02*
Y323200D01*
X410400Y318800D02*
Y323200D01*
X407800Y222800D02*
Y227200D01*
X413200*
Y222800*
X407800*
Y223200D02*
X413200D01*
X407800Y224800D02*
X413200D01*
X407800Y226400D02*
X413200D01*
X408800Y222800D02*
Y227200D01*
X410400Y222800D02*
Y227200D01*
X412000Y222800D02*
Y227200D01*
X416800Y222800D02*
Y227200D01*
X422200*
Y222800*
X416800*
Y223200D02*
X422200D01*
X416800Y224800D02*
X422200D01*
X416800Y226400D02*
X422200D01*
X416800Y222800D02*
Y227200D01*
X418400Y222800D02*
Y227200D01*
X420000Y222800D02*
Y227200D01*
X421600Y222800D02*
Y227200D01*
X438200Y245800D02*
X433800D01*
Y251200*
X438200*
Y245800*
X433800Y247200D02*
X438200D01*
X433800Y248800D02*
X438200D01*
X433800Y250400D02*
X438200D01*
X434400Y245800D02*
Y251200D01*
X436000Y245800D02*
Y251200D01*
X437600Y245800D02*
Y251200D01*
X438200Y254800D02*
X433800D01*
Y260200*
X438200*
Y254800*
X433800Y255200D02*
X438200D01*
X433800Y256800D02*
X438200D01*
X433800Y258400D02*
X438200D01*
X433800Y260000D02*
X438200D01*
X434400Y254800D02*
Y260200D01*
X436000Y254800D02*
Y260200D01*
X437600Y254800D02*
Y260200D01*
X407800Y256800D02*
Y261200D01*
X413200*
Y256800*
X407800*
X413200*
X407800Y258400D02*
X413200D01*
X407800Y260000D02*
X413200D01*
X408800Y256800D02*
Y261200D01*
X410400Y256800D02*
Y261200D01*
X412000Y256800D02*
Y261200D01*
X416800Y256800D02*
Y261200D01*
X422200*
Y256800*
X416800*
X422200*
X416800Y258400D02*
X422200D01*
X416800Y260000D02*
X422200D01*
X416800Y256800D02*
Y261200D01*
X418400Y256800D02*
Y261200D01*
X420000Y256800D02*
Y261200D01*
X421600Y256800D02*
Y261200D01*
X392800Y255200D02*
X397200D01*
Y249800*
X392800*
Y255200*
Y250400D02*
X397200D01*
X392800Y252000D02*
X397200D01*
X392800Y253600D02*
X397200D01*
X392800Y255200D02*
X397200D01*
X392800Y249800D02*
Y255200D01*
X394400Y249800D02*
Y255200D01*
X396000Y249800D02*
Y255200D01*
X392800Y246200D02*
X397200D01*
Y240800*
X392800*
Y246200*
Y240800D02*
X397200D01*
X392800Y242400D02*
X397200D01*
X392800Y244000D02*
X397200D01*
X392800Y245600D02*
X397200D01*
X392800Y240800D02*
Y246200D01*
X394400Y240800D02*
Y246200D01*
X396000Y240800D02*
Y246200D01*
X383200Y219800D02*
X378800D01*
Y225200*
X383200*
Y219800*
X378800Y220000D02*
X383200D01*
X378800Y221600D02*
X383200D01*
X378800Y223200D02*
X383200D01*
X378800Y224800D02*
X383200D01*
X380000Y219800D02*
Y225200D01*
X381600Y219800D02*
Y225200D01*
X383200Y219800D02*
Y225200D01*
Y228800D02*
X378800D01*
Y234200*
X383200*
Y228800*
X378800Y229600D02*
X383200D01*
X378800Y231200D02*
X383200D01*
X378800Y232800D02*
X383200D01*
X380000Y228800D02*
Y234200D01*
X381600Y228800D02*
Y234200D01*
X383200Y228800D02*
Y234200D01*
X321800Y435800D02*
Y440200D01*
X327200*
Y435800*
X321800*
Y436000D02*
X327200D01*
X321800Y437600D02*
X327200D01*
X321800Y439200D02*
X327200D01*
X322400Y435800D02*
Y440200D01*
X324000Y435800D02*
Y440200D01*
X325600Y435800D02*
Y440200D01*
X327200Y435800D02*
Y440200D01*
X330800Y435800D02*
Y440200D01*
X336200*
Y435800*
X330800*
Y436000D02*
X336200D01*
X330800Y437600D02*
X336200D01*
X330800Y439200D02*
X336200D01*
X332000Y435800D02*
Y440200D01*
X333600Y435800D02*
Y440200D01*
X335200Y435800D02*
Y440200D01*
X321800Y426800D02*
Y431200D01*
X327200*
Y426800*
X321800*
Y428000D02*
X327200D01*
X321800Y429600D02*
X327200D01*
X321800Y431200D02*
X327200D01*
X322400Y426800D02*
Y431200D01*
X324000Y426800D02*
Y431200D01*
X325600Y426800D02*
Y431200D01*
X327200Y426800D02*
Y431200D01*
X330800Y426800D02*
Y431200D01*
X336200*
Y426800*
X330800*
Y428000D02*
X336200D01*
X330800Y429600D02*
X336200D01*
X330800Y431200D02*
X336200D01*
X332000Y426800D02*
Y431200D01*
X333600Y426800D02*
Y431200D01*
X335200Y426800D02*
Y431200D01*
X321800Y417800D02*
Y422200D01*
X327200*
Y417800*
X321800*
Y418400D02*
X327200D01*
X321800Y420000D02*
X327200D01*
X321800Y421600D02*
X327200D01*
X322400Y417800D02*
Y422200D01*
X324000Y417800D02*
Y422200D01*
X325600Y417800D02*
Y422200D01*
X327200Y417800D02*
Y422200D01*
X330800Y417800D02*
Y422200D01*
X336200*
Y417800*
X330800*
Y418400D02*
X336200D01*
X330800Y420000D02*
X336200D01*
X330800Y421600D02*
X336200D01*
X332000Y417800D02*
Y422200D01*
X333600Y417800D02*
Y422200D01*
X335200Y417800D02*
Y422200D01*
G54D26*
X189000Y121000D03*
X401000D03*
G54D27*
X199000Y131000D03*
Y111000D03*
X179000D03*
Y131000D03*
X411000D03*
Y111000D03*
X391000D03*
Y131000D03*
G54D28*
X273079Y278126D03*
X282921D03*
X485079D03*
X494921D03*
G54D29*
X166000Y144079D03*
Y153921D03*
X238000Y182079D03*
Y191921D03*
X200000Y158921D03*
Y149079D03*
X378000Y144079D03*
Y153921D03*
X450000Y182079D03*
Y191921D03*
X412000Y158921D03*
Y149079D03*
G54D30*
X238000Y143000D03*
X221500D03*
X238000Y164700D03*
X221500D03*
X450000Y143000D03*
X433500D03*
X450000Y164700D03*
X433500D03*
G54D31*
X229700Y114300D03*
X441700D03*
G54D32*
X291827Y248472D03*
Y257528D03*
X503827Y248472D03*
Y257528D03*
G54D33*
X270173Y253000D03*
X482173D03*
G54D34*
X109157Y191000D03*
X119000D03*
X128843D03*
X280858Y441795D03*
Y416205D03*
X263142Y441795D03*
Y416205D03*
X321157Y191000D03*
X331000D03*
X340843D03*
X492858Y441795D03*
Y416205D03*
X475142Y441795D03*
Y416205D03*
G54D35*
X125504Y392622D03*
Y389472D03*
Y386323D03*
Y383173D03*
Y380024D03*
Y376874D03*
Y373724D03*
Y370575D03*
Y367425D03*
Y364276D03*
Y361126D03*
Y357976D03*
Y354827D03*
Y351677D03*
Y348528D03*
Y345378D03*
X188496D03*
Y348528D03*
Y351677D03*
Y354827D03*
Y357976D03*
Y361126D03*
Y364276D03*
Y367425D03*
Y370575D03*
Y373724D03*
Y376874D03*
Y380024D03*
Y383173D03*
Y386323D03*
Y389472D03*
Y392622D03*
X337504D03*
Y389472D03*
Y386323D03*
Y383173D03*
Y380024D03*
Y376874D03*
Y373724D03*
Y370575D03*
Y367425D03*
Y364276D03*
Y361126D03*
Y357976D03*
Y354827D03*
Y351677D03*
Y348528D03*
Y345378D03*
X400496D03*
Y348528D03*
Y351677D03*
Y354827D03*
Y357976D03*
Y361126D03*
Y364276D03*
Y367425D03*
Y370575D03*
Y373724D03*
Y376874D03*
Y380024D03*
Y383173D03*
Y386323D03*
Y389472D03*
Y392622D03*
G54D36*
X133378Y337504D03*
X136528D03*
X139677D03*
X142827D03*
X145976D03*
X149126D03*
X152276D03*
X155425D03*
X158575D03*
X161724D03*
X164874D03*
X168024D03*
X171173D03*
X174323D03*
X177472D03*
X180622D03*
Y400496D03*
X177472D03*
X174323D03*
X171173D03*
X168024D03*
X164874D03*
X161724D03*
X158575D03*
X155425D03*
X152276D03*
X149126D03*
X145976D03*
X142827D03*
X139677D03*
X136528D03*
X133378D03*
X345378Y337504D03*
X348528D03*
X351677D03*
X354827D03*
X357976D03*
X361126D03*
X364276D03*
X367425D03*
X370575D03*
X373724D03*
X376874D03*
X380024D03*
X383173D03*
X386323D03*
X389472D03*
X392622D03*
Y400496D03*
X389472D03*
X386323D03*
X383173D03*
X380024D03*
X376874D03*
X373724D03*
X370575D03*
X367425D03*
X364276D03*
X361126D03*
X357976D03*
X354827D03*
X351677D03*
X348528D03*
X345378D03*
G54D37*
X140409Y299614D02*
X141591D01*
Y295795*
X140409*
Y299614*
Y296614D02*
X141591D01*
X140409Y298402D02*
X141591D01*
X141110Y295795D02*
Y299614D01*
X135409D02*
X136591D01*
Y295795*
X135409*
Y299614*
Y296614D02*
X136591D01*
X135409Y298402D02*
X136591D01*
X135748Y295795D02*
Y299614D01*
X130409D02*
X131591D01*
Y295795*
X130409*
Y299614*
Y296614D02*
X131591D01*
X130409Y298402D02*
X131591D01*
X125409Y299614D02*
X126591D01*
Y295795*
X125409*
Y299614*
Y296614D02*
X126591D01*
X125409Y298402D02*
X126591D01*
X120409Y299614D02*
X121591D01*
Y295795*
X120409*
Y299614*
Y296614D02*
X121591D01*
X120409Y298402D02*
X121591D01*
X121449Y295795D02*
Y299614D01*
X115409D02*
X116591D01*
Y295795*
X115409*
Y299614*
Y296614D02*
X116591D01*
X115409Y298402D02*
X116591D01*
X116087Y295795D02*
Y299614D01*
X110409D02*
X111591D01*
Y295795*
X110409*
Y299614*
Y296614D02*
X111591D01*
X110409Y298402D02*
X111591D01*
X110724Y295795D02*
Y299614D01*
X110409Y280205D02*
X111591D01*
Y276386*
X110409*
Y280205*
Y276953D02*
X111591D01*
X110409Y278740D02*
X111591D01*
X110724Y276386D02*
Y280205D01*
X115409D02*
X116591D01*
Y276386*
X115409*
Y280205*
Y276953D02*
X116591D01*
X115409Y278740D02*
X116591D01*
X116087Y276386D02*
Y280205D01*
X120409D02*
X121591D01*
Y276386*
X120409*
Y280205*
Y276953D02*
X121591D01*
X120409Y278740D02*
X121591D01*
X121449Y276386D02*
Y280205D01*
X125409D02*
X126591D01*
Y276386*
X125409*
Y280205*
Y276953D02*
X126591D01*
X125409Y278740D02*
X126591D01*
X130409Y280205D02*
X131591D01*
Y276386*
X130409*
Y280205*
Y276953D02*
X131591D01*
X130409Y278740D02*
X131591D01*
X135409Y280205D02*
X136591D01*
Y276386*
X135409*
Y280205*
Y276953D02*
X136591D01*
X135409Y278740D02*
X136591D01*
X135748Y276386D02*
Y280205D01*
X140409D02*
X141591D01*
Y276386*
X140409*
Y280205*
Y276953D02*
X141591D01*
X140409Y278740D02*
X141591D01*
X141110Y276386D02*
Y280205D01*
X352409Y299614D02*
X353591D01*
Y295795*
X352409*
Y299614*
Y296614D02*
X353591D01*
X352409Y298402D02*
X353591D01*
X347409Y299614D02*
X348591D01*
Y295795*
X347409*
Y299614*
Y296614D02*
X348591D01*
X347409Y298402D02*
X348591D01*
X348449Y295795D02*
Y299614D01*
X342409D02*
X343591D01*
Y295795*
X342409*
Y299614*
Y296614D02*
X343591D01*
X342409Y298402D02*
X343591D01*
X343087Y295795D02*
Y299614D01*
X337409D02*
X338591D01*
Y295795*
X337409*
Y299614*
Y296614D02*
X338591D01*
X337409Y298402D02*
X338591D01*
X337724Y295795D02*
Y299614D01*
X332409D02*
X333591D01*
Y295795*
X332409*
Y299614*
Y296614D02*
X333591D01*
X332409Y298402D02*
X333591D01*
X327409Y299614D02*
X328591D01*
Y295795*
X327409*
Y299614*
Y296614D02*
X328591D01*
X327409Y298402D02*
X328591D01*
X322409Y299614D02*
X323591D01*
Y295795*
X322409*
Y299614*
Y296614D02*
X323591D01*
X322409Y298402D02*
X323591D01*
X323425Y295795D02*
Y299614D01*
X322409Y280205D02*
X323591D01*
Y276386*
X322409*
Y280205*
Y276953D02*
X323591D01*
X322409Y278740D02*
X323591D01*
X323425Y276386D02*
Y280205D01*
X327409D02*
X328591D01*
Y276386*
X327409*
Y280205*
Y276953D02*
X328591D01*
X327409Y278740D02*
X328591D01*
X332409Y280205D02*
X333591D01*
Y276386*
X332409*
Y280205*
Y276953D02*
X333591D01*
X332409Y278740D02*
X333591D01*
X337409Y280205D02*
X338591D01*
Y276386*
X337409*
Y280205*
Y276953D02*
X338591D01*
X337409Y278740D02*
X338591D01*
X337724Y276386D02*
Y280205D01*
X342409D02*
X343591D01*
Y276386*
X342409*
Y280205*
Y276953D02*
X343591D01*
X342409Y278740D02*
X343591D01*
X343087Y276386D02*
Y280205D01*
X347409D02*
X348591D01*
Y276386*
X347409*
Y280205*
Y276953D02*
X348591D01*
X347409Y278740D02*
X348591D01*
X348449Y276386D02*
Y280205D01*
X352409D02*
X353591D01*
Y276386*
X352409*
Y280205*
Y276953D02*
X353591D01*
X352409Y278740D02*
X353591D01*
G54D38*
X285024Y144500D03*
Y149500D03*
Y154500D03*
Y159500D03*
X262976D03*
Y154500D03*
Y149500D03*
Y144500D03*
X497024D03*
Y149500D03*
Y154500D03*
Y159500D03*
X474976D03*
Y154500D03*
Y149500D03*
Y144500D03*
G54D39*
X244142Y382839D03*
Y380280D03*
Y377720D03*
Y375161D03*
X261858D03*
Y377720D03*
Y380280D03*
Y382839D03*
X456142D03*
Y380280D03*
Y377720D03*
Y375161D03*
X473858D03*
Y377720D03*
Y380280D03*
Y382839D03*
G54D40*
X253000Y371126D03*
Y386874D03*
X465000Y371126D03*
Y386874D03*
G54D41*
X235000Y312870D03*
X240000D03*
X245000D03*
Y329130D03*
X240000D03*
X235000D03*
X447000Y312870D03*
X452000D03*
X457000D03*
Y329130D03*
X452000D03*
X447000D03*
G54D42*
X247756Y321000D03*
X233504D03*
X459756D03*
X445504D03*
G54D43*
X121252Y130740D03*
X125189D03*
X129126D03*
X133063D03*
X137000D03*
X140937D03*
X144874D03*
X148811D03*
X152748D03*
X333252D03*
X337189D03*
X341126D03*
X345063D03*
X349000D03*
X352937D03*
X356874D03*
X360811D03*
X364748D03*
G54D44*
X192764Y250750D03*
Y248250D03*
Y245750D03*
Y243250D03*
Y240750D03*
Y238250D03*
Y235750D03*
Y233250D03*
X213236D03*
Y235750D03*
Y238250D03*
Y240750D03*
Y243250D03*
Y245750D03*
Y248250D03*
Y250750D03*
X404764D03*
Y248250D03*
Y245750D03*
Y243250D03*
Y240750D03*
Y238250D03*
Y235750D03*
Y233250D03*
X425236D03*
Y235750D03*
Y238250D03*
Y240750D03*
Y243250D03*
Y245750D03*
Y248250D03*
Y250750D03*
G54D45*
X115996Y215740D03*
Y212000D03*
Y208260D03*
X128004D03*
Y215740D03*
X327996D03*
Y212000D03*
Y208260D03*
X340004D03*
Y215740D03*
G54D46*
X263839Y244370D02*
X263839D01*
Y237677*
X263839*
Y244370*
Y239591D02*
X263839D01*
Y241772D02*
X263839D01*
Y243953D02*
X263839D01*
X261280Y244370D02*
X261280D01*
Y237677*
X261280*
Y244370*
Y239591D02*
X261280D01*
Y241772D02*
X261280D01*
Y243953D02*
X261280D01*
X258720Y244370D02*
X258720D01*
Y237677*
X258720*
Y244370*
Y239591D02*
X258720D01*
Y241772D02*
X258720D01*
Y243953D02*
X258720D01*
X256161Y244370D02*
X256161D01*
Y237677*
X256161*
Y244370*
Y239591D02*
X256161D01*
Y241772D02*
X256161D01*
Y243953D02*
X256161D01*
Y222323D02*
X256161D01*
Y215630*
X256161*
Y222323*
Y217780D02*
X256161D01*
Y219961D02*
X256161D01*
Y222142D02*
X256161D01*
X258720Y222323D02*
X258720D01*
Y215630*
X258720*
Y222323*
Y217780D02*
X258720D01*
Y219961D02*
X258720D01*
Y222142D02*
X258720D01*
X261280Y222323D02*
X261280D01*
Y215630*
X261280*
Y222323*
Y217780D02*
X261280D01*
Y219961D02*
X261280D01*
Y222142D02*
X261280D01*
X263839Y222323D02*
X263839D01*
Y215630*
X263839*
Y222323*
Y217780D02*
X263839D01*
Y219961D02*
X263839D01*
Y222142D02*
X263839D01*
X475839Y244370D02*
X475839D01*
Y237677*
X475839*
Y244370*
Y239591D02*
X475839D01*
Y241772D02*
X475839D01*
Y243953D02*
X475839D01*
X473280Y244370D02*
X473280D01*
Y237677*
X473280*
Y244370*
Y239591D02*
X473280D01*
Y241772D02*
X473280D01*
Y243953D02*
X473280D01*
X470720Y244370D02*
X470720D01*
Y237677*
X470720*
Y244370*
Y239591D02*
X470720D01*
Y241772D02*
X470720D01*
Y243953D02*
X470720D01*
X468161Y244370D02*
X468161D01*
Y237677*
X468161*
Y244370*
Y239591D02*
X468161D01*
Y241772D02*
X468161D01*
Y243953D02*
X468161D01*
Y222323D02*
X468161D01*
Y215630*
X468161*
Y222323*
Y217780D02*
X468161D01*
Y219961D02*
X468161D01*
Y222142D02*
X468161D01*
X470720Y222323D02*
X470720D01*
Y215630*
X470720*
Y222323*
Y217780D02*
X470720D01*
Y219961D02*
X470720D01*
Y222142D02*
X470720D01*
X473280Y222323D02*
X473280D01*
Y215630*
X473280*
Y222323*
Y217780D02*
X473280D01*
Y219961D02*
X473280D01*
Y222142D02*
X473280D01*
X475839Y222323D02*
X475839D01*
Y215630*
X475839*
Y222323*
Y217780D02*
X475839D01*
Y219961D02*
X475839D01*
Y222142D02*
X475839D01*
X0Y0D02*
M02*
