*
*
G04 PADS 9.3.1 Build Number: 456998 generated Gerber (RS-274-X) file*
G04 PC Version=2.1*
*
%IN "tripod.pcb"*%
*
%MOIN*%
*
%FSLAX35Y35*%
*
*
*
*
G04 PC Standard Apertures*
*
*
G04 Thermal Relief Aperture macro.*
%AMTER*
1,1,$1,0,0*
1,0,$1-$2,0,0*
21,0,$3,$4,0,0,45*
21,0,$3,$4,0,0,135*
%
*
*
G04 Annular Aperture macro.*
%AMANN*
1,1,$1,0,0*
1,0,$2,0,0*
%
*
*
G04 Odd Aperture macro.*
%AMODD*
1,1,$1,0,0*
1,0,$1-0.005,0,0*
%
*
*
G04 PC Custom Aperture Macros*
*
*
*
*
*
*
G04 PC Aperture Table*
*
%ADD010C,0.001*%
%ADD011C,0.00787*%
%ADD012C,0.01*%
%ADD013C,0.005*%
%ADD014C,0.00787*%
%ADD015C,0.007*%
%ADD016C,0.00492*%
%ADD017C,0.00787*%
*
*
*
*
G04 PC Circuitry*
G04 Layer Name tripod.pcb - circuitry*
%LPD*%
*
*
G04 PC Custom Flashes*
G04 Layer Name tripod.pcb - flashes*
%LPD*%
*
*
G04 PC Circuitry*
G04 Layer Name tripod.pcb - circuitry*
%LPD*%
*
G54D10*
G54D11*
G01X130819Y343819D02*
X131819Y342819D01*
X182181*
X183181Y343819*
Y394181*
X182181Y395181*
X131819*
X130819Y394181*
Y343819*
X144039Y444496D02*
Y441465D01*
X169496Y412961D02*
X166465D01*
X163961Y441504D02*
Y444535D01*
X201461Y381504D02*
Y384535D01*
Y347004D02*
Y350035D01*
X159996Y324461D02*
X156965D01*
X112461Y347004D02*
Y350035D01*
X141504Y413039D02*
X144535D01*
X143500Y293827D02*
Y288728D01*
X141313*
X141313D02*
Y287272D01*
X141313D02*
X143500D01*
Y282173*
X108500*
Y293827*
X143500*
X142414Y292000D02*
G75*
G03X142414I-1414J0D01*
G01X101535Y249961D02*
X149961D01*
Y271614*
X101535*
Y249961*
X110394D02*
X141890D01*
Y252717*
X110394*
Y249961*
X217850Y447717D02*
X241197D01*
Y412953*
X181354*
Y447795*
X204268*
X174961Y286504D02*
Y289535D01*
Y301504D02*
Y304535D01*
X200039Y314496D02*
Y311465D01*
X227961Y381504D02*
Y384535D01*
X254496Y354961D02*
X251465D01*
X260496Y323961D02*
X257465D01*
X250496Y297961D02*
X247465D01*
X163961Y188004D02*
Y191035D01*
Y203004D02*
Y206035D01*
X273039Y218496D02*
Y215465D01*
X246961Y239504D02*
Y242535D01*
X293496Y233961D02*
X290465D01*
X197685Y252000D02*
X202336D01*
Y250750*
X203664*
Y252000*
X208315*
Y232000*
X197685*
Y252000*
X226039Y239496D02*
Y236465D01*
X179961Y233504D02*
Y236535D01*
Y226504D02*
Y229535D01*
Y219504D02*
Y222535D01*
X286496Y233961D02*
X283465D01*
X276504Y234039D02*
X279535D01*
X252039Y204496D02*
Y201465D01*
X259961Y164504D02*
Y167535D01*
X249961Y157504D02*
Y160535D01*
X295496Y146961D02*
X292465D01*
X172039Y243496D02*
Y240465D01*
X255496Y146961D02*
X252465D01*
X259535Y89535D02*
X292213D01*
Y130874*
X259535*
Y89535*
X269181D02*
X282567D01*
Y92291*
X269181*
Y89535*
X140039Y209496D02*
Y206465D01*
X119039Y225496D02*
Y222465D01*
X140039Y216996D02*
Y213965D01*
X141004Y227039D02*
X144035D01*
X145961Y199504D02*
Y202535D01*
X114961Y396504D02*
Y399535D01*
X258039Y211496D02*
Y208465D01*
X243961Y208504D02*
Y211535D01*
X114961Y403504D02*
Y406535D01*
Y410504D02*
Y413535D01*
X342819Y343819D02*
X343819Y342819D01*
X394181*
X395181Y343819*
Y394181*
X394181Y395181*
X343819*
X342819Y394181*
Y343819*
X356039Y444496D02*
Y441465D01*
X381496Y412961D02*
X378465D01*
X375961Y441504D02*
Y444535D01*
X413461Y381504D02*
Y384535D01*
Y347004D02*
Y350035D01*
X371996Y324461D02*
X368965D01*
X324461Y347004D02*
Y350035D01*
X353504Y413039D02*
X356535D01*
X355500Y293827D02*
Y288728D01*
X353313*
X353313D02*
Y287272D01*
X353313D02*
X355500D01*
Y282173*
X320500*
Y293827*
X355500*
X354414Y292000D02*
G03X354414I-1414J0D01*
G01X313535Y249961D02*
X361961D01*
Y271614*
X313535*
Y249961*
X322394D02*
X353890D01*
Y252717*
X322394*
Y249961*
X429850Y447717D02*
X453197D01*
Y412953*
X393354*
Y447795*
X416268*
X386961Y286504D02*
Y289535D01*
Y301504D02*
Y304535D01*
X412039Y314496D02*
Y311465D01*
X439961Y381504D02*
Y384535D01*
X466496Y354961D02*
X463465D01*
X472496Y323961D02*
X469465D01*
X462496Y297961D02*
X459465D01*
X375961Y188004D02*
Y191035D01*
Y203004D02*
Y206035D01*
X485039Y218496D02*
Y215465D01*
X458961Y239504D02*
Y242535D01*
X505496Y233961D02*
X502465D01*
X409685Y252000D02*
X414336D01*
Y250750*
X415664*
Y252000*
X420315*
Y232000*
X409685*
Y252000*
X438039Y239496D02*
Y236465D01*
X391961Y233504D02*
Y236535D01*
Y226504D02*
Y229535D01*
Y219504D02*
Y222535D01*
X498496Y233961D02*
X495465D01*
X488504Y234039D02*
X491535D01*
X464039Y204496D02*
Y201465D01*
X471961Y164504D02*
Y167535D01*
X461961Y157504D02*
Y160535D01*
X507496Y146961D02*
X504465D01*
X384039Y243496D02*
Y240465D01*
X467496Y146961D02*
X464465D01*
X471535Y89535D02*
X504213D01*
Y130874*
X471535*
Y89535*
X481181D02*
X494567D01*
Y92291*
X481181*
Y89535*
X352039Y209496D02*
Y206465D01*
X331039Y225496D02*
Y222465D01*
X352039Y216996D02*
Y213965D01*
X353004Y227039D02*
X356035D01*
X357961Y199504D02*
Y202535D01*
X326961Y396504D02*
Y399535D01*
X470039Y211496D02*
Y208465D01*
X455961Y208504D02*
Y211535D01*
X326961Y403504D02*
Y406535D01*
Y410504D02*
Y413535D01*
G54D12*
X136000Y391500D02*
G03X136000I-1500J0D01*
G01X120000Y395000D02*
G03X120000I-500J0D01*
G01X148000Y285000D02*
X154000D01*
X102856Y273142D02*
G03X102856I-447J0D01*
G01X126000Y313000D02*
X136000D01*
Y303000*
X126000*
Y313000*
X121000Y323000D02*
X131000D01*
Y313000*
X121000*
Y323000*
X116000Y313000D02*
X126000D01*
Y303000*
X116000*
Y313000*
X131000Y323000D02*
X141000D01*
Y313000*
X131000*
Y323000*
X239610Y450236D02*
G03X239610I-500J0D01*
G01X181000Y308000D02*
Y314000D01*
X190500Y325500D02*
X182500D01*
Y316500*
X190500*
X193500Y325500D02*
X200500D01*
X201500Y324500*
Y317500*
X200500Y316500*
X193500*
X204130Y323906D02*
G03X204130I-500J0D01*
G01X288000Y141900D02*
G03X288000I-500J0D01*
G01X279200Y144500D02*
G03X279200I-1500J0D01*
G01X273000Y375000D02*
X283000D01*
Y365000*
X273000*
Y375000*
X248000Y408000D02*
X258000D01*
Y398000*
X248000*
Y408000*
X273000Y385000D02*
X283000D01*
Y375000*
X273000*
Y385000*
Y395000D02*
X283000D01*
Y385000*
X273000*
Y395000*
X227000Y350000D02*
X237000D01*
Y340000*
X227000*
Y350000*
X237000D02*
X247000D01*
Y340000*
X237000*
Y350000*
X211000Y326000D02*
X221000D01*
Y316000*
X211000*
Y326000*
X235000Y302000D02*
X245000D01*
Y292000*
X235000*
Y302000*
X118500Y136600D02*
G03X118500I-500J0D01*
G01X109453Y109890D02*
Y107343D01*
X104276*
Y100799*
X169799*
Y107343*
X164709*
Y109890*
X109453Y119705D02*
Y127000D01*
X118890*
X155350Y126976D02*
X164528D01*
Y119705*
X123000Y149000D02*
X133000D01*
Y139000*
X123000*
Y149000*
X113000D02*
X123000D01*
Y139000*
X113000*
Y149000*
X184000Y216000D02*
Y210000D01*
X270200Y274500D02*
G03X270200I-500J0D01*
G01X164500Y225500D02*
Y217500D01*
X173500*
Y225500*
X164500Y228500D02*
Y235500D01*
X165500Y236500*
X172500*
X173500Y235500*
Y228500*
X166594Y238630D02*
G03X166594I-500J0D01*
G01X264563Y133236D02*
G03X264563I-500J0D01*
G01X112500Y218000D02*
G03X112500I-500J0D01*
G01X211000Y87000D02*
X249000D01*
Y137000*
X211000*
Y87000*
X153000Y196000D02*
Y186000D01*
X143000*
Y196000*
X153000*
X127201Y223213D02*
G03X127201I-500J0D01*
G01X115500Y442500D02*
X107500D01*
Y433500*
X115500*
X118500Y442500D02*
X125500D01*
X126500Y441500*
Y434500*
X125500Y433500*
X118500*
X129130Y440906D02*
G03X129130I-500J0D01*
G01X288000Y172000D02*
X298000D01*
Y162000*
X288000*
Y172000*
X259000Y267000D02*
X269000D01*
Y257000*
X259000*
Y267000*
X115500Y433500D02*
X107500D01*
Y424500*
X115500*
X118500Y433500D02*
X125500D01*
X126500Y432500*
Y425500*
X125500Y424500*
X118500*
X129130Y431906D02*
G03X129130I-500J0D01*
G01X115500Y424500D02*
X107500D01*
Y415500*
X115500*
X118500Y424500D02*
X125500D01*
X126500Y423500*
Y416500*
X125500Y415500*
X118500*
X129130Y422906D02*
G03X129130I-500J0D01*
G01X102000Y384000D02*
X112000D01*
Y374000*
X102000*
Y384000*
Y374000D02*
X112000D01*
Y364000*
X102000*
Y374000*
Y364000D02*
X112000D01*
Y354000*
X102000*
Y364000*
Y394000D02*
X112000D01*
Y384000*
X102000*
Y394000*
X348000Y391500D02*
G03X348000I-1500J0D01*
G01X332000Y395000D02*
G03X332000I-500J0D01*
G01X360000Y285000D02*
X366000D01*
X314856Y273142D02*
G03X314856I-447J0D01*
G01X338000Y313000D02*
X348000D01*
Y303000*
X338000*
Y313000*
X333000Y323000D02*
X343000D01*
Y313000*
X333000*
Y323000*
X328000Y313000D02*
X338000D01*
Y303000*
X328000*
Y313000*
X343000Y323000D02*
X353000D01*
Y313000*
X343000*
Y323000*
X451610Y450236D02*
G03X451610I-500J0D01*
G01X393000Y308000D02*
Y314000D01*
X402500Y325500D02*
X394500D01*
Y316500*
X402500*
X405500Y325500D02*
X412500D01*
X413500Y324500*
Y317500*
X412500Y316500*
X405500*
X416130Y323906D02*
G03X416130I-500J0D01*
G01X500000Y141900D02*
G03X500000I-500J0D01*
G01X491200Y144500D02*
G03X491200I-1500J0D01*
G01X485000Y375000D02*
X495000D01*
Y365000*
X485000*
Y375000*
X460000Y408000D02*
X470000D01*
Y398000*
X460000*
Y408000*
X485000Y385000D02*
X495000D01*
Y375000*
X485000*
Y385000*
Y395000D02*
X495000D01*
Y385000*
X485000*
Y395000*
X439000Y350000D02*
X449000D01*
Y340000*
X439000*
Y350000*
X449000D02*
X459000D01*
Y340000*
X449000*
Y350000*
X423000Y326000D02*
X433000D01*
Y316000*
X423000*
Y326000*
X447000Y302000D02*
X457000D01*
Y292000*
X447000*
Y302000*
X330500Y136600D02*
G03X330500I-500J0D01*
G01X321453Y109890D02*
Y107343D01*
X316276*
Y100799*
X381799*
Y107343*
X376709*
Y109890*
X321453Y119705D02*
Y127000D01*
X330890*
X367350Y126976D02*
X376528D01*
Y119705*
X335000Y149000D02*
X345000D01*
Y139000*
X335000*
Y149000*
X325000D02*
X335000D01*
Y139000*
X325000*
Y149000*
X396000Y216000D02*
Y210000D01*
X482200Y274500D02*
G03X482200I-500J0D01*
G01X376500Y225500D02*
Y217500D01*
X385500*
Y225500*
X376500Y228500D02*
Y235500D01*
X377500Y236500*
X384500*
X385500Y235500*
Y228500*
X378594Y238630D02*
G03X378594I-500J0D01*
G01X476563Y133236D02*
G03X476563I-500J0D01*
G01X324500Y218000D02*
G03X324500I-500J0D01*
G01X423000Y87000D02*
X461000D01*
Y137000*
X423000*
Y87000*
X365000Y196000D02*
Y186000D01*
X355000*
Y196000*
X365000*
X339201Y223213D02*
G03X339201I-500J0D01*
G01X327500Y442500D02*
X319500D01*
Y433500*
X327500*
X330500Y442500D02*
X337500D01*
X338500Y441500*
Y434500*
X337500Y433500*
X330500*
X341130Y440906D02*
G03X341130I-500J0D01*
G01X500000Y172000D02*
X510000D01*
Y162000*
X500000*
Y172000*
X471000Y267000D02*
X481000D01*
Y257000*
X471000*
Y267000*
X327500Y433500D02*
X319500D01*
Y424500*
X327500*
X330500Y433500D02*
X337500D01*
X338500Y432500*
Y425500*
X337500Y424500*
X330500*
X341130Y431906D02*
G03X341130I-500J0D01*
G01X327500Y424500D02*
X319500D01*
Y415500*
X327500*
X330500Y424500D02*
X337500D01*
X338500Y423500*
Y416500*
X337500Y415500*
X330500*
X341130Y422906D02*
G03X341130I-500J0D01*
G01X314000Y384000D02*
X324000D01*
Y374000*
X314000*
Y384000*
Y374000D02*
X324000D01*
Y364000*
X314000*
Y374000*
Y364000D02*
X324000D01*
Y354000*
X314000*
Y364000*
Y394000D02*
X324000D01*
Y384000*
X314000*
Y394000*
X249909Y253000D02*
X249682Y253625D01*
X249227Y254250*
X248773Y254563*
X248773D02*
X247864D01*
X247864D02*
X247409Y254250D01*
X246955Y253625*
X246727Y253000*
X246500Y252063*
X246500D02*
Y250500D01*
X246727Y249563*
X246727D02*
X246955Y248938D01*
X246955D02*
X247409Y248313D01*
X247409D02*
X247864Y248000D01*
X248773*
X249227Y248313*
X249227D02*
X249682Y248938D01*
X249682D02*
X249909Y249563D01*
X249909D02*
Y250500D01*
X248773D02*
X249909D01*
X253773Y254563D02*
X251955Y248000D01*
X253773Y254563D02*
X255591Y248000D01*
X252636Y250188D02*
X254909D01*
X257636Y254563D02*
Y248000D01*
X259682Y254563D02*
Y248000D01*
Y254563D02*
X262864Y248000D01*
Y254563D02*
Y248000D01*
X103500Y248063D02*
Y241500D01*
Y248063D02*
X105545D01*
X105545D02*
X106227Y247750D01*
X106455Y247438*
X106455D02*
X106682Y246813D01*
X106682D02*
Y246188D01*
X106682D02*
X106455Y245563D01*
X106455D02*
X106227Y245250D01*
X105545Y244938*
X105545D02*
X103500D01*
X105091D02*
X106682Y241500D01*
X111909Y247125D02*
X111455Y247750D01*
X110773Y248063*
X110773D02*
X109864D01*
X109864D02*
X109182Y247750D01*
X108727Y247125*
Y246500*
X108955Y245875*
X109182Y245563*
X109182D02*
X109636Y245250D01*
X111000Y244625*
X111455Y244313*
X111455D02*
X111682Y244000D01*
X111909Y243375*
Y242438*
X111909D02*
X111455Y241813D01*
X111455D02*
X110773Y241500D01*
X109864*
X109182Y241813*
X109182D02*
X108727Y242438D01*
X116227Y248063D02*
X113955Y243688D01*
X113955D02*
X117364D01*
X116227Y248063D02*
Y241500D01*
X120545Y248063D02*
X119864Y247750D01*
X119636Y247125*
Y246500*
X119864Y245875*
X120318Y245563*
X120318D02*
X121227Y245250D01*
X121909Y244938*
X121909D02*
X122364Y244313D01*
X122364D02*
X122591Y243688D01*
X122591D02*
Y242750D01*
X122364Y242125*
X122136Y241813*
X122136D02*
X121455Y241500D01*
X120545*
X119864Y241813*
X119864D02*
X119636Y242125D01*
X119409Y242750*
Y243688*
X119409D02*
X119636Y244313D01*
X119636D02*
X120091Y244938D01*
X120091D02*
X120773Y245250D01*
X121682Y245563*
X121682D02*
X122136Y245875D01*
X122364Y246500*
Y247125*
X122136Y247750*
X121455Y248063*
X121455D02*
X120545D01*
X127591D02*
X125318D01*
X125318D02*
X125091Y245250D01*
X125318Y245563*
X125318D02*
X126000Y245875D01*
X126682*
X127364Y245563*
X127364D02*
X127818Y244938D01*
X127818D02*
X128045Y244000D01*
X127818Y243375*
X127591Y242438*
X127591D02*
X127136Y241813D01*
X127136D02*
X126455Y241500D01*
X125773*
X125091Y241813*
X125091D02*
X124864Y242125D01*
X124636Y242750*
X103818Y178563D02*
X102000Y172000D01*
X103818Y178563D02*
X105636Y172000D01*
X102682Y174188D02*
X104955D01*
X107682Y178563D02*
X110864Y172000D01*
Y178563D02*
X107682Y172000D01*
X112909Y174813D02*
X117000D01*
X119045Y177313D02*
X119500Y177625D01*
X120182Y178563*
X120182D02*
Y172000D01*
X122455Y177000D02*
Y177313D01*
X122455D02*
X122682Y177938D01*
X122682D02*
X122909Y178250D01*
X123364Y178563*
X123364D02*
X124273D01*
X124273D02*
X124727Y178250D01*
X124955Y177938*
X124955D02*
X125182Y177313D01*
X125182D02*
Y176688D01*
X125182D02*
X124955Y176063D01*
X124955D02*
X124500Y175125D01*
X122227Y172000*
X125409*
X188273Y270750D02*
Y265500D01*
X187000Y270750D02*
X189545D01*
X191182Y269000D02*
Y265500D01*
Y267500D02*
X191364Y268250D01*
X191727Y268750*
X192091Y269000*
X192636*
X194273Y270750D02*
X194455Y270500D01*
X194636Y270750*
X194455Y271000*
X194273Y270750*
X194455Y269000D02*
Y265500D01*
X196273Y269000D02*
Y263750D01*
Y268250D02*
X196636Y268750D01*
X197000Y269000*
X197545*
X197909Y268750*
X198273Y268250*
X198455Y267500*
Y267000*
X198273Y266250*
X197909Y265750*
X197545Y265500*
X197000*
X196636Y265750*
X196273Y266250*
X201000Y269000D02*
X200636Y268750D01*
X200273Y268250*
X200091Y267500*
Y267000*
X200273Y266250*
X200636Y265750*
X201000Y265500*
X201545*
X201909Y265750*
X202273Y266250*
X202455Y267000*
Y267500*
X202273Y268250*
X201909Y268750*
X201545Y269000*
X201000*
X206273Y270750D02*
Y265500D01*
Y268250D02*
X205909Y268750D01*
X205545Y269000*
X205000*
X204636Y268750*
X204273Y268250*
X204091Y267500*
Y267000*
X204273Y266250*
X204636Y265750*
X205000Y265500*
X205545*
X205909Y265750*
X206273Y266250*
X212091Y270750D02*
Y265500D01*
X213727Y269000D02*
Y265500D01*
Y268000D02*
X214273Y268750D01*
X214636Y269000*
X215182*
X215545Y268750*
X215727Y268000*
Y265500*
X217909Y270750D02*
Y266500D01*
X218091Y265750*
X218455Y265500*
X218818*
X217364Y269000D02*
X218636D01*
X220455Y267500D02*
X222636D01*
Y268000*
X222455Y268500*
X222273Y268750*
X221909Y269000*
X221364*
X221000Y268750*
X220636Y268250*
X220455Y267500*
Y267000*
X220636Y266250*
X221000Y265750*
X221364Y265500*
X221909*
X222273Y265750*
X222636Y266250*
X224273Y269000D02*
Y265500D01*
Y267500D02*
X224455Y268250D01*
X224818Y268750*
X225182Y269000*
X225727*
X228818Y270750D02*
X228455D01*
X228091Y270500*
X227909Y269750*
Y265500*
X227364Y269000D02*
X228636D01*
X232636D02*
Y265500D01*
Y268250D02*
X232273Y268750D01*
X231909Y269000*
X231364*
X231000Y268750*
X230636Y268250*
X230455Y267500*
Y267000*
X230636Y266250*
X231000Y265750*
X231364Y265500*
X231909*
X232273Y265750*
X232636Y266250*
X236455Y268250D02*
X236091Y268750D01*
X235727Y269000*
X235182*
X234818Y268750*
X234455Y268250*
X234273Y267500*
Y267000*
X234455Y266250*
X234818Y265750*
X235182Y265500*
X235727*
X236091Y265750*
X236455Y266250*
X238091Y267500D02*
X240273D01*
Y268000*
X240091Y268500*
X239909Y268750*
X239545Y269000*
X239000*
X238636Y268750*
X238273Y268250*
X238091Y267500*
Y267000*
X238273Y266250*
X238636Y265750*
X239000Y265500*
X239545*
X239909Y265750*
X240273Y266250*
X187182Y277000D02*
Y277250D01*
X187364Y277750*
X187545Y278000*
X187909Y278250*
X188636*
X189000Y278000*
X189182Y277750*
X189364Y277250*
Y276750*
X189182Y276250*
X188818Y275500*
X187000Y273000*
X189545*
X192273Y278250D02*
X191727Y278000D01*
X191364Y277250*
X191182Y276000*
Y275250*
X191364Y274000*
X191727Y273250*
X192273Y273000*
X192636*
X193182Y273250*
X193545Y274000*
X193727Y275250*
Y276000*
X193545Y277250*
X193182Y278000*
X192636Y278250*
X192273*
X195364Y277250D02*
X195727Y277500D01*
X196273Y278250*
Y273000*
X198091Y277000D02*
Y277250D01*
X198273Y277750*
X198455Y278000*
X198818Y278250*
X199545*
X199909Y278000*
X200091Y277750*
X200273Y277250*
Y276750*
X200091Y276250*
X199727Y275500*
X197909Y273000*
X200455*
X206273Y278250D02*
Y273000D01*
Y278250D02*
X207727Y273000D01*
X209182Y278250D02*
X207727Y273000D01*
X209182Y278250D02*
Y273000D01*
X213000Y276500D02*
Y273000D01*
Y275750D02*
X212636Y276250D01*
X212273Y276500*
X211727*
X211364Y276250*
X211000Y275750*
X210818Y275000*
Y274500*
X211000Y273750*
X211364Y273250*
X211727Y273000*
X212273*
X212636Y273250*
X213000Y273750*
X214636Y276500D02*
Y273000D01*
Y275000D02*
X214818Y275750D01*
X215182Y276250*
X215545Y276500*
X216091*
X219727Y275750D02*
X219545Y276250D01*
X219000Y276500*
X218455*
X217909Y276250*
X217727Y275750*
X217909Y275250*
X218273Y275000*
X219182Y274750*
X219545Y274500*
X219727Y274000*
Y273750*
X219545Y273250*
X219000Y273000*
X218455*
X217909Y273250*
X217727Y273750*
X225545Y278250D02*
Y273000D01*
Y278250D02*
X227182D01*
X227727Y278000*
X227909Y277750*
X228091Y277250*
Y276750*
X227909Y276250*
X227727Y276000*
X227182Y275750*
X225545*
X226818D02*
X228091Y273000D01*
X230636Y276500D02*
X230273Y276250D01*
X229909Y275750*
X229727Y275000*
Y274500*
X229909Y273750*
X230273Y273250*
X230636Y273000*
X231182*
X231545Y273250*
X231909Y273750*
X232091Y274500*
Y275000*
X231909Y275750*
X231545Y276250*
X231182Y276500*
X230636*
X233727D02*
X234818Y273000D01*
X235909Y276500D02*
X234818Y273000D01*
X237545Y275000D02*
X239727D01*
Y275500*
X239545Y276000*
X239364Y276250*
X239000Y276500*
X238455*
X238091Y276250*
X237727Y275750*
X237545Y275000*
Y274500*
X237727Y273750*
X238091Y273250*
X238455Y273000*
X239000*
X239364Y273250*
X239727Y273750*
X241364Y276500D02*
Y273000D01*
Y275000D02*
X241545Y275750D01*
X241909Y276250*
X242273Y276500*
X242818*
X461909Y253000D02*
X461682Y253625D01*
X461227Y254250*
X460773Y254563*
X460773D02*
X459864D01*
X459864D02*
X459409Y254250D01*
X458955Y253625*
X458727Y253000*
X458500Y252063*
X458500D02*
Y250500D01*
X458727Y249563*
X458727D02*
X458955Y248938D01*
X458955D02*
X459409Y248313D01*
X459409D02*
X459864Y248000D01*
X460773*
X461227Y248313*
X461227D02*
X461682Y248938D01*
X461682D02*
X461909Y249563D01*
X461909D02*
Y250500D01*
X460773D02*
X461909D01*
X465773Y254563D02*
X463955Y248000D01*
X465773Y254563D02*
X467591Y248000D01*
X464636Y250188D02*
X466909D01*
X469636Y254563D02*
Y248000D01*
X471682Y254563D02*
Y248000D01*
Y254563D02*
X474864Y248000D01*
Y254563D02*
Y248000D01*
X315500Y248063D02*
Y241500D01*
Y248063D02*
X317545D01*
X317545D02*
X318227Y247750D01*
X318455Y247438*
X318455D02*
X318682Y246813D01*
X318682D02*
Y246188D01*
X318682D02*
X318455Y245563D01*
X318455D02*
X318227Y245250D01*
X317545Y244938*
X317545D02*
X315500D01*
X317091D02*
X318682Y241500D01*
X323909Y247125D02*
X323455Y247750D01*
X322773Y248063*
X322773D02*
X321864D01*
X321864D02*
X321182Y247750D01*
X320727Y247125*
Y246500*
X320955Y245875*
X321182Y245563*
X321182D02*
X321636Y245250D01*
X323000Y244625*
X323455Y244313*
X323455D02*
X323682Y244000D01*
X323909Y243375*
Y242438*
X323909D02*
X323455Y241813D01*
X323455D02*
X322773Y241500D01*
X321864*
X321182Y241813*
X321182D02*
X320727Y242438D01*
X328227Y248063D02*
X325955Y243688D01*
X325955D02*
X329364D01*
X328227Y248063D02*
Y241500D01*
X332545Y248063D02*
X331864Y247750D01*
X331636Y247125*
Y246500*
X331864Y245875*
X332318Y245563*
X332318D02*
X333227Y245250D01*
X333909Y244938*
X333909D02*
X334364Y244313D01*
X334364D02*
X334591Y243688D01*
X334591D02*
Y242750D01*
X334364Y242125*
X334136Y241813*
X334136D02*
X333455Y241500D01*
X332545*
X331864Y241813*
X331864D02*
X331636Y242125D01*
X331409Y242750*
Y243688*
X331409D02*
X331636Y244313D01*
X331636D02*
X332091Y244938D01*
X332091D02*
X332773Y245250D01*
X333682Y245563*
X333682D02*
X334136Y245875D01*
X334364Y246500*
Y247125*
X334136Y247750*
X333455Y248063*
X333455D02*
X332545D01*
X339591D02*
X337318D01*
X337318D02*
X337091Y245250D01*
X337318Y245563*
X337318D02*
X338000Y245875D01*
X338682*
X339364Y245563*
X339364D02*
X339818Y244938D01*
X339818D02*
X340045Y244000D01*
X339818Y243375*
X339591Y242438*
X339591D02*
X339136Y241813D01*
X339136D02*
X338455Y241500D01*
X337773*
X337091Y241813*
X337091D02*
X336864Y242125D01*
X336636Y242750*
X315818Y178563D02*
X314000Y172000D01*
X315818Y178563D02*
X317636Y172000D01*
X314682Y174188D02*
X316955D01*
X319682Y178563D02*
X322864Y172000D01*
Y178563D02*
X319682Y172000D01*
X324909Y174813D02*
X329000D01*
X331045Y177313D02*
X331500Y177625D01*
X332182Y178563*
X332182D02*
Y172000D01*
X334455Y177000D02*
Y177313D01*
X334455D02*
X334682Y177938D01*
X334682D02*
X334909Y178250D01*
X335364Y178563*
X335364D02*
X336273D01*
X336273D02*
X336727Y178250D01*
X336955Y177938*
X336955D02*
X337182Y177313D01*
X337182D02*
Y176688D01*
X337182D02*
X336955Y176063D01*
X336955D02*
X336500Y175125D01*
X334227Y172000*
X337409*
G54D13*
X119892Y393016D02*
X120049Y392788D01*
X120517Y392448*
X117236*
X120286Y346559D02*
X120442Y346332D01*
X120911Y345991*
X117630*
X120442Y343605D02*
X120755Y343718D01*
X120911Y344059*
Y344286*
X120755Y344627*
X120286Y344855*
X119505Y344968*
X118724*
X118099Y344855*
X117786Y344627*
X117630Y344286*
Y344173*
X117786Y343832*
X118099Y343605*
X118567Y343491*
X118724*
X119192Y343605*
X119505Y343832*
X119661Y344173*
Y344286*
X119505Y344627*
X119192Y344855*
X118724Y344968*
X131803Y332680D02*
X132030Y332836D01*
X132371Y333305*
Y330024*
X134985Y333305D02*
X133849Y330024D01*
X133394Y333305D02*
X134985D01*
X178881D02*
X180131D01*
X179449Y332055*
X179790*
X180017Y331899*
X180131Y331742*
X180244Y331274*
Y330961*
X180131Y330492*
X179904Y330180*
X179563Y330024*
X179222*
X178881Y330180*
X178767Y330336*
X178654Y330649*
X181381Y332524D02*
Y332680D01*
X181494Y332992*
X181608Y333149*
X181835Y333305*
X182290*
X182517Y333149*
X182631Y332992*
X182744Y332680*
Y332367*
X182631Y332055*
X182404Y331586*
X181267Y330024*
X182858*
X192695Y343243D02*
Y344493D01*
X193945Y343811*
Y344152*
X194101Y344379*
X194258Y344493*
X194726Y344607*
X195039*
X195508Y344493*
X195820Y344266*
X195976Y343925*
Y343584*
X195820Y343243*
X195664Y343129*
X195351Y343016*
X192695Y345857D02*
Y347107D01*
X193945Y346425*
Y346766*
X194101Y346993*
X194258Y347107*
X194726Y347220*
X195039*
X195508Y347107*
X195820Y346879*
X195976Y346538*
Y346198*
X195820Y345857*
X195664Y345743*
X195351Y345629*
X192301Y391790D02*
X194489Y390654D01*
Y392358*
X192301Y391790D02*
X195583D01*
X192301Y393949D02*
X192458Y393608D01*
X192770Y393494*
X193083*
X193395Y393608*
X193551Y393835*
X193708Y394290*
X193864Y394631*
X194176Y394858*
X194489Y394972*
X194958*
X195270Y394858*
X195426Y394744*
X195583Y394404*
Y393949*
X195426Y393608*
X195270Y393494*
X194958Y393381*
X194489*
X194176Y393494*
X193864Y393722*
X193708Y394063*
X193551Y394517*
X193395Y394744*
X193083Y394858*
X192770*
X192458Y394744*
X192301Y394404*
Y393949*
X181848Y404695D02*
X182984Y406883D01*
X181280*
X181848Y404695D02*
Y407976D01*
X178780Y405789D02*
X178893Y406258D01*
X179121Y406570*
X179462Y406726*
X179575*
X179916Y406570*
X180143Y406258*
X180257Y405789*
Y405633*
X180143Y405164*
X179916Y404851*
X179575Y404695*
X179462*
X179121Y404851*
X178893Y405164*
X178780Y405789*
Y406570*
X178893Y407351*
X179121Y407820*
X179462Y407976*
X179689*
X180030Y407820*
X180143Y407508*
X133983Y404770D02*
X134096Y404458D01*
X134437Y404301*
X134665*
X135006Y404458*
X135233Y404926*
X135346Y405708*
Y406489*
X135233Y407114*
X135006Y407426*
X134665Y407583*
X134551*
X134210Y407426*
X133983Y407114*
X133869Y406645*
Y406489*
X133983Y406020*
X134210Y405708*
X134551Y405551*
X134665*
X135006Y405708*
X135233Y406020*
X135346Y406489*
X131710Y404301D02*
X132846Y406489D01*
X131142*
X131710Y404301D02*
Y407583D01*
X262977Y269887D02*
Y272700D01*
X264000Y271294D02*
X261955D01*
X331892Y393016D02*
X332049Y392788D01*
X332517Y392448*
X329236*
X332286Y346559D02*
X332442Y346332D01*
X332911Y345991*
X329630*
X332442Y343605D02*
X332755Y343718D01*
X332911Y344059*
Y344286*
X332755Y344627*
X332286Y344855*
X331505Y344968*
X330724*
X330099Y344855*
X329786Y344627*
X329630Y344286*
Y344173*
X329786Y343832*
X330099Y343605*
X330567Y343491*
X330724*
X331192Y343605*
X331505Y343832*
X331661Y344173*
Y344286*
X331505Y344627*
X331192Y344855*
X330724Y344968*
X343803Y332680D02*
X344030Y332836D01*
X344371Y333305*
Y330024*
X346985Y333305D02*
X345849Y330024D01*
X345394Y333305D02*
X346985D01*
X390881D02*
X392131D01*
X391449Y332055*
X391790*
X392017Y331899*
X392131Y331742*
X392244Y331274*
Y330961*
X392131Y330492*
X391904Y330180*
X391563Y330024*
X391222*
X390881Y330180*
X390767Y330336*
X390654Y330649*
X393381Y332524D02*
Y332680D01*
X393494Y332992*
X393608Y333149*
X393835Y333305*
X394290*
X394517Y333149*
X394631Y332992*
X394744Y332680*
Y332367*
X394631Y332055*
X394404Y331586*
X393267Y330024*
X394858*
X404695Y343243D02*
Y344493D01*
X405945Y343811*
Y344152*
X406101Y344379*
X406258Y344493*
X406726Y344607*
X407039*
X407508Y344493*
X407820Y344266*
X407976Y343925*
Y343584*
X407820Y343243*
X407664Y343129*
X407351Y343016*
X404695Y345857D02*
Y347107D01*
X405945Y346425*
Y346766*
X406101Y346993*
X406258Y347107*
X406726Y347220*
X407039*
X407508Y347107*
X407820Y346879*
X407976Y346538*
Y346198*
X407820Y345857*
X407664Y345743*
X407351Y345629*
X404301Y391790D02*
X406489Y390654D01*
Y392358*
X404301Y391790D02*
X407583D01*
X404301Y393949D02*
X404458Y393608D01*
X404770Y393494*
X405083*
X405395Y393608*
X405551Y393835*
X405708Y394290*
X405864Y394631*
X406176Y394858*
X406489Y394972*
X406958*
X407270Y394858*
X407426Y394744*
X407583Y394404*
Y393949*
X407426Y393608*
X407270Y393494*
X406958Y393381*
X406489*
X406176Y393494*
X405864Y393722*
X405708Y394063*
X405551Y394517*
X405395Y394744*
X405083Y394858*
X404770*
X404458Y394744*
X404301Y394404*
Y393949*
X393848Y404695D02*
X394984Y406883D01*
X393280*
X393848Y404695D02*
Y407976D01*
X390780Y405789D02*
X390893Y406258D01*
X391121Y406570*
X391462Y406726*
X391575*
X391916Y406570*
X392143Y406258*
X392257Y405789*
Y405633*
X392143Y405164*
X391916Y404851*
X391575Y404695*
X391462*
X391121Y404851*
X390893Y405164*
X390780Y405789*
Y406570*
X390893Y407351*
X391121Y407820*
X391462Y407976*
X391689*
X392030Y407820*
X392143Y407508*
X345983Y404770D02*
X346096Y404458D01*
X346437Y404301*
X346665*
X347006Y404458*
X347233Y404926*
X347346Y405708*
Y406489*
X347233Y407114*
X347006Y407426*
X346665Y407583*
X346551*
X346210Y407426*
X345983Y407114*
X345869Y406645*
Y406489*
X345983Y406020*
X346210Y405708*
X346551Y405551*
X346665*
X347006Y405708*
X347233Y406020*
X347346Y406489*
X343710Y404301D02*
X344846Y406489D01*
X343142*
X343710Y404301D02*
Y407583D01*
X474977Y269887D02*
Y272700D01*
X476000Y271294D02*
X473955D01*
X113500Y360781D02*
Y358438D01*
X113500D02*
X113614Y357969D01*
X113841Y357656*
X114182Y357500*
X114409*
X114750Y357656*
X114977Y357969*
X115091Y358438*
X115091D02*
Y360781D01*
X117477Y360313D02*
X117364Y360625D01*
X117023Y360781*
X116795*
X116455Y360625*
X116227Y360156*
X116114Y359375*
Y358594*
X116227Y357969*
X116455Y357656*
X116795Y357500*
X116909*
X117250Y357656*
X117477Y357969*
X117591Y358438*
X117591D02*
Y358594D01*
X117477Y359063*
X117477D02*
X117250Y359375D01*
X116909Y359531*
X116795*
X116455Y359375*
X116227Y359063*
X116227D02*
X116114Y358594D01*
X137000Y422781D02*
X137909Y421219D01*
Y419500*
X138818Y422781D02*
X137909Y421219D01*
X139841Y422156D02*
X140068Y422313D01*
X140068D02*
X140409Y422781D01*
Y419500*
X134932Y444000D02*
X134818Y444313D01*
X134818D02*
X134591Y444625D01*
X134364Y444781*
X133909*
X133682Y444625*
X133455Y444313*
X133455D02*
X133341Y444000D01*
X133227Y443531*
Y442750*
X133341Y442281*
X133455Y441969*
X133682Y441656*
X133909Y441500*
X134364*
X134591Y441656*
X134818Y441969*
X134932Y442281*
X136068Y444000D02*
Y444156D01*
X136182Y444469*
X136295Y444625*
X136523Y444781*
X136977*
X137205Y444625*
X137318Y444469*
X137432Y444156*
Y443844*
X137318Y443531*
X137091Y443063*
X137091D02*
X135955Y441500D01*
X137545*
X171818Y416500D02*
X171705Y416813D01*
X171705D02*
X171477Y417125D01*
X171250Y417281*
X170795*
X170568Y417125*
X170341Y416813*
X170341D02*
X170227Y416500D01*
X170114Y416031*
Y415250*
X170227Y414781*
X170341Y414469*
X170568Y414156*
X170795Y414000*
X171250*
X171477Y414156*
X171705Y414469*
X171818Y414781*
X173068Y417281D02*
X174318D01*
X173636Y416031*
X173977*
X174205Y415875*
X174318Y415719*
X174432Y415250*
Y414938*
X174432D02*
X174318Y414469D01*
X174091Y414156*
X173750Y414000*
X173409*
X173068Y414156*
X172955Y414313*
X172955D02*
X172841Y414625D01*
X175682Y417281D02*
X176932D01*
X176250Y416031*
X176591*
X176818Y415875*
X176932Y415719*
X177045Y415250*
Y414938*
X177045D02*
X176932Y414469D01*
X176705Y414156*
X176364Y414000*
X176023*
X175682Y414156*
X175568Y414313*
X175568D02*
X175455Y414625D01*
X170955Y444000D02*
X170841Y444313D01*
X170614Y444625*
X170386Y444781*
X169932*
X169705Y444625*
X169477Y444313*
X169364Y444000*
X169250Y443531*
Y442750*
X169364Y442281*
X169477Y441969*
X169705Y441656*
X169932Y441500*
X170386*
X170614Y441656*
X170841Y441969*
X170955Y442281*
X171977Y444156D02*
X172205Y444313D01*
X172545Y444781*
Y441500*
X208705Y383500D02*
X208591Y383813D01*
X208364Y384125*
X208136Y384281*
X207682*
X207455Y384125*
X207227Y383813*
X207114Y383500*
X207000Y383031*
Y382250*
X207114Y381781*
X207227Y381469*
X207455Y381156*
X207682Y381000*
X208136*
X208364Y381156*
X208591Y381469*
X208705Y381781*
X210864Y384281D02*
X209727Y382094D01*
X211432*
X210864Y384281D02*
Y381000D01*
X212682Y384281D02*
X213932D01*
X213250Y383031*
X213591*
X213818Y382875*
X213932Y382719*
X214045Y382250*
Y381938*
X213932Y381469*
X213705Y381156*
X213364Y381000*
X213023*
X212682Y381156*
X212568Y381313*
X212455Y381625*
X213009Y347000D02*
X213123Y346687D01*
X213123D02*
X213350Y346375D01*
X213577Y346219*
X214032*
X214259Y346375*
X214486Y346687*
X214486D02*
X214600Y347000D01*
X214714Y347469*
Y348250*
X214600Y348719*
X214486Y349031*
X214259Y349344*
X214032Y349500*
X213577*
X213350Y349344*
X213123Y349031*
X213009Y348719*
X210850Y346219D02*
X211986Y348406D01*
X210282*
X210850Y346219D02*
Y349500D01*
X208123Y346219D02*
X209259Y348406D01*
X207555*
X208123Y346219D02*
Y349500D01*
X160000Y336009D02*
X160313Y336123D01*
X160313D02*
X160625Y336350D01*
X160781Y336577*
Y337032*
X160625Y337259*
X160313Y337486*
X160313D02*
X160000Y337600D01*
X159531Y337714*
X158750*
X158281Y337600*
X157969Y337486*
X157656Y337259*
X157500Y337032*
Y336577*
X157656Y336350*
X157969Y336123*
X158281Y336009*
X160781Y333850D02*
X158594Y334986D01*
Y333282*
X160781Y333850D02*
X157500D01*
X160781Y330782D02*
Y331918D01*
X159375Y332032*
X159531Y331918*
X159688Y331577*
X159688D02*
Y331236D01*
X159688D02*
X159531Y330895D01*
X159219Y330668*
X158750Y330555*
X158438Y330668*
X158438D02*
X157969Y330782D01*
X157656Y331009*
X157500Y331350*
Y331691*
X157656Y332032*
X157813Y332145*
X157813D02*
X158125Y332259D01*
X104318Y345500D02*
X104205Y345813D01*
X104205D02*
X103977Y346125D01*
X103750Y346281*
X103295*
X103068Y346125*
X102841Y345813*
X102841D02*
X102727Y345500D01*
X102614Y345031*
Y344250*
X102727Y343781*
X102841Y343469*
X103068Y343156*
X103295Y343000*
X103750*
X103977Y343156*
X104205Y343469*
X104318Y343781*
X106477Y346281D02*
X105341Y344094D01*
X107045*
X106477Y346281D02*
Y343000D01*
X109432Y345813D02*
X109318Y346125D01*
X108977Y346281*
X108750*
X108409Y346125*
X108182Y345656*
X108068Y344875*
Y344094*
X108182Y343469*
X108409Y343156*
X108750Y343000*
X108864*
X109205Y343156*
X109432Y343469*
X109545Y343938*
X109545D02*
Y344094D01*
X109432Y344563*
X109432D02*
X109205Y344875D01*
X108864Y345031*
X108750*
X108409Y344875*
X108182Y344563*
X108182D02*
X108068Y344094D01*
X134205Y411500D02*
X134091Y411813D01*
X134091D02*
X133864Y412125D01*
X133636Y412281*
X133182*
X132955Y412125*
X132727Y411813*
X132727D02*
X132614Y411500D01*
X132500Y411031*
Y410250*
X132614Y409781*
X132727Y409469*
X132955Y409156*
X133182Y409000*
X133636*
X133864Y409156*
X134091Y409469*
X134205Y409781*
X136364Y412281D02*
X135227Y410094D01*
X136932*
X136364Y412281D02*
Y409000D01*
X139545Y412281D02*
X138409Y409000D01*
X137955Y412281D02*
X139545D01*
X144000Y299281D02*
Y296938D01*
X144000D02*
X144114Y296469D01*
X144341Y296156*
X144682Y296000*
X144909*
X145250Y296156*
X145477Y296469*
X145591Y296938*
X145591D02*
Y299281D01*
X148091Y298188D02*
X147977Y297719D01*
X147750Y297406*
X147409Y297250*
X147295*
X146955Y297406*
X146727Y297719*
X146614Y298188*
X146614D02*
Y298344D01*
X146727Y298813*
X146727D02*
X146955Y299125D01*
X147295Y299281*
X147409*
X147750Y299125*
X147977Y298813*
X147977D02*
X148091Y298188D01*
X148091D02*
Y297406D01*
X147977Y296625*
X147750Y296156*
X147409Y296000*
X147182*
X146841Y296156*
X146727Y296469*
X156705Y279000D02*
X156591Y279313D01*
X156591D02*
X156364Y279625D01*
X156136Y279781*
X155682*
X155455Y279625*
X155227Y279313*
X155227D02*
X155114Y279000D01*
X155000Y278531*
Y277750*
X155114Y277281*
X155227Y276969*
X155455Y276656*
X155682Y276500*
X156136*
X156364Y276656*
X156591Y276969*
X156705Y277281*
X157727Y279156D02*
X157955Y279313D01*
X157955D02*
X158295Y279781D01*
Y276500*
X159318Y279156D02*
X159545Y279313D01*
X159545D02*
X159886Y279781D01*
Y276500*
X161136Y279781D02*
X162386D01*
X161705Y278531*
X162045*
X162273Y278375*
X162386Y278219*
X162500Y277750*
Y277438*
X162500D02*
X162386Y276969D01*
X162159Y276656*
X161818Y276500*
X161477*
X161136Y276656*
X161023Y276813*
X161023D02*
X160909Y277125D01*
X152136Y253781D02*
Y251281D01*
X152023Y250813*
X152023D02*
X151909Y250656D01*
X151682Y250500*
X151455*
X151227Y250656*
X151114Y250813*
X151114D02*
X151000Y251281D01*
Y251594*
X153273Y253000D02*
Y253156D01*
X153386Y253469*
X153500Y253625*
X153727Y253781*
X154182*
X154409Y253625*
X154523Y253469*
X154636Y253156*
Y252844*
X154523Y252531*
X154295Y252063*
X154295D02*
X153159Y250500D01*
X154750*
X156455Y253781D02*
X156114Y253625D01*
X155886Y253156*
X155773Y252375*
Y251906*
X155886Y251125*
X156114Y250656*
X156455Y250500*
X156682*
X157023Y250656*
X157250Y251125*
X157364Y251906*
Y252375*
X157250Y253156*
X157023Y253625*
X156682Y253781*
X156455*
X159523D02*
X158386Y251594D01*
X160091*
X159523Y253781D02*
Y250500D01*
X224636Y411781D02*
Y409281D01*
X224523Y408813*
X224523D02*
X224409Y408656D01*
X224182Y408500*
X223955*
X223727Y408656*
X223614Y408813*
X223614D02*
X223500Y409281D01*
Y409594*
X225773Y411000D02*
Y411156D01*
X225886Y411469*
X226000Y411625*
X226227Y411781*
X226682*
X226909Y411625*
X227023Y411469*
X227136Y411156*
Y410844*
X227023Y410531*
X226795Y410063*
X226795D02*
X225659Y408500D01*
X227250*
X228841Y411781D02*
X228500Y411625D01*
X228386Y411313*
X228386D02*
Y411000D01*
X228500Y410688*
X228500D02*
X228727Y410531D01*
X229182Y410375*
X229523Y410219*
X229750Y409906*
X229864Y409594*
Y409125*
X229750Y408813*
X229750D02*
X229636Y408656D01*
X229295Y408500*
X228841*
X228500Y408656*
X228386Y408813*
X228386D02*
X228273Y409125D01*
Y409594*
X228386Y409906*
X228614Y410219*
X228955Y410375*
X229409Y410531*
X229636Y410688*
X229636D02*
X229750Y411000D01*
Y411313*
X229750D02*
X229636Y411625D01*
X229295Y411781*
X228841*
X161227Y288500D02*
X161114Y288813D01*
X161114D02*
X160886Y289125D01*
X160659Y289281*
X160205*
X159977Y289125*
X159750Y288813*
X159750D02*
X159636Y288500D01*
X159523Y288031*
Y287250*
X159636Y286781*
X159750Y286469*
X159977Y286156*
X160205Y286000*
X160659*
X160886Y286156*
X161114Y286469*
X161227Y286781*
X162250Y288656D02*
X162477Y288813D01*
X162477D02*
X162818Y289281D01*
Y286000*
X164523Y289281D02*
X164182Y289125D01*
X163955Y288656*
X163841Y287875*
Y287406*
X163955Y286625*
X164182Y286156*
X164523Y286000*
X164750*
X165091Y286156*
X165318Y286625*
X165432Y287406*
Y287875*
X165318Y288656*
X165091Y289125*
X164750Y289281*
X164523*
X166682D02*
X167932D01*
X167250Y288031*
X167591*
X167818Y287875*
X167932Y287719*
X168045Y287250*
Y286938*
X168045D02*
X167932Y286469D01*
X167705Y286156*
X167364Y286000*
X167023*
X166682Y286156*
X166568Y286313*
X166568D02*
X166455Y286625D01*
X173705Y317500D02*
X173591Y317812D01*
X173591D02*
X173364Y318125D01*
X173136Y318281*
X172682*
X172455Y318125*
X172227Y317812*
X172227D02*
X172114Y317500D01*
X172000Y317031*
Y316250*
X172114Y315781*
X172227Y315469*
X172455Y315156*
X172682Y315000*
X173136*
X173364Y315156*
X173591Y315469*
X173705Y315781*
X174727Y317656D02*
X174955Y317812D01*
X174955D02*
X175295Y318281D01*
Y315000*
X177000Y318281D02*
X176659Y318125D01*
X176432Y317656*
X176318Y316875*
Y316406*
X176432Y315625*
X176659Y315156*
X177000Y315000*
X177227*
X177568Y315156*
X177795Y315625*
X177909Y316406*
Y316875*
X177795Y317656*
X177568Y318125*
X177227Y318281*
X177000*
X180068D02*
X178932Y316094D01*
X180636*
X180068Y318281D02*
Y315000D01*
X176114Y299500D02*
X176000Y299813D01*
X175773Y300125*
X175545Y300281*
X175091*
X174864Y300125*
X174636Y299813*
X174523Y299500*
X174409Y299031*
Y298250*
X174523Y297781*
X174636Y297469*
X174864Y297156*
X175091Y297000*
X175545*
X175773Y297156*
X176000Y297469*
X176114Y297781*
X177136Y299656D02*
X177364Y299813D01*
X177705Y300281*
Y297000*
X179409Y300281D02*
X179068Y300125D01*
X178841Y299656*
X178727Y298875*
Y298406*
X178841Y297625*
X179068Y297156*
X179409Y297000*
X179636*
X179977Y297156*
X180205Y297625*
X180318Y298406*
Y298875*
X180205Y299656*
X179977Y300125*
X179636Y300281*
X179409*
X182818D02*
X181682D01*
X181568Y298875*
X181682Y299031*
X182023Y299188*
X182364*
X182705Y299031*
X182932Y298719*
X183045Y298250*
X182932Y297938*
X182818Y297469*
X182591Y297156*
X182250Y297000*
X181909*
X181568Y297156*
X181455Y297313*
X181341Y297625*
X175500Y322781D02*
Y319500D01*
Y322781D02*
X176295D01*
X176636Y322625*
X176864Y322313*
X176864D02*
X176977Y322000D01*
X177091Y321531*
Y320750*
X176977Y320281*
X176864Y319969*
X176636Y319656*
X176295Y319500*
X175500*
X178114Y322156D02*
X178341Y322313D01*
X178341D02*
X178682Y322781D01*
Y319500*
X179932Y322781D02*
X181182D01*
X180500Y321531*
X180841*
X181068Y321375*
X181182Y321219*
X181295Y320750*
Y320438*
X181295D02*
X181182Y319969D01*
X180955Y319656*
X180614Y319500*
X180273*
X179932Y319656*
X179818Y319813*
X179818D02*
X179705Y320125D01*
X192250Y310781D02*
Y307500D01*
Y310781D02*
X193273D01*
X193614Y310625*
X193727Y310469*
X193841Y310156*
Y309844*
X193727Y309531*
X193614Y309375*
X193273Y309219*
X192250*
X193045D02*
X193841Y307500D01*
X194864Y310156D02*
X195091Y310313D01*
X195091D02*
X195432Y310781D01*
Y307500*
X197136Y310781D02*
X196795Y310625D01*
X196568Y310156*
X196455Y309375*
Y308906*
X196568Y308125*
X196795Y307656*
X197136Y307500*
X197364*
X197705Y307656*
X197932Y308125*
X198045Y308906*
Y309375*
X197932Y310156*
X197705Y310625*
X197364Y310781*
X197136*
X200545Y309688D02*
X200432Y309219D01*
X200205Y308906*
X199864Y308750*
X199750*
X199409Y308906*
X199182Y309219*
X199068Y309688*
X199068D02*
Y309844D01*
X199182Y310313*
X199182D02*
X199409Y310625D01*
X199750Y310781*
X199864*
X200205Y310625*
X200432Y310313*
X200432D02*
X200545Y309688D01*
X200545D02*
Y308906D01*
X200432Y308125*
X200205Y307656*
X199864Y307500*
X199636*
X199295Y307656*
X199182Y307969*
X209500Y284281D02*
Y281938D01*
X209614Y281469*
X209841Y281156*
X210182Y281000*
X210409*
X210750Y281156*
X210977Y281469*
X211091Y281938*
Y284281*
X212114Y283656D02*
X212341Y283813D01*
X212682Y284281*
Y281000*
X214386Y284281D02*
X214045Y284125D01*
X213818Y283656*
X213705Y282875*
Y282406*
X213818Y281625*
X214045Y281156*
X214386Y281000*
X214614*
X214955Y281156*
X215182Y281625*
X215295Y282406*
Y282875*
X215182Y283656*
X214955Y284125*
X214614Y284281*
X214386*
X268500Y140281D02*
Y137938D01*
X268500D02*
X268614Y137469D01*
X268841Y137156*
X269182Y137000*
X269409*
X269750Y137156*
X269977Y137469*
X270091Y137938*
X270091D02*
Y140281D01*
X272591D02*
X271455D01*
X271341Y138875*
X271455Y139031*
X271795Y139188*
X271795D02*
X272136D01*
X272136D02*
X272477Y139031D01*
X272705Y138719*
X272818Y138250*
X272705Y137938*
X272705D02*
X272591Y137469D01*
X272364Y137156*
X272023Y137000*
X271682*
X271341Y137156*
X271227Y137313*
X271227D02*
X271114Y137625D01*
X237500Y399281D02*
Y396938D01*
X237500D02*
X237614Y396469D01*
X237841Y396156*
X238182Y396000*
X238409*
X238750Y396156*
X238977Y396469*
X239091Y396938*
X239091D02*
Y399281D01*
X240227Y398500D02*
Y398656D01*
X240341Y398969*
X240455Y399125*
X240682Y399281*
X241136*
X241364Y399125*
X241477Y398969*
X241591Y398656*
Y398344*
X241477Y398031*
X241250Y397563*
X241250D02*
X240114Y396000D01*
X241705*
X229432Y380000D02*
X229318Y380313D01*
X229091Y380625*
X228864Y380781*
X228409*
X228182Y380625*
X227955Y380313*
X227841Y380000*
X227727Y379531*
Y378750*
X227841Y378281*
X227955Y377969*
X228182Y377656*
X228409Y377500*
X228864*
X229091Y377656*
X229318Y377969*
X229432Y378281*
X230682Y380781D02*
X231932D01*
X231250Y379531*
X231591*
X231818Y379375*
X231932Y379219*
X232045Y378750*
Y378438*
X231932Y377969*
X231705Y377656*
X231364Y377500*
X231023*
X230682Y377656*
X230568Y377813*
X230455Y378125*
X256818Y359000D02*
X256705Y359313D01*
X256705D02*
X256477Y359625D01*
X256250Y359781*
X255795*
X255568Y359625*
X255341Y359313*
X255341D02*
X255227Y359000D01*
X255114Y358531*
Y357750*
X255227Y357281*
X255341Y356969*
X255568Y356656*
X255795Y356500*
X256250*
X256477Y356656*
X256705Y356969*
X256818Y357281*
X258977Y359781D02*
X257841Y357594D01*
X259545*
X258977Y359781D02*
Y356500D01*
X221000Y311281D02*
Y308938D01*
X221000D02*
X221114Y308469D01*
X221341Y308156*
X221682Y308000*
X221909*
X222250Y308156*
X222477Y308469*
X222591Y308938*
X222591D02*
Y311281D01*
X223841D02*
X225091D01*
X224409Y310031*
X224750*
X224977Y309875*
X225091Y309719*
X225205Y309250*
Y308938*
X225205D02*
X225091Y308469D01*
X224864Y308156*
X224523Y308000*
X224182*
X223841Y308156*
X223727Y308313*
X223727D02*
X223614Y308625D01*
X262818Y322000D02*
X262705Y322313D01*
X262477Y322625*
X262250Y322781*
X261795*
X261568Y322625*
X261341Y322313*
X261227Y322000*
X261114Y321531*
Y320750*
X261227Y320281*
X261341Y319969*
X261568Y319656*
X261795Y319500*
X262250*
X262477Y319656*
X262705Y319969*
X262818Y320281*
X265318Y322781D02*
X264182D01*
X264068Y321375*
X264182Y321531*
X264523Y321688*
X264864*
X265205Y321531*
X265432Y321219*
X265545Y320750*
X265432Y320438*
X265318Y319969*
X265091Y319656*
X264750Y319500*
X264409*
X264068Y319656*
X263955Y319813*
X263841Y320125*
X253045Y295500D02*
X252932Y295813D01*
X252705Y296125*
X252477Y296281*
X252023*
X251795Y296125*
X251568Y295813*
X251455Y295500*
X251341Y295031*
Y294250*
X251455Y293781*
X251568Y293469*
X251795Y293156*
X252023Y293000*
X252477*
X252705Y293156*
X252932Y293469*
X253045Y293781*
X255432Y295813D02*
X255318Y296125D01*
X254977Y296281*
X254750*
X254409Y296125*
X254182Y295656*
X254068Y294875*
Y294094*
X254182Y293469*
X254409Y293156*
X254750Y293000*
X254864*
X255205Y293156*
X255432Y293469*
X255545Y293938*
Y294094*
X255432Y294563*
X255205Y294875*
X254864Y295031*
X254750*
X254409Y294875*
X254182Y294563*
X254068Y294094*
X116136Y133281D02*
Y130781D01*
X116023Y130313*
X116023D02*
X115909Y130156D01*
X115682Y130000*
X115455*
X115227Y130156*
X115114Y130313*
X115114D02*
X115000Y130781D01*
Y131094*
X117159Y132656D02*
X117386Y132813D01*
X117386D02*
X117727Y133281D01*
Y130000*
X159341Y186500D02*
X159227Y186813D01*
X159000Y187125*
X158773Y187281*
X158318*
X158091Y187125*
X157864Y186813*
X157750Y186500*
X157636Y186031*
Y185250*
X157750Y184781*
X157864Y184469*
X158091Y184156*
X158318Y184000*
X158773*
X159000Y184156*
X159227Y184469*
X159341Y184781*
X160364Y186656D02*
X160591Y186813D01*
X160932Y187281*
Y184000*
X162636Y187281D02*
X162295Y187125D01*
X162068Y186656*
X161955Y185875*
Y185406*
X162068Y184625*
X162295Y184156*
X162636Y184000*
X162864*
X163205Y184156*
X163432Y184625*
X163545Y185406*
Y185875*
X163432Y186656*
X163205Y187125*
X162864Y187281*
X162636*
X166045Y186188D02*
X165932Y185719D01*
X165705Y185406*
X165364Y185250*
X165250*
X164909Y185406*
X164682Y185719*
X164568Y186188*
Y186344*
X164682Y186813*
X164909Y187125*
X165250Y187281*
X165364*
X165705Y187125*
X165932Y186813*
X166045Y186188*
Y185406*
X165932Y184625*
X165705Y184156*
X165364Y184000*
X165136*
X164795Y184156*
X164682Y184469*
X189705Y208500D02*
X189591Y208813D01*
X189591D02*
X189364Y209125D01*
X189136Y209281*
X188682*
X188455Y209125*
X188227Y208813*
X188227D02*
X188114Y208500D01*
X188000Y208031*
Y207250*
X188114Y206781*
X188227Y206469*
X188455Y206156*
X188682Y206000*
X189136*
X189364Y206156*
X189591Y206469*
X189705Y206781*
X190727Y208656D02*
X190955Y208813D01*
X190955D02*
X191295Y209281D01*
Y206000*
X192318Y208656D02*
X192545Y208813D01*
X192545D02*
X192886Y209281D01*
Y206000*
X194591Y209281D02*
X194250Y209125D01*
X194023Y208656*
X193909Y207875*
Y207406*
X194023Y206625*
X194250Y206156*
X194591Y206000*
X194818*
X195159Y206156*
X195386Y206625*
X195500Y207406*
Y207875*
X195386Y208656*
X195159Y209125*
X194818Y209281*
X194591*
X158773Y209500D02*
X158659Y209813D01*
X158659D02*
X158432Y210125D01*
X158205Y210281*
X157750*
X157523Y210125*
X157295Y209813*
X157295D02*
X157182Y209500D01*
X157068Y209031*
Y208250*
X157182Y207781*
X157295Y207469*
X157523Y207156*
X157750Y207000*
X158205*
X158432Y207156*
X158659Y207469*
X158773Y207781*
X159795Y209656D02*
X160023Y209813D01*
X160023D02*
X160364Y210281D01*
Y207000*
X161386Y209656D02*
X161614Y209813D01*
X161614D02*
X161955Y210281D01*
Y207000*
X162977Y209656D02*
X163205Y209813D01*
X163205D02*
X163545Y210281D01*
Y207000*
X187636Y140781D02*
Y138281D01*
X187523Y137813*
X187523D02*
X187409Y137656D01*
X187182Y137500*
X186955*
X186727Y137656*
X186614Y137813*
X186614D02*
X186500Y138281D01*
Y138594*
X188773Y140000D02*
Y140156D01*
X188886Y140469*
X189000Y140625*
X189227Y140781*
X189682*
X189909Y140625*
X190023Y140469*
X190136Y140156*
Y139844*
X190023Y139531*
X189795Y139063*
X189795D02*
X188659Y137500D01*
X190250*
X254500Y287781D02*
Y284500D01*
Y287781D02*
X255409Y284500D01*
X256318Y287781D02*
X255409Y284500D01*
X256318Y287781D02*
Y284500D01*
X257341Y287156D02*
X257568Y287313D01*
X257568D02*
X257909Y287781D01*
Y284500*
X273341Y214000D02*
X273227Y214313D01*
X273227D02*
X273000Y214625D01*
X272773Y214781*
X272318*
X272091Y214625*
X271864Y214313*
X271864D02*
X271750Y214000D01*
X271636Y213531*
Y212750*
X271750Y212281*
X271864Y211969*
X272091Y211656*
X272318Y211500*
X272773*
X273000Y211656*
X273227Y211969*
X273341Y212281*
X274364Y214156D02*
X274591Y214313D01*
X274591D02*
X274932Y214781D01*
Y211500*
X276636Y214781D02*
X276295Y214625D01*
X276068Y214156*
X275955Y213375*
Y212906*
X276068Y212125*
X276295Y211656*
X276636Y211500*
X276864*
X277205Y211656*
X277432Y212125*
X277545Y212906*
Y213375*
X277432Y214156*
X277205Y214625*
X276864Y214781*
X276636*
X242864Y237500D02*
X242750Y237813D01*
X242750D02*
X242523Y238125D01*
X242295Y238281*
X241841*
X241614Y238125*
X241386Y237813*
X241386D02*
X241273Y237500D01*
X241159Y237031*
Y236250*
X241273Y235781*
X241386Y235469*
X241614Y235156*
X241841Y235000*
X242295*
X242523Y235156*
X242750Y235469*
X242864Y235781*
X243886Y237656D02*
X244114Y237813D01*
X244114D02*
X244455Y238281D01*
Y235000*
X245477Y237656D02*
X245705Y237813D01*
X245705D02*
X246045Y238281D01*
Y235000*
X289727Y227281D02*
Y224000D01*
Y227281D02*
X290750D01*
X291091Y227125*
X291205Y226969*
X291318Y226656*
Y226344*
X291205Y226031*
X291091Y225875*
X290750Y225719*
X289727*
X290523D02*
X291318Y224000D01*
X293477Y227281D02*
X292341Y225094D01*
X294045*
X293477Y227281D02*
Y224000D01*
X201000Y255781D02*
Y253438D01*
X201000D02*
X201114Y252969D01*
X201341Y252656*
X201682Y252500*
X201909*
X202250Y252656*
X202477Y252969*
X202591Y253438*
X202591D02*
Y255781D01*
X205205D02*
X204068Y252500D01*
X203614Y255781D02*
X205205D01*
X206705Y220500D02*
X206591Y220813D01*
X206591D02*
X206364Y221125D01*
X206136Y221281*
X205682*
X205455Y221125*
X205227Y220813*
X205227D02*
X205114Y220500D01*
X205000Y220031*
Y219250*
X205114Y218781*
X205227Y218469*
X205455Y218156*
X205682Y218000*
X206136*
X206364Y218156*
X206591Y218469*
X206705Y218781*
X207727Y220656D02*
X207955Y220813D01*
X207955D02*
X208295Y221281D01*
Y218000*
X210909Y221281D02*
X209773Y218000D01*
X209318Y221281D02*
X210909D01*
X229705Y258500D02*
X229591Y258813D01*
X229591D02*
X229364Y259125D01*
X229136Y259281*
X228682*
X228455Y259125*
X228227Y258813*
X228227D02*
X228114Y258500D01*
X228000Y258031*
Y257250*
X228114Y256781*
X228227Y256469*
X228455Y256156*
X228682Y256000*
X229136*
X229364Y256156*
X229591Y256469*
X229705Y256781*
X230841Y258500D02*
Y258656D01*
X230955Y258969*
X231068Y259125*
X231295Y259281*
X231750*
X231977Y259125*
X232091Y258969*
X232205Y258656*
Y258344*
X232091Y258031*
X231864Y257563*
X231864D02*
X230727Y256000D01*
X232318*
X233568Y259281D02*
X234818D01*
X234136Y258031*
X234477*
X234705Y257875*
X234818Y257719*
X234932Y257250*
Y256938*
X234932D02*
X234818Y256469D01*
X234591Y256156*
X234250Y256000*
X233909*
X233568Y256156*
X233455Y256313*
X233455D02*
X233341Y256625D01*
X225705Y235000D02*
X225591Y235313D01*
X225591D02*
X225364Y235625D01*
X225136Y235781*
X224682*
X224455Y235625*
X224227Y235313*
X224227D02*
X224114Y235000D01*
X224000Y234531*
Y233750*
X224114Y233281*
X224227Y232969*
X224455Y232656*
X224682Y232500*
X225136*
X225364Y232656*
X225591Y232969*
X225705Y233281*
X226841Y235000D02*
Y235156D01*
X226955Y235469*
X227068Y235625*
X227295Y235781*
X227750*
X227977Y235625*
X228091Y235469*
X228205Y235156*
Y234844*
X228091Y234531*
X227864Y234063*
X227864D02*
X226727Y232500D01*
X228318*
X230477Y235781D02*
X229341Y233594D01*
X231045*
X230477Y235781D02*
Y232500D01*
X189205Y260000D02*
X189091Y260313D01*
X189091D02*
X188864Y260625D01*
X188636Y260781*
X188182*
X187955Y260625*
X187727Y260313*
X187727D02*
X187614Y260000D01*
X187500Y259531*
Y258750*
X187614Y258281*
X187727Y257969*
X187955Y257656*
X188182Y257500*
X188636*
X188864Y257656*
X189091Y257969*
X189205Y258281*
X190341Y260000D02*
Y260156D01*
X190455Y260469*
X190568Y260625*
X190795Y260781*
X191250*
X191477Y260625*
X191591Y260469*
X191705Y260156*
Y259844*
X191591Y259531*
X191364Y259063*
X191364D02*
X190227Y257500D01*
X191818*
X194205Y260313D02*
X194091Y260625D01*
X193750Y260781*
X193523*
X193182Y260625*
X192955Y260156*
X192841Y259375*
Y258594*
X192955Y257969*
X193182Y257656*
X193523Y257500*
X193636*
X193977Y257656*
X194205Y257969*
X194318Y258438*
X194318D02*
Y258594D01*
X194205Y259063*
X194205D02*
X193977Y259375D01*
X193636Y259531*
X193523*
X193182Y259375*
X192955Y259063*
X192955D02*
X192841Y258594D01*
X173705Y255000D02*
X173591Y255312D01*
X173591D02*
X173364Y255625D01*
X173136Y255781*
X172682*
X172455Y255625*
X172227Y255312*
X172227D02*
X172114Y255000D01*
X172000Y254531*
Y253750*
X172114Y253281*
X172227Y252969*
X172455Y252656*
X172682Y252500*
X173136*
X173364Y252656*
X173591Y252969*
X173705Y253281*
X174841Y255000D02*
Y255156D01*
X174955Y255469*
X175068Y255625*
X175295Y255781*
X175750*
X175977Y255625*
X176091Y255469*
X176205Y255156*
Y254844*
X176091Y254531*
X175864Y254062*
X175864D02*
X174727Y252500D01*
X176318*
X178932Y255781D02*
X177795Y252500D01*
X177341Y255781D02*
X178932D01*
X176341Y240281D02*
Y237000D01*
Y240281D02*
X177364D01*
X177705Y240125*
X177818Y239969*
X177932Y239656*
Y239344*
X177818Y239031*
X177705Y238875*
X177364Y238719*
X176341*
X177136D02*
X177932Y237000D01*
X180545Y240281D02*
X179409Y237000D01*
X178955Y240281D02*
X180545D01*
X185341Y229281D02*
Y226000D01*
Y229281D02*
X186364D01*
X186705Y229125*
X186818Y228969*
X186932Y228656*
Y228344*
X186818Y228031*
X186705Y227875*
X186364Y227719*
X185341*
X186136D02*
X186932Y226000D01*
X188523Y229281D02*
X188182Y229125D01*
X188068Y228813*
Y228500*
X188182Y228188*
X188409Y228031*
X188864Y227875*
X189205Y227719*
X189432Y227406*
X189545Y227094*
Y226625*
X189432Y226313*
X189318Y226156*
X188977Y226000*
X188523*
X188182Y226156*
X188068Y226313*
X187955Y226625*
Y227094*
X188068Y227406*
X188295Y227719*
X188636Y227875*
X189091Y228031*
X189318Y228188*
X189432Y228500*
Y228813*
X189318Y229125*
X188977Y229281*
X188523*
X185455Y222281D02*
Y219000D01*
Y222281D02*
X186477D01*
X186818Y222125*
X186932Y221969*
X187045Y221656*
Y221344*
X186932Y221031*
X186818Y220875*
X186477Y220719*
X185455*
X186250D02*
X187045Y219000D01*
X189545Y221188D02*
X189432Y220719D01*
X189205Y220406*
X188864Y220250*
X188750*
X188409Y220406*
X188182Y220719*
X188068Y221188*
Y221344*
X188182Y221813*
X188409Y222125*
X188750Y222281*
X188864*
X189205Y222125*
X189432Y221813*
X189545Y221188*
Y220406*
X189432Y219625*
X189205Y219156*
X188864Y219000*
X188636*
X188295Y219156*
X188182Y219469*
X281818Y226500D02*
X281705Y226813D01*
X281705D02*
X281477Y227125D01*
X281250Y227281*
X280795*
X280568Y227125*
X280341Y226813*
X280341D02*
X280227Y226500D01*
X280114Y226031*
Y225250*
X280227Y224781*
X280341Y224469*
X280568Y224156*
X280795Y224000*
X281250*
X281477Y224156*
X281705Y224469*
X281818Y224781*
X282955Y226500D02*
Y226656D01*
X283068Y226969*
X283182Y227125*
X283409Y227281*
X283864*
X284091Y227125*
X284205Y226969*
X284318Y226656*
Y226344*
X284205Y226031*
X283977Y225563*
X283977D02*
X282841Y224000D01*
X284432*
X286136Y227281D02*
X285795Y227125D01*
X285568Y226656*
X285455Y225875*
Y225406*
X285568Y224625*
X285795Y224156*
X286136Y224000*
X286364*
X286705Y224156*
X286932Y224625*
X287045Y225406*
Y225875*
X286932Y226656*
X286705Y227125*
X286364Y227281*
X286136*
X270955Y239281D02*
Y236000D01*
Y239281D02*
X271977D01*
X272318Y239125*
X272432Y238969*
X272545Y238656*
Y238344*
X272432Y238031*
X272318Y237875*
X271977Y237719*
X270955*
X271750D02*
X272545Y236000D01*
X274932Y238813D02*
X274818Y239125D01*
X274477Y239281*
X274250*
X273909Y239125*
X273682Y238656*
X273568Y237875*
Y237094*
X273682Y236469*
X273909Y236156*
X274250Y236000*
X274364*
X274705Y236156*
X274932Y236469*
X275045Y236938*
X275045D02*
Y237094D01*
X274932Y237563*
X274932D02*
X274705Y237875D01*
X274364Y238031*
X274250*
X273909Y237875*
X273682Y237563*
X273682D02*
X273568Y237094D01*
X249250Y200281D02*
Y197000D01*
Y200281D02*
X250273D01*
X250614Y200125*
X250727Y199969*
X250841Y199656*
Y199344*
X250727Y199031*
X250614Y198875*
X250273Y198719*
X249250*
X250045D02*
X250841Y197000D01*
X251864Y199656D02*
X252091Y199813D01*
X252091D02*
X252432Y200281D01*
Y197000*
X253568Y199500D02*
Y199656D01*
X253682Y199969*
X253795Y200125*
X254023Y200281*
X254477*
X254705Y200125*
X254818Y199969*
X254932Y199656*
Y199344*
X254818Y199031*
X254591Y198563*
X254591D02*
X253455Y197000D01*
X255045*
X256432Y171000D02*
X256318Y171313D01*
X256318D02*
X256091Y171625D01*
X255864Y171781*
X255409*
X255182Y171625*
X254955Y171313*
X254955D02*
X254841Y171000D01*
X254727Y170531*
Y169750*
X254841Y169281*
X254955Y168969*
X255182Y168656*
X255409Y168500*
X255864*
X256091Y168656*
X256318Y168969*
X256432Y169281*
X259045Y171781D02*
X257909Y168500D01*
X257455Y171781D02*
X259045D01*
X245932Y156000D02*
X245818Y156313D01*
X245818D02*
X245591Y156625D01*
X245364Y156781*
X244909*
X244682Y156625*
X244455Y156313*
X244455D02*
X244341Y156000D01*
X244227Y155531*
Y154750*
X244341Y154281*
X244455Y153969*
X244682Y153656*
X244909Y153500*
X245364*
X245591Y153656*
X245818Y153969*
X245932Y154281*
X247523Y156781D02*
X247182Y156625D01*
X247068Y156313*
X247068D02*
Y156000D01*
X247182Y155688*
X247182D02*
X247409Y155531D01*
X247864Y155375*
X248205Y155219*
X248432Y154906*
X248545Y154594*
Y154125*
X248432Y153813*
X248432D02*
X248318Y153656D01*
X247977Y153500*
X247523*
X247182Y153656*
X247068Y153813*
X247068D02*
X246955Y154125D01*
Y154594*
X247068Y154906*
X247295Y155219*
X247636Y155375*
X248091Y155531*
X248318Y155688*
X248318D02*
X248432Y156000D01*
Y156313*
X248432D02*
X248318Y156625D01*
X247977Y156781*
X247523*
X290841Y140000D02*
X290727Y140313D01*
X290727D02*
X290500Y140625D01*
X290273Y140781*
X289818*
X289591Y140625*
X289364Y140313*
X289364D02*
X289250Y140000D01*
X289136Y139531*
Y138750*
X289250Y138281*
X289364Y137969*
X289591Y137656*
X289818Y137500*
X290273*
X290500Y137656*
X290727Y137969*
X290841Y138281*
X291864Y140156D02*
X292091Y140313D01*
X292091D02*
X292432Y140781D01*
Y137500*
X293568Y140000D02*
Y140156D01*
X293682Y140469*
X293795Y140625*
X294023Y140781*
X294477*
X294705Y140625*
X294818Y140469*
X294932Y140156*
Y139844*
X294818Y139531*
X294591Y139063*
X294591D02*
X293455Y137500D01*
X295045*
X166000Y215781D02*
Y212500D01*
Y215781D02*
X166795D01*
X167136Y215625*
X167364Y215313*
X167364D02*
X167477Y215000D01*
X167591Y214531*
Y213750*
X167477Y213281*
X167364Y212969*
X167136Y212656*
X166795Y212500*
X166000*
X168614Y215156D02*
X168841Y215313D01*
X168841D02*
X169182Y215781D01*
Y212500*
X171795Y215781D02*
X170659Y212500D01*
X170205Y215781D02*
X171795D01*
X198000Y186281D02*
Y183938D01*
X198114Y183469*
X198341Y183156*
X198682Y183000*
X198909*
X199250Y183156*
X199477Y183469*
X199591Y183938*
Y186281*
X200614Y185656D02*
X200841Y185813D01*
X201182Y186281*
Y183000*
X202205Y185656D02*
X202432Y185813D01*
X202773Y186281*
Y183000*
X167045Y247281D02*
Y244000D01*
Y247281D02*
X168068D01*
X168409Y247125*
X168523Y246969*
X168636Y246656*
Y246344*
X168523Y246031*
X168409Y245875*
X168068Y245719*
X167045*
X167841D02*
X168636Y244000D01*
X169659Y246656D02*
X169886Y246813D01*
X169886D02*
X170227Y247281D01*
Y244000*
X171250Y246656D02*
X171477Y246813D01*
X171477D02*
X171818Y247281D01*
Y244000*
X174318Y247281D02*
X173182D01*
X173068Y245875*
X173182Y246031*
X173523Y246188*
X173523D02*
X173864D01*
X173864D02*
X174205Y246031D01*
X174432Y245719*
X174545Y245250*
X174432Y244938*
X174432D02*
X174318Y244469D01*
X174091Y244156*
X173750Y244000*
X173409*
X173068Y244156*
X172955Y244313*
X172955D02*
X172841Y244625D01*
X246341Y145000D02*
X246227Y145313D01*
X246227D02*
X246000Y145625D01*
X245773Y145781*
X245318*
X245091Y145625*
X244864Y145313*
X244864D02*
X244750Y145000D01*
X244636Y144531*
Y143750*
X244750Y143281*
X244864Y142969*
X245091Y142656*
X245318Y142500*
X245773*
X246000Y142656*
X246227Y142969*
X246341Y143281*
X247364Y145156D02*
X247591Y145313D01*
X247591D02*
X247932Y145781D01*
Y142500*
X249182Y145781D02*
X250432D01*
X249750Y144531*
X250091*
X250318Y144375*
X250432Y144219*
X250545Y143750*
Y143438*
X250545D02*
X250432Y142969D01*
X250205Y142656*
X249864Y142500*
X249523*
X249182Y142656*
X249068Y142813*
X249068D02*
X248955Y143125D01*
X255636Y125281D02*
Y122781D01*
X255523Y122313*
X255523D02*
X255409Y122156D01*
X255182Y122000*
X254955*
X254727Y122156*
X254614Y122313*
X254614D02*
X254500Y122781D01*
Y123094*
X256886Y125281D02*
X258136D01*
X257455Y124031*
X257795*
X258023Y123875*
X258136Y123719*
X258250Y123250*
Y122938*
X258250D02*
X258136Y122469D01*
X257909Y122156*
X257568Y122000*
X257227*
X256886Y122156*
X256773Y122313*
X256773D02*
X256659Y122625D01*
X108000Y216281D02*
Y213937D01*
X108000D02*
X108114Y213469D01*
X108341Y213156*
X108682Y213000*
X108909*
X109250Y213156*
X109477Y213469*
X109591Y213937*
X109591D02*
Y216281D01*
X111750D02*
X110614Y214094D01*
X112318*
X111750Y216281D02*
Y213000D01*
X147205Y149000D02*
X147091Y149313D01*
X147091D02*
X146864Y149625D01*
X146636Y149781*
X146182*
X145955Y149625*
X145727Y149313*
X145727D02*
X145614Y149000D01*
X145500Y148531*
Y147750*
X145614Y147281*
X145727Y146969*
X145955Y146656*
X146182Y146500*
X146636*
X146864Y146656*
X147091Y146969*
X147205Y147281*
X148227Y149156D02*
X148455Y149313D01*
X148455D02*
X148795Y149781D01*
Y146500*
X150955Y149781D02*
X149818Y147594D01*
X151523*
X150955Y149781D02*
Y146500D01*
X134750Y205781D02*
Y202500D01*
Y205781D02*
X135773D01*
X136114Y205625*
X136227Y205469*
X136341Y205156*
Y204844*
X136227Y204531*
X136114Y204375*
X135773Y204219*
X134750*
X135545D02*
X136341Y202500D01*
X137364Y205156D02*
X137591Y205313D01*
X137591D02*
X137932Y205781D01*
Y202500*
X139636Y205781D02*
X139295Y205625D01*
X139068Y205156*
X138955Y204375*
Y203906*
X139068Y203125*
X139295Y202656*
X139636Y202500*
X139864*
X140205Y202656*
X140432Y203125*
X140545Y203906*
Y204375*
X140432Y205156*
X140205Y205625*
X139864Y205781*
X139636*
X228636Y166781D02*
Y164281D01*
X228523Y163813*
X228523D02*
X228409Y163656D01*
X228182Y163500*
X227955*
X227727Y163656*
X227614Y163813*
X227614D02*
X227500Y164281D01*
Y164594*
X231136Y166781D02*
X230000D01*
X229886Y165375*
X230000Y165531*
X230341Y165688*
X230341D02*
X230682D01*
X230682D02*
X231023Y165531D01*
X231250Y165219*
X231364Y164750*
X231250Y164438*
X231250D02*
X231136Y163969D01*
X230909Y163656*
X230568Y163500*
X230227*
X229886Y163656*
X229773Y163813*
X229773D02*
X229659Y164125D01*
X107136Y225781D02*
Y222500D01*
Y225781D02*
X108159D01*
X108500Y225625*
X108614Y225469*
X108727Y225156*
Y224844*
X108614Y224531*
X108500Y224375*
X108159Y224219*
X107136*
X107932D02*
X108727Y222500D01*
X109750Y225156D02*
X109977Y225313D01*
X109977D02*
X110318Y225781D01*
Y222500*
X112477Y225781D02*
X111341Y223594D01*
X113045*
X112477Y225781D02*
Y222500D01*
X218705Y188000D02*
X218591Y188313D01*
X218591D02*
X218364Y188625D01*
X218136Y188781*
X217682*
X217455Y188625*
X217227Y188313*
X217227D02*
X217114Y188000D01*
X217000Y187531*
Y186750*
X217114Y186281*
X217227Y185969*
X217455Y185656*
X217682Y185500*
X218136*
X218364Y185656*
X218591Y185969*
X218705Y186281*
X219727Y188156D02*
X219955Y188313D01*
X219955D02*
X220295Y188781D01*
Y185500*
X221886Y188781D02*
X221545Y188625D01*
X221432Y188313*
X221432D02*
Y188000D01*
X221545Y187688*
X221545D02*
X221773Y187531D01*
X222227Y187375*
X222568Y187219*
X222795Y186906*
X222909Y186594*
Y186125*
X222795Y185813*
X222795D02*
X222682Y185656D01*
X222341Y185500*
X221886*
X221545Y185656*
X221432Y185813*
X221432D02*
X221318Y186125D01*
Y186594*
X221432Y186906*
X221659Y187219*
X222000Y187375*
X222455Y187531*
X222682Y187688*
X222682D02*
X222795Y188000D01*
Y188313*
X222795D02*
X222682Y188625D01*
X222341Y188781*
X221886*
X135000Y235281D02*
Y232938D01*
X135000D02*
X135114Y232469D01*
X135341Y232156*
X135682Y232000*
X135909*
X136250Y232156*
X136477Y232469*
X136591Y232938*
X136591D02*
Y235281D01*
X138182D02*
X137841Y235125D01*
X137727Y234813*
X137727D02*
Y234500D01*
X137841Y234188*
X137841D02*
X138068Y234031D01*
X138523Y233875*
X138864Y233719*
X139091Y233406*
X139205Y233094*
Y232625*
X139091Y232313*
X139091D02*
X138977Y232156D01*
X138636Y232000*
X138182*
X137841Y232156*
X137727Y232313*
X137727D02*
X137614Y232625D01*
Y233094*
X137727Y233406*
X137955Y233719*
X138295Y233875*
X138750Y234031*
X138977Y234188*
X138977D02*
X139091Y234500D01*
Y234813*
X139091D02*
X138977Y235125D01*
X138636Y235281*
X138182*
X136727Y220000D02*
X136614Y220313D01*
X136614D02*
X136386Y220625D01*
X136159Y220781*
X135705*
X135477Y220625*
X135250Y220313*
X135250D02*
X135136Y220000D01*
X135023Y219531*
Y218750*
X135136Y218281*
X135250Y217969*
X135477Y217656*
X135705Y217500*
X136159*
X136386Y217656*
X136614Y217969*
X136727Y218281*
X137750Y220156D02*
X137977Y220313D01*
X137977D02*
X138318Y220781D01*
Y217500*
X140818Y220781D02*
X139682D01*
X139568Y219375*
X139682Y219531*
X140023Y219688*
X140023D02*
X140364D01*
X140364D02*
X140705Y219531D01*
X140932Y219219*
X141045Y218750*
X140932Y218438*
X140932D02*
X140818Y217969D01*
X140591Y217656*
X140250Y217500*
X139909*
X139568Y217656*
X139455Y217813*
X139455D02*
X139341Y218125D01*
X146455Y225000D02*
X146341Y225313D01*
X146114Y225625*
X145886Y225781*
X145432*
X145205Y225625*
X144977Y225313*
X144864Y225000*
X144750Y224531*
Y223750*
X144864Y223281*
X144977Y222969*
X145205Y222656*
X145432Y222500*
X145886*
X146114Y222656*
X146341Y222969*
X146455Y223281*
X147477Y225156D02*
X147705Y225313D01*
X148045Y225781*
Y222500*
X150432Y225313D02*
X150318Y225625D01*
X149977Y225781*
X149750*
X149409Y225625*
X149182Y225156*
X149068Y224375*
Y223594*
X149182Y222969*
X149409Y222656*
X149750Y222500*
X149864*
X150205Y222656*
X150432Y222969*
X150545Y223438*
Y223594*
X150432Y224063*
X150205Y224375*
X149864Y224531*
X149750*
X149409Y224375*
X149182Y224063*
X149068Y223594*
X149364Y206281D02*
Y203000D01*
Y206281D02*
X150386D01*
X150727Y206125*
X150841Y205969*
X150955Y205656*
Y205344*
X150841Y205031*
X150727Y204875*
X150386Y204719*
X149364*
X150159D02*
X150955Y203000D01*
X151977Y205656D02*
X152205Y205813D01*
X152205D02*
X152545Y206281D01*
Y203000*
X154932Y205813D02*
X154818Y206125D01*
X154477Y206281*
X154250*
X153909Y206125*
X153682Y205656*
X153568Y204875*
Y204094*
X153682Y203469*
X153909Y203156*
X154250Y203000*
X154364*
X154705Y203156*
X154932Y203469*
X155045Y203938*
X155045D02*
Y204094D01*
X154932Y204563*
X154932D02*
X154705Y204875D01*
X154364Y205031*
X154250*
X153909Y204875*
X153682Y204563*
X153682D02*
X153568Y204094D01*
X216705Y155000D02*
X216591Y155313D01*
X216364Y155625*
X216136Y155781*
X215682*
X215455Y155625*
X215227Y155313*
X215114Y155000*
X215000Y154531*
Y153750*
X215114Y153281*
X215227Y152969*
X215455Y152656*
X215682Y152500*
X216136*
X216364Y152656*
X216591Y152969*
X216705Y153281*
X217841Y155000D02*
Y155156D01*
X217955Y155469*
X218068Y155625*
X218295Y155781*
X218750*
X218977Y155625*
X219091Y155469*
X219205Y155156*
Y154844*
X219091Y154531*
X218864Y154063*
X217727Y152500*
X219318*
X220341Y155156D02*
X220568Y155313D01*
X220909Y155781*
Y152500*
X120273Y399281D02*
Y396000D01*
Y399281D02*
X121295D01*
X121636Y399125*
X121750Y398969*
X121864Y398656*
Y398344*
X121750Y398031*
X121636Y397875*
X121295Y397719*
X120273*
X121068D02*
X121864Y396000D01*
X122886Y398656D02*
X123114Y398813D01*
X123455Y399281*
Y396000*
X124477Y398656D02*
X124705Y398813D01*
X125045Y399281*
Y396000*
X102719Y435000D02*
X106000D01*
X102719D02*
Y435795D01*
X102875Y436136*
X103187Y436364*
X103187D02*
X103500Y436477D01*
X103969Y436591*
X104750*
X105219Y436477*
X105531Y436364*
X105844Y436136*
X106000Y435795*
Y435000*
X103500Y437727D02*
X103344D01*
X103031Y437841*
X102875Y437955*
X102719Y438182*
Y438636*
X102875Y438864*
X103031Y438977*
X103344Y439091*
X103656*
X103969Y438977*
X104437Y438750*
X104437D02*
X106000Y437614D01*
Y439205*
X102719Y440795D02*
X102875Y440455D01*
X103187Y440341*
X103187D02*
X103500D01*
X103812Y440455*
X103812D02*
X103969Y440682D01*
X104125Y441136*
X104281Y441477*
X104594Y441705*
X104906Y441818*
X105375*
X105687Y441705*
X105687D02*
X105844Y441591D01*
X106000Y441250*
Y440795*
X105844Y440455*
X105687Y440341*
X105687D02*
X105375Y440227D01*
X104906*
X104594Y440341*
X104281Y440568*
X104125Y440909*
X103969Y441364*
X103812Y441591*
X103812D02*
X103500Y441705D01*
X103187*
X103187D02*
X102875Y441591D01*
X102719Y441250*
Y440795*
X267781Y213773D02*
X264500D01*
X267781D02*
Y212750D01*
X267625Y212409*
X267469Y212295*
X267156Y212182*
X266844*
X266531Y212295*
X266375Y212409*
X266219Y212750*
Y213773*
Y212977D02*
X264500Y212182D01*
X267000Y211045D02*
X267156D01*
X267469Y210932*
X267625Y210818*
X267781Y210591*
Y210136*
X267625Y209909*
X267469Y209795*
X267156Y209682*
X266844*
X266531Y209795*
X266063Y210023*
X266063D02*
X264500Y211159D01*
Y209568*
X267000Y208432D02*
X267156D01*
X267469Y208318*
X267625Y208205*
X267781Y207977*
Y207523*
X267625Y207295*
X267469Y207182*
X267156Y207068*
X266844*
X266531Y207182*
X266063Y207409*
X266063D02*
X264500Y208545D01*
Y206955*
X238227Y215781D02*
Y212500D01*
Y215781D02*
X239250D01*
X239591Y215625*
X239705Y215469*
X239818Y215156*
Y214844*
X239705Y214531*
X239591Y214375*
X239250Y214219*
X238227*
X239023D02*
X239818Y212500D01*
X240955Y215000D02*
Y215156D01*
X241068Y215469*
X241182Y215625*
X241409Y215781*
X241864*
X242091Y215625*
X242205Y215469*
X242318Y215156*
Y214844*
X242205Y214531*
X241977Y214063*
X241977D02*
X240841Y212500D01*
X242432*
X243682Y215781D02*
X244932D01*
X244250Y214531*
X244591*
X244818Y214375*
X244932Y214219*
X245045Y213750*
Y213438*
X245045D02*
X244932Y212969D01*
X244705Y212656*
X244364Y212500*
X244023*
X243682Y212656*
X243568Y212813*
X243568D02*
X243455Y213125D01*
X292500Y265781D02*
Y262500D01*
Y265781D02*
X293523D01*
X293864Y265625*
X293977Y265469*
X294091Y265156*
Y264844*
X293977Y264531*
X293864Y264375*
X293523Y264219*
X292500*
X293295D02*
X294091Y262500D01*
X296591Y265781D02*
X295455D01*
X295341Y264375*
X295455Y264531*
X295795Y264688*
X295795D02*
X296136D01*
X296136D02*
X296477Y264531D01*
X296705Y264219*
X296818Y263750*
X296705Y263438*
X296705D02*
X296591Y262969D01*
X296364Y262656*
X296023Y262500*
X295682*
X295341Y262656*
X295227Y262813*
X295227D02*
X295114Y263125D01*
X296654Y191281D02*
Y188000D01*
X298017*
X299040Y190656D02*
X299267Y190813D01*
X299267D02*
X299608Y191281D01*
Y188000*
X104136Y203781D02*
Y201281D01*
X104023Y200813*
X104023D02*
X103909Y200656D01*
X103682Y200500*
X103455*
X103227Y200656*
X103114Y200813*
X103114D02*
X103000Y201281D01*
Y201594*
X106295Y203781D02*
X105159Y201594D01*
X106864*
X106295Y203781D02*
Y200500D01*
X270091Y443313D02*
X269864Y443625D01*
X269523Y443781*
X269068*
X268727Y443625*
X268500Y443313*
X268500D02*
Y443000D01*
X268614Y442688*
X268614D02*
X268727Y442531D01*
X268955Y442375*
X269636Y442063*
X269636D02*
X269864Y441906D01*
X269977Y441750*
X270091Y441438*
X270091D02*
Y440969D01*
X269864Y440656*
X269523Y440500*
X269068*
X268727Y440656*
X268500Y440969*
X271114Y443781D02*
X271682Y440500D01*
X272250Y443781D02*
X271682Y440500D01*
X272250Y443781D02*
X272818Y440500D01*
X273386Y443781D02*
X272818Y440500D01*
X274409Y443156D02*
X274636Y443313D01*
X274636D02*
X274977Y443781D01*
Y440500*
X102719Y426000D02*
X106000D01*
X102719D02*
Y426795D01*
X102875Y427136*
X103187Y427364*
X103187D02*
X103500Y427477D01*
X103969Y427591*
X104750*
X105219Y427477*
X105531Y427364*
X105844Y427136*
X106000Y426795*
Y426000*
X103500Y428727D02*
X103344D01*
X103031Y428841*
X102875Y428955*
X102719Y429182*
Y429636*
X102875Y429864*
X103031Y429977*
X103344Y430091*
X103656*
X103969Y429977*
X104437Y429750*
X104437D02*
X106000Y428614D01*
Y430205*
X102719Y417000D02*
X106000D01*
X102719D02*
Y417795D01*
X102875Y418136*
X103187Y418364*
X103187D02*
X103500Y418477D01*
X103969Y418591*
X104750*
X105219Y418477*
X105531Y418364*
X105844Y418136*
X106000Y417795*
Y417000*
X103500Y419727D02*
X103344D01*
X103031Y419841*
X102875Y419955*
X102719Y420182*
Y420636*
X102875Y420864*
X103031Y420977*
X103344Y421091*
X103656*
X103969Y420977*
X104437Y420750*
X104437D02*
X106000Y419614D01*
Y421205*
X102719Y423705D02*
Y422568D01*
X104125Y422455*
X103969Y422568*
X103812Y422909*
X103812D02*
Y423250D01*
X103812D02*
X103969Y423591D01*
X104281Y423818*
X104750Y423932*
X105062Y423818*
X105062D02*
X105531Y423705D01*
X105844Y423477*
X106000Y423136*
Y422795*
X105844Y422455*
X105687Y422341*
X105687D02*
X105375Y422227D01*
X120250Y406281D02*
Y403000D01*
Y406281D02*
X121273D01*
X121614Y406125*
X121727Y405969*
X121841Y405656*
Y405344*
X121727Y405031*
X121614Y404875*
X121273Y404719*
X120250*
X121045D02*
X121841Y403000D01*
X122864Y405656D02*
X123091Y405813D01*
X123432Y406281*
Y403000*
X126045Y406281D02*
X124909Y403000D01*
X124455Y406281D02*
X126045D01*
X120250Y413281D02*
Y410000D01*
Y413281D02*
X121273D01*
X121614Y413125*
X121727Y412969*
X121841Y412656*
Y412344*
X121727Y412031*
X121614Y411875*
X121273Y411719*
X120250*
X121045D02*
X121841Y410000D01*
X122864Y412656D02*
X123091Y412813D01*
X123432Y413281*
Y410000*
X125023Y413281D02*
X124682Y413125D01*
X124568Y412813*
Y412500*
X124682Y412188*
X124909Y412031*
X125364Y411875*
X125705Y411719*
X125932Y411406*
X126045Y411094*
Y410625*
X125932Y410313*
X125818Y410156*
X125477Y410000*
X125023*
X124682Y410156*
X124568Y410313*
X124455Y410625*
Y411094*
X124568Y411406*
X124795Y411719*
X125136Y411875*
X125591Y412031*
X125818Y412188*
X125932Y412500*
Y412813*
X125818Y413125*
X125477Y413281*
X125023*
X266000Y231781D02*
Y229438D01*
X266114Y228969*
X266341Y228656*
X266682Y228500*
X266909*
X267250Y228656*
X267477Y228969*
X267591Y229438*
Y231781*
X268614Y231156D02*
X268841Y231313D01*
X269182Y231781*
Y228500*
X325500Y360781D02*
Y358438D01*
X325500D02*
X325614Y357969D01*
X325841Y357656*
X326182Y357500*
X326409*
X326750Y357656*
X326977Y357969*
X327091Y358438*
X327091D02*
Y360781D01*
X328114Y360156D02*
X328341Y360313D01*
X328341D02*
X328682Y360781D01*
Y357500*
X329818Y360000D02*
Y360156D01*
X329932Y360469*
X330045Y360625*
X330273Y360781*
X330727*
X330955Y360625*
X331068Y360469*
X331182Y360156*
Y359844*
X331068Y359531*
X330841Y359063*
X330841D02*
X329705Y357500D01*
X331295*
X349000Y422781D02*
X349909Y421219D01*
Y419500*
X350818Y422781D02*
X349909Y421219D01*
X351955Y422000D02*
Y422156D01*
X352068Y422469*
X352182Y422625*
X352409Y422781*
X352864*
X353091Y422625*
X353205Y422469*
X353318Y422156*
Y421844*
X353205Y421531*
X352977Y421063*
X352977D02*
X351841Y419500D01*
X353432*
X344318Y444000D02*
X344205Y444313D01*
X344205D02*
X343977Y444625D01*
X343750Y444781*
X343295*
X343068Y444625*
X342841Y444313*
X342841D02*
X342727Y444000D01*
X342614Y443531*
Y442750*
X342727Y442281*
X342841Y441969*
X343068Y441656*
X343295Y441500*
X343750*
X343977Y441656*
X344205Y441969*
X344318Y442281*
X345455Y444000D02*
Y444156D01*
X345568Y444469*
X345682Y444625*
X345909Y444781*
X346364*
X346591Y444625*
X346705Y444469*
X346818Y444156*
Y443844*
X346705Y443531*
X346477Y443063*
X346477D02*
X345341Y441500D01*
X346932*
X348523Y444781D02*
X348182Y444625D01*
X348068Y444313*
X348068D02*
Y444000D01*
X348182Y443688*
X348182D02*
X348409Y443531D01*
X348864Y443375*
X349205Y443219*
X349432Y442906*
X349545Y442594*
Y442125*
X349432Y441813*
X349432D02*
X349318Y441656D01*
X348977Y441500*
X348523*
X348182Y441656*
X348068Y441813*
X348068D02*
X347955Y442125D01*
Y442594*
X348068Y442906*
X348295Y443219*
X348636Y443375*
X349091Y443531*
X349318Y443688*
X349318D02*
X349432Y444000D01*
Y444313*
X349432D02*
X349318Y444625D01*
X348977Y444781*
X348523*
X383932Y416500D02*
X383818Y416813D01*
X383818D02*
X383591Y417125D01*
X383364Y417281*
X382909*
X382682Y417125*
X382455Y416813*
X382455D02*
X382341Y416500D01*
X382227Y416031*
Y415250*
X382341Y414781*
X382455Y414469*
X382682Y414156*
X382909Y414000*
X383364*
X383591Y414156*
X383818Y414469*
X383932Y414781*
X385068Y416500D02*
Y416656D01*
X385182Y416969*
X385295Y417125*
X385523Y417281*
X385977*
X386205Y417125*
X386318Y416969*
X386432Y416656*
Y416344*
X386318Y416031*
X386091Y415563*
X386091D02*
X384955Y414000D01*
X386545*
X389045Y416188D02*
X388932Y415719D01*
X388705Y415406*
X388364Y415250*
X388250*
X387909Y415406*
X387682Y415719*
X387568Y416188*
X387568D02*
Y416344D01*
X387682Y416813*
X387682D02*
X387909Y417125D01*
X388250Y417281*
X388364*
X388705Y417125*
X388932Y416813*
X388932D02*
X389045Y416188D01*
X389045D02*
Y415406D01*
X388932Y414625*
X388705Y414156*
X388364Y414000*
X388136*
X387795Y414156*
X387682Y414469*
X382318Y443500D02*
X382205Y443813D01*
X381977Y444125*
X381750Y444281*
X381295*
X381068Y444125*
X380841Y443813*
X380727Y443500*
X380614Y443031*
Y442250*
X380727Y441781*
X380841Y441469*
X381068Y441156*
X381295Y441000*
X381750*
X381977Y441156*
X382205Y441469*
X382318Y441781*
X383568Y444281D02*
X384818D01*
X384136Y443031*
X384477*
X384705Y442875*
X384818Y442719*
X384932Y442250*
Y441938*
X384818Y441469*
X384591Y441156*
X384250Y441000*
X383909*
X383568Y441156*
X383455Y441313*
X383341Y441625*
X386636Y444281D02*
X386295Y444125D01*
X386068Y443656*
X385955Y442875*
Y442406*
X386068Y441625*
X386295Y441156*
X386636Y441000*
X386864*
X387205Y441156*
X387432Y441625*
X387545Y442406*
Y442875*
X387432Y443656*
X387205Y444125*
X386864Y444281*
X386636*
X421841Y383500D02*
X421727Y383813D01*
X421500Y384125*
X421273Y384281*
X420818*
X420591Y384125*
X420364Y383813*
X420250Y383500*
X420136Y383031*
Y382250*
X420250Y381781*
X420364Y381469*
X420591Y381156*
X420818Y381000*
X421273*
X421500Y381156*
X421727Y381469*
X421841Y381781*
X423091Y384281D02*
X424341D01*
X423659Y383031*
X424000*
X424227Y382875*
X424341Y382719*
X424455Y382250*
Y381938*
X424341Y381469*
X424114Y381156*
X423773Y381000*
X423432*
X423091Y381156*
X422977Y381313*
X422864Y381625*
X425477Y383656D02*
X425705Y383813D01*
X426045Y384281*
Y381000*
X421318Y349500D02*
X421205Y349813D01*
X420977Y350125*
X420750Y350281*
X420295*
X420068Y350125*
X419841Y349813*
X419727Y349500*
X419614Y349031*
Y348250*
X419727Y347781*
X419841Y347469*
X420068Y347156*
X420295Y347000*
X420750*
X420977Y347156*
X421205Y347469*
X421318Y347781*
X422568Y350281D02*
X423818D01*
X423136Y349031*
X423477*
X423705Y348875*
X423818Y348719*
X423932Y348250*
Y347938*
X423818Y347469*
X423591Y347156*
X423250Y347000*
X422909*
X422568Y347156*
X422455Y347313*
X422341Y347625*
X425068Y349500D02*
Y349656D01*
X425182Y349969*
X425295Y350125*
X425523Y350281*
X425977*
X426205Y350125*
X426318Y349969*
X426432Y349656*
Y349344*
X426318Y349031*
X426091Y348563*
X424955Y347000*
X426545*
X372000Y335895D02*
X372313Y336009D01*
X372313D02*
X372625Y336236D01*
X372781Y336464*
Y336918*
X372625Y337145*
X372313Y337373*
X372313D02*
X372000Y337486D01*
X371531Y337600*
X370750*
X370281Y337486*
X369969Y337373*
X369656Y337145*
X369500Y336918*
Y336464*
X369656Y336236*
X369969Y336009*
X370281Y335895*
X372781Y334645D02*
Y333395D01*
X371531Y334077*
Y333736*
X371375Y333509*
X371219Y333395*
X370750Y333282*
X370438*
X370438D02*
X369969Y333395D01*
X369656Y333623*
X369500Y333964*
Y334305*
X369656Y334645*
X369813Y334759*
X369813D02*
X370125Y334873D01*
X372781Y331123D02*
X370594Y332259D01*
Y330555*
X372781Y331123D02*
X369500D01*
X316205Y345500D02*
X316091Y345813D01*
X316091D02*
X315864Y346125D01*
X315636Y346281*
X315182*
X314955Y346125*
X314727Y345813*
X314727D02*
X314614Y345500D01*
X314500Y345031*
Y344250*
X314614Y343781*
X314727Y343469*
X314955Y343156*
X315182Y343000*
X315636*
X315864Y343156*
X316091Y343469*
X316205Y343781*
X317455Y346281D02*
X318705D01*
X318023Y345031*
X318364*
X318591Y344875*
X318705Y344719*
X318818Y344250*
Y343938*
X318818D02*
X318705Y343469D01*
X318477Y343156*
X318136Y343000*
X317795*
X317455Y343156*
X317341Y343313*
X317341D02*
X317227Y343625D01*
X321318Y346281D02*
X320182D01*
X320068Y344875*
X320182Y345031*
X320523Y345188*
X320523D02*
X320864D01*
X320864D02*
X321205Y345031D01*
X321432Y344719*
X321545Y344250*
X321432Y343938*
X321432D02*
X321318Y343469D01*
X321091Y343156*
X320750Y343000*
X320409*
X320068Y343156*
X319955Y343313*
X319955D02*
X319841Y343625D01*
X346432Y411500D02*
X346318Y411813D01*
X346318D02*
X346091Y412125D01*
X345864Y412281*
X345409*
X345182Y412125*
X344955Y411813*
X344955D02*
X344841Y411500D01*
X344727Y411031*
Y410250*
X344841Y409781*
X344955Y409469*
X345182Y409156*
X345409Y409000*
X345864*
X346091Y409156*
X346318Y409469*
X346432Y409781*
X347682Y412281D02*
X348932D01*
X348250Y411031*
X348591*
X348818Y410875*
X348932Y410719*
X349045Y410250*
Y409938*
X349045D02*
X348932Y409469D01*
X348705Y409156*
X348364Y409000*
X348023*
X347682Y409156*
X347568Y409313*
X347568D02*
X347455Y409625D01*
X351432Y411813D02*
X351318Y412125D01*
X350977Y412281*
X350750*
X350409Y412125*
X350182Y411656*
X350068Y410875*
Y410094*
X350182Y409469*
X350409Y409156*
X350750Y409000*
X350864*
X351205Y409156*
X351432Y409469*
X351545Y409938*
X351545D02*
Y410094D01*
X351432Y410563*
X351432D02*
X351205Y410875D01*
X350864Y411031*
X350750*
X350409Y410875*
X350182Y410563*
X350182D02*
X350068Y410094D01*
X356000Y299281D02*
Y296938D01*
X356000D02*
X356114Y296469D01*
X356341Y296156*
X356682Y296000*
X356909*
X357250Y296156*
X357477Y296469*
X357591Y296938*
X357591D02*
Y299281D01*
X358614Y298656D02*
X358841Y298813D01*
X358841D02*
X359182Y299281D01*
Y296000*
X360432Y299281D02*
X361682D01*
X361000Y298031*
X361341*
X361568Y297875*
X361682Y297719*
X361795Y297250*
Y296938*
X361795D02*
X361682Y296469D01*
X361455Y296156*
X361114Y296000*
X360773*
X360432Y296156*
X360318Y296313*
X360318D02*
X360205Y296625D01*
X368705Y279000D02*
X368591Y279313D01*
X368591D02*
X368364Y279625D01*
X368136Y279781*
X367682*
X367455Y279625*
X367227Y279313*
X367227D02*
X367114Y279000D01*
X367000Y278531*
Y277750*
X367114Y277281*
X367227Y276969*
X367455Y276656*
X367682Y276500*
X368136*
X368364Y276656*
X368591Y276969*
X368705Y277281*
X369955Y279781D02*
X371205D01*
X370523Y278531*
X370864*
X371091Y278375*
X371205Y278219*
X371318Y277750*
Y277438*
X371318D02*
X371205Y276969D01*
X370977Y276656*
X370636Y276500*
X370295*
X369955Y276656*
X369841Y276813*
X369841D02*
X369727Y277125D01*
X373932Y279781D02*
X372795Y276500D01*
X372341Y279781D02*
X373932D01*
X364136Y253781D02*
Y251281D01*
X364023Y250813*
X364023D02*
X363909Y250656D01*
X363682Y250500*
X363455*
X363227Y250656*
X363114Y250813*
X363114D02*
X363000Y251281D01*
Y251594*
X366523Y253313D02*
X366409Y253625D01*
X366068Y253781*
X365841*
X365500Y253625*
X365273Y253156*
X365159Y252375*
Y251594*
X365273Y250969*
X365500Y250656*
X365841Y250500*
X365955*
X366295Y250656*
X366523Y250969*
X366636Y251438*
X366636D02*
Y251594D01*
X366523Y252063*
X366523D02*
X366295Y252375D01*
X365955Y252531*
X365841*
X365500Y252375*
X365273Y252063*
X365273D02*
X365159Y251594D01*
X398136Y411281D02*
Y408781D01*
X398023Y408313*
X398023D02*
X397909Y408156D01*
X397682Y408000*
X397455*
X397227Y408156*
X397114Y408313*
X397114D02*
X397000Y408781D01*
Y409094*
X400750Y411281D02*
X399614Y408000D01*
X399159Y411281D02*
X400750D01*
X374705Y288500D02*
X374591Y288813D01*
X374591D02*
X374364Y289125D01*
X374136Y289281*
X373682*
X373455Y289125*
X373227Y288813*
X373227D02*
X373114Y288500D01*
X373000Y288031*
Y287250*
X373114Y286781*
X373227Y286469*
X373455Y286156*
X373682Y286000*
X374136*
X374364Y286156*
X374591Y286469*
X374705Y286781*
X376864Y289281D02*
X375727Y287094D01*
X377432*
X376864Y289281D02*
Y286000D01*
X379136Y289281D02*
X378795Y289125D01*
X378568Y288656*
X378455Y287875*
Y287406*
X378568Y286625*
X378795Y286156*
X379136Y286000*
X379364*
X379705Y286156*
X379932Y286625*
X380045Y287406*
Y287875*
X379932Y288656*
X379705Y289125*
X379364Y289281*
X379136*
X384705Y306500D02*
X384591Y306813D01*
X384591D02*
X384364Y307125D01*
X384136Y307281*
X383682*
X383455Y307125*
X383227Y306813*
X383227D02*
X383114Y306500D01*
X383000Y306031*
Y305250*
X383114Y304781*
X383227Y304469*
X383455Y304156*
X383682Y304000*
X384136*
X384364Y304156*
X384591Y304469*
X384705Y304781*
X386864Y307281D02*
X385727Y305094D01*
X387432*
X386864Y307281D02*
Y304000D01*
X388455Y306656D02*
X388682Y306813D01*
X388682D02*
X389023Y307281D01*
Y304000*
X389705Y299500D02*
X389591Y299813D01*
X389364Y300125*
X389136Y300281*
X388682*
X388455Y300125*
X388227Y299813*
X388114Y299500*
X388000Y299031*
Y298250*
X388114Y297781*
X388227Y297469*
X388455Y297156*
X388682Y297000*
X389136*
X389364Y297156*
X389591Y297469*
X389705Y297781*
X391864Y300281D02*
X390727Y298094D01*
X392432*
X391864Y300281D02*
Y297000D01*
X393568Y299500D02*
Y299656D01*
X393682Y299969*
X393795Y300125*
X394023Y300281*
X394477*
X394705Y300125*
X394818Y299969*
X394932Y299656*
Y299344*
X394818Y299031*
X394591Y298563*
X393455Y297000*
X395045*
X386000Y322281D02*
Y319000D01*
Y322281D02*
X386795D01*
X387136Y322125*
X387364Y321813*
X387364D02*
X387477Y321500D01*
X387591Y321031*
Y320250*
X387477Y319781*
X387364Y319469*
X387136Y319156*
X386795Y319000*
X386000*
X388841Y322281D02*
X390091D01*
X389409Y321031*
X389750*
X389977Y320875*
X390091Y320719*
X390205Y320250*
Y319938*
X390205D02*
X390091Y319469D01*
X389864Y319156*
X389523Y319000*
X389182*
X388841Y319156*
X388727Y319313*
X388727D02*
X388614Y319625D01*
X392364Y322281D02*
X391227Y320094D01*
X392932*
X392364Y322281D02*
Y319000D01*
X405614Y310781D02*
Y307500D01*
Y310781D02*
X406636D01*
X406977Y310625*
X407091Y310469*
X407205Y310156*
Y309844*
X407091Y309531*
X406977Y309375*
X406636Y309219*
X405614*
X406409D02*
X407205Y307500D01*
X408341Y310000D02*
Y310156D01*
X408455Y310469*
X408568Y310625*
X408795Y310781*
X409250*
X409477Y310625*
X409591Y310469*
X409705Y310156*
Y309844*
X409591Y309531*
X409364Y309063*
X409364D02*
X408227Y307500D01*
X409818*
X412318Y310781D02*
X411182D01*
X411068Y309375*
X411182Y309531*
X411523Y309688*
X411523D02*
X411864D01*
X411864D02*
X412205Y309531D01*
X412432Y309219*
X412545Y308750*
X412432Y308438*
X412432D02*
X412318Y307969D01*
X412091Y307656*
X411750Y307500*
X411409*
X411068Y307656*
X410955Y307813*
X410955D02*
X410841Y308125D01*
X421500Y284281D02*
Y281938D01*
X421614Y281469*
X421841Y281156*
X422182Y281000*
X422409*
X422750Y281156*
X422977Y281469*
X423091Y281938*
Y284281*
X424114Y283656D02*
X424341Y283813D01*
X424682Y284281*
Y281000*
X426841Y284281D02*
X425705Y282094D01*
X427409*
X426841Y284281D02*
Y281000D01*
X480500Y140281D02*
Y137938D01*
X480500D02*
X480614Y137469D01*
X480841Y137156*
X481182Y137000*
X481409*
X481750Y137156*
X481977Y137469*
X482091Y137938*
X482091D02*
Y140281D01*
X483114Y139656D02*
X483341Y139813D01*
X483341D02*
X483682Y140281D01*
Y137000*
X486182Y140281D02*
X485045D01*
X484932Y138875*
X485045Y139031*
X485386Y139188*
X485386D02*
X485727D01*
X485727D02*
X486068Y139031D01*
X486295Y138719*
X486409Y138250*
X486295Y137938*
X486295D02*
X486182Y137469D01*
X485955Y137156*
X485614Y137000*
X485273*
X484932Y137156*
X484818Y137313*
X484818D02*
X484705Y137625D01*
X449500Y399281D02*
Y396938D01*
X449500D02*
X449614Y396469D01*
X449841Y396156*
X450182Y396000*
X450409*
X450750Y396156*
X450977Y396469*
X451091Y396938*
X451091D02*
Y399281D01*
X452114Y398656D02*
X452341Y398813D01*
X452341D02*
X452682Y399281D01*
Y396000*
X455068Y398813D02*
X454955Y399125D01*
X454614Y399281*
X454386*
X454045Y399125*
X453818Y398656*
X453705Y397875*
Y397094*
X453818Y396469*
X454045Y396156*
X454386Y396000*
X454500*
X454841Y396156*
X455068Y396469*
X455182Y396938*
X455182D02*
Y397094D01*
X455068Y397563*
X455068D02*
X454841Y397875D01*
X454500Y398031*
X454386*
X454045Y397875*
X453818Y397563*
X453818D02*
X453705Y397094D01*
X438705Y380000D02*
X438591Y380313D01*
X438364Y380625*
X438136Y380781*
X437682*
X437455Y380625*
X437227Y380313*
X437114Y380000*
X437000Y379531*
Y378750*
X437114Y378281*
X437227Y377969*
X437455Y377656*
X437682Y377500*
X438136*
X438364Y377656*
X438591Y377969*
X438705Y378281*
X440864Y380781D02*
X439727Y378594D01*
X441432*
X440864Y380781D02*
Y377500D01*
X443023Y380781D02*
X442682Y380625D01*
X442568Y380313*
Y380000*
X442682Y379688*
X442909Y379531*
X443364Y379375*
X443705Y379219*
X443932Y378906*
X444045Y378594*
Y378125*
X443932Y377813*
X443818Y377656*
X443477Y377500*
X443023*
X442682Y377656*
X442568Y377813*
X442455Y378125*
Y378594*
X442568Y378906*
X442795Y379219*
X443136Y379375*
X443591Y379531*
X443818Y379688*
X443932Y380000*
Y380313*
X443818Y380625*
X443477Y380781*
X443023*
X468818Y359000D02*
X468705Y359313D01*
X468705D02*
X468477Y359625D01*
X468250Y359781*
X467795*
X467568Y359625*
X467341Y359313*
X467341D02*
X467227Y359000D01*
X467114Y358531*
Y357750*
X467227Y357281*
X467341Y356969*
X467568Y356656*
X467795Y356500*
X468250*
X468477Y356656*
X468705Y356969*
X468818Y357281*
X470977Y359781D02*
X469841Y357594D01*
X471545*
X470977Y359781D02*
Y356500D01*
X474045Y358688D02*
X473932Y358219D01*
X473705Y357906*
X473364Y357750*
X473250*
X472909Y357906*
X472682Y358219*
X472568Y358688*
X472568D02*
Y358844D01*
X472682Y359313*
X472682D02*
X472909Y359625D01*
X473250Y359781*
X473364*
X473705Y359625*
X473932Y359313*
X473932D02*
X474045Y358688D01*
X474045D02*
Y357906D01*
X473932Y357125*
X473705Y356656*
X473364Y356500*
X473136*
X472795Y356656*
X472682Y356969*
X431000Y311281D02*
Y308938D01*
X431000D02*
X431114Y308469D01*
X431341Y308156*
X431682Y308000*
X431909*
X432250Y308156*
X432477Y308469*
X432591Y308938*
X432591D02*
Y311281D01*
X433614Y310656D02*
X433841Y310813D01*
X433841D02*
X434182Y311281D01*
Y308000*
X436795Y311281D02*
X435659Y308000D01*
X435205Y311281D02*
X436795D01*
X474705Y321000D02*
X474591Y321313D01*
X474364Y321625*
X474136Y321781*
X473682*
X473455Y321625*
X473227Y321313*
X473114Y321000*
X473000Y320531*
Y319750*
X473114Y319281*
X473227Y318969*
X473455Y318656*
X473682Y318500*
X474136*
X474364Y318656*
X474591Y318969*
X474705Y319281*
X477205Y321781D02*
X476068D01*
X475955Y320375*
X476068Y320531*
X476409Y320688*
X476750*
X477091Y320531*
X477318Y320219*
X477432Y319750*
X477318Y319438*
X477205Y318969*
X476977Y318656*
X476636Y318500*
X476295*
X475955Y318656*
X475841Y318813*
X475727Y319125*
X479136Y321781D02*
X478795Y321625D01*
X478568Y321156*
X478455Y320375*
Y319906*
X478568Y319125*
X478795Y318656*
X479136Y318500*
X479364*
X479705Y318656*
X479932Y319125*
X480045Y319906*
Y320375*
X479932Y321156*
X479705Y321625*
X479364Y321781*
X479136*
X464705Y295000D02*
X464591Y295313D01*
X464364Y295625*
X464136Y295781*
X463682*
X463455Y295625*
X463227Y295313*
X463114Y295000*
X463000Y294531*
Y293750*
X463114Y293281*
X463227Y292969*
X463455Y292656*
X463682Y292500*
X464136*
X464364Y292656*
X464591Y292969*
X464705Y293281*
X467205Y295781D02*
X466068D01*
X465955Y294375*
X466068Y294531*
X466409Y294688*
X466750*
X467091Y294531*
X467318Y294219*
X467432Y293750*
X467318Y293438*
X467205Y292969*
X466977Y292656*
X466636Y292500*
X466295*
X465955Y292656*
X465841Y292813*
X465727Y293125*
X468568Y295000D02*
Y295156D01*
X468682Y295469*
X468795Y295625*
X469023Y295781*
X469477*
X469705Y295625*
X469818Y295469*
X469932Y295156*
Y294844*
X469818Y294531*
X469591Y294063*
X468455Y292500*
X470045*
X327636Y133281D02*
Y130781D01*
X327523Y130313*
X327523D02*
X327409Y130156D01*
X327182Y130000*
X326955*
X326727Y130156*
X326614Y130313*
X326614D02*
X326500Y130781D01*
Y131094*
X329227Y133281D02*
X328886Y133125D01*
X328773Y132813*
X328773D02*
Y132500D01*
X328886Y132188*
X328886D02*
X329114Y132031D01*
X329568Y131875*
X329909Y131719*
X330136Y131406*
X330250Y131094*
Y130625*
X330136Y130313*
X330136D02*
X330023Y130156D01*
X329682Y130000*
X329227*
X328886Y130156*
X328773Y130313*
X328773D02*
X328659Y130625D01*
Y131094*
X328773Y131406*
X329000Y131719*
X329341Y131875*
X329795Y132031*
X330023Y132188*
X330023D02*
X330136Y132500D01*
Y132813*
X330136D02*
X330023Y133125D01*
X329682Y133281*
X329227*
X372705Y186500D02*
X372591Y186813D01*
X372364Y187125*
X372136Y187281*
X371682*
X371455Y187125*
X371227Y186813*
X371114Y186500*
X371000Y186031*
Y185250*
X371114Y184781*
X371227Y184469*
X371455Y184156*
X371682Y184000*
X372136*
X372364Y184156*
X372591Y184469*
X372705Y184781*
X375205Y187281D02*
X374068D01*
X373955Y185875*
X374068Y186031*
X374409Y186188*
X374750*
X375091Y186031*
X375318Y185719*
X375432Y185250*
X375318Y184938*
X375205Y184469*
X374977Y184156*
X374636Y184000*
X374295*
X373955Y184156*
X373841Y184313*
X373727Y184625*
X376682Y187281D02*
X377932D01*
X377250Y186031*
X377591*
X377818Y185875*
X377932Y185719*
X378045Y185250*
Y184938*
X377932Y184469*
X377705Y184156*
X377364Y184000*
X377023*
X376682Y184156*
X376568Y184313*
X376455Y184625*
X401705Y208500D02*
X401591Y208813D01*
X401591D02*
X401364Y209125D01*
X401136Y209281*
X400682*
X400455Y209125*
X400227Y208813*
X400227D02*
X400114Y208500D01*
X400000Y208031*
Y207250*
X400114Y206781*
X400227Y206469*
X400455Y206156*
X400682Y206000*
X401136*
X401364Y206156*
X401591Y206469*
X401705Y206781*
X404205Y209281D02*
X403068D01*
X402955Y207875*
X403068Y208031*
X403409Y208188*
X403409D02*
X403750D01*
X403750D02*
X404091Y208031D01*
X404318Y207719*
X404432Y207250*
X404318Y206938*
X404318D02*
X404205Y206469D01*
X403977Y206156*
X403636Y206000*
X403295*
X402955Y206156*
X402841Y206313*
X402841D02*
X402727Y206625D01*
X406591Y209281D02*
X405455Y207094D01*
X407159*
X406591Y209281D02*
Y206000D01*
X370091Y209500D02*
X369977Y209813D01*
X369977D02*
X369750Y210125D01*
X369523Y210281*
X369068*
X368841Y210125*
X368614Y209813*
X368614D02*
X368500Y209500D01*
X368386Y209031*
Y208250*
X368500Y207781*
X368614Y207469*
X368841Y207156*
X369068Y207000*
X369523*
X369750Y207156*
X369977Y207469*
X370091Y207781*
X372591Y210281D02*
X371455D01*
X371341Y208875*
X371455Y209031*
X371795Y209188*
X371795D02*
X372136D01*
X372136D02*
X372477Y209031D01*
X372705Y208719*
X372818Y208250*
X372705Y207938*
X372705D02*
X372591Y207469D01*
X372364Y207156*
X372023Y207000*
X371682*
X371341Y207156*
X371227Y207313*
X371227D02*
X371114Y207625D01*
X375318Y210281D02*
X374182D01*
X374068Y208875*
X374182Y209031*
X374523Y209188*
X374523D02*
X374864D01*
X374864D02*
X375205Y209031D01*
X375432Y208719*
X375545Y208250*
X375432Y207938*
X375432D02*
X375318Y207469D01*
X375091Y207156*
X374750Y207000*
X374409*
X374068Y207156*
X373955Y207313*
X373955D02*
X373841Y207625D01*
X399636Y140781D02*
Y138281D01*
X399523Y137813*
X399523D02*
X399409Y137656D01*
X399182Y137500*
X398955*
X398727Y137656*
X398614Y137813*
X398614D02*
X398500Y138281D01*
Y138594*
X402136Y139688D02*
X402023Y139219D01*
X401795Y138906*
X401455Y138750*
X401341*
X401000Y138906*
X400773Y139219*
X400659Y139688*
X400659D02*
Y139844D01*
X400773Y140313*
X400773D02*
X401000Y140625D01*
X401341Y140781*
X401455*
X401795Y140625*
X402023Y140313*
X402023D02*
X402136Y139688D01*
X402136D02*
Y138906D01*
X402023Y138125*
X401795Y137656*
X401455Y137500*
X401227*
X400886Y137656*
X400773Y137969*
X466500Y287781D02*
Y284500D01*
Y287781D02*
X467409Y284500D01*
X468318Y287781D02*
X467409Y284500D01*
X468318Y287781D02*
Y284500D01*
X469455Y287000D02*
Y287156D01*
X469568Y287469*
X469682Y287625*
X469909Y287781*
X470364*
X470591Y287625*
X470705Y287469*
X470818Y287156*
Y286844*
X470705Y286531*
X470477Y286063*
X470477D02*
X469341Y284500D01*
X470932*
X484205Y214000D02*
X484091Y214313D01*
X484091D02*
X483864Y214625D01*
X483636Y214781*
X483182*
X482955Y214625*
X482727Y214313*
X482727D02*
X482614Y214000D01*
X482500Y213531*
Y212750*
X482614Y212281*
X482727Y211969*
X482955Y211656*
X483182Y211500*
X483636*
X483864Y211656*
X484091Y211969*
X484205Y212281*
X486705Y214781D02*
X485568D01*
X485455Y213375*
X485568Y213531*
X485909Y213688*
X485909D02*
X486250D01*
X486250D02*
X486591Y213531D01*
X486818Y213219*
X486932Y212750*
X486818Y212438*
X486818D02*
X486705Y211969D01*
X486477Y211656*
X486136Y211500*
X485795*
X485455Y211656*
X485341Y211813*
X485341D02*
X485227Y212125D01*
X489545Y214781D02*
X488409Y211500D01*
X487955Y214781D02*
X489545D01*
X452705Y237500D02*
X452591Y237813D01*
X452591D02*
X452364Y238125D01*
X452136Y238281*
X451682*
X451455Y238125*
X451227Y237813*
X451227D02*
X451114Y237500D01*
X451000Y237031*
Y236250*
X451114Y235781*
X451227Y235469*
X451455Y235156*
X451682Y235000*
X452136*
X452364Y235156*
X452591Y235469*
X452705Y235781*
X455205Y238281D02*
X454068D01*
X453955Y236875*
X454068Y237031*
X454409Y237188*
X454409D02*
X454750D01*
X454750D02*
X455091Y237031D01*
X455318Y236719*
X455432Y236250*
X455318Y235938*
X455318D02*
X455205Y235469D01*
X454977Y235156*
X454636Y235000*
X454295*
X453955Y235156*
X453841Y235313*
X453841D02*
X453727Y235625D01*
X457023Y238281D02*
X456682Y238125D01*
X456568Y237813*
X456568D02*
Y237500D01*
X456682Y237188*
X456682D02*
X456909Y237031D01*
X457364Y236875*
X457705Y236719*
X457932Y236406*
X458045Y236094*
Y235625*
X457932Y235313*
X457932D02*
X457818Y235156D01*
X457477Y235000*
X457023*
X456682Y235156*
X456568Y235313*
X456568D02*
X456455Y235625D01*
Y236094*
X456568Y236406*
X456795Y236719*
X457136Y236875*
X457591Y237031*
X457818Y237188*
X457818D02*
X457932Y237500D01*
Y237813*
X457932D02*
X457818Y238125D01*
X457477Y238281*
X457023*
X501227Y226781D02*
Y223500D01*
Y226781D02*
X502250D01*
X502591Y226625*
X502705Y226469*
X502818Y226156*
Y225844*
X502705Y225531*
X502591Y225375*
X502250Y225219*
X501227*
X502023D02*
X502818Y223500D01*
X504068Y226781D02*
X505318D01*
X504636Y225531*
X504977*
X505205Y225375*
X505318Y225219*
X505432Y224750*
Y224438*
X505318Y223969*
X505091Y223656*
X504750Y223500*
X504409*
X504068Y223656*
X503955Y223813*
X503841Y224125*
X507136Y226781D02*
X506795Y226625D01*
X506568Y226156*
X506455Y225375*
Y224906*
X506568Y224125*
X506795Y223656*
X507136Y223500*
X507364*
X507705Y223656*
X507932Y224125*
X508045Y224906*
Y225375*
X507932Y226156*
X507705Y226625*
X507364Y226781*
X507136*
X413000Y255781D02*
Y253438D01*
X413000D02*
X413114Y252969D01*
X413341Y252656*
X413682Y252500*
X413909*
X414250Y252656*
X414477Y252969*
X414591Y253438*
X414591D02*
Y255781D01*
X415614Y255156D02*
X415841Y255313D01*
X415841D02*
X416182Y255781D01*
Y252500*
X417773Y255781D02*
X417432Y255625D01*
X417318Y255313*
X417318D02*
Y255000D01*
X417432Y254688*
X417432D02*
X417659Y254531D01*
X418114Y254375*
X418455Y254219*
X418682Y253906*
X418795Y253594*
Y253125*
X418682Y252813*
X418682D02*
X418568Y252656D01*
X418227Y252500*
X417773*
X417432Y252656*
X417318Y252813*
X417318D02*
X417205Y253125D01*
Y253594*
X417318Y253906*
X417545Y254219*
X417886Y254375*
X418341Y254531*
X418568Y254688*
X418568D02*
X418682Y255000D01*
Y255313*
X418682D02*
X418568Y255625D01*
X418227Y255781*
X417773*
X425705Y228500D02*
X425591Y228813D01*
X425591D02*
X425364Y229125D01*
X425136Y229281*
X424682*
X424455Y229125*
X424227Y228813*
X424227D02*
X424114Y228500D01*
X424000Y228031*
Y227250*
X424114Y226781*
X424227Y226469*
X424455Y226156*
X424682Y226000*
X425136*
X425364Y226156*
X425591Y226469*
X425705Y226781*
X428091Y228813D02*
X427977Y229125D01*
X427636Y229281*
X427409*
X427068Y229125*
X426841Y228656*
X426727Y227875*
Y227094*
X426841Y226469*
X427068Y226156*
X427409Y226000*
X427523*
X427864Y226156*
X428091Y226469*
X428205Y226938*
X428205D02*
Y227094D01*
X428091Y227563*
X428091D02*
X427864Y227875D01*
X427523Y228031*
X427409*
X427068Y227875*
X426841Y227563*
X426841D02*
X426727Y227094D01*
X429909Y229281D02*
X429568Y229125D01*
X429341Y228656*
X429227Y227875*
Y227406*
X429341Y226625*
X429568Y226156*
X429909Y226000*
X430136*
X430477Y226156*
X430705Y226625*
X430818Y227406*
Y227875*
X430705Y228656*
X430477Y229125*
X430136Y229281*
X429909*
X441705Y258500D02*
X441591Y258813D01*
X441591D02*
X441364Y259125D01*
X441136Y259281*
X440682*
X440455Y259125*
X440227Y258813*
X440227D02*
X440114Y258500D01*
X440000Y258031*
Y257250*
X440114Y256781*
X440227Y256469*
X440455Y256156*
X440682Y256000*
X441136*
X441364Y256156*
X441591Y256469*
X441705Y256781*
X444091Y258813D02*
X443977Y259125D01*
X443636Y259281*
X443409*
X443068Y259125*
X442841Y258656*
X442727Y257875*
Y257094*
X442841Y256469*
X443068Y256156*
X443409Y256000*
X443523*
X443864Y256156*
X444091Y256469*
X444205Y256938*
X444205D02*
Y257094D01*
X444091Y257563*
X444091D02*
X443864Y257875D01*
X443523Y258031*
X443409*
X443068Y257875*
X442841Y257563*
X442841D02*
X442727Y257094D01*
X445227Y258656D02*
X445455Y258813D01*
X445455D02*
X445795Y259281D01*
Y256000*
X437932Y235000D02*
X437818Y235313D01*
X437818D02*
X437591Y235625D01*
X437364Y235781*
X436909*
X436682Y235625*
X436455Y235313*
X436455D02*
X436341Y235000D01*
X436227Y234531*
Y233750*
X436341Y233281*
X436455Y232969*
X436682Y232656*
X436909Y232500*
X437364*
X437591Y232656*
X437818Y232969*
X437932Y233281*
X440318Y235313D02*
X440205Y235625D01*
X439864Y235781*
X439636*
X439295Y235625*
X439068Y235156*
X438955Y234375*
Y233594*
X439068Y232969*
X439295Y232656*
X439636Y232500*
X439750*
X440091Y232656*
X440318Y232969*
X440432Y233438*
X440432D02*
Y233594D01*
X440318Y234063*
X440318D02*
X440091Y234375D01*
X439750Y234531*
X439636*
X439295Y234375*
X439068Y234063*
X439068D02*
X438955Y233594D01*
X441568Y235000D02*
Y235156D01*
X441682Y235469*
X441795Y235625*
X442023Y235781*
X442477*
X442705Y235625*
X442818Y235469*
X442932Y235156*
Y234844*
X442818Y234531*
X442591Y234063*
X442591D02*
X441455Y232500D01*
X443045*
X401205Y260000D02*
X401091Y260313D01*
X401091D02*
X400864Y260625D01*
X400636Y260781*
X400182*
X399955Y260625*
X399727Y260313*
X399727D02*
X399614Y260000D01*
X399500Y259531*
Y258750*
X399614Y258281*
X399727Y257969*
X399955Y257656*
X400182Y257500*
X400636*
X400864Y257656*
X401091Y257969*
X401205Y258281*
X403591Y260313D02*
X403477Y260625D01*
X403136Y260781*
X402909*
X402568Y260625*
X402341Y260156*
X402227Y259375*
Y258594*
X402341Y257969*
X402568Y257656*
X402909Y257500*
X403023*
X403364Y257656*
X403591Y257969*
X403705Y258438*
X403705D02*
Y258594D01*
X403591Y259063*
X403591D02*
X403364Y259375D01*
X403023Y259531*
X402909*
X402568Y259375*
X402341Y259063*
X402341D02*
X402227Y258594D01*
X404955Y260781D02*
X406205D01*
X405523Y259531*
X405864*
X406091Y259375*
X406205Y259219*
X406318Y258750*
Y258438*
X406318D02*
X406205Y257969D01*
X405977Y257656*
X405636Y257500*
X405295*
X404955Y257656*
X404841Y257813*
X404841D02*
X404727Y258125D01*
X385705Y255000D02*
X385591Y255312D01*
X385591D02*
X385364Y255625D01*
X385136Y255781*
X384682*
X384455Y255625*
X384227Y255312*
X384227D02*
X384114Y255000D01*
X384000Y254531*
Y253750*
X384114Y253281*
X384227Y252969*
X384455Y252656*
X384682Y252500*
X385136*
X385364Y252656*
X385591Y252969*
X385705Y253281*
X388091Y255312D02*
X387977Y255625D01*
X387636Y255781*
X387409*
X387068Y255625*
X386841Y255156*
X386727Y254375*
Y253594*
X386841Y252969*
X387068Y252656*
X387409Y252500*
X387523*
X387864Y252656*
X388091Y252969*
X388205Y253437*
X388205D02*
Y253594D01*
X388091Y254062*
X388091D02*
X387864Y254375D01*
X387523Y254531*
X387409*
X387068Y254375*
X386841Y254062*
X386841D02*
X386727Y253594D01*
X390364Y255781D02*
X389227Y253594D01*
X390932*
X390364Y255781D02*
Y252500D01*
X387750Y240281D02*
Y237000D01*
Y240281D02*
X388773D01*
X389114Y240125*
X389227Y239969*
X389341Y239656*
Y239344*
X389227Y239031*
X389114Y238875*
X388773Y238719*
X387750*
X388545D02*
X389341Y237000D01*
X390591Y240281D02*
X391841D01*
X391159Y239031*
X391500*
X391727Y238875*
X391841Y238719*
X391955Y238250*
Y237938*
X391955D02*
X391841Y237469D01*
X391614Y237156*
X391273Y237000*
X390932*
X390591Y237156*
X390477Y237313*
X390477D02*
X390364Y237625D01*
X392977Y239656D02*
X393205Y239813D01*
X393205D02*
X393545Y240281D01*
Y237000*
X389727Y226281D02*
Y223000D01*
Y226281D02*
X390750D01*
X391091Y226125*
X391205Y225969*
X391318Y225656*
Y225344*
X391205Y225031*
X391091Y224875*
X390750Y224719*
X389727*
X390523D02*
X391318Y223000D01*
X392568Y226281D02*
X393818D01*
X393136Y225031*
X393477*
X393705Y224875*
X393818Y224719*
X393932Y224250*
Y223938*
X393818Y223469*
X393591Y223156*
X393250Y223000*
X392909*
X392568Y223156*
X392455Y223313*
X392341Y223625*
X395068Y225500D02*
Y225656D01*
X395182Y225969*
X395295Y226125*
X395523Y226281*
X395977*
X396205Y226125*
X396318Y225969*
X396432Y225656*
Y225344*
X396318Y225031*
X396091Y224563*
X394955Y223000*
X396545*
X397727Y222281D02*
Y219000D01*
Y222281D02*
X398750D01*
X399091Y222125*
X399205Y221969*
X399318Y221656*
Y221344*
X399205Y221031*
X399091Y220875*
X398750Y220719*
X397727*
X398523D02*
X399318Y219000D01*
X400568Y222281D02*
X401818D01*
X401136Y221031*
X401477*
X401705Y220875*
X401818Y220719*
X401932Y220250*
Y219938*
X401818Y219469*
X401591Y219156*
X401250Y219000*
X400909*
X400568Y219156*
X400455Y219313*
X400341Y219625*
X403182Y222281D02*
X404432D01*
X403750Y221031*
X404091*
X404318Y220875*
X404432Y220719*
X404545Y220250*
Y219938*
X404432Y219469*
X404205Y219156*
X403864Y219000*
X403523*
X403182Y219156*
X403068Y219313*
X402955Y219625*
X492818Y226000D02*
X492705Y226313D01*
X492705D02*
X492477Y226625D01*
X492250Y226781*
X491795*
X491568Y226625*
X491341Y226313*
X491341D02*
X491227Y226000D01*
X491114Y225531*
Y224750*
X491227Y224281*
X491341Y223969*
X491568Y223656*
X491795Y223500*
X492250*
X492477Y223656*
X492705Y223969*
X492818Y224281*
X495205Y226313D02*
X495091Y226625D01*
X494750Y226781*
X494523*
X494182Y226625*
X493955Y226156*
X493841Y225375*
Y224594*
X493955Y223969*
X494182Y223656*
X494523Y223500*
X494636*
X494977Y223656*
X495205Y223969*
X495318Y224438*
X495318D02*
Y224594D01*
X495205Y225063*
X495205D02*
X494977Y225375D01*
X494636Y225531*
X494523*
X494182Y225375*
X493955Y225063*
X493955D02*
X493841Y224594D01*
X497818Y226781D02*
X496682D01*
X496568Y225375*
X496682Y225531*
X497023Y225688*
X497023D02*
X497364D01*
X497364D02*
X497705Y225531D01*
X497932Y225219*
X498045Y224750*
X497932Y224438*
X497932D02*
X497818Y223969D01*
X497591Y223656*
X497250Y223500*
X496909*
X496568Y223656*
X496455Y223813*
X496455D02*
X496341Y224125D01*
X480114Y239281D02*
Y236000D01*
Y239281D02*
X481136D01*
X481477Y239125*
X481591Y238969*
X481705Y238656*
Y238344*
X481591Y238031*
X481477Y237875*
X481136Y237719*
X480114*
X480909D02*
X481705Y236000D01*
X482955Y239281D02*
X484205D01*
X483523Y238031*
X483864*
X484091Y237875*
X484205Y237719*
X484318Y237250*
Y236938*
X484318D02*
X484205Y236469D01*
X483977Y236156*
X483636Y236000*
X483295*
X482955Y236156*
X482841Y236313*
X482841D02*
X482727Y236625D01*
X486477Y239281D02*
X485341Y237094D01*
X487045*
X486477Y239281D02*
Y236000D01*
X460114Y200281D02*
Y197000D01*
Y200281D02*
X461136D01*
X461477Y200125*
X461591Y199969*
X461705Y199656*
Y199344*
X461591Y199031*
X461477Y198875*
X461136Y198719*
X460114*
X460909D02*
X461705Y197000D01*
X462955Y200281D02*
X464205D01*
X463523Y199031*
X463864*
X464091Y198875*
X464205Y198719*
X464318Y198250*
Y197938*
X464318D02*
X464205Y197469D01*
X463977Y197156*
X463636Y197000*
X463295*
X462955Y197156*
X462841Y197313*
X462841D02*
X462727Y197625D01*
X466818Y200281D02*
X465682D01*
X465568Y198875*
X465682Y199031*
X466023Y199188*
X466023D02*
X466364D01*
X466364D02*
X466705Y199031D01*
X466932Y198719*
X467045Y198250*
X466932Y197938*
X466932D02*
X466818Y197469D01*
X466591Y197156*
X466250Y197000*
X465909*
X465568Y197156*
X465455Y197313*
X465455D02*
X465341Y197625D01*
X465932Y171000D02*
X465818Y171313D01*
X465818D02*
X465591Y171625D01*
X465364Y171781*
X464909*
X464682Y171625*
X464455Y171313*
X464455D02*
X464341Y171000D01*
X464227Y170531*
Y169750*
X464341Y169281*
X464455Y168969*
X464682Y168656*
X464909Y168500*
X465364*
X465591Y168656*
X465818Y168969*
X465932Y169281*
X468318Y171313D02*
X468205Y171625D01*
X467864Y171781*
X467636*
X467295Y171625*
X467068Y171156*
X466955Y170375*
Y169594*
X467068Y168969*
X467295Y168656*
X467636Y168500*
X467750*
X468091Y168656*
X468318Y168969*
X468432Y169438*
X468432D02*
Y169594D01*
X468318Y170063*
X468318D02*
X468091Y170375D01*
X467750Y170531*
X467636*
X467295Y170375*
X467068Y170063*
X467068D02*
X466955Y169594D01*
X471045Y171781D02*
X469909Y168500D01*
X469455Y171781D02*
X471045D01*
X455432Y156000D02*
X455318Y156313D01*
X455318D02*
X455091Y156625D01*
X454864Y156781*
X454409*
X454182Y156625*
X453955Y156313*
X453955D02*
X453841Y156000D01*
X453727Y155531*
Y154750*
X453841Y154281*
X453955Y153969*
X454182Y153656*
X454409Y153500*
X454864*
X455091Y153656*
X455318Y153969*
X455432Y154281*
X457818Y156313D02*
X457705Y156625D01*
X457364Y156781*
X457136*
X456795Y156625*
X456568Y156156*
X456455Y155375*
Y154594*
X456568Y153969*
X456795Y153656*
X457136Y153500*
X457250*
X457591Y153656*
X457818Y153969*
X457932Y154438*
X457932D02*
Y154594D01*
X457818Y155063*
X457818D02*
X457591Y155375D01*
X457250Y155531*
X457136*
X456795Y155375*
X456568Y155063*
X456568D02*
X456455Y154594D01*
X459523Y156781D02*
X459182Y156625D01*
X459068Y156313*
X459068D02*
Y156000D01*
X459182Y155688*
X459182D02*
X459409Y155531D01*
X459864Y155375*
X460205Y155219*
X460432Y154906*
X460545Y154594*
Y154125*
X460432Y153813*
X460432D02*
X460318Y153656D01*
X459977Y153500*
X459523*
X459182Y153656*
X459068Y153813*
X459068D02*
X458955Y154125D01*
Y154594*
X459068Y154906*
X459295Y155219*
X459636Y155375*
X460091Y155531*
X460318Y155688*
X460318D02*
X460432Y156000D01*
Y156313*
X460432D02*
X460318Y156625D01*
X459977Y156781*
X459523*
X502045Y140000D02*
X501932Y140313D01*
X501932D02*
X501705Y140625D01*
X501477Y140781*
X501023*
X500795Y140625*
X500568Y140313*
X500568D02*
X500455Y140000D01*
X500341Y139531*
Y138750*
X500455Y138281*
X500568Y137969*
X500795Y137656*
X501023Y137500*
X501477*
X501705Y137656*
X501932Y137969*
X502045Y138281*
X504432Y140313D02*
X504318Y140625D01*
X503977Y140781*
X503750*
X503409Y140625*
X503182Y140156*
X503068Y139375*
Y138594*
X503182Y137969*
X503409Y137656*
X503750Y137500*
X503864*
X504205Y137656*
X504432Y137969*
X504545Y138438*
X504545D02*
Y138594D01*
X504432Y139063*
X504432D02*
X504205Y139375D01*
X503864Y139531*
X503750*
X503409Y139375*
X503182Y139063*
X503182D02*
X503068Y138594D01*
X507045Y139688D02*
X506932Y139219D01*
X506705Y138906*
X506364Y138750*
X506250*
X505909Y138906*
X505682Y139219*
X505568Y139688*
X505568D02*
Y139844D01*
X505682Y140313*
X505682D02*
X505909Y140625D01*
X506250Y140781*
X506364*
X506705Y140625*
X506932Y140313*
X506932D02*
X507045Y139688D01*
X507045D02*
Y138906D01*
X506932Y138125*
X506705Y137656*
X506364Y137500*
X506136*
X505795Y137656*
X505682Y137969*
X378000Y215781D02*
Y212500D01*
Y215781D02*
X378795D01*
X379136Y215625*
X379364Y215313*
X379364D02*
X379477Y215000D01*
X379591Y214531*
Y213750*
X379477Y213281*
X379364Y212969*
X379136Y212656*
X378795Y212500*
X378000*
X381750Y215781D02*
X380614Y213594D01*
X382318*
X381750Y215781D02*
Y212500D01*
X384818Y215781D02*
X383682D01*
X383568Y214375*
X383682Y214531*
X384023Y214688*
X384023D02*
X384364D01*
X384364D02*
X384705Y214531D01*
X384932Y214219*
X385045Y213750*
X384932Y213438*
X384932D02*
X384818Y212969D01*
X384591Y212656*
X384250Y212500*
X383909*
X383568Y212656*
X383455Y212813*
X383455D02*
X383341Y213125D01*
X410000Y186281D02*
Y183938D01*
X410114Y183469*
X410341Y183156*
X410682Y183000*
X410909*
X411250Y183156*
X411477Y183469*
X411591Y183938*
Y186281*
X412614Y185656D02*
X412841Y185813D01*
X413182Y186281*
Y183000*
X415682Y185188D02*
X415568Y184719D01*
X415341Y184406*
X415000Y184250*
X414886*
X414545Y184406*
X414318Y184719*
X414205Y185188*
Y185344*
X414318Y185813*
X414545Y186125*
X414886Y186281*
X415000*
X415341Y186125*
X415568Y185813*
X415682Y185188*
Y184406*
X415568Y183625*
X415341Y183156*
X415000Y183000*
X414773*
X414432Y183156*
X414318Y183469*
X379841Y247281D02*
Y244000D01*
Y247281D02*
X380864D01*
X381205Y247125*
X381318Y246969*
X381432Y246656*
Y246344*
X381318Y246031*
X381205Y245875*
X380864Y245719*
X379841*
X380636D02*
X381432Y244000D01*
X382682Y247281D02*
X383932D01*
X383250Y246031*
X383591*
X383818Y245875*
X383932Y245719*
X384045Y245250*
Y244938*
X384045D02*
X383932Y244469D01*
X383705Y244156*
X383364Y244000*
X383023*
X382682Y244156*
X382568Y244313*
X382568D02*
X382455Y244625D01*
X386432Y246813D02*
X386318Y247125D01*
X385977Y247281*
X385750*
X385409Y247125*
X385182Y246656*
X385068Y245875*
Y245094*
X385182Y244469*
X385409Y244156*
X385750Y244000*
X385864*
X386205Y244156*
X386432Y244469*
X386545Y244938*
X386545D02*
Y245094D01*
X386432Y245563*
X386432D02*
X386205Y245875D01*
X385864Y246031*
X385750*
X385409Y245875*
X385182Y245563*
X385182D02*
X385068Y245094D01*
X457318Y145000D02*
X457205Y145313D01*
X457205D02*
X456977Y145625D01*
X456750Y145781*
X456295*
X456068Y145625*
X455841Y145313*
X455841D02*
X455727Y145000D01*
X455614Y144531*
Y143750*
X455727Y143281*
X455841Y142969*
X456068Y142656*
X456295Y142500*
X456750*
X456977Y142656*
X457205Y142969*
X457318Y143281*
X459932Y145781D02*
X458795Y142500D01*
X458341Y145781D02*
X459932D01*
X461636D02*
X461295Y145625D01*
X461068Y145156*
X460955Y144375*
Y143906*
X461068Y143125*
X461295Y142656*
X461636Y142500*
X461864*
X462205Y142656*
X462432Y143125*
X462545Y143906*
Y144375*
X462432Y145156*
X462205Y145625*
X461864Y145781*
X461636*
X467636Y125281D02*
Y122781D01*
X467523Y122313*
X467523D02*
X467409Y122156D01*
X467182Y122000*
X466955*
X466727Y122156*
X466614Y122313*
X466614D02*
X466500Y122781D01*
Y123094*
X468659Y124656D02*
X468886Y124813D01*
X468886D02*
X469227Y125281D01*
Y122000*
X470932Y125281D02*
X470591Y125125D01*
X470364Y124656*
X470250Y123875*
Y123406*
X470364Y122625*
X470591Y122156*
X470932Y122000*
X471159*
X471500Y122156*
X471727Y122625*
X471841Y123406*
Y123875*
X471727Y124656*
X471500Y125125*
X471159Y125281*
X470932*
X339118Y201632D02*
Y203976D01*
X339004Y204445*
X338777Y204757*
X338436Y204913*
X338209*
X337868Y204757*
X337641Y204445*
X337527Y203976*
Y201632*
X336391Y202413D02*
Y202257D01*
X336277Y201945*
X336164Y201788*
X335936Y201632*
X335482*
X335254Y201788*
X335141Y201945*
X335027Y202257*
Y202570*
X335141Y202882*
X335368Y203351*
X336504Y204913*
X334914*
X333209Y201632D02*
X333550Y201788D01*
X333777Y202257*
X333891Y203038*
Y203507*
X333777Y204288*
X333550Y204757*
X333209Y204913*
X332982*
X332641Y204757*
X332414Y204288*
X332300Y203507*
Y203038*
X332414Y202257*
X332641Y201788*
X332982Y201632*
X333209*
X359205Y149000D02*
X359091Y149313D01*
X359091D02*
X358864Y149625D01*
X358636Y149781*
X358182*
X357955Y149625*
X357727Y149313*
X357727D02*
X357614Y149000D01*
X357500Y148531*
Y147750*
X357614Y147281*
X357727Y146969*
X357955Y146656*
X358182Y146500*
X358636*
X358864Y146656*
X359091Y146969*
X359205Y147281*
X361818Y149781D02*
X360682Y146500D01*
X360227Y149781D02*
X361818D01*
X362955Y149000D02*
Y149156D01*
X363068Y149469*
X363182Y149625*
X363409Y149781*
X363864*
X364091Y149625*
X364205Y149469*
X364318Y149156*
Y148844*
X364205Y148531*
X363977Y148063*
X363977D02*
X362841Y146500D01*
X364432*
X345727Y205781D02*
Y202500D01*
Y205781D02*
X346750D01*
X347091Y205625*
X347205Y205469*
X347318Y205156*
Y204844*
X347205Y204531*
X347091Y204375*
X346750Y204219*
X345727*
X346523D02*
X347318Y202500D01*
X348568Y205781D02*
X349818D01*
X349136Y204531*
X349477*
X349705Y204375*
X349818Y204219*
X349932Y203750*
Y203438*
X349932D02*
X349818Y202969D01*
X349591Y202656*
X349250Y202500*
X348909*
X348568Y202656*
X348455Y202813*
X348455D02*
X348341Y203125D01*
X352545Y205781D02*
X351409Y202500D01*
X350955Y205781D02*
X352545D01*
X440636Y166781D02*
Y164281D01*
X440523Y163813*
X440523D02*
X440409Y163656D01*
X440182Y163500*
X439955*
X439727Y163656*
X439614Y163813*
X439614D02*
X439500Y164281D01*
Y164594*
X441659Y166156D02*
X441886Y166313D01*
X441886D02*
X442227Y166781D01*
Y163500*
X443250Y166156D02*
X443477Y166313D01*
X443477D02*
X443818Y166781D01*
Y163500*
X318227Y225781D02*
Y222500D01*
Y225781D02*
X319250D01*
X319591Y225625*
X319705Y225469*
X319818Y225156*
Y224844*
X319705Y224531*
X319591Y224375*
X319250Y224219*
X318227*
X319023D02*
X319818Y222500D01*
X321068Y225781D02*
X322318D01*
X321636Y224531*
X321977*
X322205Y224375*
X322318Y224219*
X322432Y223750*
Y223438*
X322432D02*
X322318Y222969D01*
X322091Y222656*
X321750Y222500*
X321409*
X321068Y222656*
X320955Y222813*
X320955D02*
X320841Y223125D01*
X324023Y225781D02*
X323682Y225625D01*
X323568Y225313*
X323568D02*
Y225000D01*
X323682Y224688*
X323682D02*
X323909Y224531D01*
X324364Y224375*
X324705Y224219*
X324932Y223906*
X325045Y223594*
Y223125*
X324932Y222813*
X324932D02*
X324818Y222656D01*
X324477Y222500*
X324023*
X323682Y222656*
X323568Y222813*
X323568D02*
X323455Y223125D01*
Y223594*
X323568Y223906*
X323795Y224219*
X324136Y224375*
X324591Y224531*
X324818Y224688*
X324818D02*
X324932Y225000D01*
Y225313*
X324932D02*
X324818Y225625D01*
X324477Y225781*
X324023*
X428705Y187500D02*
X428591Y187813D01*
X428591D02*
X428364Y188125D01*
X428136Y188281*
X427682*
X427455Y188125*
X427227Y187813*
X427227D02*
X427114Y187500D01*
X427000Y187031*
Y186250*
X427114Y185781*
X427227Y185469*
X427455Y185156*
X427682Y185000*
X428136*
X428364Y185156*
X428591Y185469*
X428705Y185781*
X431318Y188281D02*
X430182Y185000D01*
X429727Y188281D02*
X431318D01*
X432568D02*
X433818D01*
X433136Y187031*
X433477*
X433705Y186875*
X433818Y186719*
X433932Y186250*
Y185938*
X433932D02*
X433818Y185469D01*
X433591Y185156*
X433250Y185000*
X432909*
X432568Y185156*
X432455Y185313*
X432455D02*
X432341Y185625D01*
X347000Y235281D02*
Y232938D01*
X347000D02*
X347114Y232469D01*
X347341Y232156*
X347682Y232000*
X347909*
X348250Y232156*
X348477Y232469*
X348591Y232938*
X348591D02*
Y235281D01*
X349727Y234500D02*
Y234656D01*
X349841Y234969*
X349955Y235125*
X350182Y235281*
X350636*
X350864Y235125*
X350977Y234969*
X351091Y234656*
Y234344*
X350977Y234031*
X350750Y233563*
X350750D02*
X349614Y232000D01*
X351205*
X352227Y234656D02*
X352455Y234813D01*
X352455D02*
X352795Y235281D01*
Y232000*
X347705Y220000D02*
X347591Y220313D01*
X347591D02*
X347364Y220625D01*
X347136Y220781*
X346682*
X346455Y220625*
X346227Y220313*
X346227D02*
X346114Y220000D01*
X346000Y219531*
Y218750*
X346114Y218281*
X346227Y217969*
X346455Y217656*
X346682Y217500*
X347136*
X347364Y217656*
X347591Y217969*
X347705Y218281*
X350318Y220781D02*
X349182Y217500D01*
X348727Y220781D02*
X350318D01*
X352477D02*
X351341Y218594D01*
X353045*
X352477Y220781D02*
Y217500D01*
X357705Y228000D02*
X357591Y228313D01*
X357364Y228625*
X357136Y228781*
X356682*
X356455Y228625*
X356227Y228313*
X356114Y228000*
X356000Y227531*
Y226750*
X356114Y226281*
X356227Y225969*
X356455Y225656*
X356682Y225500*
X357136*
X357364Y225656*
X357591Y225969*
X357705Y226281*
X360318Y228781D02*
X359182Y225500D01*
X358727Y228781D02*
X360318D01*
X362818D02*
X361682D01*
X361568Y227375*
X361682Y227531*
X362023Y227688*
X362364*
X362705Y227531*
X362932Y227219*
X363045Y226750*
X362932Y226438*
X362818Y225969*
X362591Y225656*
X362250Y225500*
X361909*
X361568Y225656*
X361455Y225813*
X361341Y226125*
X360114Y206281D02*
Y203000D01*
Y206281D02*
X361136D01*
X361477Y206125*
X361591Y205969*
X361705Y205656*
Y205344*
X361591Y205031*
X361477Y204875*
X361136Y204719*
X360114*
X360909D02*
X361705Y203000D01*
X363864Y206281D02*
X362727Y204094D01*
X364432*
X363864Y206281D02*
Y203000D01*
X366136Y206281D02*
X365795Y206125D01*
X365568Y205656*
X365455Y204875*
Y204406*
X365568Y203625*
X365795Y203156*
X366136Y203000*
X366364*
X366705Y203156*
X366932Y203625*
X367045Y204406*
Y204875*
X366932Y205656*
X366705Y206125*
X366364Y206281*
X366136*
X428705Y155000D02*
X428591Y155313D01*
X428364Y155625*
X428136Y155781*
X427682*
X427455Y155625*
X427227Y155313*
X427114Y155000*
X427000Y154531*
Y153750*
X427114Y153281*
X427227Y152969*
X427455Y152656*
X427682Y152500*
X428136*
X428364Y152656*
X428591Y152969*
X428705Y153281*
X431318Y155781D02*
X430182Y152500D01*
X429727Y155781D02*
X431318D01*
X433705Y155313D02*
X433591Y155625D01*
X433250Y155781*
X433023*
X432682Y155625*
X432455Y155156*
X432341Y154375*
Y153594*
X432455Y152969*
X432682Y152656*
X433023Y152500*
X433136*
X433477Y152656*
X433705Y152969*
X433818Y153438*
Y153594*
X433705Y154063*
X433477Y154375*
X433136Y154531*
X433023*
X432682Y154375*
X432455Y154063*
X432341Y153594*
X332636Y399281D02*
Y396000D01*
Y399281D02*
X333659D01*
X334000Y399125*
X334114Y398969*
X334227Y398656*
Y398344*
X334114Y398031*
X334000Y397875*
X333659Y397719*
X332636*
X333432D02*
X334227Y396000D01*
X336386Y399281D02*
X335250Y397094D01*
X336955*
X336386Y399281D02*
Y396000D01*
X337977Y398656D02*
X338205Y398813D01*
X338545Y399281*
Y396000*
X314719Y435000D02*
X318000D01*
X314719D02*
Y435795D01*
X314875Y436136*
X315187Y436364*
X315187D02*
X315500Y436477D01*
X315969Y436591*
X316750*
X317219Y436477*
X317531Y436364*
X317844Y436136*
X318000Y435795*
Y435000*
X314719Y439091D02*
Y437955D01*
X316125Y437841*
X315969Y437955*
X315812Y438295*
X315812D02*
Y438636D01*
X315812D02*
X315969Y438977D01*
X316281Y439205*
X316750Y439318*
X317062Y439205*
X317062D02*
X317531Y439091D01*
X317844Y438864*
X318000Y438523*
Y438182*
X317844Y437841*
X317687Y437727*
X317687D02*
X317375Y437614D01*
X314719Y441023D02*
X314875Y440682D01*
X315344Y440455*
X316125Y440341*
X316594*
X317375Y440455*
X317844Y440682*
X318000Y441023*
Y441250*
X317844Y441591*
X317375Y441818*
X316594Y441932*
X316125*
X315344Y441818*
X314875Y441591*
X314719Y441250*
Y441023*
X479781Y213886D02*
X476500D01*
X479781D02*
Y212864D01*
X479625Y212523*
X479469Y212409*
X479156Y212295*
X478844*
X478531Y212409*
X478375Y212523*
X478219Y212864*
Y213886*
Y213091D02*
X476500Y212295D01*
X479781Y210136D02*
X477594Y211273D01*
Y209568*
X479781Y210136D02*
X476500D01*
X479781Y208318D02*
Y207068D01*
X478531Y207750*
Y207409*
X478375Y207182*
X478219Y207068*
X477750Y206955*
X477438*
X477438D02*
X476969Y207068D01*
X476656Y207295*
X476500Y207636*
Y207977*
X476656Y208318*
X476813Y208432*
X476813D02*
X477125Y208545D01*
X450000Y215781D02*
Y212500D01*
Y215781D02*
X451023D01*
X451364Y215625*
X451477Y215469*
X451591Y215156*
Y214844*
X451477Y214531*
X451364Y214375*
X451023Y214219*
X450000*
X450795D02*
X451591Y212500D01*
X453750Y215781D02*
X452614Y213594D01*
X454318*
X453750Y215781D02*
Y212500D01*
X456477Y215781D02*
X455341Y213594D01*
X457045*
X456477Y215781D02*
Y212500D01*
X504500Y265781D02*
Y262500D01*
Y265781D02*
X505523D01*
X505864Y265625*
X505977Y265469*
X506091Y265156*
Y264844*
X505977Y264531*
X505864Y264375*
X505523Y264219*
X504500*
X505295D02*
X506091Y262500D01*
X508250Y265781D02*
X507114Y263594D01*
X508818*
X508250Y265781D02*
Y262500D01*
X511318Y265781D02*
X510182D01*
X510068Y264375*
X510182Y264531*
X510523Y264688*
X510523D02*
X510864D01*
X510864D02*
X511205Y264531D01*
X511432Y264219*
X511545Y263750*
X511432Y263438*
X511432D02*
X511318Y262969D01*
X511091Y262656*
X510750Y262500*
X510409*
X510068Y262656*
X509955Y262813*
X509955D02*
X509841Y263125D01*
X508654Y191281D02*
Y188000D01*
X510017*
X511154Y190500D02*
Y190656D01*
X511267Y190969*
X511381Y191125*
X511608Y191281*
X512063*
X512290Y191125*
X512404Y190969*
X512517Y190656*
Y190344*
X512404Y190031*
X512176Y189563*
X512176D02*
X511040Y188000D01*
X512631*
X316136Y203781D02*
Y201281D01*
X316023Y200813*
X316023D02*
X315909Y200656D01*
X315682Y200500*
X315455*
X315227Y200656*
X315114Y200813*
X315114D02*
X315000Y201281D01*
Y201594*
X317159Y203156D02*
X317386Y203313D01*
X317386D02*
X317727Y203781D01*
Y200500*
X318864Y203000D02*
Y203156D01*
X318977Y203469*
X319091Y203625*
X319318Y203781*
X319773*
X320000Y203625*
X320114Y203469*
X320227Y203156*
Y202844*
X320114Y202531*
X319886Y202063*
X319886D02*
X318750Y200500D01*
X320341*
X482091Y443313D02*
X481864Y443625D01*
X481523Y443781*
X481068*
X480727Y443625*
X480500Y443313*
X480500D02*
Y443000D01*
X480614Y442688*
X480614D02*
X480727Y442531D01*
X480955Y442375*
X481636Y442063*
X481636D02*
X481864Y441906D01*
X481977Y441750*
X482091Y441438*
X482091D02*
Y440969D01*
X481864Y440656*
X481523Y440500*
X481068*
X480727Y440656*
X480500Y440969*
X483114Y443781D02*
X483682Y440500D01*
X484250Y443781D02*
X483682Y440500D01*
X484250Y443781D02*
X484818Y440500D01*
X485386Y443781D02*
X484818Y440500D01*
X486523Y443000D02*
Y443156D01*
X486636Y443469*
X486750Y443625*
X486977Y443781*
X487432*
X487659Y443625*
X487773Y443469*
X487886Y443156*
Y442844*
X487773Y442531*
X487545Y442063*
X487545D02*
X486409Y440500D01*
X488000*
X314719Y426000D02*
X318000D01*
X314719D02*
Y426795D01*
X314875Y427136*
X315187Y427364*
X315187D02*
X315500Y427477D01*
X315969Y427591*
X316750*
X317219Y427477*
X317531Y427364*
X317844Y427136*
X318000Y426795*
Y426000*
X314719Y430091D02*
Y428955D01*
X316125Y428841*
X315969Y428955*
X315812Y429295*
X315812D02*
Y429636D01*
X315812D02*
X315969Y429977D01*
X316281Y430205*
X316750Y430318*
X317062Y430205*
X317062D02*
X317531Y430091D01*
X317844Y429864*
X318000Y429523*
Y429182*
X317844Y428841*
X317687Y428727*
X317687D02*
X317375Y428614D01*
X315344Y431341D02*
X315187Y431568D01*
X315187D02*
X314719Y431909D01*
X318000*
X314719Y417000D02*
X318000D01*
X314719D02*
Y417795D01*
X314875Y418136*
X315187Y418364*
X315187D02*
X315500Y418477D01*
X315969Y418591*
X316750*
X317219Y418477*
X317531Y418364*
X317844Y418136*
X318000Y417795*
Y417000*
X314719Y421091D02*
Y419955D01*
X316125Y419841*
X315969Y419955*
X315812Y420295*
X315812D02*
Y420636D01*
X315812D02*
X315969Y420977D01*
X316281Y421205*
X316750Y421318*
X317062Y421205*
X317062D02*
X317531Y421091D01*
X317844Y420864*
X318000Y420523*
Y420182*
X317844Y419841*
X317687Y419727*
X317687D02*
X317375Y419614D01*
X315500Y422455D02*
X315344D01*
X315031Y422568*
X314875Y422682*
X314719Y422909*
Y423364*
X314875Y423591*
X315031Y423705*
X315344Y423818*
X315656*
X315969Y423705*
X316437Y423477*
X316437D02*
X318000Y422341D01*
Y423932*
X332727Y406281D02*
Y403000D01*
Y406281D02*
X333750D01*
X334091Y406125*
X334205Y405969*
X334318Y405656*
Y405344*
X334205Y405031*
X334091Y404875*
X333750Y404719*
X332727*
X333523D02*
X334318Y403000D01*
X336477Y406281D02*
X335341Y404094D01*
X337045*
X336477Y406281D02*
Y403000D01*
X339432Y405813D02*
X339318Y406125D01*
X338977Y406281*
X338750*
X338409Y406125*
X338182Y405656*
X338068Y404875*
Y404094*
X338182Y403469*
X338409Y403156*
X338750Y403000*
X338864*
X339205Y403156*
X339432Y403469*
X339545Y403938*
Y404094*
X339432Y404563*
X339205Y404875*
X338864Y405031*
X338750*
X338409Y404875*
X338182Y404563*
X338068Y404094*
X332614Y413281D02*
Y410000D01*
Y413281D02*
X333636D01*
X333977Y413125*
X334091Y412969*
X334205Y412656*
Y412344*
X334091Y412031*
X333977Y411875*
X333636Y411719*
X332614*
X333409D02*
X334205Y410000D01*
X336364Y413281D02*
X335227Y411094D01*
X336932*
X336364Y413281D02*
Y410000D01*
X339545Y413281D02*
X338409Y410000D01*
X337955Y413281D02*
X339545D01*
X479000Y228281D02*
Y225938D01*
X479114Y225469*
X479341Y225156*
X479682Y225000*
X479909*
X480250Y225156*
X480477Y225469*
X480591Y225938*
Y228281*
X481727Y227500D02*
Y227656D01*
X481841Y227969*
X481955Y228125*
X482182Y228281*
X482636*
X482864Y228125*
X482977Y227969*
X483091Y227656*
Y227344*
X482977Y227031*
X482750Y226563*
X481614Y225000*
X483205*
X484341Y227500D02*
Y227656D01*
X484455Y227969*
X484568Y228125*
X484795Y228281*
X485250*
X485477Y228125*
X485591Y227969*
X485705Y227656*
Y227344*
X485591Y227031*
X485364Y226563*
X484227Y225000*
X485818*
G54D14*
X280142Y142000D02*
X274768D01*
Y143250*
X273232*
Y142000*
X267858*
Y162000*
X280142*
Y142000*
X237252Y393764D02*
X268748D01*
Y364236*
X237252*
Y393764*
X226614Y307614D02*
Y334386D01*
X252992*
Y307614*
X226614*
X203000Y228000D02*
Y222000D01*
X221000Y253000D02*
X227000D01*
X203000Y262000D02*
Y256000D01*
X186000Y248000D02*
X180000D01*
X120031Y218299D02*
Y206094D01*
X124362*
Y218299*
X120031*
X134969Y225181D02*
X131031D01*
X131425Y230693D02*
X127094D01*
Y225181*
X127882*
X134575Y230693D02*
X139299D01*
Y225181*
X138118*
X294685Y188000D02*
G03X294685I-19685J0D01*
G01X136717Y199858D02*
X101283D01*
Y180173*
X136717*
Y199858*
X265118Y235709D02*
Y230714D01*
X264478*
Y229286*
X265118*
Y224291*
X254882*
Y235709*
X265118*
X492142Y142000D02*
X486768D01*
Y143250*
X485232*
Y142000*
X479858*
Y162000*
X492142*
Y142000*
X449252Y393764D02*
X480748D01*
Y364236*
X449252*
Y393764*
X438614Y307614D02*
Y334386D01*
X464992*
Y307614*
X438614*
X415000Y228000D02*
Y222000D01*
X433000Y253000D02*
X439000D01*
X415000Y262000D02*
Y256000D01*
X398000Y248000D02*
X392000D01*
X332031Y218299D02*
Y206094D01*
X336362*
Y218299*
X332031*
X346969Y225181D02*
X343031D01*
X343425Y230693D02*
X339094D01*
Y225181*
X339882*
X346575Y230693D02*
X351299D01*
Y225181*
X350118*
X506685Y188000D02*
G03X506685I-19685J0D01*
G01X348717Y199858D02*
X313283D01*
Y180173*
X348717*
Y199858*
X477118Y235709D02*
Y230714D01*
X476478*
Y229286*
X477118*
Y224291*
X466882*
Y235709*
X477118*
G54D15*
X296504Y286000D02*
G03X296504I-18504J0D01*
G01X508504D02*
G03X508504I-18504J0D01*
G54D16*
G01X121769Y217118D02*
G03X121769I-556J0D01*
G01X333769D02*
G03X333769I-556J0D01*
G54D17*
G01X271157Y247973D02*
Y243157D01*
X290843*
Y245126*
X271157Y258027D02*
Y262843D01*
X290843*
Y260874*
Y252016D02*
Y253984D01*
X483157Y247973D02*
Y243157D01*
X502843*
Y245126*
X483157Y258027D02*
Y262843D01*
X502843*
Y260874*
Y252016D02*
Y253984D01*
G74*
X0Y0D02*
M02*
